<?xml version="1.0" encoding="UTF-8" standalone="no"?>
<!DOCTYPE svg PUBLIC "-//W3C//DTD SVG 1.1//EN"
 "http://www.w3.org/Graphics/SVG/1.1/DTD/svg11.dtd">
<!-- Generated by graphviz version 15.1.0 (20260618.0150)
 -->
<!-- Title: include/AccessToken.h Pages: 1 -->
<svg width="378pt" height="83pt"
 viewBox="0.00 0.00 378.00 83.00" xmlns="http://www.w3.org/2000/svg" xmlns:xlink="http://www.w3.org/1999/xlink">
<g id="graph0" class="graph" transform="scale(1 1) rotate(0) translate(4 78.5)">
<title>include/AccessToken.h</title>
<!-- Node1 -->
<g id="Node000001" class="node">
<title>Node1</title>
<g id="a_Node000001"><a xlink:title=" ">
<polygon fill="#999999" stroke="#666666" points="247.62,-74.5 130.38,-74.5 130.38,-55.25 247.62,-55.25 247.62,-74.5"/>
<text xml:space="preserve" text-anchor="middle" x="189" y="-61" font-family="Helvetica,sans-Serif" font-size="10.00">include/AccessToken.h</text>
</a>
</g>
</g>
<!-- Node2 -->
<g id="Node000002" class="node">
<title>Node2</title>
<g id="a_Node000002"><a xlink:href="_c_access_token_8cpp.html" target="_top" xlink:title=" ">
<polygon fill="white" stroke="#666666" points="118,-19.25 0,-19.25 0,0 118,0 118,-19.25"/>
<text xml:space="preserve" text-anchor="middle" x="59" y="-5.75" font-family="Helvetica,sans-Serif" font-size="10.00">src/CAccessToken.cpp</text>
</a>
</g>
</g>
<!-- Node1&#45;&gt;Node2 -->
<g id="edge1_Node000001_Node000002" class="edge">
<title>Node1&#45;&gt;Node2</title>
<g id="a_edge1_Node000001_Node000002"><a xlink:title=" ">
<path fill="none" stroke="#63b8ff" d="M156.43,-50.53C132.93,-40.91 101.83,-28.17 81.16,-19.7"/>
<polygon fill="#63b8ff" stroke="#63b8ff" points="154.97,-53.72 165.55,-54.27 157.62,-47.24 154.97,-53.72"/>
</a>
</g>
</g>
<!-- Node3 -->
<g id="Node000003" class="node">
<title>Node3</title>
<g id="a_Node000003"><a xlink:href="_c_web_server_8cpp.html" target="_top" xlink:title=" ">
<polygon fill="white" stroke="#666666" points="242,-19.25 136,-19.25 136,0 242,0 242,-19.25"/>
<text xml:space="preserve" text-anchor="middle" x="189" y="-5.75" font-family="Helvetica,sans-Serif" font-size="10.00">src/CWebServer.cpp</text>
</a>
</g>
</g>
<!-- Node1&#45;&gt;Node3 -->
<g id="edge2_Node000001_Node000003" class="edge">
<title>Node1&#45;&gt;Node3</title>
<g id="a_edge2_Node000001_Node000003"><a xlink:title=" ">
<path fill="none" stroke="#63b8ff" d="M189,-43.63C189,-35.34 189,-26.17 189,-19.61"/>
<polygon fill="#63b8ff" stroke="#63b8ff" points="185.5,-43.57 189,-53.57 192.5,-43.57 185.5,-43.57"/>
</a>
</g>
</g>
<!-- Node4 -->
<g id="Node000004" class="node">
<title>Node4</title>
<g id="a_Node000004"><a xlink:href="_c_web_socket_8cpp.html" target="_top" xlink:title="Implementation of the CWebSocket class.">
<polygon fill="white" stroke="#666666" points="369.5,-19.25 260.5,-19.25 260.5,0 369.5,0 369.5,-19.25"/>
<text xml:space="preserve" text-anchor="middle" x="315" y="-5.75" font-family="Helvetica,sans-Serif" font-size="10.00">src/CWebSocket.cpp</text>
</a>
</g>
</g>
<!-- Node1&#45;&gt;Node4 -->
<g id="edge3_Node000001_Node000004" class="edge">
<title>Node1&#45;&gt;Node4</title>
<g id="a_edge3_Node000001_Node000004"><a xlink:title=" ">
<path fill="none" stroke="#63b8ff" d="M220.88,-50.4C243.62,-40.79 273.57,-28.13 293.52,-19.7"/>
<polygon fill="#63b8ff" stroke="#63b8ff" points="219.62,-47.14 211.77,-54.25 222.34,-53.58 219.62,-47.14"/>
</a>
</g>
</g>
</g>
</svg>
