<?xml version="1.0" encoding="UTF-8" standalone="no"?>
<!DOCTYPE svg PUBLIC "-//W3C//DTD SVG 1.1//EN"
 "http://www.w3.org/Graphics/SVG/1.1/DTD/svg11.dtd">
<!-- Generated by graphviz version 15.1.0 (20260618.0150)
 -->
<!-- Title: include/AccessToken.h Pages: 1 -->
<svg width="207pt" height="248pt"
 viewBox="0.00 0.00 207.00 248.00" xmlns="http://www.w3.org/2000/svg" xmlns:xlink="http://www.w3.org/1999/xlink">
<g id="graph0" class="graph" transform="scale(1 1) rotate(0) translate(4 244.25)">
<title>include/AccessToken.h</title>
<!-- Node1 -->
<g id="Node000001" class="node">
<title>Node1</title>
<g id="a_Node000001"><a xlink:title=" ">
<polygon fill="#999999" stroke="#666666" points="125.25,-240.25 8,-240.25 8,-221 125.25,-221 125.25,-240.25"/>
<text xml:space="preserve" text-anchor="middle" x="66.62" y="-226.75" font-family="Helvetica,sans-Serif" font-size="10.00">include/AccessToken.h</text>
</a>
</g>
</g>
<!-- Node2 -->
<g id="Node000002" class="node">
<title>Node2</title>
<g id="a_Node000002"><a xlink:href="_a_e_s_cryptor_8h.html" target="_top" xlink:title=" ">
<polygon fill="white" stroke="#666666" points="104.62,-185 28.62,-185 28.62,-165.75 104.62,-165.75 104.62,-185"/>
<text xml:space="preserve" text-anchor="middle" x="66.62" y="-171.5" font-family="Helvetica,sans-Serif" font-size="10.00">AESCryptor.h</text>
</a>
</g>
</g>
<!-- Node1&#45;&gt;Node2 -->
<g id="edge1_Node000001_Node000002" class="edge">
<title>Node1&#45;&gt;Node2</title>
<g id="a_edge1_Node000001_Node000002"><a xlink:title=" ">
<path fill="none" stroke="#63b8ff" d="M66.62,-220.83C66.62,-214.32 66.62,-205.17 66.62,-196.87"/>
<polygon fill="#63b8ff" stroke="#63b8ff" points="70.13,-196.87 66.63,-186.87 63.13,-196.87 70.13,-196.87"/>
</a>
</g>
</g>
<!-- Node3 -->
<g id="Node000003" class="node">
<title>Node3</title>
<g id="a_Node000003"><a xlink:title=" ">
<polygon fill="#e0e0e0" stroke="#999999" points="57.25,-129.75 0,-129.75 0,-110.5 57.25,-110.5 57.25,-129.75"/>
<text xml:space="preserve" text-anchor="middle" x="28.62" y="-116.25" font-family="Helvetica,sans-Serif" font-size="10.00">Arduino.h</text>
</a>
</g>
</g>
<!-- Node2&#45;&gt;Node3 -->
<g id="edge2_Node000002_Node000003" class="edge">
<title>Node2&#45;&gt;Node3</title>
<g id="a_edge2_Node000002_Node000003"><a xlink:title=" ">
<path fill="none" stroke="#63b8ff" d="M60.35,-165.58C55.27,-158.46 47.93,-148.18 41.59,-139.3"/>
<polygon fill="#63b8ff" stroke="#63b8ff" points="44.57,-137.45 35.92,-131.34 38.88,-141.51 44.57,-137.45"/>
</a>
</g>
</g>
<!-- Node4 -->
<g id="Node000004" class="node">
<title>Node4</title>
<g id="a_Node000004"><a xlink:href="_network_8h.html" target="_top" xlink:title=" ">
<polygon fill="white" stroke="#666666" points="136.12,-129.75 75.12,-129.75 75.12,-110.5 136.12,-110.5 136.12,-129.75"/>
<text xml:space="preserve" text-anchor="middle" x="105.62" y="-116.25" font-family="Helvetica,sans-Serif" font-size="10.00">Network.h</text>
</a>
</g>
</g>
<!-- Node2&#45;&gt;Node4 -->
<g id="edge3_Node000002_Node000004" class="edge">
<title>Node2&#45;&gt;Node4</title>
<g id="a_edge3_Node000002_Node000004"><a xlink:title=" ">
<path fill="none" stroke="#63b8ff" d="M73.07,-165.58C78.28,-158.46 85.81,-148.18 92.32,-139.3"/>
<polygon fill="#63b8ff" stroke="#63b8ff" points="95.07,-141.47 98.15,-131.33 89.42,-137.33 95.07,-141.47"/>
</a>
</g>
</g>
<!-- Node5 -->
<g id="Node000005" class="node">
<title>Node5</title>
<g id="a_Node000005"><a xlink:href="_runtime_8h.html" target="_top" xlink:title=" ">
<polygon fill="white" stroke="#666666" points="136.12,-74.5 75.12,-74.5 75.12,-55.25 136.12,-55.25 136.12,-74.5"/>
<text xml:space="preserve" text-anchor="middle" x="105.62" y="-61" font-family="Helvetica,sans-Serif" font-size="10.00">Runtime.h</text>
</a>
</g>
</g>
<!-- Node4&#45;&gt;Node5 -->
<g id="edge4_Node000004_Node000005" class="edge">
<title>Node4&#45;&gt;Node5</title>
<g id="a_edge4_Node000004_Node000005"><a xlink:title=" ">
<path fill="none" stroke="#63b8ff" d="M105.62,-110.33C105.62,-103.82 105.62,-94.67 105.62,-86.37"/>
<polygon fill="#63b8ff" stroke="#63b8ff" points="109.13,-86.37 105.63,-76.37 102.13,-86.37 109.13,-86.37"/>
</a>
</g>
</g>
<!-- Node6 -->
<g id="Node000006" class="node">
<title>Node6</title>
<g id="a_Node000006"><a xlink:title=" ">
<polygon fill="#e0e0e0" stroke="#999999" points="64.75,-19.25 16.5,-19.25 16.5,0 64.75,0 64.75,-19.25"/>
<text xml:space="preserve" text-anchor="middle" x="40.62" y="-5.75" font-family="Helvetica,sans-Serif" font-size="10.00">string.h</text>
</a>
</g>
</g>
<!-- Node5&#45;&gt;Node6 -->
<g id="edge5_Node000005_Node000006" class="edge">
<title>Node5&#45;&gt;Node6</title>
<g id="a_edge5_Node000005_Node000006"><a xlink:title=" ">
<path fill="none" stroke="#63b8ff" d="M94.6,-54.84C85.2,-47.15 71.48,-35.9 60.22,-26.68"/>
<polygon fill="#63b8ff" stroke="#63b8ff" points="62.61,-24.11 52.66,-20.48 58.18,-29.53 62.61,-24.11"/>
</a>
</g>
</g>
<!-- Node7 -->
<g id="Node000007" class="node">
<title>Node7</title>
<g id="a_Node000007"><a xlink:title=" ">
<polygon fill="#e0e0e0" stroke="#999999" points="128.25,-19.25 83,-19.25 83,0 128.25,0 128.25,-19.25"/>
<text xml:space="preserve" text-anchor="middle" x="105.62" y="-5.75" font-family="Helvetica,sans-Serif" font-size="10.00">chrono</text>
</a>
</g>
</g>
<!-- Node5&#45;&gt;Node7 -->
<g id="edge6_Node000005_Node000007" class="edge">
<title>Node5&#45;&gt;Node7</title>
<g id="a_edge6_Node000005_Node000007"><a xlink:title=" ">
<path fill="none" stroke="#63b8ff" d="M105.62,-55.08C105.62,-48.57 105.62,-39.42 105.62,-31.12"/>
<polygon fill="#63b8ff" stroke="#63b8ff" points="109.13,-31.12 105.63,-21.12 102.13,-31.12 109.13,-31.12"/>
</a>
</g>
</g>
<!-- Node8 -->
<g id="Node000008" class="node">
<title>Node8</title>
<g id="a_Node000008"><a xlink:title=" ">
<polygon fill="#e0e0e0" stroke="#999999" points="199.38,-19.25 145.88,-19.25 145.88,0 199.38,0 199.38,-19.25"/>
<text xml:space="preserve" text-anchor="middle" x="172.62" y="-5.75" font-family="Helvetica,sans-Serif" font-size="10.00">iostream</text>
</a>
</g>
</g>
<!-- Node5&#45;&gt;Node8 -->
<g id="edge7_Node000005_Node000008" class="edge">
<title>Node5&#45;&gt;Node8</title>
<g id="a_edge7_Node000005_Node000008"><a xlink:title=" ">
<path fill="none" stroke="#63b8ff" d="M116.99,-54.84C126.67,-47.15 140.82,-35.9 152.43,-26.68"/>
<polygon fill="#63b8ff" stroke="#63b8ff" points="154.59,-29.43 160.24,-20.47 150.24,-23.95 154.59,-29.43"/>
</a>
</g>
</g>
</g>
</svg>
