<?xml version="1.0" encoding="UTF-8" standalone="no"?>
<!DOCTYPE svg PUBLIC "-//W3C//DTD SVG 1.1//EN"
 "http://www.w3.org/Graphics/SVG/1.1/DTD/svg11.dtd">
<!-- Generated by graphviz version 15.1.0 (20260618.0150)
 -->
<!-- Title: include/Appl.h Pages: 1 -->
<svg width="526pt" height="83pt"
 viewBox="0.00 0.00 526.00 83.00" xmlns="http://www.w3.org/2000/svg" xmlns:xlink="http://www.w3.org/1999/xlink">
<g id="graph0" class="graph" transform="scale(1 1) rotate(0) translate(4 78.5)">
<title>include/Appl.h</title>
<!-- Node1 -->
<g id="Node000001" class="node">
<title>Node1</title>
<g id="a_Node000001"><a xlink:title="Application Main Class.">
<polygon fill="#999999" stroke="#666666" points="304.38,-74.5 226.88,-74.5 226.88,-55.25 304.38,-55.25 304.38,-74.5"/>
<text xml:space="preserve" text-anchor="middle" x="265.62" y="-61" font-family="Helvetica,sans-Serif" font-size="10.00">include/Appl.h</text>
</a>
</g>
</g>
<!-- Node2 -->
<g id="Node000002" class="node">
<title>Node2</title>
<g id="a_Node000002"><a xlink:href="_m_d_n_s_controller_8h.html" target="_top" xlink:title="MDNS Controller class definition ESP MDNS controller to handle mDNS responder start/stop on WiFi even...">
<polygon fill="white" stroke="#666666" points="129.25,-19.25 0,-19.25 0,0 129.25,0 129.25,-19.25"/>
<text xml:space="preserve" text-anchor="middle" x="64.62" y="-5.75" font-family="Helvetica,sans-Serif" font-size="10.00">include/MDNSController.h</text>
</a>
</g>
</g>
<!-- Node1&#45;&gt;Node2 -->
<g id="edge1_Node000001_Node000002" class="edge">
<title>Node1&#45;&gt;Node2</title>
<g id="a_edge1_Node000001_Node000002"><a xlink:title=" ">
<path fill="none" stroke="#63b8ff" d="M220.6,-51.95C183.76,-42.19 132.44,-28.59 98.89,-19.7"/>
<polygon fill="#63b8ff" stroke="#63b8ff" points="219.5,-55.28 230.07,-54.45 221.29,-48.51 219.5,-55.28"/>
</a>
</g>
</g>
<!-- Node3 -->
<g id="Node000003" class="node">
<title>Node3</title>
<g id="a_Node000003"><a xlink:href="_n_t_p_handler_8h.html" target="_top" xlink:title=" ">
<polygon fill="white" stroke="#666666" points="258.25,-19.25 147,-19.25 147,0 258.25,0 258.25,-19.25"/>
<text xml:space="preserve" text-anchor="middle" x="202.62" y="-5.75" font-family="Helvetica,sans-Serif" font-size="10.00">include/NTPHandler.h</text>
</a>
</g>
</g>
<!-- Node1&#45;&gt;Node3 -->
<g id="edge2_Node000001_Node000003" class="edge">
<title>Node1&#45;&gt;Node3</title>
<g id="a_edge2_Node000001_Node000003"><a xlink:title=" ">
<path fill="none" stroke="#63b8ff" d="M246.45,-47.66C235.51,-38.42 222.21,-27.18 213.15,-19.52"/>
<polygon fill="#63b8ff" stroke="#63b8ff" points="243.89,-50.08 253.78,-53.86 248.4,-44.74 243.89,-50.08"/>
</a>
</g>
</g>
<!-- Node4 -->
<g id="Node000004" class="node">
<title>Node4</title>
<g id="a_Node000004"><a xlink:href="_web_server_8h.html" target="_top" xlink:title=" ">
<polygon fill="white" stroke="#666666" points="381.25,-19.25 276,-19.25 276,0 381.25,0 381.25,-19.25"/>
<text xml:space="preserve" text-anchor="middle" x="328.62" y="-5.75" font-family="Helvetica,sans-Serif" font-size="10.00">include/WebServer.h</text>
</a>
</g>
</g>
<!-- Node1&#45;&gt;Node4 -->
<g id="edge3_Node000001_Node000004" class="edge">
<title>Node1&#45;&gt;Node4</title>
<g id="a_edge3_Node000001_Node000004"><a xlink:title=" ">
<path fill="none" stroke="#63b8ff" d="M284.8,-47.66C295.74,-38.42 309.04,-27.18 318.1,-19.52"/>
<polygon fill="#63b8ff" stroke="#63b8ff" points="282.85,-44.74 277.47,-53.86 287.36,-50.08 282.85,-44.74"/>
</a>
</g>
</g>
<!-- Node5 -->
<g id="Node000005" class="node">
<title>Node5</title>
<g id="a_Node000005"><a xlink:href="_wi_fi_controller_8h.html" target="_top" xlink:title="WiFi Controller to handle Access Point and Station Mode.">
<polygon fill="white" stroke="#666666" points="518.38,-19.25 398.88,-19.25 398.88,0 518.38,0 518.38,-19.25"/>
<text xml:space="preserve" text-anchor="middle" x="458.62" y="-5.75" font-family="Helvetica,sans-Serif" font-size="10.00">include/WiFiController.h</text>
</a>
</g>
</g>
<!-- Node1&#45;&gt;Node5 -->
<g id="edge4_Node000001_Node000005" class="edge">
<title>Node1&#45;&gt;Node5</title>
<g id="a_edge4_Node000001_Node000005"><a xlink:title=" ">
<path fill="none" stroke="#63b8ff" d="M309.32,-51.82C344.66,-42.07 393.64,-28.55 425.72,-19.7"/>
<polygon fill="#63b8ff" stroke="#63b8ff" points="308.53,-48.41 299.82,-54.44 310.39,-55.15 308.53,-48.41"/>
</a>
</g>
</g>
</g>
</svg>
