<?xml version="1.0" encoding="UTF-8" standalone="no"?>
<!DOCTYPE svg PUBLIC "-//W3C//DTD SVG 1.1//EN"
 "http://www.w3.org/Graphics/SVG/1.1/DTD/svg11.dtd">
<!-- Generated by graphviz version 15.1.0 (20260618.0150)
 -->
<!-- Title: include/Appl.h Pages: 1 -->
<svg width="826pt" height="359pt"
 viewBox="0.00 0.00 826.00 359.00" xmlns="http://www.w3.org/2000/svg" xmlns:xlink="http://www.w3.org/1999/xlink">
<g id="graph0" class="graph" transform="scale(1 1) rotate(0) translate(4 354.75)">
<title>include/Appl.h</title>
<!-- Node1 -->
<g id="Node000001" class="node">
<title>Node1</title>
<g id="a_Node000001"><a xlink:title="Application Main Class.">
<polygon fill="#999999" stroke="#666666" points="492.56,-350.75 415.06,-350.75 415.06,-331.5 492.56,-331.5 492.56,-350.75"/>
<text xml:space="preserve" text-anchor="middle" x="453.81" y="-337.25" font-family="Helvetica,sans-Serif" font-size="10.00">include/Appl.h</text>
</a>
</g>
</g>
<!-- Node2 -->
<g id="Node000002" class="node">
<title>Node2</title>
<g id="a_Node000002"><a xlink:href="_runtime_8h.html" target="_top" xlink:title=" ">
<polygon fill="white" stroke="#666666" points="438.31,-74.5 377.31,-74.5 377.31,-55.25 438.31,-55.25 438.31,-74.5"/>
<text xml:space="preserve" text-anchor="middle" x="407.81" y="-61" font-family="Helvetica,sans-Serif" font-size="10.00">Runtime.h</text>
</a>
</g>
</g>
<!-- Node1&#45;&gt;Node2 -->
<g id="edge1_Node000001_Node000002" class="edge">
<title>Node1&#45;&gt;Node2</title>
<g id="a_edge1_Node000001_Node000002"><a xlink:title=" ">
<path fill="none" stroke="#63b8ff" d="M492.77,-336.84C586.67,-327.85 817.81,-298.89 817.81,-231.62 817.81,-231.62 817.81,-231.62 817.81,-174.38 817.81,-131.6 784.72,-128.27 745.81,-110.5 693.96,-86.82 528.8,-73.51 450.18,-68.37"/>
<polygon fill="#63b8ff" stroke="#63b8ff" points="450.5,-64.89 440.3,-67.74 450.05,-71.87 450.5,-64.89"/>
</a>
</g>
</g>
<!-- Node6 -->
<g id="Node000006" class="node">
<title>Node6</title>
<g id="a_Node000006"><a xlink:href="_sys_status_8h.html" target="_top" xlink:title=" ">
<polygon fill="white" stroke="#666666" points="132.81,-295.5 62.81,-295.5 62.81,-276.25 132.81,-276.25 132.81,-295.5"/>
<text xml:space="preserve" text-anchor="middle" x="97.81" y="-282" font-family="Helvetica,sans-Serif" font-size="10.00">SysStatus.h</text>
</a>
</g>
</g>
<!-- Node1&#45;&gt;Node6 -->
<g id="edge5_Node000001_Node000006" class="edge">
<title>Node1&#45;&gt;Node6</title>
<g id="a_edge5_Node000001_Node000006"><a xlink:title=" ">
<path fill="none" stroke="#63b8ff" d="M414.7,-334.27C348.65,-324.4 215.33,-304.45 144.5,-293.86"/>
<polygon fill="#63b8ff" stroke="#63b8ff" points="145.18,-290.42 134.77,-292.4 144.14,-297.34 145.18,-290.42"/>
</a>
</g>
</g>
<!-- Node8 -->
<g id="Node000008" class="node">
<title>Node8</title>
<g id="a_Node000008"><a xlink:href="_json_node_8h.html" target="_top" xlink:title=" ">
<polygon fill="white" stroke="#666666" points="266.06,-185 197.56,-185 197.56,-165.75 266.06,-165.75 266.06,-185"/>
<text xml:space="preserve" text-anchor="middle" x="231.81" y="-171.5" font-family="Helvetica,sans-Serif" font-size="10.00">JsonNode.h</text>
</a>
</g>
</g>
<!-- Node1&#45;&gt;Node8 -->
<g id="edge15_Node000001_Node000008" class="edge">
<title>Node1&#45;&gt;Node8</title>
<g id="a_edge15_Node000001_Node000008"><a xlink:title=" ">
<path fill="none" stroke="#63b8ff" d="M414.95,-331.07C390.21,-324.06 358.33,-312.61 333.81,-295.5 293.96,-267.68 260.09,-220.74 243.24,-194.87"/>
<polygon fill="#63b8ff" stroke="#63b8ff" points="246.22,-193.03 237.9,-186.47 240.31,-196.78 246.22,-193.03"/>
</a>
</g>
</g>
<!-- Node12 -->
<g id="Node000012" class="node">
<title>Node12</title>
<g id="a_Node000012"><a xlink:href="_module_interface_8h.html" target="_top" xlink:title="Full Interface for a module and an abstract basic module implementation.">
<polygon fill="white" stroke="#666666" points="500.81,-295.5 406.81,-295.5 406.81,-276.25 500.81,-276.25 500.81,-295.5"/>
<text xml:space="preserve" text-anchor="middle" x="453.81" y="-282" font-family="Helvetica,sans-Serif" font-size="10.00">ModuleInterface.h</text>
</a>
</g>
</g>
<!-- Node1&#45;&gt;Node12 -->
<g id="edge16_Node000001_Node000012" class="edge">
<title>Node1&#45;&gt;Node12</title>
<g id="a_edge16_Node000001_Node000012"><a xlink:title=" ">
<path fill="none" stroke="#63b8ff" d="M453.81,-331.33C453.81,-324.82 453.81,-315.67 453.81,-307.37"/>
<polygon fill="#63b8ff" stroke="#63b8ff" points="457.31,-307.37 453.81,-297.37 450.31,-307.37 457.31,-307.37"/>
</a>
</g>
</g>
<!-- Node19 -->
<g id="Node000019" class="node">
<title>Node19</title>
<g id="a_Node000019"><a xlink:href="_development_helper_8h.html" target="_top" xlink:title=" ">
<polygon fill="white" stroke="#666666" points="736.69,-129.75 626.94,-129.75 626.94,-110.5 736.69,-110.5 736.69,-129.75"/>
<text xml:space="preserve" text-anchor="middle" x="681.81" y="-116.25" font-family="Helvetica,sans-Serif" font-size="10.00">DevelopmentHelper.h</text>
</a>
</g>
</g>
<!-- Node1&#45;&gt;Node19 -->
<g id="edge41_Node000001_Node000019" class="edge">
<title>Node1&#45;&gt;Node19</title>
<g id="a_edge41_Node000001_Node000019"><a xlink:title=" ">
<path fill="none" stroke="#63b8ff" d="M492.81,-334.5C562.47,-322.05 706.08,-284.9 760.81,-185 772.99,-162.77 746.6,-145.37 721.11,-134.38"/>
<polygon fill="#63b8ff" stroke="#63b8ff" points="722.72,-131.26 712.13,-130.78 720.11,-137.75 722.72,-131.26"/>
</a>
</g>
</g>
<!-- Node21 -->
<g id="Node000021" class="node">
<title>Node21</title>
<g id="a_Node000021"><a xlink:href="_logging_8h.html" target="_top" xlink:title=" ">
<polygon fill="white" stroke="#666666" points="578.81,-295.5 520.81,-295.5 520.81,-276.25 578.81,-276.25 578.81,-295.5"/>
<text xml:space="preserve" text-anchor="middle" x="549.81" y="-282" font-family="Helvetica,sans-Serif" font-size="10.00">Logging.h</text>
</a>
</g>
</g>
<!-- Node1&#45;&gt;Node21 -->
<g id="edge34_Node000001_Node000021" class="edge">
<title>Node1&#45;&gt;Node21</title>
<g id="a_edge34_Node000001_Node000021"><a xlink:title=" ">
<path fill="none" stroke="#63b8ff" d="M470.1,-331.09C484.72,-322.98 506.44,-310.93 523.52,-301.46"/>
<polygon fill="#63b8ff" stroke="#63b8ff" points="525.08,-304.6 532.12,-296.69 521.68,-298.48 525.08,-304.6"/>
</a>
</g>
</g>
<!-- Node23 -->
<g id="Node000023" class="node">
<title>Node23</title>
<g id="a_Node000023"><a xlink:href="_vars_8h.html" target="_top" xlink:title=" ">
<polygon fill="white" stroke="#666666" points="386.69,-295.5 342.94,-295.5 342.94,-276.25 386.69,-276.25 386.69,-295.5"/>
<text xml:space="preserve" text-anchor="middle" x="364.81" y="-282" font-family="Helvetica,sans-Serif" font-size="10.00">Vars.h</text>
</a>
</g>
</g>
<!-- Node1&#45;&gt;Node23 -->
<g id="edge38_Node000001_Node000023" class="edge">
<title>Node1&#45;&gt;Node23</title>
<g id="a_edge38_Node000001_Node000023"><a xlink:title=" ">
<path fill="none" stroke="#63b8ff" d="M438.72,-331.09C425.29,-323.06 405.4,-311.16 389.64,-301.73"/>
<polygon fill="#63b8ff" stroke="#63b8ff" points="391.66,-298.86 381.28,-296.73 388.07,-304.87 391.66,-298.86"/>
</a>
</g>
</g>
<!-- Node3 -->
<g id="Node000003" class="node">
<title>Node3</title>
<g id="a_Node000003"><a xlink:title=" ">
<polygon fill="#e0e0e0" stroke="#999999" points="366.94,-19.25 318.69,-19.25 318.69,0 366.94,0 366.94,-19.25"/>
<text xml:space="preserve" text-anchor="middle" x="342.81" y="-5.75" font-family="Helvetica,sans-Serif" font-size="10.00">string.h</text>
</a>
</g>
</g>
<!-- Node2&#45;&gt;Node3 -->
<g id="edge2_Node000002_Node000003" class="edge">
<title>Node2&#45;&gt;Node3</title>
<g id="a_edge2_Node000002_Node000003"><a xlink:title=" ">
<path fill="none" stroke="#63b8ff" d="M396.79,-54.84C387.39,-47.15 373.66,-35.9 362.4,-26.68"/>
<polygon fill="#63b8ff" stroke="#63b8ff" points="364.8,-24.11 354.85,-20.48 360.36,-29.53 364.8,-24.11"/>
</a>
</g>
</g>
<!-- Node4 -->
<g id="Node000004" class="node">
<title>Node4</title>
<g id="a_Node000004"><a xlink:title=" ">
<polygon fill="#e0e0e0" stroke="#999999" points="430.44,-19.25 385.19,-19.25 385.19,0 430.44,0 430.44,-19.25"/>
<text xml:space="preserve" text-anchor="middle" x="407.81" y="-5.75" font-family="Helvetica,sans-Serif" font-size="10.00">chrono</text>
</a>
</g>
</g>
<!-- Node2&#45;&gt;Node4 -->
<g id="edge3_Node000002_Node000004" class="edge">
<title>Node2&#45;&gt;Node4</title>
<g id="a_edge3_Node000002_Node000004"><a xlink:title=" ">
<path fill="none" stroke="#63b8ff" d="M407.81,-55.08C407.81,-48.57 407.81,-39.42 407.81,-31.12"/>
<polygon fill="#63b8ff" stroke="#63b8ff" points="411.31,-31.12 407.81,-21.12 404.31,-31.12 411.31,-31.12"/>
</a>
</g>
</g>
<!-- Node5 -->
<g id="Node000005" class="node">
<title>Node5</title>
<g id="a_Node000005"><a xlink:title=" ">
<polygon fill="#e0e0e0" stroke="#999999" points="501.56,-19.25 448.06,-19.25 448.06,0 501.56,0 501.56,-19.25"/>
<text xml:space="preserve" text-anchor="middle" x="474.81" y="-5.75" font-family="Helvetica,sans-Serif" font-size="10.00">iostream</text>
</a>
</g>
</g>
<!-- Node2&#45;&gt;Node5 -->
<g id="edge4_Node000002_Node000005" class="edge">
<title>Node2&#45;&gt;Node5</title>
<g id="a_edge4_Node000002_Node000005"><a xlink:title=" ">
<path fill="none" stroke="#63b8ff" d="M419.18,-54.84C428.86,-47.15 443.01,-35.9 454.62,-26.68"/>
<polygon fill="#63b8ff" stroke="#63b8ff" points="456.78,-29.43 462.43,-20.47 452.42,-23.95 456.78,-29.43"/>
</a>
</g>
</g>
<!-- Node6&#45;&gt;Node2 -->
<g id="edge6_Node000006_Node000002" class="edge">
<title>Node6&#45;&gt;Node2</title>
<g id="a_edge6_Node000006_Node000002"><a xlink:title=" ">
<path fill="none" stroke="#63b8ff" d="M62.55,-276.51C29.57,-266.82 -12.37,-248.56 3.81,-221 78.82,-93.24 277.97,-70.26 365.52,-66.45"/>
<polygon fill="#63b8ff" stroke="#63b8ff" points="365.48,-69.95 375.35,-66.09 365.23,-62.95 365.48,-69.95"/>
</a>
</g>
</g>
<!-- Node7 -->
<g id="Node000007" class="node">
<title>Node7</title>
<g id="a_Node000007"><a xlink:href="_status_handler_8h.html" target="_top" xlink:title=" ">
<polygon fill="white" stroke="#666666" points="227.69,-240.25 141.94,-240.25 141.94,-221 227.69,-221 227.69,-240.25"/>
<text xml:space="preserve" text-anchor="middle" x="184.81" y="-226.75" font-family="Helvetica,sans-Serif" font-size="10.00">StatusHandler.h</text>
</a>
</g>
</g>
<!-- Node6&#45;&gt;Node7 -->
<g id="edge7_Node000006_Node000007" class="edge">
<title>Node6&#45;&gt;Node7</title>
<g id="a_edge7_Node000006_Node000007"><a xlink:title=" ">
<path fill="none" stroke="#63b8ff" d="M112.57,-275.84C125.69,-267.81 145.14,-255.91 160.54,-246.48"/>
<polygon fill="#63b8ff" stroke="#63b8ff" points="161.99,-249.7 168.69,-241.49 158.33,-243.73 161.99,-249.7"/>
</a>
</g>
</g>
<!-- Node10 -->
<g id="Node000010" class="node">
<title>Node10</title>
<g id="a_Node000010"><a xlink:title=" ">
<polygon fill="#e0e0e0" stroke="#999999" points="54.56,-240.25 13.06,-240.25 13.06,-221 54.56,-221 54.56,-240.25"/>
<text xml:space="preserve" text-anchor="middle" x="33.81" y="-226.75" font-family="Helvetica,sans-Serif" font-size="10.00">Esp.h</text>
</a>
</g>
</g>
<!-- Node6&#45;&gt;Node10 -->
<g id="edge13_Node000006_Node000010" class="edge">
<title>Node6&#45;&gt;Node10</title>
<g id="a_edge13_Node000006_Node000010"><a xlink:title=" ">
<path fill="none" stroke="#63b8ff" d="M86.96,-275.84C77.71,-268.15 64.19,-256.9 53.1,-247.68"/>
<polygon fill="#63b8ff" stroke="#63b8ff" points="55.6,-245.2 45.67,-241.49 51.12,-250.58 55.6,-245.2"/>
</a>
</g>
</g>
<!-- Node11 -->
<g id="Node000011" class="node">
<title>Node11</title>
<g id="a_Node000011"><a xlink:title=" ">
<polygon fill="#e0e0e0" stroke="#999999" points="123.44,-240.25 72.19,-240.25 72.19,-221 123.44,-221 123.44,-240.25"/>
<text xml:space="preserve" text-anchor="middle" x="97.81" y="-226.75" font-family="Helvetica,sans-Serif" font-size="10.00">memory</text>
</a>
</g>
</g>
<!-- Node6&#45;&gt;Node11 -->
<g id="edge14_Node000006_Node000011" class="edge">
<title>Node6&#45;&gt;Node11</title>
<g id="a_edge14_Node000006_Node000011"><a xlink:title=" ">
<path fill="none" stroke="#63b8ff" d="M97.81,-276.08C97.81,-269.57 97.81,-260.42 97.81,-252.12"/>
<polygon fill="#63b8ff" stroke="#63b8ff" points="101.31,-252.12 97.81,-242.12 94.31,-252.12 101.31,-252.12"/>
</a>
</g>
</g>
<!-- Node7&#45;&gt;Node2 -->
<g id="edge8_Node000007_Node000002" class="edge">
<title>Node7&#45;&gt;Node2</title>
<g id="a_edge8_Node000007_Node000002"><a xlink:title=" ">
<path fill="none" stroke="#63b8ff" d="M180.62,-220.77C175.16,-207.87 167.36,-183.51 176.81,-165.75 213.12,-97.51 309.57,-75.89 365.69,-69.04"/>
<polygon fill="#63b8ff" stroke="#63b8ff" points="365.96,-72.53 375.52,-67.96 365.19,-65.58 365.96,-72.53"/>
</a>
</g>
</g>
<!-- Node7&#45;&gt;Node8 -->
<g id="edge9_Node000007_Node000008" class="edge">
<title>Node7&#45;&gt;Node8</title>
<g id="a_edge9_Node000007_Node000008"><a xlink:title=" ">
<path fill="none" stroke="#63b8ff" d="M192.57,-220.83C199,-213.55 208.33,-202.98 216.28,-193.98"/>
<polygon fill="#63b8ff" stroke="#63b8ff" points="218.89,-196.31 222.88,-186.49 213.64,-191.68 218.89,-196.31"/>
</a>
</g>
</g>
<!-- Node9 -->
<g id="Node000009" class="node">
<title>Node9</title>
<g id="a_Node000009"><a xlink:title=" ">
<polygon fill="#e0e0e0" stroke="#999999" points="334.31,-129.75 291.31,-129.75 291.31,-110.5 334.31,-110.5 334.31,-129.75"/>
<text xml:space="preserve" text-anchor="middle" x="312.81" y="-116.25" font-family="Helvetica,sans-Serif" font-size="10.00">vector</text>
</a>
</g>
</g>
<!-- Node7&#45;&gt;Node9 -->
<g id="edge12_Node000007_Node000009" class="edge">
<title>Node7&#45;&gt;Node9</title>
<g id="a_edge12_Node000007_Node000009"><a xlink:title=" ">
<path fill="none" stroke="#63b8ff" d="M182.58,-220.75C179.77,-207.38 176.67,-181.92 188.81,-165.75 210.06,-137.45 250.9,-127.05 279.91,-123.26"/>
<polygon fill="#63b8ff" stroke="#63b8ff" points="280.07,-126.76 289.63,-122.2 279.31,-119.81 280.07,-126.76"/>
</a>
</g>
</g>
<!-- Node8&#45;&gt;Node2 -->
<g id="edge10_Node000008_Node000002" class="edge">
<title>Node8&#45;&gt;Node2</title>
<g id="a_edge10_Node000008_Node000002"><a xlink:title=" ">
<path fill="none" stroke="#63b8ff" d="M236.6,-165.66C244.51,-152.03 261.56,-125.67 282.81,-110.5 307.73,-92.72 340.44,-81.37 366.16,-74.57"/>
<polygon fill="#63b8ff" stroke="#63b8ff" points="366.74,-78.04 375.59,-72.21 365.04,-71.24 366.74,-78.04"/>
</a>
</g>
</g>
<!-- Node8&#45;&gt;Node9 -->
<g id="edge11_Node000008_Node000009" class="edge">
<title>Node8&#45;&gt;Node9</title>
<g id="a_edge11_Node000008_Node000009"><a xlink:title=" ">
<path fill="none" stroke="#63b8ff" d="M245.55,-165.34C257.54,-157.46 275.18,-145.86 289.39,-136.52"/>
<polygon fill="#63b8ff" stroke="#63b8ff" points="291.31,-139.45 297.74,-131.03 287.46,-133.6 291.31,-139.45"/>
</a>
</g>
</g>
<!-- Node12&#45;&gt;Node7 -->
<g id="edge21_Node000012_Node000007" class="edge">
<title>Node12&#45;&gt;Node7</title>
<g id="a_edge21_Node000012_Node000007"><a xlink:title=" ">
<path fill="none" stroke="#63b8ff" d="M407.88,-275.78C361.1,-266.52 288.6,-252.17 239.03,-242.36"/>
<polygon fill="#63b8ff" stroke="#63b8ff" points="239.87,-238.96 229.38,-240.45 238.51,-245.82 239.87,-238.96"/>
</a>
</g>
</g>
<!-- Node13 -->
<g id="Node000013" class="node">
<title>Node13</title>
<g id="a_Node000013"><a xlink:href="_config_handler_8h.html" target="_top" xlink:title=" ">
<polygon fill="white" stroke="#666666" points="407.69,-240.25 321.94,-240.25 321.94,-221 407.69,-221 407.69,-240.25"/>
<text xml:space="preserve" text-anchor="middle" x="364.81" y="-226.75" font-family="Helvetica,sans-Serif" font-size="10.00">ConfigHandler.h</text>
</a>
</g>
</g>
<!-- Node12&#45;&gt;Node13 -->
<g id="edge17_Node000012_Node000013" class="edge">
<title>Node12&#45;&gt;Node13</title>
<g id="a_edge17_Node000012_Node000013"><a xlink:title=" ">
<path fill="none" stroke="#63b8ff" d="M438.72,-275.84C425.29,-267.81 405.4,-255.91 389.64,-246.48"/>
<polygon fill="#63b8ff" stroke="#63b8ff" points="391.66,-243.61 381.28,-241.48 388.07,-249.62 391.66,-243.61"/>
</a>
</g>
</g>
<!-- Node14 -->
<g id="Node000014" class="node">
<title>Node14</title>
<g id="a_Node000014"><a xlink:href="_event_handler_8h.html" target="_top" xlink:title=" ">
<polygon fill="white" stroke="#666666" points="508.19,-240.25 425.44,-240.25 425.44,-221 508.19,-221 508.19,-240.25"/>
<text xml:space="preserve" text-anchor="middle" x="466.81" y="-226.75" font-family="Helvetica,sans-Serif" font-size="10.00">EventHandler.h</text>
</a>
</g>
</g>
<!-- Node12&#45;&gt;Node14 -->
<g id="edge22_Node000012_Node000014" class="edge">
<title>Node12&#45;&gt;Node14</title>
<g id="a_edge22_Node000012_Node000014"><a xlink:title=" ">
<path fill="none" stroke="#63b8ff" d="M455.96,-276.08C457.59,-269.42 459.89,-259.99 461.95,-251.53"/>
<polygon fill="#63b8ff" stroke="#63b8ff" points="465.29,-252.62 464.26,-242.08 458.49,-250.96 465.29,-252.62"/>
</a>
</g>
</g>
<!-- Node20 -->
<g id="Node000020" class="node">
<title>Node20</title>
<g id="a_Node000020"><a xlink:href="_msgs_8h.html" target="_top" xlink:title=" ">
<polygon fill="white" stroke="#666666" points="574.94,-240.25 526.69,-240.25 526.69,-221 574.94,-221 574.94,-240.25"/>
<text xml:space="preserve" text-anchor="middle" x="550.81" y="-226.75" font-family="Helvetica,sans-Serif" font-size="10.00">Msgs.h</text>
</a>
</g>
</g>
<!-- Node12&#45;&gt;Node20 -->
<g id="edge33_Node000012_Node000020" class="edge">
<title>Node12&#45;&gt;Node20</title>
<g id="a_edge33_Node000012_Node000020"><a xlink:title=" ">
<path fill="none" stroke="#63b8ff" d="M470.27,-275.84C485.04,-267.73 506.99,-255.68 524.25,-246.21"/>
<polygon fill="#63b8ff" stroke="#63b8ff" points="525.87,-249.31 532.95,-241.43 522.5,-243.18 525.87,-249.31"/>
</a>
</g>
</g>
<!-- Node13&#45;&gt;Node2 -->
<g id="edge18_Node000013_Node000002" class="edge">
<title>Node13&#45;&gt;Node2</title>
<g id="a_edge18_Node000013_Node000002"><a xlink:title=" ">
<path fill="none" stroke="#63b8ff" d="M367.12,-220.82C373.8,-195.39 393.24,-121.35 402.63,-85.62"/>
<polygon fill="#63b8ff" stroke="#63b8ff" points="405.95,-86.75 405.1,-76.19 399.18,-84.97 405.95,-86.75"/>
</a>
</g>
</g>
<!-- Node13&#45;&gt;Node8 -->
<g id="edge19_Node000013_Node000008" class="edge">
<title>Node13&#45;&gt;Node8</title>
<g id="a_edge19_Node000013_Node000008"><a xlink:title=" ">
<path fill="none" stroke="#63b8ff" d="M342.25,-220.59C321.04,-212.1 289.04,-199.29 264.94,-189.64"/>
<polygon fill="#63b8ff" stroke="#63b8ff" points="266.47,-186.48 255.89,-186.02 263.87,-192.98 266.47,-186.48"/>
</a>
</g>
</g>
<!-- Node13&#45;&gt;Node9 -->
<g id="edge20_Node000013_Node000009" class="edge">
<title>Node13&#45;&gt;Node9</title>
<g id="a_edge20_Node000013_Node000009"><a xlink:title=" ">
<path fill="none" stroke="#63b8ff" d="M360.56,-220.75C352.18,-203.26 333.37,-164.02 322.02,-140.34"/>
<polygon fill="#63b8ff" stroke="#63b8ff" points="325.26,-139 317.78,-131.49 318.95,-142.02 325.26,-139"/>
</a>
</g>
</g>
<!-- Node14&#45;&gt;Node2 -->
<g id="edge23_Node000014_Node000002" class="edge">
<title>Node14&#45;&gt;Node2</title>
<g id="a_edge23_Node000014_Node000002"><a xlink:title=" ">
<path fill="none" stroke="#63b8ff" d="M463.64,-220.82C454.44,-195.28 427.57,-120.7 414.76,-85.15"/>
<polygon fill="#63b8ff" stroke="#63b8ff" points="418.2,-84.37 411.51,-76.15 411.61,-86.74 418.2,-84.37"/>
</a>
</g>
</g>
<!-- Node14&#45;&gt;Node9 -->
<g id="edge25_Node000014_Node000009" class="edge">
<title>Node14&#45;&gt;Node9</title>
<g id="a_edge25_Node000014_Node000009"><a xlink:title=" ">
<path fill="none" stroke="#63b8ff" d="M453.95,-220.56C427.61,-202.01 367.3,-159.51 334.69,-136.54"/>
<polygon fill="#63b8ff" stroke="#63b8ff" points="336.96,-133.86 326.77,-130.96 332.93,-139.58 336.96,-133.86"/>
</a>
</g>
</g>
<!-- Node15 -->
<g id="Node000015" class="node">
<title>Node15</title>
<g id="a_Node000015"><a xlink:title=" ">
<polygon fill="#e0e0e0" stroke="#999999" points="653.81,-185 595.81,-185 595.81,-165.75 653.81,-165.75 653.81,-185"/>
<text xml:space="preserve" text-anchor="middle" x="624.81" y="-171.5" font-family="Helvetica,sans-Serif" font-size="10.00">functional</text>
</a>
</g>
</g>
<!-- Node14&#45;&gt;Node15 -->
<g id="edge24_Node000014_Node000015" class="edge">
<title>Node14&#45;&gt;Node15</title>
<g id="a_edge24_Node000014_Node000015"><a xlink:title=" ">
<path fill="none" stroke="#63b8ff" d="M493.62,-220.59C519.26,-211.95 558.2,-198.82 587,-189.12"/>
<polygon fill="#63b8ff" stroke="#63b8ff" points="588.09,-192.45 596.44,-185.94 585.85,-185.81 588.09,-192.45"/>
</a>
</g>
</g>
<!-- Node16 -->
<g id="Node000016" class="node">
<title>Node16</title>
<g id="a_Node000016"><a xlink:title=" ">
<polygon fill="#e0e0e0" stroke="#999999" points="751.94,-185 709.69,-185 709.69,-165.75 751.94,-165.75 751.94,-185"/>
<text xml:space="preserve" text-anchor="middle" x="730.81" y="-171.5" font-family="Helvetica,sans-Serif" font-size="10.00">queue</text>
</a>
</g>
</g>
<!-- Node14&#45;&gt;Node16 -->
<g id="edge26_Node000014_Node000016" class="edge">
<title>Node14&#45;&gt;Node16</title>
<g id="a_edge26_Node000014_Node000016"><a xlink:title=" ">
<path fill="none" stroke="#63b8ff" d="M508.31,-222.17C554.28,-213.77 630.55,-199.39 695.81,-185 696.64,-184.82 697.47,-184.63 698.32,-184.44"/>
<polygon fill="#63b8ff" stroke="#63b8ff" points="698.98,-187.88 707.91,-182.18 697.37,-181.07 698.98,-187.88"/>
</a>
</g>
</g>
<!-- Node17 -->
<g id="Node000017" class="node">
<title>Node17</title>
<g id="a_Node000017"><a xlink:href="_named_value_table_8h.html" target="_top" xlink:title=" ">
<polygon fill="white" stroke="#666666" points="577.31,-185 474.31,-185 474.31,-165.75 577.31,-165.75 577.31,-185"/>
<text xml:space="preserve" text-anchor="middle" x="525.81" y="-171.5" font-family="Helvetica,sans-Serif" font-size="10.00">NamedValueTable.h</text>
</a>
</g>
</g>
<!-- Node14&#45;&gt;Node17 -->
<g id="edge27_Node000014_Node000017" class="edge">
<title>Node14&#45;&gt;Node17</title>
<g id="a_edge27_Node000014_Node000017"><a xlink:title=" ">
<path fill="none" stroke="#63b8ff" d="M476.82,-220.59C485.18,-213.05 497.31,-202.1 507.41,-192.98"/>
<polygon fill="#63b8ff" stroke="#63b8ff" points="509.75,-195.59 514.83,-186.29 505.06,-190.39 509.75,-195.59"/>
</a>
</g>
</g>
<!-- Node14&#45;&gt;Node19 -->
<g id="edge32_Node000014_Node000019" class="edge">
<title>Node14&#45;&gt;Node19</title>
<g id="a_edge32_Node000014_Node000019"><a xlink:title=" ">
<path fill="none" stroke="#63b8ff" d="M508.53,-222.43C562.66,-212.75 651.57,-195.53 662.81,-185 674.83,-173.74 679.36,-155.26 681.01,-141.07"/>
<polygon fill="#63b8ff" stroke="#63b8ff" points="684.47,-141.73 681.72,-131.5 677.49,-141.21 684.47,-141.73"/>
</a>
</g>
</g>
<!-- Node17&#45;&gt;Node9 -->
<g id="edge28_Node000017_Node000009" class="edge">
<title>Node17&#45;&gt;Node9</title>
<g id="a_edge28_Node000017_Node000009"><a xlink:title=" ">
<path fill="none" stroke="#63b8ff" d="M489.68,-165.34C449.28,-155.24 384.42,-139.03 345.48,-129.29"/>
<polygon fill="#63b8ff" stroke="#63b8ff" points="346.78,-126.01 336.23,-126.98 345.08,-132.8 346.78,-126.01"/>
</a>
</g>
</g>
<!-- Node18 -->
<g id="Node000018" class="node">
<title>Node18</title>
<g id="a_Node000018"><a xlink:href="_l_s_c_utils_8h.html" target="_top" xlink:title=" ">
<polygon fill="white" stroke="#666666" points="547.81,-129.75 483.81,-129.75 483.81,-110.5 547.81,-110.5 547.81,-129.75"/>
<text xml:space="preserve" text-anchor="middle" x="515.81" y="-116.25" font-family="Helvetica,sans-Serif" font-size="10.00">LSCUtils.h</text>
</a>
</g>
</g>
<!-- Node17&#45;&gt;Node18 -->
<g id="edge29_Node000017_Node000018" class="edge">
<title>Node17&#45;&gt;Node18</title>
<g id="a_edge29_Node000017_Node000018"><a xlink:title=" ">
<path fill="none" stroke="#63b8ff" d="M524.16,-165.58C522.92,-158.99 521.18,-149.71 519.61,-141.32"/>
<polygon fill="#63b8ff" stroke="#63b8ff" points="523.06,-140.78 517.78,-131.6 516.19,-142.07 523.06,-140.78"/>
</a>
</g>
</g>
<!-- Node17&#45;&gt;Node19 -->
<g id="edge31_Node000017_Node000019" class="edge">
<title>Node17&#45;&gt;Node19</title>
<g id="a_edge31_Node000017_Node000019"><a xlink:title=" ">
<path fill="none" stroke="#63b8ff" d="M552.28,-165.34C577.6,-156.7 616.04,-143.57 644.48,-133.87"/>
<polygon fill="#63b8ff" stroke="#63b8ff" points="645.45,-137.23 653.79,-130.69 643.19,-130.61 645.45,-137.23"/>
</a>
</g>
</g>
<!-- Node18&#45;&gt;Node2 -->
<g id="edge30_Node000018_Node000002" class="edge">
<title>Node18&#45;&gt;Node2</title>
<g id="a_edge30_Node000018_Node000002"><a xlink:title=" ">
<path fill="none" stroke="#63b8ff" d="M497.49,-110.09C480.74,-101.83 455.68,-89.48 436.31,-79.93"/>
<polygon fill="#63b8ff" stroke="#63b8ff" points="438.1,-76.9 427.58,-75.62 435,-83.18 438.1,-76.9"/>
</a>
</g>
</g>
<!-- Node21&#45;&gt;Node14 -->
<g id="edge36_Node000021_Node000014" class="edge">
<title>Node21&#45;&gt;Node14</title>
<g id="a_edge36_Node000021_Node000014"><a xlink:title=" ">
<path fill="none" stroke="#63b8ff" d="M535.73,-275.84C523.33,-267.89 505.02,-256.14 490.39,-246.75"/>
<polygon fill="#63b8ff" stroke="#63b8ff" points="492.54,-243.97 482.24,-241.52 488.76,-249.87 492.54,-243.97"/>
</a>
</g>
</g>
<!-- Node21&#45;&gt;Node20 -->
<g id="edge37_Node000021_Node000020" class="edge">
<title>Node21&#45;&gt;Node20</title>
<g id="a_edge37_Node000021_Node000020"><a xlink:title=" ">
<path fill="none" stroke="#63b8ff" d="M549.98,-276.08C550.1,-269.57 550.27,-260.42 550.43,-252.12"/>
<polygon fill="#63b8ff" stroke="#63b8ff" points="553.93,-252.19 550.62,-242.12 546.93,-252.05 553.93,-252.19"/>
</a>
</g>
</g>
<!-- Node22 -->
<g id="Node000022" class="node">
<title>Node22</title>
<g id="a_Node000022"><a xlink:title=" ">
<polygon fill="#e0e0e0" stroke="#999999" points="644.44,-240.25 593.19,-240.25 593.19,-221 644.44,-221 644.44,-240.25"/>
<text xml:space="preserve" text-anchor="middle" x="618.81" y="-226.75" font-family="Helvetica,sans-Serif" font-size="10.00">stdarg.h</text>
</a>
</g>
</g>
<!-- Node21&#45;&gt;Node22 -->
<g id="edge35_Node000021_Node000022" class="edge">
<title>Node21&#45;&gt;Node22</title>
<g id="a_edge35_Node000021_Node000022"><a xlink:title=" ">
<path fill="none" stroke="#63b8ff" d="M561.52,-275.84C571.59,-268.07 586.35,-256.67 598.37,-247.4"/>
<polygon fill="#63b8ff" stroke="#63b8ff" points="600.3,-250.33 606.08,-241.45 596.03,-244.79 600.3,-250.33"/>
</a>
</g>
</g>
<!-- Node23&#45;&gt;Node9 -->
<g id="edge40_Node000023_Node000009" class="edge">
<title>Node23&#45;&gt;Node9</title>
<g id="a_edge40_Node000023_Node000009"><a xlink:title=" ">
<path fill="none" stroke="#63b8ff" d="M348.02,-275.82C335.74,-268.16 320.02,-255.92 312.81,-240.25 298.03,-208.09 303.02,-165.68 307.94,-141.1"/>
<polygon fill="#63b8ff" stroke="#63b8ff" points="311.32,-142.03 310.08,-131.5 304.49,-140.51 311.32,-142.03"/>
</a>
</g>
</g>
<!-- Node23&#45;&gt;Node13 -->
<g id="edge39_Node000023_Node000013" class="edge">
<title>Node23&#45;&gt;Node13</title>
<g id="a_edge39_Node000023_Node000013"><a xlink:title=" ">
<path fill="none" stroke="#63b8ff" d="M364.81,-276.08C364.81,-269.57 364.81,-260.42 364.81,-252.12"/>
<polygon fill="#63b8ff" stroke="#63b8ff" points="368.31,-252.12 364.81,-242.12 361.31,-252.12 368.31,-252.12"/>
</a>
</g>
</g>
</g>
</svg>
