<?xml version="1.0" encoding="UTF-8" standalone="no"?>
<!DOCTYPE svg PUBLIC "-//W3C//DTD SVG 1.1//EN"
 "http://www.w3.org/Graphics/SVG/1.1/DTD/svg11.dtd">
<!-- Generated by graphviz version 15.1.0 (20260618.0150)
 -->
<!-- Title: include/ApplModule.h Pages: 1 -->
<svg width="568pt" height="359pt"
 viewBox="0.00 0.00 568.00 359.00" xmlns="http://www.w3.org/2000/svg" xmlns:xlink="http://www.w3.org/1999/xlink">
<g id="graph0" class="graph" transform="scale(1 1) rotate(0) translate(4 354.75)">
<title>include/ApplModule.h</title>
<!-- Node1 -->
<g id="Node000001" class="node">
<title>Node1</title>
<g id="a_Node000001"><a xlink:title=" ">
<polygon fill="#999999" stroke="#666666" points="279.38,-350.75 170.38,-350.75 170.38,-331.5 279.38,-331.5 279.38,-350.75"/>
<text xml:space="preserve" text-anchor="middle" x="224.88" y="-337.25" font-family="Helvetica,sans-Serif" font-size="10.00">include/ApplModule.h</text>
</a>
</g>
</g>
<!-- Node2 -->
<g id="Node000002" class="node">
<title>Node2</title>
<g id="a_Node000002"><a xlink:href="_module_interface_8h.html" target="_top" xlink:title="Full Interface for a module and an abstract basic module implementation.">
<polygon fill="white" stroke="#666666" points="271.88,-295.5 177.88,-295.5 177.88,-276.25 271.88,-276.25 271.88,-295.5"/>
<text xml:space="preserve" text-anchor="middle" x="224.88" y="-282" font-family="Helvetica,sans-Serif" font-size="10.00">ModuleInterface.h</text>
</a>
</g>
</g>
<!-- Node1&#45;&gt;Node2 -->
<g id="edge1_Node000001_Node000002" class="edge">
<title>Node1&#45;&gt;Node2</title>
<g id="a_edge1_Node000001_Node000002"><a xlink:title=" ">
<path fill="none" stroke="#63b8ff" d="M224.88,-331.33C224.88,-324.82 224.88,-315.67 224.88,-307.37"/>
<polygon fill="#63b8ff" stroke="#63b8ff" points="228.38,-307.37 224.88,-297.37 221.38,-307.37 228.38,-307.37"/>
</a>
</g>
</g>
<!-- Node3 -->
<g id="Node000003" class="node">
<title>Node3</title>
<g id="a_Node000003"><a xlink:href="_config_handler_8h.html" target="_top" xlink:title=" ">
<polygon fill="white" stroke="#666666" points="199.75,-240.25 114,-240.25 114,-221 199.75,-221 199.75,-240.25"/>
<text xml:space="preserve" text-anchor="middle" x="156.88" y="-226.75" font-family="Helvetica,sans-Serif" font-size="10.00">ConfigHandler.h</text>
</a>
</g>
</g>
<!-- Node2&#45;&gt;Node3 -->
<g id="edge2_Node000002_Node000003" class="edge">
<title>Node2&#45;&gt;Node3</title>
<g id="a_edge2_Node000002_Node000003"><a xlink:title=" ">
<path fill="none" stroke="#63b8ff" d="M213.34,-275.84C203.41,-268.07 188.86,-256.67 177.02,-247.4"/>
<polygon fill="#63b8ff" stroke="#63b8ff" points="179.46,-244.87 169.43,-241.46 175.15,-250.38 179.46,-244.87"/>
</a>
</g>
</g>
<!-- Node10 -->
<g id="Node000010" class="node">
<title>Node10</title>
<g id="a_Node000010"><a xlink:href="_status_handler_8h.html" target="_top" xlink:title=" ">
<polygon fill="white" stroke="#666666" points="85.75,-240.25 0,-240.25 0,-221 85.75,-221 85.75,-240.25"/>
<text xml:space="preserve" text-anchor="middle" x="42.88" y="-226.75" font-family="Helvetica,sans-Serif" font-size="10.00">StatusHandler.h</text>
</a>
</g>
</g>
<!-- Node2&#45;&gt;Node10 -->
<g id="edge11_Node000002_Node000010" class="edge">
<title>Node2&#45;&gt;Node10</title>
<g id="a_edge11_Node000002_Node000010"><a xlink:title=" ">
<path fill="none" stroke="#63b8ff" d="M194,-275.84C163.93,-267.04 118.01,-253.61 84.68,-243.86"/>
<polygon fill="#63b8ff" stroke="#63b8ff" points="85.93,-240.58 75.35,-241.13 83.97,-247.29 85.93,-240.58"/>
</a>
</g>
</g>
<!-- Node11 -->
<g id="Node000011" class="node">
<title>Node11</title>
<g id="a_Node000011"><a xlink:href="_event_handler_8h.html" target="_top" xlink:title=" ">
<polygon fill="white" stroke="#666666" points="336.25,-240.25 253.5,-240.25 253.5,-221 336.25,-221 336.25,-240.25"/>
<text xml:space="preserve" text-anchor="middle" x="294.88" y="-226.75" font-family="Helvetica,sans-Serif" font-size="10.00">EventHandler.h</text>
</a>
</g>
</g>
<!-- Node2&#45;&gt;Node11 -->
<g id="edge15_Node000002_Node000011" class="edge">
<title>Node2&#45;&gt;Node11</title>
<g id="a_edge15_Node000002_Node000011"><a xlink:title=" ">
<path fill="none" stroke="#63b8ff" d="M236.75,-275.84C246.97,-268.07 261.95,-256.67 274.14,-247.4"/>
<polygon fill="#63b8ff" stroke="#63b8ff" points="276.13,-250.28 281.97,-241.44 271.89,-244.71 276.13,-250.28"/>
</a>
</g>
</g>
<!-- Node17 -->
<g id="Node000017" class="node">
<title>Node17</title>
<g id="a_Node000017"><a xlink:href="_msgs_8h.html" target="_top" xlink:title=" ">
<polygon fill="white" stroke="#666666" points="403,-240.25 354.75,-240.25 354.75,-221 403,-221 403,-240.25"/>
<text xml:space="preserve" text-anchor="middle" x="378.88" y="-226.75" font-family="Helvetica,sans-Serif" font-size="10.00">Msgs.h</text>
</a>
</g>
</g>
<!-- Node2&#45;&gt;Node17 -->
<g id="edge26_Node000002_Node000017" class="edge">
<title>Node2&#45;&gt;Node17</title>
<g id="a_edge26_Node000002_Node000017"><a xlink:title=" ">
<path fill="none" stroke="#63b8ff" d="M251,-275.84C276.61,-266.99 315.8,-253.44 344.04,-243.67"/>
<polygon fill="#63b8ff" stroke="#63b8ff" points="344.92,-247.07 353.23,-240.49 342.63,-240.45 344.92,-247.07"/>
</a>
</g>
</g>
<!-- Node4 -->
<g id="Node000004" class="node">
<title>Node4</title>
<g id="a_Node000004"><a xlink:href="_runtime_8h.html" target="_top" xlink:title=" ">
<polygon fill="white" stroke="#666666" points="170.38,-74.5 109.38,-74.5 109.38,-55.25 170.38,-55.25 170.38,-74.5"/>
<text xml:space="preserve" text-anchor="middle" x="139.88" y="-61" font-family="Helvetica,sans-Serif" font-size="10.00">Runtime.h</text>
</a>
</g>
</g>
<!-- Node3&#45;&gt;Node4 -->
<g id="edge3_Node000003_Node000004" class="edge">
<title>Node3&#45;&gt;Node4</title>
<g id="a_edge3_Node000003_Node000004"><a xlink:title=" ">
<path fill="none" stroke="#63b8ff" d="M155.96,-220.82C153.33,-195.5 145.7,-122 141.97,-86.09"/>
<polygon fill="#63b8ff" stroke="#63b8ff" points="145.46,-85.81 140.95,-76.23 138.5,-86.54 145.46,-85.81"/>
</a>
</g>
</g>
<!-- Node8 -->
<g id="Node000008" class="node">
<title>Node8</title>
<g id="a_Node000008"><a xlink:href="_json_node_8h.html" target="_top" xlink:title=" ">
<polygon fill="white" stroke="#666666" points="112.12,-185 43.62,-185 43.62,-165.75 112.12,-165.75 112.12,-185"/>
<text xml:space="preserve" text-anchor="middle" x="77.88" y="-171.5" font-family="Helvetica,sans-Serif" font-size="10.00">JsonNode.h</text>
</a>
</g>
</g>
<!-- Node3&#45;&gt;Node8 -->
<g id="edge7_Node000003_Node000008" class="edge">
<title>Node3&#45;&gt;Node8</title>
<g id="a_edge7_Node000003_Node000008"><a xlink:title=" ">
<path fill="none" stroke="#63b8ff" d="M143.47,-220.59C131.78,-212.71 114.57,-201.11 100.71,-191.77"/>
<polygon fill="#63b8ff" stroke="#63b8ff" points="102.85,-188.99 92.6,-186.3 98.93,-194.79 102.85,-188.99"/>
</a>
</g>
</g>
<!-- Node9 -->
<g id="Node000009" class="node">
<title>Node9</title>
<g id="a_Node000009"><a xlink:title=" ">
<polygon fill="#e0e0e0" stroke="#999999" points="211.38,-129.75 168.38,-129.75 168.38,-110.5 211.38,-110.5 211.38,-129.75"/>
<text xml:space="preserve" text-anchor="middle" x="189.88" y="-116.25" font-family="Helvetica,sans-Serif" font-size="10.00">vector</text>
</a>
</g>
</g>
<!-- Node3&#45;&gt;Node9 -->
<g id="edge10_Node000003_Node000009" class="edge">
<title>Node3&#45;&gt;Node9</title>
<g id="a_edge10_Node000003_Node000009"><a xlink:title=" ">
<path fill="none" stroke="#63b8ff" d="M159.58,-220.75C164.85,-203.42 176.61,-164.73 183.83,-140.99"/>
<polygon fill="#63b8ff" stroke="#63b8ff" points="187.14,-142.16 186.7,-131.57 180.44,-140.12 187.14,-142.16"/>
</a>
</g>
</g>
<!-- Node5 -->
<g id="Node000005" class="node">
<title>Node5</title>
<g id="a_Node000005"><a xlink:title=" ">
<polygon fill="#e0e0e0" stroke="#999999" points="99,-19.25 50.75,-19.25 50.75,0 99,0 99,-19.25"/>
<text xml:space="preserve" text-anchor="middle" x="74.88" y="-5.75" font-family="Helvetica,sans-Serif" font-size="10.00">string.h</text>
</a>
</g>
</g>
<!-- Node4&#45;&gt;Node5 -->
<g id="edge4_Node000004_Node000005" class="edge">
<title>Node4&#45;&gt;Node5</title>
<g id="a_edge4_Node000004_Node000005"><a xlink:title=" ">
<path fill="none" stroke="#63b8ff" d="M128.85,-54.84C119.45,-47.15 105.73,-35.9 94.47,-26.68"/>
<polygon fill="#63b8ff" stroke="#63b8ff" points="96.86,-24.11 86.91,-20.48 92.43,-29.53 96.86,-24.11"/>
</a>
</g>
</g>
<!-- Node6 -->
<g id="Node000006" class="node">
<title>Node6</title>
<g id="a_Node000006"><a xlink:title=" ">
<polygon fill="#e0e0e0" stroke="#999999" points="162.5,-19.25 117.25,-19.25 117.25,0 162.5,0 162.5,-19.25"/>
<text xml:space="preserve" text-anchor="middle" x="139.88" y="-5.75" font-family="Helvetica,sans-Serif" font-size="10.00">chrono</text>
</a>
</g>
</g>
<!-- Node4&#45;&gt;Node6 -->
<g id="edge5_Node000004_Node000006" class="edge">
<title>Node4&#45;&gt;Node6</title>
<g id="a_edge5_Node000004_Node000006"><a xlink:title=" ">
<path fill="none" stroke="#63b8ff" d="M139.88,-55.08C139.88,-48.57 139.88,-39.42 139.88,-31.12"/>
<polygon fill="#63b8ff" stroke="#63b8ff" points="143.38,-31.12 139.88,-21.12 136.38,-31.12 143.38,-31.12"/>
</a>
</g>
</g>
<!-- Node7 -->
<g id="Node000007" class="node">
<title>Node7</title>
<g id="a_Node000007"><a xlink:title=" ">
<polygon fill="#e0e0e0" stroke="#999999" points="233.62,-19.25 180.12,-19.25 180.12,0 233.62,0 233.62,-19.25"/>
<text xml:space="preserve" text-anchor="middle" x="206.88" y="-5.75" font-family="Helvetica,sans-Serif" font-size="10.00">iostream</text>
</a>
</g>
</g>
<!-- Node4&#45;&gt;Node7 -->
<g id="edge6_Node000004_Node000007" class="edge">
<title>Node4&#45;&gt;Node7</title>
<g id="a_edge6_Node000004_Node000007"><a xlink:title=" ">
<path fill="none" stroke="#63b8ff" d="M151.24,-54.84C160.92,-47.15 175.07,-35.9 186.68,-26.68"/>
<polygon fill="#63b8ff" stroke="#63b8ff" points="188.84,-29.43 194.49,-20.47 184.49,-23.95 188.84,-29.43"/>
</a>
</g>
</g>
<!-- Node8&#45;&gt;Node4 -->
<g id="edge8_Node000008_Node000004" class="edge">
<title>Node8&#45;&gt;Node4</title>
<g id="a_edge8_Node000008_Node000004"><a xlink:title=" ">
<path fill="none" stroke="#63b8ff" d="M82.95,-165.5C92.99,-147.93 115.57,-108.41 129.08,-84.77"/>
<polygon fill="#63b8ff" stroke="#63b8ff" points="132.06,-86.61 133.98,-76.19 125.98,-83.14 132.06,-86.61"/>
</a>
</g>
</g>
<!-- Node8&#45;&gt;Node9 -->
<g id="edge9_Node000008_Node000009" class="edge">
<title>Node8&#45;&gt;Node9</title>
<g id="a_edge9_Node000008_Node000009"><a xlink:title=" ">
<path fill="none" stroke="#63b8ff" d="M96.87,-165.34C114.33,-157.04 140.47,-144.61 160.6,-135.04"/>
<polygon fill="#63b8ff" stroke="#63b8ff" points="161.89,-138.31 169.42,-130.85 158.88,-131.99 161.89,-138.31"/>
</a>
</g>
</g>
<!-- Node10&#45;&gt;Node4 -->
<g id="edge12_Node000010_Node000004" class="edge">
<title>Node10&#45;&gt;Node4</title>
<g id="a_edge12_Node000010_Node000004"><a xlink:title=" ">
<path fill="none" stroke="#63b8ff" d="M36.51,-220.65C28.39,-208 16.37,-184.41 24.88,-165.75 42.68,-126.71 84.12,-97.03 112.07,-80.54"/>
<polygon fill="#63b8ff" stroke="#63b8ff" points="113.77,-83.6 120.74,-75.61 110.31,-77.51 113.77,-83.6"/>
</a>
</g>
</g>
<!-- Node10&#45;&gt;Node8 -->
<g id="edge13_Node000010_Node000008" class="edge">
<title>Node10&#45;&gt;Node8</title>
<g id="a_edge13_Node000010_Node000008"><a xlink:title=" ">
<path fill="none" stroke="#63b8ff" d="M48.65,-220.83C53.29,-213.78 59.95,-203.65 65.74,-194.83"/>
<polygon fill="#63b8ff" stroke="#63b8ff" points="68.57,-196.9 71.14,-186.62 62.72,-193.06 68.57,-196.9"/>
</a>
</g>
</g>
<!-- Node10&#45;&gt;Node9 -->
<g id="edge14_Node000010_Node000009" class="edge">
<title>Node10&#45;&gt;Node9</title>
<g id="a_edge14_Node000010_Node000009"><a xlink:title=" ">
<path fill="none" stroke="#63b8ff" d="M38.19,-220.77C31.85,-207.43 22.64,-182 34.88,-165.75 49.51,-146.3 115.75,-132.69 156.75,-125.95"/>
<polygon fill="#63b8ff" stroke="#63b8ff" points="157.26,-129.42 166.59,-124.4 156.16,-122.5 157.26,-129.42"/>
</a>
</g>
</g>
<!-- Node11&#45;&gt;Node4 -->
<g id="edge16_Node000011_Node000004" class="edge">
<title>Node11&#45;&gt;Node4</title>
<g id="a_edge16_Node000011_Node000004"><a xlink:title=" ">
<path fill="none" stroke="#63b8ff" d="M294.03,-220.79C292.49,-207.91 288.33,-183.57 277.88,-165.75 253.67,-124.5 204.98,-95.51 172.39,-79.75"/>
<polygon fill="#63b8ff" stroke="#63b8ff" points="173.93,-76.61 163.39,-75.55 170.98,-82.95 173.93,-76.61"/>
</a>
</g>
</g>
<!-- Node11&#45;&gt;Node9 -->
<g id="edge18_Node000011_Node000009" class="edge">
<title>Node11&#45;&gt;Node9</title>
<g id="a_edge18_Node000011_Node000009"><a xlink:title=" ">
<path fill="none" stroke="#63b8ff" d="M291.05,-220.53C285.16,-207.33 272.88,-182.59 256.88,-165.75 245.63,-153.92 230.7,-143.6 217.79,-135.87"/>
<polygon fill="#63b8ff" stroke="#63b8ff" points="219.71,-132.93 209.29,-131 216.23,-139.01 219.71,-132.93"/>
</a>
</g>
</g>
<!-- Node12 -->
<g id="Node000012" class="node">
<title>Node12</title>
<g id="a_Node000012"><a xlink:title=" ">
<polygon fill="#e0e0e0" stroke="#999999" points="559.88,-185 501.88,-185 501.88,-165.75 559.88,-165.75 559.88,-185"/>
<text xml:space="preserve" text-anchor="middle" x="530.88" y="-171.5" font-family="Helvetica,sans-Serif" font-size="10.00">functional</text>
</a>
</g>
</g>
<!-- Node11&#45;&gt;Node12 -->
<g id="edge17_Node000011_Node000012" class="edge">
<title>Node11&#45;&gt;Node12</title>
<g id="a_edge17_Node000011_Node000012"><a xlink:title=" ">
<path fill="none" stroke="#63b8ff" d="M335.18,-220.53C378.56,-210.74 447.17,-195.26 490.56,-185.47"/>
<polygon fill="#63b8ff" stroke="#63b8ff" points="491.09,-188.94 500.08,-183.32 489.55,-182.11 491.09,-188.94"/>
</a>
</g>
</g>
<!-- Node13 -->
<g id="Node000013" class="node">
<title>Node13</title>
<g id="a_Node000013"><a xlink:title=" ">
<polygon fill="#e0e0e0" stroke="#999999" points="248,-185 205.75,-185 205.75,-165.75 248,-165.75 248,-185"/>
<text xml:space="preserve" text-anchor="middle" x="226.88" y="-171.5" font-family="Helvetica,sans-Serif" font-size="10.00">queue</text>
</a>
</g>
</g>
<!-- Node11&#45;&gt;Node13 -->
<g id="edge19_Node000011_Node000013" class="edge">
<title>Node11&#45;&gt;Node13</title>
<g id="a_edge19_Node000011_Node000013"><a xlink:title=" ">
<path fill="none" stroke="#63b8ff" d="M283.34,-220.59C273.41,-212.82 258.86,-201.42 247.02,-192.15"/>
<polygon fill="#63b8ff" stroke="#63b8ff" points="249.46,-189.62 239.43,-186.21 245.15,-195.13 249.46,-189.62"/>
</a>
</g>
</g>
<!-- Node14 -->
<g id="Node000014" class="node">
<title>Node14</title>
<g id="a_Node000014"><a xlink:href="_named_value_table_8h.html" target="_top" xlink:title=" ">
<polygon fill="white" stroke="#666666" points="445.38,-185 342.38,-185 342.38,-165.75 445.38,-165.75 445.38,-185"/>
<text xml:space="preserve" text-anchor="middle" x="393.88" y="-171.5" font-family="Helvetica,sans-Serif" font-size="10.00">NamedValueTable.h</text>
</a>
</g>
</g>
<!-- Node11&#45;&gt;Node14 -->
<g id="edge20_Node000011_Node000014" class="edge">
<title>Node11&#45;&gt;Node14</title>
<g id="a_edge20_Node000011_Node000014"><a xlink:title=" ">
<path fill="none" stroke="#63b8ff" d="M311.67,-220.59C326.89,-212.41 349.57,-200.21 367.26,-190.69"/>
<polygon fill="#63b8ff" stroke="#63b8ff" points="368.52,-193.99 375.67,-186.17 365.2,-187.82 368.52,-193.99"/>
</a>
</g>
</g>
<!-- Node16 -->
<g id="Node000016" class="node">
<title>Node16</title>
<g id="a_Node000016"><a xlink:href="_development_helper_8h.html" target="_top" xlink:title=" ">
<polygon fill="white" stroke="#666666" points="533.75,-129.75 424,-129.75 424,-110.5 533.75,-110.5 533.75,-129.75"/>
<text xml:space="preserve" text-anchor="middle" x="478.88" y="-116.25" font-family="Helvetica,sans-Serif" font-size="10.00">DevelopmentHelper.h</text>
</a>
</g>
</g>
<!-- Node11&#45;&gt;Node16 -->
<g id="edge25_Node000011_Node000016" class="edge">
<title>Node11&#45;&gt;Node16</title>
<g id="a_edge25_Node000011_Node000016"><a xlink:title=" ">
<path fill="none" stroke="#63b8ff" d="M336.4,-222.45C377.79,-214.54 437.6,-200.83 454.88,-185 467.31,-173.61 473.33,-155.15 476.23,-140.99"/>
<polygon fill="#63b8ff" stroke="#63b8ff" points="479.63,-141.88 477.81,-131.44 472.73,-140.73 479.63,-141.88"/>
</a>
</g>
</g>
<!-- Node14&#45;&gt;Node9 -->
<g id="edge21_Node000014_Node000009" class="edge">
<title>Node14&#45;&gt;Node9</title>
<g id="a_edge21_Node000014_Node000009"><a xlink:title=" ">
<path fill="none" stroke="#63b8ff" d="M359.27,-165.34C321.05,-155.37 259.98,-139.42 222.55,-129.65"/>
<polygon fill="#63b8ff" stroke="#63b8ff" points="223.77,-126.36 213.21,-127.22 222,-133.13 223.77,-126.36"/>
</a>
</g>
</g>
<!-- Node15 -->
<g id="Node000015" class="node">
<title>Node15</title>
<g id="a_Node000015"><a xlink:href="_l_s_c_utils_8h.html" target="_top" xlink:title=" ">
<polygon fill="white" stroke="#666666" points="405.88,-129.75 341.88,-129.75 341.88,-110.5 405.88,-110.5 405.88,-129.75"/>
<text xml:space="preserve" text-anchor="middle" x="373.88" y="-116.25" font-family="Helvetica,sans-Serif" font-size="10.00">LSCUtils.h</text>
</a>
</g>
</g>
<!-- Node14&#45;&gt;Node15 -->
<g id="edge22_Node000014_Node000015" class="edge">
<title>Node14&#45;&gt;Node15</title>
<g id="a_edge22_Node000014_Node000015"><a xlink:title=" ">
<path fill="none" stroke="#63b8ff" d="M390.57,-165.58C388.04,-158.84 384.45,-149.27 381.24,-140.74"/>
<polygon fill="#63b8ff" stroke="#63b8ff" points="384.57,-139.66 377.78,-131.53 378.02,-142.12 384.57,-139.66"/>
</a>
</g>
</g>
<!-- Node14&#45;&gt;Node16 -->
<g id="edge24_Node000014_Node000016" class="edge">
<title>Node14&#45;&gt;Node16</title>
<g id="a_edge24_Node000014_Node000016"><a xlink:title=" ">
<path fill="none" stroke="#63b8ff" d="M408.29,-165.34C420.99,-157.39 439.75,-145.64 454.73,-136.25"/>
<polygon fill="#63b8ff" stroke="#63b8ff" points="456.49,-139.28 463.1,-131.01 452.77,-133.35 456.49,-139.28"/>
</a>
</g>
</g>
<!-- Node15&#45;&gt;Node4 -->
<g id="edge23_Node000015_Node000004" class="edge">
<title>Node15&#45;&gt;Node4</title>
<g id="a_edge23_Node000015_Node000004"><a xlink:title=" ">
<path fill="none" stroke="#63b8ff" d="M341.83,-111.83C300.29,-102.38 227.75,-85.87 181.85,-75.43"/>
<polygon fill="#63b8ff" stroke="#63b8ff" points="182.79,-72.05 172.27,-73.25 181.24,-78.88 182.79,-72.05"/>
</a>
</g>
</g>
</g>
</svg>
