<?xml version="1.0" encoding="UTF-8" standalone="no"?>
<!DOCTYPE svg PUBLIC "-//W3C//DTD SVG 1.1//EN"
 "http://www.w3.org/Graphics/SVG/1.1/DTD/svg11.dtd">
<!-- Generated by graphviz version 15.1.0 (20260618.0150)
 -->
<!-- Title: include/Base64Data.h Pages: 1 -->
<svg width="254pt" height="83pt"
 viewBox="0.00 0.00 254.00 83.00" xmlns="http://www.w3.org/2000/svg" xmlns:xlink="http://www.w3.org/1999/xlink">
<g id="graph0" class="graph" transform="scale(1 1) rotate(0) translate(4 78.5)">
<title>include/Base64Data.h</title>
<!-- Node1 -->
<g id="Node000001" class="node">
<title>Node1</title>
<g id="a_Node000001"><a xlink:title=" ">
<polygon fill="#999999" stroke="#666666" points="177.25,-74.5 65.25,-74.5 65.25,-55.25 177.25,-55.25 177.25,-74.5"/>
<text xml:space="preserve" text-anchor="middle" x="121.25" y="-61" font-family="Helvetica,sans-Serif" font-size="10.00">include/Base64Data.h</text>
</a>
</g>
</g>
<!-- Node2 -->
<g id="Node000002" class="node">
<title>Node2</title>
<g id="a_Node000002"><a xlink:href="_c_a_e_s_cryptor_8cpp.html" target="_top" xlink:title=" ">
<polygon fill="white" stroke="#666666" points="110.5,-19.25 0,-19.25 0,0 110.5,0 110.5,-19.25"/>
<text xml:space="preserve" text-anchor="middle" x="55.25" y="-5.75" font-family="Helvetica,sans-Serif" font-size="10.00">src/CAESCryptor.cpp</text>
</a>
</g>
</g>
<!-- Node1&#45;&gt;Node2 -->
<g id="edge1_Node000001_Node000002" class="edge">
<title>Node1&#45;&gt;Node2</title>
<g id="a_edge1_Node000001_Node000002"><a xlink:title=" ">
<path fill="none" stroke="#63b8ff" d="M101.16,-47.66C89.7,-38.42 75.77,-27.18 66.28,-19.52"/>
<polygon fill="#63b8ff" stroke="#63b8ff" points="98.9,-50.34 108.88,-53.89 103.29,-44.89 98.9,-50.34"/>
</a>
</g>
</g>
<!-- Node3 -->
<g id="Node000003" class="node">
<title>Node3</title>
<g id="a_Node000003"><a xlink:href="_c_access_token_8cpp.html" target="_top" xlink:title=" ">
<polygon fill="white" stroke="#666666" points="246.25,-19.25 128.25,-19.25 128.25,0 246.25,0 246.25,-19.25"/>
<text xml:space="preserve" text-anchor="middle" x="187.25" y="-5.75" font-family="Helvetica,sans-Serif" font-size="10.00">src/CAccessToken.cpp</text>
</a>
</g>
</g>
<!-- Node1&#45;&gt;Node3 -->
<g id="edge2_Node000001_Node000003" class="edge">
<title>Node1&#45;&gt;Node3</title>
<g id="a_edge2_Node000001_Node000003"><a xlink:title=" ">
<path fill="none" stroke="#63b8ff" d="M141.34,-47.66C152.8,-38.42 166.73,-27.18 176.22,-19.52"/>
<polygon fill="#63b8ff" stroke="#63b8ff" points="139.21,-44.89 133.62,-53.89 143.6,-50.34 139.21,-44.89"/>
</a>
</g>
</g>
</g>
</svg>
