<?xml version="1.0" encoding="UTF-8" standalone="no"?>
<!DOCTYPE svg PUBLIC "-//W3C//DTD SVG 1.1//EN"
 "http://www.w3.org/Graphics/SVG/1.1/DTD/svg11.dtd">
<!-- Generated by graphviz version 15.1.0 (20260618.0150)
 -->
<!-- Title: include/BatteryMeasure.h Pages: 1 -->
<svg width="541pt" height="414pt"
 viewBox="0.00 0.00 541.00 414.00" xmlns="http://www.w3.org/2000/svg" xmlns:xlink="http://www.w3.org/1999/xlink">
<g id="graph0" class="graph" transform="scale(1 1) rotate(0) translate(4 410)">
<title>include/BatteryMeasure.h</title>
<!-- Node1 -->
<g id="Node000001" class="node">
<title>Node1</title>
<g id="a_Node000001"><a xlink:title=" ">
<polygon fill="#999999" stroke="#666666" points="461.66,-406 334.66,-406 334.66,-386.75 461.66,-386.75 461.66,-406"/>
<text xml:space="preserve" text-anchor="middle" x="398.16" y="-392.5" font-family="Helvetica,sans-Serif" font-size="10.00">include/BatteryMeasure.h</text>
</a>
</g>
</g>
<!-- Node2 -->
<g id="Node000002" class="node">
<title>Node2</title>
<g id="a_Node000002"><a xlink:href="_appl_module_8h.html" target="_top" xlink:title=" ">
<polygon fill="white" stroke="#666666" points="365.78,-350.75 290.53,-350.75 290.53,-331.5 365.78,-331.5 365.78,-350.75"/>
<text xml:space="preserve" text-anchor="middle" x="328.16" y="-337.25" font-family="Helvetica,sans-Serif" font-size="10.00">ApplModule.h</text>
</a>
</g>
</g>
<!-- Node1&#45;&gt;Node2 -->
<g id="edge1_Node000001_Node000002" class="edge">
<title>Node1&#45;&gt;Node2</title>
<g id="a_edge1_Node000001_Node000002"><a xlink:title=" ">
<path fill="none" stroke="#63b8ff" d="M386.28,-386.34C376.06,-378.57 361.09,-367.17 348.89,-357.9"/>
<polygon fill="#63b8ff" stroke="#63b8ff" points="351.14,-355.21 341.06,-351.94 346.9,-360.78 351.14,-355.21"/>
</a>
</g>
</g>
<!-- Node4 -->
<g id="Node000004" class="node">
<title>Node4</title>
<g id="a_Node000004"><a xlink:href="_config_handler_8h.html" target="_top" xlink:title=" ">
<polygon fill="white" stroke="#666666" points="425.03,-240.25 339.28,-240.25 339.28,-221 425.03,-221 425.03,-240.25"/>
<text xml:space="preserve" text-anchor="middle" x="382.16" y="-226.75" font-family="Helvetica,sans-Serif" font-size="10.00">ConfigHandler.h</text>
</a>
</g>
</g>
<!-- Node1&#45;&gt;Node4 -->
<g id="edge28_Node000001_Node000004" class="edge">
<title>Node1&#45;&gt;Node4</title>
<g id="a_edge28_Node000001_Node000004"><a xlink:title=" ">
<path fill="none" stroke="#63b8ff" d="M397.3,-386.57C394.82,-361.25 387.64,-287.75 384.13,-251.84"/>
<polygon fill="#63b8ff" stroke="#63b8ff" points="387.62,-251.59 383.17,-241.98 380.66,-252.27 387.62,-251.59"/>
</a>
</g>
</g>
<!-- Node11 -->
<g id="Node000011" class="node">
<title>Node11</title>
<g id="a_Node000011"><a xlink:href="_status_handler_8h.html" target="_top" xlink:title=" ">
<polygon fill="white" stroke="#666666" points="529.03,-240.25 443.28,-240.25 443.28,-221 529.03,-221 529.03,-240.25"/>
<text xml:space="preserve" text-anchor="middle" x="486.16" y="-226.75" font-family="Helvetica,sans-Serif" font-size="10.00">StatusHandler.h</text>
</a>
</g>
</g>
<!-- Node1&#45;&gt;Node11 -->
<g id="edge29_Node000001_Node000011" class="edge">
<title>Node1&#45;&gt;Node11</title>
<g id="a_edge29_Node000001_Node000011"><a xlink:title=" ">
<path fill="none" stroke="#63b8ff" d="M402.89,-386.57C416.68,-360.92 457.04,-285.8 476.04,-250.44"/>
<polygon fill="#63b8ff" stroke="#63b8ff" points="479.04,-252.27 480.69,-241.81 472.87,-248.96 479.04,-252.27"/>
</a>
</g>
</g>
<!-- Node3 -->
<g id="Node000003" class="node">
<title>Node3</title>
<g id="a_Node000003"><a xlink:href="_module_interface_8h.html" target="_top" xlink:title="Full Interface for a module and an abstract basic module implementation.">
<polygon fill="white" stroke="#666666" points="370.16,-295.5 276.16,-295.5 276.16,-276.25 370.16,-276.25 370.16,-295.5"/>
<text xml:space="preserve" text-anchor="middle" x="323.16" y="-282" font-family="Helvetica,sans-Serif" font-size="10.00">ModuleInterface.h</text>
</a>
</g>
</g>
<!-- Node2&#45;&gt;Node3 -->
<g id="edge2_Node000002_Node000003" class="edge">
<title>Node2&#45;&gt;Node3</title>
<g id="a_edge2_Node000002_Node000003"><a xlink:title=" ">
<path fill="none" stroke="#63b8ff" d="M327.33,-331.33C326.71,-324.74 325.84,-315.46 325.05,-307.07"/>
<polygon fill="#63b8ff" stroke="#63b8ff" points="328.56,-307 324.14,-297.37 321.59,-307.65 328.56,-307"/>
</a>
</g>
</g>
<!-- Node3&#45;&gt;Node4 -->
<g id="edge3_Node000003_Node000004" class="edge">
<title>Node3&#45;&gt;Node4</title>
<g id="a_edge3_Node000003_Node000004"><a xlink:title=" ">
<path fill="none" stroke="#63b8ff" d="M333.17,-275.84C341.52,-268.3 353.66,-257.35 363.76,-248.23"/>
<polygon fill="#63b8ff" stroke="#63b8ff" points="366.09,-250.84 371.17,-241.54 361.4,-245.64 366.09,-250.84"/>
</a>
</g>
</g>
<!-- Node3&#45;&gt;Node11 -->
<g id="edge12_Node000003_Node000011" class="edge">
<title>Node3&#45;&gt;Node11</title>
<g id="a_edge12_Node000003_Node000011"><a xlink:title=" ">
<path fill="none" stroke="#63b8ff" d="M350.81,-275.84C377.39,-267.16 417.79,-253.96 447.54,-244.24"/>
<polygon fill="#63b8ff" stroke="#63b8ff" points="448.51,-247.6 456.93,-241.17 446.34,-240.95 448.51,-247.6"/>
</a>
</g>
</g>
<!-- Node12 -->
<g id="Node000012" class="node">
<title>Node12</title>
<g id="a_Node000012"><a xlink:href="_event_handler_8h.html" target="_top" xlink:title=" ">
<polygon fill="white" stroke="#666666" points="234.53,-240.25 151.78,-240.25 151.78,-221 234.53,-221 234.53,-240.25"/>
<text xml:space="preserve" text-anchor="middle" x="193.16" y="-226.75" font-family="Helvetica,sans-Serif" font-size="10.00">EventHandler.h</text>
</a>
</g>
</g>
<!-- Node3&#45;&gt;Node12 -->
<g id="edge16_Node000003_Node000012" class="edge">
<title>Node3&#45;&gt;Node12</title>
<g id="a_edge16_Node000003_Node000012"><a xlink:title=" ">
<path fill="none" stroke="#63b8ff" d="M301.1,-275.84C280.47,-267.39 249.38,-254.65 225.85,-245.02"/>
<polygon fill="#63b8ff" stroke="#63b8ff" points="227.3,-241.83 216.72,-241.28 224.65,-248.31 227.3,-241.83"/>
</a>
</g>
</g>
<!-- Node18 -->
<g id="Node000018" class="node">
<title>Node18</title>
<g id="a_Node000018"><a xlink:href="_msgs_8h.html" target="_top" xlink:title=" ">
<polygon fill="white" stroke="#666666" points="321.28,-240.25 273.03,-240.25 273.03,-221 321.28,-221 321.28,-240.25"/>
<text xml:space="preserve" text-anchor="middle" x="297.16" y="-226.75" font-family="Helvetica,sans-Serif" font-size="10.00">Msgs.h</text>
</a>
</g>
</g>
<!-- Node3&#45;&gt;Node18 -->
<g id="edge27_Node000003_Node000018" class="edge">
<title>Node3&#45;&gt;Node18</title>
<g id="a_edge27_Node000003_Node000018"><a xlink:title=" ">
<path fill="none" stroke="#63b8ff" d="M318.86,-276.08C315.53,-269.26 310.79,-259.56 306.59,-250.95"/>
<polygon fill="#63b8ff" stroke="#63b8ff" points="309.74,-249.42 302.21,-241.97 303.45,-252.49 309.74,-249.42"/>
</a>
</g>
</g>
<!-- Node5 -->
<g id="Node000005" class="node">
<title>Node5</title>
<g id="a_Node000005"><a xlink:href="_runtime_8h.html" target="_top" xlink:title=" ">
<polygon fill="white" stroke="#666666" points="340.66,-74.5 279.66,-74.5 279.66,-55.25 340.66,-55.25 340.66,-74.5"/>
<text xml:space="preserve" text-anchor="middle" x="310.16" y="-61" font-family="Helvetica,sans-Serif" font-size="10.00">Runtime.h</text>
</a>
</g>
</g>
<!-- Node4&#45;&gt;Node5 -->
<g id="edge4_Node000004_Node000005" class="edge">
<title>Node4&#45;&gt;Node5</title>
<g id="a_edge4_Node000004_Node000005"><a xlink:title=" ">
<path fill="none" stroke="#63b8ff" d="M378.29,-220.82C367.05,-195.28 334.26,-120.7 318.63,-85.15"/>
<polygon fill="#63b8ff" stroke="#63b8ff" points="321.89,-83.85 314.66,-76.11 315.48,-86.67 321.89,-83.85"/>
</a>
</g>
</g>
<!-- Node9 -->
<g id="Node000009" class="node">
<title>Node9</title>
<g id="a_Node000009"><a xlink:href="_json_node_8h.html" target="_top" xlink:title=" ">
<polygon fill="white" stroke="#666666" points="520.41,-185 451.91,-185 451.91,-165.75 520.41,-165.75 520.41,-185"/>
<text xml:space="preserve" text-anchor="middle" x="486.16" y="-171.5" font-family="Helvetica,sans-Serif" font-size="10.00">JsonNode.h</text>
</a>
</g>
</g>
<!-- Node4&#45;&gt;Node9 -->
<g id="edge8_Node000004_Node000009" class="edge">
<title>Node4&#45;&gt;Node9</title>
<g id="a_edge8_Node000004_Node000009"><a xlink:title=" ">
<path fill="none" stroke="#63b8ff" d="M399.8,-220.59C415.79,-212.41 439.61,-200.21 458.19,-190.69"/>
<polygon fill="#63b8ff" stroke="#63b8ff" points="459.78,-193.82 467.08,-186.14 456.58,-187.58 459.78,-193.82"/>
</a>
</g>
</g>
<!-- Node10 -->
<g id="Node000010" class="node">
<title>Node10</title>
<g id="a_Node000010"><a xlink:title=" ">
<polygon fill="#e0e0e0" stroke="#999999" points="407.66,-129.75 364.66,-129.75 364.66,-110.5 407.66,-110.5 407.66,-129.75"/>
<text xml:space="preserve" text-anchor="middle" x="386.16" y="-116.25" font-family="Helvetica,sans-Serif" font-size="10.00">vector</text>
</a>
</g>
</g>
<!-- Node4&#45;&gt;Node10 -->
<g id="edge11_Node000004_Node000010" class="edge">
<title>Node4&#45;&gt;Node10</title>
<g id="a_edge11_Node000004_Node000010"><a xlink:title=" ">
<path fill="none" stroke="#63b8ff" d="M382.48,-220.75C383.12,-203.5 384.54,-165.08 385.41,-141.31"/>
<polygon fill="#63b8ff" stroke="#63b8ff" points="388.9,-141.76 385.77,-131.64 381.9,-141.5 388.9,-141.76"/>
</a>
</g>
</g>
<!-- Node6 -->
<g id="Node000006" class="node">
<title>Node6</title>
<g id="a_Node000006"><a xlink:title=" ">
<polygon fill="#e0e0e0" stroke="#999999" points="269.28,-19.25 221.03,-19.25 221.03,0 269.28,0 269.28,-19.25"/>
<text xml:space="preserve" text-anchor="middle" x="245.16" y="-5.75" font-family="Helvetica,sans-Serif" font-size="10.00">string.h</text>
</a>
</g>
</g>
<!-- Node5&#45;&gt;Node6 -->
<g id="edge5_Node000005_Node000006" class="edge">
<title>Node5&#45;&gt;Node6</title>
<g id="a_edge5_Node000005_Node000006"><a xlink:title=" ">
<path fill="none" stroke="#63b8ff" d="M299.13,-54.84C289.74,-47.15 276.01,-35.9 264.75,-26.68"/>
<polygon fill="#63b8ff" stroke="#63b8ff" points="267.15,-24.11 257.19,-20.48 262.71,-29.53 267.15,-24.11"/>
</a>
</g>
</g>
<!-- Node7 -->
<g id="Node000007" class="node">
<title>Node7</title>
<g id="a_Node000007"><a xlink:title=" ">
<polygon fill="#e0e0e0" stroke="#999999" points="332.78,-19.25 287.53,-19.25 287.53,0 332.78,0 332.78,-19.25"/>
<text xml:space="preserve" text-anchor="middle" x="310.16" y="-5.75" font-family="Helvetica,sans-Serif" font-size="10.00">chrono</text>
</a>
</g>
</g>
<!-- Node5&#45;&gt;Node7 -->
<g id="edge6_Node000005_Node000007" class="edge">
<title>Node5&#45;&gt;Node7</title>
<g id="a_edge6_Node000005_Node000007"><a xlink:title=" ">
<path fill="none" stroke="#63b8ff" d="M310.16,-55.08C310.16,-48.57 310.16,-39.42 310.16,-31.12"/>
<polygon fill="#63b8ff" stroke="#63b8ff" points="313.66,-31.12 310.16,-21.12 306.66,-31.12 313.66,-31.12"/>
</a>
</g>
</g>
<!-- Node8 -->
<g id="Node000008" class="node">
<title>Node8</title>
<g id="a_Node000008"><a xlink:title=" ">
<polygon fill="#e0e0e0" stroke="#999999" points="403.91,-19.25 350.41,-19.25 350.41,0 403.91,0 403.91,-19.25"/>
<text xml:space="preserve" text-anchor="middle" x="377.16" y="-5.75" font-family="Helvetica,sans-Serif" font-size="10.00">iostream</text>
</a>
</g>
</g>
<!-- Node5&#45;&gt;Node8 -->
<g id="edge7_Node000005_Node000008" class="edge">
<title>Node5&#45;&gt;Node8</title>
<g id="a_edge7_Node000005_Node000008"><a xlink:title=" ">
<path fill="none" stroke="#63b8ff" d="M321.52,-54.84C331.21,-47.15 345.36,-35.9 356.96,-26.68"/>
<polygon fill="#63b8ff" stroke="#63b8ff" points="359.12,-29.43 364.77,-20.47 354.77,-23.95 359.12,-29.43"/>
</a>
</g>
</g>
<!-- Node9&#45;&gt;Node5 -->
<g id="edge9_Node000009_Node000005" class="edge">
<title>Node9&#45;&gt;Node5</title>
<g id="a_edge9_Node000009_Node000005"><a xlink:title=" ">
<path fill="none" stroke="#63b8ff" d="M478.46,-165.47C466.48,-152.07 442.15,-126.56 417.16,-110.5 396.34,-97.13 370.85,-86.31 349.97,-78.68"/>
<polygon fill="#63b8ff" stroke="#63b8ff" points="351.23,-75.41 340.64,-75.38 348.9,-82.01 351.23,-75.41"/>
</a>
</g>
</g>
<!-- Node9&#45;&gt;Node10 -->
<g id="edge10_Node000009_Node000010" class="edge">
<title>Node9&#45;&gt;Node10</title>
<g id="a_edge10_Node000009_Node000010"><a xlink:title=" ">
<path fill="none" stroke="#63b8ff" d="M469.19,-165.34C453.89,-157.19 431.12,-145.07 413.29,-135.58"/>
<polygon fill="#63b8ff" stroke="#63b8ff" points="415.01,-132.52 404.54,-130.91 411.72,-138.7 415.01,-132.52"/>
</a>
</g>
</g>
<!-- Node11&#45;&gt;Node5 -->
<g id="edge13_Node000011_Node000005" class="edge">
<title>Node11&#45;&gt;Node5</title>
<g id="a_edge13_Node000011_Node000005"><a xlink:title=" ">
<path fill="none" stroke="#63b8ff" d="M499.72,-220.65C516.16,-208.59 540.37,-186.28 529.16,-165.75 494.26,-101.86 405.44,-78.67 352.24,-70.38"/>
<polygon fill="#63b8ff" stroke="#63b8ff" points="353.04,-66.96 342.64,-69 352.05,-73.89 353.04,-66.96"/>
</a>
</g>
</g>
<!-- Node11&#45;&gt;Node9 -->
<g id="edge14_Node000011_Node000009" class="edge">
<title>Node11&#45;&gt;Node9</title>
<g id="a_edge14_Node000011_Node000009"><a xlink:title=" ">
<path fill="none" stroke="#63b8ff" d="M486.16,-220.83C486.16,-214.32 486.16,-205.17 486.16,-196.87"/>
<polygon fill="#63b8ff" stroke="#63b8ff" points="489.66,-196.87 486.16,-186.87 482.66,-196.87 489.66,-196.87"/>
</a>
</g>
</g>
<!-- Node11&#45;&gt;Node10 -->
<g id="edge15_Node000011_Node000010" class="edge">
<title>Node11&#45;&gt;Node10</title>
<g id="a_edge15_Node000011_Node000010"><a xlink:title=" ">
<path fill="none" stroke="#63b8ff" d="M477.49,-220.83C468.73,-211.9 454.86,-197.62 443.16,-185 428.68,-169.39 412.56,-151.25 401.17,-138.3"/>
<polygon fill="#63b8ff" stroke="#63b8ff" points="404.02,-136.25 394.8,-131.04 398.76,-140.86 404.02,-136.25"/>
</a>
</g>
</g>
<!-- Node12&#45;&gt;Node5 -->
<g id="edge17_Node000012_Node000005" class="edge">
<title>Node12&#45;&gt;Node5</title>
<g id="a_edge17_Node000012_Node000005"><a xlink:title=" ">
<path fill="none" stroke="#63b8ff" d="M151.3,-229.97C113.18,-227.95 57.97,-218.76 25.16,-185 1.73,-160.9 -9.78,-135.97 12.16,-110.5 44.69,-72.74 193.9,-66.47 268.07,-65.73"/>
<polygon fill="#63b8ff" stroke="#63b8ff" points="267.81,-69.23 277.78,-65.66 267.76,-62.23 267.81,-69.23"/>
</a>
</g>
</g>
<!-- Node12&#45;&gt;Node10 -->
<g id="edge19_Node000012_Node000010" class="edge">
<title>Node12&#45;&gt;Node10</title>
<g id="a_edge19_Node000012_Node000010"><a xlink:title=" ">
<path fill="none" stroke="#63b8ff" d="M215.86,-220.54C236.06,-212.17 266.19,-198.95 291.16,-185 317.63,-170.21 346.29,-150.36 365.13,-136.73"/>
<polygon fill="#63b8ff" stroke="#63b8ff" points="367.04,-139.68 373.04,-130.95 362.91,-134.02 367.04,-139.68"/>
</a>
</g>
</g>
<!-- Node13 -->
<g id="Node000013" class="node">
<title>Node13</title>
<g id="a_Node000013"><a xlink:title=" ">
<polygon fill="#e0e0e0" stroke="#999999" points="222.16,-185 164.16,-185 164.16,-165.75 222.16,-165.75 222.16,-185"/>
<text xml:space="preserve" text-anchor="middle" x="193.16" y="-171.5" font-family="Helvetica,sans-Serif" font-size="10.00">functional</text>
</a>
</g>
</g>
<!-- Node12&#45;&gt;Node13 -->
<g id="edge18_Node000012_Node000013" class="edge">
<title>Node12&#45;&gt;Node13</title>
<g id="a_edge18_Node000012_Node000013"><a xlink:title=" ">
<path fill="none" stroke="#63b8ff" d="M193.16,-220.83C193.16,-214.32 193.16,-205.17 193.16,-196.87"/>
<polygon fill="#63b8ff" stroke="#63b8ff" points="196.66,-196.87 193.16,-186.87 189.66,-196.87 196.66,-196.87"/>
</a>
</g>
</g>
<!-- Node14 -->
<g id="Node000014" class="node">
<title>Node14</title>
<g id="a_Node000014"><a xlink:title=" ">
<polygon fill="#e0e0e0" stroke="#999999" points="282.28,-185 240.03,-185 240.03,-165.75 282.28,-165.75 282.28,-185"/>
<text xml:space="preserve" text-anchor="middle" x="261.16" y="-171.5" font-family="Helvetica,sans-Serif" font-size="10.00">queue</text>
</a>
</g>
</g>
<!-- Node12&#45;&gt;Node14 -->
<g id="edge20_Node000012_Node000014" class="edge">
<title>Node12&#45;&gt;Node14</title>
<g id="a_edge20_Node000012_Node000014"><a xlink:title=" ">
<path fill="none" stroke="#63b8ff" d="M204.69,-220.59C214.62,-212.82 229.17,-201.42 241.01,-192.15"/>
<polygon fill="#63b8ff" stroke="#63b8ff" points="242.89,-195.13 248.6,-186.21 238.57,-189.62 242.89,-195.13"/>
</a>
</g>
</g>
<!-- Node15 -->
<g id="Node000015" class="node">
<title>Node15</title>
<g id="a_Node000015"><a xlink:href="_named_value_table_8h.html" target="_top" xlink:title=" ">
<polygon fill="white" stroke="#666666" points="145.66,-185 42.66,-185 42.66,-165.75 145.66,-165.75 145.66,-185"/>
<text xml:space="preserve" text-anchor="middle" x="94.16" y="-171.5" font-family="Helvetica,sans-Serif" font-size="10.00">NamedValueTable.h</text>
</a>
</g>
</g>
<!-- Node12&#45;&gt;Node15 -->
<g id="edge21_Node000012_Node000015" class="edge">
<title>Node12&#45;&gt;Node15</title>
<g id="a_edge21_Node000012_Node000015"><a xlink:title=" ">
<path fill="none" stroke="#63b8ff" d="M176.36,-220.59C161.14,-212.41 138.46,-200.21 120.78,-190.69"/>
<polygon fill="#63b8ff" stroke="#63b8ff" points="122.83,-187.82 112.37,-186.17 119.52,-193.99 122.83,-187.82"/>
</a>
</g>
</g>
<!-- Node17 -->
<g id="Node000017" class="node">
<title>Node17</title>
<g id="a_Node000017"><a xlink:href="_development_helper_8h.html" target="_top" xlink:title=" ">
<polygon fill="white" stroke="#666666" points="131.03,-129.75 21.28,-129.75 21.28,-110.5 131.03,-110.5 131.03,-129.75"/>
<text xml:space="preserve" text-anchor="middle" x="76.16" y="-116.25" font-family="Helvetica,sans-Serif" font-size="10.00">DevelopmentHelper.h</text>
</a>
</g>
</g>
<!-- Node12&#45;&gt;Node17 -->
<g id="edge26_Node000012_Node000017" class="edge">
<title>Node12&#45;&gt;Node17</title>
<g id="a_edge26_Node000012_Node000017"><a xlink:title=" ">
<path fill="none" stroke="#63b8ff" d="M151.56,-223.77C109.1,-216.85 47.46,-203.83 33.16,-185 21.2,-169.25 37.43,-150.37 53.25,-137.23"/>
<polygon fill="#63b8ff" stroke="#63b8ff" points="55.34,-140.05 61.11,-131.16 51.06,-134.51 55.34,-140.05"/>
</a>
</g>
</g>
<!-- Node15&#45;&gt;Node10 -->
<g id="edge22_Node000015_Node000010" class="edge">
<title>Node15&#45;&gt;Node10</title>
<g id="a_edge22_Node000015_Node000010"><a xlink:title=" ">
<path fill="none" stroke="#63b8ff" d="M144.02,-165.28C203.74,-154.39 302.08,-136.46 353.12,-127.15"/>
<polygon fill="#63b8ff" stroke="#63b8ff" points="353.74,-130.6 362.95,-125.36 352.48,-123.71 353.74,-130.6"/>
</a>
</g>
</g>
<!-- Node16 -->
<g id="Node000016" class="node">
<title>Node16</title>
<g id="a_Node000016"><a xlink:href="_l_s_c_utils_8h.html" target="_top" xlink:title=" ">
<polygon fill="white" stroke="#666666" points="247.16,-129.75 183.16,-129.75 183.16,-110.5 247.16,-110.5 247.16,-129.75"/>
<text xml:space="preserve" text-anchor="middle" x="215.16" y="-116.25" font-family="Helvetica,sans-Serif" font-size="10.00">LSCUtils.h</text>
</a>
</g>
</g>
<!-- Node15&#45;&gt;Node16 -->
<g id="edge23_Node000015_Node000016" class="edge">
<title>Node15&#45;&gt;Node16</title>
<g id="a_edge23_Node000015_Node000016"><a xlink:title=" ">
<path fill="none" stroke="#63b8ff" d="M114.68,-165.34C133.72,-156.97 162.31,-144.38 184.13,-134.78"/>
<polygon fill="#63b8ff" stroke="#63b8ff" points="185.4,-138.04 193.15,-130.81 182.58,-131.64 185.4,-138.04"/>
</a>
</g>
</g>
<!-- Node15&#45;&gt;Node17 -->
<g id="edge25_Node000015_Node000017" class="edge">
<title>Node15&#45;&gt;Node17</title>
<g id="a_edge25_Node000015_Node000017"><a xlink:title=" ">
<path fill="none" stroke="#63b8ff" d="M91.18,-165.58C88.91,-158.84 85.67,-149.27 82.79,-140.74"/>
<polygon fill="#63b8ff" stroke="#63b8ff" points="86.2,-139.9 79.68,-131.54 79.57,-142.14 86.2,-139.9"/>
</a>
</g>
</g>
<!-- Node16&#45;&gt;Node5 -->
<g id="edge24_Node000016_Node000005" class="edge">
<title>Node16&#45;&gt;Node5</title>
<g id="a_edge24_Node000016_Node000005"><a xlink:title=" ">
<path fill="none" stroke="#63b8ff" d="M231.27,-110.09C245.74,-101.98 267.24,-89.93 284.14,-80.46"/>
<polygon fill="#63b8ff" stroke="#63b8ff" points="285.63,-83.64 292.64,-75.69 282.21,-77.53 285.63,-83.64"/>
</a>
</g>
</g>
</g>
</svg>
