<?xml version="1.0" encoding="UTF-8" standalone="no"?>
<!DOCTYPE svg PUBLIC "-//W3C//DTD SVG 1.1//EN"
 "http://www.w3.org/Graphics/SVG/1.1/DTD/svg11.dtd">
<!-- Generated by graphviz version 15.1.0 (20260618.0150)
 -->
<!-- Title: src/CAccessToken.cpp Pages: 1 -->
<svg width="402pt" height="304pt"
 viewBox="0.00 0.00 402.00 304.00" xmlns="http://www.w3.org/2000/svg" xmlns:xlink="http://www.w3.org/1999/xlink">
<g id="graph0" class="graph" transform="scale(1 1) rotate(0) translate(4 299.5)">
<title>src/CAccessToken.cpp</title>
<!-- Node1 -->
<g id="Node000001" class="node">
<title>Node1</title>
<g id="a_Node000001"><a xlink:title=" ">
<polygon fill="#999999" stroke="#666666" points="268.75,-295.5 150.75,-295.5 150.75,-276.25 268.75,-276.25 268.75,-295.5"/>
<text xml:space="preserve" text-anchor="middle" x="209.75" y="-282" font-family="Helvetica,sans-Serif" font-size="10.00">src/CAccessToken.cpp</text>
</a>
</g>
</g>
<!-- Node2 -->
<g id="Node000002" class="node">
<title>Node2</title>
<g id="a_Node000002"><a xlink:href="_access_token_8h.html" target="_top" xlink:title=" ">
<polygon fill="white" stroke="#666666" points="83.5,-240.25 0,-240.25 0,-221 83.5,-221 83.5,-240.25"/>
<text xml:space="preserve" text-anchor="middle" x="41.75" y="-226.75" font-family="Helvetica,sans-Serif" font-size="10.00">AccessToken.h</text>
</a>
</g>
</g>
<!-- Node1&#45;&gt;Node2 -->
<g id="edge1_Node000001_Node000002" class="edge">
<title>Node1&#45;&gt;Node2</title>
<g id="a_edge1_Node000001_Node000002"><a xlink:title=" ">
<path fill="none" stroke="#63b8ff" d="M181.25,-275.84C153.74,-267.12 111.84,-253.84 81.14,-244.11"/>
<polygon fill="#63b8ff" stroke="#63b8ff" points="82.42,-240.84 71.83,-241.16 80.31,-247.52 82.42,-240.84"/>
</a>
</g>
</g>
<!-- Node10 -->
<g id="Node000010" class="node">
<title>Node10</title>
<g id="a_Node000010"><a xlink:href="_development_helper_8h.html" target="_top" xlink:title=" ">
<polygon fill="white" stroke="#666666" points="211.62,-240.25 101.88,-240.25 101.88,-221 211.62,-221 211.62,-240.25"/>
<text xml:space="preserve" text-anchor="middle" x="156.75" y="-226.75" font-family="Helvetica,sans-Serif" font-size="10.00">DevelopmentHelper.h</text>
</a>
</g>
</g>
<!-- Node1&#45;&gt;Node10 -->
<g id="edge9_Node000001_Node000010" class="edge">
<title>Node1&#45;&gt;Node10</title>
<g id="a_edge9_Node000001_Node000010"><a xlink:title=" ">
<path fill="none" stroke="#63b8ff" d="M201,-276.08C193.6,-268.65 182.79,-257.79 173.7,-248.66"/>
<polygon fill="#63b8ff" stroke="#63b8ff" points="176.29,-246.3 166.76,-241.68 171.33,-251.24 176.29,-246.3"/>
</a>
</g>
</g>
<!-- Node11 -->
<g id="Node000011" class="node">
<title>Node11</title>
<g id="a_Node000011"><a xlink:href="_json_node_8h.html" target="_top" xlink:title=" ">
<polygon fill="white" stroke="#666666" points="298,-240.25 229.5,-240.25 229.5,-221 298,-221 298,-240.25"/>
<text xml:space="preserve" text-anchor="middle" x="263.75" y="-226.75" font-family="Helvetica,sans-Serif" font-size="10.00">JsonNode.h</text>
</a>
</g>
</g>
<!-- Node1&#45;&gt;Node11 -->
<g id="edge10_Node000001_Node000011" class="edge">
<title>Node1&#45;&gt;Node11</title>
<g id="a_edge10_Node000001_Node000011"><a xlink:title=" ">
<path fill="none" stroke="#63b8ff" d="M218.67,-276.08C226.2,-268.65 237.22,-257.79 246.48,-248.66"/>
<polygon fill="#63b8ff" stroke="#63b8ff" points="248.9,-251.19 253.56,-241.67 243.98,-246.2 248.9,-251.19"/>
</a>
</g>
</g>
<!-- Node13 -->
<g id="Node000013" class="node">
<title>Node13</title>
<g id="a_Node000013"><a xlink:href="_base64_data_8h.html" target="_top" xlink:title=" ">
<polygon fill="white" stroke="#666666" points="393.88,-240.25 315.62,-240.25 315.62,-221 393.88,-221 393.88,-240.25"/>
<text xml:space="preserve" text-anchor="middle" x="354.75" y="-226.75" font-family="Helvetica,sans-Serif" font-size="10.00">Base64Data.h</text>
</a>
</g>
</g>
<!-- Node1&#45;&gt;Node13 -->
<g id="edge13_Node000001_Node000013" class="edge">
<title>Node1&#45;&gt;Node13</title>
<g id="a_edge13_Node000001_Node000013"><a xlink:title=" ">
<path fill="none" stroke="#63b8ff" d="M234.35,-275.84C257.68,-267.27 292.99,-254.31 319.35,-244.63"/>
<polygon fill="#63b8ff" stroke="#63b8ff" points="320.43,-247.96 328.61,-241.22 318.02,-241.39 320.43,-247.96"/>
</a>
</g>
</g>
<!-- Node3 -->
<g id="Node000003" class="node">
<title>Node3</title>
<g id="a_Node000003"><a xlink:href="_a_e_s_cryptor_8h.html" target="_top" xlink:title=" ">
<polygon fill="white" stroke="#666666" points="98.75,-185 22.75,-185 22.75,-165.75 98.75,-165.75 98.75,-185"/>
<text xml:space="preserve" text-anchor="middle" x="60.75" y="-171.5" font-family="Helvetica,sans-Serif" font-size="10.00">AESCryptor.h</text>
</a>
</g>
</g>
<!-- Node2&#45;&gt;Node3 -->
<g id="edge2_Node000002_Node000003" class="edge">
<title>Node2&#45;&gt;Node3</title>
<g id="a_edge2_Node000002_Node000003"><a xlink:title=" ">
<path fill="none" stroke="#63b8ff" d="M44.89,-220.83C47.29,-214.09 50.71,-204.52 53.75,-195.99"/>
<polygon fill="#63b8ff" stroke="#63b8ff" points="56.97,-197.38 57.04,-186.78 50.38,-195.03 56.97,-197.38"/>
</a>
</g>
</g>
<!-- Node4 -->
<g id="Node000004" class="node">
<title>Node4</title>
<g id="a_Node000004"><a xlink:title=" ">
<polygon fill="#e0e0e0" stroke="#999999" points="89.38,-129.75 32.12,-129.75 32.12,-110.5 89.38,-110.5 89.38,-129.75"/>
<text xml:space="preserve" text-anchor="middle" x="60.75" y="-116.25" font-family="Helvetica,sans-Serif" font-size="10.00">Arduino.h</text>
</a>
</g>
</g>
<!-- Node3&#45;&gt;Node4 -->
<g id="edge3_Node000003_Node000004" class="edge">
<title>Node3&#45;&gt;Node4</title>
<g id="a_edge3_Node000003_Node000004"><a xlink:title=" ">
<path fill="none" stroke="#63b8ff" d="M60.75,-165.58C60.75,-159.07 60.75,-149.92 60.75,-141.62"/>
<polygon fill="#63b8ff" stroke="#63b8ff" points="64.25,-141.62 60.75,-131.62 57.25,-141.62 64.25,-141.62"/>
</a>
</g>
</g>
<!-- Node5 -->
<g id="Node000005" class="node">
<title>Node5</title>
<g id="a_Node000005"><a xlink:href="_network_8h.html" target="_top" xlink:title=" ">
<polygon fill="white" stroke="#666666" points="186.25,-129.75 125.25,-129.75 125.25,-110.5 186.25,-110.5 186.25,-129.75"/>
<text xml:space="preserve" text-anchor="middle" x="155.75" y="-116.25" font-family="Helvetica,sans-Serif" font-size="10.00">Network.h</text>
</a>
</g>
</g>
<!-- Node3&#45;&gt;Node5 -->
<g id="edge4_Node000003_Node000005" class="edge">
<title>Node3&#45;&gt;Node5</title>
<g id="a_edge4_Node000003_Node000005"><a xlink:title=" ">
<path fill="none" stroke="#63b8ff" d="M76.87,-165.34C91.33,-157.23 112.83,-145.18 129.73,-135.71"/>
<polygon fill="#63b8ff" stroke="#63b8ff" points="131.22,-138.89 138.24,-130.94 127.8,-132.78 131.22,-138.89"/>
</a>
</g>
</g>
<!-- Node6 -->
<g id="Node000006" class="node">
<title>Node6</title>
<g id="a_Node000006"><a xlink:href="_runtime_8h.html" target="_top" xlink:title=" ">
<polygon fill="white" stroke="#666666" points="254.25,-74.5 193.25,-74.5 193.25,-55.25 254.25,-55.25 254.25,-74.5"/>
<text xml:space="preserve" text-anchor="middle" x="223.75" y="-61" font-family="Helvetica,sans-Serif" font-size="10.00">Runtime.h</text>
</a>
</g>
</g>
<!-- Node5&#45;&gt;Node6 -->
<g id="edge5_Node000005_Node000006" class="edge">
<title>Node5&#45;&gt;Node6</title>
<g id="a_edge5_Node000005_Node000006"><a xlink:title=" ">
<path fill="none" stroke="#63b8ff" d="M167.29,-110.09C177.21,-102.32 191.76,-90.92 203.61,-81.65"/>
<polygon fill="#63b8ff" stroke="#63b8ff" points="205.48,-84.63 211.19,-75.71 201.16,-79.12 205.48,-84.63"/>
</a>
</g>
</g>
<!-- Node7 -->
<g id="Node000007" class="node">
<title>Node7</title>
<g id="a_Node000007"><a xlink:title=" ">
<polygon fill="#e0e0e0" stroke="#999999" points="182.88,-19.25 134.62,-19.25 134.62,0 182.88,0 182.88,-19.25"/>
<text xml:space="preserve" text-anchor="middle" x="158.75" y="-5.75" font-family="Helvetica,sans-Serif" font-size="10.00">string.h</text>
</a>
</g>
</g>
<!-- Node6&#45;&gt;Node7 -->
<g id="edge6_Node000006_Node000007" class="edge">
<title>Node6&#45;&gt;Node7</title>
<g id="a_edge6_Node000006_Node000007"><a xlink:title=" ">
<path fill="none" stroke="#63b8ff" d="M212.72,-54.84C203.33,-47.15 189.6,-35.9 178.34,-26.68"/>
<polygon fill="#63b8ff" stroke="#63b8ff" points="180.74,-24.11 170.78,-20.48 176.3,-29.53 180.74,-24.11"/>
</a>
</g>
</g>
<!-- Node8 -->
<g id="Node000008" class="node">
<title>Node8</title>
<g id="a_Node000008"><a xlink:title=" ">
<polygon fill="#e0e0e0" stroke="#999999" points="246.38,-19.25 201.12,-19.25 201.12,0 246.38,0 246.38,-19.25"/>
<text xml:space="preserve" text-anchor="middle" x="223.75" y="-5.75" font-family="Helvetica,sans-Serif" font-size="10.00">chrono</text>
</a>
</g>
</g>
<!-- Node6&#45;&gt;Node8 -->
<g id="edge7_Node000006_Node000008" class="edge">
<title>Node6&#45;&gt;Node8</title>
<g id="a_edge7_Node000006_Node000008"><a xlink:title=" ">
<path fill="none" stroke="#63b8ff" d="M223.75,-55.08C223.75,-48.57 223.75,-39.42 223.75,-31.12"/>
<polygon fill="#63b8ff" stroke="#63b8ff" points="227.25,-31.12 223.75,-21.12 220.25,-31.12 227.25,-31.12"/>
</a>
</g>
</g>
<!-- Node9 -->
<g id="Node000009" class="node">
<title>Node9</title>
<g id="a_Node000009"><a xlink:title=" ">
<polygon fill="#e0e0e0" stroke="#999999" points="317.5,-19.25 264,-19.25 264,0 317.5,0 317.5,-19.25"/>
<text xml:space="preserve" text-anchor="middle" x="290.75" y="-5.75" font-family="Helvetica,sans-Serif" font-size="10.00">iostream</text>
</a>
</g>
</g>
<!-- Node6&#45;&gt;Node9 -->
<g id="edge8_Node000006_Node000009" class="edge">
<title>Node6&#45;&gt;Node9</title>
<g id="a_edge8_Node000006_Node000009"><a xlink:title=" ">
<path fill="none" stroke="#63b8ff" d="M235.12,-54.84C244.8,-47.15 258.95,-35.9 270.56,-26.68"/>
<polygon fill="#63b8ff" stroke="#63b8ff" points="272.72,-29.43 278.37,-20.47 268.36,-23.95 272.72,-29.43"/>
</a>
</g>
</g>
<!-- Node11&#45;&gt;Node6 -->
<g id="edge11_Node000011_Node000006" class="edge">
<title>Node11&#45;&gt;Node6</title>
<g id="a_edge11_Node000011_Node000006"><a xlink:title=" ">
<path fill="none" stroke="#63b8ff" d="M258.91,-220.66C254.34,-211.83 247.64,-197.84 243.75,-185 233.5,-151.13 228.07,-110.15 225.56,-86.15"/>
<polygon fill="#63b8ff" stroke="#63b8ff" points="229.05,-85.84 224.6,-76.23 222.08,-86.52 229.05,-85.84"/>
</a>
</g>
</g>
<!-- Node12 -->
<g id="Node000012" class="node">
<title>Node12</title>
<g id="a_Node000012"><a xlink:title=" ">
<polygon fill="#e0e0e0" stroke="#999999" points="295.25,-185 252.25,-185 252.25,-165.75 295.25,-165.75 295.25,-185"/>
<text xml:space="preserve" text-anchor="middle" x="273.75" y="-171.5" font-family="Helvetica,sans-Serif" font-size="10.00">vector</text>
</a>
</g>
</g>
<!-- Node11&#45;&gt;Node12 -->
<g id="edge12_Node000011_Node000012" class="edge">
<title>Node11&#45;&gt;Node12</title>
<g id="a_edge12_Node000011_Node000012"><a xlink:title=" ">
<path fill="none" stroke="#63b8ff" d="M265.4,-220.83C266.64,-214.24 268.38,-204.96 269.96,-196.57"/>
<polygon fill="#63b8ff" stroke="#63b8ff" points="273.38,-197.32 271.78,-186.85 266.5,-196.03 273.38,-197.32"/>
</a>
</g>
</g>
<!-- Node14 -->
<g id="Node000014" class="node">
<title>Node14</title>
<g id="a_Node000014"><a xlink:href="base64_8h.html" target="_top" xlink:title=" ">
<polygon fill="white" stroke="#666666" points="351.88,-129.75 279.62,-129.75 279.62,-110.5 351.88,-110.5 351.88,-129.75"/>
<text xml:space="preserve" text-anchor="middle" x="315.75" y="-116.25" font-family="Helvetica,sans-Serif" font-size="10.00">ext/base64.h</text>
</a>
</g>
</g>
<!-- Node13&#45;&gt;Node14 -->
<g id="edge14_Node000013_Node000014" class="edge">
<title>Node13&#45;&gt;Node14</title>
<g id="a_edge14_Node000013_Node000014"><a xlink:title=" ">
<path fill="none" stroke="#63b8ff" d="M351.56,-220.75C345.3,-203.34 331.3,-164.37 322.77,-140.66"/>
<polygon fill="#63b8ff" stroke="#63b8ff" points="326.17,-139.78 319.5,-131.55 319.59,-142.15 326.17,-139.78"/>
</a>
</g>
</g>
<!-- Node14&#45;&gt;Node6 -->
<g id="edge15_Node000014_Node000006" class="edge">
<title>Node14&#45;&gt;Node6</title>
<g id="a_edge15_Node000014_Node000006"><a xlink:title=" ">
<path fill="none" stroke="#63b8ff" d="M300.14,-110.09C286.13,-101.98 265.32,-89.93 248.95,-80.46"/>
<polygon fill="#63b8ff" stroke="#63b8ff" points="251.15,-77.69 240.74,-75.71 247.64,-83.75 251.15,-77.69"/>
</a>
</g>
</g>
</g>
</svg>
