<?xml version="1.0" encoding="UTF-8" standalone="no"?>
<!DOCTYPE svg PUBLIC "-//W3C//DTD SVG 1.1//EN"
 "http://www.w3.org/Graphics/SVG/1.1/DTD/svg11.dtd">
<!-- Generated by graphviz version 15.1.0 (20260618.0150)
 -->
<!-- Title: src/CAESCryptor.cpp Pages: 1 -->
<svg width="308pt" height="248pt"
 viewBox="0.00 0.00 308.00 248.00" xmlns="http://www.w3.org/2000/svg" xmlns:xlink="http://www.w3.org/1999/xlink">
<g id="graph0" class="graph" transform="scale(1 1) rotate(0) translate(4 244.25)">
<title>src/CAESCryptor.cpp</title>
<!-- Node1 -->
<g id="Node000001" class="node">
<title>Node1</title>
<g id="a_Node000001"><a xlink:title=" ">
<polygon fill="#999999" stroke="#666666" points="204.25,-240.25 93.75,-240.25 93.75,-221 204.25,-221 204.25,-240.25"/>
<text xml:space="preserve" text-anchor="middle" x="149" y="-226.75" font-family="Helvetica,sans-Serif" font-size="10.00">src/CAESCryptor.cpp</text>
</a>
</g>
</g>
<!-- Node2 -->
<g id="Node000002" class="node">
<title>Node2</title>
<g id="a_Node000002"><a xlink:href="_a_e_s_cryptor_8h.html" target="_top" xlink:title=" ">
<polygon fill="white" stroke="#666666" points="76,-185 0,-185 0,-165.75 76,-165.75 76,-185"/>
<text xml:space="preserve" text-anchor="middle" x="38" y="-171.5" font-family="Helvetica,sans-Serif" font-size="10.00">AESCryptor.h</text>
</a>
</g>
</g>
<!-- Node1&#45;&gt;Node2 -->
<g id="edge1_Node000001_Node000002" class="edge">
<title>Node1&#45;&gt;Node2</title>
<g id="a_edge1_Node000001_Node000002"><a xlink:title=" ">
<path fill="none" stroke="#63b8ff" d="M130.17,-220.59C112.95,-212.33 87.2,-199.98 67.29,-190.43"/>
<polygon fill="#63b8ff" stroke="#63b8ff" points="68.82,-187.28 58.29,-186.11 65.79,-193.59 68.82,-187.28"/>
</a>
</g>
</g>
<!-- Node9 -->
<g id="Node000009" class="node">
<title>Node9</title>
<g id="a_Node000009"><a xlink:href="_development_helper_8h.html" target="_top" xlink:title=" ">
<polygon fill="white" stroke="#666666" points="203.88,-185 94.12,-185 94.12,-165.75 203.88,-165.75 203.88,-185"/>
<text xml:space="preserve" text-anchor="middle" x="149" y="-171.5" font-family="Helvetica,sans-Serif" font-size="10.00">DevelopmentHelper.h</text>
</a>
</g>
</g>
<!-- Node1&#45;&gt;Node9 -->
<g id="edge8_Node000001_Node000009" class="edge">
<title>Node1&#45;&gt;Node9</title>
<g id="a_edge8_Node000001_Node000009"><a xlink:title=" ">
<path fill="none" stroke="#63b8ff" d="M149,-220.83C149,-214.32 149,-205.17 149,-196.87"/>
<polygon fill="#63b8ff" stroke="#63b8ff" points="152.5,-196.87 149,-186.87 145.5,-196.87 152.5,-196.87"/>
</a>
</g>
</g>
<!-- Node10 -->
<g id="Node000010" class="node">
<title>Node10</title>
<g id="a_Node000010"><a xlink:href="_base64_data_8h.html" target="_top" xlink:title=" ">
<polygon fill="white" stroke="#666666" points="300.12,-185 221.88,-185 221.88,-165.75 300.12,-165.75 300.12,-185"/>
<text xml:space="preserve" text-anchor="middle" x="261" y="-171.5" font-family="Helvetica,sans-Serif" font-size="10.00">Base64Data.h</text>
</a>
</g>
</g>
<!-- Node1&#45;&gt;Node10 -->
<g id="edge9_Node000001_Node000010" class="edge">
<title>Node1&#45;&gt;Node10</title>
<g id="a_edge9_Node000001_Node000010"><a xlink:title=" ">
<path fill="none" stroke="#63b8ff" d="M168,-220.59C185.46,-212.29 211.6,-199.86 231.72,-190.29"/>
<polygon fill="#63b8ff" stroke="#63b8ff" points="233.01,-193.56 240.54,-186.1 230.01,-187.24 233.01,-193.56"/>
</a>
</g>
</g>
<!-- Node3 -->
<g id="Node000003" class="node">
<title>Node3</title>
<g id="a_Node000003"><a xlink:title=" ">
<polygon fill="#e0e0e0" stroke="#999999" points="66.62,-129.75 9.38,-129.75 9.38,-110.5 66.62,-110.5 66.62,-129.75"/>
<text xml:space="preserve" text-anchor="middle" x="38" y="-116.25" font-family="Helvetica,sans-Serif" font-size="10.00">Arduino.h</text>
</a>
</g>
</g>
<!-- Node2&#45;&gt;Node3 -->
<g id="edge2_Node000002_Node000003" class="edge">
<title>Node2&#45;&gt;Node3</title>
<g id="a_edge2_Node000002_Node000003"><a xlink:title=" ">
<path fill="none" stroke="#63b8ff" d="M38,-165.58C38,-159.07 38,-149.92 38,-141.62"/>
<polygon fill="#63b8ff" stroke="#63b8ff" points="41.5,-141.62 38,-131.62 34.5,-141.62 41.5,-141.62"/>
</a>
</g>
</g>
<!-- Node4 -->
<g id="Node000004" class="node">
<title>Node4</title>
<g id="a_Node000004"><a xlink:href="_network_8h.html" target="_top" xlink:title=" ">
<polygon fill="white" stroke="#666666" points="175.5,-129.75 114.5,-129.75 114.5,-110.5 175.5,-110.5 175.5,-129.75"/>
<text xml:space="preserve" text-anchor="middle" x="145" y="-116.25" font-family="Helvetica,sans-Serif" font-size="10.00">Network.h</text>
</a>
</g>
</g>
<!-- Node2&#45;&gt;Node4 -->
<g id="edge3_Node000002_Node000004" class="edge">
<title>Node2&#45;&gt;Node4</title>
<g id="a_edge3_Node000002_Node000004"><a xlink:title=" ">
<path fill="none" stroke="#63b8ff" d="M56.15,-165.34C72.68,-157.12 97.34,-144.84 116.5,-135.31"/>
<polygon fill="#63b8ff" stroke="#63b8ff" points="118.01,-138.47 125.4,-130.88 114.89,-132.2 118.01,-138.47"/>
</a>
</g>
</g>
<!-- Node5 -->
<g id="Node000005" class="node">
<title>Node5</title>
<g id="a_Node000005"><a xlink:href="_runtime_8h.html" target="_top" xlink:title=" ">
<polygon fill="white" stroke="#666666" points="217.5,-74.5 156.5,-74.5 156.5,-55.25 217.5,-55.25 217.5,-74.5"/>
<text xml:space="preserve" text-anchor="middle" x="187" y="-61" font-family="Helvetica,sans-Serif" font-size="10.00">Runtime.h</text>
</a>
</g>
</g>
<!-- Node4&#45;&gt;Node5 -->
<g id="edge4_Node000004_Node000005" class="edge">
<title>Node4&#45;&gt;Node5</title>
<g id="a_edge4_Node000004_Node000005"><a xlink:title=" ">
<path fill="none" stroke="#63b8ff" d="M151.94,-110.33C157.62,-103.13 165.84,-92.71 172.89,-83.76"/>
<polygon fill="#63b8ff" stroke="#63b8ff" points="175.53,-86.07 178.98,-76.05 170.04,-81.73 175.53,-86.07"/>
</a>
</g>
</g>
<!-- Node6 -->
<g id="Node000006" class="node">
<title>Node6</title>
<g id="a_Node000006"><a xlink:title=" ">
<polygon fill="#e0e0e0" stroke="#999999" points="146.12,-19.25 97.88,-19.25 97.88,0 146.12,0 146.12,-19.25"/>
<text xml:space="preserve" text-anchor="middle" x="122" y="-5.75" font-family="Helvetica,sans-Serif" font-size="10.00">string.h</text>
</a>
</g>
</g>
<!-- Node5&#45;&gt;Node6 -->
<g id="edge5_Node000005_Node000006" class="edge">
<title>Node5&#45;&gt;Node6</title>
<g id="a_edge5_Node000005_Node000006"><a xlink:title=" ">
<path fill="none" stroke="#63b8ff" d="M175.97,-54.84C166.58,-47.15 152.85,-35.9 141.59,-26.68"/>
<polygon fill="#63b8ff" stroke="#63b8ff" points="143.99,-24.11 134.03,-20.48 139.55,-29.53 143.99,-24.11"/>
</a>
</g>
</g>
<!-- Node7 -->
<g id="Node000007" class="node">
<title>Node7</title>
<g id="a_Node000007"><a xlink:title=" ">
<polygon fill="#e0e0e0" stroke="#999999" points="209.62,-19.25 164.38,-19.25 164.38,0 209.62,0 209.62,-19.25"/>
<text xml:space="preserve" text-anchor="middle" x="187" y="-5.75" font-family="Helvetica,sans-Serif" font-size="10.00">chrono</text>
</a>
</g>
</g>
<!-- Node5&#45;&gt;Node7 -->
<g id="edge6_Node000005_Node000007" class="edge">
<title>Node5&#45;&gt;Node7</title>
<g id="a_edge6_Node000005_Node000007"><a xlink:title=" ">
<path fill="none" stroke="#63b8ff" d="M187,-55.08C187,-48.57 187,-39.42 187,-31.12"/>
<polygon fill="#63b8ff" stroke="#63b8ff" points="190.5,-31.12 187,-21.12 183.5,-31.12 190.5,-31.12"/>
</a>
</g>
</g>
<!-- Node8 -->
<g id="Node000008" class="node">
<title>Node8</title>
<g id="a_Node000008"><a xlink:title=" ">
<polygon fill="#e0e0e0" stroke="#999999" points="280.75,-19.25 227.25,-19.25 227.25,0 280.75,0 280.75,-19.25"/>
<text xml:space="preserve" text-anchor="middle" x="254" y="-5.75" font-family="Helvetica,sans-Serif" font-size="10.00">iostream</text>
</a>
</g>
</g>
<!-- Node5&#45;&gt;Node8 -->
<g id="edge7_Node000005_Node000008" class="edge">
<title>Node5&#45;&gt;Node8</title>
<g id="a_edge7_Node000005_Node000008"><a xlink:title=" ">
<path fill="none" stroke="#63b8ff" d="M198.37,-54.84C208.05,-47.15 222.2,-35.9 233.81,-26.68"/>
<polygon fill="#63b8ff" stroke="#63b8ff" points="235.97,-29.43 241.62,-20.47 231.61,-23.95 235.97,-29.43"/>
</a>
</g>
</g>
<!-- Node11 -->
<g id="Node000011" class="node">
<title>Node11</title>
<g id="a_Node000011"><a xlink:href="base64_8h.html" target="_top" xlink:title=" ">
<polygon fill="white" stroke="#666666" points="281.12,-129.75 208.88,-129.75 208.88,-110.5 281.12,-110.5 281.12,-129.75"/>
<text xml:space="preserve" text-anchor="middle" x="245" y="-116.25" font-family="Helvetica,sans-Serif" font-size="10.00">ext/base64.h</text>
</a>
</g>
</g>
<!-- Node10&#45;&gt;Node11 -->
<g id="edge10_Node000010_Node000011" class="edge">
<title>Node10&#45;&gt;Node11</title>
<g id="a_edge10_Node000010_Node000011"><a xlink:title=" ">
<path fill="none" stroke="#63b8ff" d="M258.36,-165.58C256.36,-158.92 253.52,-149.49 250.98,-141.03"/>
<polygon fill="#63b8ff" stroke="#63b8ff" points="254.36,-140.13 248.14,-131.56 247.66,-142.14 254.36,-140.13"/>
</a>
</g>
</g>
<!-- Node11&#45;&gt;Node5 -->
<g id="edge11_Node000011_Node000005" class="edge">
<title>Node11&#45;&gt;Node5</title>
<g id="a_edge11_Node000011_Node000005"><a xlink:title=" ">
<path fill="none" stroke="#63b8ff" d="M235.16,-110.09C226.95,-102.55 215.02,-91.6 205.09,-82.48"/>
<polygon fill="#63b8ff" stroke="#63b8ff" points="207.54,-79.98 197.81,-75.8 202.81,-85.14 207.54,-79.98"/>
</a>
</g>
</g>
</g>
</svg>
