<?xml version="1.0" encoding="UTF-8" standalone="no"?>
<!DOCTYPE svg PUBLIC "-//W3C//DTD SVG 1.1//EN"
 "http://www.w3.org/Graphics/SVG/1.1/DTD/svg11.dtd">
<!-- Generated by graphviz version 15.1.0 (20260618.0150)
 -->
<!-- Title: src/CAppl.cpp Pages: 1 -->
<svg width="951pt" height="414pt"
 viewBox="0.00 0.00 951.00 414.00" xmlns="http://www.w3.org/2000/svg" xmlns:xlink="http://www.w3.org/1999/xlink">
<g id="graph0" class="graph" transform="scale(1 1) rotate(0) translate(4 410)">
<title>src/CAppl.cpp</title>
<!-- Node1 -->
<g id="Node000001" class="node">
<title>Node1</title>
<g id="a_Node000001"><a xlink:title="Application Framework Implementation.">
<polygon fill="#999999" stroke="#666666" points="629.13,-406 550.88,-406 550.88,-386.75 629.13,-386.75 629.13,-406"/>
<text xml:space="preserve" text-anchor="middle" x="590" y="-392.5" font-family="Helvetica,sans-Serif" font-size="10.00">src/CAppl.cpp</text>
</a>
</g>
</g>
<!-- Node2 -->
<g id="Node000002" class="node">
<title>Node2</title>
<g id="a_Node000002"><a xlink:href="_appl_8h.html" target="_top" xlink:title="Application Main Class.">
<polygon fill="white" stroke="#666666" points="410.88,-350.75 367.13,-350.75 367.13,-331.5 410.88,-331.5 410.88,-350.75"/>
<text xml:space="preserve" text-anchor="middle" x="389" y="-337.25" font-family="Helvetica,sans-Serif" font-size="10.00">Appl.h</text>
</a>
</g>
</g>
<!-- Node1&#45;&gt;Node2 -->
<g id="edge1_Node000001_Node000002" class="edge">
<title>Node1&#45;&gt;Node2</title>
<g id="a_edge1_Node000001_Node000002"><a xlink:title=" ">
<path fill="none" stroke="#63b8ff" d="M555.91,-386.34C518.45,-376.42 458.72,-360.6 421.8,-350.81"/>
<polygon fill="#63b8ff" stroke="#63b8ff" points="423.14,-347.55 412.58,-348.37 421.35,-354.32 423.14,-347.55"/>
</a>
</g>
</g>
<!-- Node7 -->
<g id="Node000007" class="node">
<title>Node7</title>
<g id="a_Node000007"><a xlink:href="_sys_status_8h.html" target="_top" xlink:title=" ">
<polygon fill="white" stroke="#666666" points="143,-295.5 73,-295.5 73,-276.25 143,-276.25 143,-295.5"/>
<text xml:space="preserve" text-anchor="middle" x="108" y="-282" font-family="Helvetica,sans-Serif" font-size="10.00">SysStatus.h</text>
</a>
</g>
</g>
<!-- Node1&#45;&gt;Node7 -->
<g id="edge47_Node000001_Node000007" class="edge">
<title>Node1&#45;&gt;Node7</title>
<g id="a_edge47_Node000001_Node000007"><a xlink:title=" ">
<path fill="none" stroke="#63b8ff" d="M550.45,-388.51C504.15,-380.31 425.25,-365.79 358,-350.75 285.41,-334.51 201.8,-312.46 152.01,-298.97"/>
<polygon fill="#63b8ff" stroke="#63b8ff" points="153.04,-295.63 142.47,-296.38 151.2,-302.38 153.04,-295.63"/>
</a>
</g>
</g>
<!-- Node19 -->
<g id="Node000019" class="node">
<title>Node19</title>
<g id="a_Node000019"><a xlink:href="_l_s_c_utils_8h.html" target="_top" xlink:title=" ">
<polygon fill="white" stroke="#666666" points="943,-129.75 879,-129.75 879,-110.5 943,-110.5 943,-129.75"/>
<text xml:space="preserve" text-anchor="middle" x="911" y="-116.25" font-family="Helvetica,sans-Serif" font-size="10.00">LSCUtils.h</text>
</a>
</g>
</g>
<!-- Node1&#45;&gt;Node19 -->
<g id="edge48_Node000001_Node000019" class="edge">
<title>Node1&#45;&gt;Node19</title>
<g id="a_edge48_Node000001_Node000019"><a xlink:title=" ">
<path fill="none" stroke="#63b8ff" d="M629.39,-390.31C714.1,-378.31 906,-344.73 906,-286.88 906,-286.88 906,-286.88 906,-229.62 906,-198.87 908.03,-163.27 909.51,-141.48"/>
<polygon fill="#63b8ff" stroke="#63b8ff" points="912.99,-141.85 910.2,-131.63 906,-141.36 912.99,-141.85"/>
</a>
</g>
</g>
<!-- Node25 -->
<g id="Node000025" class="node">
<title>Node25</title>
<g id="a_Node000025"><a xlink:href="_file_system_8h.html" target="_top" xlink:title=" ">
<polygon fill="white" stroke="#666666" points="864.88,-295.5 791.13,-295.5 791.13,-276.25 864.88,-276.25 864.88,-295.5"/>
<text xml:space="preserve" text-anchor="middle" x="828" y="-282" font-family="Helvetica,sans-Serif" font-size="10.00">FileSystem.h</text>
</a>
</g>
</g>
<!-- Node1&#45;&gt;Node25 -->
<g id="edge43_Node000001_Node000025" class="edge">
<title>Node1&#45;&gt;Node25</title>
<g id="a_edge43_Node000001_Node000025"><a xlink:title=" ">
<path fill="none" stroke="#63b8ff" d="M609.89,-386.31C651.54,-367.32 748.17,-323.27 797.64,-300.72"/>
<polygon fill="#63b8ff" stroke="#63b8ff" points="798.99,-303.95 806.63,-296.62 796.08,-297.58 798.99,-303.95"/>
</a>
</g>
</g>
<!-- Node3 -->
<g id="Node000003" class="node">
<title>Node3</title>
<g id="a_Node000003"><a xlink:href="_runtime_8h.html" target="_top" xlink:title=" ">
<polygon fill="white" stroke="#666666" points="389.5,-74.5 328.5,-74.5 328.5,-55.25 389.5,-55.25 389.5,-74.5"/>
<text xml:space="preserve" text-anchor="middle" x="359" y="-61" font-family="Helvetica,sans-Serif" font-size="10.00">Runtime.h</text>
</a>
</g>
</g>
<!-- Node2&#45;&gt;Node3 -->
<g id="edge2_Node000002_Node000003" class="edge">
<title>Node2&#45;&gt;Node3</title>
<g id="a_edge2_Node000002_Node000003"><a xlink:title=" ">
<path fill="none" stroke="#63b8ff" d="M366.79,-335.29C332.02,-327.36 266.86,-310.92 249,-295.5 228.32,-277.64 228.16,-266.88 222,-240.25 209.16,-184.74 271.82,-115.87 277,-110.5 289.8,-97.23 307.41,-86.94 323.04,-79.6"/>
<polygon fill="#63b8ff" stroke="#63b8ff" points="324.34,-82.86 332.07,-75.61 321.51,-76.45 324.34,-82.86"/>
</a>
</g>
</g>
<!-- Node2&#45;&gt;Node7 -->
<g id="edge6_Node000002_Node000007" class="edge">
<title>Node2&#45;&gt;Node7</title>
<g id="a_edge6_Node000002_Node000007"><a xlink:title=" ">
<path fill="none" stroke="#63b8ff" d="M366.95,-335.95C321.37,-327.31 215.92,-307.33 154.57,-295.7"/>
<polygon fill="#63b8ff" stroke="#63b8ff" points="155.24,-292.27 144.77,-293.84 153.94,-299.14 155.24,-292.27"/>
</a>
</g>
</g>
<!-- Node9 -->
<g id="Node000009" class="node">
<title>Node9</title>
<g id="a_Node000009"><a xlink:href="_json_node_8h.html" target="_top" xlink:title=" ">
<polygon fill="white" stroke="#666666" points="343.25,-185 274.75,-185 274.75,-165.75 343.25,-165.75 343.25,-185"/>
<text xml:space="preserve" text-anchor="middle" x="309" y="-171.5" font-family="Helvetica,sans-Serif" font-size="10.00">JsonNode.h</text>
</a>
</g>
</g>
<!-- Node2&#45;&gt;Node9 -->
<g id="edge16_Node000002_Node000009" class="edge">
<title>Node2&#45;&gt;Node9</title>
<g id="a_edge16_Node000002_Node000009"><a xlink:title=" ">
<path fill="none" stroke="#63b8ff" d="M384.8,-331.11C375.49,-311.18 352.3,-261.86 332,-221 327.79,-212.51 323,-203.18 318.89,-195.26"/>
<polygon fill="#63b8ff" stroke="#63b8ff" points="322.09,-193.82 314.36,-186.57 315.88,-197.05 322.09,-193.82"/>
</a>
</g>
</g>
<!-- Node13 -->
<g id="Node000013" class="node">
<title>Node13</title>
<g id="a_Node000013"><a xlink:href="_module_interface_8h.html" target="_top" xlink:title="Full Interface for a module and an abstract basic module implementation.">
<polygon fill="white" stroke="#666666" points="473,-295.5 379,-295.5 379,-276.25 473,-276.25 473,-295.5"/>
<text xml:space="preserve" text-anchor="middle" x="426" y="-282" font-family="Helvetica,sans-Serif" font-size="10.00">ModuleInterface.h</text>
</a>
</g>
</g>
<!-- Node2&#45;&gt;Node13 -->
<g id="edge17_Node000002_Node000013" class="edge">
<title>Node2&#45;&gt;Node13</title>
<g id="a_edge17_Node000002_Node000013"><a xlink:title=" ">
<path fill="none" stroke="#63b8ff" d="M395.11,-331.33C400.06,-324.21 407.21,-313.93 413.38,-305.05"/>
<polygon fill="#63b8ff" stroke="#63b8ff" points="416.07,-307.31 418.9,-297.1 410.32,-303.32 416.07,-307.31"/>
</a>
</g>
</g>
<!-- Node20 -->
<g id="Node000020" class="node">
<title>Node20</title>
<g id="a_Node000020"><a xlink:href="_development_helper_8h.html" target="_top" xlink:title=" ">
<polygon fill="white" stroke="#666666" points="717.88,-129.75 608.13,-129.75 608.13,-110.5 717.88,-110.5 717.88,-129.75"/>
<text xml:space="preserve" text-anchor="middle" x="663" y="-116.25" font-family="Helvetica,sans-Serif" font-size="10.00">DevelopmentHelper.h</text>
</a>
</g>
</g>
<!-- Node2&#45;&gt;Node20 -->
<g id="edge42_Node000002_Node000020" class="edge">
<title>Node2&#45;&gt;Node20</title>
<g id="a_edge42_Node000002_Node000020"><a xlink:title=" ">
<path fill="none" stroke="#63b8ff" d="M411.38,-340.49C485.13,-340.29 720.39,-328.13 800,-185 818.37,-151.98 772.75,-135.9 729.3,-128.15"/>
<polygon fill="#63b8ff" stroke="#63b8ff" points="729.98,-124.71 719.54,-126.55 728.85,-131.62 729.98,-124.71"/>
</a>
</g>
</g>
<!-- Node22 -->
<g id="Node000022" class="node">
<title>Node22</title>
<g id="a_Node000022"><a xlink:href="_logging_8h.html" target="_top" xlink:title=" ">
<polygon fill="white" stroke="#666666" points="595,-295.5 537,-295.5 537,-276.25 595,-276.25 595,-295.5"/>
<text xml:space="preserve" text-anchor="middle" x="566" y="-282" font-family="Helvetica,sans-Serif" font-size="10.00">Logging.h</text>
</a>
</g>
</g>
<!-- Node2&#45;&gt;Node22 -->
<g id="edge35_Node000002_Node000022" class="edge">
<title>Node2&#45;&gt;Node22</title>
<g id="a_edge35_Node000002_Node000022"><a xlink:title=" ">
<path fill="none" stroke="#63b8ff" d="M411.06,-333.49C439.66,-324.88 490.07,-309.72 525.61,-299.03"/>
<polygon fill="#63b8ff" stroke="#63b8ff" points="526.57,-302.39 535.13,-296.16 524.55,-295.69 526.57,-302.39"/>
</a>
</g>
</g>
<!-- Node24 -->
<g id="Node000024" class="node">
<title>Node24</title>
<g id="a_Node000024"><a xlink:href="_vars_8h.html" target="_top" xlink:title=" ">
<polygon fill="white" stroke="#666666" points="301.88,-295.5 258.13,-295.5 258.13,-276.25 301.88,-276.25 301.88,-295.5"/>
<text xml:space="preserve" text-anchor="middle" x="280" y="-282" font-family="Helvetica,sans-Serif" font-size="10.00">Vars.h</text>
</a>
</g>
</g>
<!-- Node2&#45;&gt;Node24 -->
<g id="edge39_Node000002_Node000024" class="edge">
<title>Node2&#45;&gt;Node24</title>
<g id="a_edge39_Node000002_Node000024"><a xlink:title=" ">
<path fill="none" stroke="#63b8ff" d="M370.51,-331.09C353.6,-322.83 328.32,-310.48 308.77,-300.93"/>
<polygon fill="#63b8ff" stroke="#63b8ff" points="310.47,-297.86 299.94,-296.62 307.39,-304.15 310.47,-297.86"/>
</a>
</g>
</g>
<!-- Node4 -->
<g id="Node000004" class="node">
<title>Node4</title>
<g id="a_Node000004"><a xlink:title=" ">
<polygon fill="#e0e0e0" stroke="#999999" points="318.13,-19.25 269.88,-19.25 269.88,0 318.13,0 318.13,-19.25"/>
<text xml:space="preserve" text-anchor="middle" x="294" y="-5.75" font-family="Helvetica,sans-Serif" font-size="10.00">string.h</text>
</a>
</g>
</g>
<!-- Node3&#45;&gt;Node4 -->
<g id="edge3_Node000003_Node000004" class="edge">
<title>Node3&#45;&gt;Node4</title>
<g id="a_edge3_Node000003_Node000004"><a xlink:title=" ">
<path fill="none" stroke="#63b8ff" d="M347.98,-54.84C338.58,-47.15 324.85,-35.9 313.59,-26.68"/>
<polygon fill="#63b8ff" stroke="#63b8ff" points="315.99,-24.11 306.04,-20.48 311.56,-29.53 315.99,-24.11"/>
</a>
</g>
</g>
<!-- Node5 -->
<g id="Node000005" class="node">
<title>Node5</title>
<g id="a_Node000005"><a xlink:title=" ">
<polygon fill="#e0e0e0" stroke="#999999" points="381.63,-19.25 336.38,-19.25 336.38,0 381.63,0 381.63,-19.25"/>
<text xml:space="preserve" text-anchor="middle" x="359" y="-5.75" font-family="Helvetica,sans-Serif" font-size="10.00">chrono</text>
</a>
</g>
</g>
<!-- Node3&#45;&gt;Node5 -->
<g id="edge4_Node000003_Node000005" class="edge">
<title>Node3&#45;&gt;Node5</title>
<g id="a_edge4_Node000003_Node000005"><a xlink:title=" ">
<path fill="none" stroke="#63b8ff" d="M359,-55.08C359,-48.57 359,-39.42 359,-31.12"/>
<polygon fill="#63b8ff" stroke="#63b8ff" points="362.5,-31.12 359,-21.12 355.5,-31.12 362.5,-31.12"/>
</a>
</g>
</g>
<!-- Node6 -->
<g id="Node000006" class="node">
<title>Node6</title>
<g id="a_Node000006"><a xlink:title=" ">
<polygon fill="#e0e0e0" stroke="#999999" points="452.75,-19.25 399.25,-19.25 399.25,0 452.75,0 452.75,-19.25"/>
<text xml:space="preserve" text-anchor="middle" x="426" y="-5.75" font-family="Helvetica,sans-Serif" font-size="10.00">iostream</text>
</a>
</g>
</g>
<!-- Node3&#45;&gt;Node6 -->
<g id="edge5_Node000003_Node000006" class="edge">
<title>Node3&#45;&gt;Node6</title>
<g id="a_edge5_Node000003_Node000006"><a xlink:title=" ">
<path fill="none" stroke="#63b8ff" d="M370.37,-54.84C380.05,-47.15 394.2,-35.9 405.81,-26.68"/>
<polygon fill="#63b8ff" stroke="#63b8ff" points="407.97,-29.43 413.62,-20.47 403.61,-23.95 407.97,-29.43"/>
</a>
</g>
</g>
<!-- Node7&#45;&gt;Node3 -->
<g id="edge7_Node000007_Node000003" class="edge">
<title>Node7&#45;&gt;Node3</title>
<g id="a_edge7_Node000007_Node000003"><a xlink:title=" ">
<path fill="none" stroke="#63b8ff" d="M72.91,-275.94C54.63,-269.31 33.87,-258.22 23,-240.25 -13.17,-180.4 -22.48,-191.44 119,-110.5 181.33,-74.84 266.27,-66.84 316.6,-65.5"/>
<polygon fill="#63b8ff" stroke="#63b8ff" points="316.56,-69 326.5,-65.32 316.43,-62 316.56,-69"/>
</a>
</g>
</g>
<!-- Node8 -->
<g id="Node000008" class="node">
<title>Node8</title>
<g id="a_Node000008"><a xlink:href="_status_handler_8h.html" target="_top" xlink:title=" ">
<polygon fill="white" stroke="#666666" points="464.88,-240.25 379.13,-240.25 379.13,-221 464.88,-221 464.88,-240.25"/>
<text xml:space="preserve" text-anchor="middle" x="422" y="-226.75" font-family="Helvetica,sans-Serif" font-size="10.00">StatusHandler.h</text>
</a>
</g>
</g>
<!-- Node7&#45;&gt;Node8 -->
<g id="edge8_Node000007_Node000008" class="edge">
<title>Node7&#45;&gt;Node8</title>
<g id="a_edge8_Node000007_Node000008"><a xlink:title=" ">
<path fill="none" stroke="#63b8ff" d="M143.41,-278.87C198.03,-269.61 303.25,-251.76 367.58,-240.85"/>
<polygon fill="#63b8ff" stroke="#63b8ff" points="367.94,-244.34 377.22,-239.22 366.77,-237.44 367.94,-244.34"/>
</a>
</g>
</g>
<!-- Node11 -->
<g id="Node000011" class="node">
<title>Node11</title>
<g id="a_Node000011"><a xlink:title=" ">
<polygon fill="#e0e0e0" stroke="#999999" points="142.75,-240.25 101.25,-240.25 101.25,-221 142.75,-221 142.75,-240.25"/>
<text xml:space="preserve" text-anchor="middle" x="122" y="-226.75" font-family="Helvetica,sans-Serif" font-size="10.00">Esp.h</text>
</a>
</g>
</g>
<!-- Node7&#45;&gt;Node11 -->
<g id="edge14_Node000007_Node000011" class="edge">
<title>Node7&#45;&gt;Node11</title>
<g id="a_edge14_Node000007_Node000011"><a xlink:title=" ">
<path fill="none" stroke="#63b8ff" d="M110.32,-276.08C112.07,-269.42 114.55,-259.99 116.77,-251.53"/>
<polygon fill="#63b8ff" stroke="#63b8ff" points="120.1,-252.63 119.26,-242.07 113.33,-250.85 120.1,-252.63"/>
</a>
</g>
</g>
<!-- Node12 -->
<g id="Node000012" class="node">
<title>Node12</title>
<g id="a_Node000012"><a xlink:title=" ">
<polygon fill="#e0e0e0" stroke="#999999" points="83.63,-240.25 32.38,-240.25 32.38,-221 83.63,-221 83.63,-240.25"/>
<text xml:space="preserve" text-anchor="middle" x="58" y="-226.75" font-family="Helvetica,sans-Serif" font-size="10.00">memory</text>
</a>
</g>
</g>
<!-- Node7&#45;&gt;Node12 -->
<g id="edge15_Node000007_Node000012" class="edge">
<title>Node7&#45;&gt;Node12</title>
<g id="a_edge15_Node000007_Node000012"><a xlink:title=" ">
<path fill="none" stroke="#63b8ff" d="M99.75,-276.08C92.84,-268.73 82.78,-258.01 74.26,-248.94"/>
<polygon fill="#63b8ff" stroke="#63b8ff" points="76.87,-246.61 67.48,-241.71 71.77,-251.4 76.87,-246.61"/>
</a>
</g>
</g>
<!-- Node8&#45;&gt;Node3 -->
<g id="edge9_Node000008_Node000003" class="edge">
<title>Node8&#45;&gt;Node3</title>
<g id="a_edge9_Node000008_Node000003"><a xlink:title=" ">
<path fill="none" stroke="#63b8ff" d="M420.67,-220.59C417.43,-200.2 408.04,-149.34 390,-110.5 385.64,-101.12 379.33,-91.58 373.54,-83.75"/>
<polygon fill="#63b8ff" stroke="#63b8ff" points="376.48,-81.83 367.59,-76.07 370.95,-86.12 376.48,-81.83"/>
</a>
</g>
</g>
<!-- Node8&#45;&gt;Node9 -->
<g id="edge10_Node000008_Node000009" class="edge">
<title>Node8&#45;&gt;Node9</title>
<g id="a_edge10_Node000008_Node000009"><a xlink:title=" ">
<path fill="none" stroke="#63b8ff" d="M402.83,-220.59C385.22,-212.29 358.85,-199.86 338.54,-190.29"/>
<polygon fill="#63b8ff" stroke="#63b8ff" points="340.17,-187.19 329.64,-186.1 337.19,-193.53 340.17,-187.19"/>
</a>
</g>
</g>
<!-- Node10 -->
<g id="Node000010" class="node">
<title>Node10</title>
<g id="a_Node000010"><a xlink:title=" ">
<polygon fill="#e0e0e0" stroke="#999999" points="380.5,-129.75 337.5,-129.75 337.5,-110.5 380.5,-110.5 380.5,-129.75"/>
<text xml:space="preserve" text-anchor="middle" x="359" y="-116.25" font-family="Helvetica,sans-Serif" font-size="10.00">vector</text>
</a>
</g>
</g>
<!-- Node8&#45;&gt;Node10 -->
<g id="edge13_Node000008_Node000010" class="edge">
<title>Node8&#45;&gt;Node10</title>
<g id="a_edge13_Node000008_Node000010"><a xlink:title=" ">
<path fill="none" stroke="#63b8ff" d="M416.54,-220.78C411.03,-211.81 402.31,-197.51 395,-185 386.16,-169.87 376.42,-152.54 369.3,-139.75"/>
<polygon fill="#63b8ff" stroke="#63b8ff" points="372.46,-138.22 364.54,-131.18 366.33,-141.62 372.46,-138.22"/>
</a>
</g>
</g>
<!-- Node9&#45;&gt;Node3 -->
<g id="edge11_Node000009_Node000003" class="edge">
<title>Node9&#45;&gt;Node3</title>
<g id="a_edge11_Node000009_Node000003"><a xlink:title=" ">
<path fill="none" stroke="#63b8ff" d="M310.95,-165.39C313.88,-152.74 320.05,-129.15 329,-110.5 333.39,-101.37 339.44,-91.97 344.96,-84.16"/>
<polygon fill="#63b8ff" stroke="#63b8ff" points="347.72,-86.32 350.83,-76.19 342.08,-82.17 347.72,-86.32"/>
</a>
</g>
</g>
<!-- Node9&#45;&gt;Node10 -->
<g id="edge12_Node000009_Node000010" class="edge">
<title>Node9&#45;&gt;Node10</title>
<g id="a_edge12_Node000009_Node000010"><a xlink:title=" ">
<path fill="none" stroke="#63b8ff" d="M317.26,-165.58C324.17,-158.23 334.23,-147.51 342.74,-138.44"/>
<polygon fill="#63b8ff" stroke="#63b8ff" points="345.24,-140.9 349.53,-131.21 340.13,-136.11 345.24,-140.9"/>
</a>
</g>
</g>
<!-- Node13&#45;&gt;Node8 -->
<g id="edge22_Node000013_Node000008" class="edge">
<title>Node13&#45;&gt;Node8</title>
<g id="a_edge22_Node000013_Node000008"><a xlink:title=" ">
<path fill="none" stroke="#63b8ff" d="M425.34,-276.08C424.85,-269.49 424.15,-260.21 423.52,-251.82"/>
<polygon fill="#63b8ff" stroke="#63b8ff" points="427.03,-251.83 422.79,-242.12 420.05,-252.35 427.03,-251.83"/>
</a>
</g>
</g>
<!-- Node14 -->
<g id="Node000014" class="node">
<title>Node14</title>
<g id="a_Node000014"><a xlink:href="_config_handler_8h.html" target="_top" xlink:title=" ">
<polygon fill="white" stroke="#666666" points="322.88,-240.25 237.13,-240.25 237.13,-221 322.88,-221 322.88,-240.25"/>
<text xml:space="preserve" text-anchor="middle" x="280" y="-226.75" font-family="Helvetica,sans-Serif" font-size="10.00">ConfigHandler.h</text>
</a>
</g>
</g>
<!-- Node13&#45;&gt;Node14 -->
<g id="edge18_Node000013_Node000014" class="edge">
<title>Node13&#45;&gt;Node14</title>
<g id="a_edge18_Node000013_Node000014"><a xlink:title=" ">
<path fill="none" stroke="#63b8ff" d="M401.24,-275.84C377.74,-267.27 342.19,-254.31 315.65,-244.63"/>
<polygon fill="#63b8ff" stroke="#63b8ff" points="316.91,-241.36 306.31,-241.22 314.51,-247.94 316.91,-241.36"/>
</a>
</g>
</g>
<!-- Node15 -->
<g id="Node000015" class="node">
<title>Node15</title>
<g id="a_Node000015"><a xlink:href="_event_handler_8h.html" target="_top" xlink:title=" ">
<polygon fill="white" stroke="#666666" points="565.38,-240.25 482.63,-240.25 482.63,-221 565.38,-221 565.38,-240.25"/>
<text xml:space="preserve" text-anchor="middle" x="524" y="-226.75" font-family="Helvetica,sans-Serif" font-size="10.00">EventHandler.h</text>
</a>
</g>
</g>
<!-- Node13&#45;&gt;Node15 -->
<g id="edge23_Node000013_Node000015" class="edge">
<title>Node13&#45;&gt;Node15</title>
<g id="a_edge23_Node000013_Node000015"><a xlink:title=" ">
<path fill="none" stroke="#63b8ff" d="M442.63,-275.84C457.69,-267.66 480.15,-255.46 497.65,-245.94"/>
<polygon fill="#63b8ff" stroke="#63b8ff" points="498.85,-249.27 505.97,-241.43 495.51,-243.12 498.85,-249.27"/>
</a>
</g>
</g>
<!-- Node21 -->
<g id="Node000021" class="node">
<title>Node21</title>
<g id="a_Node000021"><a xlink:href="_msgs_8h.html" target="_top" xlink:title=" ">
<polygon fill="white" stroke="#666666" points="632.13,-240.25 583.88,-240.25 583.88,-221 632.13,-221 632.13,-240.25"/>
<text xml:space="preserve" text-anchor="middle" x="608" y="-226.75" font-family="Helvetica,sans-Serif" font-size="10.00">Msgs.h</text>
</a>
</g>
</g>
<!-- Node13&#45;&gt;Node21 -->
<g id="edge34_Node000013_Node000021" class="edge">
<title>Node13&#45;&gt;Node21</title>
<g id="a_edge34_Node000013_Node000021"><a xlink:title=" ">
<path fill="none" stroke="#63b8ff" d="M456.88,-275.84C488.95,-266.46 539.06,-251.8 572.69,-241.96"/>
<polygon fill="#63b8ff" stroke="#63b8ff" points="573.34,-245.41 581.96,-239.25 571.38,-238.69 573.34,-245.41"/>
</a>
</g>
</g>
<!-- Node14&#45;&gt;Node3 -->
<g id="edge19_Node000014_Node000003" class="edge">
<title>Node14&#45;&gt;Node3</title>
<g id="a_edge19_Node000014_Node000003"><a xlink:title=" ">
<path fill="none" stroke="#63b8ff" d="M272.88,-220.81C263.74,-208.37 249.96,-185.02 258,-165.75 273.45,-128.75 310.02,-98.46 334.65,-81.28"/>
<polygon fill="#63b8ff" stroke="#63b8ff" points="336.46,-84.28 342.81,-75.79 332.56,-78.47 336.46,-84.28"/>
</a>
</g>
</g>
<!-- Node14&#45;&gt;Node9 -->
<g id="edge20_Node000014_Node000009" class="edge">
<title>Node14&#45;&gt;Node9</title>
<g id="a_edge20_Node000014_Node000009"><a xlink:title=" ">
<path fill="none" stroke="#63b8ff" d="M284.79,-220.83C288.55,-213.94 293.91,-204.09 298.64,-195.41"/>
<polygon fill="#63b8ff" stroke="#63b8ff" points="301.68,-197.14 303.39,-186.69 295.53,-193.8 301.68,-197.14"/>
</a>
</g>
</g>
<!-- Node14&#45;&gt;Node10 -->
<g id="edge21_Node000014_Node000010" class="edge">
<title>Node14&#45;&gt;Node10</title>
<g id="a_edge21_Node000014_Node000010"><a xlink:title=" ">
<path fill="none" stroke="#63b8ff" d="M274.16,-220.65C266.46,-207.6 255.12,-183.04 266,-165.75 279.12,-144.9 304.99,-133.58 326.12,-127.56"/>
<polygon fill="#63b8ff" stroke="#63b8ff" points="326.96,-130.96 335.79,-125.1 325.24,-124.17 326.96,-130.96"/>
</a>
</g>
</g>
<!-- Node15&#45;&gt;Node3 -->
<g id="edge24_Node000015_Node000003" class="edge">
<title>Node15&#45;&gt;Node3</title>
<g id="a_edge24_Node000015_Node000003"><a xlink:title=" ">
<path fill="none" stroke="#63b8ff" d="M515.74,-220.78C496.96,-200.77 449.5,-150.64 408,-110.5 398.2,-101.02 386.98,-90.76 377.74,-82.46"/>
<polygon fill="#63b8ff" stroke="#63b8ff" points="380.22,-79.99 370.43,-75.94 375.56,-85.21 380.22,-79.99"/>
</a>
</g>
</g>
<!-- Node15&#45;&gt;Node10 -->
<g id="edge26_Node000015_Node000010" class="edge">
<title>Node15&#45;&gt;Node10</title>
<g id="a_edge26_Node000015_Node000010"><a xlink:title=" ">
<path fill="none" stroke="#63b8ff" d="M510.22,-220.56C481.88,-201.93 416.82,-159.15 382,-136.25"/>
<polygon fill="#63b8ff" stroke="#63b8ff" points="384.17,-133.49 373.9,-130.92 380.33,-139.34 384.17,-133.49"/>
</a>
</g>
</g>
<!-- Node16 -->
<g id="Node000016" class="node">
<title>Node16</title>
<g id="a_Node000016"><a xlink:title=" ">
<polygon fill="#e0e0e0" stroke="#999999" points="791,-185 733,-185 733,-165.75 791,-165.75 791,-185"/>
<text xml:space="preserve" text-anchor="middle" x="762" y="-171.5" font-family="Helvetica,sans-Serif" font-size="10.00">functional</text>
</a>
</g>
</g>
<!-- Node15&#45;&gt;Node16 -->
<g id="edge25_Node000015_Node000016" class="edge">
<title>Node15&#45;&gt;Node16</title>
<g id="a_edge25_Node000015_Node000016"><a xlink:title=" ">
<path fill="none" stroke="#63b8ff" d="M565,-220.52C603.06,-212.06 661.62,-199.02 721.38,-185.58"/>
<polygon fill="#63b8ff" stroke="#63b8ff" points="722.08,-189.01 731.07,-183.4 720.55,-182.18 722.08,-189.01"/>
</a>
</g>
</g>
<!-- Node17 -->
<g id="Node000017" class="node">
<title>Node17</title>
<g id="a_Node000017"><a xlink:title=" ">
<polygon fill="#e0e0e0" stroke="#999999" points="555.13,-185 512.88,-185 512.88,-165.75 555.13,-165.75 555.13,-185"/>
<text xml:space="preserve" text-anchor="middle" x="534" y="-171.5" font-family="Helvetica,sans-Serif" font-size="10.00">queue</text>
</a>
</g>
</g>
<!-- Node15&#45;&gt;Node17 -->
<g id="edge27_Node000015_Node000017" class="edge">
<title>Node15&#45;&gt;Node17</title>
<g id="a_edge27_Node000015_Node000017"><a xlink:title=" ">
<path fill="none" stroke="#63b8ff" d="M525.65,-220.83C526.89,-214.24 528.64,-204.96 530.21,-196.57"/>
<polygon fill="#63b8ff" stroke="#63b8ff" points="533.63,-197.32 532.04,-186.85 526.75,-196.03 533.63,-197.32"/>
</a>
</g>
</g>
<!-- Node18 -->
<g id="Node000018" class="node">
<title>Node18</title>
<g id="a_Node000018"><a xlink:href="_named_value_table_8h.html" target="_top" xlink:title=" ">
<polygon fill="white" stroke="#666666" points="714.5,-185 611.5,-185 611.5,-165.75 714.5,-165.75 714.5,-185"/>
<text xml:space="preserve" text-anchor="middle" x="663" y="-171.5" font-family="Helvetica,sans-Serif" font-size="10.00">NamedValueTable.h</text>
</a>
</g>
</g>
<!-- Node15&#45;&gt;Node18 -->
<g id="edge28_Node000015_Node000018" class="edge">
<title>Node15&#45;&gt;Node18</title>
<g id="a_edge28_Node000015_Node000018"><a xlink:title=" ">
<path fill="none" stroke="#63b8ff" d="M547.58,-220.59C569.85,-212.06 603.5,-199.17 628.72,-189.51"/>
<polygon fill="#63b8ff" stroke="#63b8ff" points="629.81,-192.84 637.89,-185.99 627.3,-186.3 629.81,-192.84"/>
</a>
</g>
</g>
<!-- Node15&#45;&gt;Node20 -->
<g id="edge33_Node000015_Node000020" class="edge">
<title>Node15&#45;&gt;Node20</title>
<g id="a_edge33_Node000015_Node000020"><a xlink:title=" ">
<path fill="none" stroke="#63b8ff" d="M534.88,-220.6C550.01,-208.09 578.34,-184.88 603,-165.75 615.54,-156.03 629.78,-145.42 641.24,-136.98"/>
<polygon fill="#63b8ff" stroke="#63b8ff" points="643.26,-139.84 649.26,-131.1 639.13,-134.19 643.26,-139.84"/>
</a>
</g>
</g>
<!-- Node18&#45;&gt;Node10 -->
<g id="edge29_Node000018_Node000010" class="edge">
<title>Node18&#45;&gt;Node10</title>
<g id="a_edge29_Node000018_Node000010"><a xlink:title=" ">
<path fill="none" stroke="#63b8ff" d="M611.09,-165.28C548.34,-154.29 444.63,-136.12 391.93,-126.89"/>
<polygon fill="#63b8ff" stroke="#63b8ff" points="392.84,-123.5 382.38,-125.22 391.63,-130.39 392.84,-123.5"/>
</a>
</g>
</g>
<!-- Node18&#45;&gt;Node19 -->
<g id="edge30_Node000018_Node000019" class="edge">
<title>Node18&#45;&gt;Node19</title>
<g id="a_edge30_Node000018_Node000019"><a xlink:title=" ">
<path fill="none" stroke="#63b8ff" d="M705.35,-165.28C750.63,-155.56 822.05,-140.23 867.69,-130.43"/>
<polygon fill="#63b8ff" stroke="#63b8ff" points="868.18,-133.9 877.23,-128.38 866.71,-127.06 868.18,-133.9"/>
</a>
</g>
</g>
<!-- Node18&#45;&gt;Node20 -->
<g id="edge32_Node000018_Node000020" class="edge">
<title>Node18&#45;&gt;Node20</title>
<g id="a_edge32_Node000018_Node000020"><a xlink:title=" ">
<path fill="none" stroke="#63b8ff" d="M663,-165.58C663,-159.07 663,-149.92 663,-141.62"/>
<polygon fill="#63b8ff" stroke="#63b8ff" points="666.5,-141.62 663,-131.62 659.5,-141.62 666.5,-141.62"/>
</a>
</g>
</g>
<!-- Node19&#45;&gt;Node3 -->
<g id="edge31_Node000019_Node000003" class="edge">
<title>Node19&#45;&gt;Node3</title>
<g id="a_edge31_Node000019_Node000003"><a xlink:title=" ">
<path fill="none" stroke="#63b8ff" d="M878.9,-112.69C874.25,-111.88 869.51,-111.12 865,-110.5 693.77,-86.95 488.15,-73.31 401.15,-68.2"/>
<polygon fill="#63b8ff" stroke="#63b8ff" points="401.62,-64.72 391.43,-67.64 401.22,-71.71 401.62,-64.72"/>
</a>
</g>
</g>
<!-- Node22&#45;&gt;Node15 -->
<g id="edge37_Node000022_Node000015" class="edge">
<title>Node22&#45;&gt;Node15</title>
<g id="a_edge37_Node000022_Node000015"><a xlink:title=" ">
<path fill="none" stroke="#63b8ff" d="M559.07,-276.08C553.39,-268.88 545.17,-258.46 538.11,-249.51"/>
<polygon fill="#63b8ff" stroke="#63b8ff" points="540.97,-247.48 532.03,-241.8 535.47,-251.82 540.97,-247.48"/>
</a>
</g>
</g>
<!-- Node22&#45;&gt;Node21 -->
<g id="edge38_Node000022_Node000021" class="edge">
<title>Node22&#45;&gt;Node21</title>
<g id="a_edge38_Node000022_Node000021"><a xlink:title=" ">
<path fill="none" stroke="#63b8ff" d="M572.94,-276.08C578.62,-268.88 586.84,-258.46 593.9,-249.51"/>
<polygon fill="#63b8ff" stroke="#63b8ff" points="596.53,-251.82 599.98,-241.8 591.04,-247.48 596.53,-251.82"/>
</a>
</g>
</g>
<!-- Node23 -->
<g id="Node000023" class="node">
<title>Node23</title>
<g id="a_Node000023"><a xlink:title=" ">
<polygon fill="#e0e0e0" stroke="#999999" points="701.63,-240.25 650.38,-240.25 650.38,-221 701.63,-221 701.63,-240.25"/>
<text xml:space="preserve" text-anchor="middle" x="676" y="-226.75" font-family="Helvetica,sans-Serif" font-size="10.00">stdarg.h</text>
</a>
</g>
</g>
<!-- Node22&#45;&gt;Node23 -->
<g id="edge36_Node000022_Node000023" class="edge">
<title>Node22&#45;&gt;Node23</title>
<g id="a_edge36_Node000022_Node000023"><a xlink:title=" ">
<path fill="none" stroke="#63b8ff" d="M584.66,-275.84C601.73,-267.58 627.25,-255.23 646.98,-245.68"/>
<polygon fill="#63b8ff" stroke="#63b8ff" points="648.41,-248.87 655.89,-241.36 645.36,-242.57 648.41,-248.87"/>
</a>
</g>
</g>
<!-- Node24&#45;&gt;Node10 -->
<g id="edge41_Node000024_Node000010" class="edge">
<title>Node24&#45;&gt;Node10</title>
<g id="a_edge41_Node000024_Node000010"><a xlink:title=" ">
<path fill="none" stroke="#63b8ff" d="M263.22,-275.82C250.93,-268.16 235.21,-255.92 228,-240.25 224.43,-232.48 225.9,-229.29 228,-221 234.88,-193.92 237.46,-184.69 258,-165.75 277.36,-147.91 305.01,-136.37 326.49,-129.5"/>
<polygon fill="#63b8ff" stroke="#63b8ff" points="327.36,-132.89 335.94,-126.68 325.35,-126.19 327.36,-132.89"/>
</a>
</g>
</g>
<!-- Node24&#45;&gt;Node14 -->
<g id="edge40_Node000024_Node000014" class="edge">
<title>Node24&#45;&gt;Node14</title>
<g id="a_edge40_Node000024_Node000014"><a xlink:title=" ">
<path fill="none" stroke="#63b8ff" d="M280,-276.08C280,-269.57 280,-260.42 280,-252.12"/>
<polygon fill="#63b8ff" stroke="#63b8ff" points="283.5,-252.12 280,-242.12 276.5,-252.12 283.5,-252.12"/>
</a>
</g>
</g>
<!-- Node25&#45;&gt;Node3 -->
<g id="edge45_Node000025_Node000003" class="edge">
<title>Node25&#45;&gt;Node3</title>
<g id="a_edge45_Node000025_Node000003"><a xlink:title=" ">
<path fill="none" stroke="#63b8ff" d="M830.58,-276.08C833.05,-267.15 836.61,-252.88 838,-240.25 841.8,-205.93 838.17,-192.22 816,-165.75 786.11,-130.05 770.92,-125.94 727,-110.5 613.94,-70.74 470.63,-65.21 400.92,-65.15"/>
<polygon fill="#63b8ff" stroke="#63b8ff" points="401.08,-61.65 391.09,-65.19 401.1,-68.65 401.08,-61.65"/>
</a>
</g>
</g>
<!-- Node25&#45;&gt;Node8 -->
<g id="edge46_Node000025_Node000008" class="edge">
<title>Node25&#45;&gt;Node8</title>
<g id="a_edge46_Node000025_Node000008"><a xlink:title=" ">
<path fill="none" stroke="#63b8ff" d="M790.73,-280.66C728.09,-273.47 597.46,-258.04 476.42,-240.55"/>
<polygon fill="#63b8ff" stroke="#63b8ff" points="477.01,-237.1 466.61,-239.13 476,-244.03 477.01,-237.1"/>
</a>
</g>
</g>
<!-- Node26 -->
<g id="Node000026" class="node">
<title>Node26</title>
<g id="a_Node000026"><a xlink:title=" ">
<polygon fill="#e0e0e0" stroke="#999999" points="828.5,-240.25 791.5,-240.25 791.5,-221 828.5,-221 828.5,-240.25"/>
<text xml:space="preserve" text-anchor="middle" x="810" y="-226.75" font-family="Helvetica,sans-Serif" font-size="10.00">FS.h</text>
</a>
</g>
</g>
<!-- Node25&#45;&gt;Node26 -->
<g id="edge44_Node000025_Node000026" class="edge">
<title>Node25&#45;&gt;Node26</title>
<g id="a_edge44_Node000025_Node000026"><a xlink:title=" ">
<path fill="none" stroke="#63b8ff" d="M825.03,-276.08C822.75,-269.34 819.52,-259.77 816.63,-251.24"/>
<polygon fill="#63b8ff" stroke="#63b8ff" points="820.04,-250.4 813.52,-242.04 813.41,-252.64 820.04,-250.4"/>
</a>
</g>
</g>
</g>
</svg>
