<?xml version="1.0" encoding="UTF-8" standalone="no"?>
<!DOCTYPE svg PUBLIC "-//W3C//DTD SVG 1.1//EN"
 "http://www.w3.org/Graphics/SVG/1.1/DTD/svg11.dtd">
<!-- Generated by graphviz version 15.1.0 (20260618.0150)
 -->
<!-- Title: src/CBatteryMeasure.cpp Pages: 1 -->
<svg width="602pt" height="469pt"
 viewBox="0.00 0.00 602.00 469.00" xmlns="http://www.w3.org/2000/svg" xmlns:xlink="http://www.w3.org/1999/xlink">
<g id="graph0" class="graph" transform="scale(1 1) rotate(0) translate(4 465.25)">
<title>src/CBatteryMeasure.cpp</title>
<!-- Node1 -->
<g id="Node000001" class="node">
<title>Node1</title>
<g id="a_Node000001"><a xlink:title=" ">
<polygon fill="#999999" stroke="#666666" points="433.72,-461.25 305.97,-461.25 305.97,-442 433.72,-442 433.72,-461.25"/>
<text xml:space="preserve" text-anchor="middle" x="369.84" y="-447.75" font-family="Helvetica,sans-Serif" font-size="10.00">src/CBatteryMeasure.cpp</text>
</a>
</g>
</g>
<!-- Node2 -->
<g id="Node000002" class="node">
<title>Node2</title>
<g id="a_Node000002"><a xlink:href="_battery_measure_8h.html" target="_top" xlink:title=" ">
<polygon fill="white" stroke="#666666" points="242.47,-406 149.22,-406 149.22,-386.75 242.47,-386.75 242.47,-406"/>
<text xml:space="preserve" text-anchor="middle" x="195.84" y="-392.5" font-family="Helvetica,sans-Serif" font-size="10.00">BatteryMeasure.h</text>
</a>
</g>
</g>
<!-- Node1&#45;&gt;Node2 -->
<g id="edge1_Node000001_Node000002" class="edge">
<title>Node1&#45;&gt;Node2</title>
<g id="a_edge1_Node000001_Node000002"><a xlink:title=" ">
<path fill="none" stroke="#63b8ff" d="M340.33,-441.59C311.7,-432.83 268.06,-419.48 236.23,-409.73"/>
<polygon fill="#63b8ff" stroke="#63b8ff" points="237.54,-406.48 226.95,-406.9 235.49,-413.17 237.54,-406.48"/>
</a>
</g>
</g>
<!-- Node17 -->
<g id="Node000017" class="node">
<title>Node17</title>
<g id="a_Node000017"><a xlink:href="_l_s_c_utils_8h.html" target="_top" xlink:title=" ">
<polygon fill="white" stroke="#666666" points="527.84,-129.75 463.84,-129.75 463.84,-110.5 527.84,-110.5 527.84,-129.75"/>
<text xml:space="preserve" text-anchor="middle" x="495.84" y="-116.25" font-family="Helvetica,sans-Serif" font-size="10.00">LSCUtils.h</text>
</a>
</g>
</g>
<!-- Node1&#45;&gt;Node17 -->
<g id="edge31_Node000001_Node000017" class="edge">
<title>Node1&#45;&gt;Node17</title>
<g id="a_edge31_Node000001_Node000017"><a xlink:title=" ">
<path fill="none" stroke="#63b8ff" d="M434.03,-446.35C500.22,-438.03 593.84,-413.64 593.84,-342.12 593.84,-342.12 593.84,-342.12 593.84,-229.62 593.84,-187.16 552,-153.87 523,-135.89"/>
<polygon fill="#63b8ff" stroke="#63b8ff" points="525.05,-133.04 514.67,-130.95 521.48,-139.06 525.05,-133.04"/>
</a>
</g>
</g>
<!-- Node3 -->
<g id="Node000003" class="node">
<title>Node3</title>
<g id="a_Node000003"><a xlink:href="_appl_module_8h.html" target="_top" xlink:title=" ">
<polygon fill="white" stroke="#666666" points="268.47,-350.75 193.22,-350.75 193.22,-331.5 268.47,-331.5 268.47,-350.75"/>
<text xml:space="preserve" text-anchor="middle" x="230.84" y="-337.25" font-family="Helvetica,sans-Serif" font-size="10.00">ApplModule.h</text>
</a>
</g>
</g>
<!-- Node2&#45;&gt;Node3 -->
<g id="edge2_Node000002_Node000003" class="edge">
<title>Node2&#45;&gt;Node3</title>
<g id="a_edge2_Node000002_Node000003"><a xlink:title=" ">
<path fill="none" stroke="#63b8ff" d="M201.62,-386.58C206.26,-379.53 212.92,-369.4 218.71,-360.58"/>
<polygon fill="#63b8ff" stroke="#63b8ff" points="221.54,-362.65 224.11,-352.37 215.69,-358.81 221.54,-362.65"/>
</a>
</g>
</g>
<!-- Node5 -->
<g id="Node000005" class="node">
<title>Node5</title>
<g id="a_Node000005"><a xlink:href="_config_handler_8h.html" target="_top" xlink:title=" ">
<polygon fill="white" stroke="#666666" points="202.72,-240.25 116.97,-240.25 116.97,-221 202.72,-221 202.72,-240.25"/>
<text xml:space="preserve" text-anchor="middle" x="159.84" y="-226.75" font-family="Helvetica,sans-Serif" font-size="10.00">ConfigHandler.h</text>
</a>
</g>
</g>
<!-- Node2&#45;&gt;Node5 -->
<g id="edge29_Node000002_Node000005" class="edge">
<title>Node2&#45;&gt;Node5</title>
<g id="a_edge29_Node000002_Node000005"><a xlink:title=" ">
<path fill="none" stroke="#63b8ff" d="M193.28,-386.53C190.73,-377.55 186.78,-363.25 183.84,-350.75 175.7,-316.11 167.87,-275.4 163.47,-251.66"/>
<polygon fill="#63b8ff" stroke="#63b8ff" points="166.97,-251.33 161.73,-242.12 160.09,-252.59 166.97,-251.33"/>
</a>
</g>
</g>
<!-- Node12 -->
<g id="Node000012" class="node">
<title>Node12</title>
<g id="a_Node000012"><a xlink:href="_status_handler_8h.html" target="_top" xlink:title=" ">
<polygon fill="white" stroke="#666666" points="98.72,-240.25 12.97,-240.25 12.97,-221 98.72,-221 98.72,-240.25"/>
<text xml:space="preserve" text-anchor="middle" x="55.84" y="-226.75" font-family="Helvetica,sans-Serif" font-size="10.00">StatusHandler.h</text>
</a>
</g>
</g>
<!-- Node2&#45;&gt;Node12 -->
<g id="edge30_Node000002_Node000012" class="edge">
<title>Node2&#45;&gt;Node12</title>
<g id="a_edge30_Node000002_Node000012"><a xlink:title=" ">
<path fill="none" stroke="#63b8ff" d="M188.32,-386.57C166.1,-360.58 100.49,-283.84 70.77,-249.09"/>
<polygon fill="#63b8ff" stroke="#63b8ff" points="73.55,-246.95 64.39,-241.62 68.23,-251.5 73.55,-246.95"/>
</a>
</g>
</g>
<!-- Node4 -->
<g id="Node000004" class="node">
<title>Node4</title>
<g id="a_Node000004"><a xlink:href="_module_interface_8h.html" target="_top" xlink:title="Full Interface for a module and an abstract basic module implementation.">
<polygon fill="white" stroke="#666666" points="281.84,-295.5 187.84,-295.5 187.84,-276.25 281.84,-276.25 281.84,-295.5"/>
<text xml:space="preserve" text-anchor="middle" x="234.84" y="-282" font-family="Helvetica,sans-Serif" font-size="10.00">ModuleInterface.h</text>
</a>
</g>
</g>
<!-- Node3&#45;&gt;Node4 -->
<g id="edge3_Node000003_Node000004" class="edge">
<title>Node3&#45;&gt;Node4</title>
<g id="a_edge3_Node000003_Node000004"><a xlink:title=" ">
<path fill="none" stroke="#63b8ff" d="M231.5,-331.33C232,-324.74 232.7,-315.46 233.33,-307.07"/>
<polygon fill="#63b8ff" stroke="#63b8ff" points="236.8,-307.6 234.05,-297.37 229.82,-307.08 236.8,-307.6"/>
</a>
</g>
</g>
<!-- Node4&#45;&gt;Node5 -->
<g id="edge4_Node000004_Node000005" class="edge">
<title>Node4&#45;&gt;Node5</title>
<g id="a_edge4_Node000004_Node000005"><a xlink:title=" ">
<path fill="none" stroke="#63b8ff" d="M222.12,-275.84C211.13,-268.04 195,-256.59 181.91,-247.29"/>
<polygon fill="#63b8ff" stroke="#63b8ff" points="184.04,-244.51 173.86,-241.58 179.99,-250.22 184.04,-244.51"/>
</a>
</g>
</g>
<!-- Node4&#45;&gt;Node12 -->
<g id="edge13_Node000004_Node000012" class="edge">
<title>Node4&#45;&gt;Node12</title>
<g id="a_edge13_Node000004_Node000012"><a xlink:title=" ">
<path fill="none" stroke="#63b8ff" d="M204.48,-275.84C175.03,-267.08 130.13,-253.73 97.39,-243.98"/>
<polygon fill="#63b8ff" stroke="#63b8ff" points="98.39,-240.63 87.81,-241.13 96.39,-247.34 98.39,-240.63"/>
</a>
</g>
</g>
<!-- Node13 -->
<g id="Node000013" class="node">
<title>Node13</title>
<g id="a_Node000013"><a xlink:href="_event_handler_8h.html" target="_top" xlink:title=" ">
<polygon fill="white" stroke="#666666" points="380.22,-240.25 297.47,-240.25 297.47,-221 380.22,-221 380.22,-240.25"/>
<text xml:space="preserve" text-anchor="middle" x="338.84" y="-226.75" font-family="Helvetica,sans-Serif" font-size="10.00">EventHandler.h</text>
</a>
</g>
</g>
<!-- Node4&#45;&gt;Node13 -->
<g id="edge17_Node000004_Node000013" class="edge">
<title>Node4&#45;&gt;Node13</title>
<g id="a_edge17_Node000004_Node000013"><a xlink:title=" ">
<path fill="none" stroke="#63b8ff" d="M252.49,-275.84C268.47,-267.66 292.3,-255.46 310.88,-245.94"/>
<polygon fill="#63b8ff" stroke="#63b8ff" points="312.46,-249.07 319.77,-241.39 309.27,-242.83 312.46,-249.07"/>
</a>
</g>
</g>
<!-- Node19 -->
<g id="Node000019" class="node">
<title>Node19</title>
<g id="a_Node000019"><a xlink:href="_msgs_8h.html" target="_top" xlink:title=" ">
<polygon fill="white" stroke="#666666" points="268.97,-240.25 220.72,-240.25 220.72,-221 268.97,-221 268.97,-240.25"/>
<text xml:space="preserve" text-anchor="middle" x="244.84" y="-226.75" font-family="Helvetica,sans-Serif" font-size="10.00">Msgs.h</text>
</a>
</g>
</g>
<!-- Node4&#45;&gt;Node19 -->
<g id="edge28_Node000004_Node000019" class="edge">
<title>Node4&#45;&gt;Node19</title>
<g id="a_edge28_Node000004_Node000019"><a xlink:title=" ">
<path fill="none" stroke="#63b8ff" d="M236.49,-276.08C237.73,-269.49 239.48,-260.21 241.05,-251.82"/>
<polygon fill="#63b8ff" stroke="#63b8ff" points="244.47,-252.57 242.88,-242.1 237.59,-251.28 244.47,-252.57"/>
</a>
</g>
</g>
<!-- Node6 -->
<g id="Node000006" class="node">
<title>Node6</title>
<g id="a_Node000006"><a xlink:href="_runtime_8h.html" target="_top" xlink:title=" ">
<polygon fill="white" stroke="#666666" points="176.34,-74.5 115.34,-74.5 115.34,-55.25 176.34,-55.25 176.34,-74.5"/>
<text xml:space="preserve" text-anchor="middle" x="145.84" y="-61" font-family="Helvetica,sans-Serif" font-size="10.00">Runtime.h</text>
</a>
</g>
</g>
<!-- Node5&#45;&gt;Node6 -->
<g id="edge5_Node000005_Node000006" class="edge">
<title>Node5&#45;&gt;Node6</title>
<g id="a_edge5_Node000005_Node000006"><a xlink:title=" ">
<path fill="none" stroke="#63b8ff" d="M159.09,-220.82C156.93,-195.5 150.64,-122 147.57,-86.09"/>
<polygon fill="#63b8ff" stroke="#63b8ff" points="151.07,-85.9 146.73,-76.23 144.09,-86.49 151.07,-85.9"/>
</a>
</g>
</g>
<!-- Node10 -->
<g id="Node000010" class="node">
<title>Node10</title>
<g id="a_Node000010"><a xlink:href="_json_node_8h.html" target="_top" xlink:title=" ">
<polygon fill="white" stroke="#666666" points="80.09,-185 11.59,-185 11.59,-165.75 80.09,-165.75 80.09,-185"/>
<text xml:space="preserve" text-anchor="middle" x="45.84" y="-171.5" font-family="Helvetica,sans-Serif" font-size="10.00">JsonNode.h</text>
</a>
</g>
</g>
<!-- Node5&#45;&gt;Node10 -->
<g id="edge9_Node000005_Node000010" class="edge">
<title>Node5&#45;&gt;Node10</title>
<g id="a_edge9_Node000005_Node000010"><a xlink:title=" ">
<path fill="none" stroke="#63b8ff" d="M140.5,-220.59C122.73,-212.29 96.13,-199.86 75.64,-190.29"/>
<polygon fill="#63b8ff" stroke="#63b8ff" points="77.19,-187.15 66.65,-186.09 74.23,-193.5 77.19,-187.15"/>
</a>
</g>
</g>
<!-- Node11 -->
<g id="Node000011" class="node">
<title>Node11</title>
<g id="a_Node000011"><a xlink:title=" ">
<polygon fill="#e0e0e0" stroke="#999999" points="217.34,-129.75 174.34,-129.75 174.34,-110.5 217.34,-110.5 217.34,-129.75"/>
<text xml:space="preserve" text-anchor="middle" x="195.84" y="-116.25" font-family="Helvetica,sans-Serif" font-size="10.00">vector</text>
</a>
</g>
</g>
<!-- Node5&#45;&gt;Node11 -->
<g id="edge12_Node000005_Node000011" class="edge">
<title>Node5&#45;&gt;Node11</title>
<g id="a_edge12_Node000005_Node000011"><a xlink:title=" ">
<path fill="none" stroke="#63b8ff" d="M162.79,-220.75C168.54,-203.42 181.38,-164.73 189.25,-140.99"/>
<polygon fill="#63b8ff" stroke="#63b8ff" points="192.55,-142.16 192.38,-131.56 185.91,-139.95 192.55,-142.16"/>
</a>
</g>
</g>
<!-- Node7 -->
<g id="Node000007" class="node">
<title>Node7</title>
<g id="a_Node000007"><a xlink:title=" ">
<polygon fill="#e0e0e0" stroke="#999999" points="104.97,-19.25 56.72,-19.25 56.72,0 104.97,0 104.97,-19.25"/>
<text xml:space="preserve" text-anchor="middle" x="80.84" y="-5.75" font-family="Helvetica,sans-Serif" font-size="10.00">string.h</text>
</a>
</g>
</g>
<!-- Node6&#45;&gt;Node7 -->
<g id="edge6_Node000006_Node000007" class="edge">
<title>Node6&#45;&gt;Node7</title>
<g id="a_edge6_Node000006_Node000007"><a xlink:title=" ">
<path fill="none" stroke="#63b8ff" d="M134.82,-54.84C125.42,-47.15 111.69,-35.9 100.43,-26.68"/>
<polygon fill="#63b8ff" stroke="#63b8ff" points="102.83,-24.11 92.88,-20.48 98.39,-29.53 102.83,-24.11"/>
</a>
</g>
</g>
<!-- Node8 -->
<g id="Node000008" class="node">
<title>Node8</title>
<g id="a_Node000008"><a xlink:title=" ">
<polygon fill="#e0e0e0" stroke="#999999" points="168.47,-19.25 123.22,-19.25 123.22,0 168.47,0 168.47,-19.25"/>
<text xml:space="preserve" text-anchor="middle" x="145.84" y="-5.75" font-family="Helvetica,sans-Serif" font-size="10.00">chrono</text>
</a>
</g>
</g>
<!-- Node6&#45;&gt;Node8 -->
<g id="edge7_Node000006_Node000008" class="edge">
<title>Node6&#45;&gt;Node8</title>
<g id="a_edge7_Node000006_Node000008"><a xlink:title=" ">
<path fill="none" stroke="#63b8ff" d="M145.84,-55.08C145.84,-48.57 145.84,-39.42 145.84,-31.12"/>
<polygon fill="#63b8ff" stroke="#63b8ff" points="149.34,-31.12 145.84,-21.12 142.34,-31.12 149.34,-31.12"/>
</a>
</g>
</g>
<!-- Node9 -->
<g id="Node000009" class="node">
<title>Node9</title>
<g id="a_Node000009"><a xlink:title=" ">
<polygon fill="#e0e0e0" stroke="#999999" points="239.59,-19.25 186.09,-19.25 186.09,0 239.59,0 239.59,-19.25"/>
<text xml:space="preserve" text-anchor="middle" x="212.84" y="-5.75" font-family="Helvetica,sans-Serif" font-size="10.00">iostream</text>
</a>
</g>
</g>
<!-- Node6&#45;&gt;Node9 -->
<g id="edge8_Node000006_Node000009" class="edge">
<title>Node6&#45;&gt;Node9</title>
<g id="a_edge8_Node000006_Node000009"><a xlink:title=" ">
<path fill="none" stroke="#63b8ff" d="M157.21,-54.84C166.89,-47.15 181.04,-35.9 192.65,-26.68"/>
<polygon fill="#63b8ff" stroke="#63b8ff" points="194.81,-29.43 200.46,-20.47 190.45,-23.95 194.81,-29.43"/>
</a>
</g>
</g>
<!-- Node10&#45;&gt;Node6 -->
<g id="edge10_Node000010_Node000006" class="edge">
<title>Node10&#45;&gt;Node6</title>
<g id="a_edge10_Node000010_Node000006"><a xlink:title=" ">
<path fill="none" stroke="#63b8ff" d="M54.03,-165.5C70.58,-147.53 108.3,-106.61 129.89,-83.19"/>
<polygon fill="#63b8ff" stroke="#63b8ff" points="132.32,-85.71 136.52,-75.99 127.17,-80.97 132.32,-85.71"/>
</a>
</g>
</g>
<!-- Node10&#45;&gt;Node11 -->
<g id="edge11_Node000010_Node000011" class="edge">
<title>Node10&#45;&gt;Node11</title>
<g id="a_edge11_Node000010_Node000011"><a xlink:title=" ">
<path fill="none" stroke="#63b8ff" d="M71.29,-165.34C96.71,-156.32 135.87,-142.42 163.48,-132.61"/>
<polygon fill="#63b8ff" stroke="#63b8ff" points="164.5,-135.97 172.75,-129.32 162.15,-129.37 164.5,-135.97"/>
</a>
</g>
</g>
<!-- Node12&#45;&gt;Node6 -->
<g id="edge14_Node000012_Node000006" class="edge">
<title>Node12&#45;&gt;Node6</title>
<g id="a_edge14_Node000012_Node000006"><a xlink:title=" ">
<path fill="none" stroke="#63b8ff" d="M38.77,-220.61C19.25,-209.01 -8.61,-187.73 2.84,-165.75 25.3,-122.68 75.76,-94.37 110.31,-79.24"/>
<polygon fill="#63b8ff" stroke="#63b8ff" points="111.22,-82.65 119.08,-75.55 108.5,-76.2 111.22,-82.65"/>
</a>
</g>
</g>
<!-- Node12&#45;&gt;Node10 -->
<g id="edge15_Node000012_Node000010" class="edge">
<title>Node12&#45;&gt;Node10</title>
<g id="a_edge15_Node000012_Node000010"><a xlink:title=" ">
<path fill="none" stroke="#63b8ff" d="M54.19,-220.83C52.95,-214.24 51.21,-204.96 49.64,-196.57"/>
<polygon fill="#63b8ff" stroke="#63b8ff" points="53.1,-196.03 47.81,-186.85 46.22,-197.32 53.1,-196.03"/>
</a>
</g>
</g>
<!-- Node12&#45;&gt;Node11 -->
<g id="edge16_Node000012_Node000011" class="edge">
<title>Node12&#45;&gt;Node11</title>
<g id="a_edge16_Node000012_Node000011"><a xlink:title=" ">
<path fill="none" stroke="#63b8ff" d="M67.3,-220.75C90.99,-202.39 145.63,-160.04 175.48,-136.91"/>
<polygon fill="#63b8ff" stroke="#63b8ff" points="177.27,-139.95 183.03,-131.05 172.98,-134.41 177.27,-139.95"/>
</a>
</g>
</g>
<!-- Node13&#45;&gt;Node6 -->
<g id="edge18_Node000013_Node000006" class="edge">
<title>Node13&#45;&gt;Node6</title>
<g id="a_edge18_Node000013_Node000006"><a xlink:title=" ">
<path fill="none" stroke="#63b8ff" d="M380.36,-229.65C419.78,-227.49 478.44,-218.29 515.84,-185 541.54,-162.13 559.75,-136.17 536.84,-110.5 513.89,-84.78 284.09,-71.88 187.87,-67.57"/>
<polygon fill="#63b8ff" stroke="#63b8ff" points="188.21,-64.08 178.06,-67.14 187.9,-71.07 188.21,-64.08"/>
</a>
</g>
</g>
<!-- Node13&#45;&gt;Node11 -->
<g id="edge20_Node000013_Node000011" class="edge">
<title>Node13&#45;&gt;Node11</title>
<g id="a_edge20_Node000013_Node000011"><a xlink:title=" ">
<path fill="none" stroke="#63b8ff" d="M328.81,-220.57C314.54,-207.84 287.39,-184.15 262.84,-165.75 249.08,-155.43 233.06,-144.72 220.14,-136.38"/>
<polygon fill="#63b8ff" stroke="#63b8ff" points="222.13,-133.49 211.82,-131.06 218.36,-139.39 222.13,-133.49"/>
</a>
</g>
</g>
<!-- Node14 -->
<g id="Node000014" class="node">
<title>Node14</title>
<g id="a_Node000014"><a xlink:title=" ">
<polygon fill="#e0e0e0" stroke="#999999" points="367.84,-185 309.84,-185 309.84,-165.75 367.84,-165.75 367.84,-185"/>
<text xml:space="preserve" text-anchor="middle" x="338.84" y="-171.5" font-family="Helvetica,sans-Serif" font-size="10.00">functional</text>
</a>
</g>
</g>
<!-- Node13&#45;&gt;Node14 -->
<g id="edge19_Node000013_Node000014" class="edge">
<title>Node13&#45;&gt;Node14</title>
<g id="a_edge19_Node000013_Node000014"><a xlink:title=" ">
<path fill="none" stroke="#63b8ff" d="M338.84,-220.83C338.84,-214.32 338.84,-205.17 338.84,-196.87"/>
<polygon fill="#63b8ff" stroke="#63b8ff" points="342.34,-196.87 338.84,-186.87 335.34,-196.87 342.34,-196.87"/>
</a>
</g>
</g>
<!-- Node15 -->
<g id="Node000015" class="node">
<title>Node15</title>
<g id="a_Node000015"><a xlink:title=" ">
<polygon fill="#e0e0e0" stroke="#999999" points="253.97,-185 211.72,-185 211.72,-165.75 253.97,-165.75 253.97,-185"/>
<text xml:space="preserve" text-anchor="middle" x="232.84" y="-171.5" font-family="Helvetica,sans-Serif" font-size="10.00">queue</text>
</a>
</g>
</g>
<!-- Node13&#45;&gt;Node15 -->
<g id="edge21_Node000013_Node000015" class="edge">
<title>Node13&#45;&gt;Node15</title>
<g id="a_edge21_Node000013_Node000015"><a xlink:title=" ">
<path fill="none" stroke="#63b8ff" d="M320.86,-220.59C304.49,-212.37 280.05,-200.09 261.08,-190.56"/>
<polygon fill="#63b8ff" stroke="#63b8ff" points="262.77,-187.49 252.27,-186.13 259.63,-193.75 262.77,-187.49"/>
</a>
</g>
</g>
<!-- Node16 -->
<g id="Node000016" class="node">
<title>Node16</title>
<g id="a_Node000016"><a xlink:href="_named_value_table_8h.html" target="_top" xlink:title=" ">
<polygon fill="white" stroke="#666666" points="489.34,-185 386.34,-185 386.34,-165.75 489.34,-165.75 489.34,-185"/>
<text xml:space="preserve" text-anchor="middle" x="437.84" y="-171.5" font-family="Helvetica,sans-Serif" font-size="10.00">NamedValueTable.h</text>
</a>
</g>
</g>
<!-- Node13&#45;&gt;Node16 -->
<g id="edge22_Node000013_Node000016" class="edge">
<title>Node13&#45;&gt;Node16</title>
<g id="a_edge22_Node000013_Node000016"><a xlink:title=" ">
<path fill="none" stroke="#63b8ff" d="M355.64,-220.59C370.86,-212.41 393.54,-200.21 411.22,-190.69"/>
<polygon fill="#63b8ff" stroke="#63b8ff" points="412.48,-193.99 419.63,-186.17 409.17,-187.82 412.48,-193.99"/>
</a>
</g>
</g>
<!-- Node18 -->
<g id="Node000018" class="node">
<title>Node18</title>
<g id="a_Node000018"><a xlink:href="_development_helper_8h.html" target="_top" xlink:title=" ">
<polygon fill="white" stroke="#666666" points="445.72,-129.75 335.97,-129.75 335.97,-110.5 445.72,-110.5 445.72,-129.75"/>
<text xml:space="preserve" text-anchor="middle" x="390.84" y="-116.25" font-family="Helvetica,sans-Serif" font-size="10.00">DevelopmentHelper.h</text>
</a>
</g>
</g>
<!-- Node13&#45;&gt;Node18 -->
<g id="edge27_Node000013_Node000018" class="edge">
<title>Node13&#45;&gt;Node18</title>
<g id="a_edge27_Node000013_Node000018"><a xlink:title=" ">
<path fill="none" stroke="#63b8ff" d="M380.44,-223.77C422.9,-216.85 484.54,-203.83 498.84,-185 517.59,-160.31 482.13,-143.34 446.94,-133.13"/>
<polygon fill="#63b8ff" stroke="#63b8ff" points="448.11,-129.82 437.54,-130.57 446.28,-136.57 448.11,-129.82"/>
</a>
</g>
</g>
<!-- Node16&#45;&gt;Node11 -->
<g id="edge23_Node000016_Node000011" class="edge">
<title>Node16&#45;&gt;Node11</title>
<g id="a_edge23_Node000016_Node000011"><a xlink:title=" ">
<path fill="none" stroke="#63b8ff" d="M396.52,-165.28C349.16,-154.86 272.48,-137.99 228.9,-128.4"/>
<polygon fill="#63b8ff" stroke="#63b8ff" points="229.79,-125.01 219.27,-126.28 228.29,-131.85 229.79,-125.01"/>
</a>
</g>
</g>
<!-- Node16&#45;&gt;Node17 -->
<g id="edge24_Node000016_Node000017" class="edge">
<title>Node16&#45;&gt;Node17</title>
<g id="a_edge24_Node000016_Node000017"><a xlink:title=" ">
<path fill="none" stroke="#63b8ff" d="M447.68,-165.34C455.9,-157.8 467.83,-146.85 477.76,-137.73"/>
<polygon fill="#63b8ff" stroke="#63b8ff" points="480.04,-140.39 485.03,-131.05 475.3,-135.23 480.04,-140.39"/>
</a>
</g>
</g>
<!-- Node16&#45;&gt;Node18 -->
<g id="edge26_Node000016_Node000018" class="edge">
<title>Node16&#45;&gt;Node18</title>
<g id="a_edge26_Node000016_Node000018"><a xlink:title=" ">
<path fill="none" stroke="#63b8ff" d="M430.08,-165.58C423.66,-158.3 414.33,-147.73 406.38,-138.73"/>
<polygon fill="#63b8ff" stroke="#63b8ff" points="409.02,-136.43 399.77,-131.24 403.77,-141.06 409.02,-136.43"/>
</a>
</g>
</g>
<!-- Node17&#45;&gt;Node6 -->
<g id="edge25_Node000017_Node000006" class="edge">
<title>Node17&#45;&gt;Node6</title>
<g id="a_edge25_Node000017_Node000006"><a xlink:title=" ">
<path fill="none" stroke="#63b8ff" d="M463.65,-112.15C460.68,-111.57 457.71,-111.01 454.84,-110.5 359.78,-93.65 247.41,-78.65 187.84,-71.07"/>
<polygon fill="#63b8ff" stroke="#63b8ff" points="188.51,-67.63 178.15,-69.85 187.63,-74.58 188.51,-67.63"/>
</a>
</g>
</g>
</g>
</svg>
