<?xml version="1.0" encoding="UTF-8" standalone="no"?>
<!DOCTYPE svg PUBLIC "-//W3C//DTD SVG 1.1//EN"
 "http://www.w3.org/Graphics/SVG/1.1/DTD/svg11.dtd">
<!-- Generated by graphviz version 15.1.0 (20260618.0150)
 -->
<!-- Title: src/CButton.cpp Pages: 1 -->
<svg width="1077pt" height="414pt"
 viewBox="0.00 0.00 1077.00 414.00" xmlns="http://www.w3.org/2000/svg" xmlns:xlink="http://www.w3.org/1999/xlink">
<g id="graph0" class="graph" transform="scale(1 1) rotate(0) translate(4 410)">
<title>src/CButton.cpp</title>
<!-- Node1 -->
<g id="Node000001" class="node">
<title>Node1</title>
<g id="a_Node000001"><a xlink:title=" ">
<polygon fill="#999999" stroke="#666666" points="613.62,-406 526.38,-406 526.38,-386.75 613.62,-386.75 613.62,-406"/>
<text xml:space="preserve" text-anchor="middle" x="570" y="-392.5" font-family="Helvetica,sans-Serif" font-size="10.00">src/CButton.cpp</text>
</a>
</g>
</g>
<!-- Node2 -->
<g id="Node000002" class="node">
<title>Node2</title>
<g id="a_Node000002"><a xlink:href="_appl_8h.html" target="_top" xlink:title="Application Main Class.">
<polygon fill="white" stroke="#666666" points="558.88,-350.75 515.12,-350.75 515.12,-331.5 558.88,-331.5 558.88,-350.75"/>
<text xml:space="preserve" text-anchor="middle" x="537" y="-337.25" font-family="Helvetica,sans-Serif" font-size="10.00">Appl.h</text>
</a>
</g>
</g>
<!-- Node1&#45;&gt;Node2 -->
<g id="edge1_Node000001_Node000002" class="edge">
<title>Node1&#45;&gt;Node2</title>
<g id="a_edge1_Node000001_Node000002"><a xlink:title=" ">
<path fill="none" stroke="#63b8ff" d="M564.55,-386.58C560.23,-379.61 554.04,-369.62 548.62,-360.87"/>
<polygon fill="#63b8ff" stroke="#63b8ff" points="551.61,-359.05 543.36,-352.4 545.66,-362.74 551.61,-359.05"/>
</a>
</g>
</g>
<!-- Node20 -->
<g id="Node000020" class="node">
<title>Node20</title>
<g id="a_Node000020"><a xlink:href="_development_helper_8h.html" target="_top" xlink:title=" ">
<polygon fill="white" stroke="#666666" points="111.88,-129.75 2.12,-129.75 2.12,-110.5 111.88,-110.5 111.88,-129.75"/>
<text xml:space="preserve" text-anchor="middle" x="57" y="-116.25" font-family="Helvetica,sans-Serif" font-size="10.00">DevelopmentHelper.h</text>
</a>
</g>
</g>
<!-- Node1&#45;&gt;Node20 -->
<g id="edge48_Node000001_Node000020" class="edge">
<title>Node1&#45;&gt;Node20</title>
<g id="a_edge48_Node000001_Node000020"><a xlink:title=" ">
<path fill="none" stroke="#63b8ff" d="M526.22,-391.68C392.75,-379.82 0,-340.39 0,-286.88 0,-286.88 0,-286.88 0,-229.62 0,-194.17 24.14,-158.91 41.01,-138.6"/>
<polygon fill="#63b8ff" stroke="#63b8ff" points="43.44,-141.13 47.35,-131.29 38.16,-136.55 43.44,-141.13"/>
</a>
</g>
</g>
<!-- Node25 -->
<g id="Node000025" class="node">
<title>Node25</title>
<g id="a_Node000025"><a xlink:href="_button_8h.html" target="_top" xlink:title=" ">
<polygon fill="white" stroke="#666666" points="815.38,-350.75 762.62,-350.75 762.62,-331.5 815.38,-331.5 815.38,-350.75"/>
<text xml:space="preserve" text-anchor="middle" x="789" y="-337.25" font-family="Helvetica,sans-Serif" font-size="10.00">Button.h</text>
</a>
</g>
</g>
<!-- Node1&#45;&gt;Node25 -->
<g id="edge43_Node000001_Node000025" class="edge">
<title>Node1&#45;&gt;Node25</title>
<g id="a_edge43_Node000001_Node000025"><a xlink:title=" ">
<path fill="none" stroke="#63b8ff" d="M607.15,-386.34C647.33,-376.57 711.04,-361.08 751.4,-351.27"/>
<polygon fill="#63b8ff" stroke="#63b8ff" points="752.01,-354.72 760.9,-348.96 750.36,-347.92 752.01,-354.72"/>
</a>
</g>
</g>
<!-- Node29 -->
<g id="Node000029" class="node">
<title>Node29</title>
<g id="a_Node000029"><a xlink:title=" ">
<polygon fill="#e0e0e0" stroke="#999999" points="938.62,-350.75 833.38,-350.75 833.38,-331.5 938.62,-331.5 938.62,-350.75"/>
<text xml:space="preserve" text-anchor="middle" x="886" y="-337.25" font-family="Helvetica,sans-Serif" font-size="10.00">FunctionalInterrupt.h</text>
</a>
</g>
</g>
<!-- Node1&#45;&gt;Node29 -->
<g id="edge49_Node000001_Node000029" class="edge">
<title>Node1&#45;&gt;Node29</title>
<g id="a_edge49_Node000001_Node000029"><a xlink:title=" ">
<path fill="none" stroke="#63b8ff" d="M613.94,-387.97C667.9,-378.88 759.87,-363.38 821.76,-352.95"/>
<polygon fill="#63b8ff" stroke="#63b8ff" points="822.18,-356.43 831.46,-351.32 821.02,-349.53 822.18,-356.43"/>
</a>
</g>
</g>
<!-- Node3 -->
<g id="Node000003" class="node">
<title>Node3</title>
<g id="a_Node000003"><a xlink:href="_runtime_8h.html" target="_top" xlink:title=" ">
<polygon fill="white" stroke="#666666" points="691.5,-74.5 630.5,-74.5 630.5,-55.25 691.5,-55.25 691.5,-74.5"/>
<text xml:space="preserve" text-anchor="middle" x="661" y="-61" font-family="Helvetica,sans-Serif" font-size="10.00">Runtime.h</text>
</a>
</g>
</g>
<!-- Node2&#45;&gt;Node3 -->
<g id="edge2_Node000002_Node000003" class="edge">
<title>Node2&#45;&gt;Node3</title>
<g id="a_edge2_Node000002_Node000003"><a xlink:title=" ">
<path fill="none" stroke="#63b8ff" d="M559.17,-337.8C633.77,-329.37 871,-297.4 871,-231.62 871,-231.62 871,-231.62 871,-174.38 871,-99.58 764.56,-76.29 703.24,-69.08"/>
<polygon fill="#63b8ff" stroke="#63b8ff" points="703.81,-65.62 693.49,-68.04 703.06,-72.58 703.81,-65.62"/>
</a>
</g>
</g>
<!-- Node7 -->
<g id="Node000007" class="node">
<title>Node7</title>
<g id="a_Node000007"><a xlink:href="_sys_status_8h.html" target="_top" xlink:title=" ">
<polygon fill="white" stroke="#666666" points="750,-295.5 680,-295.5 680,-276.25 750,-276.25 750,-295.5"/>
<text xml:space="preserve" text-anchor="middle" x="715" y="-282" font-family="Helvetica,sans-Serif" font-size="10.00">SysStatus.h</text>
</a>
</g>
</g>
<!-- Node2&#45;&gt;Node7 -->
<g id="edge6_Node000002_Node000007" class="edge">
<title>Node2&#45;&gt;Node7</title>
<g id="a_edge6_Node000002_Node000007"><a xlink:title=" ">
<path fill="none" stroke="#63b8ff" d="M559.18,-333.49C587.9,-324.9 638.48,-309.77 674.22,-299.08"/>
<polygon fill="#63b8ff" stroke="#63b8ff" points="674.76,-302.57 683.34,-296.35 672.76,-295.86 674.76,-302.57"/>
</a>
</g>
</g>
<!-- Node9 -->
<g id="Node000009" class="node">
<title>Node9</title>
<g id="a_Node000009"><a xlink:href="_json_node_8h.html" target="_top" xlink:title=" ">
<polygon fill="white" stroke="#666666" points="620.25,-185 551.75,-185 551.75,-165.75 620.25,-165.75 620.25,-185"/>
<text xml:space="preserve" text-anchor="middle" x="586" y="-171.5" font-family="Helvetica,sans-Serif" font-size="10.00">JsonNode.h</text>
</a>
</g>
</g>
<!-- Node2&#45;&gt;Node9 -->
<g id="edge16_Node000002_Node000009" class="edge">
<title>Node2&#45;&gt;Node9</title>
<g id="a_edge16_Node000002_Node000009"><a xlink:title=" ">
<path fill="none" stroke="#63b8ff" d="M539.63,-331.32C547.25,-305.89 569.4,-231.85 580.09,-196.12"/>
<polygon fill="#63b8ff" stroke="#63b8ff" points="583.4,-197.26 582.92,-186.67 576.7,-195.25 583.4,-197.26"/>
</a>
</g>
</g>
<!-- Node13 -->
<g id="Node000013" class="node">
<title>Node13</title>
<g id="a_Node000013"><a xlink:href="_module_interface_8h.html" target="_top" xlink:title="Full Interface for a module and an abstract basic module implementation.">
<polygon fill="white" stroke="#666666" points="472,-295.5 378,-295.5 378,-276.25 472,-276.25 472,-295.5"/>
<text xml:space="preserve" text-anchor="middle" x="425" y="-282" font-family="Helvetica,sans-Serif" font-size="10.00">ModuleInterface.h</text>
</a>
</g>
</g>
<!-- Node2&#45;&gt;Node13 -->
<g id="edge17_Node000002_Node000013" class="edge">
<title>Node2&#45;&gt;Node13</title>
<g id="a_edge17_Node000002_Node000013"><a xlink:title=" ">
<path fill="none" stroke="#63b8ff" d="M518,-331.09C500.54,-322.79 474.4,-310.36 454.28,-300.79"/>
<polygon fill="#63b8ff" stroke="#63b8ff" points="455.99,-297.74 445.46,-296.6 452.99,-304.06 455.99,-297.74"/>
</a>
</g>
</g>
<!-- Node2&#45;&gt;Node20 -->
<g id="edge42_Node000002_Node000020" class="edge">
<title>Node2&#45;&gt;Node20</title>
<g id="a_edge42_Node000002_Node000020"><a xlink:title=" ">
<path fill="none" stroke="#63b8ff" d="M514.89,-338.83C468.3,-335.59 357.07,-325.14 269,-295.5 174.22,-263.6 132.34,-265.49 73,-185 63.64,-172.31 59.72,-154.75 58.1,-141.26"/>
<polygon fill="#63b8ff" stroke="#63b8ff" points="61.59,-141.03 57.27,-131.36 54.62,-141.62 61.59,-141.03"/>
</a>
</g>
</g>
<!-- Node22 -->
<g id="Node000022" class="node">
<title>Node22</title>
<g id="a_Node000022"><a xlink:href="_logging_8h.html" target="_top" xlink:title=" ">
<polygon fill="white" stroke="#666666" points="336,-295.5 278,-295.5 278,-276.25 336,-276.25 336,-295.5"/>
<text xml:space="preserve" text-anchor="middle" x="307" y="-282" font-family="Helvetica,sans-Serif" font-size="10.00">Logging.h</text>
</a>
</g>
</g>
<!-- Node2&#45;&gt;Node22 -->
<g id="edge35_Node000002_Node000022" class="edge">
<title>Node2&#45;&gt;Node22</title>
<g id="a_edge35_Node000002_Node000022"><a xlink:title=" ">
<path fill="none" stroke="#63b8ff" d="M514.95,-335.02C476.33,-326.08 395.94,-307.47 347.21,-296.18"/>
<polygon fill="#63b8ff" stroke="#63b8ff" points="348.14,-292.81 337.61,-293.96 346.56,-299.63 348.14,-292.81"/>
</a>
</g>
</g>
<!-- Node24 -->
<g id="Node000024" class="node">
<title>Node24</title>
<g id="a_Node000024"><a xlink:href="_vars_8h.html" target="_top" xlink:title=" ">
<polygon fill="white" stroke="#666666" points="533.88,-295.5 490.12,-295.5 490.12,-276.25 533.88,-276.25 533.88,-295.5"/>
<text xml:space="preserve" text-anchor="middle" x="512" y="-282" font-family="Helvetica,sans-Serif" font-size="10.00">Vars.h</text>
</a>
</g>
</g>
<!-- Node2&#45;&gt;Node24 -->
<g id="edge39_Node000002_Node000024" class="edge">
<title>Node2&#45;&gt;Node24</title>
<g id="a_edge39_Node000002_Node000024"><a xlink:title=" ">
<path fill="none" stroke="#63b8ff" d="M532.87,-331.33C529.67,-324.51 525.11,-314.81 521.07,-306.2"/>
<polygon fill="#63b8ff" stroke="#63b8ff" points="524.28,-304.79 516.86,-297.23 517.94,-307.77 524.28,-304.79"/>
</a>
</g>
</g>
<!-- Node4 -->
<g id="Node000004" class="node">
<title>Node4</title>
<g id="a_Node000004"><a xlink:title=" ">
<polygon fill="#e0e0e0" stroke="#999999" points="620.12,-19.25 571.88,-19.25 571.88,0 620.12,0 620.12,-19.25"/>
<text xml:space="preserve" text-anchor="middle" x="596" y="-5.75" font-family="Helvetica,sans-Serif" font-size="10.00">string.h</text>
</a>
</g>
</g>
<!-- Node3&#45;&gt;Node4 -->
<g id="edge3_Node000003_Node000004" class="edge">
<title>Node3&#45;&gt;Node4</title>
<g id="a_edge3_Node000003_Node000004"><a xlink:title=" ">
<path fill="none" stroke="#63b8ff" d="M649.97,-54.84C640.58,-47.15 626.85,-35.9 615.59,-26.68"/>
<polygon fill="#63b8ff" stroke="#63b8ff" points="617.99,-24.11 608.03,-20.48 613.55,-29.53 617.99,-24.11"/>
</a>
</g>
</g>
<!-- Node5 -->
<g id="Node000005" class="node">
<title>Node5</title>
<g id="a_Node000005"><a xlink:title=" ">
<polygon fill="#e0e0e0" stroke="#999999" points="683.62,-19.25 638.38,-19.25 638.38,0 683.62,0 683.62,-19.25"/>
<text xml:space="preserve" text-anchor="middle" x="661" y="-5.75" font-family="Helvetica,sans-Serif" font-size="10.00">chrono</text>
</a>
</g>
</g>
<!-- Node3&#45;&gt;Node5 -->
<g id="edge4_Node000003_Node000005" class="edge">
<title>Node3&#45;&gt;Node5</title>
<g id="a_edge4_Node000003_Node000005"><a xlink:title=" ">
<path fill="none" stroke="#63b8ff" d="M661,-55.08C661,-48.57 661,-39.42 661,-31.12"/>
<polygon fill="#63b8ff" stroke="#63b8ff" points="664.5,-31.12 661,-21.12 657.5,-31.12 664.5,-31.12"/>
</a>
</g>
</g>
<!-- Node6 -->
<g id="Node000006" class="node">
<title>Node6</title>
<g id="a_Node000006"><a xlink:title=" ">
<polygon fill="#e0e0e0" stroke="#999999" points="754.75,-19.25 701.25,-19.25 701.25,0 754.75,0 754.75,-19.25"/>
<text xml:space="preserve" text-anchor="middle" x="728" y="-5.75" font-family="Helvetica,sans-Serif" font-size="10.00">iostream</text>
</a>
</g>
</g>
<!-- Node3&#45;&gt;Node6 -->
<g id="edge5_Node000003_Node000006" class="edge">
<title>Node3&#45;&gt;Node6</title>
<g id="a_edge5_Node000003_Node000006"><a xlink:title=" ">
<path fill="none" stroke="#63b8ff" d="M672.37,-54.84C682.05,-47.15 696.2,-35.9 707.81,-26.68"/>
<polygon fill="#63b8ff" stroke="#63b8ff" points="709.97,-29.43 715.62,-20.47 705.61,-23.95 709.97,-29.43"/>
</a>
</g>
</g>
<!-- Node7&#45;&gt;Node3 -->
<g id="edge7_Node000007_Node000003" class="edge">
<title>Node7&#45;&gt;Node3</title>
<g id="a_edge7_Node000007_Node000003"><a xlink:title=" ">
<path fill="none" stroke="#63b8ff" d="M750.33,-277.76C783.59,-269.09 826.58,-251.66 814,-221 787.76,-157.02 720.97,-105.31 684.93,-80.97"/>
<polygon fill="#63b8ff" stroke="#63b8ff" points="687.18,-78.26 676.9,-75.68 683.32,-84.11 687.18,-78.26"/>
</a>
</g>
</g>
<!-- Node8 -->
<g id="Node000008" class="node">
<title>Node8</title>
<g id="a_Node000008"><a xlink:href="_status_handler_8h.html" target="_top" xlink:title=" ">
<polygon fill="white" stroke="#666666" points="675.88,-240.25 590.12,-240.25 590.12,-221 675.88,-221 675.88,-240.25"/>
<text xml:space="preserve" text-anchor="middle" x="633" y="-226.75" font-family="Helvetica,sans-Serif" font-size="10.00">StatusHandler.h</text>
</a>
</g>
</g>
<!-- Node7&#45;&gt;Node8 -->
<g id="edge8_Node000007_Node000008" class="edge">
<title>Node7&#45;&gt;Node8</title>
<g id="a_edge8_Node000007_Node000008"><a xlink:title=" ">
<path fill="none" stroke="#63b8ff" d="M701.09,-275.84C688.84,-267.89 670.75,-256.14 656.29,-246.75"/>
<polygon fill="#63b8ff" stroke="#63b8ff" points="658.54,-244.04 648.25,-241.53 654.73,-249.91 658.54,-244.04"/>
</a>
</g>
</g>
<!-- Node11 -->
<g id="Node000011" class="node">
<title>Node11</title>
<g id="a_Node000011"><a xlink:title=" ">
<polygon fill="#e0e0e0" stroke="#999999" points="735.75,-240.25 694.25,-240.25 694.25,-221 735.75,-221 735.75,-240.25"/>
<text xml:space="preserve" text-anchor="middle" x="715" y="-226.75" font-family="Helvetica,sans-Serif" font-size="10.00">Esp.h</text>
</a>
</g>
</g>
<!-- Node7&#45;&gt;Node11 -->
<g id="edge14_Node000007_Node000011" class="edge">
<title>Node7&#45;&gt;Node11</title>
<g id="a_edge14_Node000007_Node000011"><a xlink:title=" ">
<path fill="none" stroke="#63b8ff" d="M715,-276.08C715,-269.57 715,-260.42 715,-252.12"/>
<polygon fill="#63b8ff" stroke="#63b8ff" points="718.5,-252.12 715,-242.12 711.5,-252.12 718.5,-252.12"/>
</a>
</g>
</g>
<!-- Node12 -->
<g id="Node000012" class="node">
<title>Node12</title>
<g id="a_Node000012"><a xlink:title=" ">
<polygon fill="#e0e0e0" stroke="#999999" points="804.62,-240.25 753.38,-240.25 753.38,-221 804.62,-221 804.62,-240.25"/>
<text xml:space="preserve" text-anchor="middle" x="779" y="-226.75" font-family="Helvetica,sans-Serif" font-size="10.00">memory</text>
</a>
</g>
</g>
<!-- Node7&#45;&gt;Node12 -->
<g id="edge15_Node000007_Node000012" class="edge">
<title>Node7&#45;&gt;Node12</title>
<g id="a_edge15_Node000007_Node000012"><a xlink:title=" ">
<path fill="none" stroke="#63b8ff" d="M725.86,-275.84C735.11,-268.15 748.62,-256.9 759.71,-247.68"/>
<polygon fill="#63b8ff" stroke="#63b8ff" points="761.69,-250.58 767.14,-241.49 757.21,-245.2 761.69,-250.58"/>
</a>
</g>
</g>
<!-- Node8&#45;&gt;Node3 -->
<g id="edge9_Node000008_Node000003" class="edge">
<title>Node8&#45;&gt;Node3</title>
<g id="a_edge9_Node000008_Node000003"><a xlink:title=" ">
<path fill="none" stroke="#63b8ff" d="M636.41,-220.53C639.61,-211.6 644.32,-197.55 647,-185 654.31,-150.81 658.05,-110.22 659.76,-86.34"/>
<polygon fill="#63b8ff" stroke="#63b8ff" points="663.25,-86.65 660.42,-76.45 656.26,-86.19 663.25,-86.65"/>
</a>
</g>
</g>
<!-- Node8&#45;&gt;Node9 -->
<g id="edge10_Node000008_Node000009" class="edge">
<title>Node8&#45;&gt;Node9</title>
<g id="a_edge10_Node000008_Node000009"><a xlink:title=" ">
<path fill="none" stroke="#63b8ff" d="M625.24,-220.83C618.81,-213.55 609.49,-202.98 601.54,-193.98"/>
<polygon fill="#63b8ff" stroke="#63b8ff" points="604.17,-191.68 594.93,-186.49 598.92,-196.31 604.17,-191.68"/>
</a>
</g>
</g>
<!-- Node10 -->
<g id="Node000010" class="node">
<title>Node10</title>
<g id="a_Node000010"><a xlink:title=" ">
<polygon fill="#e0e0e0" stroke="#999999" points="526.5,-129.75 483.5,-129.75 483.5,-110.5 526.5,-110.5 526.5,-129.75"/>
<text xml:space="preserve" text-anchor="middle" x="505" y="-116.25" font-family="Helvetica,sans-Serif" font-size="10.00">vector</text>
</a>
</g>
</g>
<!-- Node8&#45;&gt;Node10 -->
<g id="edge13_Node000008_Node000010" class="edge">
<title>Node8&#45;&gt;Node10</title>
<g id="a_edge13_Node000008_Node000010"><a xlink:title=" ">
<path fill="none" stroke="#63b8ff" d="M635.23,-220.75C638.04,-207.38 641.14,-181.92 629,-165.75 607.75,-137.45 566.91,-127.05 537.91,-123.26"/>
<polygon fill="#63b8ff" stroke="#63b8ff" points="538.5,-119.81 528.18,-122.2 537.74,-126.76 538.5,-119.81"/>
</a>
</g>
</g>
<!-- Node9&#45;&gt;Node3 -->
<g id="edge11_Node000009_Node000003" class="edge">
<title>Node9&#45;&gt;Node3</title>
<g id="a_edge11_Node000009_Node000003"><a xlink:title=" ">
<path fill="none" stroke="#63b8ff" d="M592.14,-165.5C604.39,-147.77 632.09,-107.69 648.38,-84.13"/>
<polygon fill="#63b8ff" stroke="#63b8ff" points="651.11,-86.34 653.92,-76.12 645.35,-82.36 651.11,-86.34"/>
</a>
</g>
</g>
<!-- Node9&#45;&gt;Node10 -->
<g id="edge12_Node000009_Node000010" class="edge">
<title>Node9&#45;&gt;Node10</title>
<g id="a_edge12_Node000009_Node000010"><a xlink:title=" ">
<path fill="none" stroke="#63b8ff" d="M572.26,-165.34C560.27,-157.46 542.63,-145.86 528.42,-136.52"/>
<polygon fill="#63b8ff" stroke="#63b8ff" points="530.35,-133.6 520.07,-131.03 526.51,-139.45 530.35,-133.6"/>
</a>
</g>
</g>
<!-- Node13&#45;&gt;Node8 -->
<g id="edge22_Node000013_Node000008" class="edge">
<title>Node13&#45;&gt;Node8</title>
<g id="a_edge22_Node000013_Node000008"><a xlink:title=" ">
<path fill="none" stroke="#63b8ff" d="M460.28,-275.84C495.1,-266.93 548.5,-253.26 586.71,-243.48"/>
<polygon fill="#63b8ff" stroke="#63b8ff" points="587.26,-246.95 596.08,-241.08 585.52,-240.17 587.26,-246.95"/>
</a>
</g>
</g>
<!-- Node14 -->
<g id="Node000014" class="node">
<title>Node14</title>
<g id="a_Node000014"><a xlink:href="_config_handler_8h.html" target="_top" xlink:title=" ">
<polygon fill="white" stroke="#666666" points="495.88,-240.25 410.12,-240.25 410.12,-221 495.88,-221 495.88,-240.25"/>
<text xml:space="preserve" text-anchor="middle" x="453" y="-226.75" font-family="Helvetica,sans-Serif" font-size="10.00">ConfigHandler.h</text>
</a>
</g>
</g>
<!-- Node13&#45;&gt;Node14 -->
<g id="edge18_Node000013_Node000014" class="edge">
<title>Node13&#45;&gt;Node14</title>
<g id="a_edge18_Node000013_Node000014"><a xlink:title=" ">
<path fill="none" stroke="#63b8ff" d="M429.62,-276.08C433.25,-269.19 438.43,-259.34 442.99,-250.66"/>
<polygon fill="#63b8ff" stroke="#63b8ff" points="446.02,-252.43 447.57,-241.95 439.82,-249.17 446.02,-252.43"/>
</a>
</g>
</g>
<!-- Node15 -->
<g id="Node000015" class="node">
<title>Node15</title>
<g id="a_Node000015"><a xlink:href="_event_handler_8h.html" target="_top" xlink:title=" ">
<polygon fill="white" stroke="#666666" points="325.38,-240.25 242.62,-240.25 242.62,-221 325.38,-221 325.38,-240.25"/>
<text xml:space="preserve" text-anchor="middle" x="284" y="-226.75" font-family="Helvetica,sans-Serif" font-size="10.00">EventHandler.h</text>
</a>
</g>
</g>
<!-- Node13&#45;&gt;Node15 -->
<g id="edge23_Node000013_Node000015" class="edge">
<title>Node13&#45;&gt;Node15</title>
<g id="a_edge23_Node000013_Node000015"><a xlink:title=" ">
<path fill="none" stroke="#63b8ff" d="M401.08,-275.84C378.5,-267.31 344.36,-254.42 318.77,-244.76"/>
<polygon fill="#63b8ff" stroke="#63b8ff" points="320.04,-241.5 309.45,-241.24 317.57,-248.04 320.04,-241.5"/>
</a>
</g>
</g>
<!-- Node21 -->
<g id="Node000021" class="node">
<title>Node21</title>
<g id="a_Node000021"><a xlink:href="_msgs_8h.html" target="_top" xlink:title=" ">
<polygon fill="white" stroke="#666666" points="392.12,-240.25 343.88,-240.25 343.88,-221 392.12,-221 392.12,-240.25"/>
<text xml:space="preserve" text-anchor="middle" x="368" y="-226.75" font-family="Helvetica,sans-Serif" font-size="10.00">Msgs.h</text>
</a>
</g>
</g>
<!-- Node13&#45;&gt;Node21 -->
<g id="edge34_Node000013_Node000021" class="edge">
<title>Node13&#45;&gt;Node21</title>
<g id="a_edge34_Node000013_Node000021"><a xlink:title=" ">
<path fill="none" stroke="#63b8ff" d="M415.33,-275.84C407.26,-268.3 395.53,-257.35 385.78,-248.23"/>
<polygon fill="#63b8ff" stroke="#63b8ff" points="388.33,-245.83 378.63,-241.56 383.55,-250.94 388.33,-245.83"/>
</a>
</g>
</g>
<!-- Node14&#45;&gt;Node3 -->
<g id="edge19_Node000014_Node000003" class="edge">
<title>Node14&#45;&gt;Node3</title>
<g id="a_edge19_Node000014_Node000003"><a xlink:title=" ">
<path fill="none" stroke="#63b8ff" d="M451.61,-220.74C448.73,-198.81 444.63,-141.68 474,-110.5 493.54,-89.75 570.26,-76.82 619.15,-70.52"/>
<polygon fill="#63b8ff" stroke="#63b8ff" points="619.33,-74.02 628.83,-69.32 618.47,-67.08 619.33,-74.02"/>
</a>
</g>
</g>
<!-- Node14&#45;&gt;Node9 -->
<g id="edge20_Node000014_Node000009" class="edge">
<title>Node14&#45;&gt;Node9</title>
<g id="a_edge20_Node000014_Node000009"><a xlink:title=" ">
<path fill="none" stroke="#63b8ff" d="M475.56,-220.59C496.77,-212.1 528.77,-199.29 552.88,-189.64"/>
<polygon fill="#63b8ff" stroke="#63b8ff" points="553.94,-192.98 561.92,-186.02 551.34,-186.48 553.94,-192.98"/>
</a>
</g>
</g>
<!-- Node14&#45;&gt;Node10 -->
<g id="edge21_Node000014_Node000010" class="edge">
<title>Node14&#45;&gt;Node10</title>
<g id="a_edge21_Node000014_Node000010"><a xlink:title=" ">
<path fill="none" stroke="#63b8ff" d="M457.26,-220.75C465.64,-203.26 484.44,-164.02 495.79,-140.34"/>
<polygon fill="#63b8ff" stroke="#63b8ff" points="498.87,-142.02 500.03,-131.49 492.55,-139 498.87,-142.02"/>
</a>
</g>
</g>
<!-- Node15&#45;&gt;Node3 -->
<g id="edge24_Node000015_Node000003" class="edge">
<title>Node15&#45;&gt;Node3</title>
<g id="a_edge24_Node000015_Node000003"><a xlink:title=" ">
<path fill="none" stroke="#63b8ff" d="M298.16,-220.54C311.99,-211.63 333.57,-197.58 352,-185 399.26,-152.74 404.67,-133.63 457,-110.5 510.04,-87.05 576.45,-75.48 618.8,-70.1"/>
<polygon fill="#63b8ff" stroke="#63b8ff" points="619.07,-73.6 628.58,-68.93 618.23,-66.65 619.07,-73.6"/>
</a>
</g>
</g>
<!-- Node15&#45;&gt;Node10 -->
<g id="edge26_Node000015_Node000010" class="edge">
<title>Node15&#45;&gt;Node10</title>
<g id="a_edge26_Node000015_Node000010"><a xlink:title=" ">
<path fill="none" stroke="#63b8ff" d="M306.12,-220.55C326.94,-211.87 358.88,-198.18 386,-185 418.55,-169.17 455.11,-149.21 479.01,-135.85"/>
<polygon fill="#63b8ff" stroke="#63b8ff" points="480.72,-138.91 487.72,-130.96 477.29,-132.81 480.72,-138.91"/>
</a>
</g>
</g>
<!-- Node16 -->
<g id="Node000016" class="node">
<title>Node16</title>
<g id="a_Node000016"><a xlink:title=" ">
<polygon fill="#e0e0e0" stroke="#999999" points="162,-185 104,-185 104,-165.75 162,-165.75 162,-185"/>
<text xml:space="preserve" text-anchor="middle" x="133" y="-171.5" font-family="Helvetica,sans-Serif" font-size="10.00">functional</text>
</a>
</g>
</g>
<!-- Node15&#45;&gt;Node16 -->
<g id="edge25_Node000015_Node000016" class="edge">
<title>Node15&#45;&gt;Node16</title>
<g id="a_edge25_Node000015_Node000016"><a xlink:title=" ">
<path fill="none" stroke="#63b8ff" d="M258.38,-220.59C233.98,-211.99 196.99,-198.94 169.5,-189.25"/>
<polygon fill="#63b8ff" stroke="#63b8ff" points="170.76,-185.98 160.17,-185.96 168.43,-192.58 170.76,-185.98"/>
</a>
</g>
</g>
<!-- Node17 -->
<g id="Node000017" class="node">
<title>Node17</title>
<g id="a_Node000017"><a xlink:title=" ">
<polygon fill="#e0e0e0" stroke="#999999" points="222.12,-185 179.88,-185 179.88,-165.75 222.12,-165.75 222.12,-185"/>
<text xml:space="preserve" text-anchor="middle" x="201" y="-171.5" font-family="Helvetica,sans-Serif" font-size="10.00">queue</text>
</a>
</g>
</g>
<!-- Node15&#45;&gt;Node17 -->
<g id="edge27_Node000015_Node000017" class="edge">
<title>Node15&#45;&gt;Node17</title>
<g id="a_edge27_Node000015_Node000017"><a xlink:title=" ">
<path fill="none" stroke="#63b8ff" d="M269.92,-220.59C257.52,-212.64 239.21,-200.89 224.57,-191.5"/>
<polygon fill="#63b8ff" stroke="#63b8ff" points="226.73,-188.72 216.42,-186.27 222.95,-194.62 226.73,-188.72"/>
</a>
</g>
</g>
<!-- Node18 -->
<g id="Node000018" class="node">
<title>Node18</title>
<g id="a_Node000018"><a xlink:href="_named_value_table_8h.html" target="_top" xlink:title=" ">
<polygon fill="white" stroke="#666666" points="343.5,-185 240.5,-185 240.5,-165.75 343.5,-165.75 343.5,-185"/>
<text xml:space="preserve" text-anchor="middle" x="292" y="-171.5" font-family="Helvetica,sans-Serif" font-size="10.00">NamedValueTable.h</text>
</a>
</g>
</g>
<!-- Node15&#45;&gt;Node18 -->
<g id="edge28_Node000015_Node000018" class="edge">
<title>Node15&#45;&gt;Node18</title>
<g id="a_edge28_Node000015_Node000018"><a xlink:title=" ">
<path fill="none" stroke="#63b8ff" d="M285.32,-220.83C286.31,-214.24 287.71,-204.96 288.97,-196.57"/>
<polygon fill="#63b8ff" stroke="#63b8ff" points="292.4,-197.26 290.43,-186.86 285.48,-196.22 292.4,-197.26"/>
</a>
</g>
</g>
<!-- Node15&#45;&gt;Node20 -->
<g id="edge33_Node000015_Node000020" class="edge">
<title>Node15&#45;&gt;Node20</title>
<g id="a_edge33_Node000015_Node000020"><a xlink:title=" ">
<path fill="none" stroke="#63b8ff" d="M242.34,-221.58C190.37,-211.27 106.86,-193.7 95,-185 79.9,-173.92 69.7,-154.86 63.71,-140.44"/>
<polygon fill="#63b8ff" stroke="#63b8ff" points="67.14,-139.63 60.32,-131.52 60.6,-142.11 67.14,-139.63"/>
</a>
</g>
</g>
<!-- Node18&#45;&gt;Node10 -->
<g id="edge29_Node000018_Node000010" class="edge">
<title>Node18&#45;&gt;Node10</title>
<g id="a_edge29_Node000018_Node000010"><a xlink:title=" ">
<path fill="none" stroke="#63b8ff" d="M328.13,-165.34C368.53,-155.24 433.39,-139.03 472.33,-129.29"/>
<polygon fill="#63b8ff" stroke="#63b8ff" points="472.73,-132.8 481.59,-126.98 471.04,-126.01 472.73,-132.8"/>
</a>
</g>
</g>
<!-- Node19 -->
<g id="Node000019" class="node">
<title>Node19</title>
<g id="a_Node000019"><a xlink:href="_l_s_c_utils_8h.html" target="_top" xlink:title=" ">
<polygon fill="white" stroke="#666666" points="334,-129.75 270,-129.75 270,-110.5 334,-110.5 334,-129.75"/>
<text xml:space="preserve" text-anchor="middle" x="302" y="-116.25" font-family="Helvetica,sans-Serif" font-size="10.00">LSCUtils.h</text>
</a>
</g>
</g>
<!-- Node18&#45;&gt;Node19 -->
<g id="edge30_Node000018_Node000019" class="edge">
<title>Node18&#45;&gt;Node19</title>
<g id="a_edge30_Node000018_Node000019"><a xlink:title=" ">
<path fill="none" stroke="#63b8ff" d="M293.65,-165.58C294.89,-158.99 296.63,-149.71 298.21,-141.32"/>
<polygon fill="#63b8ff" stroke="#63b8ff" points="301.63,-142.07 300.03,-131.6 294.75,-140.78 301.63,-142.07"/>
</a>
</g>
</g>
<!-- Node18&#45;&gt;Node20 -->
<g id="edge32_Node000018_Node000020" class="edge">
<title>Node18&#45;&gt;Node20</title>
<g id="a_edge32_Node000018_Node000020"><a xlink:title=" ">
<path fill="none" stroke="#63b8ff" d="M251.87,-165.28C212.16,-156.28 151.22,-142.48 108.08,-132.7"/>
<polygon fill="#63b8ff" stroke="#63b8ff" points="108.97,-129.31 98.44,-130.52 107.42,-136.14 108.97,-129.31"/>
</a>
</g>
</g>
<!-- Node19&#45;&gt;Node3 -->
<g id="edge31_Node000019_Node000003" class="edge">
<title>Node19&#45;&gt;Node3</title>
<g id="a_edge31_Node000019_Node000003"><a xlink:title=" ">
<path fill="none" stroke="#63b8ff" d="M334.27,-114.12C342.04,-112.92 350.32,-111.66 358,-110.5 450.97,-96.49 560.06,-80.55 618.65,-72.02"/>
<polygon fill="#63b8ff" stroke="#63b8ff" points="619.13,-75.49 628.52,-70.59 618.12,-68.56 619.13,-75.49"/>
</a>
</g>
</g>
<!-- Node22&#45;&gt;Node15 -->
<g id="edge37_Node000022_Node000015" class="edge">
<title>Node22&#45;&gt;Node15</title>
<g id="a_edge37_Node000022_Node000015"><a xlink:title=" ">
<path fill="none" stroke="#63b8ff" d="M303.2,-276.08C300.26,-269.26 296.06,-259.56 292.35,-250.95"/>
<polygon fill="#63b8ff" stroke="#63b8ff" points="295.66,-249.79 288.48,-242 289.23,-252.57 295.66,-249.79"/>
</a>
</g>
</g>
<!-- Node22&#45;&gt;Node21 -->
<g id="edge38_Node000022_Node000021" class="edge">
<title>Node22&#45;&gt;Node21</title>
<g id="a_edge38_Node000022_Node000021"><a xlink:title=" ">
<path fill="none" stroke="#63b8ff" d="M317.35,-275.84C326.08,-268.22 338.79,-257.12 349.3,-247.95"/>
<polygon fill="#63b8ff" stroke="#63b8ff" points="351.43,-250.73 356.66,-241.52 346.83,-245.46 351.43,-250.73"/>
</a>
</g>
</g>
<!-- Node23 -->
<g id="Node000023" class="node">
<title>Node23</title>
<g id="a_Node000023"><a xlink:title=" ">
<polygon fill="#e0e0e0" stroke="#999999" points="224.62,-240.25 173.38,-240.25 173.38,-221 224.62,-221 224.62,-240.25"/>
<text xml:space="preserve" text-anchor="middle" x="199" y="-226.75" font-family="Helvetica,sans-Serif" font-size="10.00">stdarg.h</text>
</a>
</g>
</g>
<!-- Node22&#45;&gt;Node23 -->
<g id="edge36_Node000022_Node000023" class="edge">
<title>Node22&#45;&gt;Node23</title>
<g id="a_edge36_Node000022_Node000023"><a xlink:title=" ">
<path fill="none" stroke="#63b8ff" d="M288.68,-275.84C271.92,-267.58 246.87,-255.23 227.5,-245.68"/>
<polygon fill="#63b8ff" stroke="#63b8ff" points="229.28,-242.65 218.77,-241.37 226.19,-248.93 229.28,-242.65"/>
</a>
</g>
</g>
<!-- Node24&#45;&gt;Node10 -->
<g id="edge41_Node000024_Node000010" class="edge">
<title>Node24&#45;&gt;Node10</title>
<g id="a_edge41_Node000024_Node000010"><a xlink:title=" ">
<path fill="none" stroke="#63b8ff" d="M511.62,-276.07C510.54,-250.75 507.4,-177.25 505.86,-141.34"/>
<polygon fill="#63b8ff" stroke="#63b8ff" points="509.37,-141.33 505.44,-131.48 502.37,-141.62 509.37,-141.33"/>
</a>
</g>
</g>
<!-- Node24&#45;&gt;Node14 -->
<g id="edge40_Node000024_Node000014" class="edge">
<title>Node24&#45;&gt;Node14</title>
<g id="a_edge40_Node000024_Node000014"><a xlink:title=" ">
<path fill="none" stroke="#63b8ff" d="M501.99,-275.84C493.63,-268.3 481.5,-257.35 471.4,-248.23"/>
<polygon fill="#63b8ff" stroke="#63b8ff" points="473.75,-245.64 463.98,-241.54 469.06,-250.84 473.75,-245.64"/>
</a>
</g>
</g>
<!-- Node26 -->
<g id="Node000026" class="node">
<title>Node26</title>
<g id="a_Node000026"><a xlink:href="_input_pin_controller_8h.html" target="_top" xlink:title=" ">
<polygon fill="white" stroke="#666666" points="1000.75,-295.5 899.25,-295.5 899.25,-276.25 1000.75,-276.25 1000.75,-295.5"/>
<text xml:space="preserve" text-anchor="middle" x="950" y="-282" font-family="Helvetica,sans-Serif" font-size="10.00">InputPinController.h</text>
</a>
</g>
</g>
<!-- Node25&#45;&gt;Node26 -->
<g id="edge44_Node000025_Node000026" class="edge">
<title>Node25&#45;&gt;Node26</title>
<g id="a_edge44_Node000025_Node000026"><a xlink:title=" ">
<path fill="none" stroke="#63b8ff" d="M815.59,-331.33C841.8,-322.66 882.13,-309.32 911.78,-299.52"/>
<polygon fill="#63b8ff" stroke="#63b8ff" points="912.73,-302.89 921.13,-296.42 910.54,-296.24 912.73,-302.89"/>
</a>
</g>
</g>
<!-- Node28 -->
<g id="Node000028" class="node">
<title>Node28</title>
<g id="a_Node000028"><a xlink:title=" ">
<polygon fill="#e0e0e0" stroke="#999999" points="1069.25,-295.5 1018.75,-295.5 1018.75,-276.25 1069.25,-276.25 1069.25,-295.5"/>
<text xml:space="preserve" text-anchor="middle" x="1044" y="-282" font-family="Helvetica,sans-Serif" font-size="10.00">Ticker.h</text>
</a>
</g>
</g>
<!-- Node25&#45;&gt;Node28 -->
<g id="edge47_Node000025_Node000028" class="edge">
<title>Node25&#45;&gt;Node28</title>
<g id="a_edge47_Node000025_Node000028"><a xlink:title=" ">
<path fill="none" stroke="#63b8ff" d="M815.72,-333.39C818.51,-332.73 821.31,-332.09 824,-331.5 902.86,-314.16 925.95,-313.85 1007.61,-295.93"/>
<polygon fill="#63b8ff" stroke="#63b8ff" points="1007.94,-299.44 1016.94,-293.86 1006.42,-292.61 1007.94,-299.44"/>
</a>
</g>
</g>
<!-- Node26&#45;&gt;Node3 -->
<g id="edge45_Node000026_Node000003" class="edge">
<title>Node26&#45;&gt;Node3</title>
<g id="a_edge45_Node000026_Node000003"><a xlink:title=" ">
<path fill="none" stroke="#63b8ff" d="M961.73,-275.84C975.72,-263.89 996.23,-241.89 988,-221 963.4,-158.53 943.64,-143.19 885,-110.5 827.37,-78.37 750.02,-69.16 702.93,-66.64"/>
<polygon fill="#63b8ff" stroke="#63b8ff" points="703.3,-63.15 693.16,-66.2 702.99,-70.15 703.3,-63.15"/>
</a>
</g>
</g>
<!-- Node27 -->
<g id="Node000027" class="node">
<title>Node27</title>
<g id="a_Node000027"><a xlink:href="_pin_controller_8h.html" target="_top" xlink:title=" ">
<polygon fill="white" stroke="#666666" points="978.88,-240.25 899.12,-240.25 899.12,-221 978.88,-221 978.88,-240.25"/>
<text xml:space="preserve" text-anchor="middle" x="939" y="-226.75" font-family="Helvetica,sans-Serif" font-size="10.00">PinController.h</text>
</a>
</g>
</g>
<!-- Node26&#45;&gt;Node27 -->
<g id="edge46_Node000026_Node000027" class="edge">
<title>Node26&#45;&gt;Node27</title>
<g id="a_edge46_Node000026_Node000027"><a xlink:title=" ">
<path fill="none" stroke="#63b8ff" d="M948.18,-276.08C946.82,-269.49 944.9,-260.21 943.17,-251.82"/>
<polygon fill="#63b8ff" stroke="#63b8ff" points="946.61,-251.18 941.16,-242.09 939.76,-252.59 946.61,-251.18"/>
</a>
</g>
</g>
</g>
</svg>
