<?xml version="1.0" encoding="UTF-8" standalone="no"?>
<!DOCTYPE svg PUBLIC "-//W3C//DTD SVG 1.1//EN"
 "http://www.w3.org/Graphics/SVG/1.1/DTD/svg11.dtd">
<!-- Generated by graphviz version 15.1.0 (20260618.0150)
 -->
<!-- Title: src/CEventHandler.cpp Pages: 1 -->
<svg width="454pt" height="304pt"
 viewBox="0.00 0.00 454.00 304.00" xmlns="http://www.w3.org/2000/svg" xmlns:xlink="http://www.w3.org/1999/xlink">
<g id="graph0" class="graph" transform="scale(1 1) rotate(0) translate(4 299.5)">
<title>src/CEventHandler.cpp</title>
<!-- Node1 -->
<g id="Node000001" class="node">
<title>Node1</title>
<g id="a_Node000001"><a xlink:title=" ">
<polygon fill="#999999" stroke="#666666" points="419.41,-295.5 302.16,-295.5 302.16,-276.25 419.41,-276.25 419.41,-295.5"/>
<text xml:space="preserve" text-anchor="middle" x="360.78" y="-282" font-family="Helvetica,sans-Serif" font-size="10.00">src/CEventHandler.cpp</text>
</a>
</g>
</g>
<!-- Node2 -->
<g id="Node000002" class="node">
<title>Node2</title>
<g id="a_Node000002"><a xlink:href="_event_handler_8h.html" target="_top" xlink:title=" ">
<polygon fill="white" stroke="#666666" points="193.16,-240.25 110.41,-240.25 110.41,-221 193.16,-221 193.16,-240.25"/>
<text xml:space="preserve" text-anchor="middle" x="151.78" y="-226.75" font-family="Helvetica,sans-Serif" font-size="10.00">EventHandler.h</text>
</a>
</g>
</g>
<!-- Node1&#45;&gt;Node2 -->
<g id="edge1_Node000001_Node000002" class="edge">
<title>Node1&#45;&gt;Node2</title>
<g id="a_edge1_Node000001_Node000002"><a xlink:title=" ">
<path fill="none" stroke="#63b8ff" d="M325.33,-275.84C290.35,-266.93 236.69,-253.26 198.3,-243.48"/>
<polygon fill="#63b8ff" stroke="#63b8ff" points="199.43,-240.15 188.88,-241.08 197.7,-246.94 199.43,-240.15"/>
</a>
</g>
</g>
<!-- Node12 -->
<g id="Node000012" class="node">
<title>Node12</title>
<g id="a_Node000012"><a xlink:href="_development_helper_8h.html" target="_top" xlink:title=" ">
<polygon fill="white" stroke="#666666" points="377.66,-129.75 267.91,-129.75 267.91,-110.5 377.66,-110.5 377.66,-129.75"/>
<text xml:space="preserve" text-anchor="middle" x="322.78" y="-116.25" font-family="Helvetica,sans-Serif" font-size="10.00">DevelopmentHelper.h</text>
</a>
</g>
</g>
<!-- Node1&#45;&gt;Node12 -->
<g id="edge16_Node000001_Node000012" class="edge">
<title>Node1&#45;&gt;Node12</title>
<g id="a_edge16_Node000001_Node000012"><a xlink:title=" ">
<path fill="none" stroke="#63b8ff" d="M358.74,-276.07C352.84,-250.64 335.66,-176.6 327.37,-140.87"/>
<polygon fill="#63b8ff" stroke="#63b8ff" points="330.85,-140.4 325.18,-131.45 324.03,-141.98 330.85,-140.4"/>
</a>
</g>
</g>
<!-- Node13 -->
<g id="Node000013" class="node">
<title>Node13</title>
<g id="a_Node000013"><a xlink:title=" ">
<polygon fill="#e0e0e0" stroke="#999999" points="446.41,-240.25 389.16,-240.25 389.16,-221 446.41,-221 446.41,-240.25"/>
<text xml:space="preserve" text-anchor="middle" x="417.78" y="-226.75" font-family="Helvetica,sans-Serif" font-size="10.00">Arduino.h</text>
</a>
</g>
</g>
<!-- Node1&#45;&gt;Node13 -->
<g id="edge15_Node000001_Node000013" class="edge">
<title>Node1&#45;&gt;Node13</title>
<g id="a_edge15_Node000001_Node000013"><a xlink:title=" ">
<path fill="none" stroke="#63b8ff" d="M370.45,-275.84C378.53,-268.3 390.25,-257.35 400.01,-248.23"/>
<polygon fill="#63b8ff" stroke="#63b8ff" points="402.23,-250.94 407.15,-241.56 397.45,-245.83 402.23,-250.94"/>
</a>
</g>
</g>
<!-- Node3 -->
<g id="Node000003" class="node">
<title>Node3</title>
<g id="a_Node000003"><a xlink:href="_runtime_8h.html" target="_top" xlink:title=" ">
<polygon fill="white" stroke="#666666" points="133.28,-74.5 72.28,-74.5 72.28,-55.25 133.28,-55.25 133.28,-74.5"/>
<text xml:space="preserve" text-anchor="middle" x="102.78" y="-61" font-family="Helvetica,sans-Serif" font-size="10.00">Runtime.h</text>
</a>
</g>
</g>
<!-- Node2&#45;&gt;Node3 -->
<g id="edge2_Node000002_Node000003" class="edge">
<title>Node2&#45;&gt;Node3</title>
<g id="a_edge2_Node000002_Node000003"><a xlink:title=" ">
<path fill="none" stroke="#63b8ff" d="M110.14,-229.26C76.51,-226.49 31.08,-216.6 7.78,-185 -20.62,-146.46 38.62,-102.87 75.78,-80.64"/>
<polygon fill="#63b8ff" stroke="#63b8ff" points="77.37,-83.76 84.27,-75.72 73.86,-77.7 77.37,-83.76"/>
</a>
</g>
</g>
<!-- Node7 -->
<g id="Node000007" class="node">
<title>Node7</title>
<g id="a_Node000007"><a xlink:title=" ">
<polygon fill="#e0e0e0" stroke="#999999" points="74.78,-185 16.78,-185 16.78,-165.75 74.78,-165.75 74.78,-185"/>
<text xml:space="preserve" text-anchor="middle" x="45.78" y="-171.5" font-family="Helvetica,sans-Serif" font-size="10.00">functional</text>
</a>
</g>
</g>
<!-- Node2&#45;&gt;Node7 -->
<g id="edge6_Node000002_Node000007" class="edge">
<title>Node2&#45;&gt;Node7</title>
<g id="a_edge6_Node000002_Node000007"><a xlink:title=" ">
<path fill="none" stroke="#63b8ff" d="M133.8,-220.59C117.43,-212.37 92.99,-200.09 74.02,-190.56"/>
<polygon fill="#63b8ff" stroke="#63b8ff" points="75.71,-187.49 65.21,-186.13 72.57,-193.75 75.71,-187.49"/>
</a>
</g>
</g>
<!-- Node8 -->
<g id="Node000008" class="node">
<title>Node8</title>
<g id="a_Node000008"><a xlink:title=" ">
<polygon fill="#e0e0e0" stroke="#999999" points="135.28,-129.75 92.28,-129.75 92.28,-110.5 135.28,-110.5 135.28,-129.75"/>
<text xml:space="preserve" text-anchor="middle" x="113.78" y="-116.25" font-family="Helvetica,sans-Serif" font-size="10.00">vector</text>
</a>
</g>
</g>
<!-- Node2&#45;&gt;Node8 -->
<g id="edge7_Node000002_Node000008" class="edge">
<title>Node2&#45;&gt;Node8</title>
<g id="a_edge7_Node000002_Node000008"><a xlink:title=" ">
<path fill="none" stroke="#63b8ff" d="M143.96,-220.76C136.91,-212.23 126.89,-198.64 121.78,-185 116.55,-171.03 114.6,-154.26 113.93,-141.41"/>
<polygon fill="#63b8ff" stroke="#63b8ff" points="117.44,-141.52 113.66,-131.63 110.44,-141.72 117.44,-141.52"/>
</a>
</g>
</g>
<!-- Node9 -->
<g id="Node000009" class="node">
<title>Node9</title>
<g id="a_Node000009"><a xlink:title=" ">
<polygon fill="#e0e0e0" stroke="#999999" points="172.91,-185 130.66,-185 130.66,-165.75 172.91,-165.75 172.91,-185"/>
<text xml:space="preserve" text-anchor="middle" x="151.78" y="-171.5" font-family="Helvetica,sans-Serif" font-size="10.00">queue</text>
</a>
</g>
</g>
<!-- Node2&#45;&gt;Node9 -->
<g id="edge8_Node000002_Node000009" class="edge">
<title>Node2&#45;&gt;Node9</title>
<g id="a_edge8_Node000002_Node000009"><a xlink:title=" ">
<path fill="none" stroke="#63b8ff" d="M151.78,-220.83C151.78,-214.32 151.78,-205.17 151.78,-196.87"/>
<polygon fill="#63b8ff" stroke="#63b8ff" points="155.28,-196.87 151.78,-186.87 148.28,-196.87 155.28,-196.87"/>
</a>
</g>
</g>
<!-- Node10 -->
<g id="Node000010" class="node">
<title>Node10</title>
<g id="a_Node000010"><a xlink:href="_named_value_table_8h.html" target="_top" xlink:title=" ">
<polygon fill="white" stroke="#666666" points="294.28,-185 191.28,-185 191.28,-165.75 294.28,-165.75 294.28,-185"/>
<text xml:space="preserve" text-anchor="middle" x="242.78" y="-171.5" font-family="Helvetica,sans-Serif" font-size="10.00">NamedValueTable.h</text>
</a>
</g>
</g>
<!-- Node2&#45;&gt;Node10 -->
<g id="edge9_Node000002_Node000010" class="edge">
<title>Node2&#45;&gt;Node10</title>
<g id="a_edge9_Node000002_Node000010"><a xlink:title=" ">
<path fill="none" stroke="#63b8ff" d="M167.22,-220.59C180.95,-212.56 201.28,-200.66 217.4,-191.23"/>
<polygon fill="#63b8ff" stroke="#63b8ff" points="219.1,-194.29 225.96,-186.22 215.57,-188.25 219.1,-194.29"/>
</a>
</g>
</g>
<!-- Node2&#45;&gt;Node12 -->
<g id="edge14_Node000002_Node000012" class="edge">
<title>Node2&#45;&gt;Node12</title>
<g id="a_edge14_Node000002_Node000012"><a xlink:title=" ">
<path fill="none" stroke="#63b8ff" d="M193.35,-227.99C227.4,-224.43 274.56,-214.12 303.78,-185 315.33,-173.5 319.92,-155.31 321.72,-141.28"/>
<polygon fill="#63b8ff" stroke="#63b8ff" points="325.2,-141.65 322.57,-131.38 318.22,-141.05 325.2,-141.65"/>
</a>
</g>
</g>
<!-- Node4 -->
<g id="Node000004" class="node">
<title>Node4</title>
<g id="a_Node000004"><a xlink:title=" ">
<polygon fill="#e0e0e0" stroke="#999999" points="61.91,-19.25 13.66,-19.25 13.66,0 61.91,0 61.91,-19.25"/>
<text xml:space="preserve" text-anchor="middle" x="37.78" y="-5.75" font-family="Helvetica,sans-Serif" font-size="10.00">string.h</text>
</a>
</g>
</g>
<!-- Node3&#45;&gt;Node4 -->
<g id="edge3_Node000003_Node000004" class="edge">
<title>Node3&#45;&gt;Node4</title>
<g id="a_edge3_Node000003_Node000004"><a xlink:title=" ">
<path fill="none" stroke="#63b8ff" d="M91.76,-54.84C82.36,-47.15 68.63,-35.9 57.38,-26.68"/>
<polygon fill="#63b8ff" stroke="#63b8ff" points="59.77,-24.11 49.82,-20.48 55.34,-29.53 59.77,-24.11"/>
</a>
</g>
</g>
<!-- Node5 -->
<g id="Node000005" class="node">
<title>Node5</title>
<g id="a_Node000005"><a xlink:title=" ">
<polygon fill="#e0e0e0" stroke="#999999" points="125.41,-19.25 80.16,-19.25 80.16,0 125.41,0 125.41,-19.25"/>
<text xml:space="preserve" text-anchor="middle" x="102.78" y="-5.75" font-family="Helvetica,sans-Serif" font-size="10.00">chrono</text>
</a>
</g>
</g>
<!-- Node3&#45;&gt;Node5 -->
<g id="edge4_Node000003_Node000005" class="edge">
<title>Node3&#45;&gt;Node5</title>
<g id="a_edge4_Node000003_Node000005"><a xlink:title=" ">
<path fill="none" stroke="#63b8ff" d="M102.78,-55.08C102.78,-48.57 102.78,-39.42 102.78,-31.12"/>
<polygon fill="#63b8ff" stroke="#63b8ff" points="106.28,-31.12 102.78,-21.12 99.28,-31.12 106.28,-31.12"/>
</a>
</g>
</g>
<!-- Node6 -->
<g id="Node000006" class="node">
<title>Node6</title>
<g id="a_Node000006"><a xlink:title=" ">
<polygon fill="#e0e0e0" stroke="#999999" points="196.53,-19.25 143.03,-19.25 143.03,0 196.53,0 196.53,-19.25"/>
<text xml:space="preserve" text-anchor="middle" x="169.78" y="-5.75" font-family="Helvetica,sans-Serif" font-size="10.00">iostream</text>
</a>
</g>
</g>
<!-- Node3&#45;&gt;Node6 -->
<g id="edge5_Node000003_Node000006" class="edge">
<title>Node3&#45;&gt;Node6</title>
<g id="a_edge5_Node000003_Node000006"><a xlink:title=" ">
<path fill="none" stroke="#63b8ff" d="M114.15,-54.84C123.83,-47.15 137.98,-35.9 149.59,-26.68"/>
<polygon fill="#63b8ff" stroke="#63b8ff" points="151.75,-29.43 157.4,-20.47 147.39,-23.95 151.75,-29.43"/>
</a>
</g>
</g>
<!-- Node10&#45;&gt;Node8 -->
<g id="edge10_Node000010_Node000008" class="edge">
<title>Node10&#45;&gt;Node8</title>
<g id="a_edge10_Node000010_Node000008"><a xlink:title=" ">
<path fill="none" stroke="#63b8ff" d="M220.9,-165.34C200.42,-156.89 169.57,-144.15 146.23,-134.52"/>
<polygon fill="#63b8ff" stroke="#63b8ff" points="147.75,-131.36 137.17,-130.78 145.08,-137.83 147.75,-131.36"/>
</a>
</g>
</g>
<!-- Node11 -->
<g id="Node000011" class="node">
<title>Node11</title>
<g id="a_Node000011"><a xlink:href="_l_s_c_utils_8h.html" target="_top" xlink:title=" ">
<polygon fill="white" stroke="#666666" points="228.78,-129.75 164.78,-129.75 164.78,-110.5 228.78,-110.5 228.78,-129.75"/>
<text xml:space="preserve" text-anchor="middle" x="196.78" y="-116.25" font-family="Helvetica,sans-Serif" font-size="10.00">LSCUtils.h</text>
</a>
</g>
</g>
<!-- Node10&#45;&gt;Node11 -->
<g id="edge11_Node000010_Node000011" class="edge">
<title>Node10&#45;&gt;Node11</title>
<g id="a_edge11_Node000010_Node000011"><a xlink:title=" ">
<path fill="none" stroke="#63b8ff" d="M235.19,-165.58C228.9,-158.3 219.77,-147.73 211.99,-138.73"/>
<polygon fill="#63b8ff" stroke="#63b8ff" points="214.72,-136.53 205.53,-131.25 209.42,-141.11 214.72,-136.53"/>
</a>
</g>
</g>
<!-- Node10&#45;&gt;Node12 -->
<g id="edge13_Node000010_Node000012" class="edge">
<title>Node10&#45;&gt;Node12</title>
<g id="a_edge13_Node000010_Node000012"><a xlink:title=" ">
<path fill="none" stroke="#63b8ff" d="M256.35,-165.34C268.19,-157.46 285.62,-145.86 299.65,-136.52"/>
<polygon fill="#63b8ff" stroke="#63b8ff" points="301.5,-139.5 307.89,-131.04 297.62,-133.67 301.5,-139.5"/>
</a>
</g>
</g>
<!-- Node11&#45;&gt;Node3 -->
<g id="edge12_Node000011_Node000003" class="edge">
<title>Node11&#45;&gt;Node3</title>
<g id="a_edge12_Node000011_Node000003"><a xlink:title=" ">
<path fill="none" stroke="#63b8ff" d="M180.84,-110.09C166.52,-101.98 145.25,-89.93 128.53,-80.46"/>
<polygon fill="#63b8ff" stroke="#63b8ff" points="130.55,-77.58 120.12,-75.7 127.1,-83.67 130.55,-77.58"/>
</a>
</g>
</g>
</g>
</svg>
