<?xml version="1.0" encoding="UTF-8" standalone="no"?>
<!DOCTYPE svg PUBLIC "-//W3C//DTD SVG 1.1//EN"
 "http://www.w3.org/Graphics/SVG/1.1/DTD/svg11.dtd">
<!-- Generated by graphviz version 15.1.0 (20260618.0150)
 -->
<!-- Title: src/CFileSystem.cpp Pages: 1 -->
<svg width="429pt" height="304pt"
 viewBox="0.00 0.00 429.00 304.00" xmlns="http://www.w3.org/2000/svg" xmlns:xlink="http://www.w3.org/1999/xlink">
<g id="graph0" class="graph" transform="scale(1 1) rotate(0) translate(4 299.5)">
<title>src/CFileSystem.cpp</title>
<!-- Node1 -->
<g id="Node000001" class="node">
<title>Node1</title>
<g id="a_Node000001"><a xlink:title=" ">
<polygon fill="#999999" stroke="#666666" points="289.62,-295.5 181.38,-295.5 181.38,-276.25 289.62,-276.25 289.62,-295.5"/>
<text xml:space="preserve" text-anchor="middle" x="235.5" y="-282" font-family="Helvetica,sans-Serif" font-size="10.00">src/CFileSystem.cpp</text>
</a>
</g>
</g>
<!-- Node2 -->
<g id="Node000002" class="node">
<title>Node2</title>
<g id="a_Node000002"><a xlink:href="_json_node_8h.html" target="_top" xlink:title=" ">
<polygon fill="white" stroke="#666666" points="237.75,-129.75 169.25,-129.75 169.25,-110.5 237.75,-110.5 237.75,-129.75"/>
<text xml:space="preserve" text-anchor="middle" x="203.5" y="-116.25" font-family="Helvetica,sans-Serif" font-size="10.00">JsonNode.h</text>
</a>
</g>
</g>
<!-- Node1&#45;&gt;Node2 -->
<g id="edge1_Node000001_Node000002" class="edge">
<title>Node1&#45;&gt;Node2</title>
<g id="a_edge1_Node000001_Node000002"><a xlink:title=" ">
<path fill="none" stroke="#63b8ff" d="M233.69,-275.99C231.85,-266.99 228.95,-252.66 226.5,-240.25 219.62,-205.39 211.82,-164.75 207.3,-141.08"/>
<polygon fill="#63b8ff" stroke="#63b8ff" points="210.8,-140.75 205.49,-131.58 203.92,-142.06 210.8,-140.75"/>
</a>
</g>
</g>
<!-- Node8 -->
<g id="Node000008" class="node">
<title>Node8</title>
<g id="a_Node000008"><a xlink:href="_file_system_8h.html" target="_top" xlink:title=" ">
<polygon fill="white" stroke="#666666" points="138.38,-240.25 64.62,-240.25 64.62,-221 138.38,-221 138.38,-240.25"/>
<text xml:space="preserve" text-anchor="middle" x="101.5" y="-226.75" font-family="Helvetica,sans-Serif" font-size="10.00">FileSystem.h</text>
</a>
</g>
</g>
<!-- Node1&#45;&gt;Node8 -->
<g id="edge7_Node000001_Node000008" class="edge">
<title>Node1&#45;&gt;Node8</title>
<g id="a_edge7_Node000001_Node000008"><a xlink:title=" ">
<path fill="none" stroke="#63b8ff" d="M212.77,-275.84C191.4,-267.35 159.16,-254.54 134.87,-244.89"/>
<polygon fill="#63b8ff" stroke="#63b8ff" points="136.34,-241.7 125.75,-241.26 133.75,-248.21 136.34,-241.7"/>
</a>
</g>
</g>
<!-- Node11 -->
<g id="Node000011" class="node">
<title>Node11</title>
<g id="a_Node000011"><a xlink:title=" ">
<polygon fill="#e0e0e0" stroke="#999999" points="293.5,-240.25 235.5,-240.25 235.5,-221 293.5,-221 293.5,-240.25"/>
<text xml:space="preserve" text-anchor="middle" x="264.5" y="-226.75" font-family="Helvetica,sans-Serif" font-size="10.00">LittleFS.h</text>
</a>
</g>
</g>
<!-- Node1&#45;&gt;Node11 -->
<g id="edge14_Node000001_Node000011" class="edge">
<title>Node1&#45;&gt;Node11</title>
<g id="a_edge14_Node000001_Node000011"><a xlink:title=" ">
<path fill="none" stroke="#63b8ff" d="M240.29,-276.08C244.04,-269.19 249.41,-259.34 254.13,-250.66"/>
<polygon fill="#63b8ff" stroke="#63b8ff" points="257.17,-252.39 258.88,-241.94 251.03,-249.05 257.17,-252.39"/>
</a>
</g>
</g>
<!-- Node12 -->
<g id="Node000012" class="node">
<title>Node12</title>
<g id="a_Node000012"><a xlink:href="_development_helper_8h.html" target="_top" xlink:title=" ">
<polygon fill="white" stroke="#666666" points="421.38,-240.25 311.62,-240.25 311.62,-221 421.38,-221 421.38,-240.25"/>
<text xml:space="preserve" text-anchor="middle" x="366.5" y="-226.75" font-family="Helvetica,sans-Serif" font-size="10.00">DevelopmentHelper.h</text>
</a>
</g>
</g>
<!-- Node1&#45;&gt;Node12 -->
<g id="edge15_Node000001_Node000012" class="edge">
<title>Node1&#45;&gt;Node12</title>
<g id="a_edge15_Node000001_Node000012"><a xlink:title=" ">
<path fill="none" stroke="#63b8ff" d="M257.72,-275.84C278.52,-267.39 309.85,-254.65 333.55,-245.02"/>
<polygon fill="#63b8ff" stroke="#63b8ff" points="334.82,-248.28 342.77,-241.27 332.18,-241.8 334.82,-248.28"/>
</a>
</g>
</g>
<!-- Node3 -->
<g id="Node000003" class="node">
<title>Node3</title>
<g id="a_Node000003"><a xlink:href="_runtime_8h.html" target="_top" xlink:title=" ">
<polygon fill="white" stroke="#666666" points="134,-74.5 73,-74.5 73,-55.25 134,-55.25 134,-74.5"/>
<text xml:space="preserve" text-anchor="middle" x="103.5" y="-61" font-family="Helvetica,sans-Serif" font-size="10.00">Runtime.h</text>
</a>
</g>
</g>
<!-- Node2&#45;&gt;Node3 -->
<g id="edge2_Node000002_Node000003" class="edge">
<title>Node2&#45;&gt;Node3</title>
<g id="a_edge2_Node000002_Node000003"><a xlink:title=" ">
<path fill="none" stroke="#63b8ff" d="M186.54,-110.09C171.24,-101.94 148.47,-89.82 130.64,-80.33"/>
<polygon fill="#63b8ff" stroke="#63b8ff" points="132.35,-77.27 121.88,-75.66 129.06,-83.45 132.35,-77.27"/>
</a>
</g>
</g>
<!-- Node7 -->
<g id="Node000007" class="node">
<title>Node7</title>
<g id="a_Node000007"><a xlink:title=" ">
<polygon fill="#e0e0e0" stroke="#999999" points="210,-74.5 167,-74.5 167,-55.25 210,-55.25 210,-74.5"/>
<text xml:space="preserve" text-anchor="middle" x="188.5" y="-61" font-family="Helvetica,sans-Serif" font-size="10.00">vector</text>
</a>
</g>
</g>
<!-- Node2&#45;&gt;Node7 -->
<g id="edge6_Node000002_Node000007" class="edge">
<title>Node2&#45;&gt;Node7</title>
<g id="a_edge6_Node000002_Node000007"><a xlink:title=" ">
<path fill="none" stroke="#63b8ff" d="M201.02,-110.33C199.15,-103.67 196.49,-94.24 194.11,-85.78"/>
<polygon fill="#63b8ff" stroke="#63b8ff" points="197.52,-84.99 191.44,-76.32 190.78,-86.89 197.52,-84.99"/>
</a>
</g>
</g>
<!-- Node4 -->
<g id="Node000004" class="node">
<title>Node4</title>
<g id="a_Node000004"><a xlink:title=" ">
<polygon fill="#e0e0e0" stroke="#999999" points="62.62,-19.25 14.38,-19.25 14.38,0 62.62,0 62.62,-19.25"/>
<text xml:space="preserve" text-anchor="middle" x="38.5" y="-5.75" font-family="Helvetica,sans-Serif" font-size="10.00">string.h</text>
</a>
</g>
</g>
<!-- Node3&#45;&gt;Node4 -->
<g id="edge3_Node000003_Node000004" class="edge">
<title>Node3&#45;&gt;Node4</title>
<g id="a_edge3_Node000003_Node000004"><a xlink:title=" ">
<path fill="none" stroke="#63b8ff" d="M92.47,-54.84C83.08,-47.15 69.35,-35.9 58.09,-26.68"/>
<polygon fill="#63b8ff" stroke="#63b8ff" points="60.49,-24.11 50.53,-20.48 56.05,-29.53 60.49,-24.11"/>
</a>
</g>
</g>
<!-- Node5 -->
<g id="Node000005" class="node">
<title>Node5</title>
<g id="a_Node000005"><a xlink:title=" ">
<polygon fill="#e0e0e0" stroke="#999999" points="126.12,-19.25 80.88,-19.25 80.88,0 126.12,0 126.12,-19.25"/>
<text xml:space="preserve" text-anchor="middle" x="103.5" y="-5.75" font-family="Helvetica,sans-Serif" font-size="10.00">chrono</text>
</a>
</g>
</g>
<!-- Node3&#45;&gt;Node5 -->
<g id="edge4_Node000003_Node000005" class="edge">
<title>Node3&#45;&gt;Node5</title>
<g id="a_edge4_Node000003_Node000005"><a xlink:title=" ">
<path fill="none" stroke="#63b8ff" d="M103.5,-55.08C103.5,-48.57 103.5,-39.42 103.5,-31.12"/>
<polygon fill="#63b8ff" stroke="#63b8ff" points="107,-31.12 103.5,-21.12 100,-31.12 107,-31.12"/>
</a>
</g>
</g>
<!-- Node6 -->
<g id="Node000006" class="node">
<title>Node6</title>
<g id="a_Node000006"><a xlink:title=" ">
<polygon fill="#e0e0e0" stroke="#999999" points="197.25,-19.25 143.75,-19.25 143.75,0 197.25,0 197.25,-19.25"/>
<text xml:space="preserve" text-anchor="middle" x="170.5" y="-5.75" font-family="Helvetica,sans-Serif" font-size="10.00">iostream</text>
</a>
</g>
</g>
<!-- Node3&#45;&gt;Node6 -->
<g id="edge5_Node000003_Node000006" class="edge">
<title>Node3&#45;&gt;Node6</title>
<g id="a_edge5_Node000003_Node000006"><a xlink:title=" ">
<path fill="none" stroke="#63b8ff" d="M114.87,-54.84C124.55,-47.15 138.7,-35.9 150.31,-26.68"/>
<polygon fill="#63b8ff" stroke="#63b8ff" points="152.47,-29.43 158.12,-20.47 148.11,-23.95 152.47,-29.43"/>
</a>
</g>
</g>
<!-- Node8&#45;&gt;Node3 -->
<g id="edge9_Node000008_Node000003" class="edge">
<title>Node8&#45;&gt;Node3</title>
<g id="a_edge9_Node000008_Node000003"><a xlink:title=" ">
<path fill="none" stroke="#63b8ff" d="M96.98,-220.68C92.79,-211.86 86.87,-197.88 84.5,-185 78.08,-150.1 88.48,-109.2 96.25,-85.54"/>
<polygon fill="#63b8ff" stroke="#63b8ff" points="99.49,-86.89 99.47,-76.3 92.88,-84.59 99.49,-86.89"/>
</a>
</g>
</g>
<!-- Node9 -->
<g id="Node000009" class="node">
<title>Node9</title>
<g id="a_Node000009"><a xlink:title=" ">
<polygon fill="#e0e0e0" stroke="#999999" points="37,-185 0,-185 0,-165.75 37,-165.75 37,-185"/>
<text xml:space="preserve" text-anchor="middle" x="18.5" y="-171.5" font-family="Helvetica,sans-Serif" font-size="10.00">FS.h</text>
</a>
</g>
</g>
<!-- Node8&#45;&gt;Node9 -->
<g id="edge8_Node000008_Node000009" class="edge">
<title>Node8&#45;&gt;Node9</title>
<g id="a_edge8_Node000008_Node000009"><a xlink:title=" ">
<path fill="none" stroke="#63b8ff" d="M87.42,-220.59C75.02,-212.64 56.71,-200.89 42.07,-191.5"/>
<polygon fill="#63b8ff" stroke="#63b8ff" points="44.23,-188.72 33.92,-186.27 40.45,-194.62 44.23,-188.72"/>
</a>
</g>
</g>
<!-- Node10 -->
<g id="Node000010" class="node">
<title>Node10</title>
<g id="a_Node000010"><a xlink:href="_status_handler_8h.html" target="_top" xlink:title=" ">
<polygon fill="white" stroke="#666666" points="179.38,-185 93.62,-185 93.62,-165.75 179.38,-165.75 179.38,-185"/>
<text xml:space="preserve" text-anchor="middle" x="136.5" y="-171.5" font-family="Helvetica,sans-Serif" font-size="10.00">StatusHandler.h</text>
</a>
</g>
</g>
<!-- Node8&#45;&gt;Node10 -->
<g id="edge10_Node000008_Node000010" class="edge">
<title>Node8&#45;&gt;Node10</title>
<g id="a_edge10_Node000008_Node000010"><a xlink:title=" ">
<path fill="none" stroke="#63b8ff" d="M107.28,-220.83C111.91,-213.78 118.57,-203.65 124.37,-194.83"/>
<polygon fill="#63b8ff" stroke="#63b8ff" points="127.2,-196.9 129.76,-186.62 121.35,-193.06 127.2,-196.9"/>
</a>
</g>
</g>
<!-- Node10&#45;&gt;Node2 -->
<g id="edge12_Node000010_Node000002" class="edge">
<title>Node10&#45;&gt;Node2</title>
<g id="a_edge12_Node000010_Node000002"><a xlink:title=" ">
<path fill="none" stroke="#63b8ff" d="M147.87,-165.34C157.55,-157.65 171.7,-146.4 183.31,-137.18"/>
<polygon fill="#63b8ff" stroke="#63b8ff" points="185.47,-139.93 191.12,-130.97 181.11,-134.45 185.47,-139.93"/>
</a>
</g>
</g>
<!-- Node10&#45;&gt;Node3 -->
<g id="edge11_Node000010_Node000003" class="edge">
<title>Node10&#45;&gt;Node3</title>
<g id="a_edge11_Node000010_Node000003"><a xlink:title=" ">
<path fill="none" stroke="#63b8ff" d="M133.8,-165.5C128.53,-148.17 116.76,-109.48 109.54,-85.74"/>
<polygon fill="#63b8ff" stroke="#63b8ff" points="112.94,-84.87 106.68,-76.32 106.24,-86.91 112.94,-84.87"/>
</a>
</g>
</g>
<!-- Node10&#45;&gt;Node7 -->
<g id="edge13_Node000010_Node000007" class="edge">
<title>Node10&#45;&gt;Node7</title>
<g id="a_edge13_Node000010_Node000007"><a xlink:title=" ">
<path fill="none" stroke="#63b8ff" d="M139.22,-165.46C143.19,-152.9 151.14,-129.4 160.5,-110.5 164.96,-101.5 170.75,-92 175.9,-84.1"/>
<polygon fill="#63b8ff" stroke="#63b8ff" points="178.64,-86.3 181.31,-76.05 172.83,-82.4 178.64,-86.3"/>
</a>
</g>
</g>
</g>
</svg>
