<?xml version="1.0" encoding="UTF-8" standalone="no"?>
<!DOCTYPE svg PUBLIC "-//W3C//DTD SVG 1.1//EN"
 "http://www.w3.org/Graphics/SVG/1.1/DTD/svg11.dtd">
<!-- Generated by graphviz version 15.1.0 (20260618.0150)
 -->
<!-- Title: src/CJsonNode.cpp Pages: 1 -->
<svg width="336pt" height="193pt"
 viewBox="0.00 0.00 336.00 193.00" xmlns="http://www.w3.org/2000/svg" xmlns:xlink="http://www.w3.org/1999/xlink">
<g id="graph0" class="graph" transform="scale(1 1) rotate(0) translate(4 189)">
<title>src/CJsonNode.cpp</title>
<!-- Node1 -->
<g id="Node000001" class="node">
<title>Node1</title>
<g id="a_Node000001"><a xlink:title=" ">
<polygon fill="#999999" stroke="#666666" points="217.62,-185 114.62,-185 114.62,-165.75 217.62,-165.75 217.62,-185"/>
<text xml:space="preserve" text-anchor="middle" x="166.12" y="-171.5" font-family="Helvetica,sans-Serif" font-size="10.00">src/CJsonNode.cpp</text>
</a>
</g>
</g>
<!-- Node2 -->
<g id="Node000002" class="node">
<title>Node2</title>
<g id="a_Node000002"><a xlink:href="_json_node_8h.html" target="_top" xlink:title=" ">
<polygon fill="white" stroke="#666666" points="200.38,-129.75 131.88,-129.75 131.88,-110.5 200.38,-110.5 200.38,-129.75"/>
<text xml:space="preserve" text-anchor="middle" x="166.12" y="-116.25" font-family="Helvetica,sans-Serif" font-size="10.00">JsonNode.h</text>
</a>
</g>
</g>
<!-- Node1&#45;&gt;Node2 -->
<g id="edge1_Node000001_Node000002" class="edge">
<title>Node1&#45;&gt;Node2</title>
<g id="a_edge1_Node000001_Node000002"><a xlink:title=" ">
<path fill="none" stroke="#63b8ff" d="M166.12,-165.58C166.12,-159.07 166.12,-149.92 166.12,-141.62"/>
<polygon fill="#63b8ff" stroke="#63b8ff" points="169.63,-141.62 166.13,-131.62 162.63,-141.62 169.63,-141.62"/>
</a>
</g>
</g>
<!-- Node8 -->
<g id="Node000008" class="node">
<title>Node8</title>
<g id="a_Node000008"><a xlink:href="_l_s_c_utils_8h.html" target="_top" xlink:title=" ">
<polygon fill="white" stroke="#666666" points="114.12,-129.75 50.12,-129.75 50.12,-110.5 114.12,-110.5 114.12,-129.75"/>
<text xml:space="preserve" text-anchor="middle" x="82.12" y="-116.25" font-family="Helvetica,sans-Serif" font-size="10.00">LSCUtils.h</text>
</a>
</g>
</g>
<!-- Node1&#45;&gt;Node8 -->
<g id="edge7_Node000001_Node000008" class="edge">
<title>Node1&#45;&gt;Node8</title>
<g id="a_edge7_Node000001_Node000008"><a xlink:title=" ">
<path fill="none" stroke="#63b8ff" d="M151.88,-165.34C139.33,-157.39 120.79,-145.64 105.98,-136.25"/>
<polygon fill="#63b8ff" stroke="#63b8ff" points="108.04,-133.41 97.72,-131.01 104.29,-139.32 108.04,-133.41"/>
</a>
</g>
</g>
<!-- Node9 -->
<g id="Node000009" class="node">
<title>Node9</title>
<g id="a_Node000009"><a xlink:href="_development_helper_8h.html" target="_top" xlink:title=" ">
<polygon fill="white" stroke="#666666" points="328,-129.75 218.25,-129.75 218.25,-110.5 328,-110.5 328,-129.75"/>
<text xml:space="preserve" text-anchor="middle" x="273.12" y="-116.25" font-family="Helvetica,sans-Serif" font-size="10.00">DevelopmentHelper.h</text>
</a>
</g>
</g>
<!-- Node1&#45;&gt;Node9 -->
<g id="edge9_Node000001_Node000009" class="edge">
<title>Node1&#45;&gt;Node9</title>
<g id="a_edge9_Node000001_Node000009"><a xlink:title=" ">
<path fill="none" stroke="#63b8ff" d="M184.28,-165.34C200.8,-157.12 225.47,-144.84 244.62,-135.31"/>
<polygon fill="#63b8ff" stroke="#63b8ff" points="246.14,-138.47 253.53,-130.88 243.02,-132.2 246.14,-138.47"/>
</a>
</g>
</g>
<!-- Node3 -->
<g id="Node000003" class="node">
<title>Node3</title>
<g id="a_Node000003"><a xlink:href="_runtime_8h.html" target="_top" xlink:title=" ">
<polygon fill="white" stroke="#666666" points="119.62,-74.5 58.62,-74.5 58.62,-55.25 119.62,-55.25 119.62,-74.5"/>
<text xml:space="preserve" text-anchor="middle" x="89.12" y="-61" font-family="Helvetica,sans-Serif" font-size="10.00">Runtime.h</text>
</a>
</g>
</g>
<!-- Node2&#45;&gt;Node3 -->
<g id="edge2_Node000002_Node000003" class="edge">
<title>Node2&#45;&gt;Node3</title>
<g id="a_edge2_Node000002_Node000003"><a xlink:title=" ">
<path fill="none" stroke="#63b8ff" d="M153.06,-110.09C141.67,-102.21 124.9,-90.61 111.39,-81.27"/>
<polygon fill="#63b8ff" stroke="#63b8ff" points="113.71,-78.62 103.5,-75.81 109.73,-84.38 113.71,-78.62"/>
</a>
</g>
</g>
<!-- Node7 -->
<g id="Node000007" class="node">
<title>Node7</title>
<g id="a_Node000007"><a xlink:title=" ">
<polygon fill="#e0e0e0" stroke="#999999" points="187.62,-74.5 144.62,-74.5 144.62,-55.25 187.62,-55.25 187.62,-74.5"/>
<text xml:space="preserve" text-anchor="middle" x="166.12" y="-61" font-family="Helvetica,sans-Serif" font-size="10.00">vector</text>
</a>
</g>
</g>
<!-- Node2&#45;&gt;Node7 -->
<g id="edge6_Node000002_Node000007" class="edge">
<title>Node2&#45;&gt;Node7</title>
<g id="a_edge6_Node000002_Node000007"><a xlink:title=" ">
<path fill="none" stroke="#63b8ff" d="M166.12,-110.33C166.12,-103.82 166.12,-94.67 166.12,-86.37"/>
<polygon fill="#63b8ff" stroke="#63b8ff" points="169.63,-86.37 166.13,-76.37 162.63,-86.37 169.63,-86.37"/>
</a>
</g>
</g>
<!-- Node4 -->
<g id="Node000004" class="node">
<title>Node4</title>
<g id="a_Node000004"><a xlink:title=" ">
<polygon fill="#e0e0e0" stroke="#999999" points="48.25,-19.25 0,-19.25 0,0 48.25,0 48.25,-19.25"/>
<text xml:space="preserve" text-anchor="middle" x="24.12" y="-5.75" font-family="Helvetica,sans-Serif" font-size="10.00">string.h</text>
</a>
</g>
</g>
<!-- Node3&#45;&gt;Node4 -->
<g id="edge3_Node000003_Node000004" class="edge">
<title>Node3&#45;&gt;Node4</title>
<g id="a_edge3_Node000003_Node000004"><a xlink:title=" ">
<path fill="none" stroke="#63b8ff" d="M78.1,-54.84C68.7,-47.15 54.98,-35.9 43.72,-26.68"/>
<polygon fill="#63b8ff" stroke="#63b8ff" points="46.11,-24.11 36.16,-20.48 41.68,-29.53 46.11,-24.11"/>
</a>
</g>
</g>
<!-- Node5 -->
<g id="Node000005" class="node">
<title>Node5</title>
<g id="a_Node000005"><a xlink:title=" ">
<polygon fill="#e0e0e0" stroke="#999999" points="111.75,-19.25 66.5,-19.25 66.5,0 111.75,0 111.75,-19.25"/>
<text xml:space="preserve" text-anchor="middle" x="89.12" y="-5.75" font-family="Helvetica,sans-Serif" font-size="10.00">chrono</text>
</a>
</g>
</g>
<!-- Node3&#45;&gt;Node5 -->
<g id="edge4_Node000003_Node000005" class="edge">
<title>Node3&#45;&gt;Node5</title>
<g id="a_edge4_Node000003_Node000005"><a xlink:title=" ">
<path fill="none" stroke="#63b8ff" d="M89.12,-55.08C89.12,-48.57 89.12,-39.42 89.12,-31.12"/>
<polygon fill="#63b8ff" stroke="#63b8ff" points="92.63,-31.12 89.13,-21.12 85.63,-31.12 92.63,-31.12"/>
</a>
</g>
</g>
<!-- Node6 -->
<g id="Node000006" class="node">
<title>Node6</title>
<g id="a_Node000006"><a xlink:title=" ">
<polygon fill="#e0e0e0" stroke="#999999" points="182.88,-19.25 129.38,-19.25 129.38,0 182.88,0 182.88,-19.25"/>
<text xml:space="preserve" text-anchor="middle" x="156.12" y="-5.75" font-family="Helvetica,sans-Serif" font-size="10.00">iostream</text>
</a>
</g>
</g>
<!-- Node3&#45;&gt;Node6 -->
<g id="edge5_Node000003_Node000006" class="edge">
<title>Node3&#45;&gt;Node6</title>
<g id="a_edge5_Node000003_Node000006"><a xlink:title=" ">
<path fill="none" stroke="#63b8ff" d="M100.49,-54.84C110.17,-47.15 124.32,-35.9 135.93,-26.68"/>
<polygon fill="#63b8ff" stroke="#63b8ff" points="138.09,-29.43 143.74,-20.47 133.74,-23.95 138.09,-29.43"/>
</a>
</g>
</g>
<!-- Node8&#45;&gt;Node3 -->
<g id="edge8_Node000008_Node000003" class="edge">
<title>Node8&#45;&gt;Node3</title>
<g id="a_edge8_Node000008_Node000003"><a xlink:title=" ">
<path fill="none" stroke="#63b8ff" d="M83.28,-110.33C84.15,-103.74 85.37,-94.46 86.47,-86.07"/>
<polygon fill="#63b8ff" stroke="#63b8ff" points="89.91,-86.73 87.75,-76.36 82.97,-85.82 89.91,-86.73"/>
</a>
</g>
</g>
</g>
</svg>
