<?xml version="1.0" encoding="UTF-8" standalone="no"?>
<!DOCTYPE svg PUBLIC "-//W3C//DTD SVG 1.1//EN"
 "http://www.w3.org/Graphics/SVG/1.1/DTD/svg11.dtd">
<!-- Generated by graphviz version 15.1.0 (20260618.0150)
 -->
<!-- Title: src/CLightSwitch.cpp Pages: 1 -->
<svg width="987pt" height="414pt"
 viewBox="0.00 0.00 987.00 414.00" xmlns="http://www.w3.org/2000/svg" xmlns:xlink="http://www.w3.org/1999/xlink">
<g id="graph0" class="graph" transform="scale(1 1) rotate(0) translate(4 410)">
<title>src/CLightSwitch.cpp</title>
<!-- Node1 -->
<g id="Node000001" class="node">
<title>Node1</title>
<g id="a_Node000001"><a xlink:title=" ">
<polygon fill="#999999" stroke="#666666" points="351.38,-406 241.62,-406 241.62,-386.75 351.38,-386.75 351.38,-406"/>
<text xml:space="preserve" text-anchor="middle" x="296.5" y="-392.5" font-family="Helvetica,sans-Serif" font-size="10.00">src/CLightSwitch.cpp</text>
</a>
</g>
</g>
<!-- Node2 -->
<g id="Node000002" class="node">
<title>Node2</title>
<g id="a_Node000002"><a xlink:href="_light_switch_8h.html" target="_top" xlink:title=" ">
<polygon fill="white" stroke="#666666" points="147.12,-185 71.88,-185 71.88,-165.75 147.12,-165.75 147.12,-185"/>
<text xml:space="preserve" text-anchor="middle" x="109.5" y="-171.5" font-family="Helvetica,sans-Serif" font-size="10.00">LightSwitch.h</text>
</a>
</g>
</g>
<!-- Node1&#45;&gt;Node2 -->
<g id="edge1_Node000001_Node000002" class="edge">
<title>Node1&#45;&gt;Node2</title>
<g id="a_edge1_Node000001_Node000002"><a xlink:title=" ">
<path fill="none" stroke="#63b8ff" d="M278.86,-386.32C250.64,-371.06 195.11,-337.68 161.5,-295.5 137.2,-265 122.01,-221.4 114.71,-196.28"/>
<polygon fill="#63b8ff" stroke="#63b8ff" points="118.11,-195.45 112.08,-186.74 111.36,-197.31 118.11,-195.45"/>
</a>
</g>
</g>
<!-- Node9 -->
<g id="Node000009" class="node">
<title>Node9</title>
<g id="a_Node000009"><a xlink:href="_appl_8h.html" target="_top" xlink:title="Application Main Class.">
<polygon fill="white" stroke="#666666" points="531.38,-350.75 487.62,-350.75 487.62,-331.5 531.38,-331.5 531.38,-350.75"/>
<text xml:space="preserve" text-anchor="middle" x="509.5" y="-337.25" font-family="Helvetica,sans-Serif" font-size="10.00">Appl.h</text>
</a>
</g>
</g>
<!-- Node1&#45;&gt;Node9 -->
<g id="edge9_Node000001_Node000009" class="edge">
<title>Node1&#45;&gt;Node9</title>
<g id="a_edge9_Node000001_Node000009"><a xlink:title=" ">
<path fill="none" stroke="#63b8ff" d="M332.63,-386.34C372.84,-376.29 437.27,-360.18 476.27,-350.43"/>
<polygon fill="#63b8ff" stroke="#63b8ff" points="476.94,-353.87 485.79,-348.05 475.24,-347.08 476.94,-353.87"/>
</a>
</g>
</g>
<!-- Node3 -->
<g id="Node000003" class="node">
<title>Node3</title>
<g id="a_Node000003"><a xlink:href="_runtime_8h.html" target="_top" xlink:title=" ">
<polygon fill="white" stroke="#666666" points="377,-74.5 316,-74.5 316,-55.25 377,-55.25 377,-74.5"/>
<text xml:space="preserve" text-anchor="middle" x="346.5" y="-61" font-family="Helvetica,sans-Serif" font-size="10.00">Runtime.h</text>
</a>
</g>
</g>
<!-- Node2&#45;&gt;Node3 -->
<g id="edge2_Node000002_Node000003" class="edge">
<title>Node2&#45;&gt;Node3</title>
<g id="a_edge2_Node000002_Node000003"><a xlink:title=" ">
<path fill="none" stroke="#63b8ff" d="M114.24,-165.39C122.11,-151.39 139.24,-124.52 161.5,-110.5 205.3,-82.91 264.77,-72.38 304.34,-68.36"/>
<polygon fill="#63b8ff" stroke="#63b8ff" points="304.54,-71.85 314.18,-67.46 303.9,-64.88 304.54,-71.85"/>
</a>
</g>
</g>
<!-- Node7 -->
<g id="Node000007" class="node">
<title>Node7</title>
<g id="a_Node000007"><a xlink:href="_output_pin_controller_8h.html" target="_top" xlink:title=" ">
<polygon fill="white" stroke="#666666" points="109,-129.75 0,-129.75 0,-110.5 109,-110.5 109,-129.75"/>
<text xml:space="preserve" text-anchor="middle" x="54.5" y="-116.25" font-family="Helvetica,sans-Serif" font-size="10.00">OutputPinController.h</text>
</a>
</g>
</g>
<!-- Node2&#45;&gt;Node7 -->
<g id="edge6_Node000002_Node000007" class="edge">
<title>Node2&#45;&gt;Node7</title>
<g id="a_edge6_Node000002_Node000007"><a xlink:title=" ">
<path fill="none" stroke="#63b8ff" d="M100.42,-165.58C92.66,-158.07 81.29,-147.06 71.8,-137.88"/>
<polygon fill="#63b8ff" stroke="#63b8ff" points="74.49,-135.6 64.87,-131.16 69.62,-140.63 74.49,-135.6"/>
</a>
</g>
</g>
<!-- Node4 -->
<g id="Node000004" class="node">
<title>Node4</title>
<g id="a_Node000004"><a xlink:title=" ">
<polygon fill="#e0e0e0" stroke="#999999" points="305.62,-19.25 257.38,-19.25 257.38,0 305.62,0 305.62,-19.25"/>
<text xml:space="preserve" text-anchor="middle" x="281.5" y="-5.75" font-family="Helvetica,sans-Serif" font-size="10.00">string.h</text>
</a>
</g>
</g>
<!-- Node3&#45;&gt;Node4 -->
<g id="edge3_Node000003_Node000004" class="edge">
<title>Node3&#45;&gt;Node4</title>
<g id="a_edge3_Node000003_Node000004"><a xlink:title=" ">
<path fill="none" stroke="#63b8ff" d="M335.47,-54.84C326.08,-47.15 312.35,-35.9 301.09,-26.68"/>
<polygon fill="#63b8ff" stroke="#63b8ff" points="303.49,-24.11 293.53,-20.48 299.05,-29.53 303.49,-24.11"/>
</a>
</g>
</g>
<!-- Node5 -->
<g id="Node000005" class="node">
<title>Node5</title>
<g id="a_Node000005"><a xlink:title=" ">
<polygon fill="#e0e0e0" stroke="#999999" points="369.12,-19.25 323.88,-19.25 323.88,0 369.12,0 369.12,-19.25"/>
<text xml:space="preserve" text-anchor="middle" x="346.5" y="-5.75" font-family="Helvetica,sans-Serif" font-size="10.00">chrono</text>
</a>
</g>
</g>
<!-- Node3&#45;&gt;Node5 -->
<g id="edge4_Node000003_Node000005" class="edge">
<title>Node3&#45;&gt;Node5</title>
<g id="a_edge4_Node000003_Node000005"><a xlink:title=" ">
<path fill="none" stroke="#63b8ff" d="M346.5,-55.08C346.5,-48.57 346.5,-39.42 346.5,-31.12"/>
<polygon fill="#63b8ff" stroke="#63b8ff" points="350,-31.12 346.5,-21.12 343,-31.12 350,-31.12"/>
</a>
</g>
</g>
<!-- Node6 -->
<g id="Node000006" class="node">
<title>Node6</title>
<g id="a_Node000006"><a xlink:title=" ">
<polygon fill="#e0e0e0" stroke="#999999" points="440.25,-19.25 386.75,-19.25 386.75,0 440.25,0 440.25,-19.25"/>
<text xml:space="preserve" text-anchor="middle" x="413.5" y="-5.75" font-family="Helvetica,sans-Serif" font-size="10.00">iostream</text>
</a>
</g>
</g>
<!-- Node3&#45;&gt;Node6 -->
<g id="edge5_Node000003_Node000006" class="edge">
<title>Node3&#45;&gt;Node6</title>
<g id="a_edge5_Node000003_Node000006"><a xlink:title=" ">
<path fill="none" stroke="#63b8ff" d="M357.87,-54.84C367.55,-47.15 381.7,-35.9 393.31,-26.68"/>
<polygon fill="#63b8ff" stroke="#63b8ff" points="395.47,-29.43 401.12,-20.47 391.11,-23.95 395.47,-29.43"/>
</a>
</g>
</g>
<!-- Node7&#45;&gt;Node3 -->
<g id="edge7_Node000007_Node000003" class="edge">
<title>Node7&#45;&gt;Node3</title>
<g id="a_edge7_Node000007_Node000003"><a xlink:title=" ">
<path fill="none" stroke="#63b8ff" d="M104.36,-110.03C160.82,-99.74 251.79,-83.15 304.68,-73.5"/>
<polygon fill="#63b8ff" stroke="#63b8ff" points="304.98,-77 314.19,-71.77 303.73,-70.12 304.98,-77"/>
</a>
</g>
</g>
<!-- Node8 -->
<g id="Node000008" class="node">
<title>Node8</title>
<g id="a_Node000008"><a xlink:href="_pin_controller_8h.html" target="_top" xlink:title=" ">
<polygon fill="white" stroke="#666666" points="94.38,-74.5 14.62,-74.5 14.62,-55.25 94.38,-55.25 94.38,-74.5"/>
<text xml:space="preserve" text-anchor="middle" x="54.5" y="-61" font-family="Helvetica,sans-Serif" font-size="10.00">PinController.h</text>
</a>
</g>
</g>
<!-- Node7&#45;&gt;Node8 -->
<g id="edge8_Node000007_Node000008" class="edge">
<title>Node7&#45;&gt;Node8</title>
<g id="a_edge8_Node000007_Node000008"><a xlink:title=" ">
<path fill="none" stroke="#63b8ff" d="M54.5,-110.33C54.5,-103.82 54.5,-94.67 54.5,-86.37"/>
<polygon fill="#63b8ff" stroke="#63b8ff" points="58,-86.37 54.5,-76.37 51,-86.37 58,-86.37"/>
</a>
</g>
</g>
<!-- Node9&#45;&gt;Node3 -->
<g id="edge10_Node000009_Node000003" class="edge">
<title>Node9&#45;&gt;Node3</title>
<g id="a_edge10_Node000009_Node000003"><a xlink:title=" ">
<path fill="none" stroke="#63b8ff" d="M487.33,-337.8C412.73,-329.37 175.5,-297.4 175.5,-231.62 175.5,-231.62 175.5,-231.62 175.5,-174.38 175.5,-113.41 253.94,-85.26 304.57,-73.43"/>
<polygon fill="#63b8ff" stroke="#63b8ff" points="305.04,-76.91 314.05,-71.35 303.54,-70.08 305.04,-76.91"/>
</a>
</g>
</g>
<!-- Node10 -->
<g id="Node000010" class="node">
<title>Node10</title>
<g id="a_Node000010"><a xlink:href="_sys_status_8h.html" target="_top" xlink:title=" ">
<polygon fill="white" stroke="#666666" points="366.5,-295.5 296.5,-295.5 296.5,-276.25 366.5,-276.25 366.5,-295.5"/>
<text xml:space="preserve" text-anchor="middle" x="331.5" y="-282" font-family="Helvetica,sans-Serif" font-size="10.00">SysStatus.h</text>
</a>
</g>
</g>
<!-- Node9&#45;&gt;Node10 -->
<g id="edge11_Node000009_Node000010" class="edge">
<title>Node9&#45;&gt;Node10</title>
<g id="a_edge11_Node000009_Node000010"><a xlink:title=" ">
<path fill="none" stroke="#63b8ff" d="M487.32,-333.49C458.6,-324.9 408.02,-309.77 372.28,-299.08"/>
<polygon fill="#63b8ff" stroke="#63b8ff" points="373.74,-295.86 363.16,-296.35 371.74,-302.57 373.74,-295.86"/>
</a>
</g>
</g>
<!-- Node12 -->
<g id="Node000012" class="node">
<title>Node12</title>
<g id="a_Node000012"><a xlink:href="_json_node_8h.html" target="_top" xlink:title=" ">
<polygon fill="white" stroke="#666666" points="480.75,-185 412.25,-185 412.25,-165.75 480.75,-165.75 480.75,-185"/>
<text xml:space="preserve" text-anchor="middle" x="446.5" y="-171.5" font-family="Helvetica,sans-Serif" font-size="10.00">JsonNode.h</text>
</a>
</g>
</g>
<!-- Node9&#45;&gt;Node12 -->
<g id="edge21_Node000009_Node000012" class="edge">
<title>Node9&#45;&gt;Node12</title>
<g id="a_edge21_Node000009_Node000012"><a xlink:title=" ">
<path fill="none" stroke="#63b8ff" d="M506.34,-331.1C499.3,-311.14 481.7,-261.77 465.5,-221 462.16,-212.59 458.27,-203.37 454.89,-195.51"/>
<polygon fill="#63b8ff" stroke="#63b8ff" points="458.21,-194.38 451.02,-186.6 451.79,-197.17 458.21,-194.38"/>
</a>
</g>
</g>
<!-- Node16 -->
<g id="Node000016" class="node">
<title>Node16</title>
<g id="a_Node000016"><a xlink:href="_module_interface_8h.html" target="_top" xlink:title="Full Interface for a module and an abstract basic module implementation.">
<polygon fill="white" stroke="#666666" points="668.5,-295.5 574.5,-295.5 574.5,-276.25 668.5,-276.25 668.5,-295.5"/>
<text xml:space="preserve" text-anchor="middle" x="621.5" y="-282" font-family="Helvetica,sans-Serif" font-size="10.00">ModuleInterface.h</text>
</a>
</g>
</g>
<!-- Node9&#45;&gt;Node16 -->
<g id="edge22_Node000009_Node000016" class="edge">
<title>Node9&#45;&gt;Node16</title>
<g id="a_edge22_Node000009_Node000016"><a xlink:title=" ">
<path fill="none" stroke="#63b8ff" d="M528.5,-331.09C545.96,-322.79 572.1,-310.36 592.22,-300.79"/>
<polygon fill="#63b8ff" stroke="#63b8ff" points="593.51,-304.06 601.04,-296.6 590.51,-297.74 593.51,-304.06"/>
</a>
</g>
</g>
<!-- Node23 -->
<g id="Node000023" class="node">
<title>Node23</title>
<g id="a_Node000023"><a xlink:href="_development_helper_8h.html" target="_top" xlink:title=" ">
<polygon fill="white" stroke="#666666" points="935.38,-129.75 825.62,-129.75 825.62,-110.5 935.38,-110.5 935.38,-129.75"/>
<text xml:space="preserve" text-anchor="middle" x="880.5" y="-116.25" font-family="Helvetica,sans-Serif" font-size="10.00">DevelopmentHelper.h</text>
</a>
</g>
</g>
<!-- Node9&#45;&gt;Node23 -->
<g id="edge47_Node000009_Node000023" class="edge">
<title>Node9&#45;&gt;Node23</title>
<g id="a_edge47_Node000009_Node000023"><a xlink:title=" ">
<path fill="none" stroke="#63b8ff" d="M531.62,-339.21C579.33,-336.68 694.86,-327.46 785.5,-295.5 832.29,-279 839.62,-265.2 882.5,-240.25 924.06,-216.07 951.72,-226.79 975.5,-185 989.24,-160.85 959.63,-144.02 929.93,-133.73"/>
<polygon fill="#63b8ff" stroke="#63b8ff" points="931.09,-130.42 920.5,-130.69 928.94,-137.09 931.09,-130.42"/>
</a>
</g>
</g>
<!-- Node25 -->
<g id="Node000025" class="node">
<title>Node25</title>
<g id="a_Node000025"><a xlink:href="_logging_8h.html" target="_top" xlink:title=" ">
<polygon fill="white" stroke="#666666" points="776.5,-295.5 718.5,-295.5 718.5,-276.25 776.5,-276.25 776.5,-295.5"/>
<text xml:space="preserve" text-anchor="middle" x="747.5" y="-282" font-family="Helvetica,sans-Serif" font-size="10.00">Logging.h</text>
</a>
</g>
</g>
<!-- Node9&#45;&gt;Node25 -->
<g id="edge40_Node000009_Node000025" class="edge">
<title>Node9&#45;&gt;Node25</title>
<g id="a_edge40_Node000009_Node000025"><a xlink:title=" ">
<path fill="none" stroke="#63b8ff" d="M531.46,-335.21C571.39,-326.28 656.42,-307.25 707.08,-295.92"/>
<polygon fill="#63b8ff" stroke="#63b8ff" points="707.79,-299.35 716.78,-293.75 706.26,-292.52 707.79,-299.35"/>
</a>
</g>
</g>
<!-- Node27 -->
<g id="Node000027" class="node">
<title>Node27</title>
<g id="a_Node000027"><a xlink:href="_vars_8h.html" target="_top" xlink:title=" ">
<polygon fill="white" stroke="#666666" points="556.38,-295.5 512.62,-295.5 512.62,-276.25 556.38,-276.25 556.38,-295.5"/>
<text xml:space="preserve" text-anchor="middle" x="534.5" y="-282" font-family="Helvetica,sans-Serif" font-size="10.00">Vars.h</text>
</a>
</g>
</g>
<!-- Node9&#45;&gt;Node27 -->
<g id="edge44_Node000009_Node000027" class="edge">
<title>Node9&#45;&gt;Node27</title>
<g id="a_edge44_Node000009_Node000027"><a xlink:title=" ">
<path fill="none" stroke="#63b8ff" d="M513.63,-331.33C516.83,-324.51 521.39,-314.81 525.43,-306.2"/>
<polygon fill="#63b8ff" stroke="#63b8ff" points="528.56,-307.77 529.64,-297.23 522.22,-304.79 528.56,-307.77"/>
</a>
</g>
</g>
<!-- Node10&#45;&gt;Node3 -->
<g id="edge12_Node000010_Node000003" class="edge">
<title>Node10&#45;&gt;Node3</title>
<g id="a_edge12_Node000010_Node000003"><a xlink:title=" ">
<path fill="none" stroke="#63b8ff" d="M296.3,-278.97C273.88,-273.2 246.52,-261.94 232.5,-240.25 227.86,-233.06 229.83,-229.13 232.5,-221 251.49,-163.08 301.29,-108.95 328.35,-82.61"/>
<polygon fill="#63b8ff" stroke="#63b8ff" points="330.66,-85.25 335.49,-75.82 325.83,-80.18 330.66,-85.25"/>
</a>
</g>
</g>
<!-- Node11 -->
<g id="Node000011" class="node">
<title>Node11</title>
<g id="a_Node000011"><a xlink:href="_status_handler_8h.html" target="_top" xlink:title=" ">
<polygon fill="white" stroke="#666666" points="456.38,-240.25 370.62,-240.25 370.62,-221 456.38,-221 456.38,-240.25"/>
<text xml:space="preserve" text-anchor="middle" x="413.5" y="-226.75" font-family="Helvetica,sans-Serif" font-size="10.00">StatusHandler.h</text>
</a>
</g>
</g>
<!-- Node10&#45;&gt;Node11 -->
<g id="edge13_Node000010_Node000011" class="edge">
<title>Node10&#45;&gt;Node11</title>
<g id="a_edge13_Node000010_Node000011"><a xlink:title=" ">
<path fill="none" stroke="#63b8ff" d="M345.41,-275.84C357.66,-267.89 375.75,-256.14 390.21,-246.75"/>
<polygon fill="#63b8ff" stroke="#63b8ff" points="391.77,-249.91 398.25,-241.53 387.96,-244.04 391.77,-249.91"/>
</a>
</g>
</g>
<!-- Node14 -->
<g id="Node000014" class="node">
<title>Node14</title>
<g id="a_Node000014"><a xlink:title=" ">
<polygon fill="#e0e0e0" stroke="#999999" points="352.25,-240.25 310.75,-240.25 310.75,-221 352.25,-221 352.25,-240.25"/>
<text xml:space="preserve" text-anchor="middle" x="331.5" y="-226.75" font-family="Helvetica,sans-Serif" font-size="10.00">Esp.h</text>
</a>
</g>
</g>
<!-- Node10&#45;&gt;Node14 -->
<g id="edge19_Node000010_Node000014" class="edge">
<title>Node10&#45;&gt;Node14</title>
<g id="a_edge19_Node000010_Node000014"><a xlink:title=" ">
<path fill="none" stroke="#63b8ff" d="M331.5,-276.08C331.5,-269.57 331.5,-260.42 331.5,-252.12"/>
<polygon fill="#63b8ff" stroke="#63b8ff" points="335,-252.12 331.5,-242.12 328,-252.12 335,-252.12"/>
</a>
</g>
</g>
<!-- Node15 -->
<g id="Node000015" class="node">
<title>Node15</title>
<g id="a_Node000015"><a xlink:title=" ">
<polygon fill="#e0e0e0" stroke="#999999" points="293.12,-240.25 241.88,-240.25 241.88,-221 293.12,-221 293.12,-240.25"/>
<text xml:space="preserve" text-anchor="middle" x="267.5" y="-226.75" font-family="Helvetica,sans-Serif" font-size="10.00">memory</text>
</a>
</g>
</g>
<!-- Node10&#45;&gt;Node15 -->
<g id="edge20_Node000010_Node000015" class="edge">
<title>Node10&#45;&gt;Node15</title>
<g id="a_edge20_Node000010_Node000015"><a xlink:title=" ">
<path fill="none" stroke="#63b8ff" d="M320.64,-275.84C311.39,-268.15 297.88,-256.9 286.79,-247.68"/>
<polygon fill="#63b8ff" stroke="#63b8ff" points="289.29,-245.2 279.36,-241.49 284.81,-250.58 289.29,-245.2"/>
</a>
</g>
</g>
<!-- Node11&#45;&gt;Node3 -->
<g id="edge14_Node000011_Node000003" class="edge">
<title>Node11&#45;&gt;Node3</title>
<g id="a_edge14_Node000011_Node000003"><a xlink:title=" ">
<path fill="none" stroke="#63b8ff" d="M409.66,-220.76C405.79,-211.77 399.66,-197.45 394.5,-185 380.04,-150.09 363.69,-109.2 354.29,-85.54"/>
<polygon fill="#63b8ff" stroke="#63b8ff" points="357.55,-84.28 350.61,-76.27 351.05,-86.86 357.55,-84.28"/>
</a>
</g>
</g>
<!-- Node11&#45;&gt;Node12 -->
<g id="edge15_Node000011_Node000012" class="edge">
<title>Node11&#45;&gt;Node12</title>
<g id="a_edge15_Node000011_Node000012"><a xlink:title=" ">
<path fill="none" stroke="#63b8ff" d="M418.95,-220.83C423.27,-213.86 429.46,-203.87 434.88,-195.12"/>
<polygon fill="#63b8ff" stroke="#63b8ff" points="437.84,-196.99 440.14,-186.65 431.89,-193.3 437.84,-196.99"/>
</a>
</g>
</g>
<!-- Node13 -->
<g id="Node000013" class="node">
<title>Node13</title>
<g id="a_Node000013"><a xlink:title=" ">
<polygon fill="#e0e0e0" stroke="#999999" points="549,-129.75 506,-129.75 506,-110.5 549,-110.5 549,-129.75"/>
<text xml:space="preserve" text-anchor="middle" x="527.5" y="-116.25" font-family="Helvetica,sans-Serif" font-size="10.00">vector</text>
</a>
</g>
</g>
<!-- Node11&#45;&gt;Node13 -->
<g id="edge18_Node000011_Node000013" class="edge">
<title>Node11&#45;&gt;Node13</title>
<g id="a_edge18_Node000011_Node000013"><a xlink:title=" ">
<path fill="none" stroke="#63b8ff" d="M408.53,-220.89C401.76,-207.7 391.75,-182.46 403.5,-165.75 423.85,-136.8 464.88,-126.54 494.17,-122.96"/>
<polygon fill="#63b8ff" stroke="#63b8ff" points="494.42,-126.45 504.02,-121.97 493.72,-119.48 494.42,-126.45"/>
</a>
</g>
</g>
<!-- Node12&#45;&gt;Node3 -->
<g id="edge16_Node000012_Node000003" class="edge">
<title>Node12&#45;&gt;Node3</title>
<g id="a_edge16_Node000012_Node000003"><a xlink:title=" ">
<path fill="none" stroke="#63b8ff" d="M438.32,-165.5C421.76,-147.53 384.04,-106.61 362.45,-83.19"/>
<polygon fill="#63b8ff" stroke="#63b8ff" points="365.17,-80.97 355.82,-75.99 360.03,-85.71 365.17,-80.97"/>
</a>
</g>
</g>
<!-- Node12&#45;&gt;Node13 -->
<g id="edge17_Node000012_Node000013" class="edge">
<title>Node12&#45;&gt;Node13</title>
<g id="a_edge17_Node000012_Node000013"><a xlink:title=" ">
<path fill="none" stroke="#63b8ff" d="M460.24,-165.34C472.23,-157.46 489.87,-145.86 504.08,-136.52"/>
<polygon fill="#63b8ff" stroke="#63b8ff" points="505.99,-139.45 512.43,-131.03 502.15,-133.6 505.99,-139.45"/>
</a>
</g>
</g>
<!-- Node16&#45;&gt;Node11 -->
<g id="edge27_Node000016_Node000011" class="edge">
<title>Node16&#45;&gt;Node11</title>
<g id="a_edge27_Node000016_Node000011"><a xlink:title=" ">
<path fill="none" stroke="#63b8ff" d="M586.22,-275.84C551.4,-266.93 498,-253.26 459.79,-243.48"/>
<polygon fill="#63b8ff" stroke="#63b8ff" points="460.98,-240.17 450.42,-241.08 459.24,-246.95 460.98,-240.17"/>
</a>
</g>
</g>
<!-- Node17 -->
<g id="Node000017" class="node">
<title>Node17</title>
<g id="a_Node000017"><a xlink:href="_config_handler_8h.html" target="_top" xlink:title=" ">
<polygon fill="white" stroke="#666666" points="636.38,-240.25 550.62,-240.25 550.62,-221 636.38,-221 636.38,-240.25"/>
<text xml:space="preserve" text-anchor="middle" x="593.5" y="-226.75" font-family="Helvetica,sans-Serif" font-size="10.00">ConfigHandler.h</text>
</a>
</g>
</g>
<!-- Node16&#45;&gt;Node17 -->
<g id="edge23_Node000016_Node000017" class="edge">
<title>Node16&#45;&gt;Node17</title>
<g id="a_edge23_Node000016_Node000017"><a xlink:title=" ">
<path fill="none" stroke="#63b8ff" d="M616.88,-276.08C613.25,-269.19 608.07,-259.34 603.51,-250.66"/>
<polygon fill="#63b8ff" stroke="#63b8ff" points="606.68,-249.17 598.93,-241.95 600.48,-252.43 606.68,-249.17"/>
</a>
</g>
</g>
<!-- Node18 -->
<g id="Node000018" class="node">
<title>Node18</title>
<g id="a_Node000018"><a xlink:href="_event_handler_8h.html" target="_top" xlink:title=" ">
<polygon fill="white" stroke="#666666" points="736.88,-240.25 654.12,-240.25 654.12,-221 736.88,-221 736.88,-240.25"/>
<text xml:space="preserve" text-anchor="middle" x="695.5" y="-226.75" font-family="Helvetica,sans-Serif" font-size="10.00">EventHandler.h</text>
</a>
</g>
</g>
<!-- Node16&#45;&gt;Node18 -->
<g id="edge28_Node000016_Node000018" class="edge">
<title>Node16&#45;&gt;Node18</title>
<g id="a_edge28_Node000016_Node000018"><a xlink:title=" ">
<path fill="none" stroke="#63b8ff" d="M634.05,-275.84C644.96,-267.99 661,-256.45 673.96,-247.12"/>
<polygon fill="#63b8ff" stroke="#63b8ff" points="675.83,-250.09 681.9,-241.41 671.74,-244.41 675.83,-250.09"/>
</a>
</g>
</g>
<!-- Node24 -->
<g id="Node000024" class="node">
<title>Node24</title>
<g id="a_Node000024"><a xlink:href="_msgs_8h.html" target="_top" xlink:title=" ">
<polygon fill="white" stroke="#666666" points="803.62,-240.25 755.38,-240.25 755.38,-221 803.62,-221 803.62,-240.25"/>
<text xml:space="preserve" text-anchor="middle" x="779.5" y="-226.75" font-family="Helvetica,sans-Serif" font-size="10.00">Msgs.h</text>
</a>
</g>
</g>
<!-- Node16&#45;&gt;Node24 -->
<g id="edge39_Node000016_Node000024" class="edge">
<title>Node16&#45;&gt;Node24</title>
<g id="a_edge39_Node000016_Node000024"><a xlink:title=" ">
<path fill="none" stroke="#63b8ff" d="M648.3,-275.84C674.65,-266.96 715.02,-253.36 744.02,-243.58"/>
<polygon fill="#63b8ff" stroke="#63b8ff" points="745.12,-246.91 753.47,-240.4 742.88,-240.27 745.12,-246.91"/>
</a>
</g>
</g>
<!-- Node17&#45;&gt;Node3 -->
<g id="edge24_Node000017_Node000003" class="edge">
<title>Node17&#45;&gt;Node3</title>
<g id="a_edge24_Node000017_Node000003"><a xlink:title=" ">
<path fill="none" stroke="#63b8ff" d="M593.75,-220.57C593.84,-198.27 590.79,-140.35 558.5,-110.5 534.19,-88.02 443.02,-75.35 388.48,-69.63"/>
<polygon fill="#63b8ff" stroke="#63b8ff" points="388.91,-66.16 378.61,-68.64 388.2,-73.12 388.91,-66.16"/>
</a>
</g>
</g>
<!-- Node17&#45;&gt;Node12 -->
<g id="edge25_Node000017_Node000012" class="edge">
<title>Node17&#45;&gt;Node12</title>
<g id="a_edge25_Node000017_Node000012"><a xlink:title=" ">
<path fill="none" stroke="#63b8ff" d="M568.56,-220.59C544.81,-211.99 508.79,-198.94 482.04,-189.25"/>
<polygon fill="#63b8ff" stroke="#63b8ff" points="483.58,-186.08 472.98,-185.97 481.19,-192.66 483.58,-186.08"/>
</a>
</g>
</g>
<!-- Node17&#45;&gt;Node13 -->
<g id="edge26_Node000017_Node000013" class="edge">
<title>Node17&#45;&gt;Node13</title>
<g id="a_edge26_Node000017_Node000013"><a xlink:title=" ">
<path fill="none" stroke="#63b8ff" d="M588.1,-220.75C577.37,-203.1 553.16,-163.3 538.8,-139.7"/>
<polygon fill="#63b8ff" stroke="#63b8ff" points="541.95,-138.14 533.76,-131.42 535.97,-141.78 541.95,-138.14"/>
</a>
</g>
</g>
<!-- Node18&#45;&gt;Node3 -->
<g id="edge29_Node000018_Node000003" class="edge">
<title>Node18&#45;&gt;Node3</title>
<g id="a_edge29_Node000018_Node000003"><a xlink:title=" ">
<path fill="none" stroke="#63b8ff" d="M689.73,-220.67C674.64,-198.07 631.6,-138.56 579.5,-110.5 518.7,-77.76 437.59,-68.76 388.85,-66.45"/>
<polygon fill="#63b8ff" stroke="#63b8ff" points="389.13,-62.96 379,-66.07 388.86,-69.96 389.13,-62.96"/>
</a>
</g>
</g>
<!-- Node18&#45;&gt;Node13 -->
<g id="edge31_Node000018_Node000013" class="edge">
<title>Node18&#45;&gt;Node13</title>
<g id="a_edge31_Node000018_Node000013"><a xlink:title=" ">
<path fill="none" stroke="#63b8ff" d="M681.47,-220.56C652.61,-201.93 586.37,-159.15 550.91,-136.25"/>
<polygon fill="#63b8ff" stroke="#63b8ff" points="552.95,-133.39 542.65,-130.91 549.15,-139.27 552.95,-133.39"/>
</a>
</g>
</g>
<!-- Node19 -->
<g id="Node000019" class="node">
<title>Node19</title>
<g id="a_Node000019"><a xlink:title=" ">
<polygon fill="#e0e0e0" stroke="#999999" points="966.5,-185 908.5,-185 908.5,-165.75 966.5,-165.75 966.5,-185"/>
<text xml:space="preserve" text-anchor="middle" x="937.5" y="-171.5" font-family="Helvetica,sans-Serif" font-size="10.00">functional</text>
</a>
</g>
</g>
<!-- Node18&#45;&gt;Node19 -->
<g id="edge30_Node000018_Node000019" class="edge">
<title>Node18&#45;&gt;Node19</title>
<g id="a_edge30_Node000018_Node000019"><a xlink:title=" ">
<path fill="none" stroke="#63b8ff" d="M736.83,-220.53C781.66,-210.67 852.76,-195.02 897.19,-185.25"/>
<polygon fill="#63b8ff" stroke="#63b8ff" points="897.66,-188.73 906.67,-183.16 896.15,-181.89 897.66,-188.73"/>
</a>
</g>
</g>
<!-- Node20 -->
<g id="Node000020" class="node">
<title>Node20</title>
<g id="a_Node000020"><a xlink:title=" ">
<polygon fill="#e0e0e0" stroke="#999999" points="730.62,-185 688.38,-185 688.38,-165.75 730.62,-165.75 730.62,-185"/>
<text xml:space="preserve" text-anchor="middle" x="709.5" y="-171.5" font-family="Helvetica,sans-Serif" font-size="10.00">queue</text>
</a>
</g>
</g>
<!-- Node18&#45;&gt;Node20 -->
<g id="edge32_Node000018_Node000020" class="edge">
<title>Node18&#45;&gt;Node20</title>
<g id="a_edge32_Node000018_Node000020"><a xlink:title=" ">
<path fill="none" stroke="#63b8ff" d="M697.81,-220.83C699.56,-214.17 702.04,-204.74 704.27,-196.28"/>
<polygon fill="#63b8ff" stroke="#63b8ff" points="707.6,-197.38 706.75,-186.82 700.83,-195.6 707.6,-197.38"/>
</a>
</g>
</g>
<!-- Node21 -->
<g id="Node000021" class="node">
<title>Node21</title>
<g id="a_Node000021"><a xlink:href="_named_value_table_8h.html" target="_top" xlink:title=" ">
<polygon fill="white" stroke="#666666" points="852,-185 749,-185 749,-165.75 852,-165.75 852,-185"/>
<text xml:space="preserve" text-anchor="middle" x="800.5" y="-171.5" font-family="Helvetica,sans-Serif" font-size="10.00">NamedValueTable.h</text>
</a>
</g>
</g>
<!-- Node18&#45;&gt;Node21 -->
<g id="edge33_Node000018_Node000021" class="edge">
<title>Node18&#45;&gt;Node21</title>
<g id="a_edge33_Node000018_Node000021"><a xlink:title=" ">
<path fill="none" stroke="#63b8ff" d="M713.31,-220.59C729.53,-212.37 753.74,-200.09 772.53,-190.56"/>
<polygon fill="#63b8ff" stroke="#63b8ff" points="773.92,-193.78 781.25,-186.14 770.75,-187.54 773.92,-193.78"/>
</a>
</g>
</g>
<!-- Node18&#45;&gt;Node23 -->
<g id="edge38_Node000018_Node000023" class="edge">
<title>Node18&#45;&gt;Node23</title>
<g id="a_edge38_Node000018_Node000023"><a xlink:title=" ">
<path fill="none" stroke="#63b8ff" d="M737.27,-220.62C783.43,-210.33 852.49,-193.77 861.5,-185 873.18,-173.63 877.76,-155.43 879.51,-141.36"/>
<polygon fill="#63b8ff" stroke="#63b8ff" points="883,-141.68 880.33,-131.42 876.02,-141.1 883,-141.68"/>
</a>
</g>
</g>
<!-- Node21&#45;&gt;Node13 -->
<g id="edge34_Node000021_Node000013" class="edge">
<title>Node21&#45;&gt;Node13</title>
<g id="a_edge34_Node000021_Node000013"><a xlink:title=" ">
<path fill="none" stroke="#63b8ff" d="M753.88,-165.28C698.87,-154.55 608.8,-136.98 560.52,-127.57"/>
<polygon fill="#63b8ff" stroke="#63b8ff" points="561.45,-124.18 550.96,-125.7 560.11,-131.05 561.45,-124.18"/>
</a>
</g>
</g>
<!-- Node22 -->
<g id="Node000022" class="node">
<title>Node22</title>
<g id="a_Node000022"><a xlink:href="_l_s_c_utils_8h.html" target="_top" xlink:title=" ">
<polygon fill="white" stroke="#666666" points="780.5,-129.75 716.5,-129.75 716.5,-110.5 780.5,-110.5 780.5,-129.75"/>
<text xml:space="preserve" text-anchor="middle" x="748.5" y="-116.25" font-family="Helvetica,sans-Serif" font-size="10.00">LSCUtils.h</text>
</a>
</g>
</g>
<!-- Node21&#45;&gt;Node22 -->
<g id="edge35_Node000021_Node000022" class="edge">
<title>Node21&#45;&gt;Node22</title>
<g id="a_edge35_Node000021_Node000022"><a xlink:title=" ">
<path fill="none" stroke="#63b8ff" d="M791.91,-165.58C784.66,-158.15 774.05,-147.29 765.13,-138.16"/>
<polygon fill="#63b8ff" stroke="#63b8ff" points="767.82,-135.9 758.33,-131.19 762.81,-140.79 767.82,-135.9"/>
</a>
</g>
</g>
<!-- Node21&#45;&gt;Node23 -->
<g id="edge37_Node000021_Node000023" class="edge">
<title>Node21&#45;&gt;Node23</title>
<g id="a_edge37_Node000021_Node000023"><a xlink:title=" ">
<path fill="none" stroke="#63b8ff" d="M814.07,-165.34C825.91,-157.46 843.34,-145.86 857.37,-136.52"/>
<polygon fill="#63b8ff" stroke="#63b8ff" points="859.22,-139.5 865.6,-131.04 855.34,-133.67 859.22,-139.5"/>
</a>
</g>
</g>
<!-- Node22&#45;&gt;Node3 -->
<g id="edge36_Node000022_Node000003" class="edge">
<title>Node22&#45;&gt;Node3</title>
<g id="a_edge36_Node000022_Node000003"><a xlink:title=" ">
<path fill="none" stroke="#63b8ff" d="M716.28,-114.86C644.1,-105.3 469.41,-82.16 388.69,-71.46"/>
<polygon fill="#63b8ff" stroke="#63b8ff" points="389.36,-68.02 378.98,-70.18 388.44,-74.96 389.36,-68.02"/>
</a>
</g>
</g>
<!-- Node25&#45;&gt;Node18 -->
<g id="edge42_Node000025_Node000018" class="edge">
<title>Node25&#45;&gt;Node18</title>
<g id="a_edge42_Node000025_Node000018"><a xlink:title=" ">
<path fill="none" stroke="#63b8ff" d="M738.91,-276.08C731.66,-268.65 721.05,-257.79 712.13,-248.66"/>
<polygon fill="#63b8ff" stroke="#63b8ff" points="714.82,-246.4 705.33,-241.69 709.81,-251.29 714.82,-246.4"/>
</a>
</g>
</g>
<!-- Node25&#45;&gt;Node24 -->
<g id="edge43_Node000025_Node000024" class="edge">
<title>Node25&#45;&gt;Node24</title>
<g id="a_edge43_Node000025_Node000024"><a xlink:title=" ">
<path fill="none" stroke="#63b8ff" d="M752.78,-276.08C756.97,-269.11 762.98,-259.12 768.23,-250.37"/>
<polygon fill="#63b8ff" stroke="#63b8ff" points="771.17,-252.28 773.32,-241.91 765.17,-248.68 771.17,-252.28"/>
</a>
</g>
</g>
<!-- Node26 -->
<g id="Node000026" class="node">
<title>Node26</title>
<g id="a_Node000026"><a xlink:title=" ">
<polygon fill="#e0e0e0" stroke="#999999" points="873.12,-240.25 821.88,-240.25 821.88,-221 873.12,-221 873.12,-240.25"/>
<text xml:space="preserve" text-anchor="middle" x="847.5" y="-226.75" font-family="Helvetica,sans-Serif" font-size="10.00">stdarg.h</text>
</a>
</g>
</g>
<!-- Node25&#45;&gt;Node26 -->
<g id="edge41_Node000025_Node000026" class="edge">
<title>Node25&#45;&gt;Node26</title>
<g id="a_edge41_Node000025_Node000026"><a xlink:title=" ">
<path fill="none" stroke="#63b8ff" d="M764.46,-275.84C779.76,-267.69 802.53,-255.57 820.36,-246.08"/>
<polygon fill="#63b8ff" stroke="#63b8ff" points="821.94,-249.2 829.12,-241.41 818.65,-243.02 821.94,-249.2"/>
</a>
</g>
</g>
<!-- Node27&#45;&gt;Node13 -->
<g id="edge46_Node000027_Node000013" class="edge">
<title>Node27&#45;&gt;Node13</title>
<g id="a_edge46_Node000027_Node000013"><a xlink:title=" ">
<path fill="none" stroke="#63b8ff" d="M534.12,-276.07C533.04,-250.75 529.9,-177.25 528.36,-141.34"/>
<polygon fill="#63b8ff" stroke="#63b8ff" points="531.87,-141.33 527.94,-131.48 524.87,-141.62 531.87,-141.33"/>
</a>
</g>
</g>
<!-- Node27&#45;&gt;Node17 -->
<g id="edge45_Node000027_Node000017" class="edge">
<title>Node27&#45;&gt;Node17</title>
<g id="a_edge45_Node000027_Node000017"><a xlink:title=" ">
<path fill="none" stroke="#63b8ff" d="M544.51,-275.84C552.87,-268.3 565,-257.35 575.1,-248.23"/>
<polygon fill="#63b8ff" stroke="#63b8ff" points="577.44,-250.84 582.52,-241.54 572.75,-245.64 577.44,-250.84"/>
</a>
</g>
</g>
</g>
</svg>
