<?xml version="1.0" encoding="UTF-8" standalone="no"?>
<!DOCTYPE svg PUBLIC "-//W3C//DTD SVG 1.1//EN"
 "http://www.w3.org/Graphics/SVG/1.1/DTD/svg11.dtd">
<!-- Generated by graphviz version 15.1.0 (20260618.0150)
 -->
<!-- Title: src/CLogging.cpp Pages: 1 -->
<svg width="564pt" height="359pt"
 viewBox="0.00 0.00 564.00 359.00" xmlns="http://www.w3.org/2000/svg" xmlns:xlink="http://www.w3.org/1999/xlink">
<g id="graph0" class="graph" transform="scale(1 1) rotate(0) translate(4 354.75)">
<title>src/CLogging.cpp</title>
<!-- Node1 -->
<g id="Node000001" class="node">
<title>Node1</title>
<g id="a_Node000001"><a xlink:title=" ">
<polygon fill="#999999" stroke="#666666" points="183.88,-350.75 91.38,-350.75 91.38,-331.5 183.88,-331.5 183.88,-350.75"/>
<text xml:space="preserve" text-anchor="middle" x="137.62" y="-337.25" font-family="Helvetica,sans-Serif" font-size="10.00">src/CLogging.cpp</text>
</a>
</g>
</g>
<!-- Node2 -->
<g id="Node000002" class="node">
<title>Node2</title>
<g id="a_Node000002"><a xlink:title=" ">
<polygon fill="#e0e0e0" stroke="#999999" points="57.25,-295.5 0,-295.5 0,-276.25 57.25,-276.25 57.25,-295.5"/>
<text xml:space="preserve" text-anchor="middle" x="28.62" y="-282" font-family="Helvetica,sans-Serif" font-size="10.00">Arduino.h</text>
</a>
</g>
</g>
<!-- Node1&#45;&gt;Node2 -->
<g id="edge1_Node000001_Node000002" class="edge">
<title>Node1&#45;&gt;Node2</title>
<g id="a_edge1_Node000001_Node000002"><a xlink:title=" ">
<path fill="none" stroke="#63b8ff" d="M119.13,-331.09C102.22,-322.83 76.94,-310.48 57.39,-300.93"/>
<polygon fill="#63b8ff" stroke="#63b8ff" points="59.09,-297.86 48.57,-296.62 56.01,-304.15 59.09,-297.86"/>
</a>
</g>
</g>
<!-- Node3 -->
<g id="Node000003" class="node">
<title>Node3</title>
<g id="a_Node000003"><a xlink:href="_json_node_8h.html" target="_top" xlink:title=" ">
<polygon fill="white" stroke="#666666" points="555.88,-185 487.38,-185 487.38,-165.75 555.88,-165.75 555.88,-185"/>
<text xml:space="preserve" text-anchor="middle" x="521.62" y="-171.5" font-family="Helvetica,sans-Serif" font-size="10.00">JsonNode.h</text>
</a>
</g>
</g>
<!-- Node1&#45;&gt;Node3 -->
<g id="edge2_Node000001_Node000003" class="edge">
<title>Node1&#45;&gt;Node3</title>
<g id="a_edge2_Node000001_Node000003"><a xlink:title=" ">
<path fill="none" stroke="#63b8ff" d="M158.82,-331.09C222.81,-303.8 414.31,-222.14 490.17,-189.79"/>
<polygon fill="#63b8ff" stroke="#63b8ff" points="491.28,-193.12 499.11,-185.98 488.53,-186.68 491.28,-193.12"/>
</a>
</g>
</g>
<!-- Node9 -->
<g id="Node000009" class="node">
<title>Node9</title>
<g id="a_Node000009"><a xlink:href="_logging_8h.html" target="_top" xlink:title=" ">
<polygon fill="white" stroke="#666666" points="229.62,-295.5 171.62,-295.5 171.62,-276.25 229.62,-276.25 229.62,-295.5"/>
<text xml:space="preserve" text-anchor="middle" x="200.62" y="-282" font-family="Helvetica,sans-Serif" font-size="10.00">Logging.h</text>
</a>
</g>
</g>
<!-- Node1&#45;&gt;Node9 -->
<g id="edge8_Node000001_Node000009" class="edge">
<title>Node1&#45;&gt;Node9</title>
<g id="a_edge8_Node000001_Node000009"><a xlink:title=" ">
<path fill="none" stroke="#63b8ff" d="M148.31,-331.09C157.33,-323.47 170.46,-312.37 181.31,-303.2"/>
<polygon fill="#63b8ff" stroke="#63b8ff" points="183.56,-305.88 188.94,-296.75 179.04,-300.53 183.56,-305.88"/>
</a>
</g>
</g>
<!-- Node16 -->
<g id="Node000016" class="node">
<title>Node16</title>
<g id="a_Node000016"><a xlink:href="_development_helper_8h.html" target="_top" xlink:title=" ">
<polygon fill="white" stroke="#666666" points="288.5,-129.75 178.75,-129.75 178.75,-110.5 288.5,-110.5 288.5,-129.75"/>
<text xml:space="preserve" text-anchor="middle" x="233.62" y="-116.25" font-family="Helvetica,sans-Serif" font-size="10.00">DevelopmentHelper.h</text>
</a>
</g>
</g>
<!-- Node1&#45;&gt;Node16 -->
<g id="edge23_Node000001_Node000016" class="edge">
<title>Node1&#45;&gt;Node16</title>
<g id="a_edge23_Node000001_Node000016"><a xlink:title=" ">
<path fill="none" stroke="#63b8ff" d="M131.68,-331.16C114.23,-303.62 66.73,-218.95 104.62,-165.75 119.1,-145.42 143.5,-134.27 167.21,-128.18"/>
<polygon fill="#63b8ff" stroke="#63b8ff" points="167.92,-131.6 176.9,-125.98 166.38,-124.78 167.92,-131.6"/>
</a>
</g>
</g>
<!-- Node17 -->
<g id="Node000017" class="node">
<title>Node17</title>
<g id="a_Node000017"><a xlink:href="_msgs_8h.html" target="_top" xlink:title=" ">
<polygon fill="white" stroke="#666666" points="161.75,-240.25 113.5,-240.25 113.5,-221 161.75,-221 161.75,-240.25"/>
<text xml:space="preserve" text-anchor="middle" x="137.62" y="-226.75" font-family="Helvetica,sans-Serif" font-size="10.00">Msgs.h</text>
</a>
</g>
</g>
<!-- Node1&#45;&gt;Node17 -->
<g id="edge22_Node000001_Node000017" class="edge">
<title>Node1&#45;&gt;Node17</title>
<g id="a_edge22_Node000001_Node000017"><a xlink:title=" ">
<path fill="none" stroke="#63b8ff" d="M137.62,-331.25C137.62,-314 137.62,-275.58 137.62,-251.81"/>
<polygon fill="#63b8ff" stroke="#63b8ff" points="141.13,-252.14 137.63,-242.14 134.13,-252.14 141.13,-252.14"/>
</a>
</g>
</g>
<!-- Node4 -->
<g id="Node000004" class="node">
<title>Node4</title>
<g id="a_Node000004"><a xlink:href="_runtime_8h.html" target="_top" xlink:title=" ">
<polygon fill="white" stroke="#666666" points="491.12,-74.5 430.12,-74.5 430.12,-55.25 491.12,-55.25 491.12,-74.5"/>
<text xml:space="preserve" text-anchor="middle" x="460.62" y="-61" font-family="Helvetica,sans-Serif" font-size="10.00">Runtime.h</text>
</a>
</g>
</g>
<!-- Node3&#45;&gt;Node4 -->
<g id="edge3_Node000003_Node000004" class="edge">
<title>Node3&#45;&gt;Node4</title>
<g id="a_edge3_Node000003_Node000004"><a xlink:title=" ">
<path fill="none" stroke="#63b8ff" d="M516.63,-165.5C506.76,-147.93 484.54,-108.41 471.25,-84.77"/>
<polygon fill="#63b8ff" stroke="#63b8ff" points="474.38,-83.2 466.43,-76.2 468.28,-86.63 474.38,-83.2"/>
</a>
</g>
</g>
<!-- Node8 -->
<g id="Node000008" class="node">
<title>Node8</title>
<g id="a_Node000008"><a xlink:title=" ">
<polygon fill="#e0e0e0" stroke="#999999" points="432.12,-129.75 389.12,-129.75 389.12,-110.5 432.12,-110.5 432.12,-129.75"/>
<text xml:space="preserve" text-anchor="middle" x="410.62" y="-116.25" font-family="Helvetica,sans-Serif" font-size="10.00">vector</text>
</a>
</g>
</g>
<!-- Node3&#45;&gt;Node8 -->
<g id="edge7_Node000003_Node000008" class="edge">
<title>Node3&#45;&gt;Node8</title>
<g id="a_edge7_Node000003_Node000008"><a xlink:title=" ">
<path fill="none" stroke="#63b8ff" d="M502.8,-165.34C485.57,-157.08 459.82,-144.73 439.92,-135.18"/>
<polygon fill="#63b8ff" stroke="#63b8ff" points="441.44,-132.03 430.91,-130.86 438.41,-138.34 441.44,-132.03"/>
</a>
</g>
</g>
<!-- Node5 -->
<g id="Node000005" class="node">
<title>Node5</title>
<g id="a_Node000005"><a xlink:title=" ">
<polygon fill="#e0e0e0" stroke="#999999" points="419.75,-19.25 371.5,-19.25 371.5,0 419.75,0 419.75,-19.25"/>
<text xml:space="preserve" text-anchor="middle" x="395.62" y="-5.75" font-family="Helvetica,sans-Serif" font-size="10.00">string.h</text>
</a>
</g>
</g>
<!-- Node4&#45;&gt;Node5 -->
<g id="edge4_Node000004_Node000005" class="edge">
<title>Node4&#45;&gt;Node5</title>
<g id="a_edge4_Node000004_Node000005"><a xlink:title=" ">
<path fill="none" stroke="#63b8ff" d="M449.6,-54.84C440.2,-47.15 426.48,-35.9 415.22,-26.68"/>
<polygon fill="#63b8ff" stroke="#63b8ff" points="417.61,-24.11 407.66,-20.48 413.18,-29.53 417.61,-24.11"/>
</a>
</g>
</g>
<!-- Node6 -->
<g id="Node000006" class="node">
<title>Node6</title>
<g id="a_Node000006"><a xlink:title=" ">
<polygon fill="#e0e0e0" stroke="#999999" points="483.25,-19.25 438,-19.25 438,0 483.25,0 483.25,-19.25"/>
<text xml:space="preserve" text-anchor="middle" x="460.62" y="-5.75" font-family="Helvetica,sans-Serif" font-size="10.00">chrono</text>
</a>
</g>
</g>
<!-- Node4&#45;&gt;Node6 -->
<g id="edge5_Node000004_Node000006" class="edge">
<title>Node4&#45;&gt;Node6</title>
<g id="a_edge5_Node000004_Node000006"><a xlink:title=" ">
<path fill="none" stroke="#63b8ff" d="M460.62,-55.08C460.62,-48.57 460.62,-39.42 460.62,-31.12"/>
<polygon fill="#63b8ff" stroke="#63b8ff" points="464.13,-31.12 460.63,-21.12 457.13,-31.12 464.13,-31.12"/>
</a>
</g>
</g>
<!-- Node7 -->
<g id="Node000007" class="node">
<title>Node7</title>
<g id="a_Node000007"><a xlink:title=" ">
<polygon fill="#e0e0e0" stroke="#999999" points="554.38,-19.25 500.88,-19.25 500.88,0 554.38,0 554.38,-19.25"/>
<text xml:space="preserve" text-anchor="middle" x="527.62" y="-5.75" font-family="Helvetica,sans-Serif" font-size="10.00">iostream</text>
</a>
</g>
</g>
<!-- Node4&#45;&gt;Node7 -->
<g id="edge6_Node000004_Node000007" class="edge">
<title>Node4&#45;&gt;Node7</title>
<g id="a_edge6_Node000004_Node000007"><a xlink:title=" ">
<path fill="none" stroke="#63b8ff" d="M471.99,-54.84C481.67,-47.15 495.82,-35.9 507.43,-26.68"/>
<polygon fill="#63b8ff" stroke="#63b8ff" points="509.59,-29.43 515.24,-20.47 505.24,-23.95 509.59,-29.43"/>
</a>
</g>
</g>
<!-- Node10 -->
<g id="Node000010" class="node">
<title>Node10</title>
<g id="a_Node000010"><a xlink:title=" ">
<polygon fill="#e0e0e0" stroke="#999999" points="231.25,-240.25 180,-240.25 180,-221 231.25,-221 231.25,-240.25"/>
<text xml:space="preserve" text-anchor="middle" x="205.62" y="-226.75" font-family="Helvetica,sans-Serif" font-size="10.00">stdarg.h</text>
</a>
</g>
</g>
<!-- Node9&#45;&gt;Node10 -->
<g id="edge9_Node000009_Node000010" class="edge">
<title>Node9&#45;&gt;Node10</title>
<g id="a_edge9_Node000009_Node000010"><a xlink:title=" ">
<path fill="none" stroke="#63b8ff" d="M201.45,-276.08C202.07,-269.49 202.94,-260.21 203.73,-251.82"/>
<polygon fill="#63b8ff" stroke="#63b8ff" points="207.19,-252.4 204.64,-242.12 200.22,-251.75 207.19,-252.4"/>
</a>
</g>
</g>
<!-- Node11 -->
<g id="Node000011" class="node">
<title>Node11</title>
<g id="a_Node000011"><a xlink:href="_event_handler_8h.html" target="_top" xlink:title=" ">
<polygon fill="white" stroke="#666666" points="332,-240.25 249.25,-240.25 249.25,-221 332,-221 332,-240.25"/>
<text xml:space="preserve" text-anchor="middle" x="290.62" y="-226.75" font-family="Helvetica,sans-Serif" font-size="10.00">EventHandler.h</text>
</a>
</g>
</g>
<!-- Node9&#45;&gt;Node11 -->
<g id="edge10_Node000009_Node000011" class="edge">
<title>Node9&#45;&gt;Node11</title>
<g id="a_edge10_Node000009_Node000011"><a xlink:title=" ">
<path fill="none" stroke="#63b8ff" d="M215.89,-275.84C229.47,-267.81 249.58,-255.91 265.52,-246.48"/>
<polygon fill="#63b8ff" stroke="#63b8ff" points="267.16,-249.58 273.98,-241.47 263.59,-243.55 267.16,-249.58"/>
</a>
</g>
</g>
<!-- Node9&#45;&gt;Node17 -->
<g id="edge21_Node000009_Node000017" class="edge">
<title>Node9&#45;&gt;Node17</title>
<g id="a_edge21_Node000009_Node000017"><a xlink:title=" ">
<path fill="none" stroke="#63b8ff" d="M189.94,-275.84C180.92,-268.22 167.79,-257.12 156.94,-247.95"/>
<polygon fill="#63b8ff" stroke="#63b8ff" points="159.21,-245.28 149.31,-241.5 154.69,-250.63 159.21,-245.28"/>
</a>
</g>
</g>
<!-- Node11&#45;&gt;Node4 -->
<g id="edge11_Node000011_Node000004" class="edge">
<title>Node11&#45;&gt;Node4</title>
<g id="a_edge11_Node000011_Node000004"><a xlink:title=" ">
<path fill="none" stroke="#63b8ff" d="M332.38,-224.06C359.9,-218.42 395.08,-207.2 418.62,-185 446.6,-158.63 455.96,-112.51 459.08,-86.06"/>
<polygon fill="#63b8ff" stroke="#63b8ff" points="462.54,-86.62 460.01,-76.33 455.57,-85.95 462.54,-86.62"/>
</a>
</g>
</g>
<!-- Node11&#45;&gt;Node8 -->
<g id="edge13_Node000011_Node000008" class="edge">
<title>Node11&#45;&gt;Node8</title>
<g id="a_edge13_Node000011_Node000008"><a xlink:title=" ">
<path fill="none" stroke="#63b8ff" d="M332.24,-223.09C355.87,-217.17 383.98,-205.99 400.62,-185 410.34,-172.74 412.44,-154.91 412.34,-141.19"/>
<polygon fill="#63b8ff" stroke="#63b8ff" points="415.85,-141.36 411.86,-131.55 408.86,-141.71 415.85,-141.36"/>
</a>
</g>
</g>
<!-- Node12 -->
<g id="Node000012" class="node">
<title>Node12</title>
<g id="a_Node000012"><a xlink:title=" ">
<polygon fill="#e0e0e0" stroke="#999999" points="171.62,-185 113.62,-185 113.62,-165.75 171.62,-165.75 171.62,-185"/>
<text xml:space="preserve" text-anchor="middle" x="142.62" y="-171.5" font-family="Helvetica,sans-Serif" font-size="10.00">functional</text>
</a>
</g>
</g>
<!-- Node11&#45;&gt;Node12 -->
<g id="edge12_Node000011_Node000012" class="edge">
<title>Node11&#45;&gt;Node12</title>
<g id="a_edge12_Node000011_Node000012"><a xlink:title=" ">
<path fill="none" stroke="#63b8ff" d="M265.52,-220.59C241.6,-211.99 205.34,-198.94 178.4,-189.25"/>
<polygon fill="#63b8ff" stroke="#63b8ff" points="179.87,-186.06 169.28,-185.96 177.5,-192.64 179.87,-186.06"/>
</a>
</g>
</g>
<!-- Node13 -->
<g id="Node000013" class="node">
<title>Node13</title>
<g id="a_Node000013"><a xlink:title=" ">
<polygon fill="#e0e0e0" stroke="#999999" points="231.75,-185 189.5,-185 189.5,-165.75 231.75,-165.75 231.75,-185"/>
<text xml:space="preserve" text-anchor="middle" x="210.62" y="-171.5" font-family="Helvetica,sans-Serif" font-size="10.00">queue</text>
</a>
</g>
</g>
<!-- Node11&#45;&gt;Node13 -->
<g id="edge14_Node000011_Node000013" class="edge">
<title>Node11&#45;&gt;Node13</title>
<g id="a_edge14_Node000011_Node000013"><a xlink:title=" ">
<path fill="none" stroke="#63b8ff" d="M277.05,-220.59C265.22,-212.71 247.79,-201.11 233.75,-191.77"/>
<polygon fill="#63b8ff" stroke="#63b8ff" points="235.79,-188.92 225.52,-186.29 231.91,-194.75 235.79,-188.92"/>
</a>
</g>
</g>
<!-- Node14 -->
<g id="Node000014" class="node">
<title>Node14</title>
<g id="a_Node000014"><a xlink:href="_named_value_table_8h.html" target="_top" xlink:title=" ">
<polygon fill="white" stroke="#666666" points="391.12,-185 288.12,-185 288.12,-165.75 391.12,-165.75 391.12,-185"/>
<text xml:space="preserve" text-anchor="middle" x="339.62" y="-171.5" font-family="Helvetica,sans-Serif" font-size="10.00">NamedValueTable.h</text>
</a>
</g>
</g>
<!-- Node11&#45;&gt;Node14 -->
<g id="edge15_Node000011_Node000014" class="edge">
<title>Node11&#45;&gt;Node14</title>
<g id="a_edge15_Node000011_Node000014"><a xlink:title=" ">
<path fill="none" stroke="#63b8ff" d="M298.72,-220.83C305.48,-213.48 315.35,-202.76 323.69,-193.69"/>
<polygon fill="#63b8ff" stroke="#63b8ff" points="326.14,-196.2 330.33,-186.47 320.99,-191.46 326.14,-196.2"/>
</a>
</g>
</g>
<!-- Node11&#45;&gt;Node16 -->
<g id="edge20_Node000011_Node000016" class="edge">
<title>Node11&#45;&gt;Node16</title>
<g id="a_edge20_Node000011_Node000016"><a xlink:title=" ">
<path fill="none" stroke="#63b8ff" d="M285.96,-220.75C276.73,-203.18 255.97,-163.66 243.55,-140.02"/>
<polygon fill="#63b8ff" stroke="#63b8ff" points="246.81,-138.69 239.06,-131.47 240.61,-141.95 246.81,-138.69"/>
</a>
</g>
</g>
<!-- Node14&#45;&gt;Node8 -->
<g id="edge16_Node000014_Node000008" class="edge">
<title>Node14&#45;&gt;Node8</title>
<g id="a_edge16_Node000014_Node000008"><a xlink:title=" ">
<path fill="none" stroke="#63b8ff" d="M351.67,-165.34C362.03,-157.57 377.23,-146.17 389.59,-136.9"/>
<polygon fill="#63b8ff" stroke="#63b8ff" points="391.65,-139.73 397.55,-130.93 387.45,-134.13 391.65,-139.73"/>
</a>
</g>
</g>
<!-- Node15 -->
<g id="Node000015" class="node">
<title>Node15</title>
<g id="a_Node000015"><a xlink:href="_l_s_c_utils_8h.html" target="_top" xlink:title=" ">
<polygon fill="white" stroke="#666666" points="370.62,-129.75 306.62,-129.75 306.62,-110.5 370.62,-110.5 370.62,-129.75"/>
<text xml:space="preserve" text-anchor="middle" x="338.62" y="-116.25" font-family="Helvetica,sans-Serif" font-size="10.00">LSCUtils.h</text>
</a>
</g>
</g>
<!-- Node14&#45;&gt;Node15 -->
<g id="edge17_Node000014_Node000015" class="edge">
<title>Node14&#45;&gt;Node15</title>
<g id="a_edge17_Node000014_Node000015"><a xlink:title=" ">
<path fill="none" stroke="#63b8ff" d="M339.46,-165.58C339.34,-159.07 339.17,-149.92 339.01,-141.62"/>
<polygon fill="#63b8ff" stroke="#63b8ff" points="342.51,-141.55 338.82,-131.62 335.51,-141.69 342.51,-141.55"/>
</a>
</g>
</g>
<!-- Node14&#45;&gt;Node16 -->
<g id="edge19_Node000014_Node000016" class="edge">
<title>Node14&#45;&gt;Node16</title>
<g id="a_edge19_Node000014_Node000016"><a xlink:title=" ">
<path fill="none" stroke="#63b8ff" d="M321.64,-165.34C305.27,-157.12 280.84,-144.84 261.86,-135.31"/>
<polygon fill="#63b8ff" stroke="#63b8ff" points="263.55,-132.24 253.05,-130.88 260.41,-138.5 263.55,-132.24"/>
</a>
</g>
</g>
<!-- Node15&#45;&gt;Node4 -->
<g id="edge18_Node000015_Node000004" class="edge">
<title>Node15&#45;&gt;Node4</title>
<g id="a_edge18_Node000015_Node000004"><a xlink:title=" ">
<path fill="none" stroke="#63b8ff" d="M359.32,-110.09C378.51,-101.72 407.34,-89.13 429.34,-79.53"/>
<polygon fill="#63b8ff" stroke="#63b8ff" points="430.68,-82.77 438.44,-75.56 427.88,-76.35 430.68,-82.77"/>
</a>
</g>
</g>
</g>
</svg>
