<?xml version="1.0" encoding="UTF-8" standalone="no"?>
<!DOCTYPE svg PUBLIC "-//W3C//DTD SVG 1.1//EN"
 "http://www.w3.org/Graphics/SVG/1.1/DTD/svg11.dtd">
<!-- Generated by graphviz version 15.1.0 (20260618.0150)
 -->
<!-- Title: src/CMQTTControler.cpp Pages: 1 -->
<svg width="1027pt" height="469pt"
 viewBox="0.00 0.00 1027.00 469.00" xmlns="http://www.w3.org/2000/svg" xmlns:xlink="http://www.w3.org/1999/xlink">
<g id="graph0" class="graph" transform="scale(1 1) rotate(0) translate(4 465.25)">
<title>src/CMQTTControler.cpp</title>
<!-- Node1 -->
<g id="Node000001" class="node">
<title>Node1</title>
<g id="a_Node000001"><a xlink:title=" ">
<polygon fill="#999999" stroke="#666666" points="419.89,-461.25 294.39,-461.25 294.39,-442 419.89,-442 419.89,-461.25"/>
<text xml:space="preserve" text-anchor="middle" x="357.14" y="-447.75" font-family="Helvetica,sans-Serif" font-size="10.00">src/CMQTTControler.cpp</text>
</a>
</g>
</g>
<!-- Node2 -->
<g id="Node000002" class="node">
<title>Node2</title>
<g id="a_Node000002"><a xlink:title=" ">
<polygon fill="#e0e0e0" stroke="#999999" points="92.76,-406 35.51,-406 35.51,-386.75 92.76,-386.75 92.76,-406"/>
<text xml:space="preserve" text-anchor="middle" x="64.14" y="-392.5" font-family="Helvetica,sans-Serif" font-size="10.00">Arduino.h</text>
</a>
</g>
</g>
<!-- Node1&#45;&gt;Node2 -->
<g id="edge1_Node000001_Node000002" class="edge">
<title>Node1&#45;&gt;Node2</title>
<g id="a_edge1_Node000001_Node000002"><a xlink:title=" ">
<path fill="none" stroke="#63b8ff" d="M304.4,-441.55C253.77,-432.75 175.15,-418.89 107.14,-406 106.12,-405.81 105.09,-405.61 104.06,-405.41"/>
<polygon fill="#63b8ff" stroke="#63b8ff" points="104.77,-401.99 94.29,-403.5 103.43,-408.86 104.77,-401.99"/>
</a>
</g>
</g>
<!-- Node3 -->
<g id="Node000003" class="node">
<title>Node3</title>
<g id="a_Node000003"><a xlink:href="_json_node_8h.html" target="_top" xlink:title=" ">
<polygon fill="white" stroke="#666666" points="353.39,-185 284.89,-185 284.89,-165.75 353.39,-165.75 353.39,-185"/>
<text xml:space="preserve" text-anchor="middle" x="319.14" y="-171.5" font-family="Helvetica,sans-Serif" font-size="10.00">JsonNode.h</text>
</a>
</g>
</g>
<!-- Node1&#45;&gt;Node3 -->
<g id="edge2_Node000001_Node000003" class="edge">
<title>Node1&#45;&gt;Node3</title>
<g id="a_edge2_Node000001_Node000003"><a xlink:title=" ">
<path fill="none" stroke="#63b8ff" d="M347.29,-441.51C329.57,-424.07 294.14,-383.95 294.14,-342.12 294.14,-342.12 294.14,-342.12 294.14,-284.88 294.14,-253.22 304.37,-217.66 311.74,-196.15"/>
<polygon fill="#63b8ff" stroke="#63b8ff" points="314.97,-197.52 315.04,-186.92 308.38,-195.16 314.97,-197.52"/>
</a>
</g>
</g>
<!-- Node9 -->
<g id="Node000009" class="node">
<title>Node9</title>
<g id="a_Node000009"><a xlink:href="_appl_8h.html" target="_top" xlink:title="Application Main Class.">
<polygon fill="white" stroke="#666666" points="451.01,-350.75 407.26,-350.75 407.26,-331.5 451.01,-331.5 451.01,-350.75"/>
<text xml:space="preserve" text-anchor="middle" x="429.14" y="-337.25" font-family="Helvetica,sans-Serif" font-size="10.00">Appl.h</text>
</a>
</g>
</g>
<!-- Node1&#45;&gt;Node9 -->
<g id="edge8_Node000001_Node000009" class="edge">
<title>Node1&#45;&gt;Node9</title>
<g id="a_edge8_Node000001_Node000009"><a xlink:title=" ">
<path fill="none" stroke="#63b8ff" d="M363.03,-441.75C374.74,-424.1 401.15,-384.3 416.81,-360.7"/>
<polygon fill="#63b8ff" stroke="#63b8ff" points="419.71,-362.66 422.33,-352.39 413.88,-358.78 419.71,-362.66"/>
</a>
</g>
</g>
<!-- Node10 -->
<g id="Node000010" class="node">
<title>Node10</title>
<g id="a_Node000010"><a xlink:href="_sys_status_8h.html" target="_top" xlink:title=" ">
<polygon fill="white" stroke="#666666" points="131.14,-295.5 61.14,-295.5 61.14,-276.25 131.14,-276.25 131.14,-295.5"/>
<text xml:space="preserve" text-anchor="middle" x="96.14" y="-282" font-family="Helvetica,sans-Serif" font-size="10.00">SysStatus.h</text>
</a>
</g>
</g>
<!-- Node1&#45;&gt;Node10 -->
<g id="edge58_Node000001_Node000010" class="edge">
<title>Node1&#45;&gt;Node10</title>
<g id="a_edge58_Node000001_Node000010"><a xlink:title=" ">
<path fill="none" stroke="#63b8ff" d="M294.12,-443.91C240.06,-436.99 167.47,-424.58 145.14,-406 114.85,-380.8 103.04,-333.87 98.63,-307.05"/>
<polygon fill="#63b8ff" stroke="#63b8ff" points="102.09,-306.59 97.21,-297.18 95.16,-307.58 102.09,-306.59"/>
</a>
</g>
</g>
<!-- Node20 -->
<g id="Node000020" class="node">
<title>Node20</title>
<g id="a_Node000020"><a xlink:href="_l_s_c_utils_8h.html" target="_top" xlink:title=" ">
<polygon fill="white" stroke="#666666" points="329.14,-129.75 265.14,-129.75 265.14,-110.5 329.14,-110.5 329.14,-129.75"/>
<text xml:space="preserve" text-anchor="middle" x="297.14" y="-116.25" font-family="Helvetica,sans-Serif" font-size="10.00">LSCUtils.h</text>
</a>
</g>
</g>
<!-- Node1&#45;&gt;Node20 -->
<g id="edge56_Node000001_Node000020" class="edge">
<title>Node1&#45;&gt;Node20</title>
<g id="a_edge56_Node000001_Node000020"><a xlink:title=" ">
<path fill="none" stroke="#63b8ff" d="M343.75,-441.5C306.9,-415.43 204.5,-336.27 171.14,-240.25 153.88,-190.57 218.85,-153.22 261.86,-134.51"/>
<polygon fill="#63b8ff" stroke="#63b8ff" points="262.99,-137.83 270.86,-130.74 260.28,-131.37 262.99,-137.83"/>
</a>
</g>
</g>
<!-- Node22 -->
<g id="Node000022" class="node">
<title>Node22</title>
<g id="a_Node000022"><a xlink:href="_msgs_8h.html" target="_top" xlink:title=" ">
<polygon fill="white" stroke="#666666" points="796.26,-240.25 748.01,-240.25 748.01,-221 796.26,-221 796.26,-240.25"/>
<text xml:space="preserve" text-anchor="middle" x="772.14" y="-226.75" font-family="Helvetica,sans-Serif" font-size="10.00">Msgs.h</text>
</a>
</g>
</g>
<!-- Node1&#45;&gt;Node22 -->
<g id="edge57_Node000001_Node000022" class="edge">
<title>Node1&#45;&gt;Node22</title>
<g id="a_edge57_Node000001_Node000022"><a xlink:title=" ">
<path fill="none" stroke="#63b8ff" d="M420.33,-446.03C491.62,-439.91 602.32,-427.3 638.14,-406 701.8,-368.14 745.93,-287.52 763.57,-250.69"/>
<polygon fill="#63b8ff" stroke="#63b8ff" points="766.68,-252.3 767.72,-241.75 760.33,-249.35 766.68,-252.3"/>
</a>
</g>
</g>
<!-- Node26 -->
<g id="Node000026" class="node">
<title>Node26</title>
<g id="a_Node000026"><a xlink:href="_network_8h.html" target="_top" xlink:title=" ">
<polygon fill="white" stroke="#666666" points="1011.64,-406 950.64,-406 950.64,-386.75 1011.64,-386.75 1011.64,-406"/>
<text xml:space="preserve" text-anchor="middle" x="981.14" y="-392.5" font-family="Helvetica,sans-Serif" font-size="10.00">Network.h</text>
</a>
</g>
</g>
<!-- Node1&#45;&gt;Node26 -->
<g id="edge45_Node000001_Node000026" class="edge">
<title>Node1&#45;&gt;Node26</title>
<g id="a_edge45_Node000001_Node000026"><a xlink:title=" ">
<path fill="none" stroke="#63b8ff" d="M420.18,-445.9C521.29,-438.22 725.94,-422.24 899.14,-406 912.12,-404.78 926.25,-403.34 939.06,-401.99"/>
<polygon fill="#63b8ff" stroke="#63b8ff" points="939.31,-405.48 948.89,-400.94 938.57,-398.52 939.31,-405.48"/>
</a>
</g>
</g>
<!-- Node27 -->
<g id="Node000027" class="node">
<title>Node27</title>
<g id="a_Node000027"><a xlink:href="_m_q_t_t_controller_8h.html" target="_top" xlink:title=" ">
<polygon fill="white" stroke="#666666" points="628.76,-406 535.51,-406 535.51,-386.75 628.76,-386.75 628.76,-406"/>
<text xml:space="preserve" text-anchor="middle" x="582.14" y="-392.5" font-family="Helvetica,sans-Serif" font-size="10.00">MQTTController.h</text>
</a>
</g>
</g>
<!-- Node1&#45;&gt;Node27 -->
<g id="edge47_Node000001_Node000027" class="edge">
<title>Node1&#45;&gt;Node27</title>
<g id="a_edge47_Node000001_Node000027"><a xlink:title=" ">
<path fill="none" stroke="#63b8ff" d="M395.56,-441.53C433.42,-432.57 491.43,-418.84 532.7,-409.07"/>
<polygon fill="#63b8ff" stroke="#63b8ff" points="533.47,-412.49 542.4,-406.78 531.86,-405.68 533.47,-412.49"/>
</a>
</g>
</g>
<!-- Node4 -->
<g id="Node000004" class="node">
<title>Node4</title>
<g id="a_Node000004"><a xlink:href="_runtime_8h.html" target="_top" xlink:title=" ">
<polygon fill="white" stroke="#666666" points="586.64,-74.5 525.64,-74.5 525.64,-55.25 586.64,-55.25 586.64,-74.5"/>
<text xml:space="preserve" text-anchor="middle" x="556.14" y="-61" font-family="Helvetica,sans-Serif" font-size="10.00">Runtime.h</text>
</a>
</g>
</g>
<!-- Node3&#45;&gt;Node4 -->
<g id="edge3_Node000003_Node000004" class="edge">
<title>Node3&#45;&gt;Node4</title>
<g id="a_edge3_Node000003_Node000004"><a xlink:title=" ">
<path fill="none" stroke="#63b8ff" d="M324.57,-165.41C333.52,-151.44 352.72,-124.62 376.14,-110.5 418.86,-84.74 475.82,-73.81 514.12,-69.2"/>
<polygon fill="#63b8ff" stroke="#63b8ff" points="514.31,-72.7 523.87,-68.13 513.55,-65.74 514.31,-72.7"/>
</a>
</g>
</g>
<!-- Node8 -->
<g id="Node000008" class="node">
<title>Node8</title>
<g id="a_Node000008"><a xlink:title=" ">
<polygon fill="#e0e0e0" stroke="#999999" points="428.64,-129.75 385.64,-129.75 385.64,-110.5 428.64,-110.5 428.64,-129.75"/>
<text xml:space="preserve" text-anchor="middle" x="407.14" y="-116.25" font-family="Helvetica,sans-Serif" font-size="10.00">vector</text>
</a>
</g>
</g>
<!-- Node3&#45;&gt;Node8 -->
<g id="edge7_Node000003_Node000008" class="edge">
<title>Node3&#45;&gt;Node8</title>
<g id="a_edge7_Node000003_Node000008"><a xlink:title=" ">
<path fill="none" stroke="#63b8ff" d="M334.06,-165.34C347.34,-157.31 367,-145.41 382.59,-135.98"/>
<polygon fill="#63b8ff" stroke="#63b8ff" points="384.1,-139.16 390.84,-130.99 380.47,-133.17 384.1,-139.16"/>
</a>
</g>
</g>
<!-- Node5 -->
<g id="Node000005" class="node">
<title>Node5</title>
<g id="a_Node000005"><a xlink:title=" ">
<polygon fill="#e0e0e0" stroke="#999999" points="515.26,-19.25 467.01,-19.25 467.01,0 515.26,0 515.26,-19.25"/>
<text xml:space="preserve" text-anchor="middle" x="491.14" y="-5.75" font-family="Helvetica,sans-Serif" font-size="10.00">string.h</text>
</a>
</g>
</g>
<!-- Node4&#45;&gt;Node5 -->
<g id="edge4_Node000004_Node000005" class="edge">
<title>Node4&#45;&gt;Node5</title>
<g id="a_edge4_Node000004_Node000005"><a xlink:title=" ">
<path fill="none" stroke="#63b8ff" d="M545.11,-54.84C535.72,-47.15 521.99,-35.9 510.73,-26.68"/>
<polygon fill="#63b8ff" stroke="#63b8ff" points="513.12,-24.11 503.17,-20.48 508.69,-29.53 513.12,-24.11"/>
</a>
</g>
</g>
<!-- Node6 -->
<g id="Node000006" class="node">
<title>Node6</title>
<g id="a_Node000006"><a xlink:title=" ">
<polygon fill="#e0e0e0" stroke="#999999" points="578.76,-19.25 533.51,-19.25 533.51,0 578.76,0 578.76,-19.25"/>
<text xml:space="preserve" text-anchor="middle" x="556.14" y="-5.75" font-family="Helvetica,sans-Serif" font-size="10.00">chrono</text>
</a>
</g>
</g>
<!-- Node4&#45;&gt;Node6 -->
<g id="edge5_Node000004_Node000006" class="edge">
<title>Node4&#45;&gt;Node6</title>
<g id="a_edge5_Node000004_Node000006"><a xlink:title=" ">
<path fill="none" stroke="#63b8ff" d="M556.14,-55.08C556.14,-48.57 556.14,-39.42 556.14,-31.12"/>
<polygon fill="#63b8ff" stroke="#63b8ff" points="559.64,-31.12 556.14,-21.12 552.64,-31.12 559.64,-31.12"/>
</a>
</g>
</g>
<!-- Node7 -->
<g id="Node000007" class="node">
<title>Node7</title>
<g id="a_Node000007"><a xlink:title=" ">
<polygon fill="#e0e0e0" stroke="#999999" points="649.89,-19.25 596.39,-19.25 596.39,0 649.89,0 649.89,-19.25"/>
<text xml:space="preserve" text-anchor="middle" x="623.14" y="-5.75" font-family="Helvetica,sans-Serif" font-size="10.00">iostream</text>
</a>
</g>
</g>
<!-- Node4&#45;&gt;Node7 -->
<g id="edge6_Node000004_Node000007" class="edge">
<title>Node4&#45;&gt;Node7</title>
<g id="a_edge6_Node000004_Node000007"><a xlink:title=" ">
<path fill="none" stroke="#63b8ff" d="M567.5,-54.84C577.19,-47.15 591.34,-35.9 602.94,-26.68"/>
<polygon fill="#63b8ff" stroke="#63b8ff" points="605.1,-29.43 610.75,-20.47 600.75,-23.95 605.1,-29.43"/>
</a>
</g>
</g>
<!-- Node9&#45;&gt;Node3 -->
<g id="edge18_Node000009_Node000003" class="edge">
<title>Node9&#45;&gt;Node3</title>
<g id="a_edge18_Node000009_Node000003"><a xlink:title=" ">
<path fill="none" stroke="#63b8ff" d="M419.95,-331.03C411.43,-322.34 398.66,-308.64 389.14,-295.5 366.7,-264.54 365.59,-253.91 346.14,-221 341.07,-212.43 335.37,-202.98 330.52,-195"/>
<polygon fill="#63b8ff" stroke="#63b8ff" points="333.55,-193.24 325.36,-186.53 327.57,-196.89 333.55,-193.24"/>
</a>
</g>
</g>
<!-- Node9&#45;&gt;Node4 -->
<g id="edge9_Node000009_Node000004" class="edge">
<title>Node9&#45;&gt;Node4</title>
<g id="a_edge9_Node000009_Node000004"><a xlink:title=" ">
<path fill="none" stroke="#63b8ff" d="M451.13,-334.4C455.74,-333.33 460.58,-332.3 465.14,-331.5 605.23,-306.88 656.11,-359.49 783.14,-295.5 843.1,-265.3 861.54,-247.47 886.14,-185 901.03,-147.19 869.12,-129.37 833.14,-110.5 793.05,-89.48 665.19,-75.46 598.12,-69.36"/>
<polygon fill="#63b8ff" stroke="#63b8ff" points="598.5,-65.88 588.23,-68.48 597.88,-72.85 598.5,-65.88"/>
</a>
</g>
</g>
<!-- Node9&#45;&gt;Node10 -->
<g id="edge10_Node000009_Node000010" class="edge">
<title>Node9&#45;&gt;Node10</title>
<g id="a_edge10_Node000009_Node000010"><a xlink:title=" ">
<path fill="none" stroke="#63b8ff" d="M406.77,-336.55C352.93,-327.94 215.18,-305.91 142.56,-294.3"/>
<polygon fill="#63b8ff" stroke="#63b8ff" points="143.41,-290.89 132.98,-292.77 142.3,-297.8 143.41,-290.89"/>
</a>
</g>
</g>
<!-- Node14 -->
<g id="Node000014" class="node">
<title>Node14</title>
<g id="a_Node000014"><a xlink:href="_module_interface_8h.html" target="_top" xlink:title="Full Interface for a module and an abstract basic module implementation.">
<polygon fill="white" stroke="#666666" points="554.14,-295.5 460.14,-295.5 460.14,-276.25 554.14,-276.25 554.14,-295.5"/>
<text xml:space="preserve" text-anchor="middle" x="507.14" y="-282" font-family="Helvetica,sans-Serif" font-size="10.00">ModuleInterface.h</text>
</a>
</g>
</g>
<!-- Node9&#45;&gt;Node14 -->
<g id="edge19_Node000009_Node000014" class="edge">
<title>Node9&#45;&gt;Node14</title>
<g id="a_edge19_Node000009_Node000014"><a xlink:title=" ">
<path fill="none" stroke="#63b8ff" d="M442.37,-331.09C453.91,-323.21 470.9,-311.61 484.59,-302.27"/>
<polygon fill="#63b8ff" stroke="#63b8ff" points="486.3,-305.33 492.59,-296.81 482.36,-299.55 486.3,-305.33"/>
</a>
</g>
</g>
<!-- Node21 -->
<g id="Node000021" class="node">
<title>Node21</title>
<g id="a_Node000021"><a xlink:href="_development_helper_8h.html" target="_top" xlink:title=" ">
<polygon fill="white" stroke="#666666" points="824.01,-129.75 714.26,-129.75 714.26,-110.5 824.01,-110.5 824.01,-129.75"/>
<text xml:space="preserve" text-anchor="middle" x="769.14" y="-116.25" font-family="Helvetica,sans-Serif" font-size="10.00">DevelopmentHelper.h</text>
</a>
</g>
</g>
<!-- Node9&#45;&gt;Node21 -->
<g id="edge44_Node000009_Node000021" class="edge">
<title>Node9&#45;&gt;Node21</title>
<g id="a_edge44_Node000009_Node000021"><a xlink:title=" ">
<path fill="none" stroke="#63b8ff" d="M451.15,-334.52C455.76,-333.44 460.59,-332.38 465.14,-331.5 618.76,-301.83 726.81,-375.69 805.14,-240.25 824.16,-207.36 800.05,-163.43 783.1,-139.16"/>
<polygon fill="#63b8ff" stroke="#63b8ff" points="786.05,-137.27 777.31,-131.27 780.41,-141.41 786.05,-137.27"/>
</a>
</g>
</g>
<!-- Node23 -->
<g id="Node000023" class="node">
<title>Node23</title>
<g id="a_Node000023"><a xlink:href="_logging_8h.html" target="_top" xlink:title=" ">
<polygon fill="white" stroke="#666666" points="700.14,-295.5 642.14,-295.5 642.14,-276.25 700.14,-276.25 700.14,-295.5"/>
<text xml:space="preserve" text-anchor="middle" x="671.14" y="-282" font-family="Helvetica,sans-Serif" font-size="10.00">Logging.h</text>
</a>
</g>
</g>
<!-- Node9&#45;&gt;Node23 -->
<g id="edge37_Node000009_Node000023" class="edge">
<title>Node9&#45;&gt;Node23</title>
<g id="a_edge37_Node000009_Node000023"><a xlink:title=" ">
<path fill="none" stroke="#63b8ff" d="M451.2,-334.76C455.8,-333.66 460.63,-332.53 465.14,-331.5 522.53,-318.41 589.14,-304.15 630.72,-295.36"/>
<polygon fill="#63b8ff" stroke="#63b8ff" points="631.21,-298.83 640.27,-293.34 629.77,-291.98 631.21,-298.83"/>
</a>
</g>
</g>
<!-- Node25 -->
<g id="Node000025" class="node">
<title>Node25</title>
<g id="a_Node000025"><a xlink:href="_vars_8h.html" target="_top" xlink:title=" ">
<polygon fill="white" stroke="#666666" points="442.01,-295.5 398.26,-295.5 398.26,-276.25 442.01,-276.25 442.01,-295.5"/>
<text xml:space="preserve" text-anchor="middle" x="420.14" y="-282" font-family="Helvetica,sans-Serif" font-size="10.00">Vars.h</text>
</a>
</g>
</g>
<!-- Node9&#45;&gt;Node25 -->
<g id="edge41_Node000009_Node000025" class="edge">
<title>Node9&#45;&gt;Node25</title>
<g id="a_edge41_Node000009_Node000025"><a xlink:title=" ">
<path fill="none" stroke="#63b8ff" d="M427.65,-331.33C426.54,-324.74 424.97,-315.46 423.55,-307.07"/>
<polygon fill="#63b8ff" stroke="#63b8ff" points="427.03,-306.63 421.91,-297.35 420.12,-307.8 427.03,-306.63"/>
</a>
</g>
</g>
<!-- Node10&#45;&gt;Node4 -->
<g id="edge11_Node000010_Node000004" class="edge">
<title>Node10&#45;&gt;Node4</title>
<g id="a_edge11_Node000010_Node000004"><a xlink:title=" ">
<path fill="none" stroke="#63b8ff" d="M60.92,-276.04C28.36,-266.01 -12.65,-247.54 4.14,-221 65.4,-124.14 127.34,-143.37 237.14,-110.5 333.77,-81.57 452.59,-71.25 514.37,-67.68"/>
<polygon fill="#63b8ff" stroke="#63b8ff" points="514.27,-71.19 524.07,-67.16 513.89,-64.2 514.27,-71.19"/>
</a>
</g>
</g>
<!-- Node11 -->
<g id="Node000011" class="node">
<title>Node11</title>
<g id="a_Node000011"><a xlink:href="_status_handler_8h.html" target="_top" xlink:title=" ">
<polygon fill="white" stroke="#666666" points="266.01,-240.25 180.26,-240.25 180.26,-221 266.01,-221 266.01,-240.25"/>
<text xml:space="preserve" text-anchor="middle" x="223.14" y="-226.75" font-family="Helvetica,sans-Serif" font-size="10.00">StatusHandler.h</text>
</a>
</g>
</g>
<!-- Node10&#45;&gt;Node11 -->
<g id="edge12_Node000010_Node000011" class="edge">
<title>Node10&#45;&gt;Node11</title>
<g id="a_edge12_Node000010_Node000011"><a xlink:title=" ">
<path fill="none" stroke="#63b8ff" d="M117.68,-275.84C137.75,-267.43 167.94,-254.77 190.88,-245.15"/>
<polygon fill="#63b8ff" stroke="#63b8ff" points="192.22,-248.38 200.09,-241.29 189.52,-241.93 192.22,-248.38"/>
</a>
</g>
</g>
<!-- Node12 -->
<g id="Node000012" class="node">
<title>Node12</title>
<g id="a_Node000012"><a xlink:title=" ">
<polygon fill="#e0e0e0" stroke="#999999" points="123.89,-240.25 82.39,-240.25 82.39,-221 123.89,-221 123.89,-240.25"/>
<text xml:space="preserve" text-anchor="middle" x="103.14" y="-226.75" font-family="Helvetica,sans-Serif" font-size="10.00">Esp.h</text>
</a>
</g>
</g>
<!-- Node10&#45;&gt;Node12 -->
<g id="edge16_Node000010_Node000012" class="edge">
<title>Node10&#45;&gt;Node12</title>
<g id="a_edge16_Node000010_Node000012"><a xlink:title=" ">
<path fill="none" stroke="#63b8ff" d="M97.29,-276.08C98.16,-269.49 99.38,-260.21 100.48,-251.82"/>
<polygon fill="#63b8ff" stroke="#63b8ff" points="103.93,-252.48 101.76,-242.11 96.98,-251.57 103.93,-252.48"/>
</a>
</g>
</g>
<!-- Node13 -->
<g id="Node000013" class="node">
<title>Node13</title>
<g id="a_Node000013"><a xlink:title=" ">
<polygon fill="#e0e0e0" stroke="#999999" points="64.76,-240.25 13.51,-240.25 13.51,-221 64.76,-221 64.76,-240.25"/>
<text xml:space="preserve" text-anchor="middle" x="39.14" y="-226.75" font-family="Helvetica,sans-Serif" font-size="10.00">memory</text>
</a>
</g>
</g>
<!-- Node10&#45;&gt;Node13 -->
<g id="edge17_Node000010_Node000013" class="edge">
<title>Node10&#45;&gt;Node13</title>
<g id="a_edge17_Node000010_Node000013"><a xlink:title=" ">
<path fill="none" stroke="#63b8ff" d="M86.47,-275.84C78.39,-268.3 66.67,-257.35 56.91,-248.23"/>
<polygon fill="#63b8ff" stroke="#63b8ff" points="59.47,-245.83 49.77,-241.56 54.69,-250.94 59.47,-245.83"/>
</a>
</g>
</g>
<!-- Node11&#45;&gt;Node3 -->
<g id="edge14_Node000011_Node000003" class="edge">
<title>Node11&#45;&gt;Node3</title>
<g id="a_edge14_Node000011_Node000003"><a xlink:title=" ">
<path fill="none" stroke="#63b8ff" d="M239.42,-220.59C254.04,-212.48 275.76,-200.43 292.84,-190.96"/>
<polygon fill="#63b8ff" stroke="#63b8ff" points="294.4,-194.1 301.45,-186.19 291.01,-187.98 294.4,-194.1"/>
</a>
</g>
</g>
<!-- Node11&#45;&gt;Node4 -->
<g id="edge13_Node000011_Node000004" class="edge">
<title>Node11&#45;&gt;Node4</title>
<g id="a_edge13_Node000011_Node000004"><a xlink:title=" ">
<path fill="none" stroke="#63b8ff" d="M222.62,-220.8C221.84,-198.5 223.18,-139.64 256.14,-110.5 293.62,-77.35 440.84,-68.82 514.16,-66.63"/>
<polygon fill="#63b8ff" stroke="#63b8ff" points="513.86,-70.14 523.76,-66.37 513.67,-63.15 513.86,-70.14"/>
</a>
</g>
</g>
<!-- Node11&#45;&gt;Node8 -->
<g id="edge15_Node000011_Node000008" class="edge">
<title>Node11&#45;&gt;Node8</title>
<g id="a_edge15_Node000011_Node000008"><a xlink:title=" ">
<path fill="none" stroke="#63b8ff" d="M228.17,-220.88C236.48,-207.21 254.3,-180.79 276.14,-165.75 306.09,-145.12 346.42,-133.28 374.39,-127.05"/>
<polygon fill="#63b8ff" stroke="#63b8ff" points="375,-130.5 384.07,-125.03 373.56,-123.65 375,-130.5"/>
</a>
</g>
</g>
<!-- Node14&#45;&gt;Node11 -->
<g id="edge24_Node000014_Node000011" class="edge">
<title>Node14&#45;&gt;Node11</title>
<g id="a_edge24_Node000014_Node000011"><a xlink:title=" ">
<path fill="none" stroke="#63b8ff" d="M459.92,-276.02C409.67,-266.6 330.26,-251.71 277.45,-241.81"/>
<polygon fill="#63b8ff" stroke="#63b8ff" points="278.24,-238.4 267.76,-239.99 276.95,-245.28 278.24,-238.4"/>
</a>
</g>
</g>
<!-- Node15 -->
<g id="Node000015" class="node">
<title>Node15</title>
<g id="a_Node000015"><a xlink:href="_config_handler_8h.html" target="_top" xlink:title=" ">
<polygon fill="white" stroke="#666666" points="522.01,-240.25 436.26,-240.25 436.26,-221 522.01,-221 522.01,-240.25"/>
<text xml:space="preserve" text-anchor="middle" x="479.14" y="-226.75" font-family="Helvetica,sans-Serif" font-size="10.00">ConfigHandler.h</text>
</a>
</g>
</g>
<!-- Node14&#45;&gt;Node15 -->
<g id="edge20_Node000014_Node000015" class="edge">
<title>Node14&#45;&gt;Node15</title>
<g id="a_edge20_Node000014_Node000015"><a xlink:title=" ">
<path fill="none" stroke="#63b8ff" d="M502.51,-276.08C498.89,-269.19 493.71,-259.34 489.15,-250.66"/>
<polygon fill="#63b8ff" stroke="#63b8ff" points="492.32,-249.17 484.57,-241.95 486.12,-252.43 492.32,-249.17"/>
</a>
</g>
</g>
<!-- Node16 -->
<g id="Node000016" class="node">
<title>Node16</title>
<g id="a_Node000016"><a xlink:href="_event_handler_8h.html" target="_top" xlink:title=" ">
<polygon fill="white" stroke="#666666" points="660.51,-240.25 577.76,-240.25 577.76,-221 660.51,-221 660.51,-240.25"/>
<text xml:space="preserve" text-anchor="middle" x="619.14" y="-226.75" font-family="Helvetica,sans-Serif" font-size="10.00">EventHandler.h</text>
</a>
</g>
</g>
<!-- Node14&#45;&gt;Node16 -->
<g id="edge25_Node000014_Node000016" class="edge">
<title>Node14&#45;&gt;Node16</title>
<g id="a_edge25_Node000014_Node000016"><a xlink:title=" ">
<path fill="none" stroke="#63b8ff" d="M526.14,-275.84C543.59,-267.54 569.74,-255.11 589.86,-245.54"/>
<polygon fill="#63b8ff" stroke="#63b8ff" points="591.15,-248.81 598.68,-241.35 588.14,-242.49 591.15,-248.81"/>
</a>
</g>
</g>
<!-- Node14&#45;&gt;Node22 -->
<g id="edge36_Node000014_Node000022" class="edge">
<title>Node14&#45;&gt;Node22</title>
<g id="a_edge36_Node000014_Node000022"><a xlink:title=" ">
<path fill="none" stroke="#63b8ff" d="M554.43,-276.72C599.05,-268.81 668.08,-256.04 736.67,-240.69"/>
<polygon fill="#63b8ff" stroke="#63b8ff" points="737.21,-244.16 746.2,-238.54 735.67,-237.33 737.21,-244.16"/>
</a>
</g>
</g>
<!-- Node15&#45;&gt;Node3 -->
<g id="edge22_Node000015_Node000003" class="edge">
<title>Node15&#45;&gt;Node3</title>
<g id="a_edge22_Node000015_Node000003"><a xlink:title=" ">
<path fill="none" stroke="#63b8ff" d="M451.99,-220.59C425.91,-211.91 386.24,-198.71 357.04,-188.99"/>
<polygon fill="#63b8ff" stroke="#63b8ff" points="358.44,-185.77 347.85,-185.93 356.23,-192.41 358.44,-185.77"/>
</a>
</g>
</g>
<!-- Node15&#45;&gt;Node4 -->
<g id="edge21_Node000015_Node000004" class="edge">
<title>Node15&#45;&gt;Node4</title>
<g id="a_edge21_Node000015_Node000004"><a xlink:title=" ">
<path fill="none" stroke="#63b8ff" d="M476.65,-220.64C473.6,-207.99 469.59,-184.39 476.14,-165.75 488.08,-131.73 517.04,-100.7 536.63,-82.55"/>
<polygon fill="#63b8ff" stroke="#63b8ff" points="538.89,-85.22 544,-75.94 534.22,-80.01 538.89,-85.22"/>
</a>
</g>
</g>
<!-- Node15&#45;&gt;Node8 -->
<g id="edge23_Node000015_Node000008" class="edge">
<title>Node15&#45;&gt;Node8</title>
<g id="a_edge23_Node000015_Node000008"><a xlink:title=" ">
<path fill="none" stroke="#63b8ff" d="M471.23,-220.74C463.61,-211.96 451.97,-198.02 443.14,-185 433.3,-170.5 423.63,-153.12 416.8,-140.15"/>
<polygon fill="#63b8ff" stroke="#63b8ff" points="419.98,-138.7 412.28,-131.42 413.76,-141.91 419.98,-138.7"/>
</a>
</g>
</g>
<!-- Node16&#45;&gt;Node4 -->
<g id="edge26_Node000016_Node000004" class="edge">
<title>Node16&#45;&gt;Node4</title>
<g id="a_edge26_Node000016_Node000004"><a xlink:title=" ">
<path fill="none" stroke="#63b8ff" d="M620.26,-220.72C621.54,-208.16 622.78,-184.68 617.14,-165.75 607.79,-134.39 586.06,-102.96 571.23,-83.96"/>
<polygon fill="#63b8ff" stroke="#63b8ff" points="573.95,-81.77 564.96,-76.17 568.5,-86.15 573.95,-81.77"/>
</a>
</g>
</g>
<!-- Node16&#45;&gt;Node8 -->
<g id="edge28_Node000016_Node000008" class="edge">
<title>Node16&#45;&gt;Node8</title>
<g id="a_edge28_Node000016_Node000008"><a xlink:title=" ">
<path fill="none" stroke="#63b8ff" d="M618.69,-220.74C617.51,-206.89 613.15,-180.22 597.14,-165.75 574.31,-145.12 488.25,-131.3 440.16,-125.01"/>
<polygon fill="#63b8ff" stroke="#63b8ff" points="440.68,-121.55 430.32,-123.77 439.8,-128.5 440.68,-121.55"/>
</a>
</g>
</g>
<!-- Node17 -->
<g id="Node000017" class="node">
<title>Node17</title>
<g id="a_Node000017"><a xlink:title=" ">
<polygon fill="#e0e0e0" stroke="#999999" points="741.14,-185 683.14,-185 683.14,-165.75 741.14,-165.75 741.14,-185"/>
<text xml:space="preserve" text-anchor="middle" x="712.14" y="-171.5" font-family="Helvetica,sans-Serif" font-size="10.00">functional</text>
</a>
</g>
</g>
<!-- Node16&#45;&gt;Node17 -->
<g id="edge27_Node000016_Node000017" class="edge">
<title>Node16&#45;&gt;Node17</title>
<g id="a_edge27_Node000016_Node000017"><a xlink:title=" ">
<path fill="none" stroke="#63b8ff" d="M634.91,-220.59C649.08,-212.48 670.12,-200.43 686.66,-190.96"/>
<polygon fill="#63b8ff" stroke="#63b8ff" points="688.03,-194.21 694.97,-186.2 684.55,-188.14 688.03,-194.21"/>
</a>
</g>
</g>
<!-- Node18 -->
<g id="Node000018" class="node">
<title>Node18</title>
<g id="a_Node000018"><a xlink:title=" ">
<polygon fill="#e0e0e0" stroke="#999999" points="877.26,-185 835.01,-185 835.01,-165.75 877.26,-165.75 877.26,-185"/>
<text xml:space="preserve" text-anchor="middle" x="856.14" y="-171.5" font-family="Helvetica,sans-Serif" font-size="10.00">queue</text>
</a>
</g>
</g>
<!-- Node16&#45;&gt;Node18 -->
<g id="edge29_Node000016_Node000018" class="edge">
<title>Node16&#45;&gt;Node18</title>
<g id="a_edge29_Node000016_Node000018"><a xlink:title=" ">
<path fill="none" stroke="#63b8ff" d="M659.61,-220.53C705.89,-210.13 780.77,-193.31 823.49,-183.71"/>
<polygon fill="#63b8ff" stroke="#63b8ff" points="824.17,-187.14 833.16,-181.54 822.64,-180.31 824.17,-187.14"/>
</a>
</g>
</g>
<!-- Node19 -->
<g id="Node000019" class="node">
<title>Node19</title>
<g id="a_Node000019"><a xlink:href="_named_value_table_8h.html" target="_top" xlink:title=" ">
<polygon fill="white" stroke="#666666" points="588.64,-185 485.64,-185 485.64,-165.75 588.64,-165.75 588.64,-185"/>
<text xml:space="preserve" text-anchor="middle" x="537.14" y="-171.5" font-family="Helvetica,sans-Serif" font-size="10.00">NamedValueTable.h</text>
</a>
</g>
</g>
<!-- Node16&#45;&gt;Node19 -->
<g id="edge30_Node000016_Node000019" class="edge">
<title>Node16&#45;&gt;Node19</title>
<g id="a_edge30_Node000016_Node000019"><a xlink:title=" ">
<path fill="none" stroke="#63b8ff" d="M605.23,-220.59C592.98,-212.64 574.88,-200.89 560.43,-191.5"/>
<polygon fill="#63b8ff" stroke="#63b8ff" points="562.68,-188.79 552.38,-186.28 558.87,-194.66 562.68,-188.79"/>
</a>
</g>
</g>
<!-- Node16&#45;&gt;Node21 -->
<g id="edge35_Node000016_Node000021" class="edge">
<title>Node16&#45;&gt;Node21</title>
<g id="a_edge35_Node000016_Node000021"><a xlink:title=" ">
<path fill="none" stroke="#63b8ff" d="M658.19,-220.54C691.93,-211.95 737.23,-198.42 750.14,-185 761.31,-173.38 765.95,-155.48 767.86,-141.59"/>
<polygon fill="#63b8ff" stroke="#63b8ff" points="771.33,-142.04 768.81,-131.75 764.36,-141.37 771.33,-142.04"/>
</a>
</g>
</g>
<!-- Node19&#45;&gt;Node8 -->
<g id="edge31_Node000019_Node000008" class="edge">
<title>Node19&#45;&gt;Node8</title>
<g id="a_edge31_Node000019_Node000008"><a xlink:title=" ">
<path fill="none" stroke="#63b8ff" d="M515.08,-165.34C494.32,-156.84 462.98,-144 439.41,-134.34"/>
<polygon fill="#63b8ff" stroke="#63b8ff" points="440.84,-131.15 430.26,-130.6 438.19,-137.63 440.84,-131.15"/>
</a>
</g>
</g>
<!-- Node19&#45;&gt;Node20 -->
<g id="edge32_Node000019_Node000020" class="edge">
<title>Node19&#45;&gt;Node20</title>
<g id="a_edge32_Node000019_Node000020"><a xlink:title=" ">
<path fill="none" stroke="#63b8ff" d="M496.15,-165.28C452.8,-155.66 384.68,-140.55 340.46,-130.74"/>
<polygon fill="#63b8ff" stroke="#63b8ff" points="341.49,-127.38 330.97,-128.63 339.97,-134.21 341.49,-127.38"/>
</a>
</g>
</g>
<!-- Node19&#45;&gt;Node21 -->
<g id="edge34_Node000019_Node000021" class="edge">
<title>Node19&#45;&gt;Node21</title>
<g id="a_edge34_Node000019_Node000021"><a xlink:title=" ">
<path fill="none" stroke="#63b8ff" d="M576.76,-165.28C615.96,-156.28 676.12,-142.48 718.71,-132.7"/>
<polygon fill="#63b8ff" stroke="#63b8ff" points="719.24,-136.17 728.21,-130.52 717.68,-129.35 719.24,-136.17"/>
</a>
</g>
</g>
<!-- Node20&#45;&gt;Node4 -->
<g id="edge33_Node000020_Node000004" class="edge">
<title>Node20&#45;&gt;Node4</title>
<g id="a_edge33_Node000020_Node000004"><a xlink:title=" ">
<path fill="none" stroke="#63b8ff" d="M329.42,-112.49C376.19,-102.87 462.83,-85.06 514.4,-74.46"/>
<polygon fill="#63b8ff" stroke="#63b8ff" points="514.9,-77.93 523.99,-72.48 513.49,-71.07 514.9,-77.93"/>
</a>
</g>
</g>
<!-- Node23&#45;&gt;Node16 -->
<g id="edge39_Node000023_Node000016" class="edge">
<title>Node23&#45;&gt;Node16</title>
<g id="a_edge39_Node000023_Node000016"><a xlink:title=" ">
<path fill="none" stroke="#63b8ff" d="M662.55,-276.08C655.29,-268.65 644.68,-257.79 635.77,-248.66"/>
<polygon fill="#63b8ff" stroke="#63b8ff" points="638.46,-246.4 628.97,-241.69 633.45,-251.29 638.46,-246.4"/>
</a>
</g>
</g>
<!-- Node23&#45;&gt;Node22 -->
<g id="edge40_Node000023_Node000022" class="edge">
<title>Node23&#45;&gt;Node22</title>
<g id="a_edge40_Node000023_Node000022"><a xlink:title=" ">
<path fill="none" stroke="#63b8ff" d="M688.27,-275.84C703.8,-267.66 726.94,-255.46 744.98,-245.94"/>
<polygon fill="#63b8ff" stroke="#63b8ff" points="746.37,-249.17 753.58,-241.41 743.1,-242.98 746.37,-249.17"/>
</a>
</g>
</g>
<!-- Node24 -->
<g id="Node000024" class="node">
<title>Node24</title>
<g id="a_Node000024"><a xlink:title=" ">
<polygon fill="#e0e0e0" stroke="#999999" points="729.76,-240.25 678.51,-240.25 678.51,-221 729.76,-221 729.76,-240.25"/>
<text xml:space="preserve" text-anchor="middle" x="704.14" y="-226.75" font-family="Helvetica,sans-Serif" font-size="10.00">stdarg.h</text>
</a>
</g>
</g>
<!-- Node23&#45;&gt;Node24 -->
<g id="edge38_Node000023_Node000024" class="edge">
<title>Node23&#45;&gt;Node24</title>
<g id="a_edge38_Node000023_Node000024"><a xlink:title=" ">
<path fill="none" stroke="#63b8ff" d="M676.59,-276.08C680.91,-269.11 687.1,-259.12 692.52,-250.37"/>
<polygon fill="#63b8ff" stroke="#63b8ff" points="695.48,-252.24 697.77,-241.9 689.53,-248.55 695.48,-252.24"/>
</a>
</g>
</g>
<!-- Node25&#45;&gt;Node8 -->
<g id="edge43_Node000025_Node000008" class="edge">
<title>Node25&#45;&gt;Node8</title>
<g id="a_edge43_Node000025_Node000008"><a xlink:title=" ">
<path fill="none" stroke="#63b8ff" d="M419.44,-276.07C417.43,-250.75 411.59,-177.25 408.74,-141.34"/>
<polygon fill="#63b8ff" stroke="#63b8ff" points="412.24,-141.17 407.96,-131.48 405.26,-141.73 412.24,-141.17"/>
</a>
</g>
</g>
<!-- Node25&#45;&gt;Node15 -->
<g id="edge42_Node000025_Node000015" class="edge">
<title>Node25&#45;&gt;Node15</title>
<g id="a_edge42_Node000025_Node000015"><a xlink:title=" ">
<path fill="none" stroke="#63b8ff" d="M430.15,-275.84C438.5,-268.3 450.64,-257.35 460.74,-248.23"/>
<polygon fill="#63b8ff" stroke="#63b8ff" points="463.07,-250.84 468.15,-241.54 458.38,-245.64 463.07,-250.84"/>
</a>
</g>
</g>
<!-- Node26&#45;&gt;Node4 -->
<g id="edge46_Node000026_Node000004" class="edge">
<title>Node26&#45;&gt;Node4</title>
<g id="a_edge46_Node000026_Node000004"><a xlink:title=" ">
<path fill="none" stroke="#63b8ff" d="M986.58,-386.46C997.09,-368.38 1019.14,-325.79 1019.14,-286.88 1019.14,-286.88 1019.14,-286.88 1019.14,-174.38 1019.14,-141.11 1008.25,-128.27 980.14,-110.5 917.36,-70.82 692.48,-65.93 598.2,-65.67"/>
<polygon fill="#63b8ff" stroke="#63b8ff" points="598.36,-62.17 588.36,-65.66 598.35,-69.17 598.36,-62.17"/>
</a>
</g>
</g>
<!-- Node27&#45;&gt;Node3 -->
<g id="edge49_Node000027_Node000003" class="edge">
<title>Node27&#45;&gt;Node3</title>
<g id="a_edge49_Node000027_Node000003"><a xlink:title=" ">
<path fill="none" stroke="#63b8ff" d="M535.27,-394.93C494.84,-392.21 436.97,-382.44 398.14,-350.75 348.84,-310.53 329.1,-232.95 322.27,-196.38"/>
<polygon fill="#63b8ff" stroke="#63b8ff" points="325.76,-196.04 320.62,-186.78 318.86,-197.22 325.76,-196.04"/>
</a>
</g>
</g>
<!-- Node27&#45;&gt;Node4 -->
<g id="edge48_Node000027_Node000004" class="edge">
<title>Node27&#45;&gt;Node4</title>
<g id="a_edge48_Node000027_Node000004"><a xlink:title=" ">
<path fill="none" stroke="#63b8ff" d="M629.14,-392.68C674.14,-388.51 742.87,-377.86 796.14,-350.75 880.59,-307.77 930.8,-256.07 902.14,-165.75 893.04,-137.1 888.76,-126.22 863.14,-110.5 819.5,-83.73 671.41,-72.11 598.04,-67.9"/>
<polygon fill="#63b8ff" stroke="#63b8ff" points="598.62,-64.43 588.45,-67.37 598.24,-71.42 598.62,-64.43"/>
</a>
</g>
</g>
<!-- Node27&#45;&gt;Node18 -->
<g id="edge55_Node000027_Node000018" class="edge">
<title>Node27&#45;&gt;Node18</title>
<g id="a_edge55_Node000027_Node000018"><a xlink:title=" ">
<path fill="none" stroke="#63b8ff" d="M629.17,-391.02C687.81,-382.91 786.6,-359.97 838.14,-295.5 860.82,-267.13 861.01,-222.43 858.79,-196.61"/>
<polygon fill="#63b8ff" stroke="#63b8ff" points="862.28,-196.38 857.72,-186.82 855.32,-197.14 862.28,-196.38"/>
</a>
</g>
</g>
<!-- Node27&#45;&gt;Node19 -->
<g id="edge52_Node000027_Node000019" class="edge">
<title>Node27&#45;&gt;Node19</title>
<g id="a_edge52_Node000027_Node000019"><a xlink:title=" ">
<path fill="none" stroke="#63b8ff" d="M581,-386.35C578.42,-366.4 571.68,-317.04 563.14,-276.25 557.27,-248.22 548.59,-216.26 542.9,-196.2"/>
<polygon fill="#63b8ff" stroke="#63b8ff" points="546.34,-195.49 540.22,-186.85 539.61,-197.43 546.34,-195.49"/>
</a>
</g>
</g>
<!-- Node28 -->
<g id="Node000028" class="node">
<title>Node28</title>
<g id="a_Node000028"><a xlink:href="_appl_module_8h.html" target="_top" xlink:title=" ">
<polygon fill="white" stroke="#666666" points="549.76,-350.75 474.51,-350.75 474.51,-331.5 549.76,-331.5 549.76,-350.75"/>
<text xml:space="preserve" text-anchor="middle" x="512.14" y="-337.25" font-family="Helvetica,sans-Serif" font-size="10.00">ApplModule.h</text>
</a>
</g>
</g>
<!-- Node27&#45;&gt;Node28 -->
<g id="edge50_Node000027_Node000028" class="edge">
<title>Node27&#45;&gt;Node28</title>
<g id="a_edge50_Node000027_Node000028"><a xlink:title=" ">
<path fill="none" stroke="#63b8ff" d="M570.26,-386.34C560.04,-378.57 545.07,-367.17 532.87,-357.9"/>
<polygon fill="#63b8ff" stroke="#63b8ff" points="535.12,-355.21 525.04,-351.94 530.88,-360.78 535.12,-355.21"/>
</a>
</g>
</g>
<!-- Node29 -->
<g id="Node000029" class="node">
<title>Node29</title>
<g id="a_Node000029"><a xlink:href="_simple_delay_8h.html" target="_top" xlink:title=" ">
<polygon fill="white" stroke="#666666" points="991.26,-350.75 913.01,-350.75 913.01,-331.5 991.26,-331.5 991.26,-350.75"/>
<text xml:space="preserve" text-anchor="middle" x="952.14" y="-337.25" font-family="Helvetica,sans-Serif" font-size="10.00">SimpleDelay.h</text>
</a>
</g>
</g>
<!-- Node27&#45;&gt;Node29 -->
<g id="edge53_Node000027_Node000029" class="edge">
<title>Node27&#45;&gt;Node29</title>
<g id="a_edge53_Node000027_Node000029"><a xlink:title=" ">
<path fill="none" stroke="#63b8ff" d="M629,-388.63C698.86,-378.58 829.79,-359.73 901.68,-349.39"/>
<polygon fill="#63b8ff" stroke="#63b8ff" points="901.8,-352.91 911.2,-348.02 900.8,-345.98 901.8,-352.91"/>
</a>
</g>
</g>
<!-- Node28&#45;&gt;Node14 -->
<g id="edge51_Node000028_Node000014" class="edge">
<title>Node28&#45;&gt;Node14</title>
<g id="a_edge51_Node000028_Node000014"><a xlink:title=" ">
<path fill="none" stroke="#63b8ff" d="M511.31,-331.33C510.69,-324.74 509.82,-315.46 509.03,-307.07"/>
<polygon fill="#63b8ff" stroke="#63b8ff" points="512.54,-307 508.12,-297.37 505.57,-307.65 512.54,-307"/>
</a>
</g>
</g>
<!-- Node29&#45;&gt;Node4 -->
<g id="edge54_Node000029_Node000004" class="edge">
<title>Node29&#45;&gt;Node4</title>
<g id="a_edge54_Node000029_Node000004"><a xlink:title=" ">
<path fill="none" stroke="#63b8ff" d="M956.29,-331.06C964.31,-312.7 981.14,-269.65 981.14,-231.62 981.14,-231.62 981.14,-231.62 981.14,-174.38 981.14,-144.05 981.07,-129.12 957.14,-110.5 902.05,-67.65 689.76,-64.47 598.38,-65.16"/>
<polygon fill="#63b8ff" stroke="#63b8ff" points="598.56,-61.66 588.59,-65.26 598.63,-68.66 598.56,-61.66"/>
</a>
</g>
</g>
</g>
</svg>
