<?xml version="1.0" encoding="UTF-8" standalone="no"?>
<!DOCTYPE svg PUBLIC "-//W3C//DTD SVG 1.1//EN"
 "http://www.w3.org/Graphics/SVG/1.1/DTD/svg11.dtd">
<!-- Generated by graphviz version 15.1.0 (20260618.0150)
 -->
<!-- Title: src/CMDNSController.cpp Pages: 1 -->
<svg width="939pt" height="469pt"
 viewBox="0.00 0.00 939.00 469.00" xmlns="http://www.w3.org/2000/svg" xmlns:xlink="http://www.w3.org/1999/xlink">
<g id="graph0" class="graph" transform="scale(1 1) rotate(0) translate(4 465.25)">
<title>src/CMDNSController.cpp</title>
<!-- Node1 -->
<g id="Node000001" class="node">
<title>Node1</title>
<g id="a_Node000001"><a xlink:title=" ">
<polygon fill="#999999" stroke="#666666" points="919.75,-461.25 789.75,-461.25 789.75,-442 919.75,-442 919.75,-461.25"/>
<text xml:space="preserve" text-anchor="middle" x="854.75" y="-447.75" font-family="Helvetica,sans-Serif" font-size="10.00">src/CMDNSController.cpp</text>
</a>
</g>
</g>
<!-- Node2 -->
<g id="Node000002" class="node">
<title>Node2</title>
<g id="a_Node000002"><a xlink:href="_m_d_n_s_controller_8h.html" target="_top" xlink:title="MDNS Controller class definition ESP MDNS controller to handle mDNS responder start/stop on WiFi even...">
<polygon fill="white" stroke="#666666" points="864.5,-406 769,-406 769,-386.75 864.5,-386.75 864.5,-406"/>
<text xml:space="preserve" text-anchor="middle" x="816.75" y="-392.5" font-family="Helvetica,sans-Serif" font-size="10.00">MDNSController.h</text>
</a>
</g>
</g>
<!-- Node1&#45;&gt;Node2 -->
<g id="edge1_Node000001_Node000002" class="edge">
<title>Node1&#45;&gt;Node2</title>
<g id="a_edge1_Node000001_Node000002"><a xlink:title=" ">
<path fill="none" stroke="#63b8ff" d="M848.48,-441.83C843.39,-434.71 836.05,-424.43 829.72,-415.55"/>
<polygon fill="#63b8ff" stroke="#63b8ff" points="832.7,-413.7 824.04,-407.59 827,-417.76 832.7,-413.7"/>
</a>
</g>
</g>
<!-- Node14 -->
<g id="Node000014" class="node">
<title>Node14</title>
<g id="a_Node000014"><a xlink:href="_development_helper_8h.html" target="_top" xlink:title=" ">
<polygon fill="white" stroke="#666666" points="834.62,-129.75 724.88,-129.75 724.88,-110.5 834.62,-110.5 834.62,-129.75"/>
<text xml:space="preserve" text-anchor="middle" x="779.75" y="-116.25" font-family="Helvetica,sans-Serif" font-size="10.00">DevelopmentHelper.h</text>
</a>
</g>
</g>
<!-- Node1&#45;&gt;Node14 -->
<g id="edge46_Node000001_Node000014" class="edge">
<title>Node1&#45;&gt;Node14</title>
<g id="a_edge46_Node000001_Node000014"><a xlink:title=" ">
<path fill="none" stroke="#63b8ff" d="M866.96,-441.69C888.44,-424.83 930.75,-386.05 930.75,-342.12 930.75,-342.12 930.75,-342.12 930.75,-229.62 930.75,-177.99 871.81,-148.53 827.57,-133.68"/>
<polygon fill="#63b8ff" stroke="#63b8ff" points="828.72,-130.37 818.13,-130.68 826.6,-137.04 828.72,-130.37"/>
</a>
</g>
</g>
<!-- Node3 -->
<g id="Node000003" class="node">
<title>Node3</title>
<g id="a_Node000003"><a xlink:title=" ">
<polygon fill="#e0e0e0" stroke="#999999" points="902.5,-350.75 807,-350.75 807,-331.5 902.5,-331.5 902.5,-350.75"/>
<text xml:space="preserve" text-anchor="middle" x="854.75" y="-337.25" font-family="Helvetica,sans-Serif" font-size="10.00">ESP8266mDNS.h</text>
</a>
</g>
</g>
<!-- Node2&#45;&gt;Node3 -->
<g id="edge2_Node000002_Node000003" class="edge">
<title>Node2&#45;&gt;Node3</title>
<g id="a_edge2_Node000002_Node000003"><a xlink:title=" ">
<path fill="none" stroke="#63b8ff" d="M823.02,-386.58C828.11,-379.46 835.45,-369.18 841.78,-360.3"/>
<polygon fill="#63b8ff" stroke="#63b8ff" points="844.5,-362.51 847.46,-352.34 838.8,-358.45 844.5,-362.51"/>
</a>
</g>
</g>
<!-- Node4 -->
<g id="Node000004" class="node">
<title>Node4</title>
<g id="a_Node000004"><a xlink:href="_event_handler_8h.html" target="_top" xlink:title=" ">
<polygon fill="white" stroke="#666666" points="628.12,-240.25 545.38,-240.25 545.38,-221 628.12,-221 628.12,-240.25"/>
<text xml:space="preserve" text-anchor="middle" x="586.75" y="-226.75" font-family="Helvetica,sans-Serif" font-size="10.00">EventHandler.h</text>
</a>
</g>
</g>
<!-- Node2&#45;&gt;Node4 -->
<g id="edge3_Node000002_Node000004" class="edge">
<title>Node2&#45;&gt;Node4</title>
<g id="a_edge3_Node000002_Node000004"><a xlink:title=" ">
<path fill="none" stroke="#63b8ff" d="M804.06,-386.34C766.59,-359.67 656.16,-281.04 608.77,-247.3"/>
<polygon fill="#63b8ff" stroke="#63b8ff" points="610.81,-244.46 600.64,-241.51 606.75,-250.16 610.81,-244.46"/>
</a>
</g>
</g>
<!-- Node15 -->
<g id="Node000015" class="node">
<title>Node15</title>
<g id="a_Node000015"><a xlink:href="_appl_8h.html" target="_top" xlink:title="Application Main Class.">
<polygon fill="white" stroke="#666666" points="563.62,-350.75 519.88,-350.75 519.88,-331.5 563.62,-331.5 563.62,-350.75"/>
<text xml:space="preserve" text-anchor="middle" x="541.75" y="-337.25" font-family="Helvetica,sans-Serif" font-size="10.00">Appl.h</text>
</a>
</g>
</g>
<!-- Node2&#45;&gt;Node15 -->
<g id="edge17_Node000002_Node000015" class="edge">
<title>Node2&#45;&gt;Node15</title>
<g id="a_edge17_Node000002_Node000015"><a xlink:title=" ">
<path fill="none" stroke="#63b8ff" d="M769.79,-386.28C714.38,-375.55 623.65,-357.98 575.02,-348.57"/>
<polygon fill="#63b8ff" stroke="#63b8ff" points="575.86,-345.16 565.37,-346.7 574.53,-352.04 575.86,-345.16"/>
</a>
</g>
</g>
<!-- Node5 -->
<g id="Node000005" class="node">
<title>Node5</title>
<g id="a_Node000005"><a xlink:href="_runtime_8h.html" target="_top" xlink:title=" ">
<polygon fill="white" stroke="#666666" points="445.25,-74.5 384.25,-74.5 384.25,-55.25 445.25,-55.25 445.25,-74.5"/>
<text xml:space="preserve" text-anchor="middle" x="414.75" y="-61" font-family="Helvetica,sans-Serif" font-size="10.00">Runtime.h</text>
</a>
</g>
</g>
<!-- Node4&#45;&gt;Node5 -->
<g id="edge4_Node000004_Node000005" class="edge">
<title>Node4&#45;&gt;Node5</title>
<g id="a_edge4_Node000004_Node000005"><a xlink:title=" ">
<path fill="none" stroke="#63b8ff" d="M566.78,-220.63C550.41,-212.68 527.19,-200.03 509.75,-185 474.34,-154.47 442.54,-109.31 426.24,-84.28"/>
<polygon fill="#63b8ff" stroke="#63b8ff" points="429.39,-82.7 421.06,-76.16 423.49,-86.47 429.39,-82.7"/>
</a>
</g>
</g>
<!-- Node9 -->
<g id="Node000009" class="node">
<title>Node9</title>
<g id="a_Node000009"><a xlink:title=" ">
<polygon fill="#e0e0e0" stroke="#999999" points="576.75,-185 518.75,-185 518.75,-165.75 576.75,-165.75 576.75,-185"/>
<text xml:space="preserve" text-anchor="middle" x="547.75" y="-171.5" font-family="Helvetica,sans-Serif" font-size="10.00">functional</text>
</a>
</g>
</g>
<!-- Node4&#45;&gt;Node9 -->
<g id="edge8_Node000004_Node000009" class="edge">
<title>Node4&#45;&gt;Node9</title>
<g id="a_edge8_Node000004_Node000009"><a xlink:title=" ">
<path fill="none" stroke="#63b8ff" d="M580.31,-220.83C575.09,-213.71 567.56,-203.43 561.06,-194.55"/>
<polygon fill="#63b8ff" stroke="#63b8ff" points="563.96,-192.58 555.22,-186.58 558.31,-196.72 563.96,-192.58"/>
</a>
</g>
</g>
<!-- Node10 -->
<g id="Node000010" class="node">
<title>Node10</title>
<g id="a_Node000010"><a xlink:title=" ">
<polygon fill="#e0e0e0" stroke="#999999" points="373.25,-129.75 330.25,-129.75 330.25,-110.5 373.25,-110.5 373.25,-129.75"/>
<text xml:space="preserve" text-anchor="middle" x="351.75" y="-116.25" font-family="Helvetica,sans-Serif" font-size="10.00">vector</text>
</a>
</g>
</g>
<!-- Node4&#45;&gt;Node10 -->
<g id="edge9_Node000004_Node000010" class="edge">
<title>Node4&#45;&gt;Node10</title>
<g id="a_edge9_Node000004_Node000010"><a xlink:title=" ">
<path fill="none" stroke="#63b8ff" d="M562.89,-220.64C540.44,-212.02 505.99,-198.37 476.75,-185 442.04,-169.13 403.01,-148.77 377.94,-135.35"/>
<polygon fill="#63b8ff" stroke="#63b8ff" points="379.9,-132.43 369.44,-130.78 376.59,-138.6 379.9,-132.43"/>
</a>
</g>
</g>
<!-- Node11 -->
<g id="Node000011" class="node">
<title>Node11</title>
<g id="a_Node000011"><a xlink:title=" ">
<polygon fill="#e0e0e0" stroke="#999999" points="758.88,-185 716.62,-185 716.62,-165.75 758.88,-165.75 758.88,-185"/>
<text xml:space="preserve" text-anchor="middle" x="737.75" y="-171.5" font-family="Helvetica,sans-Serif" font-size="10.00">queue</text>
</a>
</g>
</g>
<!-- Node4&#45;&gt;Node11 -->
<g id="edge10_Node000004_Node000011" class="edge">
<title>Node4&#45;&gt;Node11</title>
<g id="a_edge10_Node000004_Node000011"><a xlink:title=" ">
<path fill="none" stroke="#63b8ff" d="M612.37,-220.59C638.1,-211.52 677.83,-197.5 705.66,-187.69"/>
<polygon fill="#63b8ff" stroke="#63b8ff" points="706.72,-191.03 714.98,-184.4 704.39,-184.43 706.72,-191.03"/>
</a>
</g>
</g>
<!-- Node12 -->
<g id="Node000012" class="node">
<title>Node12</title>
<g id="a_Node000012"><a xlink:href="_named_value_table_8h.html" target="_top" xlink:title=" ">
<polygon fill="white" stroke="#666666" points="698.25,-185 595.25,-185 595.25,-165.75 698.25,-165.75 698.25,-185"/>
<text xml:space="preserve" text-anchor="middle" x="646.75" y="-171.5" font-family="Helvetica,sans-Serif" font-size="10.00">NamedValueTable.h</text>
</a>
</g>
</g>
<!-- Node4&#45;&gt;Node12 -->
<g id="edge11_Node000004_Node000012" class="edge">
<title>Node4&#45;&gt;Node12</title>
<g id="a_edge11_Node000004_Node000012"><a xlink:title=" ">
<path fill="none" stroke="#63b8ff" d="M596.93,-220.59C605.51,-212.97 618.02,-201.87 628.35,-192.7"/>
<polygon fill="#63b8ff" stroke="#63b8ff" points="630.43,-195.54 635.59,-186.28 625.79,-190.3 630.43,-195.54"/>
</a>
</g>
</g>
<!-- Node4&#45;&gt;Node14 -->
<g id="edge16_Node000004_Node000014" class="edge">
<title>Node4&#45;&gt;Node14</title>
<g id="a_edge16_Node000004_Node000014"><a xlink:title=" ">
<path fill="none" stroke="#63b8ff" d="M628.46,-221.8C678.86,-211.97 758.13,-195.17 767.75,-185 778.67,-173.45 781.21,-155.27 781.28,-141.25"/>
<polygon fill="#63b8ff" stroke="#63b8ff" points="784.78,-141.22 780.88,-131.37 777.79,-141.51 784.78,-141.22"/>
</a>
</g>
</g>
<!-- Node6 -->
<g id="Node000006" class="node">
<title>Node6</title>
<g id="a_Node000006"><a xlink:title=" ">
<polygon fill="#e0e0e0" stroke="#999999" points="373.88,-19.25 325.62,-19.25 325.62,0 373.88,0 373.88,-19.25"/>
<text xml:space="preserve" text-anchor="middle" x="349.75" y="-5.75" font-family="Helvetica,sans-Serif" font-size="10.00">string.h</text>
</a>
</g>
</g>
<!-- Node5&#45;&gt;Node6 -->
<g id="edge5_Node000005_Node000006" class="edge">
<title>Node5&#45;&gt;Node6</title>
<g id="a_edge5_Node000005_Node000006"><a xlink:title=" ">
<path fill="none" stroke="#63b8ff" d="M403.72,-54.84C394.33,-47.15 380.6,-35.9 369.34,-26.68"/>
<polygon fill="#63b8ff" stroke="#63b8ff" points="371.74,-24.11 361.78,-20.48 367.3,-29.53 371.74,-24.11"/>
</a>
</g>
</g>
<!-- Node7 -->
<g id="Node000007" class="node">
<title>Node7</title>
<g id="a_Node000007"><a xlink:title=" ">
<polygon fill="#e0e0e0" stroke="#999999" points="437.38,-19.25 392.12,-19.25 392.12,0 437.38,0 437.38,-19.25"/>
<text xml:space="preserve" text-anchor="middle" x="414.75" y="-5.75" font-family="Helvetica,sans-Serif" font-size="10.00">chrono</text>
</a>
</g>
</g>
<!-- Node5&#45;&gt;Node7 -->
<g id="edge6_Node000005_Node000007" class="edge">
<title>Node5&#45;&gt;Node7</title>
<g id="a_edge6_Node000005_Node000007"><a xlink:title=" ">
<path fill="none" stroke="#63b8ff" d="M414.75,-55.08C414.75,-48.57 414.75,-39.42 414.75,-31.12"/>
<polygon fill="#63b8ff" stroke="#63b8ff" points="418.25,-31.12 414.75,-21.12 411.25,-31.12 418.25,-31.12"/>
</a>
</g>
</g>
<!-- Node8 -->
<g id="Node000008" class="node">
<title>Node8</title>
<g id="a_Node000008"><a xlink:title=" ">
<polygon fill="#e0e0e0" stroke="#999999" points="508.5,-19.25 455,-19.25 455,0 508.5,0 508.5,-19.25"/>
<text xml:space="preserve" text-anchor="middle" x="481.75" y="-5.75" font-family="Helvetica,sans-Serif" font-size="10.00">iostream</text>
</a>
</g>
</g>
<!-- Node5&#45;&gt;Node8 -->
<g id="edge7_Node000005_Node000008" class="edge">
<title>Node5&#45;&gt;Node8</title>
<g id="a_edge7_Node000005_Node000008"><a xlink:title=" ">
<path fill="none" stroke="#63b8ff" d="M426.12,-54.84C435.8,-47.15 449.95,-35.9 461.56,-26.68"/>
<polygon fill="#63b8ff" stroke="#63b8ff" points="463.72,-29.43 469.37,-20.47 459.36,-23.95 463.72,-29.43"/>
</a>
</g>
</g>
<!-- Node12&#45;&gt;Node10 -->
<g id="edge12_Node000012_Node000010" class="edge">
<title>Node12&#45;&gt;Node10</title>
<g id="a_edge12_Node000012_Node000010"><a xlink:title=" ">
<path fill="none" stroke="#63b8ff" d="M596.37,-165.28C535.92,-154.37 436.27,-136.38 384.8,-127.09"/>
<polygon fill="#63b8ff" stroke="#63b8ff" points="385.65,-123.69 375.18,-125.36 384.4,-130.58 385.65,-123.69"/>
</a>
</g>
</g>
<!-- Node13 -->
<g id="Node000013" class="node">
<title>Node13</title>
<g id="a_Node000013"><a xlink:href="_l_s_c_utils_8h.html" target="_top" xlink:title=" ">
<polygon fill="white" stroke="#666666" points="630.75,-129.75 566.75,-129.75 566.75,-110.5 630.75,-110.5 630.75,-129.75"/>
<text xml:space="preserve" text-anchor="middle" x="598.75" y="-116.25" font-family="Helvetica,sans-Serif" font-size="10.00">LSCUtils.h</text>
</a>
</g>
</g>
<!-- Node12&#45;&gt;Node13 -->
<g id="edge13_Node000012_Node000013" class="edge">
<title>Node12&#45;&gt;Node13</title>
<g id="a_edge13_Node000012_Node000013"><a xlink:title=" ">
<path fill="none" stroke="#63b8ff" d="M638.82,-165.58C632.19,-158.23 622.53,-147.51 614.36,-138.44"/>
<polygon fill="#63b8ff" stroke="#63b8ff" points="617.16,-136.32 607.86,-131.23 611.96,-141 617.16,-136.32"/>
</a>
</g>
</g>
<!-- Node12&#45;&gt;Node14 -->
<g id="edge15_Node000012_Node000014" class="edge">
<title>Node12&#45;&gt;Node14</title>
<g id="a_edge15_Node000012_Node000014"><a xlink:title=" ">
<path fill="none" stroke="#63b8ff" d="M669.31,-165.34C690.52,-156.85 722.52,-144.04 746.63,-134.39"/>
<polygon fill="#63b8ff" stroke="#63b8ff" points="747.69,-137.73 755.67,-130.77 745.09,-131.23 747.69,-137.73"/>
</a>
</g>
</g>
<!-- Node13&#45;&gt;Node5 -->
<g id="edge14_Node000013_Node000005" class="edge">
<title>Node13&#45;&gt;Node5</title>
<g id="a_edge14_Node000013_Node000005"><a xlink:title=" ">
<path fill="none" stroke="#63b8ff" d="M567.54,-110.09C536.95,-101.24 490.15,-87.7 456.4,-77.93"/>
<polygon fill="#63b8ff" stroke="#63b8ff" points="457.53,-74.61 446.96,-75.2 455.59,-81.34 457.53,-74.61"/>
</a>
</g>
</g>
<!-- Node15&#45;&gt;Node5 -->
<g id="edge18_Node000015_Node000005" class="edge">
<title>Node15&#45;&gt;Node5</title>
<g id="a_edge18_Node000015_Node000005"><a xlink:title=" ">
<path fill="none" stroke="#63b8ff" d="M564.07,-337.5C636.86,-328.33 862.75,-294.79 862.75,-231.62 862.75,-231.62 862.75,-231.62 862.75,-174.38 862.75,-144.76 866.54,-129.41 843.75,-110.5 814.37,-86.12 559.58,-72.27 457.13,-67.64"/>
<polygon fill="#63b8ff" stroke="#63b8ff" points="457.36,-64.14 447.22,-67.2 457.05,-71.14 457.36,-64.14"/>
</a>
</g>
</g>
<!-- Node15&#45;&gt;Node14 -->
<g id="edge45_Node000015_Node000014" class="edge">
<title>Node15&#45;&gt;Node14</title>
<g id="a_edge45_Node000015_Node000014"><a xlink:title=" ">
<path fill="none" stroke="#63b8ff" d="M563.93,-334.24C614.89,-319.35 739.62,-274.83 786.75,-185 793.89,-171.39 791.32,-153.92 787.42,-140.69"/>
<polygon fill="#63b8ff" stroke="#63b8ff" points="790.78,-139.7 784.2,-131.4 784.16,-141.99 790.78,-139.7"/>
</a>
</g>
</g>
<!-- Node16 -->
<g id="Node000016" class="node">
<title>Node16</title>
<g id="a_Node000016"><a xlink:href="_sys_status_8h.html" target="_top" xlink:title=" ">
<polygon fill="white" stroke="#666666" points="168.75,-295.5 98.75,-295.5 98.75,-276.25 168.75,-276.25 168.75,-295.5"/>
<text xml:space="preserve" text-anchor="middle" x="133.75" y="-282" font-family="Helvetica,sans-Serif" font-size="10.00">SysStatus.h</text>
</a>
</g>
</g>
<!-- Node15&#45;&gt;Node16 -->
<g id="edge19_Node000015_Node000016" class="edge">
<title>Node15&#45;&gt;Node16</title>
<g id="a_edge19_Node000015_Node000016"><a xlink:title=" ">
<path fill="none" stroke="#63b8ff" d="M519.43,-337.75C462.94,-331.65 309.77,-314.56 182.75,-295.5 181.92,-295.38 181.08,-295.25 180.23,-295.12"/>
<polygon fill="#63b8ff" stroke="#63b8ff" points="180.97,-291.69 170.54,-293.55 179.85,-298.6 180.97,-291.69"/>
</a>
</g>
</g>
<!-- Node18 -->
<g id="Node000018" class="node">
<title>Node18</title>
<g id="a_Node000018"><a xlink:href="_json_node_8h.html" target="_top" xlink:title=" ">
<polygon fill="white" stroke="#666666" points="273,-185 204.5,-185 204.5,-165.75 273,-165.75 273,-185"/>
<text xml:space="preserve" text-anchor="middle" x="238.75" y="-171.5" font-family="Helvetica,sans-Serif" font-size="10.00">JsonNode.h</text>
</a>
</g>
</g>
<!-- Node15&#45;&gt;Node18 -->
<g id="edge29_Node000015_Node000018" class="edge">
<title>Node15&#45;&gt;Node18</title>
<g id="a_edge29_Node000015_Node000018"><a xlink:title=" ">
<path fill="none" stroke="#63b8ff" d="M519.4,-336.81C451.85,-326.3 252.21,-291.31 215.75,-240.25 205.83,-226.36 214.5,-207.74 223.9,-194.19"/>
<polygon fill="#63b8ff" stroke="#63b8ff" points="226.43,-196.64 229.7,-186.56 220.86,-192.4 226.43,-196.64"/>
</a>
</g>
</g>
<!-- Node21 -->
<g id="Node000021" class="node">
<title>Node21</title>
<g id="a_Node000021"><a xlink:href="_module_interface_8h.html" target="_top" xlink:title="Full Interface for a module and an abstract basic module implementation.">
<polygon fill="white" stroke="#666666" points="541.75,-295.5 447.75,-295.5 447.75,-276.25 541.75,-276.25 541.75,-295.5"/>
<text xml:space="preserve" text-anchor="middle" x="494.75" y="-282" font-family="Helvetica,sans-Serif" font-size="10.00">ModuleInterface.h</text>
</a>
</g>
</g>
<!-- Node15&#45;&gt;Node21 -->
<g id="edge30_Node000015_Node000021" class="edge">
<title>Node15&#45;&gt;Node21</title>
<g id="a_edge30_Node000015_Node000021"><a xlink:title=" ">
<path fill="none" stroke="#63b8ff" d="M533.99,-331.33C527.56,-324.05 518.24,-313.48 510.29,-304.48"/>
<polygon fill="#63b8ff" stroke="#63b8ff" points="512.92,-302.18 503.68,-296.99 507.67,-306.81 512.92,-302.18"/>
</a>
</g>
</g>
<!-- Node24 -->
<g id="Node000024" class="node">
<title>Node24</title>
<g id="a_Node000024"><a xlink:href="_logging_8h.html" target="_top" xlink:title=" ">
<polygon fill="white" stroke="#666666" points="617.75,-295.5 559.75,-295.5 559.75,-276.25 617.75,-276.25 617.75,-295.5"/>
<text xml:space="preserve" text-anchor="middle" x="588.75" y="-282" font-family="Helvetica,sans-Serif" font-size="10.00">Logging.h</text>
</a>
</g>
</g>
<!-- Node15&#45;&gt;Node24 -->
<g id="edge38_Node000015_Node000024" class="edge">
<title>Node15&#45;&gt;Node24</title>
<g id="a_edge38_Node000015_Node000024"><a xlink:title=" ">
<path fill="none" stroke="#63b8ff" d="M549.51,-331.33C555.94,-324.05 565.26,-313.48 573.21,-304.48"/>
<polygon fill="#63b8ff" stroke="#63b8ff" points="575.83,-306.81 579.82,-296.99 570.58,-302.18 575.83,-306.81"/>
</a>
</g>
</g>
<!-- Node26 -->
<g id="Node000026" class="node">
<title>Node26</title>
<g id="a_Node000026"><a xlink:href="_vars_8h.html" target="_top" xlink:title=" ">
<polygon fill="white" stroke="#666666" points="429.62,-295.5 385.88,-295.5 385.88,-276.25 429.62,-276.25 429.62,-295.5"/>
<text xml:space="preserve" text-anchor="middle" x="407.75" y="-282" font-family="Helvetica,sans-Serif" font-size="10.00">Vars.h</text>
</a>
</g>
</g>
<!-- Node15&#45;&gt;Node26 -->
<g id="edge42_Node000015_Node000026" class="edge">
<title>Node15&#45;&gt;Node26</title>
<g id="a_edge42_Node000015_Node000026"><a xlink:title=" ">
<path fill="none" stroke="#63b8ff" d="M519.62,-331.33C498.09,-322.78 465.12,-309.67 440.54,-299.91"/>
<polygon fill="#63b8ff" stroke="#63b8ff" points="441.9,-296.68 431.32,-296.24 439.32,-303.19 441.9,-296.68"/>
</a>
</g>
</g>
<!-- Node16&#45;&gt;Node5 -->
<g id="edge20_Node000016_Node000005" class="edge">
<title>Node16&#45;&gt;Node5</title>
<g id="a_edge20_Node000016_Node000005"><a xlink:title=" ">
<path fill="none" stroke="#63b8ff" d="M135.34,-276.15C141.15,-247.08 164.04,-152.93 223.75,-110.5 268.06,-79.01 331.37,-69.44 372.76,-66.7"/>
<polygon fill="#63b8ff" stroke="#63b8ff" points="372.77,-70.2 382.56,-66.17 372.39,-63.21 372.77,-70.2"/>
</a>
</g>
</g>
<!-- Node17 -->
<g id="Node000017" class="node">
<title>Node17</title>
<g id="a_Node000017"><a xlink:href="_status_handler_8h.html" target="_top" xlink:title=" ">
<polygon fill="white" stroke="#666666" points="310.62,-240.25 224.88,-240.25 224.88,-221 310.62,-221 310.62,-240.25"/>
<text xml:space="preserve" text-anchor="middle" x="267.75" y="-226.75" font-family="Helvetica,sans-Serif" font-size="10.00">StatusHandler.h</text>
</a>
</g>
</g>
<!-- Node16&#45;&gt;Node17 -->
<g id="edge21_Node000016_Node000017" class="edge">
<title>Node16&#45;&gt;Node17</title>
<g id="a_edge21_Node000016_Node000017"><a xlink:title=" ">
<path fill="none" stroke="#63b8ff" d="M156.48,-275.84C177.85,-267.35 210.09,-254.54 234.38,-244.89"/>
<polygon fill="#63b8ff" stroke="#63b8ff" points="235.5,-248.21 243.5,-241.26 232.91,-241.7 235.5,-248.21"/>
</a>
</g>
</g>
<!-- Node19 -->
<g id="Node000019" class="node">
<title>Node19</title>
<g id="a_Node000019"><a xlink:title=" ">
<polygon fill="#e0e0e0" stroke="#999999" points="41.5,-240.25 0,-240.25 0,-221 41.5,-221 41.5,-240.25"/>
<text xml:space="preserve" text-anchor="middle" x="20.75" y="-226.75" font-family="Helvetica,sans-Serif" font-size="10.00">Esp.h</text>
</a>
</g>
</g>
<!-- Node16&#45;&gt;Node19 -->
<g id="edge27_Node000016_Node000019" class="edge">
<title>Node16&#45;&gt;Node19</title>
<g id="a_edge27_Node000016_Node000019"><a xlink:title=" ">
<path fill="none" stroke="#63b8ff" d="M114.58,-275.84C96.97,-267.54 70.59,-255.11 50.29,-245.54"/>
<polygon fill="#63b8ff" stroke="#63b8ff" points="51.92,-242.44 41.38,-241.35 48.94,-248.78 51.92,-242.44"/>
</a>
</g>
</g>
<!-- Node20 -->
<g id="Node000020" class="node">
<title>Node20</title>
<g id="a_Node000020"><a xlink:title=" ">
<polygon fill="#e0e0e0" stroke="#999999" points="110.38,-240.25 59.12,-240.25 59.12,-221 110.38,-221 110.38,-240.25"/>
<text xml:space="preserve" text-anchor="middle" x="84.75" y="-226.75" font-family="Helvetica,sans-Serif" font-size="10.00">memory</text>
</a>
</g>
</g>
<!-- Node16&#45;&gt;Node20 -->
<g id="edge28_Node000016_Node000020" class="edge">
<title>Node16&#45;&gt;Node20</title>
<g id="a_edge28_Node000016_Node000020"><a xlink:title=" ">
<path fill="none" stroke="#63b8ff" d="M125.66,-276.08C118.89,-268.73 109.03,-258.01 100.69,-248.94"/>
<polygon fill="#63b8ff" stroke="#63b8ff" points="103.39,-246.71 94.04,-241.72 98.24,-251.45 103.39,-246.71"/>
</a>
</g>
</g>
<!-- Node17&#45;&gt;Node5 -->
<g id="edge22_Node000017_Node000005" class="edge">
<title>Node17&#45;&gt;Node5</title>
<g id="a_edge22_Node000017_Node000005"><a xlink:title=" ">
<path fill="none" stroke="#63b8ff" d="M242.63,-220.59C216.68,-209.73 181.78,-189.91 195.75,-165.75 232.12,-102.86 320.09,-79.33 372.8,-70.7"/>
<polygon fill="#63b8ff" stroke="#63b8ff" points="373.26,-74.17 382.63,-69.21 372.22,-67.25 373.26,-74.17"/>
</a>
</g>
</g>
<!-- Node17&#45;&gt;Node10 -->
<g id="edge26_Node000017_Node000010" class="edge">
<title>Node17&#45;&gt;Node10</title>
<g id="a_edge26_Node000017_Node000010"><a xlink:title=" ">
<path fill="none" stroke="#63b8ff" d="M274.62,-220.75C288.41,-202.94 319.65,-162.58 337.86,-139.06"/>
<polygon fill="#63b8ff" stroke="#63b8ff" points="340.5,-141.37 343.85,-131.32 334.97,-137.09 340.5,-141.37"/>
</a>
</g>
</g>
<!-- Node17&#45;&gt;Node18 -->
<g id="edge23_Node000017_Node000018" class="edge">
<title>Node17&#45;&gt;Node18</title>
<g id="a_edge23_Node000017_Node000018"><a xlink:title=" ">
<path fill="none" stroke="#63b8ff" d="M262.96,-220.83C259.21,-213.94 253.84,-204.09 249.12,-195.41"/>
<polygon fill="#63b8ff" stroke="#63b8ff" points="252.22,-193.8 244.37,-186.69 246.08,-197.14 252.22,-193.8"/>
</a>
</g>
</g>
<!-- Node18&#45;&gt;Node5 -->
<g id="edge24_Node000018_Node000005" class="edge">
<title>Node18&#45;&gt;Node5</title>
<g id="a_edge24_Node000018_Node000005"><a xlink:title=" ">
<path fill="none" stroke="#63b8ff" d="M248.98,-165.36C264.17,-152.26 293.88,-127.65 321.75,-110.5 341.04,-98.63 363.97,-87.6 382.23,-79.47"/>
<polygon fill="#63b8ff" stroke="#63b8ff" points="383.5,-82.74 391.27,-75.53 380.7,-76.32 383.5,-82.74"/>
</a>
</g>
</g>
<!-- Node18&#45;&gt;Node10 -->
<g id="edge25_Node000018_Node000010" class="edge">
<title>Node18&#45;&gt;Node10</title>
<g id="a_edge25_Node000018_Node000010"><a xlink:title=" ">
<path fill="none" stroke="#63b8ff" d="M257.92,-165.34C275.53,-157.04 301.91,-144.61 322.21,-135.04"/>
<polygon fill="#63b8ff" stroke="#63b8ff" points="323.56,-138.28 331.12,-130.85 320.58,-131.94 323.56,-138.28"/>
</a>
</g>
</g>
<!-- Node21&#45;&gt;Node4 -->
<g id="edge36_Node000021_Node000004" class="edge">
<title>Node21&#45;&gt;Node4</title>
<g id="a_edge36_Node000021_Node000004"><a xlink:title=" ">
<path fill="none" stroke="#63b8ff" d="M510.36,-275.84C524.37,-267.73 545.18,-255.68 561.55,-246.21"/>
<polygon fill="#63b8ff" stroke="#63b8ff" points="562.86,-249.5 569.76,-241.46 559.35,-243.44 562.86,-249.5"/>
</a>
</g>
</g>
<!-- Node21&#45;&gt;Node17 -->
<g id="edge35_Node000021_Node000017" class="edge">
<title>Node21&#45;&gt;Node17</title>
<g id="a_edge35_Node000021_Node000017"><a xlink:title=" ">
<path fill="none" stroke="#63b8ff" d="M455.99,-275.78C417.71,-266.8 359.01,-253.03 317.35,-243.26"/>
<polygon fill="#63b8ff" stroke="#63b8ff" points="318.36,-239.9 307.83,-241.03 316.76,-246.72 318.36,-239.9"/>
</a>
</g>
</g>
<!-- Node22 -->
<g id="Node000022" class="node">
<title>Node22</title>
<g id="a_Node000022"><a xlink:href="_config_handler_8h.html" target="_top" xlink:title=" ">
<polygon fill="white" stroke="#666666" points="452.62,-240.25 366.88,-240.25 366.88,-221 452.62,-221 452.62,-240.25"/>
<text xml:space="preserve" text-anchor="middle" x="409.75" y="-226.75" font-family="Helvetica,sans-Serif" font-size="10.00">ConfigHandler.h</text>
</a>
</g>
</g>
<!-- Node21&#45;&gt;Node22 -->
<g id="edge31_Node000021_Node000022" class="edge">
<title>Node21&#45;&gt;Node22</title>
<g id="a_edge31_Node000021_Node000022"><a xlink:title=" ">
<path fill="none" stroke="#63b8ff" d="M480.33,-275.84C467.63,-267.89 448.88,-256.14 433.89,-246.75"/>
<polygon fill="#63b8ff" stroke="#63b8ff" points="435.85,-243.85 425.52,-241.51 432.14,-249.78 435.85,-243.85"/>
</a>
</g>
</g>
<!-- Node23 -->
<g id="Node000023" class="node">
<title>Node23</title>
<g id="a_Node000023"><a xlink:href="_msgs_8h.html" target="_top" xlink:title=" ">
<polygon fill="white" stroke="#666666" points="521.88,-240.25 473.62,-240.25 473.62,-221 521.88,-221 521.88,-240.25"/>
<text xml:space="preserve" text-anchor="middle" x="497.75" y="-226.75" font-family="Helvetica,sans-Serif" font-size="10.00">Msgs.h</text>
</a>
</g>
</g>
<!-- Node21&#45;&gt;Node23 -->
<g id="edge37_Node000021_Node000023" class="edge">
<title>Node21&#45;&gt;Node23</title>
<g id="a_edge37_Node000021_Node000023"><a xlink:title=" ">
<path fill="none" stroke="#63b8ff" d="M495.25,-276.08C495.62,-269.49 496.14,-260.21 496.61,-251.82"/>
<polygon fill="#63b8ff" stroke="#63b8ff" points="500.09,-252.3 497.16,-242.12 493.1,-251.91 500.09,-252.3"/>
</a>
</g>
</g>
<!-- Node22&#45;&gt;Node5 -->
<g id="edge32_Node000022_Node000005" class="edge">
<title>Node22&#45;&gt;Node5</title>
<g id="a_edge32_Node000022_Node000005"><a xlink:title=" ">
<path fill="none" stroke="#63b8ff" d="M410.02,-220.82C410.79,-195.5 413.04,-122 414.13,-86.09"/>
<polygon fill="#63b8ff" stroke="#63b8ff" points="417.63,-86.34 414.43,-76.24 410.63,-86.12 417.63,-86.34"/>
</a>
</g>
</g>
<!-- Node22&#45;&gt;Node10 -->
<g id="edge34_Node000022_Node000010" class="edge">
<title>Node22&#45;&gt;Node10</title>
<g id="a_edge34_Node000022_Node000010"><a xlink:title=" ">
<path fill="none" stroke="#63b8ff" d="M405,-220.75C395.61,-203.18 374.49,-163.66 361.85,-140.02"/>
<polygon fill="#63b8ff" stroke="#63b8ff" points="365.08,-138.63 357.28,-131.46 358.9,-141.93 365.08,-138.63"/>
</a>
</g>
</g>
<!-- Node22&#45;&gt;Node18 -->
<g id="edge33_Node000022_Node000018" class="edge">
<title>Node22&#45;&gt;Node18</title>
<g id="a_edge33_Node000022_Node000018"><a xlink:title=" ">
<path fill="none" stroke="#63b8ff" d="M380.74,-220.59C352.74,-211.87 310.09,-198.59 278.85,-188.86"/>
<polygon fill="#63b8ff" stroke="#63b8ff" points="279.93,-185.53 269.35,-185.9 277.85,-192.22 279.93,-185.53"/>
</a>
</g>
</g>
<!-- Node24&#45;&gt;Node4 -->
<g id="edge40_Node000024_Node000004" class="edge">
<title>Node24&#45;&gt;Node4</title>
<g id="a_edge40_Node000024_Node000004"><a xlink:title=" ">
<path fill="none" stroke="#63b8ff" d="M588.42,-276.08C588.17,-269.49 587.82,-260.21 587.51,-251.82"/>
<polygon fill="#63b8ff" stroke="#63b8ff" points="591.02,-251.98 587.14,-242.12 584.02,-252.25 591.02,-251.98"/>
</a>
</g>
</g>
<!-- Node24&#45;&gt;Node23 -->
<g id="edge41_Node000024_Node000023" class="edge">
<title>Node24&#45;&gt;Node23</title>
<g id="a_edge41_Node000024_Node000023"><a xlink:title=" ">
<path fill="none" stroke="#63b8ff" d="M573.31,-275.84C559.59,-267.81 539.25,-255.91 523.13,-246.48"/>
<polygon fill="#63b8ff" stroke="#63b8ff" points="524.97,-243.5 514.57,-241.47 521.43,-249.54 524.97,-243.5"/>
</a>
</g>
</g>
<!-- Node25 -->
<g id="Node000025" class="node">
<title>Node25</title>
<g id="a_Node000025"><a xlink:title=" ">
<polygon fill="#e0e0e0" stroke="#999999" points="697.38,-240.25 646.12,-240.25 646.12,-221 697.38,-221 697.38,-240.25"/>
<text xml:space="preserve" text-anchor="middle" x="671.75" y="-226.75" font-family="Helvetica,sans-Serif" font-size="10.00">stdarg.h</text>
</a>
</g>
</g>
<!-- Node24&#45;&gt;Node25 -->
<g id="edge39_Node000024_Node000025" class="edge">
<title>Node24&#45;&gt;Node25</title>
<g id="a_edge39_Node000024_Node000025"><a xlink:title=" ">
<path fill="none" stroke="#63b8ff" d="M602.83,-275.84C615.23,-267.89 633.54,-256.14 648.18,-246.75"/>
<polygon fill="#63b8ff" stroke="#63b8ff" points="649.8,-249.87 656.33,-241.52 646.02,-243.97 649.8,-249.87"/>
</a>
</g>
</g>
<!-- Node26&#45;&gt;Node10 -->
<g id="edge44_Node000026_Node000010" class="edge">
<title>Node26&#45;&gt;Node10</title>
<g id="a_edge44_Node000026_Node000010"><a xlink:title=" ">
<path fill="none" stroke="#63b8ff" d="M392.53,-276.04C380.73,-268.27 365.18,-255.78 357.75,-240.25 342.45,-208.28 344.93,-165.81 348.25,-141.17"/>
<polygon fill="#63b8ff" stroke="#63b8ff" points="351.67,-141.97 349.74,-131.55 344.75,-140.9 351.67,-141.97"/>
</a>
</g>
</g>
<!-- Node26&#45;&gt;Node22 -->
<g id="edge43_Node000026_Node000022" class="edge">
<title>Node26&#45;&gt;Node22</title>
<g id="a_edge43_Node000026_Node000022"><a xlink:title=" ">
<path fill="none" stroke="#63b8ff" d="M408.08,-276.08C408.33,-269.49 408.68,-260.21 408.99,-251.82"/>
<polygon fill="#63b8ff" stroke="#63b8ff" points="412.48,-252.25 409.36,-242.12 405.48,-251.98 412.48,-252.25"/>
</a>
</g>
</g>
</g>
</svg>
