<?xml version="1.0" encoding="UTF-8" standalone="no"?>
<!DOCTYPE svg PUBLIC "-//W3C//DTD SVG 1.1//EN"
 "http://www.w3.org/Graphics/SVG/1.1/DTD/svg11.dtd">
<!-- Generated by graphviz version 15.1.0 (20260618.0150)
 -->
<!-- Title: src/CNTPHandler.cpp Pages: 1 -->
<svg width="884pt" height="469pt"
 viewBox="0.00 0.00 884.00 469.00" xmlns="http://www.w3.org/2000/svg" xmlns:xlink="http://www.w3.org/1999/xlink">
<g id="graph0" class="graph" transform="scale(1 1) rotate(0) translate(4 465.25)">
<title>src/CNTPHandler.cpp</title>
<!-- Node1 -->
<g id="Node000001" class="node">
<title>Node1</title>
<g id="a_Node000001"><a xlink:title=" ">
<polygon fill="#999999" stroke="#666666" points="546,-461.25 434,-461.25 434,-442 546,-442 546,-461.25"/>
<text xml:space="preserve" text-anchor="middle" x="490" y="-447.75" font-family="Helvetica,sans-Serif" font-size="10.00">src/CNTPHandler.cpp</text>
</a>
</g>
</g>
<!-- Node2 -->
<g id="Node000002" class="node">
<title>Node2</title>
<g id="a_Node000002"><a xlink:href="_n_t_p_handler_8h.html" target="_top" xlink:title=" ">
<polygon fill="white" stroke="#666666" points="528.75,-406 451.25,-406 451.25,-386.75 528.75,-386.75 528.75,-406"/>
<text xml:space="preserve" text-anchor="middle" x="490" y="-392.5" font-family="Helvetica,sans-Serif" font-size="10.00">NTPHandler.h</text>
</a>
</g>
</g>
<!-- Node1&#45;&gt;Node2 -->
<g id="edge1_Node000001_Node000002" class="edge">
<title>Node1&#45;&gt;Node2</title>
<g id="a_edge1_Node000001_Node000002"><a xlink:title=" ">
<path fill="none" stroke="#63b8ff" d="M490,-441.83C490,-435.32 490,-426.17 490,-417.87"/>
<polygon fill="#63b8ff" stroke="#63b8ff" points="493.5,-417.87 490,-407.87 486.5,-417.87 493.5,-417.87"/>
</a>
</g>
</g>
<!-- Node21 -->
<g id="Node000021" class="node">
<title>Node21</title>
<g id="a_Node000021"><a xlink:href="_l_s_c_utils_8h.html" target="_top" xlink:title=" ">
<polygon fill="white" stroke="#666666" points="340,-129.75 276,-129.75 276,-110.5 340,-110.5 340,-129.75"/>
<text xml:space="preserve" text-anchor="middle" x="308" y="-116.25" font-family="Helvetica,sans-Serif" font-size="10.00">LSCUtils.h</text>
</a>
</g>
</g>
<!-- Node1&#45;&gt;Node21 -->
<g id="edge46_Node000001_Node000021" class="edge">
<title>Node1&#45;&gt;Node21</title>
<g id="a_edge46_Node000001_Node000021"><a xlink:title=" ">
<path fill="none" stroke="#63b8ff" d="M433.72,-445.45C371.81,-436.3 281,-411.11 281,-342.12 281,-342.12 281,-342.12 281,-284.88 281,-229.82 222.08,-214.85 247,-165.75 253.43,-153.08 265.33,-143.14 276.93,-135.9"/>
<polygon fill="#63b8ff" stroke="#63b8ff" points="278.63,-138.96 285.58,-130.97 275.16,-132.88 278.63,-138.96"/>
</a>
</g>
</g>
<!-- Node22 -->
<g id="Node000022" class="node">
<title>Node22</title>
<g id="a_Node000022"><a xlink:href="_development_helper_8h.html" target="_top" xlink:title=" ">
<polygon fill="white" stroke="#666666" points="235.88,-129.75 126.12,-129.75 126.12,-110.5 235.88,-110.5 235.88,-129.75"/>
<text xml:space="preserve" text-anchor="middle" x="181" y="-116.25" font-family="Helvetica,sans-Serif" font-size="10.00">DevelopmentHelper.h</text>
</a>
</g>
</g>
<!-- Node1&#45;&gt;Node22 -->
<g id="edge49_Node000001_Node000022" class="edge">
<title>Node1&#45;&gt;Node22</title>
<g id="a_edge49_Node000001_Node000022"><a xlink:title=" ">
<path fill="none" stroke="#63b8ff" d="M433.67,-448.87C312.5,-443.55 38,-422.62 38,-342.12 38,-342.12 38,-342.12 38,-284.88 38,-215.11 112.55,-160.73 153.99,-135.88"/>
<polygon fill="#63b8ff" stroke="#63b8ff" points="155.56,-139.02 162.44,-130.97 152.04,-132.97 155.56,-139.02"/>
</a>
</g>
</g>
<!-- Node23 -->
<g id="Node000023" class="node">
<title>Node23</title>
<g id="a_Node000023"><a xlink:href="_msgs_8h.html" target="_top" xlink:title=" ">
<polygon fill="white" stroke="#666666" points="648.12,-240.25 599.88,-240.25 599.88,-221 648.12,-221 648.12,-240.25"/>
<text xml:space="preserve" text-anchor="middle" x="624" y="-226.75" font-family="Helvetica,sans-Serif" font-size="10.00">Msgs.h</text>
</a>
</g>
</g>
<!-- Node1&#45;&gt;Node23 -->
<g id="edge47_Node000001_Node000023" class="edge">
<title>Node1&#45;&gt;Node23</title>
<g id="a_edge47_Node000001_Node000023"><a xlink:title=" ">
<path fill="none" stroke="#63b8ff" d="M501.79,-441.7C512.27,-433.33 527.51,-420.04 538,-406 575.97,-355.19 604.54,-285.01 617.05,-251.28"/>
<polygon fill="#63b8ff" stroke="#63b8ff" points="620.28,-252.62 620.4,-242.03 613.7,-250.24 620.28,-252.62"/>
</a>
</g>
</g>
<!-- Node27 -->
<g id="Node000027" class="node">
<title>Node27</title>
<g id="a_Node000027"><a xlink:title=" ">
<polygon fill="#e0e0e0" stroke="#999999" points="706.12,-406 639.88,-406 639.88,-386.75 706.12,-386.75 706.12,-406"/>
<text xml:space="preserve" text-anchor="middle" x="673" y="-392.5" font-family="Helvetica,sans-Serif" font-size="10.00">coredecls.h</text>
</a>
</g>
</g>
<!-- Node1&#45;&gt;Node27 -->
<g id="edge48_Node000001_Node000027" class="edge">
<title>Node1&#45;&gt;Node27</title>
<g id="a_edge48_Node000001_Node000027"><a xlink:title=" ">
<path fill="none" stroke="#63b8ff" d="M521.04,-441.59C551.28,-432.79 597.45,-419.36 630.97,-409.61"/>
<polygon fill="#63b8ff" stroke="#63b8ff" points="631.73,-413.03 640.35,-406.88 629.77,-406.31 631.73,-413.03"/>
</a>
</g>
</g>
<!-- Node3 -->
<g id="Node000003" class="node">
<title>Node3</title>
<g id="a_Node000003"><a xlink:href="_runtime_8h.html" target="_top" xlink:title=" ">
<polygon fill="white" stroke="#666666" points="524.5,-74.5 463.5,-74.5 463.5,-55.25 524.5,-55.25 524.5,-74.5"/>
<text xml:space="preserve" text-anchor="middle" x="494" y="-61" font-family="Helvetica,sans-Serif" font-size="10.00">Runtime.h</text>
</a>
</g>
</g>
<!-- Node2&#45;&gt;Node3 -->
<g id="edge2_Node000002_Node000003" class="edge">
<title>Node2&#45;&gt;Node3</title>
<g id="a_edge2_Node000002_Node000003"><a xlink:title=" ">
<path fill="none" stroke="#63b8ff" d="M529.14,-392.72C627.27,-385.01 876,-358.4 876,-286.88 876,-286.88 876,-286.88 876,-174.38 876,-104.4 635.8,-77.18 536.34,-68.9"/>
<polygon fill="#63b8ff" stroke="#63b8ff" points="536.69,-65.42 526.45,-68.11 536.13,-72.4 536.69,-65.42"/>
</a>
</g>
</g>
<!-- Node7 -->
<g id="Node000007" class="node">
<title>Node7</title>
<g id="a_Node000007"><a xlink:title=" ">
<polygon fill="#e0e0e0" stroke="#999999" points="450.5,-350.75 407.5,-350.75 407.5,-331.5 450.5,-331.5 450.5,-350.75"/>
<text xml:space="preserve" text-anchor="middle" x="429" y="-337.25" font-family="Helvetica,sans-Serif" font-size="10.00">time.h</text>
</a>
</g>
</g>
<!-- Node2&#45;&gt;Node7 -->
<g id="edge6_Node000002_Node000007" class="edge">
<title>Node2&#45;&gt;Node7</title>
<g id="a_edge6_Node000002_Node000007"><a xlink:title=" ">
<path fill="none" stroke="#63b8ff" d="M479.65,-386.34C470.92,-378.72 458.21,-367.62 447.7,-358.45"/>
<polygon fill="#63b8ff" stroke="#63b8ff" points="450.17,-355.96 440.34,-352.02 445.57,-361.23 450.17,-355.96"/>
</a>
</g>
</g>
<!-- Node8 -->
<g id="Node000008" class="node">
<title>Node8</title>
<g id="a_Node000008"><a xlink:href="_appl_8h.html" target="_top" xlink:title="Application Main Class.">
<polygon fill="white" stroke="#666666" points="511.88,-350.75 468.12,-350.75 468.12,-331.5 511.88,-331.5 511.88,-350.75"/>
<text xml:space="preserve" text-anchor="middle" x="490" y="-337.25" font-family="Helvetica,sans-Serif" font-size="10.00">Appl.h</text>
</a>
</g>
</g>
<!-- Node2&#45;&gt;Node8 -->
<g id="edge7_Node000002_Node000008" class="edge">
<title>Node2&#45;&gt;Node8</title>
<g id="a_edge7_Node000002_Node000008"><a xlink:title=" ">
<path fill="none" stroke="#63b8ff" d="M490,-386.58C490,-380.07 490,-370.92 490,-362.62"/>
<polygon fill="#63b8ff" stroke="#63b8ff" points="493.5,-362.62 490,-352.62 486.5,-362.62 493.5,-362.62"/>
</a>
</g>
</g>
<!-- Node4 -->
<g id="Node000004" class="node">
<title>Node4</title>
<g id="a_Node000004"><a xlink:title=" ">
<polygon fill="#e0e0e0" stroke="#999999" points="453.12,-19.25 404.88,-19.25 404.88,0 453.12,0 453.12,-19.25"/>
<text xml:space="preserve" text-anchor="middle" x="429" y="-5.75" font-family="Helvetica,sans-Serif" font-size="10.00">string.h</text>
</a>
</g>
</g>
<!-- Node3&#45;&gt;Node4 -->
<g id="edge3_Node000003_Node000004" class="edge">
<title>Node3&#45;&gt;Node4</title>
<g id="a_edge3_Node000003_Node000004"><a xlink:title=" ">
<path fill="none" stroke="#63b8ff" d="M482.97,-54.84C473.58,-47.15 459.85,-35.9 448.59,-26.68"/>
<polygon fill="#63b8ff" stroke="#63b8ff" points="450.99,-24.11 441.03,-20.48 446.55,-29.53 450.99,-24.11"/>
</a>
</g>
</g>
<!-- Node5 -->
<g id="Node000005" class="node">
<title>Node5</title>
<g id="a_Node000005"><a xlink:title=" ">
<polygon fill="#e0e0e0" stroke="#999999" points="516.62,-19.25 471.38,-19.25 471.38,0 516.62,0 516.62,-19.25"/>
<text xml:space="preserve" text-anchor="middle" x="494" y="-5.75" font-family="Helvetica,sans-Serif" font-size="10.00">chrono</text>
</a>
</g>
</g>
<!-- Node3&#45;&gt;Node5 -->
<g id="edge4_Node000003_Node000005" class="edge">
<title>Node3&#45;&gt;Node5</title>
<g id="a_edge4_Node000003_Node000005"><a xlink:title=" ">
<path fill="none" stroke="#63b8ff" d="M494,-55.08C494,-48.57 494,-39.42 494,-31.12"/>
<polygon fill="#63b8ff" stroke="#63b8ff" points="497.5,-31.12 494,-21.12 490.5,-31.12 497.5,-31.12"/>
</a>
</g>
</g>
<!-- Node6 -->
<g id="Node000006" class="node">
<title>Node6</title>
<g id="a_Node000006"><a xlink:title=" ">
<polygon fill="#e0e0e0" stroke="#999999" points="587.75,-19.25 534.25,-19.25 534.25,0 587.75,0 587.75,-19.25"/>
<text xml:space="preserve" text-anchor="middle" x="561" y="-5.75" font-family="Helvetica,sans-Serif" font-size="10.00">iostream</text>
</a>
</g>
</g>
<!-- Node3&#45;&gt;Node6 -->
<g id="edge5_Node000003_Node000006" class="edge">
<title>Node3&#45;&gt;Node6</title>
<g id="a_edge5_Node000003_Node000006"><a xlink:title=" ">
<path fill="none" stroke="#63b8ff" d="M505.37,-54.84C515.05,-47.15 529.2,-35.9 540.81,-26.68"/>
<polygon fill="#63b8ff" stroke="#63b8ff" points="542.97,-29.43 548.62,-20.47 538.61,-23.95 542.97,-29.43"/>
</a>
</g>
</g>
<!-- Node8&#45;&gt;Node3 -->
<g id="edge8_Node000008_Node000003" class="edge">
<title>Node8&#45;&gt;Node3</title>
<g id="a_edge8_Node000008_Node000003"><a xlink:title=" ">
<path fill="none" stroke="#63b8ff" d="M467.82,-333.3C465.2,-332.63 462.55,-332.01 460,-331.5 321.81,-303.94 281.02,-332.32 145,-295.5 77.03,-277.1 0,-302.05 0,-231.62 0,-231.62 0,-231.62 0,-174.38 0,-82.17 332.44,-68.23 451.89,-66.19"/>
<polygon fill="#63b8ff" stroke="#63b8ff" points="451.64,-69.7 461.58,-66.05 451.53,-62.7 451.64,-69.7"/>
</a>
</g>
</g>
<!-- Node9 -->
<g id="Node000009" class="node">
<title>Node9</title>
<g id="a_Node000009"><a xlink:href="_sys_status_8h.html" target="_top" xlink:title=" ">
<polygon fill="white" stroke="#666666" points="224,-295.5 154,-295.5 154,-276.25 224,-276.25 224,-295.5"/>
<text xml:space="preserve" text-anchor="middle" x="189" y="-282" font-family="Helvetica,sans-Serif" font-size="10.00">SysStatus.h</text>
</a>
</g>
</g>
<!-- Node8&#45;&gt;Node9 -->
<g id="edge9_Node000008_Node000009" class="edge">
<title>Node8&#45;&gt;Node9</title>
<g id="a_edge9_Node000008_Node000009"><a xlink:title=" ">
<path fill="none" stroke="#63b8ff" d="M467.79,-333.43C465.18,-332.73 462.54,-332.07 460,-331.5 381.99,-313.93 289.9,-300.23 235.64,-292.87"/>
<polygon fill="#63b8ff" stroke="#63b8ff" points="236.21,-289.41 225.83,-291.55 235.28,-296.35 236.21,-289.41"/>
</a>
</g>
</g>
<!-- Node11 -->
<g id="Node000011" class="node">
<title>Node11</title>
<g id="a_Node000011"><a xlink:href="_json_node_8h.html" target="_top" xlink:title=" ">
<polygon fill="white" stroke="#666666" points="810.25,-185 741.75,-185 741.75,-165.75 810.25,-165.75 810.25,-185"/>
<text xml:space="preserve" text-anchor="middle" x="776" y="-171.5" font-family="Helvetica,sans-Serif" font-size="10.00">JsonNode.h</text>
</a>
</g>
</g>
<!-- Node8&#45;&gt;Node11 -->
<g id="edge19_Node000008_Node000011" class="edge">
<title>Node8&#45;&gt;Node11</title>
<g id="a_edge19_Node000008_Node000011"><a xlink:title=" ">
<path fill="none" stroke="#63b8ff" d="M512.26,-338.05C552.36,-333.77 638.92,-322.05 707,-295.5 751.44,-278.17 775.51,-281.76 799,-240.25 807.23,-225.7 799.28,-207.66 790.55,-194.47"/>
<polygon fill="#63b8ff" stroke="#63b8ff" points="793.6,-192.7 784.87,-186.69 787.94,-196.83 793.6,-192.7"/>
</a>
</g>
</g>
<!-- Node15 -->
<g id="Node000015" class="node">
<title>Node15</title>
<g id="a_Node000015"><a xlink:href="_module_interface_8h.html" target="_top" xlink:title="Full Interface for a module and an abstract basic module implementation.">
<polygon fill="white" stroke="#666666" points="584,-295.5 490,-295.5 490,-276.25 584,-276.25 584,-295.5"/>
<text xml:space="preserve" text-anchor="middle" x="537" y="-282" font-family="Helvetica,sans-Serif" font-size="10.00">ModuleInterface.h</text>
</a>
</g>
</g>
<!-- Node8&#45;&gt;Node15 -->
<g id="edge20_Node000008_Node000015" class="edge">
<title>Node8&#45;&gt;Node15</title>
<g id="a_edge20_Node000008_Node000015"><a xlink:title=" ">
<path fill="none" stroke="#63b8ff" d="M497.76,-331.33C504.19,-324.05 513.51,-313.48 521.46,-304.48"/>
<polygon fill="#63b8ff" stroke="#63b8ff" points="524.08,-306.81 528.07,-296.99 518.83,-302.18 524.08,-306.81"/>
</a>
</g>
</g>
<!-- Node8&#45;&gt;Node22 -->
<g id="edge45_Node000008_Node000022" class="edge">
<title>Node8&#45;&gt;Node22</title>
<g id="a_edge45_Node000008_Node000022"><a xlink:title=" ">
<path fill="none" stroke="#63b8ff" d="M467.84,-332.43C417.59,-314.05 293.4,-263.16 217,-185 204.35,-172.06 194.65,-153.79 188.52,-140.1"/>
<polygon fill="#63b8ff" stroke="#63b8ff" points="191.92,-139.15 184.81,-131.29 185.46,-141.87 191.92,-139.15"/>
</a>
</g>
</g>
<!-- Node24 -->
<g id="Node000024" class="node">
<title>Node24</title>
<g id="a_Node000024"><a xlink:href="_logging_8h.html" target="_top" xlink:title=" ">
<polygon fill="white" stroke="#666666" points="470,-295.5 412,-295.5 412,-276.25 470,-276.25 470,-295.5"/>
<text xml:space="preserve" text-anchor="middle" x="441" y="-282" font-family="Helvetica,sans-Serif" font-size="10.00">Logging.h</text>
</a>
</g>
</g>
<!-- Node8&#45;&gt;Node24 -->
<g id="edge38_Node000008_Node000024" class="edge">
<title>Node8&#45;&gt;Node24</title>
<g id="a_edge38_Node000008_Node000024"><a xlink:title=" ">
<path fill="none" stroke="#63b8ff" d="M481.91,-331.33C475.14,-323.98 465.28,-313.26 456.94,-304.19"/>
<polygon fill="#63b8ff" stroke="#63b8ff" points="459.64,-301.96 450.29,-296.97 454.49,-306.7 459.64,-301.96"/>
</a>
</g>
</g>
<!-- Node26 -->
<g id="Node000026" class="node">
<title>Node26</title>
<g id="a_Node000026"><a xlink:href="_vars_8h.html" target="_top" xlink:title=" ">
<polygon fill="white" stroke="#666666" points="697.88,-295.5 654.12,-295.5 654.12,-276.25 697.88,-276.25 697.88,-295.5"/>
<text xml:space="preserve" text-anchor="middle" x="676" y="-282" font-family="Helvetica,sans-Serif" font-size="10.00">Vars.h</text>
</a>
</g>
</g>
<!-- Node8&#45;&gt;Node26 -->
<g id="edge42_Node000008_Node000026" class="edge">
<title>Node8&#45;&gt;Node26</title>
<g id="a_edge42_Node000008_Node000026"><a xlink:title=" ">
<path fill="none" stroke="#63b8ff" d="M512.07,-333.81C544.42,-324.54 604.97,-307.21 642.74,-296.4"/>
<polygon fill="#63b8ff" stroke="#63b8ff" points="643.57,-299.8 652.22,-293.68 641.64,-293.07 643.57,-299.8"/>
</a>
</g>
</g>
<!-- Node9&#45;&gt;Node3 -->
<g id="edge10_Node000009_Node000003" class="edge">
<title>Node9&#45;&gt;Node3</title>
<g id="a_edge10_Node000009_Node000003"><a xlink:title=" ">
<path fill="none" stroke="#63b8ff" d="M153.64,-277.93C132.71,-271.81 107.84,-260.56 95,-240.25 73.44,-206.15 21.81,-198.48 117,-110.5 141.25,-88.08 358.62,-73.41 451.85,-68.1"/>
<polygon fill="#63b8ff" stroke="#63b8ff" points="451.8,-71.61 461.59,-67.56 451.41,-64.62 451.8,-71.61"/>
</a>
</g>
</g>
<!-- Node10 -->
<g id="Node000010" class="node">
<title>Node10</title>
<g id="a_Node000010"><a xlink:href="_status_handler_8h.html" target="_top" xlink:title=" ">
<polygon fill="white" stroke="#666666" points="581.88,-240.25 496.12,-240.25 496.12,-221 581.88,-221 581.88,-240.25"/>
<text xml:space="preserve" text-anchor="middle" x="539" y="-226.75" font-family="Helvetica,sans-Serif" font-size="10.00">StatusHandler.h</text>
</a>
</g>
</g>
<!-- Node9&#45;&gt;Node10 -->
<g id="edge11_Node000009_Node000010" class="edge">
<title>Node9&#45;&gt;Node10</title>
<g id="a_edge11_Node000009_Node000010"><a xlink:title=" ">
<path fill="none" stroke="#63b8ff" d="M224.35,-279.77C278.16,-271.95 384.16,-256.39 484.61,-240.61"/>
<polygon fill="#63b8ff" stroke="#63b8ff" points="485.05,-244.08 494.38,-239.07 483.96,-237.17 485.05,-244.08"/>
</a>
</g>
</g>
<!-- Node13 -->
<g id="Node000013" class="node">
<title>Node13</title>
<g id="a_Node000013"><a xlink:title=" ">
<polygon fill="#e0e0e0" stroke="#999999" points="145.75,-240.25 104.25,-240.25 104.25,-221 145.75,-221 145.75,-240.25"/>
<text xml:space="preserve" text-anchor="middle" x="125" y="-226.75" font-family="Helvetica,sans-Serif" font-size="10.00">Esp.h</text>
</a>
</g>
</g>
<!-- Node9&#45;&gt;Node13 -->
<g id="edge17_Node000009_Node000013" class="edge">
<title>Node9&#45;&gt;Node13</title>
<g id="a_edge17_Node000009_Node000013"><a xlink:title=" ">
<path fill="none" stroke="#63b8ff" d="M178.14,-275.84C168.89,-268.15 155.38,-256.9 144.29,-247.68"/>
<polygon fill="#63b8ff" stroke="#63b8ff" points="146.79,-245.2 136.86,-241.49 142.31,-250.58 146.79,-245.2"/>
</a>
</g>
</g>
<!-- Node14 -->
<g id="Node000014" class="node">
<title>Node14</title>
<g id="a_Node000014"><a xlink:title=" ">
<polygon fill="#e0e0e0" stroke="#999999" points="214.62,-240.25 163.38,-240.25 163.38,-221 214.62,-221 214.62,-240.25"/>
<text xml:space="preserve" text-anchor="middle" x="189" y="-226.75" font-family="Helvetica,sans-Serif" font-size="10.00">memory</text>
</a>
</g>
</g>
<!-- Node9&#45;&gt;Node14 -->
<g id="edge18_Node000009_Node000014" class="edge">
<title>Node9&#45;&gt;Node14</title>
<g id="a_edge18_Node000009_Node000014"><a xlink:title=" ">
<path fill="none" stroke="#63b8ff" d="M189,-276.08C189,-269.57 189,-260.42 189,-252.12"/>
<polygon fill="#63b8ff" stroke="#63b8ff" points="192.5,-252.12 189,-242.12 185.5,-252.12 192.5,-252.12"/>
</a>
</g>
</g>
<!-- Node10&#45;&gt;Node3 -->
<g id="edge12_Node000010_Node000003" class="edge">
<title>Node10&#45;&gt;Node3</title>
<g id="a_edge12_Node000010_Node000003"><a xlink:title=" ">
<path fill="none" stroke="#63b8ff" d="M541.13,-220.81C543.79,-208.37 547.47,-185.02 543,-165.75 536,-135.57 518.53,-104 506.46,-84.63"/>
<polygon fill="#63b8ff" stroke="#63b8ff" points="509.43,-82.77 501.08,-76.25 503.54,-86.55 509.43,-82.77"/>
</a>
</g>
</g>
<!-- Node10&#45;&gt;Node11 -->
<g id="edge13_Node000010_Node000011" class="edge">
<title>Node10&#45;&gt;Node11</title>
<g id="a_edge13_Node000010_Node000011"><a xlink:title=" ">
<path fill="none" stroke="#63b8ff" d="M579.47,-220.53C621.34,-211.12 686.61,-196.46 730.31,-186.64"/>
<polygon fill="#63b8ff" stroke="#63b8ff" points="731.01,-190.07 740,-184.46 729.47,-183.24 731.01,-190.07"/>
</a>
</g>
</g>
<!-- Node12 -->
<g id="Node000012" class="node">
<title>Node12</title>
<g id="a_Node000012"><a xlink:title=" ">
<polygon fill="#e0e0e0" stroke="#999999" points="684.5,-129.75 641.5,-129.75 641.5,-110.5 684.5,-110.5 684.5,-129.75"/>
<text xml:space="preserve" text-anchor="middle" x="663" y="-116.25" font-family="Helvetica,sans-Serif" font-size="10.00">vector</text>
</a>
</g>
</g>
<!-- Node10&#45;&gt;Node12 -->
<g id="edge16_Node000010_Node000012" class="edge">
<title>Node10&#45;&gt;Node12</title>
<g id="a_edge16_Node000010_Node000012"><a xlink:title=" ">
<path fill="none" stroke="#63b8ff" d="M558.51,-220.61C574.49,-212.65 597.13,-200 614,-185 629.15,-171.53 642.86,-152.82 651.9,-139.14"/>
<polygon fill="#63b8ff" stroke="#63b8ff" points="654.61,-141.4 657.04,-131.09 648.71,-137.64 654.61,-141.4"/>
</a>
</g>
</g>
<!-- Node11&#45;&gt;Node3 -->
<g id="edge14_Node000011_Node000003" class="edge">
<title>Node11&#45;&gt;Node3</title>
<g id="a_edge14_Node000011_Node000003"><a xlink:title=" ">
<path fill="none" stroke="#63b8ff" d="M767.32,-165.42C753.25,-151.46 724.03,-124.66 694,-110.5 642.79,-86.35 577.94,-74.98 536.22,-69.83"/>
<polygon fill="#63b8ff" stroke="#63b8ff" points="536.67,-66.36 526.34,-68.69 535.87,-73.32 536.67,-66.36"/>
</a>
</g>
</g>
<!-- Node11&#45;&gt;Node12 -->
<g id="edge15_Node000011_Node000012" class="edge">
<title>Node11&#45;&gt;Node12</title>
<g id="a_edge15_Node000011_Node000012"><a xlink:title=" ">
<path fill="none" stroke="#63b8ff" d="M756.83,-165.34C739.22,-157.04 712.84,-144.61 692.54,-135.04"/>
<polygon fill="#63b8ff" stroke="#63b8ff" points="694.17,-131.94 683.63,-130.85 691.19,-138.28 694.17,-131.94"/>
</a>
</g>
</g>
<!-- Node15&#45;&gt;Node10 -->
<g id="edge25_Node000015_Node000010" class="edge">
<title>Node15&#45;&gt;Node10</title>
<g id="a_edge25_Node000015_Node000010"><a xlink:title=" ">
<path fill="none" stroke="#63b8ff" d="M537.33,-276.08C537.58,-269.49 537.93,-260.21 538.24,-251.82"/>
<polygon fill="#63b8ff" stroke="#63b8ff" points="541.73,-252.25 538.61,-242.12 534.73,-251.98 541.73,-252.25"/>
</a>
</g>
</g>
<!-- Node16 -->
<g id="Node000016" class="node">
<title>Node16</title>
<g id="a_Node000016"><a xlink:href="_config_handler_8h.html" target="_top" xlink:title=" ">
<polygon fill="white" stroke="#666666" points="789.88,-240.25 704.12,-240.25 704.12,-221 789.88,-221 789.88,-240.25"/>
<text xml:space="preserve" text-anchor="middle" x="747" y="-226.75" font-family="Helvetica,sans-Serif" font-size="10.00">ConfigHandler.h</text>
</a>
</g>
</g>
<!-- Node15&#45;&gt;Node16 -->
<g id="edge21_Node000015_Node000016" class="edge">
<title>Node15&#45;&gt;Node16</title>
<g id="a_edge21_Node000015_Node000016"><a xlink:title=" ">
<path fill="none" stroke="#63b8ff" d="M572.62,-275.84C607.77,-266.93 661.69,-253.26 700.26,-243.48"/>
<polygon fill="#63b8ff" stroke="#63b8ff" points="700.9,-246.93 709.73,-241.07 699.18,-240.14 700.9,-246.93"/>
</a>
</g>
</g>
<!-- Node17 -->
<g id="Node000017" class="node">
<title>Node17</title>
<g id="a_Node000017"><a xlink:href="_event_handler_8h.html" target="_top" xlink:title=" ">
<polygon fill="white" stroke="#666666" points="478.38,-240.25 395.62,-240.25 395.62,-221 478.38,-221 478.38,-240.25"/>
<text xml:space="preserve" text-anchor="middle" x="437" y="-226.75" font-family="Helvetica,sans-Serif" font-size="10.00">EventHandler.h</text>
</a>
</g>
</g>
<!-- Node15&#45;&gt;Node17 -->
<g id="edge26_Node000015_Node000017" class="edge">
<title>Node15&#45;&gt;Node17</title>
<g id="a_edge26_Node000015_Node000017"><a xlink:title=" ">
<path fill="none" stroke="#63b8ff" d="M520.04,-275.84C504.74,-267.69 481.97,-255.57 464.14,-246.08"/>
<polygon fill="#63b8ff" stroke="#63b8ff" points="465.85,-243.02 455.38,-241.41 462.56,-249.2 465.85,-243.02"/>
</a>
</g>
</g>
<!-- Node15&#45;&gt;Node23 -->
<g id="edge37_Node000015_Node000023" class="edge">
<title>Node15&#45;&gt;Node23</title>
<g id="a_edge37_Node000015_Node000023"><a xlink:title=" ">
<path fill="none" stroke="#63b8ff" d="M551.76,-275.84C564.88,-267.81 584.32,-255.91 599.73,-246.48"/>
<polygon fill="#63b8ff" stroke="#63b8ff" points="601.18,-249.7 607.88,-241.49 597.52,-243.73 601.18,-249.7"/>
</a>
</g>
</g>
<!-- Node16&#45;&gt;Node3 -->
<g id="edge22_Node000016_Node000003" class="edge">
<title>Node16&#45;&gt;Node3</title>
<g id="a_edge22_Node000016_Node000003"><a xlink:title=" ">
<path fill="none" stroke="#63b8ff" d="M772.1,-220.6C798.04,-209.75 832.91,-189.94 819,-165.75 794.65,-123.41 769.73,-127.67 724,-110.5 660.81,-86.77 582.9,-75.06 535.91,-69.75"/>
<polygon fill="#63b8ff" stroke="#63b8ff" points="536.48,-66.29 526.16,-68.7 535.73,-73.25 536.48,-66.29"/>
</a>
</g>
</g>
<!-- Node16&#45;&gt;Node11 -->
<g id="edge23_Node000016_Node000011" class="edge">
<title>Node16&#45;&gt;Node11</title>
<g id="a_edge23_Node000016_Node000011"><a xlink:title=" ">
<path fill="none" stroke="#63b8ff" d="M751.79,-220.83C755.54,-213.94 760.91,-204.09 765.63,-195.41"/>
<polygon fill="#63b8ff" stroke="#63b8ff" points="768.67,-197.14 770.38,-186.69 762.53,-193.8 768.67,-197.14"/>
</a>
</g>
</g>
<!-- Node16&#45;&gt;Node12 -->
<g id="edge24_Node000016_Node000012" class="edge">
<title>Node16&#45;&gt;Node12</title>
<g id="a_edge24_Node000016_Node000012"><a xlink:title=" ">
<path fill="none" stroke="#63b8ff" d="M740.13,-220.75C726.34,-202.94 695.1,-162.58 676.89,-139.06"/>
<polygon fill="#63b8ff" stroke="#63b8ff" points="679.78,-137.09 670.9,-131.32 674.25,-141.37 679.78,-137.09"/>
</a>
</g>
</g>
<!-- Node17&#45;&gt;Node3 -->
<g id="edge27_Node000017_Node000003" class="edge">
<title>Node17&#45;&gt;Node3</title>
<g id="a_edge27_Node000017_Node000003"><a xlink:title=" ">
<path fill="none" stroke="#63b8ff" d="M427.83,-220.73C416.45,-208.56 399.44,-185.94 407,-165.75 420.14,-130.67 451.78,-99.8 473.06,-81.98"/>
<polygon fill="#63b8ff" stroke="#63b8ff" points="474.99,-84.92 480.56,-75.91 470.58,-79.48 474.99,-84.92"/>
</a>
</g>
</g>
<!-- Node17&#45;&gt;Node12 -->
<g id="edge29_Node000017_Node000012" class="edge">
<title>Node17&#45;&gt;Node12</title>
<g id="a_edge29_Node000017_Node000012"><a xlink:title=" ">
<path fill="none" stroke="#63b8ff" d="M460.01,-220.64C481.66,-212.02 514.87,-198.37 543,-185 576.23,-169.2 613.5,-148.95 637.56,-135.53"/>
<polygon fill="#63b8ff" stroke="#63b8ff" points="638.99,-138.75 646,-130.8 635.56,-132.64 638.99,-138.75"/>
</a>
</g>
</g>
<!-- Node18 -->
<g id="Node000018" class="node">
<title>Node18</title>
<g id="a_Node000018"><a xlink:title=" ">
<polygon fill="#e0e0e0" stroke="#999999" points="474,-185 416,-185 416,-165.75 474,-165.75 474,-185"/>
<text xml:space="preserve" text-anchor="middle" x="445" y="-171.5" font-family="Helvetica,sans-Serif" font-size="10.00">functional</text>
</a>
</g>
</g>
<!-- Node17&#45;&gt;Node18 -->
<g id="edge28_Node000017_Node000018" class="edge">
<title>Node17&#45;&gt;Node18</title>
<g id="a_edge28_Node000017_Node000018"><a xlink:title=" ">
<path fill="none" stroke="#63b8ff" d="M438.32,-220.83C439.31,-214.24 440.71,-204.96 441.97,-196.57"/>
<polygon fill="#63b8ff" stroke="#63b8ff" points="445.4,-197.26 443.43,-186.86 438.48,-196.22 445.4,-197.26"/>
</a>
</g>
</g>
<!-- Node19 -->
<g id="Node000019" class="node">
<title>Node19</title>
<g id="a_Node000019"><a xlink:title=" ">
<polygon fill="#e0e0e0" stroke="#999999" points="534.12,-185 491.88,-185 491.88,-165.75 534.12,-165.75 534.12,-185"/>
<text xml:space="preserve" text-anchor="middle" x="513" y="-171.5" font-family="Helvetica,sans-Serif" font-size="10.00">queue</text>
</a>
</g>
</g>
<!-- Node17&#45;&gt;Node19 -->
<g id="edge30_Node000017_Node000019" class="edge">
<title>Node17&#45;&gt;Node19</title>
<g id="a_edge30_Node000017_Node000019"><a xlink:title=" ">
<path fill="none" stroke="#63b8ff" d="M449.89,-220.59C461.03,-212.79 477.37,-201.34 490.64,-192.04"/>
<polygon fill="#63b8ff" stroke="#63b8ff" points="492.62,-194.93 498.8,-186.32 488.61,-189.19 492.62,-194.93"/>
</a>
</g>
</g>
<!-- Node20 -->
<g id="Node000020" class="node">
<title>Node20</title>
<g id="a_Node000020"><a xlink:href="_named_value_table_8h.html" target="_top" xlink:title=" ">
<polygon fill="white" stroke="#666666" points="359.5,-185 256.5,-185 256.5,-165.75 359.5,-165.75 359.5,-185"/>
<text xml:space="preserve" text-anchor="middle" x="308" y="-171.5" font-family="Helvetica,sans-Serif" font-size="10.00">NamedValueTable.h</text>
</a>
</g>
</g>
<!-- Node17&#45;&gt;Node20 -->
<g id="edge31_Node000017_Node000020" class="edge">
<title>Node17&#45;&gt;Node20</title>
<g id="a_edge31_Node000017_Node000020"><a xlink:title=" ">
<path fill="none" stroke="#63b8ff" d="M415.12,-220.59C394.64,-212.14 363.79,-199.4 340.44,-189.77"/>
<polygon fill="#63b8ff" stroke="#63b8ff" points="341.97,-186.61 331.39,-186.03 339.3,-193.08 341.97,-186.61"/>
</a>
</g>
</g>
<!-- Node17&#45;&gt;Node22 -->
<g id="edge36_Node000017_Node000022" class="edge">
<title>Node17&#45;&gt;Node22</title>
<g id="a_edge36_Node000017_Node000022"><a xlink:title=" ">
<path fill="none" stroke="#63b8ff" d="M395.21,-222.5C347.33,-213.86 272.2,-198.76 247,-185 225.88,-173.46 206.72,-153.33 194.55,-138.74"/>
<polygon fill="#63b8ff" stroke="#63b8ff" points="197.55,-136.89 188.56,-131.28 192.1,-141.27 197.55,-136.89"/>
</a>
</g>
</g>
<!-- Node20&#45;&gt;Node12 -->
<g id="edge32_Node000020_Node000012" class="edge">
<title>Node20&#45;&gt;Node12</title>
<g id="a_edge32_Node000020_Node000012"><a xlink:title=" ">
<path fill="none" stroke="#63b8ff" d="M359.62,-166.63C433.69,-155.52 568.01,-135.37 630.01,-126.07"/>
<polygon fill="#63b8ff" stroke="#63b8ff" points="630.2,-129.58 639.57,-124.64 629.16,-122.66 630.2,-129.58"/>
</a>
</g>
</g>
<!-- Node20&#45;&gt;Node21 -->
<g id="edge33_Node000020_Node000021" class="edge">
<title>Node20&#45;&gt;Node21</title>
<g id="a_edge33_Node000020_Node000021"><a xlink:title=" ">
<path fill="none" stroke="#63b8ff" d="M308,-165.58C308,-159.07 308,-149.92 308,-141.62"/>
<polygon fill="#63b8ff" stroke="#63b8ff" points="311.5,-141.62 308,-131.62 304.5,-141.62 311.5,-141.62"/>
</a>
</g>
</g>
<!-- Node20&#45;&gt;Node22 -->
<g id="edge35_Node000020_Node000022" class="edge">
<title>Node20&#45;&gt;Node22</title>
<g id="a_edge35_Node000020_Node000022"><a xlink:title=" ">
<path fill="none" stroke="#63b8ff" d="M286.46,-165.34C266.39,-156.93 236.2,-144.27 213.25,-134.65"/>
<polygon fill="#63b8ff" stroke="#63b8ff" points="214.62,-131.43 204.05,-130.79 211.91,-137.88 214.62,-131.43"/>
</a>
</g>
</g>
<!-- Node21&#45;&gt;Node3 -->
<g id="edge34_Node000021_Node000003" class="edge">
<title>Node21&#45;&gt;Node3</title>
<g id="a_edge34_Node000021_Node000003"><a xlink:title=" ">
<path fill="none" stroke="#63b8ff" d="M339.55,-110.09C370.56,-101.21 418.07,-87.61 452.2,-77.84"/>
<polygon fill="#63b8ff" stroke="#63b8ff" points="453.12,-81.22 461.77,-75.1 451.19,-74.49 453.12,-81.22"/>
</a>
</g>
</g>
<!-- Node24&#45;&gt;Node17 -->
<g id="edge40_Node000024_Node000017" class="edge">
<title>Node24&#45;&gt;Node17</title>
<g id="a_edge40_Node000024_Node000017"><a xlink:title=" ">
<path fill="none" stroke="#63b8ff" d="M440.34,-276.08C439.84,-269.49 439.15,-260.21 438.52,-251.82"/>
<polygon fill="#63b8ff" stroke="#63b8ff" points="442.03,-251.83 437.79,-242.12 435.05,-252.35 442.03,-251.83"/>
</a>
</g>
</g>
<!-- Node24&#45;&gt;Node23 -->
<g id="edge41_Node000024_Node000023" class="edge">
<title>Node24&#45;&gt;Node23</title>
<g id="a_edge41_Node000024_Node000023"><a xlink:title=" ">
<path fill="none" stroke="#63b8ff" d="M470.4,-276.32C502.63,-266.94 554.31,-251.9 588.7,-241.9"/>
<polygon fill="#63b8ff" stroke="#63b8ff" points="589.57,-245.29 598.19,-239.13 587.61,-238.57 589.57,-245.29"/>
</a>
</g>
</g>
<!-- Node25 -->
<g id="Node000025" class="node">
<title>Node25</title>
<g id="a_Node000025"><a xlink:title=" ">
<polygon fill="#e0e0e0" stroke="#999999" points="377.62,-240.25 326.38,-240.25 326.38,-221 377.62,-221 377.62,-240.25"/>
<text xml:space="preserve" text-anchor="middle" x="352" y="-226.75" font-family="Helvetica,sans-Serif" font-size="10.00">stdarg.h</text>
</a>
</g>
</g>
<!-- Node24&#45;&gt;Node25 -->
<g id="edge39_Node000024_Node000025" class="edge">
<title>Node24&#45;&gt;Node25</title>
<g id="a_edge39_Node000024_Node000025"><a xlink:title=" ">
<path fill="none" stroke="#63b8ff" d="M425.9,-275.84C412.48,-267.81 392.59,-255.91 376.83,-246.48"/>
<polygon fill="#63b8ff" stroke="#63b8ff" points="378.85,-243.61 368.47,-241.48 375.25,-249.62 378.85,-243.61"/>
</a>
</g>
</g>
<!-- Node26&#45;&gt;Node12 -->
<g id="edge44_Node000026_Node000012" class="edge">
<title>Node26&#45;&gt;Node12</title>
<g id="a_edge44_Node000026_Node000012"><a xlink:title=" ">
<path fill="none" stroke="#63b8ff" d="M675.3,-276.07C673.29,-250.75 667.46,-177.25 664.6,-141.34"/>
<polygon fill="#63b8ff" stroke="#63b8ff" points="668.1,-141.17 663.82,-131.48 661.12,-141.73 668.1,-141.17"/>
</a>
</g>
</g>
<!-- Node26&#45;&gt;Node16 -->
<g id="edge43_Node000026_Node000016" class="edge">
<title>Node26&#45;&gt;Node16</title>
<g id="a_edge43_Node000026_Node000016"><a xlink:title=" ">
<path fill="none" stroke="#63b8ff" d="M688.04,-275.84C698.41,-268.07 713.6,-256.67 725.97,-247.4"/>
<polygon fill="#63b8ff" stroke="#63b8ff" points="728.02,-250.23 733.92,-241.43 723.82,-244.63 728.02,-250.23"/>
</a>
</g>
</g>
</g>
</svg>
