<?xml version="1.0" encoding="UTF-8" standalone="no"?>
<!DOCTYPE svg PUBLIC "-//W3C//DTD SVG 1.1//EN"
 "http://www.w3.org/Graphics/SVG/1.1/DTD/svg11.dtd">
<!-- Generated by graphviz version 15.1.0 (20260618.0150)
 -->
<!-- Title: src/CRGBLed.cpp Pages: 1 -->
<svg width="1036pt" height="414pt"
 viewBox="0.00 0.00 1036.00 414.00" xmlns="http://www.w3.org/2000/svg" xmlns:xlink="http://www.w3.org/1999/xlink">
<g id="graph0" class="graph" transform="scale(1 1) rotate(0) translate(4 410)">
<title>src/CRGBLed.cpp</title>
<!-- Node1 -->
<g id="Node000001" class="node">
<title>Node1</title>
<g id="a_Node000001"><a xlink:title=" ">
<polygon fill="#999999" stroke="#666666" points="921.12,-406 824.88,-406 824.88,-386.75 921.12,-386.75 921.12,-406"/>
<text xml:space="preserve" text-anchor="middle" x="873" y="-392.5" font-family="Helvetica,sans-Serif" font-size="10.00">src/CRGBLed.cpp</text>
</a>
</g>
</g>
<!-- Node2 -->
<g id="Node000002" class="node">
<title>Node2</title>
<g id="a_Node000002"><a xlink:href="_r_g_b_led_8h.html" target="_top" xlink:title=" ">
<polygon fill="white" stroke="#666666" points="903.88,-240.25 842.12,-240.25 842.12,-221 903.88,-221 903.88,-240.25"/>
<text xml:space="preserve" text-anchor="middle" x="873" y="-226.75" font-family="Helvetica,sans-Serif" font-size="10.00">RGBLed.h</text>
</a>
</g>
</g>
<!-- Node1&#45;&gt;Node2 -->
<g id="edge1_Node000001_Node000002" class="edge">
<title>Node1&#45;&gt;Node2</title>
<g id="a_edge1_Node000001_Node000002"><a xlink:title=" ">
<path fill="none" stroke="#63b8ff" d="M873,-386.57C873,-361.25 873,-287.75 873,-251.84"/>
<polygon fill="#63b8ff" stroke="#63b8ff" points="876.5,-251.99 873,-241.99 869.5,-251.99 876.5,-251.99"/>
</a>
</g>
</g>
<!-- Node7 -->
<g id="Node000007" class="node">
<title>Node7</title>
<g id="a_Node000007"><a xlink:href="_light_switch_8h.html" target="_top" xlink:title=" ">
<polygon fill="white" stroke="#666666" points="962.62,-185 887.38,-185 887.38,-165.75 962.62,-165.75 962.62,-185"/>
<text xml:space="preserve" text-anchor="middle" x="925" y="-171.5" font-family="Helvetica,sans-Serif" font-size="10.00">LightSwitch.h</text>
</a>
</g>
</g>
<!-- Node1&#45;&gt;Node7 -->
<g id="edge50_Node000001_Node000007" class="edge">
<title>Node1&#45;&gt;Node7</title>
<g id="a_edge50_Node000001_Node000007"><a xlink:title=" ">
<path fill="none" stroke="#63b8ff" d="M875.98,-386.54C878.96,-377.58 883.57,-363.28 887,-350.75 900.34,-302.09 902.56,-289.61 913,-240.25 916.08,-225.68 919.18,-209.15 921.45,-196.56"/>
<polygon fill="#63b8ff" stroke="#63b8ff" points="924.85,-197.45 923.16,-186.99 917.96,-196.22 924.85,-197.45"/>
</a>
</g>
</g>
<!-- Node10 -->
<g id="Node000010" class="node">
<title>Node10</title>
<g id="a_Node000010"><a xlink:href="_appl_8h.html" target="_top" xlink:title="Application Main Class.">
<polygon fill="white" stroke="#666666" points="510.88,-350.75 467.12,-350.75 467.12,-331.5 510.88,-331.5 510.88,-350.75"/>
<text xml:space="preserve" text-anchor="middle" x="489" y="-337.25" font-family="Helvetica,sans-Serif" font-size="10.00">Appl.h</text>
</a>
</g>
</g>
<!-- Node1&#45;&gt;Node10 -->
<g id="edge11_Node000001_Node000010" class="edge">
<title>Node1&#45;&gt;Node10</title>
<g id="a_edge11_Node000001_Node000010"><a xlink:title=" ">
<path fill="none" stroke="#63b8ff" d="M824.75,-388.68C745.7,-377.72 590.58,-356.21 522.44,-346.76"/>
<polygon fill="#63b8ff" stroke="#63b8ff" points="523.03,-343.31 512.65,-345.4 522.07,-350.24 523.03,-343.31"/>
</a>
</g>
</g>
<!-- Node3 -->
<g id="Node000003" class="node">
<title>Node3</title>
<g id="a_Node000003"><a xlink:href="_runtime_8h.html" target="_top" xlink:title=" ">
<polygon fill="white" stroke="#666666" points="460.5,-74.5 399.5,-74.5 399.5,-55.25 460.5,-55.25 460.5,-74.5"/>
<text xml:space="preserve" text-anchor="middle" x="430" y="-61" font-family="Helvetica,sans-Serif" font-size="10.00">Runtime.h</text>
</a>
</g>
</g>
<!-- Node2&#45;&gt;Node3 -->
<g id="edge2_Node000002_Node000003" class="edge">
<title>Node2&#45;&gt;Node3</title>
<g id="a_edge2_Node000002_Node000003"><a xlink:title=" ">
<path fill="none" stroke="#63b8ff" d="M868.64,-220.67C861.7,-207.18 846.95,-181.58 828,-165.75 783.25,-128.37 764.76,-127.54 709,-110.5 627.27,-85.52 527.57,-73.87 472.21,-68.98"/>
<polygon fill="#63b8ff" stroke="#63b8ff" points="472.53,-65.49 462.27,-68.14 471.94,-72.47 472.53,-65.49"/>
</a>
</g>
</g>
<!-- Node2&#45;&gt;Node7 -->
<g id="edge6_Node000002_Node000007" class="edge">
<title>Node2&#45;&gt;Node7</title>
<g id="a_edge6_Node000002_Node000007"><a xlink:title=" ">
<path fill="none" stroke="#63b8ff" d="M881.59,-220.83C888.84,-213.4 899.45,-202.54 908.37,-193.41"/>
<polygon fill="#63b8ff" stroke="#63b8ff" points="910.69,-196.04 915.17,-186.44 905.68,-191.15 910.69,-196.04"/>
</a>
</g>
</g>
<!-- Node4 -->
<g id="Node000004" class="node">
<title>Node4</title>
<g id="a_Node000004"><a xlink:title=" ">
<polygon fill="#e0e0e0" stroke="#999999" points="389.12,-19.25 340.88,-19.25 340.88,0 389.12,0 389.12,-19.25"/>
<text xml:space="preserve" text-anchor="middle" x="365" y="-5.75" font-family="Helvetica,sans-Serif" font-size="10.00">string.h</text>
</a>
</g>
</g>
<!-- Node3&#45;&gt;Node4 -->
<g id="edge3_Node000003_Node000004" class="edge">
<title>Node3&#45;&gt;Node4</title>
<g id="a_edge3_Node000003_Node000004"><a xlink:title=" ">
<path fill="none" stroke="#63b8ff" d="M418.97,-54.84C409.58,-47.15 395.85,-35.9 384.59,-26.68"/>
<polygon fill="#63b8ff" stroke="#63b8ff" points="386.99,-24.11 377.03,-20.48 382.55,-29.53 386.99,-24.11"/>
</a>
</g>
</g>
<!-- Node5 -->
<g id="Node000005" class="node">
<title>Node5</title>
<g id="a_Node000005"><a xlink:title=" ">
<polygon fill="#e0e0e0" stroke="#999999" points="452.62,-19.25 407.38,-19.25 407.38,0 452.62,0 452.62,-19.25"/>
<text xml:space="preserve" text-anchor="middle" x="430" y="-5.75" font-family="Helvetica,sans-Serif" font-size="10.00">chrono</text>
</a>
</g>
</g>
<!-- Node3&#45;&gt;Node5 -->
<g id="edge4_Node000003_Node000005" class="edge">
<title>Node3&#45;&gt;Node5</title>
<g id="a_edge4_Node000003_Node000005"><a xlink:title=" ">
<path fill="none" stroke="#63b8ff" d="M430,-55.08C430,-48.57 430,-39.42 430,-31.12"/>
<polygon fill="#63b8ff" stroke="#63b8ff" points="433.5,-31.12 430,-21.12 426.5,-31.12 433.5,-31.12"/>
</a>
</g>
</g>
<!-- Node6 -->
<g id="Node000006" class="node">
<title>Node6</title>
<g id="a_Node000006"><a xlink:title=" ">
<polygon fill="#e0e0e0" stroke="#999999" points="523.75,-19.25 470.25,-19.25 470.25,0 523.75,0 523.75,-19.25"/>
<text xml:space="preserve" text-anchor="middle" x="497" y="-5.75" font-family="Helvetica,sans-Serif" font-size="10.00">iostream</text>
</a>
</g>
</g>
<!-- Node3&#45;&gt;Node6 -->
<g id="edge5_Node000003_Node000006" class="edge">
<title>Node3&#45;&gt;Node6</title>
<g id="a_edge5_Node000003_Node000006"><a xlink:title=" ">
<path fill="none" stroke="#63b8ff" d="M441.37,-54.84C451.05,-47.15 465.2,-35.9 476.81,-26.68"/>
<polygon fill="#63b8ff" stroke="#63b8ff" points="478.97,-29.43 484.62,-20.47 474.61,-23.95 478.97,-29.43"/>
</a>
</g>
</g>
<!-- Node7&#45;&gt;Node3 -->
<g id="edge7_Node000007_Node000003" class="edge">
<title>Node7&#45;&gt;Node3</title>
<g id="a_edge7_Node000007_Node000003"><a xlink:title=" ">
<path fill="none" stroke="#63b8ff" d="M919.81,-165.48C910.88,-151.08 891.12,-123.05 866,-110.5 797.56,-76.29 567.57,-68.29 472.1,-66.43"/>
<polygon fill="#63b8ff" stroke="#63b8ff" points="472.45,-62.94 462.39,-66.26 472.32,-69.94 472.45,-62.94"/>
</a>
</g>
</g>
<!-- Node8 -->
<g id="Node000008" class="node">
<title>Node8</title>
<g id="a_Node000008"><a xlink:href="_output_pin_controller_8h.html" target="_top" xlink:title=" ">
<polygon fill="white" stroke="#666666" points="1027.5,-129.75 918.5,-129.75 918.5,-110.5 1027.5,-110.5 1027.5,-129.75"/>
<text xml:space="preserve" text-anchor="middle" x="973" y="-116.25" font-family="Helvetica,sans-Serif" font-size="10.00">OutputPinController.h</text>
</a>
</g>
</g>
<!-- Node7&#45;&gt;Node8 -->
<g id="edge8_Node000007_Node000008" class="edge">
<title>Node7&#45;&gt;Node8</title>
<g id="a_edge8_Node000007_Node000008"><a xlink:title=" ">
<path fill="none" stroke="#63b8ff" d="M932.93,-165.58C939.56,-158.23 949.22,-147.51 957.39,-138.44"/>
<polygon fill="#63b8ff" stroke="#63b8ff" points="959.79,-141 963.89,-131.23 954.59,-136.32 959.79,-141"/>
</a>
</g>
</g>
<!-- Node8&#45;&gt;Node3 -->
<g id="edge9_Node000008_Node000003" class="edge">
<title>Node8&#45;&gt;Node3</title>
<g id="a_edge9_Node000008_Node000003"><a xlink:title=" ">
<path fill="none" stroke="#63b8ff" d="M918.03,-112.1C913.29,-111.54 908.56,-111 904,-110.5 744.83,-93.06 555.13,-76.46 472.25,-69.42"/>
<polygon fill="#63b8ff" stroke="#63b8ff" points="472.58,-65.93 462.32,-68.58 471.99,-72.91 472.58,-65.93"/>
</a>
</g>
</g>
<!-- Node9 -->
<g id="Node000009" class="node">
<title>Node9</title>
<g id="a_Node000009"><a xlink:href="_pin_controller_8h.html" target="_top" xlink:title=" ">
<polygon fill="white" stroke="#666666" points="1012.88,-74.5 933.12,-74.5 933.12,-55.25 1012.88,-55.25 1012.88,-74.5"/>
<text xml:space="preserve" text-anchor="middle" x="973" y="-61" font-family="Helvetica,sans-Serif" font-size="10.00">PinController.h</text>
</a>
</g>
</g>
<!-- Node8&#45;&gt;Node9 -->
<g id="edge10_Node000008_Node000009" class="edge">
<title>Node8&#45;&gt;Node9</title>
<g id="a_edge10_Node000008_Node000009"><a xlink:title=" ">
<path fill="none" stroke="#63b8ff" d="M973,-110.33C973,-103.82 973,-94.67 973,-86.37"/>
<polygon fill="#63b8ff" stroke="#63b8ff" points="976.5,-86.37 973,-76.37 969.5,-86.37 976.5,-86.37"/>
</a>
</g>
</g>
<!-- Node10&#45;&gt;Node3 -->
<g id="edge12_Node000010_Node000003" class="edge">
<title>Node10&#45;&gt;Node3</title>
<g id="a_edge12_Node000010_Node000003"><a xlink:title=" ">
<path fill="none" stroke="#63b8ff" d="M466.72,-340.01C371.06,-338.95 0,-328.59 0,-231.62 0,-231.62 0,-231.62 0,-174.38 0,-94.97 279.16,-73.08 387.62,-67.58"/>
<polygon fill="#63b8ff" stroke="#63b8ff" points="387.74,-71.08 397.56,-67.1 387.41,-64.08 387.74,-71.08"/>
</a>
</g>
</g>
<!-- Node11 -->
<g id="Node000011" class="node">
<title>Node11</title>
<g id="a_Node000011"><a xlink:href="_sys_status_8h.html" target="_top" xlink:title=" ">
<polygon fill="white" stroke="#666666" points="191,-295.5 121,-295.5 121,-276.25 191,-276.25 191,-295.5"/>
<text xml:space="preserve" text-anchor="middle" x="156" y="-282" font-family="Helvetica,sans-Serif" font-size="10.00">SysStatus.h</text>
</a>
</g>
</g>
<!-- Node10&#45;&gt;Node11 -->
<g id="edge13_Node000010_Node000011" class="edge">
<title>Node10&#45;&gt;Node11</title>
<g id="a_edge13_Node000010_Node000011"><a xlink:title=" ">
<path fill="none" stroke="#63b8ff" d="M466.63,-336.55C412.79,-327.94 275.05,-305.91 202.42,-294.3"/>
<polygon fill="#63b8ff" stroke="#63b8ff" points="203.27,-290.89 192.84,-292.77 202.16,-297.8 203.27,-290.89"/>
</a>
</g>
</g>
<!-- Node13 -->
<g id="Node000013" class="node">
<title>Node13</title>
<g id="a_Node000013"><a xlink:href="_json_node_8h.html" target="_top" xlink:title=" ">
<polygon fill="white" stroke="#666666" points="414.25,-185 345.75,-185 345.75,-165.75 414.25,-165.75 414.25,-185"/>
<text xml:space="preserve" text-anchor="middle" x="380" y="-171.5" font-family="Helvetica,sans-Serif" font-size="10.00">JsonNode.h</text>
</a>
</g>
</g>
<!-- Node10&#45;&gt;Node13 -->
<g id="edge23_Node000010_Node000013" class="edge">
<title>Node10&#45;&gt;Node13</title>
<g id="a_edge23_Node000010_Node000013"><a xlink:title=" ">
<path fill="none" stroke="#63b8ff" d="M485.27,-331.13C475.07,-306.74 446.5,-239.93 432,-221 423.66,-210.12 412.3,-200 402.32,-192.15"/>
<polygon fill="#63b8ff" stroke="#63b8ff" points="404.63,-189.51 394.54,-186.29 400.42,-195.1 404.63,-189.51"/>
</a>
</g>
</g>
<!-- Node17 -->
<g id="Node000017" class="node">
<title>Node17</title>
<g id="a_Node000017"><a xlink:href="_module_interface_8h.html" target="_top" xlink:title="Full Interface for a module and an abstract basic module implementation.">
<polygon fill="white" stroke="#666666" points="573,-295.5 479,-295.5 479,-276.25 573,-276.25 573,-295.5"/>
<text xml:space="preserve" text-anchor="middle" x="526" y="-282" font-family="Helvetica,sans-Serif" font-size="10.00">ModuleInterface.h</text>
</a>
</g>
</g>
<!-- Node10&#45;&gt;Node17 -->
<g id="edge24_Node000010_Node000017" class="edge">
<title>Node10&#45;&gt;Node17</title>
<g id="a_edge24_Node000010_Node000017"><a xlink:title=" ">
<path fill="none" stroke="#63b8ff" d="M495.11,-331.33C500.06,-324.21 507.2,-313.93 513.37,-305.05"/>
<polygon fill="#63b8ff" stroke="#63b8ff" points="516.06,-307.31 518.89,-297.1 510.31,-303.32 516.06,-307.31"/>
</a>
</g>
</g>
<!-- Node24 -->
<g id="Node000024" class="node">
<title>Node24</title>
<g id="a_Node000024"><a xlink:href="_development_helper_8h.html" target="_top" xlink:title=" ">
<polygon fill="white" stroke="#666666" points="699.88,-129.75 590.12,-129.75 590.12,-110.5 699.88,-110.5 699.88,-129.75"/>
<text xml:space="preserve" text-anchor="middle" x="645" y="-116.25" font-family="Helvetica,sans-Serif" font-size="10.00">DevelopmentHelper.h</text>
</a>
</g>
</g>
<!-- Node10&#45;&gt;Node24 -->
<g id="edge49_Node000010_Node000024" class="edge">
<title>Node10&#45;&gt;Node24</title>
<g id="a_edge49_Node000010_Node000024"><a xlink:title=" ">
<path fill="none" stroke="#63b8ff" d="M511.16,-337.66C572.14,-329.48 741.43,-297.04 795,-185 798.69,-177.28 800.11,-172.61 795,-165.75 784.36,-151.49 745.36,-140.14 709.79,-132.46"/>
<polygon fill="#63b8ff" stroke="#63b8ff" points="710.88,-129.11 700.38,-130.5 709.46,-135.96 710.88,-129.11"/>
</a>
</g>
</g>
<!-- Node26 -->
<g id="Node000026" class="node">
<title>Node26</title>
<g id="a_Node000026"><a xlink:href="_logging_8h.html" target="_top" xlink:title=" ">
<polygon fill="white" stroke="#666666" points="649,-295.5 591,-295.5 591,-276.25 649,-276.25 649,-295.5"/>
<text xml:space="preserve" text-anchor="middle" x="620" y="-282" font-family="Helvetica,sans-Serif" font-size="10.00">Logging.h</text>
</a>
</g>
</g>
<!-- Node10&#45;&gt;Node26 -->
<g id="edge42_Node000010_Node000026" class="edge">
<title>Node10&#45;&gt;Node26</title>
<g id="a_edge42_Node000010_Node000026"><a xlink:title=" ">
<path fill="none" stroke="#63b8ff" d="M511.22,-331.09C532.02,-322.64 563.35,-309.9 587.05,-300.27"/>
<polygon fill="#63b8ff" stroke="#63b8ff" points="588.32,-303.53 596.27,-296.52 585.68,-297.05 588.32,-303.53"/>
</a>
</g>
</g>
<!-- Node28 -->
<g id="Node000028" class="node">
<title>Node28</title>
<g id="a_Node000028"><a xlink:href="_vars_8h.html" target="_top" xlink:title=" ">
<polygon fill="white" stroke="#666666" points="297.88,-295.5 254.12,-295.5 254.12,-276.25 297.88,-276.25 297.88,-295.5"/>
<text xml:space="preserve" text-anchor="middle" x="276" y="-282" font-family="Helvetica,sans-Serif" font-size="10.00">Vars.h</text>
</a>
</g>
</g>
<!-- Node10&#45;&gt;Node28 -->
<g id="edge46_Node000010_Node000028" class="edge">
<title>Node10&#45;&gt;Node28</title>
<g id="a_edge46_Node000010_Node000028"><a xlink:title=" ">
<path fill="none" stroke="#63b8ff" d="M467.01,-334.63C429.54,-325.26 353.13,-306.16 309.15,-295.16"/>
<polygon fill="#63b8ff" stroke="#63b8ff" points="310.21,-291.82 299.66,-292.79 308.51,-298.61 310.21,-291.82"/>
</a>
</g>
</g>
<!-- Node11&#45;&gt;Node3 -->
<g id="edge14_Node000011_Node000003" class="edge">
<title>Node11&#45;&gt;Node3</title>
<g id="a_edge14_Node000011_Node000003"><a xlink:title=" ">
<path fill="none" stroke="#63b8ff" d="M120.62,-277.27C85.48,-267.92 39.21,-249.68 57,-221 128.81,-105.27 306.32,-75.86 387.84,-68.4"/>
<polygon fill="#63b8ff" stroke="#63b8ff" points="387.96,-71.9 397.64,-67.58 387.38,-64.92 387.96,-71.9"/>
</a>
</g>
</g>
<!-- Node12 -->
<g id="Node000012" class="node">
<title>Node12</title>
<g id="a_Node000012"><a xlink:href="_status_handler_8h.html" target="_top" xlink:title=" ">
<polygon fill="white" stroke="#666666" points="422.88,-240.25 337.12,-240.25 337.12,-221 422.88,-221 422.88,-240.25"/>
<text xml:space="preserve" text-anchor="middle" x="380" y="-226.75" font-family="Helvetica,sans-Serif" font-size="10.00">StatusHandler.h</text>
</a>
</g>
</g>
<!-- Node11&#45;&gt;Node12 -->
<g id="edge15_Node000011_Node000012" class="edge">
<title>Node11&#45;&gt;Node12</title>
<g id="a_edge15_Node000011_Node000012"><a xlink:title=" ">
<path fill="none" stroke="#63b8ff" d="M191.49,-276.44C229.01,-267.52 288.47,-253.38 330.56,-243.38"/>
<polygon fill="#63b8ff" stroke="#63b8ff" points="331.28,-246.8 340.2,-241.09 329.66,-239.99 331.28,-246.8"/>
</a>
</g>
</g>
<!-- Node15 -->
<g id="Node000015" class="node">
<title>Node15</title>
<g id="a_Node000015"><a xlink:title=" ">
<polygon fill="#e0e0e0" stroke="#999999" points="176.75,-240.25 135.25,-240.25 135.25,-221 176.75,-221 176.75,-240.25"/>
<text xml:space="preserve" text-anchor="middle" x="156" y="-226.75" font-family="Helvetica,sans-Serif" font-size="10.00">Esp.h</text>
</a>
</g>
</g>
<!-- Node11&#45;&gt;Node15 -->
<g id="edge21_Node000011_Node000015" class="edge">
<title>Node11&#45;&gt;Node15</title>
<g id="a_edge21_Node000011_Node000015"><a xlink:title=" ">
<path fill="none" stroke="#63b8ff" d="M156,-276.08C156,-269.57 156,-260.42 156,-252.12"/>
<polygon fill="#63b8ff" stroke="#63b8ff" points="159.5,-252.12 156,-242.12 152.5,-252.12 159.5,-252.12"/>
</a>
</g>
</g>
<!-- Node16 -->
<g id="Node000016" class="node">
<title>Node16</title>
<g id="a_Node000016"><a xlink:title=" ">
<polygon fill="#e0e0e0" stroke="#999999" points="117.62,-240.25 66.38,-240.25 66.38,-221 117.62,-221 117.62,-240.25"/>
<text xml:space="preserve" text-anchor="middle" x="92" y="-226.75" font-family="Helvetica,sans-Serif" font-size="10.00">memory</text>
</a>
</g>
</g>
<!-- Node11&#45;&gt;Node16 -->
<g id="edge22_Node000011_Node000016" class="edge">
<title>Node11&#45;&gt;Node16</title>
<g id="a_edge22_Node000011_Node000016"><a xlink:title=" ">
<path fill="none" stroke="#63b8ff" d="M145.14,-275.84C135.89,-268.15 122.38,-256.9 111.29,-247.68"/>
<polygon fill="#63b8ff" stroke="#63b8ff" points="113.79,-245.2 103.86,-241.49 109.31,-250.58 113.79,-245.2"/>
</a>
</g>
</g>
<!-- Node12&#45;&gt;Node3 -->
<g id="edge16_Node000012_Node000003" class="edge">
<title>Node12&#45;&gt;Node3</title>
<g id="a_edge16_Node000012_Node000003"><a xlink:title=" ">
<path fill="none" stroke="#63b8ff" d="M366.91,-220.74C338.92,-200.64 278,-150.34 306,-110.5 324.39,-84.34 359.65,-73.45 387.89,-68.94"/>
<polygon fill="#63b8ff" stroke="#63b8ff" points="388.15,-72.44 397.59,-67.63 387.21,-65.5 388.15,-72.44"/>
</a>
</g>
</g>
<!-- Node12&#45;&gt;Node13 -->
<g id="edge17_Node000012_Node000013" class="edge">
<title>Node12&#45;&gt;Node13</title>
<g id="a_edge17_Node000012_Node000013"><a xlink:title=" ">
<path fill="none" stroke="#63b8ff" d="M380,-220.83C380,-214.32 380,-205.17 380,-196.87"/>
<polygon fill="#63b8ff" stroke="#63b8ff" points="383.5,-196.87 380,-186.87 376.5,-196.87 383.5,-196.87"/>
</a>
</g>
</g>
<!-- Node14 -->
<g id="Node000014" class="node">
<title>Node14</title>
<g id="a_Node000014"><a xlink:title=" ">
<polygon fill="#e0e0e0" stroke="#999999" points="357.5,-129.75 314.5,-129.75 314.5,-110.5 357.5,-110.5 357.5,-129.75"/>
<text xml:space="preserve" text-anchor="middle" x="336" y="-116.25" font-family="Helvetica,sans-Serif" font-size="10.00">vector</text>
</a>
</g>
</g>
<!-- Node12&#45;&gt;Node14 -->
<g id="edge20_Node000012_Node000014" class="edge">
<title>Node12&#45;&gt;Node14</title>
<g id="a_edge20_Node000012_Node000014"><a xlink:title=" ">
<path fill="none" stroke="#63b8ff" d="M367.15,-220.68C356.86,-212.68 343.15,-199.92 337,-185 331.35,-171.31 331.32,-154.53 332.59,-141.6"/>
<polygon fill="#63b8ff" stroke="#63b8ff" points="336.05,-142.1 333.92,-131.72 329.12,-141.16 336.05,-142.1"/>
</a>
</g>
</g>
<!-- Node13&#45;&gt;Node3 -->
<g id="edge18_Node000013_Node000003" class="edge">
<title>Node13&#45;&gt;Node3</title>
<g id="a_edge18_Node000013_Node000003"><a xlink:title=" ">
<path fill="none" stroke="#63b8ff" d="M384.09,-165.5C392.15,-148.01 410.23,-108.77 421.15,-85.09"/>
<polygon fill="#63b8ff" stroke="#63b8ff" points="424.21,-86.8 425.22,-76.25 417.85,-83.87 424.21,-86.8"/>
</a>
</g>
</g>
<!-- Node13&#45;&gt;Node14 -->
<g id="edge19_Node000013_Node000014" class="edge">
<title>Node13&#45;&gt;Node14</title>
<g id="a_edge19_Node000013_Node000014"><a xlink:title=" ">
<path fill="none" stroke="#63b8ff" d="M372.73,-165.58C366.72,-158.3 357.99,-147.73 350.54,-138.73"/>
<polygon fill="#63b8ff" stroke="#63b8ff" points="353.46,-136.76 344.39,-131.28 348.06,-141.21 353.46,-136.76"/>
</a>
</g>
</g>
<!-- Node17&#45;&gt;Node12 -->
<g id="edge29_Node000017_Node000012" class="edge">
<title>Node17&#45;&gt;Node12</title>
<g id="a_edge29_Node000017_Node000012"><a xlink:title=" ">
<path fill="none" stroke="#63b8ff" d="M501.23,-275.84C477.74,-267.27 442.19,-254.31 415.65,-244.63"/>
<polygon fill="#63b8ff" stroke="#63b8ff" points="416.9,-241.36 406.31,-241.22 414.51,-247.94 416.9,-241.36"/>
</a>
</g>
</g>
<!-- Node18 -->
<g id="Node000018" class="node">
<title>Node18</title>
<g id="a_Node000018"><a xlink:href="_config_handler_8h.html" target="_top" xlink:title=" ">
<polygon fill="white" stroke="#666666" points="318.88,-240.25 233.12,-240.25 233.12,-221 318.88,-221 318.88,-240.25"/>
<text xml:space="preserve" text-anchor="middle" x="276" y="-226.75" font-family="Helvetica,sans-Serif" font-size="10.00">ConfigHandler.h</text>
</a>
</g>
</g>
<!-- Node17&#45;&gt;Node18 -->
<g id="edge25_Node000017_Node000018" class="edge">
<title>Node17&#45;&gt;Node18</title>
<g id="a_edge25_Node000017_Node000018"><a xlink:title=" ">
<path fill="none" stroke="#63b8ff" d="M483.31,-275.78C440.88,-266.74 375.68,-252.86 329.75,-243.07"/>
<polygon fill="#63b8ff" stroke="#63b8ff" points="330.51,-239.66 320,-241 329.05,-246.5 330.51,-239.66"/>
</a>
</g>
</g>
<!-- Node19 -->
<g id="Node000019" class="node">
<title>Node19</title>
<g id="a_Node000019"><a xlink:href="_event_handler_8h.html" target="_top" xlink:title=" ">
<polygon fill="white" stroke="#666666" points="577.38,-240.25 494.62,-240.25 494.62,-221 577.38,-221 577.38,-240.25"/>
<text xml:space="preserve" text-anchor="middle" x="536" y="-226.75" font-family="Helvetica,sans-Serif" font-size="10.00">EventHandler.h</text>
</a>
</g>
</g>
<!-- Node17&#45;&gt;Node19 -->
<g id="edge30_Node000017_Node000019" class="edge">
<title>Node17&#45;&gt;Node19</title>
<g id="a_edge30_Node000017_Node000019"><a xlink:title=" ">
<path fill="none" stroke="#63b8ff" d="M527.65,-276.08C528.89,-269.49 530.63,-260.21 532.21,-251.82"/>
<polygon fill="#63b8ff" stroke="#63b8ff" points="535.63,-252.57 534.03,-242.1 528.75,-251.28 535.63,-252.57"/>
</a>
</g>
</g>
<!-- Node25 -->
<g id="Node000025" class="node">
<title>Node25</title>
<g id="a_Node000025"><a xlink:href="_msgs_8h.html" target="_top" xlink:title=" ">
<polygon fill="white" stroke="#666666" points="644.12,-240.25 595.88,-240.25 595.88,-221 644.12,-221 644.12,-240.25"/>
<text xml:space="preserve" text-anchor="middle" x="620" y="-226.75" font-family="Helvetica,sans-Serif" font-size="10.00">Msgs.h</text>
</a>
</g>
</g>
<!-- Node17&#45;&gt;Node25 -->
<g id="edge41_Node000017_Node000025" class="edge">
<title>Node17&#45;&gt;Node25</title>
<g id="a_edge41_Node000017_Node000025"><a xlink:title=" ">
<path fill="none" stroke="#63b8ff" d="M541.95,-275.84C556.26,-267.73 577.53,-255.68 594.25,-246.21"/>
<polygon fill="#63b8ff" stroke="#63b8ff" points="595.68,-249.42 602.66,-241.45 592.23,-243.33 595.68,-249.42"/>
</a>
</g>
</g>
<!-- Node18&#45;&gt;Node3 -->
<g id="edge26_Node000018_Node000003" class="edge">
<title>Node18&#45;&gt;Node3</title>
<g id="a_edge26_Node000018_Node000003"><a xlink:title=" ">
<path fill="none" stroke="#63b8ff" d="M274.56,-220.59C271.65,-198.81 267.45,-142.88 295,-110.5 317.97,-83.49 357.67,-72.74 388.09,-68.51"/>
<polygon fill="#63b8ff" stroke="#63b8ff" points="388.22,-72.02 397.74,-67.36 387.4,-65.07 388.22,-72.02"/>
</a>
</g>
</g>
<!-- Node18&#45;&gt;Node13 -->
<g id="edge27_Node000018_Node000013" class="edge">
<title>Node18&#45;&gt;Node13</title>
<g id="a_edge27_Node000018_Node000013"><a xlink:title=" ">
<path fill="none" stroke="#63b8ff" d="M293.64,-220.59C309.63,-212.41 333.46,-200.21 352.04,-190.69"/>
<polygon fill="#63b8ff" stroke="#63b8ff" points="353.62,-193.82 360.92,-186.14 350.43,-187.58 353.62,-193.82"/>
</a>
</g>
</g>
<!-- Node18&#45;&gt;Node14 -->
<g id="edge28_Node000018_Node000014" class="edge">
<title>Node18&#45;&gt;Node14</title>
<g id="a_edge28_Node000018_Node000014"><a xlink:title=" ">
<path fill="none" stroke="#63b8ff" d="M280.91,-220.75C290.62,-203.18 312.48,-163.66 325.55,-140.02"/>
<polygon fill="#63b8ff" stroke="#63b8ff" points="328.51,-141.9 330.29,-131.45 322.39,-138.51 328.51,-141.9"/>
</a>
</g>
</g>
<!-- Node19&#45;&gt;Node3 -->
<g id="edge31_Node000019_Node000003" class="edge">
<title>Node19&#45;&gt;Node3</title>
<g id="a_edge31_Node000019_Node000003"><a xlink:title=" ">
<path fill="none" stroke="#63b8ff" d="M528.15,-220.7C520.56,-211.9 508.95,-197.94 500,-185 476.44,-150.94 452.82,-108.63 439.94,-84.7"/>
<polygon fill="#63b8ff" stroke="#63b8ff" points="443.17,-83.33 435.38,-76.15 437,-86.62 443.17,-83.33"/>
</a>
</g>
</g>
<!-- Node19&#45;&gt;Node14 -->
<g id="edge33_Node000019_Node000014" class="edge">
<title>Node19&#45;&gt;Node14</title>
<g id="a_edge33_Node000019_Node000014"><a xlink:title=" ">
<path fill="none" stroke="#63b8ff" d="M520.39,-220.54C498.69,-207.96 458.11,-184.67 423,-165.75 403.45,-155.21 381.15,-143.79 364.03,-135.14"/>
<polygon fill="#63b8ff" stroke="#63b8ff" points="365.96,-132.19 355.46,-130.82 362.82,-138.45 365.96,-132.19"/>
</a>
</g>
</g>
<!-- Node20 -->
<g id="Node000020" class="node">
<title>Node20</title>
<g id="a_Node000020"><a xlink:title=" ">
<polygon fill="#e0e0e0" stroke="#999999" points="726,-185 668,-185 668,-165.75 726,-165.75 726,-185"/>
<text xml:space="preserve" text-anchor="middle" x="697" y="-171.5" font-family="Helvetica,sans-Serif" font-size="10.00">functional</text>
</a>
</g>
</g>
<!-- Node19&#45;&gt;Node20 -->
<g id="edge32_Node000019_Node000020" class="edge">
<title>Node19&#45;&gt;Node20</title>
<g id="a_edge32_Node000019_Node000020"><a xlink:title=" ">
<path fill="none" stroke="#63b8ff" d="M563.31,-220.59C589.56,-211.91 629.48,-198.71 658.86,-188.99"/>
<polygon fill="#63b8ff" stroke="#63b8ff" points="659.72,-192.39 668.12,-185.93 657.52,-185.74 659.72,-192.39"/>
</a>
</g>
</g>
<!-- Node21 -->
<g id="Node000021" class="node">
<title>Node21</title>
<g id="a_Node000021"><a xlink:title=" ">
<polygon fill="#e0e0e0" stroke="#999999" points="786.12,-185 743.88,-185 743.88,-165.75 786.12,-165.75 786.12,-185"/>
<text xml:space="preserve" text-anchor="middle" x="765" y="-171.5" font-family="Helvetica,sans-Serif" font-size="10.00">queue</text>
</a>
</g>
</g>
<!-- Node19&#45;&gt;Node21 -->
<g id="edge34_Node000019_Node000021" class="edge">
<title>Node19&#45;&gt;Node21</title>
<g id="a_edge34_Node000019_Node000021"><a xlink:title=" ">
<path fill="none" stroke="#63b8ff" d="M577.72,-221.02C615.73,-213.02 673.68,-200.4 732.44,-185.55"/>
<polygon fill="#63b8ff" stroke="#63b8ff" points="733.12,-188.98 741.95,-183.12 731.39,-182.2 733.12,-188.98"/>
</a>
</g>
</g>
<!-- Node22 -->
<g id="Node000022" class="node">
<title>Node22</title>
<g id="a_Node000022"><a xlink:href="_named_value_table_8h.html" target="_top" xlink:title=" ">
<polygon fill="white" stroke="#666666" points="611.5,-185 508.5,-185 508.5,-165.75 611.5,-165.75 611.5,-185"/>
<text xml:space="preserve" text-anchor="middle" x="560" y="-171.5" font-family="Helvetica,sans-Serif" font-size="10.00">NamedValueTable.h</text>
</a>
</g>
</g>
<!-- Node19&#45;&gt;Node22 -->
<g id="edge35_Node000019_Node000022" class="edge">
<title>Node19&#45;&gt;Node22</title>
<g id="a_edge35_Node000019_Node000022"><a xlink:title=" ">
<path fill="none" stroke="#63b8ff" d="M539.96,-220.83C543.04,-214.01 547.41,-204.31 551.29,-195.7"/>
<polygon fill="#63b8ff" stroke="#63b8ff" points="554.41,-197.29 555.33,-186.74 548.03,-194.42 554.41,-197.29"/>
</a>
</g>
</g>
<!-- Node19&#45;&gt;Node24 -->
<g id="edge40_Node000019_Node000024" class="edge">
<title>Node19&#45;&gt;Node24</title>
<g id="a_edge40_Node000019_Node000024"><a xlink:title=" ">
<path fill="none" stroke="#63b8ff" d="M564.63,-220.6C582.94,-213.52 606,-201.99 621,-185 631.93,-172.63 638.07,-154.8 641.4,-141.12"/>
<polygon fill="#63b8ff" stroke="#63b8ff" points="644.79,-141.99 643.41,-131.48 637.94,-140.55 644.79,-141.99"/>
</a>
</g>
</g>
<!-- Node22&#45;&gt;Node14 -->
<g id="edge36_Node000022_Node000014" class="edge">
<title>Node22&#45;&gt;Node14</title>
<g id="a_edge36_Node000022_Node000014"><a xlink:title=" ">
<path fill="none" stroke="#63b8ff" d="M521.75,-165.28C478.76,-155.06 409.67,-138.64 368.97,-128.96"/>
<polygon fill="#63b8ff" stroke="#63b8ff" points="369.81,-125.57 359.28,-126.66 368.2,-132.38 369.81,-125.57"/>
</a>
</g>
</g>
<!-- Node23 -->
<g id="Node000023" class="node">
<title>Node23</title>
<g id="a_Node000023"><a xlink:href="_l_s_c_utils_8h.html" target="_top" xlink:title=" ">
<polygon fill="white" stroke="#666666" points="572,-129.75 508,-129.75 508,-110.5 572,-110.5 572,-129.75"/>
<text xml:space="preserve" text-anchor="middle" x="540" y="-116.25" font-family="Helvetica,sans-Serif" font-size="10.00">LSCUtils.h</text>
</a>
</g>
</g>
<!-- Node22&#45;&gt;Node23 -->
<g id="edge37_Node000022_Node000023" class="edge">
<title>Node22&#45;&gt;Node23</title>
<g id="a_edge37_Node000022_Node000023"><a xlink:title=" ">
<path fill="none" stroke="#63b8ff" d="M556.7,-165.58C554.17,-158.84 550.57,-149.27 547.37,-140.74"/>
<polygon fill="#63b8ff" stroke="#63b8ff" points="550.7,-139.66 543.91,-131.53 544.15,-142.12 550.7,-139.66"/>
</a>
</g>
</g>
<!-- Node22&#45;&gt;Node24 -->
<g id="edge39_Node000022_Node000024" class="edge">
<title>Node22&#45;&gt;Node24</title>
<g id="a_edge39_Node000022_Node000024"><a xlink:title=" ">
<path fill="none" stroke="#63b8ff" d="M574.42,-165.34C587.12,-157.39 605.87,-145.64 620.86,-136.25"/>
<polygon fill="#63b8ff" stroke="#63b8ff" points="622.61,-139.28 629.23,-131.01 618.9,-133.35 622.61,-139.28"/>
</a>
</g>
</g>
<!-- Node23&#45;&gt;Node3 -->
<g id="edge38_Node000023_Node000003" class="edge">
<title>Node23&#45;&gt;Node3</title>
<g id="a_edge38_Node000023_Node000003"><a xlink:title=" ">
<path fill="none" stroke="#63b8ff" d="M521.34,-110.09C504.27,-101.83 478.76,-89.48 459.03,-79.93"/>
<polygon fill="#63b8ff" stroke="#63b8ff" points="460.64,-76.82 450.11,-75.61 457.59,-83.12 460.64,-76.82"/>
</a>
</g>
</g>
<!-- Node26&#45;&gt;Node19 -->
<g id="edge44_Node000026_Node000019" class="edge">
<title>Node26&#45;&gt;Node19</title>
<g id="a_edge44_Node000026_Node000019"><a xlink:title=" ">
<path fill="none" stroke="#63b8ff" d="M605.75,-275.84C593.2,-267.89 574.67,-256.14 559.86,-246.75"/>
<polygon fill="#63b8ff" stroke="#63b8ff" points="561.92,-243.91 551.6,-241.51 558.17,-249.82 561.92,-243.91"/>
</a>
</g>
</g>
<!-- Node26&#45;&gt;Node25 -->
<g id="edge45_Node000026_Node000025" class="edge">
<title>Node26&#45;&gt;Node25</title>
<g id="a_edge45_Node000026_Node000025"><a xlink:title=" ">
<path fill="none" stroke="#63b8ff" d="M620,-276.08C620,-269.57 620,-260.42 620,-252.12"/>
<polygon fill="#63b8ff" stroke="#63b8ff" points="623.5,-252.12 620,-242.12 616.5,-252.12 623.5,-252.12"/>
</a>
</g>
</g>
<!-- Node27 -->
<g id="Node000027" class="node">
<title>Node27</title>
<g id="a_Node000027"><a xlink:title=" ">
<polygon fill="#e0e0e0" stroke="#999999" points="713.62,-240.25 662.38,-240.25 662.38,-221 713.62,-221 713.62,-240.25"/>
<text xml:space="preserve" text-anchor="middle" x="688" y="-226.75" font-family="Helvetica,sans-Serif" font-size="10.00">stdarg.h</text>
</a>
</g>
</g>
<!-- Node26&#45;&gt;Node27 -->
<g id="edge43_Node000026_Node000027" class="edge">
<title>Node26&#45;&gt;Node27</title>
<g id="a_edge43_Node000026_Node000027"><a xlink:title=" ">
<path fill="none" stroke="#63b8ff" d="M631.54,-275.84C641.46,-268.07 656.01,-256.67 667.86,-247.4"/>
<polygon fill="#63b8ff" stroke="#63b8ff" points="669.73,-250.38 675.44,-241.46 665.41,-244.87 669.73,-250.38"/>
</a>
</g>
</g>
<!-- Node28&#45;&gt;Node14 -->
<g id="edge48_Node000028_Node000014" class="edge">
<title>Node28&#45;&gt;Node14</title>
<g id="a_edge48_Node000028_Node000014"><a xlink:title=" ">
<path fill="none" stroke="#63b8ff" d="M259.3,-275.81C240.56,-264.32 214,-243.31 224,-221 241.29,-182.42 281.66,-152.62 308.9,-135.97"/>
<polygon fill="#63b8ff" stroke="#63b8ff" points="310.48,-139.1 317.32,-131.01 306.93,-133.07 310.48,-139.1"/>
</a>
</g>
</g>
<!-- Node28&#45;&gt;Node18 -->
<g id="edge47_Node000028_Node000018" class="edge">
<title>Node28&#45;&gt;Node18</title>
<g id="a_edge47_Node000028_Node000018"><a xlink:title=" ">
<path fill="none" stroke="#63b8ff" d="M276,-276.08C276,-269.57 276,-260.42 276,-252.12"/>
<polygon fill="#63b8ff" stroke="#63b8ff" points="279.5,-252.12 276,-242.12 272.5,-252.12 279.5,-252.12"/>
</a>
</g>
</g>
</g>
</svg>
