<?xml version="1.0" encoding="UTF-8" standalone="no"?>
<!DOCTYPE svg PUBLIC "-//W3C//DTD SVG 1.1//EN"
 "http://www.w3.org/Graphics/SVG/1.1/DTD/svg11.dtd">
<!-- Generated by graphviz version 15.1.0 (20260618.0150)
 -->
<!-- Title: src/CSysStatus.cpp Pages: 1 -->
<svg width="354pt" height="304pt"
 viewBox="0.00 0.00 354.00 304.00" xmlns="http://www.w3.org/2000/svg" xmlns:xlink="http://www.w3.org/1999/xlink">
<g id="graph0" class="graph" transform="scale(1 1) rotate(0) translate(4 299.5)">
<title>src/CSysStatus.cpp</title>
<!-- Node1 -->
<g id="Node000001" class="node">
<title>Node1</title>
<g id="a_Node000001"><a xlink:title=" ">
<polygon fill="#999999" stroke="#666666" points="226.75,-295.5 122.25,-295.5 122.25,-276.25 226.75,-276.25 226.75,-295.5"/>
<text xml:space="preserve" text-anchor="middle" x="174.5" y="-282" font-family="Helvetica,sans-Serif" font-size="10.00">src/CSysStatus.cpp</text>
</a>
</g>
</g>
<!-- Node2 -->
<g id="Node000002" class="node">
<title>Node2</title>
<g id="a_Node000002"><a xlink:href="_sys_status_8h.html" target="_top" xlink:title=" ">
<polygon fill="white" stroke="#666666" points="209.5,-240.25 139.5,-240.25 139.5,-221 209.5,-221 209.5,-240.25"/>
<text xml:space="preserve" text-anchor="middle" x="174.5" y="-226.75" font-family="Helvetica,sans-Serif" font-size="10.00">SysStatus.h</text>
</a>
</g>
</g>
<!-- Node1&#45;&gt;Node2 -->
<g id="edge1_Node000001_Node000002" class="edge">
<title>Node1&#45;&gt;Node2</title>
<g id="a_edge1_Node000001_Node000002"><a xlink:title=" ">
<path fill="none" stroke="#63b8ff" d="M174.5,-276.08C174.5,-269.57 174.5,-260.42 174.5,-252.12"/>
<polygon fill="#63b8ff" stroke="#63b8ff" points="178,-252.12 174.5,-242.12 171,-252.12 178,-252.12"/>
</a>
</g>
</g>
<!-- Node12 -->
<g id="Node000012" class="node">
<title>Node12</title>
<g id="a_Node000012"><a xlink:href="_file_system_8h.html" target="_top" xlink:title=" ">
<polygon fill="white" stroke="#666666" points="112.38,-240.25 38.62,-240.25 38.62,-221 112.38,-221 112.38,-240.25"/>
<text xml:space="preserve" text-anchor="middle" x="75.5" y="-226.75" font-family="Helvetica,sans-Serif" font-size="10.00">FileSystem.h</text>
</a>
</g>
</g>
<!-- Node1&#45;&gt;Node12 -->
<g id="edge14_Node000001_Node000012" class="edge">
<title>Node1&#45;&gt;Node12</title>
<g id="a_edge14_Node000001_Node000012"><a xlink:title=" ">
<path fill="none" stroke="#63b8ff" d="M157.71,-275.84C142.49,-267.66 119.8,-255.46 102.12,-245.94"/>
<polygon fill="#63b8ff" stroke="#63b8ff" points="104.17,-243.07 93.71,-241.42 100.86,-249.24 104.17,-243.07"/>
</a>
</g>
</g>
<!-- Node14 -->
<g id="Node000014" class="node">
<title>Node14</title>
<g id="a_Node000014"><a xlink:href="_development_helper_8h.html" target="_top" xlink:title=" ">
<polygon fill="white" stroke="#666666" points="337.38,-240.25 227.62,-240.25 227.62,-221 337.38,-221 337.38,-240.25"/>
<text xml:space="preserve" text-anchor="middle" x="282.5" y="-226.75" font-family="Helvetica,sans-Serif" font-size="10.00">DevelopmentHelper.h</text>
</a>
</g>
</g>
<!-- Node1&#45;&gt;Node14 -->
<g id="edge18_Node000001_Node000014" class="edge">
<title>Node1&#45;&gt;Node14</title>
<g id="a_edge18_Node000001_Node000014"><a xlink:title=" ">
<path fill="none" stroke="#63b8ff" d="M192.82,-275.84C209.58,-267.58 234.63,-255.23 254,-245.68"/>
<polygon fill="#63b8ff" stroke="#63b8ff" points="255.31,-248.93 262.73,-241.37 252.22,-242.65 255.31,-248.93"/>
</a>
</g>
</g>
<!-- Node3 -->
<g id="Node000003" class="node">
<title>Node3</title>
<g id="a_Node000003"><a xlink:href="_runtime_8h.html" target="_top" xlink:title=" ">
<polygon fill="white" stroke="#666666" points="160,-74.5 99,-74.5 99,-55.25 160,-55.25 160,-74.5"/>
<text xml:space="preserve" text-anchor="middle" x="129.5" y="-61" font-family="Helvetica,sans-Serif" font-size="10.00">Runtime.h</text>
</a>
</g>
</g>
<!-- Node2&#45;&gt;Node3 -->
<g id="edge2_Node000002_Node000003" class="edge">
<title>Node2&#45;&gt;Node3</title>
<g id="a_edge2_Node000002_Node000003"><a xlink:title=" ">
<path fill="none" stroke="#63b8ff" d="M157.71,-220.57C145.43,-212.91 129.7,-200.67 122.5,-185 107.62,-152.63 115.89,-110 122.92,-85.5"/>
<polygon fill="#63b8ff" stroke="#63b8ff" points="126.18,-86.8 125.81,-76.21 119.5,-84.72 126.18,-86.8"/>
</a>
</g>
</g>
<!-- Node7 -->
<g id="Node000007" class="node">
<title>Node7</title>
<g id="a_Node000007"><a xlink:href="_status_handler_8h.html" target="_top" xlink:title=" ">
<polygon fill="white" stroke="#666666" points="217.38,-185 131.62,-185 131.62,-165.75 217.38,-165.75 217.38,-185"/>
<text xml:space="preserve" text-anchor="middle" x="174.5" y="-171.5" font-family="Helvetica,sans-Serif" font-size="10.00">StatusHandler.h</text>
</a>
</g>
</g>
<!-- Node2&#45;&gt;Node7 -->
<g id="edge6_Node000002_Node000007" class="edge">
<title>Node2&#45;&gt;Node7</title>
<g id="a_edge6_Node000002_Node000007"><a xlink:title=" ">
<path fill="none" stroke="#63b8ff" d="M174.5,-220.83C174.5,-214.32 174.5,-205.17 174.5,-196.87"/>
<polygon fill="#63b8ff" stroke="#63b8ff" points="178,-196.87 174.5,-186.87 171,-196.87 178,-196.87"/>
</a>
</g>
</g>
<!-- Node10 -->
<g id="Node000010" class="node">
<title>Node10</title>
<g id="a_Node000010"><a xlink:title=" ">
<polygon fill="#e0e0e0" stroke="#999999" points="277.25,-185 235.75,-185 235.75,-165.75 277.25,-165.75 277.25,-185"/>
<text xml:space="preserve" text-anchor="middle" x="256.5" y="-171.5" font-family="Helvetica,sans-Serif" font-size="10.00">Esp.h</text>
</a>
</g>
</g>
<!-- Node2&#45;&gt;Node10 -->
<g id="edge12_Node000002_Node000010" class="edge">
<title>Node2&#45;&gt;Node10</title>
<g id="a_edge12_Node000002_Node000010"><a xlink:title=" ">
<path fill="none" stroke="#63b8ff" d="M188.41,-220.59C200.66,-212.64 218.75,-200.89 233.21,-191.5"/>
<polygon fill="#63b8ff" stroke="#63b8ff" points="234.77,-194.66 241.25,-186.28 230.96,-188.79 234.77,-194.66"/>
</a>
</g>
</g>
<!-- Node11 -->
<g id="Node000011" class="node">
<title>Node11</title>
<g id="a_Node000011"><a xlink:title=" ">
<polygon fill="#e0e0e0" stroke="#999999" points="346.12,-185 294.88,-185 294.88,-165.75 346.12,-165.75 346.12,-185"/>
<text xml:space="preserve" text-anchor="middle" x="320.5" y="-171.5" font-family="Helvetica,sans-Serif" font-size="10.00">memory</text>
</a>
</g>
</g>
<!-- Node2&#45;&gt;Node11 -->
<g id="edge13_Node000002_Node000011" class="edge">
<title>Node2&#45;&gt;Node11</title>
<g id="a_edge13_Node000002_Node000011"><a xlink:title=" ">
<path fill="none" stroke="#63b8ff" d="M199.27,-220.59C222.76,-212.02 258.31,-199.06 284.85,-189.38"/>
<polygon fill="#63b8ff" stroke="#63b8ff" points="285.99,-192.69 294.19,-185.97 283.6,-186.11 285.99,-192.69"/>
</a>
</g>
</g>
<!-- Node4 -->
<g id="Node000004" class="node">
<title>Node4</title>
<g id="a_Node000004"><a xlink:title=" ">
<polygon fill="#e0e0e0" stroke="#999999" points="88.62,-19.25 40.38,-19.25 40.38,0 88.62,0 88.62,-19.25"/>
<text xml:space="preserve" text-anchor="middle" x="64.5" y="-5.75" font-family="Helvetica,sans-Serif" font-size="10.00">string.h</text>
</a>
</g>
</g>
<!-- Node3&#45;&gt;Node4 -->
<g id="edge3_Node000003_Node000004" class="edge">
<title>Node3&#45;&gt;Node4</title>
<g id="a_edge3_Node000003_Node000004"><a xlink:title=" ">
<path fill="none" stroke="#63b8ff" d="M118.47,-54.84C109.08,-47.15 95.35,-35.9 84.09,-26.68"/>
<polygon fill="#63b8ff" stroke="#63b8ff" points="86.49,-24.11 76.53,-20.48 82.05,-29.53 86.49,-24.11"/>
</a>
</g>
</g>
<!-- Node5 -->
<g id="Node000005" class="node">
<title>Node5</title>
<g id="a_Node000005"><a xlink:title=" ">
<polygon fill="#e0e0e0" stroke="#999999" points="152.12,-19.25 106.88,-19.25 106.88,0 152.12,0 152.12,-19.25"/>
<text xml:space="preserve" text-anchor="middle" x="129.5" y="-5.75" font-family="Helvetica,sans-Serif" font-size="10.00">chrono</text>
</a>
</g>
</g>
<!-- Node3&#45;&gt;Node5 -->
<g id="edge4_Node000003_Node000005" class="edge">
<title>Node3&#45;&gt;Node5</title>
<g id="a_edge4_Node000003_Node000005"><a xlink:title=" ">
<path fill="none" stroke="#63b8ff" d="M129.5,-55.08C129.5,-48.57 129.5,-39.42 129.5,-31.12"/>
<polygon fill="#63b8ff" stroke="#63b8ff" points="133,-31.12 129.5,-21.12 126,-31.12 133,-31.12"/>
</a>
</g>
</g>
<!-- Node6 -->
<g id="Node000006" class="node">
<title>Node6</title>
<g id="a_Node000006"><a xlink:title=" ">
<polygon fill="#e0e0e0" stroke="#999999" points="223.25,-19.25 169.75,-19.25 169.75,0 223.25,0 223.25,-19.25"/>
<text xml:space="preserve" text-anchor="middle" x="196.5" y="-5.75" font-family="Helvetica,sans-Serif" font-size="10.00">iostream</text>
</a>
</g>
</g>
<!-- Node3&#45;&gt;Node6 -->
<g id="edge5_Node000003_Node000006" class="edge">
<title>Node3&#45;&gt;Node6</title>
<g id="a_edge5_Node000003_Node000006"><a xlink:title=" ">
<path fill="none" stroke="#63b8ff" d="M140.87,-54.84C150.55,-47.15 164.7,-35.9 176.31,-26.68"/>
<polygon fill="#63b8ff" stroke="#63b8ff" points="178.47,-29.43 184.12,-20.47 174.11,-23.95 178.47,-29.43"/>
</a>
</g>
</g>
<!-- Node7&#45;&gt;Node3 -->
<g id="edge7_Node000007_Node000003" class="edge">
<title>Node7&#45;&gt;Node3</title>
<g id="a_edge7_Node000007_Node000003"><a xlink:title=" ">
<path fill="none" stroke="#63b8ff" d="M170.82,-165.5C163.6,-148.09 147.44,-109.12 137.6,-85.41"/>
<polygon fill="#63b8ff" stroke="#63b8ff" points="140.88,-84.17 133.81,-76.27 134.41,-86.85 140.88,-84.17"/>
</a>
</g>
</g>
<!-- Node8 -->
<g id="Node000008" class="node">
<title>Node8</title>
<g id="a_Node000008"><a xlink:href="_json_node_8h.html" target="_top" xlink:title=" ">
<polygon fill="white" stroke="#666666" points="237.75,-129.75 169.25,-129.75 169.25,-110.5 237.75,-110.5 237.75,-129.75"/>
<text xml:space="preserve" text-anchor="middle" x="203.5" y="-116.25" font-family="Helvetica,sans-Serif" font-size="10.00">JsonNode.h</text>
</a>
</g>
</g>
<!-- Node7&#45;&gt;Node8 -->
<g id="edge8_Node000007_Node000008" class="edge">
<title>Node7&#45;&gt;Node8</title>
<g id="a_edge8_Node000007_Node000008"><a xlink:title=" ">
<path fill="none" stroke="#63b8ff" d="M179.29,-165.58C183.04,-158.69 188.41,-148.84 193.13,-140.16"/>
<polygon fill="#63b8ff" stroke="#63b8ff" points="196.17,-141.89 197.88,-131.44 190.03,-138.55 196.17,-141.89"/>
</a>
</g>
</g>
<!-- Node9 -->
<g id="Node000009" class="node">
<title>Node9</title>
<g id="a_Node000009"><a xlink:title=" ">
<polygon fill="#e0e0e0" stroke="#999999" points="236,-74.5 193,-74.5 193,-55.25 236,-55.25 236,-74.5"/>
<text xml:space="preserve" text-anchor="middle" x="214.5" y="-61" font-family="Helvetica,sans-Serif" font-size="10.00">vector</text>
</a>
</g>
</g>
<!-- Node7&#45;&gt;Node9 -->
<g id="edge11_Node000007_Node000009" class="edge">
<title>Node7&#45;&gt;Node9</title>
<g id="a_edge11_Node000007_Node000009"><a xlink:title=" ">
<path fill="none" stroke="#63b8ff" d="M201.44,-165.36C217.64,-158.39 236.91,-146.97 246.5,-129.75 255.23,-114.08 243.88,-95.73 232.35,-82.73"/>
<polygon fill="#63b8ff" stroke="#63b8ff" points="235.11,-80.54 225.64,-75.77 230.07,-85.4 235.11,-80.54"/>
</a>
</g>
</g>
<!-- Node8&#45;&gt;Node3 -->
<g id="edge9_Node000008_Node000003" class="edge">
<title>Node8&#45;&gt;Node3</title>
<g id="a_edge9_Node000008_Node000003"><a xlink:title=" ">
<path fill="none" stroke="#63b8ff" d="M190.95,-110.09C180.04,-102.24 164,-90.7 151.04,-81.37"/>
<polygon fill="#63b8ff" stroke="#63b8ff" points="153.26,-78.66 143.1,-75.66 149.17,-84.34 153.26,-78.66"/>
</a>
</g>
</g>
<!-- Node8&#45;&gt;Node9 -->
<g id="edge10_Node000008_Node000009" class="edge">
<title>Node8&#45;&gt;Node9</title>
<g id="a_edge10_Node000008_Node000009"><a xlink:title=" ">
<path fill="none" stroke="#63b8ff" d="M205.32,-110.33C206.68,-103.74 208.6,-94.46 210.33,-86.07"/>
<polygon fill="#63b8ff" stroke="#63b8ff" points="213.74,-86.84 212.34,-76.34 206.89,-85.43 213.74,-86.84"/>
</a>
</g>
</g>
<!-- Node12&#45;&gt;Node3 -->
<g id="edge16_Node000012_Node000003" class="edge">
<title>Node12&#45;&gt;Node3</title>
<g id="a_edge16_Node000012_Node000003"><a xlink:title=" ">
<path fill="none" stroke="#63b8ff" d="M77.78,-220.54C82.91,-200.46 96.03,-150.88 110.5,-110.5 113.48,-102.18 117.21,-93.19 120.57,-85.47"/>
<polygon fill="#63b8ff" stroke="#63b8ff" points="123.76,-86.92 124.64,-76.36 117.36,-84.07 123.76,-86.92"/>
</a>
</g>
</g>
<!-- Node12&#45;&gt;Node7 -->
<g id="edge17_Node000012_Node000007" class="edge">
<title>Node12&#45;&gt;Node7</title>
<g id="a_edge17_Node000012_Node000007"><a xlink:title=" ">
<path fill="none" stroke="#63b8ff" d="M92.29,-220.59C107.51,-212.41 130.2,-200.21 147.88,-190.69"/>
<polygon fill="#63b8ff" stroke="#63b8ff" points="149.14,-193.99 156.29,-186.17 145.83,-187.82 149.14,-193.99"/>
</a>
</g>
</g>
<!-- Node13 -->
<g id="Node000013" class="node">
<title>Node13</title>
<g id="a_Node000013"><a xlink:title=" ">
<polygon fill="#e0e0e0" stroke="#999999" points="37,-185 0,-185 0,-165.75 37,-165.75 37,-185"/>
<text xml:space="preserve" text-anchor="middle" x="18.5" y="-171.5" font-family="Helvetica,sans-Serif" font-size="10.00">FS.h</text>
</a>
</g>
</g>
<!-- Node12&#45;&gt;Node13 -->
<g id="edge15_Node000012_Node000013" class="edge">
<title>Node12&#45;&gt;Node13</title>
<g id="a_edge15_Node000012_Node000013"><a xlink:title=" ">
<path fill="none" stroke="#63b8ff" d="M65.83,-220.59C57.76,-213.05 46.03,-202.1 36.28,-192.98"/>
<polygon fill="#63b8ff" stroke="#63b8ff" points="38.83,-190.58 29.13,-186.31 34.05,-195.69 38.83,-190.58"/>
</a>
</g>
</g>
</g>
</svg>
