<?xml version="1.0" encoding="UTF-8" standalone="no"?>
<!DOCTYPE svg PUBLIC "-//W3C//DTD SVG 1.1//EN"
 "http://www.w3.org/Graphics/SVG/1.1/DTD/svg11.dtd">
<!-- Generated by graphviz version 15.1.0 (20260618.0150)
 -->
<!-- Title: src/CSysStatusLed.cpp Pages: 1 -->
<svg width="1155pt" height="469pt"
 viewBox="0.00 0.00 1155.00 469.00" xmlns="http://www.w3.org/2000/svg" xmlns:xlink="http://www.w3.org/1999/xlink">
<g id="graph0" class="graph" transform="scale(1 1) rotate(0) translate(4 465.25)">
<title>src/CSysStatusLed.cpp</title>
<!-- Node1 -->
<g id="Node000001" class="node">
<title>Node1</title>
<g id="a_Node000001"><a xlink:title=" ">
<polygon fill="#999999" stroke="#666666" points="762.12,-461.25 641.88,-461.25 641.88,-442 762.12,-442 762.12,-461.25"/>
<text xml:space="preserve" text-anchor="middle" x="702" y="-447.75" font-family="Helvetica,sans-Serif" font-size="10.00">src/CSysStatusLed.cpp</text>
</a>
</g>
</g>
<!-- Node2 -->
<g id="Node000002" class="node">
<title>Node2</title>
<g id="a_Node000002"><a xlink:href="_sys_status_led_8h.html" target="_top" xlink:title=" ">
<polygon fill="white" stroke="#666666" points="917.88,-295.5 832.12,-295.5 832.12,-276.25 917.88,-276.25 917.88,-295.5"/>
<text xml:space="preserve" text-anchor="middle" x="875" y="-282" font-family="Helvetica,sans-Serif" font-size="10.00">SysStatusLed.h</text>
</a>
</g>
</g>
<!-- Node1&#45;&gt;Node2 -->
<g id="edge1_Node000001_Node000002" class="edge">
<title>Node1&#45;&gt;Node2</title>
<g id="a_edge1_Node000001_Node000002"><a xlink:title=" ">
<path fill="none" stroke="#63b8ff" d="M711.55,-441.59C739.5,-415.13 821.44,-337.57 857.56,-303.38"/>
<polygon fill="#63b8ff" stroke="#63b8ff" points="859.74,-306.14 864.59,-296.72 854.93,-301.06 859.74,-306.14"/>
</a>
</g>
</g>
<!-- Node17 -->
<g id="Node000017" class="node">
<title>Node17</title>
<g id="a_Node000017"><a xlink:href="_development_helper_8h.html" target="_top" xlink:title=" ">
<polygon fill="white" stroke="#666666" points="828.88,-129.75 719.12,-129.75 719.12,-110.5 828.88,-110.5 828.88,-129.75"/>
<text xml:space="preserve" text-anchor="middle" x="774" y="-116.25" font-family="Helvetica,sans-Serif" font-size="10.00">DevelopmentHelper.h</text>
</a>
</g>
</g>
<!-- Node1&#45;&gt;Node17 -->
<g id="edge57_Node000001_Node000017" class="edge">
<title>Node1&#45;&gt;Node17</title>
<g id="a_edge57_Node000001_Node000017"><a xlink:title=" ">
<path fill="none" stroke="#63b8ff" d="M729.36,-441.58C779.64,-423.28 885.4,-376.55 927,-295.5 962.43,-226.47 857.88,-162.58 803.97,-135.19"/>
<polygon fill="#63b8ff" stroke="#63b8ff" points="805.79,-132.19 795.28,-130.88 802.69,-138.46 805.79,-132.19"/>
</a>
</g>
</g>
<!-- Node18 -->
<g id="Node000018" class="node">
<title>Node18</title>
<g id="a_Node000018"><a xlink:href="_msgs_8h.html" target="_top" xlink:title=" ">
<polygon fill="white" stroke="#666666" points="577.12,-240.25 528.88,-240.25 528.88,-221 577.12,-221 577.12,-240.25"/>
<text xml:space="preserve" text-anchor="middle" x="553" y="-226.75" font-family="Helvetica,sans-Serif" font-size="10.00">Msgs.h</text>
</a>
</g>
</g>
<!-- Node1&#45;&gt;Node18 -->
<g id="edge23_Node000001_Node000018" class="edge">
<title>Node1&#45;&gt;Node18</title>
<g id="a_edge23_Node000001_Node000018"><a xlink:title=" ">
<path fill="none" stroke="#63b8ff" d="M695.97,-441.77C673.7,-409.02 595.7,-294.39 565.28,-249.68"/>
<polygon fill="#63b8ff" stroke="#63b8ff" points="568.31,-247.9 559.79,-241.6 562.52,-251.84 568.31,-247.9"/>
</a>
</g>
</g>
<!-- Node19 -->
<g id="Node000019" class="node">
<title>Node19</title>
<g id="a_Node000019"><a xlink:href="_wi_fi_controller_8h.html" target="_top" xlink:title="WiFi Controller to handle Access Point and Station Mode.">
<polygon fill="white" stroke="#666666" points="506.88,-406 421.12,-406 421.12,-386.75 506.88,-386.75 506.88,-406"/>
<text xml:space="preserve" text-anchor="middle" x="464" y="-392.5" font-family="Helvetica,sans-Serif" font-size="10.00">WiFiController.h</text>
</a>
</g>
</g>
<!-- Node1&#45;&gt;Node19 -->
<g id="edge24_Node000001_Node000019" class="edge">
<title>Node1&#45;&gt;Node19</title>
<g id="a_edge24_Node000001_Node000019"><a xlink:title=" ">
<path fill="none" stroke="#63b8ff" d="M661.36,-441.53C621.05,-432.51 559.16,-418.67 515.45,-408.89"/>
<polygon fill="#63b8ff" stroke="#63b8ff" points="516.48,-405.53 505.95,-406.76 514.95,-412.36 516.48,-405.53"/>
</a>
</g>
</g>
<!-- Node3 -->
<g id="Node000003" class="node">
<title>Node3</title>
<g id="a_Node000003"><a xlink:href="_r_g_b_led_8h.html" target="_top" xlink:title=" ">
<polygon fill="white" stroke="#666666" points="1022.88,-240.25 961.12,-240.25 961.12,-221 1022.88,-221 1022.88,-240.25"/>
<text xml:space="preserve" text-anchor="middle" x="992" y="-226.75" font-family="Helvetica,sans-Serif" font-size="10.00">RGBLed.h</text>
</a>
</g>
</g>
<!-- Node2&#45;&gt;Node3 -->
<g id="edge2_Node000002_Node000003" class="edge">
<title>Node2&#45;&gt;Node3</title>
<g id="a_edge2_Node000002_Node000003"><a xlink:title=" ">
<path fill="none" stroke="#63b8ff" d="M894.85,-275.84C913.17,-267.5 940.65,-255 961.71,-245.41"/>
<polygon fill="#63b8ff" stroke="#63b8ff" points="963.03,-248.66 970.68,-241.33 960.13,-242.29 963.03,-248.66"/>
</a>
</g>
</g>
<!-- Node11 -->
<g id="Node000011" class="node">
<title>Node11</title>
<g id="a_Node000011"><a xlink:href="_event_handler_8h.html" target="_top" xlink:title=" ">
<polygon fill="white" stroke="#666666" points="678.38,-240.25 595.62,-240.25 595.62,-221 678.38,-221 678.38,-240.25"/>
<text xml:space="preserve" text-anchor="middle" x="637" y="-226.75" font-family="Helvetica,sans-Serif" font-size="10.00">EventHandler.h</text>
</a>
</g>
</g>
<!-- Node2&#45;&gt;Node11 -->
<g id="edge12_Node000002_Node000011" class="edge">
<title>Node2&#45;&gt;Node11</title>
<g id="a_edge12_Node000002_Node000011"><a xlink:title=" ">
<path fill="none" stroke="#63b8ff" d="M834.36,-275.78C794.05,-266.76 732.16,-252.92 688.45,-243.14"/>
<polygon fill="#63b8ff" stroke="#63b8ff" points="689.48,-239.78 678.95,-241.01 687.95,-246.61 689.48,-239.78"/>
</a>
</g>
</g>
<!-- Node4 -->
<g id="Node000004" class="node">
<title>Node4</title>
<g id="a_Node000004"><a xlink:href="_runtime_8h.html" target="_top" xlink:title=" ">
<polygon fill="white" stroke="#666666" points="553.5,-74.5 492.5,-74.5 492.5,-55.25 553.5,-55.25 553.5,-74.5"/>
<text xml:space="preserve" text-anchor="middle" x="523" y="-61" font-family="Helvetica,sans-Serif" font-size="10.00">Runtime.h</text>
</a>
</g>
</g>
<!-- Node3&#45;&gt;Node4 -->
<g id="edge3_Node000003_Node000004" class="edge">
<title>Node3&#45;&gt;Node4</title>
<g id="a_edge3_Node000003_Node000004"><a xlink:title=" ">
<path fill="none" stroke="#63b8ff" d="M991.63,-220.62C990.15,-197.92 982.88,-138.19 947,-110.5 917.16,-87.47 666.39,-72.84 565.14,-67.82"/>
<polygon fill="#63b8ff" stroke="#63b8ff" points="565.51,-64.33 555.36,-67.34 565.17,-71.32 565.51,-64.33"/>
</a>
</g>
</g>
<!-- Node8 -->
<g id="Node000008" class="node">
<title>Node8</title>
<g id="a_Node000008"><a xlink:href="_light_switch_8h.html" target="_top" xlink:title=" ">
<polygon fill="white" stroke="#666666" points="1074.62,-185 999.38,-185 999.38,-165.75 1074.62,-165.75 1074.62,-185"/>
<text xml:space="preserve" text-anchor="middle" x="1037" y="-171.5" font-family="Helvetica,sans-Serif" font-size="10.00">LightSwitch.h</text>
</a>
</g>
</g>
<!-- Node3&#45;&gt;Node8 -->
<g id="edge7_Node000003_Node000008" class="edge">
<title>Node3&#45;&gt;Node8</title>
<g id="a_edge7_Node000003_Node000008"><a xlink:title=" ">
<path fill="none" stroke="#63b8ff" d="M999.43,-220.83C1005.58,-213.55 1014.51,-202.98 1022.13,-193.98"/>
<polygon fill="#63b8ff" stroke="#63b8ff" points="1024.65,-196.41 1028.43,-186.52 1019.3,-191.89 1024.65,-196.41"/>
</a>
</g>
</g>
<!-- Node5 -->
<g id="Node000005" class="node">
<title>Node5</title>
<g id="a_Node000005"><a xlink:title=" ">
<polygon fill="#e0e0e0" stroke="#999999" points="482.12,-19.25 433.88,-19.25 433.88,0 482.12,0 482.12,-19.25"/>
<text xml:space="preserve" text-anchor="middle" x="458" y="-5.75" font-family="Helvetica,sans-Serif" font-size="10.00">string.h</text>
</a>
</g>
</g>
<!-- Node4&#45;&gt;Node5 -->
<g id="edge4_Node000004_Node000005" class="edge">
<title>Node4&#45;&gt;Node5</title>
<g id="a_edge4_Node000004_Node000005"><a xlink:title=" ">
<path fill="none" stroke="#63b8ff" d="M511.97,-54.84C502.58,-47.15 488.85,-35.9 477.59,-26.68"/>
<polygon fill="#63b8ff" stroke="#63b8ff" points="479.99,-24.11 470.03,-20.48 475.55,-29.53 479.99,-24.11"/>
</a>
</g>
</g>
<!-- Node6 -->
<g id="Node000006" class="node">
<title>Node6</title>
<g id="a_Node000006"><a xlink:title=" ">
<polygon fill="#e0e0e0" stroke="#999999" points="545.62,-19.25 500.38,-19.25 500.38,0 545.62,0 545.62,-19.25"/>
<text xml:space="preserve" text-anchor="middle" x="523" y="-5.75" font-family="Helvetica,sans-Serif" font-size="10.00">chrono</text>
</a>
</g>
</g>
<!-- Node4&#45;&gt;Node6 -->
<g id="edge5_Node000004_Node000006" class="edge">
<title>Node4&#45;&gt;Node6</title>
<g id="a_edge5_Node000004_Node000006"><a xlink:title=" ">
<path fill="none" stroke="#63b8ff" d="M523,-55.08C523,-48.57 523,-39.42 523,-31.12"/>
<polygon fill="#63b8ff" stroke="#63b8ff" points="526.5,-31.12 523,-21.12 519.5,-31.12 526.5,-31.12"/>
</a>
</g>
</g>
<!-- Node7 -->
<g id="Node000007" class="node">
<title>Node7</title>
<g id="a_Node000007"><a xlink:title=" ">
<polygon fill="#e0e0e0" stroke="#999999" points="616.75,-19.25 563.25,-19.25 563.25,0 616.75,0 616.75,-19.25"/>
<text xml:space="preserve" text-anchor="middle" x="590" y="-5.75" font-family="Helvetica,sans-Serif" font-size="10.00">iostream</text>
</a>
</g>
</g>
<!-- Node4&#45;&gt;Node7 -->
<g id="edge6_Node000004_Node000007" class="edge">
<title>Node4&#45;&gt;Node7</title>
<g id="a_edge6_Node000004_Node000007"><a xlink:title=" ">
<path fill="none" stroke="#63b8ff" d="M534.37,-54.84C544.05,-47.15 558.2,-35.9 569.81,-26.68"/>
<polygon fill="#63b8ff" stroke="#63b8ff" points="571.97,-29.43 577.62,-20.47 567.61,-23.95 571.97,-29.43"/>
</a>
</g>
</g>
<!-- Node8&#45;&gt;Node4 -->
<g id="edge8_Node000008_Node000004" class="edge">
<title>Node8&#45;&gt;Node4</title>
<g id="a_edge8_Node000008_Node000004"><a xlink:title=" ">
<path fill="none" stroke="#63b8ff" d="M1032.72,-165.48C1025.27,-151.09 1008.44,-123.06 985,-110.5 912.99,-71.92 665.24,-66.46 565.29,-65.86"/>
<polygon fill="#63b8ff" stroke="#63b8ff" points="565.39,-62.36 555.37,-65.81 565.36,-69.36 565.39,-62.36"/>
</a>
</g>
</g>
<!-- Node9 -->
<g id="Node000009" class="node">
<title>Node9</title>
<g id="a_Node000009"><a xlink:href="_output_pin_controller_8h.html" target="_top" xlink:title=" ">
<polygon fill="white" stroke="#666666" points="1146.5,-129.75 1037.5,-129.75 1037.5,-110.5 1146.5,-110.5 1146.5,-129.75"/>
<text xml:space="preserve" text-anchor="middle" x="1092" y="-116.25" font-family="Helvetica,sans-Serif" font-size="10.00">OutputPinController.h</text>
</a>
</g>
</g>
<!-- Node8&#45;&gt;Node9 -->
<g id="edge9_Node000008_Node000009" class="edge">
<title>Node8&#45;&gt;Node9</title>
<g id="a_edge9_Node000008_Node000009"><a xlink:title=" ">
<path fill="none" stroke="#63b8ff" d="M1046.08,-165.58C1053.84,-158.07 1065.21,-147.06 1074.7,-137.88"/>
<polygon fill="#63b8ff" stroke="#63b8ff" points="1076.88,-140.63 1081.63,-131.16 1072.01,-135.6 1076.88,-140.63"/>
</a>
</g>
</g>
<!-- Node9&#45;&gt;Node4 -->
<g id="edge10_Node000009_Node000004" class="edge">
<title>Node9&#45;&gt;Node4</title>
<g id="a_edge10_Node000009_Node000004"><a xlink:title=" ">
<path fill="none" stroke="#63b8ff" d="M1037.03,-112.08C1032.29,-111.52 1027.56,-110.99 1023,-110.5 853.54,-92.35 651.22,-75.89 565.12,-69.13"/>
<polygon fill="#63b8ff" stroke="#63b8ff" points="565.51,-65.65 555.27,-68.36 564.97,-72.63 565.51,-65.65"/>
</a>
</g>
</g>
<!-- Node10 -->
<g id="Node000010" class="node">
<title>Node10</title>
<g id="a_Node000010"><a xlink:href="_pin_controller_8h.html" target="_top" xlink:title=" ">
<polygon fill="white" stroke="#666666" points="1131.88,-74.5 1052.12,-74.5 1052.12,-55.25 1131.88,-55.25 1131.88,-74.5"/>
<text xml:space="preserve" text-anchor="middle" x="1092" y="-61" font-family="Helvetica,sans-Serif" font-size="10.00">PinController.h</text>
</a>
</g>
</g>
<!-- Node9&#45;&gt;Node10 -->
<g id="edge11_Node000009_Node000010" class="edge">
<title>Node9&#45;&gt;Node10</title>
<g id="a_edge11_Node000009_Node000010"><a xlink:title=" ">
<path fill="none" stroke="#63b8ff" d="M1092,-110.33C1092,-103.82 1092,-94.67 1092,-86.37"/>
<polygon fill="#63b8ff" stroke="#63b8ff" points="1095.5,-86.37 1092,-76.37 1088.5,-86.37 1095.5,-86.37"/>
</a>
</g>
</g>
<!-- Node11&#45;&gt;Node4 -->
<g id="edge13_Node000011_Node000004" class="edge">
<title>Node11&#45;&gt;Node4</title>
<g id="a_edge13_Node000011_Node000004"><a xlink:title=" ">
<path fill="none" stroke="#63b8ff" d="M598.57,-220.52C578.98,-213.9 556.5,-202.87 543,-185 521.05,-155.94 519.68,-111.49 521.06,-85.9"/>
<polygon fill="#63b8ff" stroke="#63b8ff" points="524.53,-86.46 521.8,-76.22 517.55,-85.92 524.53,-86.46"/>
</a>
</g>
</g>
<!-- Node12 -->
<g id="Node000012" class="node">
<title>Node12</title>
<g id="a_Node000012"><a xlink:title=" ">
<polygon fill="#e0e0e0" stroke="#999999" points="769,-185 711,-185 711,-165.75 769,-165.75 769,-185"/>
<text xml:space="preserve" text-anchor="middle" x="740" y="-171.5" font-family="Helvetica,sans-Serif" font-size="10.00">functional</text>
</a>
</g>
</g>
<!-- Node11&#45;&gt;Node12 -->
<g id="edge14_Node000011_Node000012" class="edge">
<title>Node11&#45;&gt;Node12</title>
<g id="a_edge14_Node000011_Node000012"><a xlink:title=" ">
<path fill="none" stroke="#63b8ff" d="M654.47,-220.59C670.31,-212.41 693.91,-200.21 712.31,-190.69"/>
<polygon fill="#63b8ff" stroke="#63b8ff" points="713.82,-193.85 721.1,-186.15 710.61,-187.63 713.82,-193.85"/>
</a>
</g>
</g>
<!-- Node13 -->
<g id="Node000013" class="node">
<title>Node13</title>
<g id="a_Node000013"><a xlink:title=" ">
<polygon fill="#e0e0e0" stroke="#999999" points="455.5,-129.75 412.5,-129.75 412.5,-110.5 455.5,-110.5 455.5,-129.75"/>
<text xml:space="preserve" text-anchor="middle" x="434" y="-116.25" font-family="Helvetica,sans-Serif" font-size="10.00">vector</text>
</a>
</g>
</g>
<!-- Node11&#45;&gt;Node13 -->
<g id="edge15_Node000011_Node000013" class="edge">
<title>Node11&#45;&gt;Node13</title>
<g id="a_edge15_Node000011_Node000013"><a xlink:title=" ">
<path fill="none" stroke="#63b8ff" d="M599.58,-220.53C573.19,-213.19 537.59,-201.38 509,-185 486.64,-172.18 464.61,-152.32 450.27,-138.14"/>
<polygon fill="#63b8ff" stroke="#63b8ff" points="452.98,-135.91 443.47,-131.25 448,-140.83 452.98,-135.91"/>
</a>
</g>
</g>
<!-- Node14 -->
<g id="Node000014" class="node">
<title>Node14</title>
<g id="a_Node000014"><a xlink:title=" ">
<polygon fill="#e0e0e0" stroke="#999999" points="829.12,-185 786.88,-185 786.88,-165.75 829.12,-165.75 829.12,-185"/>
<text xml:space="preserve" text-anchor="middle" x="808" y="-171.5" font-family="Helvetica,sans-Serif" font-size="10.00">queue</text>
</a>
</g>
</g>
<!-- Node11&#45;&gt;Node14 -->
<g id="edge16_Node000011_Node000014" class="edge">
<title>Node11&#45;&gt;Node14</title>
<g id="a_edge16_Node000011_Node000014"><a xlink:title=" ">
<path fill="none" stroke="#63b8ff" d="M666.01,-220.59C696.39,-211.13 744,-196.31 775.59,-186.47"/>
<polygon fill="#63b8ff" stroke="#63b8ff" points="776.5,-189.85 785,-183.54 774.41,-183.17 776.5,-189.85"/>
</a>
</g>
</g>
<!-- Node15 -->
<g id="Node000015" class="node">
<title>Node15</title>
<g id="a_Node000015"><a xlink:href="_named_value_table_8h.html" target="_top" xlink:title=" ">
<polygon fill="white" stroke="#666666" points="654.5,-185 551.5,-185 551.5,-165.75 654.5,-165.75 654.5,-185"/>
<text xml:space="preserve" text-anchor="middle" x="603" y="-171.5" font-family="Helvetica,sans-Serif" font-size="10.00">NamedValueTable.h</text>
</a>
</g>
</g>
<!-- Node11&#45;&gt;Node15 -->
<g id="edge17_Node000011_Node000015" class="edge">
<title>Node11&#45;&gt;Node15</title>
<g id="a_edge17_Node000011_Node000015"><a xlink:title=" ">
<path fill="none" stroke="#63b8ff" d="M631.39,-220.83C626.88,-213.78 620.41,-203.65 614.79,-194.83"/>
<polygon fill="#63b8ff" stroke="#63b8ff" points="617.88,-193.18 609.55,-186.63 611.98,-196.95 617.88,-193.18"/>
</a>
</g>
</g>
<!-- Node11&#45;&gt;Node17 -->
<g id="edge22_Node000011_Node000017" class="edge">
<title>Node11&#45;&gt;Node17</title>
<g id="a_edge22_Node000011_Node000017"><a xlink:title=" ">
<path fill="none" stroke="#63b8ff" d="M644.86,-220.73C656.57,-207.77 679.6,-183.34 702,-165.75 716.1,-154.68 733.1,-144.03 747.04,-135.91"/>
<polygon fill="#63b8ff" stroke="#63b8ff" points="748.74,-138.98 755.69,-130.98 745.27,-132.89 748.74,-138.98"/>
</a>
</g>
</g>
<!-- Node15&#45;&gt;Node13 -->
<g id="edge18_Node000015_Node000013" class="edge">
<title>Node15&#45;&gt;Node13</title>
<g id="a_edge18_Node000015_Node000013"><a xlink:title=" ">
<path fill="none" stroke="#63b8ff" d="M574.33,-165.34C544.47,-155.93 497.78,-141.22 466.55,-131.38"/>
<polygon fill="#63b8ff" stroke="#63b8ff" points="467.84,-128.12 457.25,-128.45 465.74,-134.79 467.84,-128.12"/>
</a>
</g>
</g>
<!-- Node16 -->
<g id="Node000016" class="node">
<title>Node16</title>
<g id="a_Node000016"><a xlink:href="_l_s_c_utils_8h.html" target="_top" xlink:title=" ">
<polygon fill="white" stroke="#666666" points="625,-129.75 561,-129.75 561,-110.5 625,-110.5 625,-129.75"/>
<text xml:space="preserve" text-anchor="middle" x="593" y="-116.25" font-family="Helvetica,sans-Serif" font-size="10.00">LSCUtils.h</text>
</a>
</g>
</g>
<!-- Node15&#45;&gt;Node16 -->
<g id="edge19_Node000015_Node000016" class="edge">
<title>Node15&#45;&gt;Node16</title>
<g id="a_edge19_Node000015_Node000016"><a xlink:title=" ">
<path fill="none" stroke="#63b8ff" d="M601.35,-165.58C600.11,-158.99 598.37,-149.71 596.79,-141.32"/>
<polygon fill="#63b8ff" stroke="#63b8ff" points="600.25,-140.78 594.97,-131.6 593.37,-142.07 600.25,-140.78"/>
</a>
</g>
</g>
<!-- Node15&#45;&gt;Node17 -->
<g id="edge21_Node000015_Node000017" class="edge">
<title>Node15&#45;&gt;Node17</title>
<g id="a_edge21_Node000015_Node000017"><a xlink:title=" ">
<path fill="none" stroke="#63b8ff" d="M632.01,-165.34C660.01,-156.62 702.66,-143.34 733.9,-133.61"/>
<polygon fill="#63b8ff" stroke="#63b8ff" points="734.9,-136.97 743.4,-130.65 732.82,-130.28 734.9,-136.97"/>
</a>
</g>
</g>
<!-- Node16&#45;&gt;Node4 -->
<g id="edge20_Node000016_Node000004" class="edge">
<title>Node16&#45;&gt;Node4</title>
<g id="a_edge20_Node000016_Node000004"><a xlink:title=" ">
<path fill="none" stroke="#63b8ff" d="M581.13,-110.09C570.91,-102.32 555.93,-90.92 543.74,-81.65"/>
<polygon fill="#63b8ff" stroke="#63b8ff" points="545.98,-78.96 535.9,-75.69 541.74,-84.53 545.98,-78.96"/>
</a>
</g>
</g>
<!-- Node20 -->
<g id="Node000020" class="node">
<title>Node20</title>
<g id="a_Node000020"><a xlink:href="_appl_8h.html" target="_top" xlink:title="Application Main Class.">
<polygon fill="white" stroke="#666666" points="452.88,-350.75 409.12,-350.75 409.12,-331.5 452.88,-331.5 452.88,-350.75"/>
<text xml:space="preserve" text-anchor="middle" x="431" y="-337.25" font-family="Helvetica,sans-Serif" font-size="10.00">Appl.h</text>
</a>
</g>
</g>
<!-- Node19&#45;&gt;Node20 -->
<g id="edge25_Node000019_Node000020" class="edge">
<title>Node19&#45;&gt;Node20</title>
<g id="a_edge25_Node000019_Node000020"><a xlink:title=" ">
<path fill="none" stroke="#63b8ff" d="M458.55,-386.58C454.23,-379.61 448.04,-369.62 442.62,-360.87"/>
<polygon fill="#63b8ff" stroke="#63b8ff" points="445.61,-359.05 437.36,-352.4 439.66,-362.74 445.61,-359.05"/>
</a>
</g>
</g>
<!-- Node23 -->
<g id="Node000023" class="node">
<title>Node23</title>
<g id="a_Node000023"><a xlink:href="_json_node_8h.html" target="_top" xlink:title=" ">
<polygon fill="white" stroke="#666666" points="343.25,-185 274.75,-185 274.75,-165.75 343.25,-165.75 343.25,-185"/>
<text xml:space="preserve" text-anchor="middle" x="309" y="-171.5" font-family="Helvetica,sans-Serif" font-size="10.00">JsonNode.h</text>
</a>
</g>
</g>
<!-- Node19&#45;&gt;Node23 -->
<g id="edge56_Node000019_Node000023" class="edge">
<title>Node19&#45;&gt;Node23</title>
<g id="a_edge56_Node000019_Node000023"><a xlink:title=" ">
<path fill="none" stroke="#63b8ff" d="M447.34,-386.36C433.53,-378.3 413.95,-365.52 400,-350.75 360.41,-308.82 357.01,-292.21 332,-240.25 325.1,-225.92 319.09,-208.96 314.94,-196.12"/>
<polygon fill="#63b8ff" stroke="#63b8ff" points="318.33,-195.24 312.02,-186.73 311.65,-197.32 318.33,-195.24"/>
</a>
</g>
</g>
<!-- Node31 -->
<g id="Node000031" class="node">
<title>Node31</title>
<g id="a_Node000031"><a xlink:href="_network_8h.html" target="_top" xlink:title=" ">
<polygon fill="white" stroke="#666666" points="545.5,-350.75 484.5,-350.75 484.5,-331.5 545.5,-331.5 545.5,-350.75"/>
<text xml:space="preserve" text-anchor="middle" x="515" y="-337.25" font-family="Helvetica,sans-Serif" font-size="10.00">Network.h</text>
</a>
</g>
</g>
<!-- Node19&#45;&gt;Node31 -->
<g id="edge54_Node000019_Node000031" class="edge">
<title>Node19&#45;&gt;Node31</title>
<g id="a_edge54_Node000019_Node000031"><a xlink:title=" ">
<path fill="none" stroke="#63b8ff" d="M472.42,-386.58C479.54,-379.15 489.94,-368.29 498.69,-359.16"/>
<polygon fill="#63b8ff" stroke="#63b8ff" points="500.96,-361.85 505.35,-352.2 495.9,-357 500.96,-361.85"/>
</a>
</g>
</g>
<!-- Node20&#45;&gt;Node4 -->
<g id="edge26_Node000020_Node000004" class="edge">
<title>Node20&#45;&gt;Node4</title>
<g id="a_edge26_Node000020_Node000004"><a xlink:title=" ">
<path fill="none" stroke="#63b8ff" d="M408.74,-339.36C320.48,-335.76 0,-316.79 0,-231.62 0,-231.62 0,-231.62 0,-174.38 0,-76.34 356.74,-66.23 480.96,-65.68"/>
<polygon fill="#63b8ff" stroke="#63b8ff" points="480.73,-69.18 490.72,-65.66 480.71,-62.18 480.73,-69.18"/>
</a>
</g>
</g>
<!-- Node20&#45;&gt;Node17 -->
<g id="edge53_Node000020_Node000017" class="edge">
<title>Node20&#45;&gt;Node17</title>
<g id="a_edge53_Node000020_Node000017"><a xlink:title=" ">
<path fill="none" stroke="#63b8ff" d="M452.96,-335.87C460.29,-334.46 468.49,-332.9 476,-331.5 564.36,-315.04 591.73,-329.33 675,-295.5 756.08,-262.55 797.11,-262.38 838,-185 848.65,-164.84 826.62,-147 805.56,-135.33"/>
<polygon fill="#63b8ff" stroke="#63b8ff" points="807.28,-132.28 796.79,-130.81 804.07,-138.5 807.28,-132.28"/>
</a>
</g>
</g>
<!-- Node21 -->
<g id="Node000021" class="node">
<title>Node21</title>
<g id="a_Node000021"><a xlink:href="_sys_status_8h.html" target="_top" xlink:title=" ">
<polygon fill="white" stroke="#666666" points="186,-295.5 116,-295.5 116,-276.25 186,-276.25 186,-295.5"/>
<text xml:space="preserve" text-anchor="middle" x="151" y="-282" font-family="Helvetica,sans-Serif" font-size="10.00">SysStatus.h</text>
</a>
</g>
</g>
<!-- Node20&#45;&gt;Node21 -->
<g id="edge27_Node000020_Node000021" class="edge">
<title>Node20&#45;&gt;Node21</title>
<g id="a_edge27_Node000020_Node000021"><a xlink:title=" ">
<path fill="none" stroke="#63b8ff" d="M409.03,-335.95C363.61,-327.31 258.53,-307.33 197.4,-295.7"/>
<polygon fill="#63b8ff" stroke="#63b8ff" points="198.12,-292.27 187.64,-293.84 196.81,-299.15 198.12,-292.27"/>
</a>
</g>
</g>
<!-- Node20&#45;&gt;Node23 -->
<g id="edge37_Node000020_Node000023" class="edge">
<title>Node20&#45;&gt;Node23</title>
<g id="a_edge37_Node000020_Node000023"><a xlink:title=" ">
<path fill="none" stroke="#63b8ff" d="M420.98,-331.06C411.67,-322.39 397.66,-308.71 387,-295.5 360.07,-262.14 333.83,-219.3 319.7,-195.14"/>
<polygon fill="#63b8ff" stroke="#63b8ff" points="322.9,-193.68 314.86,-186.77 316.84,-197.18 322.9,-193.68"/>
</a>
</g>
</g>
<!-- Node26 -->
<g id="Node000026" class="node">
<title>Node26</title>
<g id="a_Node000026"><a xlink:href="_module_interface_8h.html" target="_top" xlink:title="Full Interface for a module and an abstract basic module implementation.">
<polygon fill="white" stroke="#666666" points="552,-295.5 458,-295.5 458,-276.25 552,-276.25 552,-295.5"/>
<text xml:space="preserve" text-anchor="middle" x="505" y="-282" font-family="Helvetica,sans-Serif" font-size="10.00">ModuleInterface.h</text>
</a>
</g>
</g>
<!-- Node20&#45;&gt;Node26 -->
<g id="edge38_Node000020_Node000026" class="edge">
<title>Node20&#45;&gt;Node26</title>
<g id="a_edge38_Node000020_Node000026"><a xlink:title=" ">
<path fill="none" stroke="#63b8ff" d="M443.55,-331.09C454.46,-323.24 470.5,-311.7 483.46,-302.37"/>
<polygon fill="#63b8ff" stroke="#63b8ff" points="485.33,-305.34 491.4,-296.66 481.24,-299.66 485.33,-305.34"/>
</a>
</g>
</g>
<!-- Node28 -->
<g id="Node000028" class="node">
<title>Node28</title>
<g id="a_Node000028"><a xlink:href="_logging_8h.html" target="_top" xlink:title=" ">
<polygon fill="white" stroke="#666666" points="666,-295.5 608,-295.5 608,-276.25 666,-276.25 666,-295.5"/>
<text xml:space="preserve" text-anchor="middle" x="637" y="-282" font-family="Helvetica,sans-Serif" font-size="10.00">Logging.h</text>
</a>
</g>
</g>
<!-- Node20&#45;&gt;Node28 -->
<g id="edge46_Node000020_Node000028" class="edge">
<title>Node20&#45;&gt;Node28</title>
<g id="a_edge46_Node000020_Node000028"><a xlink:title=" ">
<path fill="none" stroke="#63b8ff" d="M453.05,-334.43C487.25,-325.58 553.63,-308.42 596.6,-297.32"/>
<polygon fill="#63b8ff" stroke="#63b8ff" points="597.25,-300.77 606.05,-294.87 595.5,-293.99 597.25,-300.77"/>
</a>
</g>
</g>
<!-- Node30 -->
<g id="Node000030" class="node">
<title>Node30</title>
<g id="a_Node000030"><a xlink:href="_vars_8h.html" target="_top" xlink:title=" ">
<polygon fill="white" stroke="#666666" points="439.88,-295.5 396.12,-295.5 396.12,-276.25 439.88,-276.25 439.88,-295.5"/>
<text xml:space="preserve" text-anchor="middle" x="418" y="-282" font-family="Helvetica,sans-Serif" font-size="10.00">Vars.h</text>
</a>
</g>
</g>
<!-- Node20&#45;&gt;Node30 -->
<g id="edge50_Node000020_Node000030" class="edge">
<title>Node20&#45;&gt;Node30</title>
<g id="a_edge50_Node000020_Node000030"><a xlink:title=" ">
<path fill="none" stroke="#63b8ff" d="M428.85,-331.33C427.23,-324.67 424.92,-315.24 422.86,-306.78"/>
<polygon fill="#63b8ff" stroke="#63b8ff" points="426.32,-306.21 420.55,-297.33 419.52,-307.87 426.32,-306.21"/>
</a>
</g>
</g>
<!-- Node21&#45;&gt;Node4 -->
<g id="edge28_Node000021_Node000004" class="edge">
<title>Node21&#45;&gt;Node4</title>
<g id="a_edge28_Node000021_Node000004"><a xlink:title=" ">
<path fill="none" stroke="#63b8ff" d="M115.76,-276.43C82.49,-266.62 40.05,-248.21 57,-221 115.91,-126.44 176.24,-145.52 282,-110.5 349.73,-88.07 432.13,-75.88 480.92,-70.14"/>
<polygon fill="#63b8ff" stroke="#63b8ff" points="481.23,-73.62 490.77,-69.02 480.44,-66.67 481.23,-73.62"/>
</a>
</g>
</g>
<!-- Node22 -->
<g id="Node000022" class="node">
<title>Node22</title>
<g id="a_Node000022"><a xlink:href="_status_handler_8h.html" target="_top" xlink:title=" ">
<polygon fill="white" stroke="#666666" points="280.88,-240.25 195.12,-240.25 195.12,-221 280.88,-221 280.88,-240.25"/>
<text xml:space="preserve" text-anchor="middle" x="238" y="-226.75" font-family="Helvetica,sans-Serif" font-size="10.00">StatusHandler.h</text>
</a>
</g>
</g>
<!-- Node21&#45;&gt;Node22 -->
<g id="edge29_Node000021_Node000022" class="edge">
<title>Node21&#45;&gt;Node22</title>
<g id="a_edge29_Node000021_Node000022"><a xlink:title=" ">
<path fill="none" stroke="#63b8ff" d="M165.76,-275.84C178.88,-267.81 198.32,-255.91 213.73,-246.48"/>
<polygon fill="#63b8ff" stroke="#63b8ff" points="215.18,-249.7 221.88,-241.49 211.52,-243.73 215.18,-249.7"/>
</a>
</g>
</g>
<!-- Node24 -->
<g id="Node000024" class="node">
<title>Node24</title>
<g id="a_Node000024"><a xlink:title=" ">
<polygon fill="#e0e0e0" stroke="#999999" points="107.75,-240.25 66.25,-240.25 66.25,-221 107.75,-221 107.75,-240.25"/>
<text xml:space="preserve" text-anchor="middle" x="87" y="-226.75" font-family="Helvetica,sans-Serif" font-size="10.00">Esp.h</text>
</a>
</g>
</g>
<!-- Node21&#45;&gt;Node24 -->
<g id="edge35_Node000021_Node000024" class="edge">
<title>Node21&#45;&gt;Node24</title>
<g id="a_edge35_Node000021_Node000024"><a xlink:title=" ">
<path fill="none" stroke="#63b8ff" d="M140.14,-275.84C130.89,-268.15 117.38,-256.9 106.29,-247.68"/>
<polygon fill="#63b8ff" stroke="#63b8ff" points="108.79,-245.2 98.86,-241.49 104.31,-250.58 108.79,-245.2"/>
</a>
</g>
</g>
<!-- Node25 -->
<g id="Node000025" class="node">
<title>Node25</title>
<g id="a_Node000025"><a xlink:title=" ">
<polygon fill="#e0e0e0" stroke="#999999" points="176.62,-240.25 125.38,-240.25 125.38,-221 176.62,-221 176.62,-240.25"/>
<text xml:space="preserve" text-anchor="middle" x="151" y="-226.75" font-family="Helvetica,sans-Serif" font-size="10.00">memory</text>
</a>
</g>
</g>
<!-- Node21&#45;&gt;Node25 -->
<g id="edge36_Node000021_Node000025" class="edge">
<title>Node21&#45;&gt;Node25</title>
<g id="a_edge36_Node000021_Node000025"><a xlink:title=" ">
<path fill="none" stroke="#63b8ff" d="M151,-276.08C151,-269.57 151,-260.42 151,-252.12"/>
<polygon fill="#63b8ff" stroke="#63b8ff" points="154.5,-252.12 151,-242.12 147.5,-252.12 154.5,-252.12"/>
</a>
</g>
</g>
<!-- Node22&#45;&gt;Node4 -->
<g id="edge30_Node000022_Node000004" class="edge">
<title>Node22&#45;&gt;Node4</title>
<g id="a_edge30_Node000022_Node000004"><a xlink:title=" ">
<path fill="none" stroke="#63b8ff" d="M237.23,-220.57C236.56,-207.41 237.06,-182.74 248,-165.75 272.19,-128.18 290.94,-128.13 332,-110.5 380.88,-89.51 441.22,-77.52 480.84,-71.36"/>
<polygon fill="#63b8ff" stroke="#63b8ff" points="481.31,-74.83 490.69,-69.89 480.28,-67.91 481.31,-74.83"/>
</a>
</g>
</g>
<!-- Node22&#45;&gt;Node13 -->
<g id="edge34_Node000022_Node000013" class="edge">
<title>Node22&#45;&gt;Node13</title>
<g id="a_edge34_Node000022_Node000013"><a xlink:title=" ">
<path fill="none" stroke="#63b8ff" d="M239.38,-220.75C242.02,-206.9 249.08,-180.25 266,-165.75 304.25,-132.96 364.05,-123.96 401.03,-121.67"/>
<polygon fill="#63b8ff" stroke="#63b8ff" points="400.85,-125.18 410.67,-121.21 400.51,-118.19 400.85,-125.18"/>
</a>
</g>
</g>
<!-- Node22&#45;&gt;Node23 -->
<g id="edge31_Node000022_Node000023" class="edge">
<title>Node22&#45;&gt;Node23</title>
<g id="a_edge31_Node000022_Node000023"><a xlink:title=" ">
<path fill="none" stroke="#63b8ff" d="M250.04,-220.59C260.41,-212.82 275.6,-201.42 287.97,-192.15"/>
<polygon fill="#63b8ff" stroke="#63b8ff" points="290.02,-194.98 295.92,-186.18 285.82,-189.38 290.02,-194.98"/>
</a>
</g>
</g>
<!-- Node23&#45;&gt;Node4 -->
<g id="edge32_Node000023_Node000004" class="edge">
<title>Node23&#45;&gt;Node4</title>
<g id="a_edge32_Node000023_Node000004"><a xlink:title=" ">
<path fill="none" stroke="#63b8ff" d="M313.24,-165.45C320.31,-151.54 335.86,-124.8 357,-110.5 394.37,-85.24 445.47,-74.25 481.07,-69.49"/>
<polygon fill="#63b8ff" stroke="#63b8ff" points="481.04,-73.02 490.54,-68.33 480.19,-66.07 481.04,-73.02"/>
</a>
</g>
</g>
<!-- Node23&#45;&gt;Node13 -->
<g id="edge33_Node000023_Node000013" class="edge">
<title>Node23&#45;&gt;Node13</title>
<g id="a_edge33_Node000023_Node000013"><a xlink:title=" ">
<path fill="none" stroke="#63b8ff" d="M330.2,-165.34C349.96,-156.93 379.67,-144.27 402.25,-134.65"/>
<polygon fill="#63b8ff" stroke="#63b8ff" points="403.47,-137.93 411.3,-130.8 400.73,-131.49 403.47,-137.93"/>
</a>
</g>
</g>
<!-- Node26&#45;&gt;Node11 -->
<g id="edge44_Node000026_Node000011" class="edge">
<title>Node26&#45;&gt;Node11</title>
<g id="a_edge44_Node000026_Node000011"><a xlink:title=" ">
<path fill="none" stroke="#63b8ff" d="M527.39,-275.84C548.44,-267.35 580.2,-254.54 604.12,-244.89"/>
<polygon fill="#63b8ff" stroke="#63b8ff" points="605.13,-248.26 613.09,-241.27 602.51,-241.76 605.13,-248.26"/>
</a>
</g>
</g>
<!-- Node26&#45;&gt;Node18 -->
<g id="edge45_Node000026_Node000018" class="edge">
<title>Node26&#45;&gt;Node18</title>
<g id="a_edge45_Node000026_Node000018"><a xlink:title=" ">
<path fill="none" stroke="#63b8ff" d="M512.93,-276.08C519.56,-268.73 529.22,-258.01 537.39,-248.94"/>
<polygon fill="#63b8ff" stroke="#63b8ff" points="539.79,-251.5 543.89,-241.73 534.59,-246.82 539.79,-251.5"/>
</a>
</g>
</g>
<!-- Node26&#45;&gt;Node22 -->
<g id="edge43_Node000026_Node000022" class="edge">
<title>Node26&#45;&gt;Node22</title>
<g id="a_edge43_Node000026_Node000022"><a xlink:title=" ">
<path fill="none" stroke="#63b8ff" d="M459.4,-275.78C413.11,-266.55 341.44,-252.26 292.26,-242.45"/>
<polygon fill="#63b8ff" stroke="#63b8ff" points="293.17,-239.06 282.68,-240.54 291.8,-245.92 293.17,-239.06"/>
</a>
</g>
</g>
<!-- Node27 -->
<g id="Node000027" class="node">
<title>Node27</title>
<g id="a_Node000027"><a xlink:href="_config_handler_8h.html" target="_top" xlink:title=" ">
<polygon fill="white" stroke="#666666" points="460.88,-240.25 375.12,-240.25 375.12,-221 460.88,-221 460.88,-240.25"/>
<text xml:space="preserve" text-anchor="middle" x="418" y="-226.75" font-family="Helvetica,sans-Serif" font-size="10.00">ConfigHandler.h</text>
</a>
</g>
</g>
<!-- Node26&#45;&gt;Node27 -->
<g id="edge39_Node000026_Node000027" class="edge">
<title>Node26&#45;&gt;Node27</title>
<g id="a_edge39_Node000026_Node000027"><a xlink:title=" ">
<path fill="none" stroke="#63b8ff" d="M490.24,-275.84C477.12,-267.81 457.68,-255.91 442.27,-246.48"/>
<polygon fill="#63b8ff" stroke="#63b8ff" points="444.48,-243.73 434.12,-241.49 440.82,-249.7 444.48,-243.73"/>
</a>
</g>
</g>
<!-- Node27&#45;&gt;Node4 -->
<g id="edge40_Node000027_Node000004" class="edge">
<title>Node27&#45;&gt;Node4</title>
<g id="a_edge40_Node000027_Node000004"><a xlink:title=" ">
<path fill="none" stroke="#63b8ff" d="M413.2,-220.57C402.61,-199.26 380.04,-145.07 404,-110.5 421.27,-85.59 454.27,-74.56 481.15,-69.69"/>
<polygon fill="#63b8ff" stroke="#63b8ff" points="481.39,-73.2 490.73,-68.19 480.31,-66.28 481.39,-73.2"/>
</a>
</g>
</g>
<!-- Node27&#45;&gt;Node13 -->
<g id="edge42_Node000027_Node000013" class="edge">
<title>Node27&#45;&gt;Node13</title>
<g id="a_edge42_Node000027_Node000013"><a xlink:title=" ">
<path fill="none" stroke="#63b8ff" d="M419.31,-220.75C421.85,-203.5 427.52,-165.08 431.02,-141.31"/>
<polygon fill="#63b8ff" stroke="#63b8ff" points="434.46,-142.03 432.45,-131.62 427.53,-141.01 434.46,-142.03"/>
</a>
</g>
</g>
<!-- Node27&#45;&gt;Node23 -->
<g id="edge41_Node000027_Node000023" class="edge">
<title>Node27&#45;&gt;Node23</title>
<g id="a_edge41_Node000027_Node000023"><a xlink:title=" ">
<path fill="none" stroke="#63b8ff" d="M399.51,-220.59C382.6,-212.33 357.31,-199.98 337.76,-190.43"/>
<polygon fill="#63b8ff" stroke="#63b8ff" points="339.46,-187.36 328.94,-186.12 336.39,-193.65 339.46,-187.36"/>
</a>
</g>
</g>
<!-- Node28&#45;&gt;Node11 -->
<g id="edge48_Node000028_Node000011" class="edge">
<title>Node28&#45;&gt;Node11</title>
<g id="a_edge48_Node000028_Node000011"><a xlink:title=" ">
<path fill="none" stroke="#63b8ff" d="M637,-276.08C637,-269.57 637,-260.42 637,-252.12"/>
<polygon fill="#63b8ff" stroke="#63b8ff" points="640.5,-252.12 637,-242.12 633.5,-252.12 640.5,-252.12"/>
</a>
</g>
</g>
<!-- Node28&#45;&gt;Node18 -->
<g id="edge49_Node000028_Node000018" class="edge">
<title>Node28&#45;&gt;Node18</title>
<g id="a_edge49_Node000028_Node000018"><a xlink:title=" ">
<path fill="none" stroke="#63b8ff" d="M622.75,-275.84C610.2,-267.89 591.67,-256.14 576.86,-246.75"/>
<polygon fill="#63b8ff" stroke="#63b8ff" points="578.92,-243.91 568.6,-241.51 575.17,-249.82 578.92,-243.91"/>
</a>
</g>
</g>
<!-- Node29 -->
<g id="Node000029" class="node">
<title>Node29</title>
<g id="a_Node000029"><a xlink:title=" ">
<polygon fill="#e0e0e0" stroke="#999999" points="747.62,-240.25 696.38,-240.25 696.38,-221 747.62,-221 747.62,-240.25"/>
<text xml:space="preserve" text-anchor="middle" x="722" y="-226.75" font-family="Helvetica,sans-Serif" font-size="10.00">stdarg.h</text>
</a>
</g>
</g>
<!-- Node28&#45;&gt;Node29 -->
<g id="edge47_Node000028_Node000029" class="edge">
<title>Node28&#45;&gt;Node29</title>
<g id="a_edge47_Node000028_Node000029"><a xlink:title=" ">
<path fill="none" stroke="#63b8ff" d="M651.42,-275.84C664.12,-267.89 682.87,-256.14 697.86,-246.75"/>
<polygon fill="#63b8ff" stroke="#63b8ff" points="699.61,-249.78 706.23,-241.51 695.9,-243.85 699.61,-249.78"/>
</a>
</g>
</g>
<!-- Node30&#45;&gt;Node13 -->
<g id="edge52_Node000030_Node000013" class="edge">
<title>Node30&#45;&gt;Node13</title>
<g id="a_edge52_Node000030_Node000013"><a xlink:title=" ">
<path fill="none" stroke="#63b8ff" d="M434.79,-275.82C447.07,-268.16 462.8,-255.92 470,-240.25 485.72,-206.05 463.37,-163.23 447.49,-139.36"/>
<polygon fill="#63b8ff" stroke="#63b8ff" points="450.47,-137.52 441.87,-131.34 444.74,-141.54 450.47,-137.52"/>
</a>
</g>
</g>
<!-- Node30&#45;&gt;Node27 -->
<g id="edge51_Node000030_Node000027" class="edge">
<title>Node30&#45;&gt;Node27</title>
<g id="a_edge51_Node000030_Node000027"><a xlink:title=" ">
<path fill="none" stroke="#63b8ff" d="M418,-276.08C418,-269.57 418,-260.42 418,-252.12"/>
<polygon fill="#63b8ff" stroke="#63b8ff" points="421.5,-252.12 418,-242.12 414.5,-252.12 421.5,-252.12"/>
</a>
</g>
</g>
<!-- Node31&#45;&gt;Node4 -->
<g id="edge55_Node000031_Node000004" class="edge">
<title>Node31&#45;&gt;Node4</title>
<g id="a_edge55_Node000031_Node000004"><a xlink:title=" ">
<path fill="none" stroke="#63b8ff" d="M545.9,-338.55C632.71,-332.41 871.3,-303.03 853,-165.75 849.64,-140.53 857.08,-127.34 838,-110.5 798.27,-75.43 641.1,-67.86 564.89,-66.27"/>
<polygon fill="#63b8ff" stroke="#63b8ff" points="565.39,-62.78 555.33,-66.1 565.26,-69.78 565.39,-62.78"/>
</a>
</g>
</g>
</g>
</svg>
