<?xml version="1.0" encoding="UTF-8" standalone="no"?>
<!DOCTYPE svg PUBLIC "-//W3C//DTD SVG 1.1//EN"
 "http://www.w3.org/Graphics/SVG/1.1/DTD/svg11.dtd">
<!-- Generated by graphviz version 15.1.0 (20260618.0150)
 -->
<!-- Title: src/CVar.cpp Pages: 1 -->
<svg width="300pt" height="304pt"
 viewBox="0.00 0.00 300.00 304.00" xmlns="http://www.w3.org/2000/svg" xmlns:xlink="http://www.w3.org/1999/xlink">
<g id="graph0" class="graph" transform="scale(1 1) rotate(0) translate(4 299.5)">
<title>src/CVar.cpp</title>
<!-- Node1 -->
<g id="Node000001" class="node">
<title>Node1</title>
<g id="a_Node000001"><a xlink:title=" ">
<polygon fill="#999999" stroke="#666666" points="190.62,-295.5 118.38,-295.5 118.38,-276.25 190.62,-276.25 190.62,-295.5"/>
<text xml:space="preserve" text-anchor="middle" x="154.5" y="-282" font-family="Helvetica,sans-Serif" font-size="10.00">src/CVar.cpp</text>
</a>
</g>
</g>
<!-- Node2 -->
<g id="Node000002" class="node">
<title>Node2</title>
<g id="a_Node000002"><a xlink:href="_vars_8h.html" target="_top" xlink:title=" ">
<polygon fill="white" stroke="#666666" points="105.38,-240.25 61.62,-240.25 61.62,-221 105.38,-221 105.38,-240.25"/>
<text xml:space="preserve" text-anchor="middle" x="83.5" y="-226.75" font-family="Helvetica,sans-Serif" font-size="10.00">Vars.h</text>
</a>
</g>
</g>
<!-- Node1&#45;&gt;Node2 -->
<g id="edge1_Node000001_Node000002" class="edge">
<title>Node1&#45;&gt;Node2</title>
<g id="a_edge1_Node000001_Node000002"><a xlink:title=" ">
<path fill="none" stroke="#63b8ff" d="M142.46,-275.84C132.09,-268.07 116.9,-256.67 104.53,-247.4"/>
<polygon fill="#63b8ff" stroke="#63b8ff" points="106.68,-244.63 96.58,-241.43 102.48,-250.23 106.68,-244.63"/>
</a>
</g>
</g>
<!-- Node10 -->
<g id="Node000010" class="node">
<title>Node10</title>
<g id="a_Node000010"><a xlink:href="_l_s_c_utils_8h.html" target="_top" xlink:title=" ">
<polygon fill="white" stroke="#666666" points="211.5,-185 147.5,-185 147.5,-165.75 211.5,-165.75 211.5,-185"/>
<text xml:space="preserve" text-anchor="middle" x="179.5" y="-171.5" font-family="Helvetica,sans-Serif" font-size="10.00">LSCUtils.h</text>
</a>
</g>
</g>
<!-- Node1&#45;&gt;Node10 -->
<g id="edge12_Node000001_Node000010" class="edge">
<title>Node1&#45;&gt;Node10</title>
<g id="a_edge12_Node000001_Node000010"><a xlink:title=" ">
<path fill="none" stroke="#63b8ff" d="M156.55,-276C160.52,-258.75 169.37,-220.33 174.85,-196.56"/>
<polygon fill="#63b8ff" stroke="#63b8ff" points="178.25,-197.38 177.09,-186.85 171.43,-195.81 178.25,-197.38"/>
</a>
</g>
</g>
<!-- Node11 -->
<g id="Node000011" class="node">
<title>Node11</title>
<g id="a_Node000011"><a xlink:href="_development_helper_8h.html" target="_top" xlink:title=" ">
<polygon fill="white" stroke="#666666" points="292.38,-240.25 182.62,-240.25 182.62,-221 292.38,-221 292.38,-240.25"/>
<text xml:space="preserve" text-anchor="middle" x="237.5" y="-226.75" font-family="Helvetica,sans-Serif" font-size="10.00">DevelopmentHelper.h</text>
</a>
</g>
</g>
<!-- Node1&#45;&gt;Node11 -->
<g id="edge14_Node000001_Node000011" class="edge">
<title>Node1&#45;&gt;Node11</title>
<g id="a_edge14_Node000001_Node000011"><a xlink:title=" ">
<path fill="none" stroke="#63b8ff" d="M168.58,-275.84C180.98,-267.89 199.29,-256.14 213.93,-246.75"/>
<polygon fill="#63b8ff" stroke="#63b8ff" points="215.55,-249.87 222.08,-241.52 211.77,-243.97 215.55,-249.87"/>
</a>
</g>
</g>
<!-- Node3 -->
<g id="Node000003" class="node">
<title>Node3</title>
<g id="a_Node000003"><a xlink:href="_config_handler_8h.html" target="_top" xlink:title=" ">
<polygon fill="white" stroke="#666666" points="126.38,-185 40.62,-185 40.62,-165.75 126.38,-165.75 126.38,-185"/>
<text xml:space="preserve" text-anchor="middle" x="83.5" y="-171.5" font-family="Helvetica,sans-Serif" font-size="10.00">ConfigHandler.h</text>
</a>
</g>
</g>
<!-- Node2&#45;&gt;Node3 -->
<g id="edge2_Node000002_Node000003" class="edge">
<title>Node2&#45;&gt;Node3</title>
<g id="a_edge2_Node000002_Node000003"><a xlink:title=" ">
<path fill="none" stroke="#63b8ff" d="M83.5,-220.83C83.5,-214.32 83.5,-205.17 83.5,-196.87"/>
<polygon fill="#63b8ff" stroke="#63b8ff" points="87,-196.87 83.5,-186.87 80,-196.87 87,-196.87"/>
</a>
</g>
</g>
<!-- Node9 -->
<g id="Node000009" class="node">
<title>Node9</title>
<g id="a_Node000009"><a xlink:title=" ">
<polygon fill="#e0e0e0" stroke="#999999" points="43,-74.5 0,-74.5 0,-55.25 43,-55.25 43,-74.5"/>
<text xml:space="preserve" text-anchor="middle" x="21.5" y="-61" font-family="Helvetica,sans-Serif" font-size="10.00">vector</text>
</a>
</g>
</g>
<!-- Node2&#45;&gt;Node9 -->
<g id="edge11_Node000002_Node000009" class="edge">
<title>Node2&#45;&gt;Node9</title>
<g id="a_edge11_Node000002_Node000009"><a xlink:title=" ">
<path fill="none" stroke="#63b8ff" d="M67.33,-220.55C55.21,-212.8 39.41,-200.46 31.5,-185 15.33,-153.37 16.31,-110.78 18.74,-86.03"/>
<polygon fill="#63b8ff" stroke="#63b8ff" points="22.18,-86.71 19.88,-76.37 15.23,-85.89 22.18,-86.71"/>
</a>
</g>
</g>
<!-- Node4 -->
<g id="Node000004" class="node">
<title>Node4</title>
<g id="a_Node000004"><a xlink:href="_runtime_8h.html" target="_top" xlink:title=" ">
<polygon fill="white" stroke="#666666" points="176,-74.5 115,-74.5 115,-55.25 176,-55.25 176,-74.5"/>
<text xml:space="preserve" text-anchor="middle" x="145.5" y="-61" font-family="Helvetica,sans-Serif" font-size="10.00">Runtime.h</text>
</a>
</g>
</g>
<!-- Node3&#45;&gt;Node4 -->
<g id="edge3_Node000003_Node000004" class="edge">
<title>Node3&#45;&gt;Node4</title>
<g id="a_edge3_Node000003_Node000004"><a xlink:title=" ">
<path fill="none" stroke="#63b8ff" d="M94.94,-165.26C104.65,-156.96 118.26,-143.88 126.5,-129.75 134.45,-116.12 139.32,-98.88 142.14,-85.75"/>
<polygon fill="#63b8ff" stroke="#63b8ff" points="145.53,-86.63 143.96,-76.15 138.66,-85.32 145.53,-86.63"/>
</a>
</g>
</g>
<!-- Node8 -->
<g id="Node000008" class="node">
<title>Node8</title>
<g id="a_Node000008"><a xlink:href="_json_node_8h.html" target="_top" xlink:title=" ">
<polygon fill="white" stroke="#666666" points="117.75,-129.75 49.25,-129.75 49.25,-110.5 117.75,-110.5 117.75,-129.75"/>
<text xml:space="preserve" text-anchor="middle" x="83.5" y="-116.25" font-family="Helvetica,sans-Serif" font-size="10.00">JsonNode.h</text>
</a>
</g>
</g>
<!-- Node3&#45;&gt;Node8 -->
<g id="edge7_Node000003_Node000008" class="edge">
<title>Node3&#45;&gt;Node8</title>
<g id="a_edge7_Node000003_Node000008"><a xlink:title=" ">
<path fill="none" stroke="#63b8ff" d="M83.5,-165.58C83.5,-159.07 83.5,-149.92 83.5,-141.62"/>
<polygon fill="#63b8ff" stroke="#63b8ff" points="87,-141.62 83.5,-131.62 80,-141.62 87,-141.62"/>
</a>
</g>
</g>
<!-- Node3&#45;&gt;Node9 -->
<g id="edge10_Node000003_Node000009" class="edge">
<title>Node3&#45;&gt;Node9</title>
<g id="a_edge10_Node000003_Node000009"><a xlink:title=" ">
<path fill="none" stroke="#63b8ff" d="M72.06,-165.26C62.35,-156.96 48.74,-143.88 40.5,-129.75 32.55,-116.12 27.68,-98.88 24.86,-85.75"/>
<polygon fill="#63b8ff" stroke="#63b8ff" points="28.34,-85.32 23.04,-76.15 21.47,-86.63 28.34,-85.32"/>
</a>
</g>
</g>
<!-- Node5 -->
<g id="Node000005" class="node">
<title>Node5</title>
<g id="a_Node000005"><a xlink:title=" ">
<polygon fill="#e0e0e0" stroke="#999999" points="104.62,-19.25 56.38,-19.25 56.38,0 104.62,0 104.62,-19.25"/>
<text xml:space="preserve" text-anchor="middle" x="80.5" y="-5.75" font-family="Helvetica,sans-Serif" font-size="10.00">string.h</text>
</a>
</g>
</g>
<!-- Node4&#45;&gt;Node5 -->
<g id="edge4_Node000004_Node000005" class="edge">
<title>Node4&#45;&gt;Node5</title>
<g id="a_edge4_Node000004_Node000005"><a xlink:title=" ">
<path fill="none" stroke="#63b8ff" d="M134.47,-54.84C125.08,-47.15 111.35,-35.9 100.09,-26.68"/>
<polygon fill="#63b8ff" stroke="#63b8ff" points="102.49,-24.11 92.53,-20.48 98.05,-29.53 102.49,-24.11"/>
</a>
</g>
</g>
<!-- Node6 -->
<g id="Node000006" class="node">
<title>Node6</title>
<g id="a_Node000006"><a xlink:title=" ">
<polygon fill="#e0e0e0" stroke="#999999" points="168.12,-19.25 122.88,-19.25 122.88,0 168.12,0 168.12,-19.25"/>
<text xml:space="preserve" text-anchor="middle" x="145.5" y="-5.75" font-family="Helvetica,sans-Serif" font-size="10.00">chrono</text>
</a>
</g>
</g>
<!-- Node4&#45;&gt;Node6 -->
<g id="edge5_Node000004_Node000006" class="edge">
<title>Node4&#45;&gt;Node6</title>
<g id="a_edge5_Node000004_Node000006"><a xlink:title=" ">
<path fill="none" stroke="#63b8ff" d="M145.5,-55.08C145.5,-48.57 145.5,-39.42 145.5,-31.12"/>
<polygon fill="#63b8ff" stroke="#63b8ff" points="149,-31.12 145.5,-21.12 142,-31.12 149,-31.12"/>
</a>
</g>
</g>
<!-- Node7 -->
<g id="Node000007" class="node">
<title>Node7</title>
<g id="a_Node000007"><a xlink:title=" ">
<polygon fill="#e0e0e0" stroke="#999999" points="239.25,-19.25 185.75,-19.25 185.75,0 239.25,0 239.25,-19.25"/>
<text xml:space="preserve" text-anchor="middle" x="212.5" y="-5.75" font-family="Helvetica,sans-Serif" font-size="10.00">iostream</text>
</a>
</g>
</g>
<!-- Node4&#45;&gt;Node7 -->
<g id="edge6_Node000004_Node000007" class="edge">
<title>Node4&#45;&gt;Node7</title>
<g id="a_edge6_Node000004_Node000007"><a xlink:title=" ">
<path fill="none" stroke="#63b8ff" d="M156.87,-54.84C166.55,-47.15 180.7,-35.9 192.31,-26.68"/>
<polygon fill="#63b8ff" stroke="#63b8ff" points="194.47,-29.43 200.12,-20.47 190.11,-23.95 194.47,-29.43"/>
</a>
</g>
</g>
<!-- Node8&#45;&gt;Node4 -->
<g id="edge8_Node000008_Node000004" class="edge">
<title>Node8&#45;&gt;Node4</title>
<g id="a_edge8_Node000008_Node000004"><a xlink:title=" ">
<path fill="none" stroke="#63b8ff" d="M94.02,-110.09C102.89,-102.47 115.81,-91.37 126.49,-82.2"/>
<polygon fill="#63b8ff" stroke="#63b8ff" points="128.68,-84.93 133.99,-75.76 124.12,-79.62 128.68,-84.93"/>
</a>
</g>
</g>
<!-- Node8&#45;&gt;Node9 -->
<g id="edge9_Node000008_Node000009" class="edge">
<title>Node8&#45;&gt;Node9</title>
<g id="a_edge9_Node000008_Node000009"><a xlink:title=" ">
<path fill="none" stroke="#63b8ff" d="M72.98,-110.09C64.11,-102.47 51.19,-91.37 40.51,-82.2"/>
<polygon fill="#63b8ff" stroke="#63b8ff" points="42.88,-79.62 33.01,-75.76 38.32,-84.93 42.88,-79.62"/>
</a>
</g>
</g>
<!-- Node10&#45;&gt;Node4 -->
<g id="edge13_Node000010_Node000004" class="edge">
<title>Node10&#45;&gt;Node4</title>
<g id="a_edge13_Node000010_Node000004"><a xlink:title=" ">
<path fill="none" stroke="#63b8ff" d="M176.65,-165.28C172.78,-152.89 165.62,-130.02 159.5,-110.5 156.95,-102.36 154.14,-93.4 151.71,-85.65"/>
<polygon fill="#63b8ff" stroke="#63b8ff" points="155.08,-84.7 148.74,-76.21 148.4,-86.8 155.08,-84.7"/>
</a>
</g>
</g>
</g>
</svg>
