<?xml version="1.0" encoding="UTF-8" standalone="no"?>
<!DOCTYPE svg PUBLIC "-//W3C//DTD SVG 1.1//EN"
 "http://www.w3.org/Graphics/SVG/1.1/DTD/svg11.dtd">
<!-- Generated by graphviz version 15.1.0 (20260618.0150)
 -->
<!-- Title: src/CWebServer.cpp Pages: 1 -->
<svg width="1215pt" height="469pt"
 viewBox="0.00 0.00 1215.00 469.00" xmlns="http://www.w3.org/2000/svg" xmlns:xlink="http://www.w3.org/1999/xlink">
<g id="graph0" class="graph" transform="scale(1 1) rotate(0) translate(4 465.25)">
<title>src/CWebServer.cpp</title>
<!-- Node1 -->
<g id="Node000001" class="node">
<title>Node1</title>
<g id="a_Node000001"><a xlink:title=" ">
<polygon fill="#999999" stroke="#666666" points="1069.42,-461.25 963.42,-461.25 963.42,-442 1069.42,-442 1069.42,-461.25"/>
<text xml:space="preserve" text-anchor="middle" x="1016.42" y="-447.75" font-family="Helvetica,sans-Serif" font-size="10.00">src/CWebServer.cpp</text>
</a>
</g>
</g>
<!-- Node2 -->
<g id="Node000002" class="node">
<title>Node2</title>
<g id="a_Node000002"><a xlink:href="_web_server_8h.html" target="_top" xlink:title=" ">
<polygon fill="white" stroke="#666666" points="951.17,-406 879.67,-406 879.67,-386.75 951.17,-386.75 951.17,-406"/>
<text xml:space="preserve" text-anchor="middle" x="915.42" y="-392.5" font-family="Helvetica,sans-Serif" font-size="10.00">WebServer.h</text>
</a>
</g>
</g>
<!-- Node1&#45;&gt;Node2 -->
<g id="edge1_Node000001_Node000002" class="edge">
<title>Node1&#45;&gt;Node2</title>
<g id="a_edge1_Node000001_Node000002"><a xlink:title=" ">
<path fill="none" stroke="#63b8ff" d="M999.28,-441.59C983.76,-433.41 960.62,-421.21 942.57,-411.69"/>
<polygon fill="#63b8ff" stroke="#63b8ff" points="944.45,-408.73 933.97,-407.16 941.19,-414.92 944.45,-408.73"/>
</a>
</g>
</g>
<!-- Node22 -->
<g id="Node000022" class="node">
<title>Node22</title>
<g id="a_Node000022"><a xlink:href="_development_helper_8h.html" target="_top" xlink:title=" ">
<polygon fill="white" stroke="#666666" points="731.29,-129.75 621.54,-129.75 621.54,-110.5 731.29,-110.5 731.29,-129.75"/>
<text xml:space="preserve" text-anchor="middle" x="676.42" y="-116.25" font-family="Helvetica,sans-Serif" font-size="10.00">DevelopmentHelper.h</text>
</a>
</g>
</g>
<!-- Node1&#45;&gt;Node22 -->
<g id="edge67_Node000001_Node000022" class="edge">
<title>Node1&#45;&gt;Node22</title>
<g id="a_edge67_Node000001_Node000022"><a xlink:title=" ">
<path fill="none" stroke="#63b8ff" d="M962.92,-444.78C867.17,-432.82 676.42,-401.53 676.42,-342.12 676.42,-342.12 676.42,-342.12 676.42,-229.62 676.42,-198.91 676.42,-163.3 676.42,-141.49"/>
<polygon fill="#63b8ff" stroke="#63b8ff" points="679.92,-141.64 676.42,-131.64 672.92,-141.64 679.92,-141.64"/>
</a>
</g>
</g>
<!-- Node30 -->
<g id="Node000030" class="node">
<title>Node30</title>
<g id="a_Node000030"><a xlink:href="_security_8h.html" target="_top" xlink:title=" ">
<polygon fill="white" stroke="#666666" points="1115.79,-295.5 1057.04,-295.5 1057.04,-276.25 1115.79,-276.25 1115.79,-295.5"/>
<text xml:space="preserve" text-anchor="middle" x="1086.42" y="-282" font-family="Helvetica,sans-Serif" font-size="10.00">Security.h</text>
</a>
</g>
</g>
<!-- Node1&#45;&gt;Node30 -->
<g id="edge56_Node000001_Node000030" class="edge">
<title>Node1&#45;&gt;Node30</title>
<g id="a_edge56_Node000001_Node000030"><a xlink:title=" ">
<path fill="none" stroke="#63b8ff" d="M1031.49,-441.64C1043.26,-433.77 1058.99,-421.24 1067.42,-406 1084.76,-374.63 1087.41,-331.95 1087.25,-307.12"/>
<polygon fill="#63b8ff" stroke="#63b8ff" points="1090.76,-307.33 1087.02,-297.42 1083.76,-307.5 1090.76,-307.33"/>
</a>
</g>
</g>
<!-- Node31 -->
<g id="Node000031" class="node">
<title>Node31</title>
<g id="a_Node000031"><a xlink:href="_access_token_8h.html" target="_top" xlink:title=" ">
<polygon fill="white" stroke="#666666" points="1058.17,-406 974.67,-406 974.67,-386.75 1058.17,-386.75 1058.17,-406"/>
<text xml:space="preserve" text-anchor="middle" x="1016.42" y="-392.5" font-family="Helvetica,sans-Serif" font-size="10.00">AccessToken.h</text>
</a>
</g>
</g>
<!-- Node1&#45;&gt;Node31 -->
<g id="edge59_Node000001_Node000031" class="edge">
<title>Node1&#45;&gt;Node31</title>
<g id="a_edge59_Node000001_Node000031"><a xlink:title=" ">
<path fill="none" stroke="#63b8ff" d="M1016.42,-441.83C1016.42,-435.32 1016.42,-426.17 1016.42,-417.87"/>
<polygon fill="#63b8ff" stroke="#63b8ff" points="1019.92,-417.87 1016.42,-407.87 1012.92,-417.87 1019.92,-417.87"/>
</a>
</g>
</g>
<!-- Node33 -->
<g id="Node000033" class="node">
<title>Node33</title>
<g id="a_Node000033"><a xlink:href="_file_system_8h.html" target="_top" xlink:title=" ">
<polygon fill="white" stroke="#666666" points="1207.29,-295.5 1133.54,-295.5 1133.54,-276.25 1207.29,-276.25 1207.29,-295.5"/>
<text xml:space="preserve" text-anchor="middle" x="1170.42" y="-282" font-family="Helvetica,sans-Serif" font-size="10.00">FileSystem.h</text>
</a>
</g>
</g>
<!-- Node1&#45;&gt;Node33 -->
<g id="edge63_Node000001_Node000033" class="edge">
<title>Node1&#45;&gt;Node33</title>
<g id="a_edge63_Node000001_Node000033"><a xlink:title=" ">
<path fill="none" stroke="#63b8ff" d="M1034.15,-441.61C1048.91,-433.56 1069.94,-420.78 1085.42,-406 1117.6,-375.26 1145.53,-330.81 1159.97,-305.81"/>
<polygon fill="#63b8ff" stroke="#63b8ff" points="1163,-307.55 1164.87,-297.13 1156.91,-304.11 1163,-307.55"/>
</a>
</g>
</g>
<!-- Node3 -->
<g id="Node000003" class="node">
<title>Node3</title>
<g id="a_Node000003"><a xlink:title=" ">
<polygon fill="#e0e0e0" stroke="#999999" points="1001.04,-295.5 943.79,-295.5 943.79,-276.25 1001.04,-276.25 1001.04,-295.5"/>
<text xml:space="preserve" text-anchor="middle" x="972.42" y="-282" font-family="Helvetica,sans-Serif" font-size="10.00">Arduino.h</text>
</a>
</g>
</g>
<!-- Node2&#45;&gt;Node3 -->
<g id="edge2_Node000002_Node000003" class="edge">
<title>Node2&#45;&gt;Node3</title>
<g id="a_edge2_Node000002_Node000003"><a xlink:title=" ">
<path fill="none" stroke="#63b8ff" d="M920.08,-386.5C929.31,-368.93 950.07,-329.41 962.49,-305.77"/>
<polygon fill="#63b8ff" stroke="#63b8ff" points="965.43,-307.7 966.98,-297.22 959.23,-304.44 965.43,-307.7"/>
</a>
</g>
</g>
<!-- Node4 -->
<g id="Node000004" class="node">
<title>Node4</title>
<g id="a_Node000004"><a xlink:href="_appl_8h.html" target="_top" xlink:title="Application Main Class.">
<polygon fill="white" stroke="#666666" points="508.29,-350.75 464.54,-350.75 464.54,-331.5 508.29,-331.5 508.29,-350.75"/>
<text xml:space="preserve" text-anchor="middle" x="486.42" y="-337.25" font-family="Helvetica,sans-Serif" font-size="10.00">Appl.h</text>
</a>
</g>
</g>
<!-- Node2&#45;&gt;Node4 -->
<g id="edge3_Node000002_Node000004" class="edge">
<title>Node2&#45;&gt;Node4</title>
<g id="a_edge3_Node000002_Node000004"><a xlink:title=" ">
<path fill="none" stroke="#63b8ff" d="M879.21,-390.88C797.36,-380.72 599.05,-356.11 519.87,-346.28"/>
<polygon fill="#63b8ff" stroke="#63b8ff" points="520.51,-342.83 510.16,-345.07 519.65,-349.78 520.51,-342.83"/>
</a>
</g>
</g>
<!-- Node27 -->
<g id="Node000027" class="node">
<title>Node27</title>
<g id="a_Node000027"><a xlink:href="_network_8h.html" target="_top" xlink:title=" ">
<polygon fill="white" stroke="#666666" points="1015.92,-240.25 954.92,-240.25 954.92,-221 1015.92,-221 1015.92,-240.25"/>
<text xml:space="preserve" text-anchor="middle" x="985.42" y="-226.75" font-family="Helvetica,sans-Serif" font-size="10.00">Network.h</text>
</a>
</g>
</g>
<!-- Node2&#45;&gt;Node27 -->
<g id="edge45_Node000002_Node000027" class="edge">
<title>Node2&#45;&gt;Node27</title>
<g id="a_edge45_Node000002_Node000027"><a xlink:title=" ">
<path fill="none" stroke="#63b8ff" d="M914.85,-386.34C913.95,-365.52 914.05,-313.09 934.42,-276.25 940.8,-264.7 951.38,-254.71 961.25,-247.12"/>
<polygon fill="#63b8ff" stroke="#63b8ff" points="963.02,-250.16 969.11,-241.5 958.94,-244.47 963.02,-250.16"/>
</a>
</g>
</g>
<!-- Node28 -->
<g id="Node000028" class="node">
<title>Node28</title>
<g id="a_Node000028"><a xlink:href="_web_socket_8h.html" target="_top" xlink:title=" ">
<polygon fill="white" stroke="#666666" points="849.67,-295.5 775.17,-295.5 775.17,-276.25 849.67,-276.25 849.67,-295.5"/>
<text xml:space="preserve" text-anchor="middle" x="812.42" y="-282" font-family="Helvetica,sans-Serif" font-size="10.00">WebSocket.h</text>
</a>
</g>
</g>
<!-- Node2&#45;&gt;Node28 -->
<g id="edge47_Node000002_Node000028" class="edge">
<title>Node2&#45;&gt;Node28</title>
<g id="a_edge47_Node000002_Node000028"><a xlink:title=" ">
<path fill="none" stroke="#63b8ff" d="M906.99,-386.5C889.94,-368.53 851.09,-327.61 828.85,-304.19"/>
<polygon fill="#63b8ff" stroke="#63b8ff" points="831.43,-301.82 822,-296.97 826.35,-306.64 831.43,-301.82"/>
</a>
</g>
</g>
<!-- Node5 -->
<g id="Node000005" class="node">
<title>Node5</title>
<g id="a_Node000005"><a xlink:href="_runtime_8h.html" target="_top" xlink:title=" ">
<polygon fill="white" stroke="#666666" points="688.92,-74.5 627.92,-74.5 627.92,-55.25 688.92,-55.25 688.92,-74.5"/>
<text xml:space="preserve" text-anchor="middle" x="658.42" y="-61" font-family="Helvetica,sans-Serif" font-size="10.00">Runtime.h</text>
</a>
</g>
</g>
<!-- Node4&#45;&gt;Node5 -->
<g id="edge4_Node000004_Node000005" class="edge">
<title>Node4&#45;&gt;Node5</title>
<g id="a_edge4_Node000004_Node000005"><a xlink:title=" ">
<path fill="none" stroke="#63b8ff" d="M508.69,-340.31C580.26,-340.47 802.92,-337.5 858.42,-295.5 926.24,-244.17 962,-175.73 907.42,-110.5 881.55,-79.58 764.74,-70.06 700.72,-67.15"/>
<polygon fill="#63b8ff" stroke="#63b8ff" points="701.06,-63.66 690.92,-66.74 700.77,-70.65 701.06,-63.66"/>
</a>
</g>
</g>
<!-- Node9 -->
<g id="Node000009" class="node">
<title>Node9</title>
<g id="a_Node000009"><a xlink:href="_sys_status_8h.html" target="_top" xlink:title=" ">
<polygon fill="white" stroke="#666666" points="132.42,-295.5 62.42,-295.5 62.42,-276.25 132.42,-276.25 132.42,-295.5"/>
<text xml:space="preserve" text-anchor="middle" x="97.42" y="-282" font-family="Helvetica,sans-Serif" font-size="10.00">SysStatus.h</text>
</a>
</g>
</g>
<!-- Node4&#45;&gt;Node9 -->
<g id="edge8_Node000004_Node000009" class="edge">
<title>Node4&#45;&gt;Node9</title>
<g id="a_edge8_Node000004_Node000009"><a xlink:title=" ">
<path fill="none" stroke="#63b8ff" d="M464.1,-337.07C402.35,-328.62 228.2,-304.78 144.07,-293.26"/>
<polygon fill="#63b8ff" stroke="#63b8ff" points="144.69,-289.81 134.31,-291.93 143.75,-296.75 144.69,-289.81"/>
</a>
</g>
</g>
<!-- Node11 -->
<g id="Node000011" class="node">
<title>Node11</title>
<g id="a_Node000011"><a xlink:href="_json_node_8h.html" target="_top" xlink:title=" ">
<polygon fill="white" stroke="#666666" points="222.67,-185 154.17,-185 154.17,-165.75 222.67,-165.75 222.67,-185"/>
<text xml:space="preserve" text-anchor="middle" x="188.42" y="-171.5" font-family="Helvetica,sans-Serif" font-size="10.00">JsonNode.h</text>
</a>
</g>
</g>
<!-- Node4&#45;&gt;Node11 -->
<g id="edge18_Node000004_Node000011" class="edge">
<title>Node4&#45;&gt;Node11</title>
<g id="a_edge18_Node000004_Node000011"><a xlink:title=" ">
<path fill="none" stroke="#63b8ff" d="M464.15,-339.91C386.22,-338.84 126.47,-332.52 53.42,-295.5 23.87,-280.53 15.32,-271.15 3.42,-240.25 0.34,-232.27 -1.88,-227.72 3.42,-221 20.45,-199.37 93.69,-186.99 142.75,-180.99"/>
<polygon fill="#63b8ff" stroke="#63b8ff" points="143.02,-184.48 152.54,-179.84 142.2,-177.53 143.02,-184.48"/>
</a>
</g>
</g>
<!-- Node15 -->
<g id="Node000015" class="node">
<title>Node15</title>
<g id="a_Node000015"><a xlink:href="_module_interface_8h.html" target="_top" xlink:title="Full Interface for a module and an abstract basic module implementation.">
<polygon fill="white" stroke="#666666" points="486.42,-295.5 392.42,-295.5 392.42,-276.25 486.42,-276.25 486.42,-295.5"/>
<text xml:space="preserve" text-anchor="middle" x="439.42" y="-282" font-family="Helvetica,sans-Serif" font-size="10.00">ModuleInterface.h</text>
</a>
</g>
</g>
<!-- Node4&#45;&gt;Node15 -->
<g id="edge19_Node000004_Node000015" class="edge">
<title>Node4&#45;&gt;Node15</title>
<g id="a_edge19_Node000004_Node000015"><a xlink:title=" ">
<path fill="none" stroke="#63b8ff" d="M478.65,-331.33C472.23,-324.05 462.9,-313.48 454.95,-304.48"/>
<polygon fill="#63b8ff" stroke="#63b8ff" points="457.59,-302.18 448.35,-296.99 452.34,-306.81 457.59,-302.18"/>
</a>
</g>
</g>
<!-- Node4&#45;&gt;Node22 -->
<g id="edge44_Node000004_Node000022" class="edge">
<title>Node4&#45;&gt;Node22</title>
<g id="a_edge44_Node000004_Node000022"><a xlink:title=" ">
<path fill="none" stroke="#63b8ff" d="M508.5,-335.37C562.59,-322.39 701.25,-280.71 755.42,-185 767.94,-162.87 741.31,-145.41 715.66,-134.38"/>
<polygon fill="#63b8ff" stroke="#63b8ff" points="717.2,-131.23 706.62,-130.75 714.59,-137.73 717.2,-131.23"/>
</a>
</g>
</g>
<!-- Node24 -->
<g id="Node000024" class="node">
<title>Node24</title>
<g id="a_Node000024"><a xlink:href="_logging_8h.html" target="_top" xlink:title=" ">
<polygon fill="white" stroke="#666666" points="562.42,-295.5 504.42,-295.5 504.42,-276.25 562.42,-276.25 562.42,-295.5"/>
<text xml:space="preserve" text-anchor="middle" x="533.42" y="-282" font-family="Helvetica,sans-Serif" font-size="10.00">Logging.h</text>
</a>
</g>
</g>
<!-- Node4&#45;&gt;Node24 -->
<g id="edge37_Node000004_Node000024" class="edge">
<title>Node4&#45;&gt;Node24</title>
<g id="a_edge37_Node000004_Node000024"><a xlink:title=" ">
<path fill="none" stroke="#63b8ff" d="M494.18,-331.33C500.6,-324.05 509.93,-313.48 517.88,-304.48"/>
<polygon fill="#63b8ff" stroke="#63b8ff" points="520.49,-306.81 524.48,-296.99 515.24,-302.18 520.49,-306.81"/>
</a>
</g>
</g>
<!-- Node26 -->
<g id="Node000026" class="node">
<title>Node26</title>
<g id="a_Node000026"><a xlink:href="_vars_8h.html" target="_top" xlink:title=" ">
<polygon fill="white" stroke="#666666" points="315.29,-295.5 271.54,-295.5 271.54,-276.25 315.29,-276.25 315.29,-295.5"/>
<text xml:space="preserve" text-anchor="middle" x="293.42" y="-282" font-family="Helvetica,sans-Serif" font-size="10.00">Vars.h</text>
</a>
</g>
</g>
<!-- Node4&#45;&gt;Node26 -->
<g id="edge41_Node000004_Node000026" class="edge">
<title>Node4&#45;&gt;Node26</title>
<g id="a_edge41_Node000004_Node000026"><a xlink:title=" ">
<path fill="none" stroke="#63b8ff" d="M464.28,-334.02C430.48,-324.69 365.82,-306.85 326.46,-295.99"/>
<polygon fill="#63b8ff" stroke="#63b8ff" points="327.62,-292.68 317.05,-293.4 325.76,-299.43 327.62,-292.68"/>
</a>
</g>
</g>
<!-- Node6 -->
<g id="Node000006" class="node">
<title>Node6</title>
<g id="a_Node000006"><a xlink:title=" ">
<polygon fill="#e0e0e0" stroke="#999999" points="617.54,-19.25 569.29,-19.25 569.29,0 617.54,0 617.54,-19.25"/>
<text xml:space="preserve" text-anchor="middle" x="593.42" y="-5.75" font-family="Helvetica,sans-Serif" font-size="10.00">string.h</text>
</a>
</g>
</g>
<!-- Node5&#45;&gt;Node6 -->
<g id="edge5_Node000005_Node000006" class="edge">
<title>Node5&#45;&gt;Node6</title>
<g id="a_edge5_Node000005_Node000006"><a xlink:title=" ">
<path fill="none" stroke="#63b8ff" d="M647.39,-54.84C637.99,-47.15 624.27,-35.9 613.01,-26.68"/>
<polygon fill="#63b8ff" stroke="#63b8ff" points="615.4,-24.11 605.45,-20.48 610.97,-29.53 615.4,-24.11"/>
</a>
</g>
</g>
<!-- Node7 -->
<g id="Node000007" class="node">
<title>Node7</title>
<g id="a_Node000007"><a xlink:title=" ">
<polygon fill="#e0e0e0" stroke="#999999" points="681.04,-19.25 635.79,-19.25 635.79,0 681.04,0 681.04,-19.25"/>
<text xml:space="preserve" text-anchor="middle" x="658.42" y="-5.75" font-family="Helvetica,sans-Serif" font-size="10.00">chrono</text>
</a>
</g>
</g>
<!-- Node5&#45;&gt;Node7 -->
<g id="edge6_Node000005_Node000007" class="edge">
<title>Node5&#45;&gt;Node7</title>
<g id="a_edge6_Node000005_Node000007"><a xlink:title=" ">
<path fill="none" stroke="#63b8ff" d="M658.42,-55.08C658.42,-48.57 658.42,-39.42 658.42,-31.12"/>
<polygon fill="#63b8ff" stroke="#63b8ff" points="661.92,-31.12 658.42,-21.12 654.92,-31.12 661.92,-31.12"/>
</a>
</g>
</g>
<!-- Node8 -->
<g id="Node000008" class="node">
<title>Node8</title>
<g id="a_Node000008"><a xlink:title=" ">
<polygon fill="#e0e0e0" stroke="#999999" points="752.17,-19.25 698.67,-19.25 698.67,0 752.17,0 752.17,-19.25"/>
<text xml:space="preserve" text-anchor="middle" x="725.42" y="-5.75" font-family="Helvetica,sans-Serif" font-size="10.00">iostream</text>
</a>
</g>
</g>
<!-- Node5&#45;&gt;Node8 -->
<g id="edge7_Node000005_Node000008" class="edge">
<title>Node5&#45;&gt;Node8</title>
<g id="a_edge7_Node000005_Node000008"><a xlink:title=" ">
<path fill="none" stroke="#63b8ff" d="M669.78,-54.84C679.46,-47.15 693.61,-35.9 705.22,-26.68"/>
<polygon fill="#63b8ff" stroke="#63b8ff" points="707.38,-29.43 713.03,-20.47 703.03,-23.95 707.38,-29.43"/>
</a>
</g>
</g>
<!-- Node9&#45;&gt;Node5 -->
<g id="edge9_Node000009_Node000005" class="edge">
<title>Node9&#45;&gt;Node5</title>
<g id="a_edge9_Node000009_Node000005"><a xlink:title=" ">
<path fill="none" stroke="#63b8ff" d="M62.06,-276.62C29.58,-267.11 -11.42,-249.09 3.42,-221 44.13,-143.94 83.38,-139.93 165.42,-110.5 248.08,-80.85 512.96,-70.1 616.44,-66.97"/>
<polygon fill="#63b8ff" stroke="#63b8ff" points="616.26,-70.48 626.15,-66.69 616.05,-63.48 616.26,-70.48"/>
</a>
</g>
</g>
<!-- Node10 -->
<g id="Node000010" class="node">
<title>Node10</title>
<g id="a_Node000010"><a xlink:href="_status_handler_8h.html" target="_top" xlink:title=" ">
<polygon fill="white" stroke="#666666" points="407.29,-240.25 321.54,-240.25 321.54,-221 407.29,-221 407.29,-240.25"/>
<text xml:space="preserve" text-anchor="middle" x="364.42" y="-226.75" font-family="Helvetica,sans-Serif" font-size="10.00">StatusHandler.h</text>
</a>
</g>
</g>
<!-- Node9&#45;&gt;Node10 -->
<g id="edge10_Node000009_Node000010" class="edge">
<title>Node9&#45;&gt;Node10</title>
<g id="a_edge10_Node000009_Node000010"><a xlink:title=" ">
<path fill="none" stroke="#63b8ff" d="M132.87,-277.8C178.2,-268.76 257.14,-253.02 310.08,-242.46"/>
<polygon fill="#63b8ff" stroke="#63b8ff" points="310.68,-245.91 319.81,-240.52 309.32,-239.05 310.68,-245.91"/>
</a>
</g>
</g>
<!-- Node13 -->
<g id="Node000013" class="node">
<title>Node13</title>
<g id="a_Node000013"><a xlink:title=" ">
<polygon fill="#e0e0e0" stroke="#999999" points="54.17,-240.25 12.67,-240.25 12.67,-221 54.17,-221 54.17,-240.25"/>
<text xml:space="preserve" text-anchor="middle" x="33.42" y="-226.75" font-family="Helvetica,sans-Serif" font-size="10.00">Esp.h</text>
</a>
</g>
</g>
<!-- Node9&#45;&gt;Node13 -->
<g id="edge16_Node000009_Node000013" class="edge">
<title>Node9&#45;&gt;Node13</title>
<g id="a_edge16_Node000009_Node000013"><a xlink:title=" ">
<path fill="none" stroke="#63b8ff" d="M86.56,-275.84C77.31,-268.15 63.79,-256.9 52.71,-247.68"/>
<polygon fill="#63b8ff" stroke="#63b8ff" points="55.2,-245.2 45.28,-241.49 50.72,-250.58 55.2,-245.2"/>
</a>
</g>
</g>
<!-- Node14 -->
<g id="Node000014" class="node">
<title>Node14</title>
<g id="a_Node000014"><a xlink:title=" ">
<polygon fill="#e0e0e0" stroke="#999999" points="123.04,-240.25 71.79,-240.25 71.79,-221 123.04,-221 123.04,-240.25"/>
<text xml:space="preserve" text-anchor="middle" x="97.42" y="-226.75" font-family="Helvetica,sans-Serif" font-size="10.00">memory</text>
</a>
</g>
</g>
<!-- Node9&#45;&gt;Node14 -->
<g id="edge17_Node000009_Node000014" class="edge">
<title>Node9&#45;&gt;Node14</title>
<g id="a_edge17_Node000009_Node000014"><a xlink:title=" ">
<path fill="none" stroke="#63b8ff" d="M97.42,-276.08C97.42,-269.57 97.42,-260.42 97.42,-252.12"/>
<polygon fill="#63b8ff" stroke="#63b8ff" points="100.92,-252.12 97.42,-242.12 93.92,-252.12 100.92,-252.12"/>
</a>
</g>
</g>
<!-- Node10&#45;&gt;Node5 -->
<g id="edge11_Node000010_Node000005" class="edge">
<title>Node10&#45;&gt;Node5</title>
<g id="a_edge11_Node000010_Node000005"><a xlink:title=" ">
<path fill="none" stroke="#63b8ff" d="M365.05,-220.53C367.2,-197.6 376.29,-137.39 413.42,-110.5 445.24,-87.45 555.41,-74.63 616.61,-69.14"/>
<polygon fill="#63b8ff" stroke="#63b8ff" points="616.63,-72.65 626.29,-68.3 616.02,-65.68 616.63,-72.65"/>
</a>
</g>
</g>
<!-- Node10&#45;&gt;Node11 -->
<g id="edge12_Node000010_Node000011" class="edge">
<title>Node10&#45;&gt;Node11</title>
<g id="a_edge12_Node000010_Node000011"><a xlink:title=" ">
<path fill="none" stroke="#63b8ff" d="M334.56,-220.59C305.61,-211.83 261.46,-198.48 229.26,-188.73"/>
<polygon fill="#63b8ff" stroke="#63b8ff" points="230.45,-185.44 219.87,-185.89 228.42,-192.14 230.45,-185.44"/>
</a>
</g>
</g>
<!-- Node12 -->
<g id="Node000012" class="node">
<title>Node12</title>
<g id="a_Node000012"><a xlink:title=" ">
<polygon fill="#e0e0e0" stroke="#999999" points="297.92,-129.75 254.92,-129.75 254.92,-110.5 297.92,-110.5 297.92,-129.75"/>
<text xml:space="preserve" text-anchor="middle" x="276.42" y="-116.25" font-family="Helvetica,sans-Serif" font-size="10.00">vector</text>
</a>
</g>
</g>
<!-- Node10&#45;&gt;Node12 -->
<g id="edge15_Node000010_Node000012" class="edge">
<title>Node10&#45;&gt;Node12</title>
<g id="a_edge15_Node000010_Node000012"><a xlink:title=" ">
<path fill="none" stroke="#63b8ff" d="M351.76,-220.76C340.5,-212.43 324.04,-199.16 312.42,-185 301.17,-171.3 291.51,-153.61 285.04,-140.32"/>
<polygon fill="#63b8ff" stroke="#63b8ff" points="288.25,-138.94 280.85,-131.36 281.91,-141.9 288.25,-138.94"/>
</a>
</g>
</g>
<!-- Node11&#45;&gt;Node5 -->
<g id="edge13_Node000011_Node000005" class="edge">
<title>Node11&#45;&gt;Node5</title>
<g id="a_edge13_Node000011_Node000005"><a xlink:title=" ">
<path fill="none" stroke="#63b8ff" d="M193.36,-165.49C201.88,-151.13 220.83,-123.14 245.42,-110.5 309.39,-77.6 524.48,-68.88 616.3,-66.63"/>
<polygon fill="#63b8ff" stroke="#63b8ff" points="616.21,-70.13 626.13,-66.4 616.05,-63.13 616.21,-70.13"/>
</a>
</g>
</g>
<!-- Node11&#45;&gt;Node12 -->
<g id="edge14_Node000011_Node000012" class="edge">
<title>Node11&#45;&gt;Node12</title>
<g id="a_edge14_Node000011_Node000012"><a xlink:title=" ">
<path fill="none" stroke="#63b8ff" d="M203.34,-165.34C216.62,-157.31 236.28,-145.41 251.87,-135.98"/>
<polygon fill="#63b8ff" stroke="#63b8ff" points="253.38,-139.16 260.12,-130.99 249.75,-133.17 253.38,-139.16"/>
</a>
</g>
</g>
<!-- Node15&#45;&gt;Node10 -->
<g id="edge24_Node000015_Node000010" class="edge">
<title>Node15&#45;&gt;Node10</title>
<g id="a_edge24_Node000015_Node000010"><a xlink:title=" ">
<path fill="none" stroke="#63b8ff" d="M426.69,-275.84C415.7,-268.04 399.57,-256.59 386.48,-247.29"/>
<polygon fill="#63b8ff" stroke="#63b8ff" points="388.61,-244.51 378.43,-241.58 384.56,-250.22 388.61,-244.51"/>
</a>
</g>
</g>
<!-- Node16 -->
<g id="Node000016" class="node">
<title>Node16</title>
<g id="a_Node000016"><a xlink:href="_config_handler_8h.html" target="_top" xlink:title=" ">
<polygon fill="white" stroke="#666666" points="227.29,-240.25 141.54,-240.25 141.54,-221 227.29,-221 227.29,-240.25"/>
<text xml:space="preserve" text-anchor="middle" x="184.42" y="-226.75" font-family="Helvetica,sans-Serif" font-size="10.00">ConfigHandler.h</text>
</a>
</g>
</g>
<!-- Node15&#45;&gt;Node16 -->
<g id="edge20_Node000015_Node000016" class="edge">
<title>Node15&#45;&gt;Node16</title>
<g id="a_edge20_Node000015_Node000016"><a xlink:title=" ">
<path fill="none" stroke="#63b8ff" d="M395.87,-275.78C352.5,-266.73 285.81,-252.8 238.95,-243.01"/>
<polygon fill="#63b8ff" stroke="#63b8ff" points="239.77,-239.61 229.26,-240.99 238.34,-246.46 239.77,-239.61"/>
</a>
</g>
</g>
<!-- Node17 -->
<g id="Node000017" class="node">
<title>Node17</title>
<g id="a_Node000017"><a xlink:href="_event_handler_8h.html" target="_top" xlink:title=" ">
<polygon fill="white" stroke="#666666" points="574.79,-240.25 492.04,-240.25 492.04,-221 574.79,-221 574.79,-240.25"/>
<text xml:space="preserve" text-anchor="middle" x="533.42" y="-226.75" font-family="Helvetica,sans-Serif" font-size="10.00">EventHandler.h</text>
</a>
</g>
</g>
<!-- Node15&#45;&gt;Node17 -->
<g id="edge25_Node000015_Node000017" class="edge">
<title>Node15&#45;&gt;Node17</title>
<g id="a_edge25_Node000015_Node000017"><a xlink:title=" ">
<path fill="none" stroke="#63b8ff" d="M455.36,-275.84C469.68,-267.73 490.95,-255.68 507.67,-246.21"/>
<polygon fill="#63b8ff" stroke="#63b8ff" points="509.1,-249.42 516.07,-241.45 505.65,-243.33 509.1,-249.42"/>
</a>
</g>
</g>
<!-- Node23 -->
<g id="Node000023" class="node">
<title>Node23</title>
<g id="a_Node000023"><a xlink:href="_msgs_8h.html" target="_top" xlink:title=" ">
<polygon fill="white" stroke="#666666" points="473.54,-240.25 425.29,-240.25 425.29,-221 473.54,-221 473.54,-240.25"/>
<text xml:space="preserve" text-anchor="middle" x="449.42" y="-226.75" font-family="Helvetica,sans-Serif" font-size="10.00">Msgs.h</text>
</a>
</g>
</g>
<!-- Node15&#45;&gt;Node23 -->
<g id="edge36_Node000015_Node000023" class="edge">
<title>Node15&#45;&gt;Node23</title>
<g id="a_edge36_Node000015_Node000023"><a xlink:title=" ">
<path fill="none" stroke="#63b8ff" d="M441.07,-276.08C442.3,-269.49 444.05,-260.21 445.62,-251.82"/>
<polygon fill="#63b8ff" stroke="#63b8ff" points="449.04,-252.57 447.45,-242.1 442.16,-251.28 449.04,-252.57"/>
</a>
</g>
</g>
<!-- Node16&#45;&gt;Node5 -->
<g id="edge21_Node000016_Node000005" class="edge">
<title>Node16&#45;&gt;Node5</title>
<g id="a_edge21_Node000016_Node000005"><a xlink:title=" ">
<path fill="none" stroke="#63b8ff" d="M169.61,-220.69C152,-208.85 126.29,-186.96 137.42,-165.75 157.49,-127.49 176.86,-125.42 217.42,-110.5 290.04,-83.78 520.72,-71.5 616.31,-67.46"/>
<polygon fill="#63b8ff" stroke="#63b8ff" points="616.18,-70.97 626.03,-67.06 615.89,-63.98 616.18,-70.97"/>
</a>
</g>
</g>
<!-- Node16&#45;&gt;Node11 -->
<g id="edge22_Node000016_Node000011" class="edge">
<title>Node16&#45;&gt;Node11</title>
<g id="a_edge22_Node000016_Node000011"><a xlink:title=" ">
<path fill="none" stroke="#63b8ff" d="M185.08,-220.83C185.57,-214.24 186.27,-204.96 186.9,-196.57"/>
<polygon fill="#63b8ff" stroke="#63b8ff" points="190.37,-197.1 187.63,-186.87 183.39,-196.58 190.37,-197.1"/>
</a>
</g>
</g>
<!-- Node16&#45;&gt;Node12 -->
<g id="edge23_Node000016_Node000012" class="edge">
<title>Node16&#45;&gt;Node12</title>
<g id="a_edge23_Node000016_Node000012"><a xlink:title=" ">
<path fill="none" stroke="#63b8ff" d="M172.01,-220.69C156.07,-208.09 131.95,-184.56 145.42,-165.75 167.55,-134.83 212.39,-125.08 243.4,-122.15"/>
<polygon fill="#63b8ff" stroke="#63b8ff" points="243.31,-125.67 253.02,-121.44 242.79,-118.69 243.31,-125.67"/>
</a>
</g>
</g>
<!-- Node17&#45;&gt;Node5 -->
<g id="edge26_Node000017_Node000005" class="edge">
<title>Node17&#45;&gt;Node5</title>
<g id="a_edge26_Node000017_Node000005"><a xlink:title=" ">
<path fill="none" stroke="#63b8ff" d="M532.95,-220.75C532.66,-207.82 533.63,-183.43 543.42,-165.75 564.42,-127.8 605.73,-97.47 632.69,-80.59"/>
<polygon fill="#63b8ff" stroke="#63b8ff" points="634.22,-83.75 640.96,-75.57 630.59,-77.77 634.22,-83.75"/>
</a>
</g>
</g>
<!-- Node17&#45;&gt;Node12 -->
<g id="edge28_Node000017_Node000012" class="edge">
<title>Node17&#45;&gt;Node12</title>
<g id="a_edge28_Node000017_Node000012"><a xlink:title=" ">
<path fill="none" stroke="#63b8ff" d="M492.98,-220.51C462.22,-212.88 419.24,-200.73 383.42,-185 352.43,-171.4 319.37,-150.57 298.33,-136.43"/>
<polygon fill="#63b8ff" stroke="#63b8ff" points="300.51,-133.68 290.28,-130.94 296.57,-139.46 300.51,-133.68"/>
</a>
</g>
</g>
<!-- Node18 -->
<g id="Node000018" class="node">
<title>Node18</title>
<g id="a_Node000018"><a xlink:title=" ">
<polygon fill="#e0e0e0" stroke="#999999" points="610.42,-185 552.42,-185 552.42,-165.75 610.42,-165.75 610.42,-185"/>
<text xml:space="preserve" text-anchor="middle" x="581.42" y="-171.5" font-family="Helvetica,sans-Serif" font-size="10.00">functional</text>
</a>
</g>
</g>
<!-- Node17&#45;&gt;Node18 -->
<g id="edge27_Node000017_Node000018" class="edge">
<title>Node17&#45;&gt;Node18</title>
<g id="a_edge27_Node000017_Node000018"><a xlink:title=" ">
<path fill="none" stroke="#63b8ff" d="M541.34,-220.83C547.97,-213.48 557.63,-202.76 565.81,-193.69"/>
<polygon fill="#63b8ff" stroke="#63b8ff" points="568.21,-196.25 572.3,-186.48 563.01,-191.57 568.21,-196.25"/>
</a>
</g>
</g>
<!-- Node19 -->
<g id="Node000019" class="node">
<title>Node19</title>
<g id="a_Node000019"><a xlink:title=" ">
<polygon fill="#e0e0e0" stroke="#999999" points="746.54,-185 704.29,-185 704.29,-165.75 746.54,-165.75 746.54,-185"/>
<text xml:space="preserve" text-anchor="middle" x="725.42" y="-171.5" font-family="Helvetica,sans-Serif" font-size="10.00">queue</text>
</a>
</g>
</g>
<!-- Node17&#45;&gt;Node19 -->
<g id="edge29_Node000017_Node000019" class="edge">
<title>Node17&#45;&gt;Node19</title>
<g id="a_edge29_Node000017_Node000019"><a xlink:title=" ">
<path fill="none" stroke="#63b8ff" d="M565.99,-220.59C601.51,-210.74 658.02,-195.07 693.35,-185.27"/>
<polygon fill="#63b8ff" stroke="#63b8ff" points="693.86,-188.76 702.56,-182.71 691.99,-182.01 693.86,-188.76"/>
</a>
</g>
</g>
<!-- Node20 -->
<g id="Node000020" class="node">
<title>Node20</title>
<g id="a_Node000020"><a xlink:href="_named_value_table_8h.html" target="_top" xlink:title=" ">
<polygon fill="white" stroke="#666666" points="495.92,-185 392.92,-185 392.92,-165.75 495.92,-165.75 495.92,-185"/>
<text xml:space="preserve" text-anchor="middle" x="444.42" y="-171.5" font-family="Helvetica,sans-Serif" font-size="10.00">NamedValueTable.h</text>
</a>
</g>
</g>
<!-- Node17&#45;&gt;Node20 -->
<g id="edge30_Node000017_Node000020" class="edge">
<title>Node17&#45;&gt;Node20</title>
<g id="a_edge30_Node000017_Node000020"><a xlink:title=" ">
<path fill="none" stroke="#63b8ff" d="M518.32,-220.59C504.89,-212.56 485,-200.66 469.24,-191.23"/>
<polygon fill="#63b8ff" stroke="#63b8ff" points="471.26,-188.36 460.89,-186.23 467.67,-194.37 471.26,-188.36"/>
</a>
</g>
</g>
<!-- Node17&#45;&gt;Node22 -->
<g id="edge35_Node000017_Node000022" class="edge">
<title>Node17&#45;&gt;Node22</title>
<g id="a_edge35_Node000017_Node000022"><a xlink:title=" ">
<path fill="none" stroke="#63b8ff" d="M555.92,-220.65C574.08,-212.8 599.76,-200.27 619.42,-185 636.61,-171.65 652.78,-152.67 663.48,-138.87"/>
<polygon fill="#63b8ff" stroke="#63b8ff" points="666.11,-141.2 669.33,-131.1 660.52,-136.99 666.11,-141.2"/>
</a>
</g>
</g>
<!-- Node20&#45;&gt;Node12 -->
<g id="edge31_Node000020_Node000012" class="edge">
<title>Node20&#45;&gt;Node12</title>
<g id="a_edge31_Node000020_Node000012"><a xlink:title=" ">
<path fill="none" stroke="#63b8ff" d="M415.92,-165.34C386.32,-155.96 340.08,-141.3 309.04,-131.46"/>
<polygon fill="#63b8ff" stroke="#63b8ff" points="310.38,-128.22 299.79,-128.53 308.27,-134.89 310.38,-128.22"/>
</a>
</g>
</g>
<!-- Node21 -->
<g id="Node000021" class="node">
<title>Node21</title>
<g id="a_Node000021"><a xlink:href="_l_s_c_utils_8h.html" target="_top" xlink:title=" ">
<polygon fill="white" stroke="#666666" points="486.42,-129.75 422.42,-129.75 422.42,-110.5 486.42,-110.5 486.42,-129.75"/>
<text xml:space="preserve" text-anchor="middle" x="454.42" y="-116.25" font-family="Helvetica,sans-Serif" font-size="10.00">LSCUtils.h</text>
</a>
</g>
</g>
<!-- Node20&#45;&gt;Node21 -->
<g id="edge32_Node000020_Node000021" class="edge">
<title>Node20&#45;&gt;Node21</title>
<g id="a_edge32_Node000020_Node000021"><a xlink:title=" ">
<path fill="none" stroke="#63b8ff" d="M446.07,-165.58C447.3,-158.99 449.05,-149.71 450.62,-141.32"/>
<polygon fill="#63b8ff" stroke="#63b8ff" points="454.04,-142.07 452.45,-131.6 447.16,-140.78 454.04,-142.07"/>
</a>
</g>
</g>
<!-- Node20&#45;&gt;Node22 -->
<g id="edge34_Node000020_Node000022" class="edge">
<title>Node20&#45;&gt;Node22</title>
<g id="a_edge34_Node000020_Node000022"><a xlink:title=" ">
<path fill="none" stroke="#63b8ff" d="M484.03,-165.28C523.24,-156.28 583.4,-142.48 625.99,-132.7"/>
<polygon fill="#63b8ff" stroke="#63b8ff" points="626.52,-136.17 635.49,-130.52 624.96,-129.35 626.52,-136.17"/>
</a>
</g>
</g>
<!-- Node21&#45;&gt;Node5 -->
<g id="edge33_Node000021_Node000005" class="edge">
<title>Node21&#45;&gt;Node5</title>
<g id="a_edge33_Node000021_Node000005"><a xlink:title=" ">
<path fill="none" stroke="#63b8ff" d="M486.74,-110.69C521.92,-101.51 578.27,-86.8 616.74,-76.75"/>
<polygon fill="#63b8ff" stroke="#63b8ff" points="617.32,-80.22 626.11,-74.31 615.55,-73.45 617.32,-80.22"/>
</a>
</g>
</g>
<!-- Node24&#45;&gt;Node17 -->
<g id="edge39_Node000024_Node000017" class="edge">
<title>Node24&#45;&gt;Node17</title>
<g id="a_edge39_Node000024_Node000017"><a xlink:title=" ">
<path fill="none" stroke="#63b8ff" d="M533.42,-276.08C533.42,-269.57 533.42,-260.42 533.42,-252.12"/>
<polygon fill="#63b8ff" stroke="#63b8ff" points="536.92,-252.12 533.42,-242.12 529.92,-252.12 536.92,-252.12"/>
</a>
</g>
</g>
<!-- Node24&#45;&gt;Node23 -->
<g id="edge40_Node000024_Node000023" class="edge">
<title>Node24&#45;&gt;Node23</title>
<g id="a_edge40_Node000024_Node000023"><a xlink:title=" ">
<path fill="none" stroke="#63b8ff" d="M519.17,-275.84C506.62,-267.89 488.08,-256.14 473.27,-246.75"/>
<polygon fill="#63b8ff" stroke="#63b8ff" points="475.33,-243.91 465.01,-241.51 471.59,-249.82 475.33,-243.91"/>
</a>
</g>
</g>
<!-- Node25 -->
<g id="Node000025" class="node">
<title>Node25</title>
<g id="a_Node000025"><a xlink:title=" ">
<polygon fill="#e0e0e0" stroke="#999999" points="644.04,-240.25 592.79,-240.25 592.79,-221 644.04,-221 644.04,-240.25"/>
<text xml:space="preserve" text-anchor="middle" x="618.42" y="-226.75" font-family="Helvetica,sans-Serif" font-size="10.00">stdarg.h</text>
</a>
</g>
</g>
<!-- Node24&#45;&gt;Node25 -->
<g id="edge38_Node000024_Node000025" class="edge">
<title>Node24&#45;&gt;Node25</title>
<g id="a_edge38_Node000024_Node000025"><a xlink:title=" ">
<path fill="none" stroke="#63b8ff" d="M547.83,-275.84C560.53,-267.89 579.29,-256.14 594.27,-246.75"/>
<polygon fill="#63b8ff" stroke="#63b8ff" points="596.03,-249.78 602.64,-241.51 592.31,-243.85 596.03,-249.78"/>
</a>
</g>
</g>
<!-- Node26&#45;&gt;Node12 -->
<g id="edge43_Node000026_Node000012" class="edge">
<title>Node26&#45;&gt;Node12</title>
<g id="a_edge43_Node000026_Node000012"><a xlink:title=" ">
<path fill="none" stroke="#63b8ff" d="M292.5,-276.07C289.87,-250.75 282.24,-177.25 278.51,-141.34"/>
<polygon fill="#63b8ff" stroke="#63b8ff" points="282,-141.06 277.49,-131.48 275.04,-141.79 282,-141.06"/>
</a>
</g>
</g>
<!-- Node26&#45;&gt;Node16 -->
<g id="edge42_Node000026_Node000016" class="edge">
<title>Node26&#45;&gt;Node16</title>
<g id="a_edge42_Node000026_Node000016"><a xlink:title=" ">
<path fill="none" stroke="#63b8ff" d="M274.93,-275.84C258.01,-267.58 232.73,-255.23 213.18,-245.68"/>
<polygon fill="#63b8ff" stroke="#63b8ff" points="214.88,-242.61 204.36,-241.37 211.81,-248.9 214.88,-242.61"/>
</a>
</g>
</g>
<!-- Node27&#45;&gt;Node5 -->
<g id="edge46_Node000027_Node000005" class="edge">
<title>Node27&#45;&gt;Node5</title>
<g id="a_edge46_Node000027_Node000005"><a xlink:title=" ">
<path fill="none" stroke="#63b8ff" d="M984.95,-220.73C983.28,-198.29 975.56,-139.11 940.42,-110.5 904.35,-81.14 769.65,-70.84 700.28,-67.44"/>
<polygon fill="#63b8ff" stroke="#63b8ff" points="700.59,-63.95 690.44,-66.99 700.27,-70.94 700.59,-63.95"/>
</a>
</g>
</g>
<!-- Node28&#45;&gt;Node5 -->
<g id="edge48_Node000028_Node000005" class="edge">
<title>Node28&#45;&gt;Node5</title>
<g id="a_edge48_Node000028_Node000005"><a xlink:title=" ">
<path fill="none" stroke="#63b8ff" d="M816.15,-275.84C819.6,-266.96 824.47,-252.93 826.42,-240.25 831.57,-206.58 827.7,-193.83 808.42,-165.75 779.61,-123.79 726.84,-94.83 692.2,-79.29"/>
<polygon fill="#63b8ff" stroke="#63b8ff" points="694.03,-76.27 683.47,-75.5 691.25,-82.69 694.03,-76.27"/>
</a>
</g>
</g>
<!-- Node28&#45;&gt;Node11 -->
<g id="edge52_Node000028_Node000011" class="edge">
<title>Node28&#45;&gt;Node11</title>
<g id="a_edge52_Node000028_Node000011"><a xlink:title=" ">
<path fill="none" stroke="#63b8ff" d="M774.73,-283.39C673.81,-279.11 399.25,-265.44 312.42,-240.25 274.73,-229.32 235.08,-206.64 211.04,-191.46"/>
<polygon fill="#63b8ff" stroke="#63b8ff" points="213.03,-188.57 202.73,-186.1 209.23,-194.46 213.03,-188.57"/>
</a>
</g>
</g>
<!-- Node28&#45;&gt;Node17 -->
<g id="edge49_Node000028_Node000017" class="edge">
<title>Node28&#45;&gt;Node17</title>
<g id="a_edge49_Node000028_Node000017"><a xlink:title=" ">
<path fill="none" stroke="#63b8ff" d="M774.79,-277.69C726.19,-268.42 641.31,-252.22 586.25,-241.71"/>
<polygon fill="#63b8ff" stroke="#63b8ff" points="586.95,-238.28 576.47,-239.84 585.64,-245.15 586.95,-238.28"/>
</a>
</g>
</g>
<!-- Node28&#45;&gt;Node19 -->
<g id="edge55_Node000028_Node000019" class="edge">
<title>Node28&#45;&gt;Node19</title>
<g id="a_edge55_Node000028_Node000019"><a xlink:title=" ">
<path fill="none" stroke="#63b8ff" d="M805.3,-276C791.02,-258.19 758.66,-217.83 739.8,-194.31"/>
<polygon fill="#63b8ff" stroke="#63b8ff" points="742.57,-192.17 733.58,-186.56 737.11,-196.55 742.57,-192.17"/>
</a>
</g>
</g>
<!-- Node28&#45;&gt;Node22 -->
<g id="edge54_Node000028_Node000022" class="edge">
<title>Node28&#45;&gt;Node22</title>
<g id="a_edge54_Node000028_Node000022"><a xlink:title=" ">
<path fill="none" stroke="#63b8ff" d="M813.28,-275.9C814.87,-254.27 815.85,-198.64 788.42,-165.75 775.64,-150.43 756.85,-140.34 738.31,-133.69"/>
<polygon fill="#63b8ff" stroke="#63b8ff" points="739.49,-130.4 728.9,-130.64 737.33,-137.06 739.49,-130.4"/>
</a>
</g>
</g>
<!-- Node28&#45;&gt;Node27 -->
<g id="edge53_Node000028_Node000027" class="edge">
<title>Node28&#45;&gt;Node27</title>
<g id="a_edge53_Node000028_Node000027"><a xlink:title=" ">
<path fill="none" stroke="#63b8ff" d="M841.76,-275.84C870.22,-267.08 913.62,-253.73 945.26,-243.98"/>
<polygon fill="#63b8ff" stroke="#63b8ff" points="945.95,-247.43 954.48,-241.15 943.89,-240.74 945.95,-247.43"/>
</a>
</g>
</g>
<!-- Node29 -->
<g id="Node000029" class="node">
<title>Node29</title>
<g id="a_Node000029"><a xlink:href="_simple_delay_8h.html" target="_top" xlink:title=" ">
<polygon fill="white" stroke="#666666" points="898.54,-129.75 820.29,-129.75 820.29,-110.5 898.54,-110.5 898.54,-129.75"/>
<text xml:space="preserve" text-anchor="middle" x="859.42" y="-116.25" font-family="Helvetica,sans-Serif" font-size="10.00">SimpleDelay.h</text>
</a>
</g>
</g>
<!-- Node28&#45;&gt;Node29 -->
<g id="edge50_Node000028_Node000029" class="edge">
<title>Node28&#45;&gt;Node29</title>
<g id="a_edge50_Node000028_Node000029"><a xlink:title=" ">
<path fill="none" stroke="#63b8ff" d="M829.2,-275.82C841.49,-268.16 857.21,-255.92 864.42,-240.25 879.21,-208.06 871.99,-165.66 865.57,-141.09"/>
<polygon fill="#63b8ff" stroke="#63b8ff" points="868.94,-140.13 862.83,-131.48 862.21,-142.06 868.94,-140.13"/>
</a>
</g>
</g>
<!-- Node29&#45;&gt;Node5 -->
<g id="edge51_Node000029_Node000005" class="edge">
<title>Node29&#45;&gt;Node5</title>
<g id="a_edge51_Node000029_Node000005"><a xlink:title=" ">
<path fill="none" stroke="#63b8ff" d="M825.32,-110.09C790.81,-100.95 737.39,-86.8 700.32,-76.98"/>
<polygon fill="#63b8ff" stroke="#63b8ff" points="701.4,-73.64 690.84,-74.46 699.61,-80.41 701.4,-73.64"/>
</a>
</g>
</g>
<!-- Node30&#45;&gt;Node5 -->
<g id="edge57_Node000030_Node000005" class="edge">
<title>Node30&#45;&gt;Node5</title>
<g id="a_edge57_Node000030_Node000005"><a xlink:title=" ">
<path fill="none" stroke="#63b8ff" d="M1083.13,-276.1C1071.7,-246.85 1030.54,-152.19 962.42,-110.5 919.37,-84.16 773.88,-72.38 700.9,-68.02"/>
<polygon fill="#63b8ff" stroke="#63b8ff" points="701.11,-64.53 690.93,-67.45 700.71,-71.52 701.11,-64.53"/>
</a>
</g>
</g>
<!-- Node30&#45;&gt;Node27 -->
<g id="edge58_Node000030_Node000027" class="edge">
<title>Node30&#45;&gt;Node27</title>
<g id="a_edge58_Node000030_Node000027"><a xlink:title=" ">
<path fill="none" stroke="#63b8ff" d="M1069.28,-275.84C1053.76,-267.66 1030.62,-255.46 1012.57,-245.94"/>
<polygon fill="#63b8ff" stroke="#63b8ff" points="1014.45,-242.98 1003.97,-241.41 1011.19,-249.17 1014.45,-242.98"/>
</a>
</g>
</g>
<!-- Node32 -->
<g id="Node000032" class="node">
<title>Node32</title>
<g id="a_Node000032"><a xlink:href="_a_e_s_cryptor_8h.html" target="_top" xlink:title=" ">
<polygon fill="white" stroke="#666666" points="1057.42,-350.75 981.42,-350.75 981.42,-331.5 1057.42,-331.5 1057.42,-350.75"/>
<text xml:space="preserve" text-anchor="middle" x="1019.42" y="-337.25" font-family="Helvetica,sans-Serif" font-size="10.00">AESCryptor.h</text>
</a>
</g>
</g>
<!-- Node31&#45;&gt;Node32 -->
<g id="edge60_Node000031_Node000032" class="edge">
<title>Node31&#45;&gt;Node32</title>
<g id="a_edge60_Node000031_Node000032"><a xlink:title=" ">
<path fill="none" stroke="#63b8ff" d="M1016.91,-386.58C1017.28,-379.99 1017.81,-370.71 1018.28,-362.32"/>
<polygon fill="#63b8ff" stroke="#63b8ff" points="1021.76,-362.8 1018.82,-352.62 1014.77,-362.41 1021.76,-362.8"/>
</a>
</g>
</g>
<!-- Node32&#45;&gt;Node3 -->
<g id="edge61_Node000032_Node000003" class="edge">
<title>Node32&#45;&gt;Node3</title>
<g id="a_edge61_Node000032_Node000003"><a xlink:title=" ">
<path fill="none" stroke="#63b8ff" d="M1011.65,-331.33C1005.23,-324.05 995.9,-313.48 987.95,-304.48"/>
<polygon fill="#63b8ff" stroke="#63b8ff" points="990.59,-302.18 981.35,-296.99 985.34,-306.81 990.59,-302.18"/>
</a>
</g>
</g>
<!-- Node32&#45;&gt;Node27 -->
<g id="edge62_Node000032_Node000027" class="edge">
<title>Node32&#45;&gt;Node27</title>
<g id="a_edge62_Node000032_Node000027"><a xlink:title=" ">
<path fill="none" stroke="#63b8ff" d="M1019.19,-331.21C1018.65,-318.64 1016.79,-295.14 1010.42,-276.25 1007.41,-267.33 1002.6,-258.14 998,-250.44"/>
<polygon fill="#63b8ff" stroke="#63b8ff" points="1000.97,-248.58 992.66,-242 995.05,-252.32 1000.97,-248.58"/>
</a>
</g>
</g>
<!-- Node33&#45;&gt;Node5 -->
<g id="edge65_Node000033_Node000005" class="edge">
<title>Node33&#45;&gt;Node5</title>
<g id="a_edge65_Node000033_Node000005"><a xlink:title=" ">
<path fill="none" stroke="#63b8ff" d="M1164.47,-276.03C1144.13,-246.57 1073.87,-151.34 989.42,-110.5 939.27,-86.25 777.94,-73.26 700.57,-68.29"/>
<polygon fill="#63b8ff" stroke="#63b8ff" points="701.06,-64.82 690.86,-67.69 700.62,-71.8 701.06,-64.82"/>
</a>
</g>
</g>
<!-- Node33&#45;&gt;Node10 -->
<g id="edge66_Node000033_Node000010" class="edge">
<title>Node33&#45;&gt;Node10</title>
<g id="a_edge66_Node000033_Node000010"><a xlink:title=" ">
<path fill="none" stroke="#63b8ff" d="M1133.07,-277.44C1130.15,-276.99 1127.24,-276.59 1124.42,-276.25 815.2,-239.57 731.62,-273.27 418.99,-240.39"/>
<polygon fill="#63b8ff" stroke="#63b8ff" points="419.6,-236.94 409.28,-239.36 418.85,-243.9 419.6,-236.94"/>
</a>
</g>
</g>
<!-- Node34 -->
<g id="Node000034" class="node">
<title>Node34</title>
<g id="a_Node000034"><a xlink:title=" ">
<polygon fill="#e0e0e0" stroke="#999999" points="1188.92,-240.25 1151.92,-240.25 1151.92,-221 1188.92,-221 1188.92,-240.25"/>
<text xml:space="preserve" text-anchor="middle" x="1170.42" y="-226.75" font-family="Helvetica,sans-Serif" font-size="10.00">FS.h</text>
</a>
</g>
</g>
<!-- Node33&#45;&gt;Node34 -->
<g id="edge64_Node000033_Node000034" class="edge">
<title>Node33&#45;&gt;Node34</title>
<g id="a_edge64_Node000033_Node000034"><a xlink:title=" ">
<path fill="none" stroke="#63b8ff" d="M1170.42,-276.08C1170.42,-269.57 1170.42,-260.42 1170.42,-252.12"/>
<polygon fill="#63b8ff" stroke="#63b8ff" points="1173.92,-252.12 1170.42,-242.12 1166.92,-252.12 1173.92,-252.12"/>
</a>
</g>
</g>
</g>
</svg>
