<?xml version="1.0" encoding="UTF-8" standalone="no"?>
<!DOCTYPE svg PUBLIC "-//W3C//DTD SVG 1.1//EN"
 "http://www.w3.org/Graphics/SVG/1.1/DTD/svg11.dtd">
<!-- Generated by graphviz version 15.1.0 (20260618.0150)
 -->
<!-- Title: src/CWiFiController.cpp Pages: 1 -->
<svg width="893pt" height="469pt"
 viewBox="0.00 0.00 893.00 469.00" xmlns="http://www.w3.org/2000/svg" xmlns:xlink="http://www.w3.org/1999/xlink">
<g id="graph0" class="graph" transform="scale(1 1) rotate(0) translate(4 465.25)">
<title>src/CWiFiController.cpp</title>
<!-- Node1 -->
<g id="Node000001" class="node">
<title>Node1</title>
<g id="a_Node000001"><a xlink:title=" ">
<polygon fill="#999999" stroke="#666666" points="600.62,-461.25 480.38,-461.25 480.38,-442 600.62,-442 600.62,-461.25"/>
<text xml:space="preserve" text-anchor="middle" x="540.5" y="-447.75" font-family="Helvetica,sans-Serif" font-size="10.00">src/CWiFiController.cpp</text>
</a>
</g>
</g>
<!-- Node2 -->
<g id="Node000002" class="node">
<title>Node2</title>
<g id="a_Node000002"><a xlink:href="_appl_8h.html" target="_top" xlink:title="Application Main Class.">
<polygon fill="white" stroke="#666666" points="441.38,-350.75 397.62,-350.75 397.62,-331.5 441.38,-331.5 441.38,-350.75"/>
<text xml:space="preserve" text-anchor="middle" x="419.5" y="-337.25" font-family="Helvetica,sans-Serif" font-size="10.00">Appl.h</text>
</a>
</g>
</g>
<!-- Node1&#45;&gt;Node2 -->
<g id="edge1_Node000001_Node000002" class="edge">
<title>Node1&#45;&gt;Node2</title>
<g id="a_edge1_Node000001_Node000002"><a xlink:title=" ">
<path fill="none" stroke="#63b8ff" d="M530.6,-441.75C510.3,-423.55 463.71,-381.77 437.77,-358.51"/>
<polygon fill="#63b8ff" stroke="#63b8ff" points="440.45,-356.21 430.67,-352.14 435.77,-361.42 440.45,-356.21"/>
</a>
</g>
</g>
<!-- Node15 -->
<g id="Node000015" class="node">
<title>Node15</title>
<g id="a_Node000015"><a xlink:href="_event_handler_8h.html" target="_top" xlink:title=" ">
<polygon fill="white" stroke="#666666" points="689.88,-240.25 607.12,-240.25 607.12,-221 689.88,-221 689.88,-240.25"/>
<text xml:space="preserve" text-anchor="middle" x="648.5" y="-226.75" font-family="Helvetica,sans-Serif" font-size="10.00">EventHandler.h</text>
</a>
</g>
</g>
<!-- Node1&#45;&gt;Node15 -->
<g id="edge44_Node000001_Node000015" class="edge">
<title>Node1&#45;&gt;Node15</title>
<g id="a_edge44_Node000001_Node000015"><a xlink:title=" ">
<path fill="none" stroke="#63b8ff" d="M544.87,-441.77C560.91,-409.23 616.83,-295.84 639.17,-250.54"/>
<polygon fill="#63b8ff" stroke="#63b8ff" points="642.24,-252.23 643.53,-241.71 635.97,-249.13 642.24,-252.23"/>
</a>
</g>
</g>
<!-- Node19 -->
<g id="Node000019" class="node">
<title>Node19</title>
<g id="a_Node000019"><a xlink:href="_l_s_c_utils_8h.html" target="_top" xlink:title=" ">
<polygon fill="white" stroke="#666666" points="457.5,-129.75 393.5,-129.75 393.5,-110.5 457.5,-110.5 457.5,-129.75"/>
<text xml:space="preserve" text-anchor="middle" x="425.5" y="-116.25" font-family="Helvetica,sans-Serif" font-size="10.00">LSCUtils.h</text>
</a>
</g>
</g>
<!-- Node1&#45;&gt;Node19 -->
<g id="edge53_Node000001_Node000019" class="edge">
<title>Node1&#45;&gt;Node19</title>
<g id="a_edge53_Node000001_Node000019"><a xlink:title=" ">
<path fill="none" stroke="#63b8ff" d="M480.05,-450.77C341.62,-449.48 13.5,-436.47 13.5,-342.12 13.5,-342.12 13.5,-342.12 13.5,-229.62 13.5,-154.05 276,-130 381.94,-123.36"/>
<polygon fill="#63b8ff" stroke="#63b8ff" points="381.89,-126.87 391.66,-122.78 381.47,-119.89 381.89,-126.87"/>
</a>
</g>
</g>
<!-- Node21 -->
<g id="Node000021" class="node">
<title>Node21</title>
<g id="a_Node000021"><a xlink:href="_msgs_8h.html" target="_top" xlink:title=" ">
<polygon fill="white" stroke="#666666" points="825.62,-240.25 777.38,-240.25 777.38,-221 825.62,-221 825.62,-240.25"/>
<text xml:space="preserve" text-anchor="middle" x="801.5" y="-226.75" font-family="Helvetica,sans-Serif" font-size="10.00">Msgs.h</text>
</a>
</g>
</g>
<!-- Node1&#45;&gt;Node21 -->
<g id="edge43_Node000001_Node000021" class="edge">
<title>Node1&#45;&gt;Node21</title>
<g id="a_edge43_Node000001_Node000021"><a xlink:title=" ">
<path fill="none" stroke="#63b8ff" d="M600.96,-444.48C658.68,-435.04 742.58,-411.13 782.5,-350.75 802.37,-320.7 804.11,-277.25 803.12,-251.97"/>
<polygon fill="#63b8ff" stroke="#63b8ff" points="806.62,-251.86 802.53,-242.09 799.63,-252.28 806.62,-251.86"/>
</a>
</g>
</g>
<!-- Node25 -->
<g id="Node000025" class="node">
<title>Node25</title>
<g id="a_Node000025"><a xlink:href="_json_helper_8h.html" target="_top" xlink:title=" ">
<polygon fill="white" stroke="#666666" points="685,-406 612,-406 612,-386.75 685,-386.75 685,-406"/>
<text xml:space="preserve" text-anchor="middle" x="648.5" y="-392.5" font-family="Helvetica,sans-Serif" font-size="10.00">JsonHelper.h</text>
</a>
</g>
</g>
<!-- Node1&#45;&gt;Node25 -->
<g id="edge45_Node000001_Node000025" class="edge">
<title>Node1&#45;&gt;Node25</title>
<g id="a_edge45_Node000001_Node000025"><a xlink:title=" ">
<path fill="none" stroke="#63b8ff" d="M558.82,-441.59C575.58,-433.33 600.63,-420.98 620,-411.43"/>
<polygon fill="#63b8ff" stroke="#63b8ff" points="621.31,-414.68 628.73,-407.12 618.22,-408.4 621.31,-414.68"/>
</a>
</g>
</g>
<!-- Node28 -->
<g id="Node000028" class="node">
<title>Node28</title>
<g id="a_Node000028"><a xlink:href="_wi_fi_controller_8h.html" target="_top" xlink:title="WiFi Controller to handle Access Point and Station Mode.">
<polygon fill="white" stroke="#666666" points="319.38,-406 233.62,-406 233.62,-386.75 319.38,-386.75 319.38,-406"/>
<text xml:space="preserve" text-anchor="middle" x="276.5" y="-392.5" font-family="Helvetica,sans-Serif" font-size="10.00">WiFiController.h</text>
</a>
</g>
</g>
<!-- Node1&#45;&gt;Node28 -->
<g id="edge48_Node000001_Node000028" class="edge">
<title>Node1&#45;&gt;Node28</title>
<g id="a_edge48_Node000001_Node000028"><a xlink:title=" ">
<path fill="none" stroke="#63b8ff" d="M495.42,-441.53C449.88,-432.35 379.5,-418.15 330.89,-408.35"/>
<polygon fill="#63b8ff" stroke="#63b8ff" points="331.62,-404.92 321.13,-406.38 330.24,-411.79 331.62,-404.92"/>
</a>
</g>
</g>
<!-- Node3 -->
<g id="Node000003" class="node">
<title>Node3</title>
<g id="a_Node000003"><a xlink:href="_runtime_8h.html" target="_top" xlink:title=" ">
<polygon fill="white" stroke="#666666" points="306,-74.5 245,-74.5 245,-55.25 306,-55.25 306,-74.5"/>
<text xml:space="preserve" text-anchor="middle" x="275.5" y="-61" font-family="Helvetica,sans-Serif" font-size="10.00">Runtime.h</text>
</a>
</g>
</g>
<!-- Node2&#45;&gt;Node3 -->
<g id="edge2_Node000002_Node000003" class="edge">
<title>Node2&#45;&gt;Node3</title>
<g id="a_edge2_Node000002_Node000003"><a xlink:title=" ">
<path fill="none" stroke="#63b8ff" d="M397.34,-337.72C323.35,-329.07 89.5,-296.61 89.5,-231.62 89.5,-231.62 89.5,-231.62 89.5,-174.38 89.5,-108.06 178.8,-81.55 233.65,-71.53"/>
<polygon fill="#63b8ff" stroke="#63b8ff" points="234.02,-75.01 243.29,-69.88 232.85,-68.11 234.02,-75.01"/>
</a>
</g>
</g>
<!-- Node7 -->
<g id="Node000007" class="node">
<title>Node7</title>
<g id="a_Node000007"><a xlink:href="_sys_status_8h.html" target="_top" xlink:title=" ">
<polygon fill="white" stroke="#666666" points="304.5,-295.5 234.5,-295.5 234.5,-276.25 304.5,-276.25 304.5,-295.5"/>
<text xml:space="preserve" text-anchor="middle" x="269.5" y="-282" font-family="Helvetica,sans-Serif" font-size="10.00">SysStatus.h</text>
</a>
</g>
</g>
<!-- Node2&#45;&gt;Node7 -->
<g id="edge6_Node000002_Node000007" class="edge">
<title>Node2&#45;&gt;Node7</title>
<g id="a_edge6_Node000002_Node000007"><a xlink:title=" ">
<path fill="none" stroke="#63b8ff" d="M397.37,-332.27C373.27,-323.71 334.34,-309.89 305.77,-299.75"/>
<polygon fill="#63b8ff" stroke="#63b8ff" points="307.01,-296.48 296.42,-296.43 304.67,-303.07 307.01,-296.48"/>
</a>
</g>
</g>
<!-- Node9 -->
<g id="Node000009" class="node">
<title>Node9</title>
<g id="a_Node000009"><a xlink:href="_json_node_8h.html" target="_top" xlink:title=" ">
<polygon fill="white" stroke="#666666" points="346.75,-185 278.25,-185 278.25,-165.75 346.75,-165.75 346.75,-185"/>
<text xml:space="preserve" text-anchor="middle" x="312.5" y="-171.5" font-family="Helvetica,sans-Serif" font-size="10.00">JsonNode.h</text>
</a>
</g>
</g>
<!-- Node2&#45;&gt;Node9 -->
<g id="edge16_Node000002_Node000009" class="edge">
<title>Node2&#45;&gt;Node9</title>
<g id="a_edge16_Node000002_Node000009"><a xlink:title=" ">
<path fill="none" stroke="#63b8ff" d="M413.28,-331.27C406.99,-322.28 397.01,-307.97 388.5,-295.5 371.85,-271.09 367.43,-265.14 351.5,-240.25 341.76,-225.03 331.1,-207.5 323.38,-194.66"/>
<polygon fill="#63b8ff" stroke="#63b8ff" points="326.6,-193.21 318.46,-186.42 320.59,-196.8 326.6,-193.21"/>
</a>
</g>
</g>
<!-- Node13 -->
<g id="Node000013" class="node">
<title>Node13</title>
<g id="a_Node000013"><a xlink:href="_module_interface_8h.html" target="_top" xlink:title="Full Interface for a module and an abstract basic module implementation.">
<polygon fill="white" stroke="#666666" points="553.5,-295.5 459.5,-295.5 459.5,-276.25 553.5,-276.25 553.5,-295.5"/>
<text xml:space="preserve" text-anchor="middle" x="506.5" y="-282" font-family="Helvetica,sans-Serif" font-size="10.00">ModuleInterface.h</text>
</a>
</g>
</g>
<!-- Node2&#45;&gt;Node13 -->
<g id="edge17_Node000002_Node000013" class="edge">
<title>Node2&#45;&gt;Node13</title>
<g id="a_edge17_Node000002_Node000013"><a xlink:title=" ">
<path fill="none" stroke="#63b8ff" d="M434.26,-331.09C447.38,-323.06 466.82,-311.16 482.23,-301.73"/>
<polygon fill="#63b8ff" stroke="#63b8ff" points="483.68,-304.95 490.38,-296.74 480.02,-298.98 483.68,-304.95"/>
</a>
</g>
</g>
<!-- Node20 -->
<g id="Node000020" class="node">
<title>Node20</title>
<g id="a_Node000020"><a xlink:href="_development_helper_8h.html" target="_top" xlink:title=" ">
<polygon fill="white" stroke="#666666" points="855.38,-129.75 745.62,-129.75 745.62,-110.5 855.38,-110.5 855.38,-129.75"/>
<text xml:space="preserve" text-anchor="middle" x="800.5" y="-116.25" font-family="Helvetica,sans-Serif" font-size="10.00">DevelopmentHelper.h</text>
</a>
</g>
</g>
<!-- Node2&#45;&gt;Node20 -->
<g id="edge42_Node000002_Node000020" class="edge">
<title>Node2&#45;&gt;Node20</title>
<g id="a_edge42_Node000002_Node000020"><a xlink:title=" ">
<path fill="none" stroke="#63b8ff" d="M441.8,-339.46C493.46,-337.38 624.81,-328.94 728.5,-295.5 779.06,-279.19 793.32,-273.82 834.5,-240.25 864.48,-215.81 899,-199.16 879.5,-165.75 871.26,-151.63 856.71,-141.62 842.33,-134.71"/>
<polygon fill="#63b8ff" stroke="#63b8ff" points="843.93,-131.59 833.36,-130.82 841.14,-138.02 843.93,-131.59"/>
</a>
</g>
</g>
<!-- Node22 -->
<g id="Node000022" class="node">
<title>Node22</title>
<g id="a_Node000022"><a xlink:href="_logging_8h.html" target="_top" xlink:title=" ">
<polygon fill="white" stroke="#666666" points="719.5,-295.5 661.5,-295.5 661.5,-276.25 719.5,-276.25 719.5,-295.5"/>
<text xml:space="preserve" text-anchor="middle" x="690.5" y="-282" font-family="Helvetica,sans-Serif" font-size="10.00">Logging.h</text>
</a>
</g>
</g>
<!-- Node2&#45;&gt;Node22 -->
<g id="edge35_Node000002_Node000022" class="edge">
<title>Node2&#45;&gt;Node22</title>
<g id="a_edge35_Node000002_Node000022"><a xlink:title=" ">
<path fill="none" stroke="#63b8ff" d="M441.68,-335.77C487.21,-326.82 591.82,-306.27 649.85,-294.86"/>
<polygon fill="#63b8ff" stroke="#63b8ff" points="650.53,-298.3 659.66,-292.93 649.18,-291.43 650.53,-298.3"/>
</a>
</g>
</g>
<!-- Node24 -->
<g id="Node000024" class="node">
<title>Node24</title>
<g id="a_Node000024"><a xlink:href="_vars_8h.html" target="_top" xlink:title=" ">
<polygon fill="white" stroke="#666666" points="441.38,-295.5 397.62,-295.5 397.62,-276.25 441.38,-276.25 441.38,-295.5"/>
<text xml:space="preserve" text-anchor="middle" x="419.5" y="-282" font-family="Helvetica,sans-Serif" font-size="10.00">Vars.h</text>
</a>
</g>
</g>
<!-- Node2&#45;&gt;Node24 -->
<g id="edge39_Node000002_Node000024" class="edge">
<title>Node2&#45;&gt;Node24</title>
<g id="a_edge39_Node000002_Node000024"><a xlink:title=" ">
<path fill="none" stroke="#63b8ff" d="M419.5,-331.33C419.5,-324.82 419.5,-315.67 419.5,-307.37"/>
<polygon fill="#63b8ff" stroke="#63b8ff" points="423,-307.37 419.5,-297.37 416,-307.37 423,-307.37"/>
</a>
</g>
</g>
<!-- Node4 -->
<g id="Node000004" class="node">
<title>Node4</title>
<g id="a_Node000004"><a xlink:title=" ">
<polygon fill="#e0e0e0" stroke="#999999" points="234.62,-19.25 186.38,-19.25 186.38,0 234.62,0 234.62,-19.25"/>
<text xml:space="preserve" text-anchor="middle" x="210.5" y="-5.75" font-family="Helvetica,sans-Serif" font-size="10.00">string.h</text>
</a>
</g>
</g>
<!-- Node3&#45;&gt;Node4 -->
<g id="edge3_Node000003_Node000004" class="edge">
<title>Node3&#45;&gt;Node4</title>
<g id="a_edge3_Node000003_Node000004"><a xlink:title=" ">
<path fill="none" stroke="#63b8ff" d="M264.47,-54.84C255.08,-47.15 241.35,-35.9 230.09,-26.68"/>
<polygon fill="#63b8ff" stroke="#63b8ff" points="232.49,-24.11 222.53,-20.48 228.05,-29.53 232.49,-24.11"/>
</a>
</g>
</g>
<!-- Node5 -->
<g id="Node000005" class="node">
<title>Node5</title>
<g id="a_Node000005"><a xlink:title=" ">
<polygon fill="#e0e0e0" stroke="#999999" points="298.12,-19.25 252.88,-19.25 252.88,0 298.12,0 298.12,-19.25"/>
<text xml:space="preserve" text-anchor="middle" x="275.5" y="-5.75" font-family="Helvetica,sans-Serif" font-size="10.00">chrono</text>
</a>
</g>
</g>
<!-- Node3&#45;&gt;Node5 -->
<g id="edge4_Node000003_Node000005" class="edge">
<title>Node3&#45;&gt;Node5</title>
<g id="a_edge4_Node000003_Node000005"><a xlink:title=" ">
<path fill="none" stroke="#63b8ff" d="M275.5,-55.08C275.5,-48.57 275.5,-39.42 275.5,-31.12"/>
<polygon fill="#63b8ff" stroke="#63b8ff" points="279,-31.12 275.5,-21.12 272,-31.12 279,-31.12"/>
</a>
</g>
</g>
<!-- Node6 -->
<g id="Node000006" class="node">
<title>Node6</title>
<g id="a_Node000006"><a xlink:title=" ">
<polygon fill="#e0e0e0" stroke="#999999" points="369.25,-19.25 315.75,-19.25 315.75,0 369.25,0 369.25,-19.25"/>
<text xml:space="preserve" text-anchor="middle" x="342.5" y="-5.75" font-family="Helvetica,sans-Serif" font-size="10.00">iostream</text>
</a>
</g>
</g>
<!-- Node3&#45;&gt;Node6 -->
<g id="edge5_Node000003_Node000006" class="edge">
<title>Node3&#45;&gt;Node6</title>
<g id="a_edge5_Node000003_Node000006"><a xlink:title=" ">
<path fill="none" stroke="#63b8ff" d="M286.87,-54.84C296.55,-47.15 310.7,-35.9 322.31,-26.68"/>
<polygon fill="#63b8ff" stroke="#63b8ff" points="324.47,-29.43 330.12,-20.47 320.11,-23.95 324.47,-29.43"/>
</a>
</g>
</g>
<!-- Node7&#45;&gt;Node3 -->
<g id="edge7_Node000007_Node000003" class="edge">
<title>Node7&#45;&gt;Node3</title>
<g id="a_edge7_Node000007_Node000003"><a xlink:title=" ">
<path fill="none" stroke="#63b8ff" d="M234.41,-275.94C216.12,-269.31 195.36,-258.22 184.5,-240.25 180.07,-232.93 182.26,-229.26 184.5,-221 199.37,-166.26 238.97,-111.08 260.71,-83.66"/>
<polygon fill="#63b8ff" stroke="#63b8ff" points="263.3,-86.02 266.88,-76.04 257.86,-81.61 263.3,-86.02"/>
</a>
</g>
</g>
<!-- Node8 -->
<g id="Node000008" class="node">
<title>Node8</title>
<g id="a_Node000008"><a xlink:href="_status_handler_8h.html" target="_top" xlink:title=" ">
<polygon fill="white" stroke="#666666" points="446.38,-240.25 360.62,-240.25 360.62,-221 446.38,-221 446.38,-240.25"/>
<text xml:space="preserve" text-anchor="middle" x="403.5" y="-226.75" font-family="Helvetica,sans-Serif" font-size="10.00">StatusHandler.h</text>
</a>
</g>
</g>
<!-- Node7&#45;&gt;Node8 -->
<g id="edge8_Node000007_Node000008" class="edge">
<title>Node7&#45;&gt;Node8</title>
<g id="a_edge8_Node000007_Node000008"><a xlink:title=" ">
<path fill="none" stroke="#63b8ff" d="M292.23,-275.84C313.6,-267.35 345.84,-254.54 370.13,-244.89"/>
<polygon fill="#63b8ff" stroke="#63b8ff" points="371.25,-248.21 379.25,-241.26 368.66,-241.7 371.25,-248.21"/>
</a>
</g>
</g>
<!-- Node11 -->
<g id="Node000011" class="node">
<title>Node11</title>
<g id="a_Node000011"><a xlink:title=" ">
<polygon fill="#e0e0e0" stroke="#999999" points="235.25,-240.25 193.75,-240.25 193.75,-221 235.25,-221 235.25,-240.25"/>
<text xml:space="preserve" text-anchor="middle" x="214.5" y="-226.75" font-family="Helvetica,sans-Serif" font-size="10.00">Esp.h</text>
</a>
</g>
</g>
<!-- Node7&#45;&gt;Node11 -->
<g id="edge14_Node000007_Node000011" class="edge">
<title>Node7&#45;&gt;Node11</title>
<g id="a_edge14_Node000007_Node000011"><a xlink:title=" ">
<path fill="none" stroke="#63b8ff" d="M260.42,-276.08C252.66,-268.57 241.29,-257.56 231.8,-248.38"/>
<polygon fill="#63b8ff" stroke="#63b8ff" points="234.49,-246.1 224.87,-241.66 229.62,-251.13 234.49,-246.1"/>
</a>
</g>
</g>
<!-- Node12 -->
<g id="Node000012" class="node">
<title>Node12</title>
<g id="a_Node000012"><a xlink:title=" ">
<polygon fill="#e0e0e0" stroke="#999999" points="304.12,-240.25 252.88,-240.25 252.88,-221 304.12,-221 304.12,-240.25"/>
<text xml:space="preserve" text-anchor="middle" x="278.5" y="-226.75" font-family="Helvetica,sans-Serif" font-size="10.00">memory</text>
</a>
</g>
</g>
<!-- Node7&#45;&gt;Node12 -->
<g id="edge15_Node000007_Node000012" class="edge">
<title>Node7&#45;&gt;Node12</title>
<g id="a_edge15_Node000007_Node000012"><a xlink:title=" ">
<path fill="none" stroke="#63b8ff" d="M270.99,-276.08C272.1,-269.49 273.67,-260.21 275.09,-251.82"/>
<polygon fill="#63b8ff" stroke="#63b8ff" points="278.51,-252.55 276.73,-242.1 271.61,-251.38 278.51,-252.55"/>
</a>
</g>
</g>
<!-- Node8&#45;&gt;Node3 -->
<g id="edge9_Node000008_Node000003" class="edge">
<title>Node8&#45;&gt;Node3</title>
<g id="a_edge9_Node000008_Node000003"><a xlink:title=" ">
<path fill="none" stroke="#63b8ff" d="M360.21,-227.84C329.41,-224.03 290.01,-213.44 269.5,-185 248.28,-155.56 258.92,-110.6 267.75,-85.17"/>
<polygon fill="#63b8ff" stroke="#63b8ff" points="270.91,-86.7 271.14,-76.11 264.36,-84.25 270.91,-86.7"/>
</a>
</g>
</g>
<!-- Node8&#45;&gt;Node9 -->
<g id="edge10_Node000008_Node000009" class="edge">
<title>Node8&#45;&gt;Node9</title>
<g id="a_edge10_Node000008_Node000009"><a xlink:title=" ">
<path fill="none" stroke="#63b8ff" d="M388.06,-220.59C374.34,-212.56 354,-200.66 337.88,-191.23"/>
<polygon fill="#63b8ff" stroke="#63b8ff" points="339.72,-188.25 329.32,-186.22 336.18,-194.29 339.72,-188.25"/>
</a>
</g>
</g>
<!-- Node10 -->
<g id="Node000010" class="node">
<title>Node10</title>
<g id="a_Node000010"><a xlink:title=" ">
<polygon fill="#e0e0e0" stroke="#999999" points="519,-129.75 476,-129.75 476,-110.5 519,-110.5 519,-129.75"/>
<text xml:space="preserve" text-anchor="middle" x="497.5" y="-116.25" font-family="Helvetica,sans-Serif" font-size="10.00">vector</text>
</a>
</g>
</g>
<!-- Node8&#45;&gt;Node10 -->
<g id="edge13_Node000008_Node000010" class="edge">
<title>Node8&#45;&gt;Node10</title>
<g id="a_edge13_Node000008_Node000010"><a xlink:title=" ">
<path fill="none" stroke="#63b8ff" d="M411.19,-220.75C426.68,-202.86 461.9,-162.22 482.23,-138.75"/>
<polygon fill="#63b8ff" stroke="#63b8ff" points="484.81,-141.12 488.71,-131.27 479.52,-136.54 484.81,-141.12"/>
</a>
</g>
</g>
<!-- Node9&#45;&gt;Node3 -->
<g id="edge11_Node000009_Node000003" class="edge">
<title>Node9&#45;&gt;Node3</title>
<g id="a_edge11_Node000009_Node000003"><a xlink:title=" ">
<path fill="none" stroke="#63b8ff" d="M309.47,-165.5C303.56,-148.17 290.37,-109.48 282.27,-85.74"/>
<polygon fill="#63b8ff" stroke="#63b8ff" points="285.6,-84.64 279.06,-76.31 278.97,-86.9 285.6,-84.64"/>
</a>
</g>
</g>
<!-- Node9&#45;&gt;Node10 -->
<g id="edge12_Node000009_Node000010" class="edge">
<title>Node9&#45;&gt;Node10</title>
<g id="a_edge12_Node000009_Node000010"><a xlink:title=" ">
<path fill="none" stroke="#63b8ff" d="M343.88,-165.34C377.5,-155.66 430.62,-140.38 464.76,-130.55"/>
<polygon fill="#63b8ff" stroke="#63b8ff" points="465.45,-133.99 474.1,-127.86 463.52,-127.26 465.45,-133.99"/>
</a>
</g>
</g>
<!-- Node13&#45;&gt;Node8 -->
<g id="edge22_Node000013_Node000008" class="edge">
<title>Node13&#45;&gt;Node8</title>
<g id="a_edge22_Node000013_Node000008"><a xlink:title=" ">
<path fill="none" stroke="#63b8ff" d="M489.03,-275.84C473.19,-267.66 449.59,-255.46 431.19,-245.94"/>
<polygon fill="#63b8ff" stroke="#63b8ff" points="432.89,-242.88 422.4,-241.4 429.68,-249.1 432.89,-242.88"/>
</a>
</g>
</g>
<!-- Node14 -->
<g id="Node000014" class="node">
<title>Node14</title>
<g id="a_Node000014"><a xlink:href="_config_handler_8h.html" target="_top" xlink:title=" ">
<polygon fill="white" stroke="#666666" points="550.38,-240.25 464.62,-240.25 464.62,-221 550.38,-221 550.38,-240.25"/>
<text xml:space="preserve" text-anchor="middle" x="507.5" y="-226.75" font-family="Helvetica,sans-Serif" font-size="10.00">ConfigHandler.h</text>
</a>
</g>
</g>
<!-- Node13&#45;&gt;Node14 -->
<g id="edge18_Node000013_Node000014" class="edge">
<title>Node13&#45;&gt;Node14</title>
<g id="a_edge18_Node000013_Node000014"><a xlink:title=" ">
<path fill="none" stroke="#63b8ff" d="M506.67,-276.08C506.79,-269.57 506.96,-260.42 507.12,-252.12"/>
<polygon fill="#63b8ff" stroke="#63b8ff" points="510.61,-252.19 507.3,-242.12 503.62,-252.05 510.61,-252.19"/>
</a>
</g>
</g>
<!-- Node13&#45;&gt;Node15 -->
<g id="edge23_Node000013_Node000015" class="edge">
<title>Node13&#45;&gt;Node15</title>
<g id="a_edge23_Node000013_Node000015"><a xlink:title=" ">
<path fill="none" stroke="#63b8ff" d="M530.59,-275.84C553.44,-267.27 588.02,-254.31 613.83,-244.63"/>
<polygon fill="#63b8ff" stroke="#63b8ff" points="614.74,-248.02 622.88,-241.23 612.28,-241.47 614.74,-248.02"/>
</a>
</g>
</g>
<!-- Node13&#45;&gt;Node21 -->
<g id="edge34_Node000013_Node000021" class="edge">
<title>Node13&#45;&gt;Node21</title>
<g id="a_edge34_Node000013_Node000021"><a xlink:title=" ">
<path fill="none" stroke="#63b8ff" d="M553.59,-278.12C603.85,-270.62 686.05,-257.57 765.81,-240.68"/>
<polygon fill="#63b8ff" stroke="#63b8ff" points="766.52,-244.1 775.57,-238.59 765.06,-237.26 766.52,-244.1"/>
</a>
</g>
</g>
<!-- Node14&#45;&gt;Node3 -->
<g id="edge19_Node000014_Node000003" class="edge">
<title>Node14&#45;&gt;Node3</title>
<g id="a_edge19_Node000014_Node000003"><a xlink:title=" ">
<path fill="none" stroke="#63b8ff" d="M494.7,-220.59C456.83,-193.86 345.05,-114.96 297.41,-81.34"/>
<polygon fill="#63b8ff" stroke="#63b8ff" points="299.69,-78.66 289.5,-75.76 295.65,-84.38 299.69,-78.66"/>
</a>
</g>
</g>
<!-- Node14&#45;&gt;Node9 -->
<g id="edge20_Node000014_Node000009" class="edge">
<title>Node14&#45;&gt;Node9</title>
<g id="a_edge20_Node000014_Node000009"><a xlink:title=" ">
<path fill="none" stroke="#63b8ff" d="M474.42,-220.59C442.06,-211.76 392.58,-198.24 356.83,-188.48"/>
<polygon fill="#63b8ff" stroke="#63b8ff" points="357.77,-185.11 347.2,-185.85 355.93,-191.86 357.77,-185.11"/>
</a>
</g>
</g>
<!-- Node14&#45;&gt;Node10 -->
<g id="edge21_Node000014_Node000010" class="edge">
<title>Node14&#45;&gt;Node10</title>
<g id="a_edge21_Node000014_Node000010"><a xlink:title=" ">
<path fill="none" stroke="#63b8ff" d="M498.17,-220.73C490.14,-212.38 479.14,-199.09 474.5,-185 469.43,-169.61 476.44,-152.32 484.02,-139.62"/>
<polygon fill="#63b8ff" stroke="#63b8ff" points="486.84,-141.7 489.43,-131.43 481,-137.84 486.84,-141.7"/>
</a>
</g>
</g>
<!-- Node15&#45;&gt;Node3 -->
<g id="edge24_Node000015_Node000003" class="edge">
<title>Node15&#45;&gt;Node3</title>
<g id="a_edge24_Node000015_Node000003"><a xlink:title=" ">
<path fill="none" stroke="#63b8ff" d="M651.57,-220.52C655.41,-207.3 660.29,-182.54 649.5,-165.75 617.54,-116.02 584.95,-128.05 528.5,-110.5 456.19,-88.02 368.52,-75.73 317.66,-70"/>
<polygon fill="#63b8ff" stroke="#63b8ff" points="318.3,-66.55 307.98,-68.94 317.54,-73.51 318.3,-66.55"/>
</a>
</g>
</g>
<!-- Node15&#45;&gt;Node10 -->
<g id="edge26_Node000015_Node000010" class="edge">
<title>Node15&#45;&gt;Node10</title>
<g id="a_edge26_Node000015_Node000010"><a xlink:title=" ">
<path fill="none" stroke="#63b8ff" d="M648.34,-220.95C647.63,-207.37 644.27,-181.08 629.5,-165.75 603.42,-138.69 560.37,-128.04 530.56,-123.84"/>
<polygon fill="#63b8ff" stroke="#63b8ff" points="531.31,-120.41 520.96,-122.68 530.47,-127.36 531.31,-120.41"/>
</a>
</g>
</g>
<!-- Node16 -->
<g id="Node000016" class="node">
<title>Node16</title>
<g id="a_Node000016"><a xlink:title=" ">
<polygon fill="#e0e0e0" stroke="#999999" points="772.5,-185 714.5,-185 714.5,-165.75 772.5,-165.75 772.5,-185"/>
<text xml:space="preserve" text-anchor="middle" x="743.5" y="-171.5" font-family="Helvetica,sans-Serif" font-size="10.00">functional</text>
</a>
</g>
</g>
<!-- Node15&#45;&gt;Node16 -->
<g id="edge25_Node000015_Node000016" class="edge">
<title>Node15&#45;&gt;Node16</title>
<g id="a_edge25_Node000015_Node000016"><a xlink:title=" ">
<path fill="none" stroke="#63b8ff" d="M664.62,-220.59C679.08,-212.48 700.58,-200.43 717.48,-190.96"/>
<polygon fill="#63b8ff" stroke="#63b8ff" points="718.97,-194.14 725.99,-186.19 715.55,-188.03 718.97,-194.14"/>
</a>
</g>
</g>
<!-- Node17 -->
<g id="Node000017" class="node">
<title>Node17</title>
<g id="a_Node000017"><a xlink:title=" ">
<polygon fill="#e0e0e0" stroke="#999999" points="870.62,-185 828.38,-185 828.38,-165.75 870.62,-165.75 870.62,-185"/>
<text xml:space="preserve" text-anchor="middle" x="849.5" y="-171.5" font-family="Helvetica,sans-Serif" font-size="10.00">queue</text>
</a>
</g>
</g>
<!-- Node15&#45;&gt;Node17 -->
<g id="edge27_Node000015_Node000017" class="edge">
<title>Node15&#45;&gt;Node17</title>
<g id="a_edge27_Node000015_Node000017"><a xlink:title=" ">
<path fill="none" stroke="#63b8ff" d="M682.6,-220.59C720.09,-210.66 779.91,-194.81 816.83,-185.03"/>
<polygon fill="#63b8ff" stroke="#63b8ff" points="817.72,-188.42 826.49,-182.47 815.93,-181.65 817.72,-188.42"/>
</a>
</g>
</g>
<!-- Node18 -->
<g id="Node000018" class="node">
<title>Node18</title>
<g id="a_Node000018"><a xlink:href="_named_value_table_8h.html" target="_top" xlink:title=" ">
<polygon fill="white" stroke="#666666" points="620,-185 517,-185 517,-165.75 620,-165.75 620,-185"/>
<text xml:space="preserve" text-anchor="middle" x="568.5" y="-171.5" font-family="Helvetica,sans-Serif" font-size="10.00">NamedValueTable.h</text>
</a>
</g>
</g>
<!-- Node15&#45;&gt;Node18 -->
<g id="edge28_Node000015_Node000018" class="edge">
<title>Node15&#45;&gt;Node18</title>
<g id="a_edge28_Node000015_Node000018"><a xlink:title=" ">
<path fill="none" stroke="#63b8ff" d="M634.93,-220.59C623.09,-212.71 605.66,-201.11 591.63,-191.77"/>
<polygon fill="#63b8ff" stroke="#63b8ff" points="593.66,-188.92 583.4,-186.29 589.78,-194.75 593.66,-188.92"/>
</a>
</g>
</g>
<!-- Node15&#45;&gt;Node20 -->
<g id="edge33_Node000015_Node000020" class="edge">
<title>Node15&#45;&gt;Node20</title>
<g id="a_edge33_Node000015_Node000020"><a xlink:title=" ">
<path fill="none" stroke="#63b8ff" d="M688.48,-220.52C722.69,-211.98 768.43,-198.53 781.5,-185 792.82,-173.28 797.44,-155.11 799.3,-141.15"/>
<polygon fill="#63b8ff" stroke="#63b8ff" points="802.77,-141.59 800.21,-131.31 795.8,-140.95 802.77,-141.59"/>
</a>
</g>
</g>
<!-- Node18&#45;&gt;Node10 -->
<g id="edge29_Node000018_Node000010" class="edge">
<title>Node18&#45;&gt;Node10</title>
<g id="a_edge29_Node000018_Node000010"><a xlink:title=" ">
<path fill="none" stroke="#63b8ff" d="M556.46,-165.34C546.09,-157.57 530.9,-146.17 518.53,-136.9"/>
<polygon fill="#63b8ff" stroke="#63b8ff" points="520.68,-134.13 510.58,-130.93 516.48,-139.73 520.68,-134.13"/>
</a>
</g>
</g>
<!-- Node18&#45;&gt;Node19 -->
<g id="edge30_Node000018_Node000019" class="edge">
<title>Node18&#45;&gt;Node19</title>
<g id="a_edge30_Node000018_Node000019"><a xlink:title=" ">
<path fill="none" stroke="#63b8ff" d="M544.24,-165.34C521.23,-156.77 486.41,-143.81 460.42,-134.13"/>
<polygon fill="#63b8ff" stroke="#63b8ff" points="461.89,-130.94 451.3,-130.73 459.45,-137.5 461.89,-130.94"/>
</a>
</g>
</g>
<!-- Node18&#45;&gt;Node20 -->
<g id="edge32_Node000018_Node000020" class="edge">
<title>Node18&#45;&gt;Node20</title>
<g id="a_edge32_Node000018_Node000020"><a xlink:title=" ">
<path fill="none" stroke="#63b8ff" d="M608.12,-165.28C647.32,-156.28 707.48,-142.48 750.07,-132.7"/>
<polygon fill="#63b8ff" stroke="#63b8ff" points="750.61,-136.17 759.57,-130.52 749.04,-129.35 750.61,-136.17"/>
</a>
</g>
</g>
<!-- Node19&#45;&gt;Node3 -->
<g id="edge31_Node000019_Node000003" class="edge">
<title>Node19&#45;&gt;Node3</title>
<g id="a_edge31_Node000019_Node000003"><a xlink:title=" ">
<path fill="none" stroke="#63b8ff" d="M400.05,-110.09C375.81,-101.49 339.07,-88.44 311.76,-78.75"/>
<polygon fill="#63b8ff" stroke="#63b8ff" points="313.09,-75.51 302.5,-75.46 310.75,-82.1 313.09,-75.51"/>
</a>
</g>
</g>
<!-- Node22&#45;&gt;Node15 -->
<g id="edge37_Node000022_Node000015" class="edge">
<title>Node22&#45;&gt;Node15</title>
<g id="a_edge37_Node000022_Node000015"><a xlink:title=" ">
<path fill="none" stroke="#63b8ff" d="M683.56,-276.08C677.88,-268.88 669.66,-258.46 662.61,-249.51"/>
<polygon fill="#63b8ff" stroke="#63b8ff" points="665.46,-247.48 656.52,-241.8 659.97,-251.82 665.46,-247.48"/>
</a>
</g>
</g>
<!-- Node22&#45;&gt;Node21 -->
<g id="edge38_Node000022_Node000021" class="edge">
<title>Node22&#45;&gt;Node21</title>
<g id="a_edge38_Node000022_Node000021"><a xlink:title=" ">
<path fill="none" stroke="#63b8ff" d="M709.33,-275.84C726.55,-267.58 752.3,-255.23 772.21,-245.68"/>
<polygon fill="#63b8ff" stroke="#63b8ff" points="773.71,-248.84 781.21,-241.36 770.68,-242.53 773.71,-248.84"/>
</a>
</g>
</g>
<!-- Node23 -->
<g id="Node000023" class="node">
<title>Node23</title>
<g id="a_Node000023"><a xlink:title=" ">
<polygon fill="#e0e0e0" stroke="#999999" points="759.12,-240.25 707.88,-240.25 707.88,-221 759.12,-221 759.12,-240.25"/>
<text xml:space="preserve" text-anchor="middle" x="733.5" y="-226.75" font-family="Helvetica,sans-Serif" font-size="10.00">stdarg.h</text>
</a>
</g>
</g>
<!-- Node22&#45;&gt;Node23 -->
<g id="edge36_Node000022_Node000023" class="edge">
<title>Node22&#45;&gt;Node23</title>
<g id="a_edge36_Node000022_Node000023"><a xlink:title=" ">
<path fill="none" stroke="#63b8ff" d="M697.6,-276.08C703.42,-268.88 711.83,-258.46 719.06,-249.51"/>
<polygon fill="#63b8ff" stroke="#63b8ff" points="721.73,-251.77 725.29,-241.79 716.29,-247.37 721.73,-251.77"/>
</a>
</g>
</g>
<!-- Node24&#45;&gt;Node10 -->
<g id="edge41_Node000024_Node000010" class="edge">
<title>Node24&#45;&gt;Node10</title>
<g id="a_edge41_Node000024_Node000010"><a xlink:title=" ">
<path fill="none" stroke="#63b8ff" d="M441.6,-278.57C480.14,-267.47 555.92,-245.15 559.5,-240.25 584.47,-206.08 514.48,-194.48 508.5,-185 500.3,-172.02 497.72,-154.74 497.09,-141.42"/>
<polygon fill="#63b8ff" stroke="#63b8ff" points="500.59,-141.62 496.99,-131.66 493.6,-141.69 500.59,-141.62"/>
</a>
</g>
</g>
<!-- Node24&#45;&gt;Node14 -->
<g id="edge40_Node000024_Node000014" class="edge">
<title>Node24&#45;&gt;Node14</title>
<g id="a_edge40_Node000024_Node000014"><a xlink:title=" ">
<path fill="none" stroke="#63b8ff" d="M434.43,-275.84C447.7,-267.81 467.37,-255.91 482.95,-246.48"/>
<polygon fill="#63b8ff" stroke="#63b8ff" points="484.46,-249.66 491.2,-241.49 480.84,-243.67 484.46,-249.66"/>
</a>
</g>
</g>
<!-- Node26 -->
<g id="Node000026" class="node">
<title>Node26</title>
<g id="a_Node000026"><a xlink:title=" ">
<polygon fill="#e0e0e0" stroke="#999999" points="687.62,-350.75 609.38,-350.75 609.38,-331.5 687.62,-331.5 687.62,-350.75"/>
<text xml:space="preserve" text-anchor="middle" x="648.5" y="-337.25" font-family="Helvetica,sans-Serif" font-size="10.00">ArduinoJson.h</text>
</a>
</g>
</g>
<!-- Node25&#45;&gt;Node26 -->
<g id="edge46_Node000025_Node000026" class="edge">
<title>Node25&#45;&gt;Node26</title>
<g id="a_edge46_Node000025_Node000026"><a xlink:title=" ">
<path fill="none" stroke="#63b8ff" d="M648.5,-386.58C648.5,-380.07 648.5,-370.92 648.5,-362.62"/>
<polygon fill="#63b8ff" stroke="#63b8ff" points="652,-362.62 648.5,-352.62 645,-362.62 652,-362.62"/>
</a>
</g>
</g>
<!-- Node27 -->
<g id="Node000027" class="node">
<title>Node27</title>
<g id="a_Node000027"><a xlink:title=" ">
<polygon fill="#e0e0e0" stroke="#999999" points="773.75,-350.75 705.25,-350.75 705.25,-331.5 773.75,-331.5 773.75,-350.75"/>
<text xml:space="preserve" text-anchor="middle" x="739.5" y="-337.25" font-family="Helvetica,sans-Serif" font-size="10.00">IPAddress.h</text>
</a>
</g>
</g>
<!-- Node25&#45;&gt;Node27 -->
<g id="edge47_Node000025_Node000027" class="edge">
<title>Node25&#45;&gt;Node27</title>
<g id="a_edge47_Node000025_Node000027"><a xlink:title=" ">
<path fill="none" stroke="#63b8ff" d="M663.94,-386.34C677.66,-378.31 698,-366.41 714.12,-356.98"/>
<polygon fill="#63b8ff" stroke="#63b8ff" points="715.82,-360.04 722.68,-351.97 712.28,-354 715.82,-360.04"/>
</a>
</g>
</g>
<!-- Node28&#45;&gt;Node2 -->
<g id="edge49_Node000028_Node000002" class="edge">
<title>Node28&#45;&gt;Node2</title>
<g id="a_edge49_Node000028_Node000002"><a xlink:title=" ">
<path fill="none" stroke="#63b8ff" d="M300.76,-386.34C324.46,-377.51 360.71,-364.02 386.92,-354.26"/>
<polygon fill="#63b8ff" stroke="#63b8ff" points="387.91,-357.62 396.06,-350.85 385.46,-351.06 387.91,-357.62"/>
</a>
</g>
</g>
<!-- Node28&#45;&gt;Node9 -->
<g id="edge52_Node000028_Node000009" class="edge">
<title>Node28&#45;&gt;Node9</title>
<g id="a_edge52_Node000028_Node000009"><a xlink:title=" ">
<path fill="none" stroke="#63b8ff" d="M265.09,-386.56C232.29,-360.16 142.67,-279.88 184.5,-221 203.09,-194.83 238.21,-183.88 266.96,-179.36"/>
<polygon fill="#63b8ff" stroke="#63b8ff" points="267.07,-182.88 276.52,-178.08 266.15,-175.94 267.07,-182.88"/>
</a>
</g>
</g>
<!-- Node29 -->
<g id="Node000029" class="node">
<title>Node29</title>
<g id="a_Node000029"><a xlink:href="_network_8h.html" target="_top" xlink:title=" ">
<polygon fill="white" stroke="#666666" points="61,-129.75 0,-129.75 0,-110.5 61,-110.5 61,-129.75"/>
<text xml:space="preserve" text-anchor="middle" x="30.5" y="-116.25" font-family="Helvetica,sans-Serif" font-size="10.00">Network.h</text>
</a>
</g>
</g>
<!-- Node28&#45;&gt;Node29 -->
<g id="edge50_Node000028_Node000029" class="edge">
<title>Node28&#45;&gt;Node29</title>
<g id="a_edge50_Node000028_Node000029"><a xlink:title=" ">
<path fill="none" stroke="#63b8ff" d="M233.38,-393.41C168.05,-387.87 51.5,-366.78 51.5,-286.88 51.5,-286.88 51.5,-286.88 51.5,-229.62 51.5,-198.19 42.9,-162.55 36.7,-140.96"/>
<polygon fill="#63b8ff" stroke="#63b8ff" points="40.08,-140.04 33.85,-131.46 33.38,-142.05 40.08,-140.04"/>
</a>
</g>
</g>
<!-- Node29&#45;&gt;Node3 -->
<g id="edge51_Node000029_Node000003" class="edge">
<title>Node29&#45;&gt;Node3</title>
<g id="a_edge51_Node000029_Node000003"><a xlink:title=" ">
<path fill="none" stroke="#63b8ff" d="M61.03,-112.49C104.5,-103.04 184.36,-85.68 233.41,-75.02"/>
<polygon fill="#63b8ff" stroke="#63b8ff" points="234.07,-78.46 243.1,-72.92 232.59,-71.62 234.07,-78.46"/>
</a>
</g>
</g>
</g>
</svg>
