<?xml version="1.0" encoding="UTF-8" standalone="no"?>
<!DOCTYPE svg PUBLIC "-//W3C//DTD SVG 1.1//EN"
 "http://www.w3.org/Graphics/SVG/1.1/DTD/svg11.dtd">
<!-- Generated by graphviz version 15.1.0 (20260618.0150)
 -->
<!-- Title: src/CWebSocket.cpp Pages: 1 -->
<svg width="1211pt" height="414pt"
 viewBox="0.00 0.00 1211.00 414.00" xmlns="http://www.w3.org/2000/svg" xmlns:xlink="http://www.w3.org/1999/xlink">
<g id="graph0" class="graph" transform="scale(1 1) rotate(0) translate(4 410)">
<title>src/CWebSocket.cpp</title>
<!-- Node1 -->
<g id="Node000001" class="node">
<title>Node1</title>
<g id="a_Node000001"><a xlink:title="Implementation of the CWebSocket class.">
<polygon fill="#999999" stroke="#666666" points="295.25,-406 186.25,-406 186.25,-386.75 295.25,-386.75 295.25,-406"/>
<text xml:space="preserve" text-anchor="middle" x="240.75" y="-392.5" font-family="Helvetica,sans-Serif" font-size="10.00">src/CWebSocket.cpp</text>
</a>
</g>
</g>
<!-- Node2 -->
<g id="Node000002" class="node">
<title>Node2</title>
<g id="a_Node000002"><a xlink:href="_web_socket_8h.html" target="_top" xlink:title=" ">
<polygon fill="white" stroke="#666666" points="185,-295.5 110.5,-295.5 110.5,-276.25 185,-276.25 185,-295.5"/>
<text xml:space="preserve" text-anchor="middle" x="147.75" y="-282" font-family="Helvetica,sans-Serif" font-size="10.00">WebSocket.h</text>
</a>
</g>
</g>
<!-- Node1&#45;&gt;Node2 -->
<g id="edge1_Node000001_Node000002" class="edge">
<title>Node1&#45;&gt;Node2</title>
<g id="a_edge1_Node000001_Node000002"><a xlink:title=" ">
<path fill="none" stroke="#63b8ff" d="M228.58,-386.27C217.69,-377.78 201.65,-364.41 189.75,-350.75 177.49,-336.68 166.02,-318.79 158.18,-305.53"/>
<polygon fill="#63b8ff" stroke="#63b8ff" points="161.28,-303.9 153.26,-296.97 155.21,-307.39 161.28,-303.9"/>
</a>
</g>
</g>
<!-- Node17 -->
<g id="Node000017" class="node">
<title>Node17</title>
<g id="a_Node000017"><a xlink:href="_appl_8h.html" target="_top" xlink:title="Application Main Class.">
<polygon fill="white" stroke="#666666" points="764.62,-350.75 720.87,-350.75 720.87,-331.5 764.62,-331.5 764.62,-350.75"/>
<text xml:space="preserve" text-anchor="middle" x="742.75" y="-337.25" font-family="Helvetica,sans-Serif" font-size="10.00">Appl.h</text>
</a>
</g>
</g>
<!-- Node1&#45;&gt;Node17 -->
<g id="edge26_Node000001_Node000017" class="edge">
<title>Node1&#45;&gt;Node17</title>
<g id="a_edge26_Node000001_Node000017"><a xlink:title=" ">
<path fill="none" stroke="#63b8ff" d="M295.43,-389.57C399.68,-378.52 624.07,-354.71 709.13,-345.69"/>
<polygon fill="#63b8ff" stroke="#63b8ff" points="709.33,-349.19 718.9,-344.65 708.59,-342.23 709.33,-349.19"/>
</a>
</g>
</g>
<!-- Node28 -->
<g id="Node000028" class="node">
<title>Node28</title>
<g id="a_Node000028"><a xlink:href="_security_8h.html" target="_top" xlink:title=" ">
<polygon fill="white" stroke="#666666" points="80.12,-295.5 21.37,-295.5 21.37,-276.25 80.12,-276.25 80.12,-295.5"/>
<text xml:space="preserve" text-anchor="middle" x="50.75" y="-282" font-family="Helvetica,sans-Serif" font-size="10.00">Security.h</text>
</a>
</g>
</g>
<!-- Node1&#45;&gt;Node28 -->
<g id="edge53_Node000001_Node000028" class="edge">
<title>Node1&#45;&gt;Node28</title>
<g id="a_edge53_Node000001_Node000028"><a xlink:title=" ">
<path fill="none" stroke="#63b8ff" d="M224.88,-386.31C192.04,-367.56 116.42,-324.37 76.5,-301.58"/>
<polygon fill="#63b8ff" stroke="#63b8ff" points="78.44,-298.66 68.02,-296.74 74.97,-304.74 78.44,-298.66"/>
</a>
</g>
</g>
<!-- Node29 -->
<g id="Node000029" class="node">
<title>Node29</title>
<g id="a_Node000029"><a xlink:href="_access_token_8h.html" target="_top" xlink:title=" ">
<polygon fill="white" stroke="#666666" points="282.5,-350.75 199,-350.75 199,-331.5 282.5,-331.5 282.5,-350.75"/>
<text xml:space="preserve" text-anchor="middle" x="240.75" y="-337.25" font-family="Helvetica,sans-Serif" font-size="10.00">AccessToken.h</text>
</a>
</g>
</g>
<!-- Node1&#45;&gt;Node29 -->
<g id="edge56_Node000001_Node000029" class="edge">
<title>Node1&#45;&gt;Node29</title>
<g id="a_edge56_Node000001_Node000029"><a xlink:title=" ">
<path fill="none" stroke="#63b8ff" d="M240.75,-386.58C240.75,-380.07 240.75,-370.92 240.75,-362.62"/>
<polygon fill="#63b8ff" stroke="#63b8ff" points="244.25,-362.62 240.75,-352.62 237.25,-362.62 244.25,-362.62"/>
</a>
</g>
</g>
<!-- Node32 -->
<g id="Node000032" class="node">
<title>Node32</title>
<g id="a_Node000032"><a xlink:href="_file_system_8h.html" target="_top" xlink:title=" ">
<polygon fill="white" stroke="#666666" points="1201.62,-295.5 1127.87,-295.5 1127.87,-276.25 1201.62,-276.25 1201.62,-295.5"/>
<text xml:space="preserve" text-anchor="middle" x="1164.75" y="-282" font-family="Helvetica,sans-Serif" font-size="10.00">FileSystem.h</text>
</a>
</g>
</g>
<!-- Node1&#45;&gt;Node32 -->
<g id="edge60_Node000001_Node000032" class="edge">
<title>Node1&#45;&gt;Node32</title>
<g id="a_edge60_Node000001_Node000032"><a xlink:title=" ">
<path fill="none" stroke="#63b8ff" d="M295.37,-392.21C392.05,-386.28 599.56,-372.16 773.75,-350.75 925.7,-332.07 962.72,-320.54 1113.75,-295.5 1114.58,-295.36 1115.42,-295.22 1116.26,-295.08"/>
<polygon fill="#63b8ff" stroke="#63b8ff" points="1116.65,-298.57 1125.94,-293.46 1115.5,-291.66 1116.65,-298.57"/>
</a>
</g>
</g>
<!-- Node3 -->
<g id="Node000003" class="node">
<title>Node3</title>
<g id="a_Node000003"><a xlink:href="_runtime_8h.html" target="_top" xlink:title=" ">
<polygon fill="white" stroke="#666666" points="520.25,-74.5 459.25,-74.5 459.25,-55.25 520.25,-55.25 520.25,-74.5"/>
<text xml:space="preserve" text-anchor="middle" x="489.75" y="-61" font-family="Helvetica,sans-Serif" font-size="10.00">Runtime.h</text>
</a>
</g>
</g>
<!-- Node2&#45;&gt;Node3 -->
<g id="edge2_Node000002_Node000003" class="edge">
<title>Node2&#45;&gt;Node3</title>
<g id="a_edge2_Node000002_Node000003"><a xlink:title=" ">
<path fill="none" stroke="#63b8ff" d="M148.3,-275.83C150.09,-254.06 157.53,-198.13 187.75,-165.75 256.91,-91.63 382.17,-72.45 447.52,-67.54"/>
<polygon fill="#63b8ff" stroke="#63b8ff" points="447.74,-71.03 457.48,-66.87 447.27,-64.04 447.74,-71.03"/>
</a>
</g>
</g>
<!-- Node7 -->
<g id="Node000007" class="node">
<title>Node7</title>
<g id="a_Node000007"><a xlink:href="_event_handler_8h.html" target="_top" xlink:title=" ">
<polygon fill="white" stroke="#666666" points="539.12,-240.25 456.37,-240.25 456.37,-221 539.12,-221 539.12,-240.25"/>
<text xml:space="preserve" text-anchor="middle" x="497.75" y="-226.75" font-family="Helvetica,sans-Serif" font-size="10.00">EventHandler.h</text>
</a>
</g>
</g>
<!-- Node2&#45;&gt;Node7 -->
<g id="edge6_Node000002_Node000007" class="edge">
<title>Node2&#45;&gt;Node7</title>
<g id="a_edge6_Node000002_Node000007"><a xlink:title=" ">
<path fill="none" stroke="#63b8ff" d="M185.38,-277.68C188.21,-277.18 191.02,-276.7 193.75,-276.25 302.74,-258.32 333.23,-257.95 444.95,-240.65"/>
<polygon fill="#63b8ff" stroke="#63b8ff" points="445.19,-244.15 454.53,-239.15 444.11,-237.24 445.19,-244.15"/>
</a>
</g>
</g>
<!-- Node10 -->
<g id="Node000010" class="node">
<title>Node10</title>
<g id="a_Node000010"><a xlink:title=" ">
<polygon fill="#e0e0e0" stroke="#999999" points="255.87,-185 213.62,-185 213.62,-165.75 255.87,-165.75 255.87,-185"/>
<text xml:space="preserve" text-anchor="middle" x="234.75" y="-171.5" font-family="Helvetica,sans-Serif" font-size="10.00">queue</text>
</a>
</g>
</g>
<!-- Node2&#45;&gt;Node10 -->
<g id="edge25_Node000002_Node000010" class="edge">
<title>Node2&#45;&gt;Node10</title>
<g id="a_edge25_Node000002_Node000010"><a xlink:title=" ">
<path fill="none" stroke="#63b8ff" d="M160.44,-276.04C171.73,-267.74 188.21,-254.48 199.75,-240.25 210.84,-226.58 220.22,-208.88 226.47,-195.59"/>
<polygon fill="#63b8ff" stroke="#63b8ff" points="229.59,-197.18 230.5,-186.63 223.2,-194.31 229.59,-197.18"/>
</a>
</g>
</g>
<!-- Node13 -->
<g id="Node000013" class="node">
<title>Node13</title>
<g id="a_Node000013"><a xlink:href="_development_helper_8h.html" target="_top" xlink:title=" ">
<polygon fill="white" stroke="#666666" points="421.62,-129.75 311.87,-129.75 311.87,-110.5 421.62,-110.5 421.62,-129.75"/>
<text xml:space="preserve" text-anchor="middle" x="366.75" y="-116.25" font-family="Helvetica,sans-Serif" font-size="10.00">DevelopmentHelper.h</text>
</a>
</g>
</g>
<!-- Node2&#45;&gt;Node13 -->
<g id="edge24_Node000002_Node000013" class="edge">
<title>Node2&#45;&gt;Node13</title>
<g id="a_edge24_Node000002_Node000013"><a xlink:title=" ">
<path fill="none" stroke="#63b8ff" d="M150.95,-275.86C160.01,-250.79 186.37,-181.12 204.75,-165.75 231.47,-143.4 268.51,-132.19 300.43,-126.59"/>
<polygon fill="#63b8ff" stroke="#63b8ff" points="300.66,-130.1 309.99,-125.07 299.56,-123.18 300.66,-130.1"/>
</a>
</g>
</g>
<!-- Node14 -->
<g id="Node000014" class="node">
<title>Node14</title>
<g id="a_Node000014"><a xlink:href="_simple_delay_8h.html" target="_top" xlink:title=" ">
<polygon fill="white" stroke="#666666" points="148.87,-129.75 70.62,-129.75 70.62,-110.5 148.87,-110.5 148.87,-129.75"/>
<text xml:space="preserve" text-anchor="middle" x="109.75" y="-116.25" font-family="Helvetica,sans-Serif" font-size="10.00">SimpleDelay.h</text>
</a>
</g>
</g>
<!-- Node2&#45;&gt;Node14 -->
<g id="edge17_Node000002_Node000014" class="edge">
<title>Node2&#45;&gt;Node14</title>
<g id="a_edge17_Node000002_Node000014"><a xlink:title=" ">
<path fill="none" stroke="#63b8ff" d="M144.68,-276.06C141.64,-267.12 136.98,-252.83 133.75,-240.25 124.9,-205.78 117.29,-165.02 113.13,-141.22"/>
<polygon fill="#63b8ff" stroke="#63b8ff" points="116.63,-140.92 111.49,-131.66 109.73,-142.1 116.63,-140.92"/>
</a>
</g>
</g>
<!-- Node15 -->
<g id="Node000015" class="node">
<title>Node15</title>
<g id="a_Node000015"><a xlink:href="_json_node_8h.html" target="_top" xlink:title=" ">
<polygon fill="white" stroke="#666666" points="934,-185 865.5,-185 865.5,-165.75 934,-165.75 934,-185"/>
<text xml:space="preserve" text-anchor="middle" x="899.75" y="-171.5" font-family="Helvetica,sans-Serif" font-size="10.00">JsonNode.h</text>
</a>
</g>
</g>
<!-- Node2&#45;&gt;Node15 -->
<g id="edge19_Node000002_Node000015" class="edge">
<title>Node2&#45;&gt;Node15</title>
<g id="a_edge19_Node000002_Node000015"><a xlink:title=" ">
<path fill="none" stroke="#63b8ff" d="M185.36,-277.56C188.19,-277.09 191.01,-276.64 193.75,-276.25 350.27,-253.66 395.99,-284.73 547.75,-240.25 565.92,-234.92 567.69,-226.69 585.75,-221 678.01,-191.95 791.52,-181.75 853.66,-178.22"/>
<polygon fill="#63b8ff" stroke="#63b8ff" points="853.7,-181.72 863.5,-177.69 853.33,-174.73 853.7,-181.72"/>
</a>
</g>
</g>
<!-- Node16 -->
<g id="Node000016" class="node">
<title>Node16</title>
<g id="a_Node000016"><a xlink:href="_network_8h.html" target="_top" xlink:title=" ">
<polygon fill="white" stroke="#666666" points="81.25,-240.25 20.25,-240.25 20.25,-221 81.25,-221 81.25,-240.25"/>
<text xml:space="preserve" text-anchor="middle" x="50.75" y="-226.75" font-family="Helvetica,sans-Serif" font-size="10.00">Network.h</text>
</a>
</g>
</g>
<!-- Node2&#45;&gt;Node16 -->
<g id="edge22_Node000002_Node000016" class="edge">
<title>Node2&#45;&gt;Node16</title>
<g id="a_edge22_Node000002_Node000016"><a xlink:title=" ">
<path fill="none" stroke="#63b8ff" d="M131.29,-275.84C116.52,-267.73 94.57,-255.68 77.32,-246.21"/>
<polygon fill="#63b8ff" stroke="#63b8ff" points="79.06,-243.18 68.61,-241.43 75.69,-249.31 79.06,-243.18"/>
</a>
</g>
</g>
<!-- Node4 -->
<g id="Node000004" class="node">
<title>Node4</title>
<g id="a_Node000004"><a xlink:title=" ">
<polygon fill="#e0e0e0" stroke="#999999" points="448.87,-19.25 400.62,-19.25 400.62,0 448.87,0 448.87,-19.25"/>
<text xml:space="preserve" text-anchor="middle" x="424.75" y="-5.75" font-family="Helvetica,sans-Serif" font-size="10.00">string.h</text>
</a>
</g>
</g>
<!-- Node3&#45;&gt;Node4 -->
<g id="edge3_Node000003_Node000004" class="edge">
<title>Node3&#45;&gt;Node4</title>
<g id="a_edge3_Node000003_Node000004"><a xlink:title=" ">
<path fill="none" stroke="#63b8ff" d="M478.72,-54.84C469.33,-47.15 455.6,-35.9 444.34,-26.68"/>
<polygon fill="#63b8ff" stroke="#63b8ff" points="446.74,-24.11 436.78,-20.48 442.3,-29.53 446.74,-24.11"/>
</a>
</g>
</g>
<!-- Node5 -->
<g id="Node000005" class="node">
<title>Node5</title>
<g id="a_Node000005"><a xlink:title=" ">
<polygon fill="#e0e0e0" stroke="#999999" points="512.37,-19.25 467.12,-19.25 467.12,0 512.37,0 512.37,-19.25"/>
<text xml:space="preserve" text-anchor="middle" x="489.75" y="-5.75" font-family="Helvetica,sans-Serif" font-size="10.00">chrono</text>
</a>
</g>
</g>
<!-- Node3&#45;&gt;Node5 -->
<g id="edge4_Node000003_Node000005" class="edge">
<title>Node3&#45;&gt;Node5</title>
<g id="a_edge4_Node000003_Node000005"><a xlink:title=" ">
<path fill="none" stroke="#63b8ff" d="M489.75,-55.08C489.75,-48.57 489.75,-39.42 489.75,-31.12"/>
<polygon fill="#63b8ff" stroke="#63b8ff" points="493.25,-31.12 489.75,-21.12 486.25,-31.12 493.25,-31.12"/>
</a>
</g>
</g>
<!-- Node6 -->
<g id="Node000006" class="node">
<title>Node6</title>
<g id="a_Node000006"><a xlink:title=" ">
<polygon fill="#e0e0e0" stroke="#999999" points="583.5,-19.25 530,-19.25 530,0 583.5,0 583.5,-19.25"/>
<text xml:space="preserve" text-anchor="middle" x="556.75" y="-5.75" font-family="Helvetica,sans-Serif" font-size="10.00">iostream</text>
</a>
</g>
</g>
<!-- Node3&#45;&gt;Node6 -->
<g id="edge5_Node000003_Node000006" class="edge">
<title>Node3&#45;&gt;Node6</title>
<g id="a_edge5_Node000003_Node000006"><a xlink:title=" ">
<path fill="none" stroke="#63b8ff" d="M501.11,-54.84C510.8,-47.15 524.95,-35.9 536.55,-26.68"/>
<polygon fill="#63b8ff" stroke="#63b8ff" points="538.71,-29.43 544.37,-20.47 534.36,-23.95 538.71,-29.43"/>
</a>
</g>
</g>
<!-- Node7&#45;&gt;Node3 -->
<g id="edge7_Node000007_Node000003" class="edge">
<title>Node7&#45;&gt;Node3</title>
<g id="a_edge7_Node000007_Node000003"><a xlink:title=" ">
<path fill="none" stroke="#63b8ff" d="M490.07,-220.79C483.23,-212.28 473.69,-198.71 469.75,-185 459.88,-150.69 471.98,-109.33 481.19,-85.47"/>
<polygon fill="#63b8ff" stroke="#63b8ff" points="484.36,-86.98 484.92,-76.4 477.89,-84.32 484.36,-86.98"/>
</a>
</g>
</g>
<!-- Node8 -->
<g id="Node000008" class="node">
<title>Node8</title>
<g id="a_Node000008"><a xlink:title=" ">
<polygon fill="#e0e0e0" stroke="#999999" points="657.75,-185 599.75,-185 599.75,-165.75 657.75,-165.75 657.75,-185"/>
<text xml:space="preserve" text-anchor="middle" x="628.75" y="-171.5" font-family="Helvetica,sans-Serif" font-size="10.00">functional</text>
</a>
</g>
</g>
<!-- Node7&#45;&gt;Node8 -->
<g id="edge8_Node000007_Node000008" class="edge">
<title>Node7&#45;&gt;Node8</title>
<g id="a_edge8_Node000007_Node000008"><a xlink:title=" ">
<path fill="none" stroke="#63b8ff" d="M519.97,-220.59C540.77,-212.14 572.1,-199.4 595.8,-189.77"/>
<polygon fill="#63b8ff" stroke="#63b8ff" points="597.07,-193.03 605.01,-186.02 594.43,-186.55 597.07,-193.03"/>
</a>
</g>
</g>
<!-- Node9 -->
<g id="Node000009" class="node">
<title>Node9</title>
<g id="a_Node000009"><a xlink:title=" ">
<polygon fill="#e0e0e0" stroke="#999999" points="862.25,-129.75 819.25,-129.75 819.25,-110.5 862.25,-110.5 862.25,-129.75"/>
<text xml:space="preserve" text-anchor="middle" x="840.75" y="-116.25" font-family="Helvetica,sans-Serif" font-size="10.00">vector</text>
</a>
</g>
</g>
<!-- Node7&#45;&gt;Node9 -->
<g id="edge9_Node000007_Node000009" class="edge">
<title>Node7&#45;&gt;Node9</title>
<g id="a_edge9_Node000007_Node000009"><a xlink:title=" ">
<path fill="none" stroke="#63b8ff" d="M536.3,-220.54C570.75,-212.16 622.46,-198.94 666.75,-185 716.88,-169.22 773.87,-147.57 808.56,-133.97"/>
<polygon fill="#63b8ff" stroke="#63b8ff" points="809.57,-137.33 817.59,-130.41 807.01,-130.82 809.57,-137.33"/>
</a>
</g>
</g>
<!-- Node7&#45;&gt;Node10 -->
<g id="edge10_Node000007_Node000010" class="edge">
<title>Node7&#45;&gt;Node10</title>
<g id="a_edge10_Node000007_Node000010"><a xlink:title=" ">
<path fill="none" stroke="#63b8ff" d="M456.07,-221.19C403.73,-210.59 315.02,-192.63 267.35,-182.98"/>
<polygon fill="#63b8ff" stroke="#63b8ff" points="268.14,-179.57 257.65,-181.01 266.76,-186.43 268.14,-179.57"/>
</a>
</g>
</g>
<!-- Node11 -->
<g id="Node000011" class="node">
<title>Node11</title>
<g id="a_Node000011"><a xlink:href="_named_value_table_8h.html" target="_top" xlink:title=" ">
<polygon fill="white" stroke="#666666" points="581.25,-185 478.25,-185 478.25,-165.75 581.25,-165.75 581.25,-185"/>
<text xml:space="preserve" text-anchor="middle" x="529.75" y="-171.5" font-family="Helvetica,sans-Serif" font-size="10.00">NamedValueTable.h</text>
</a>
</g>
</g>
<!-- Node7&#45;&gt;Node11 -->
<g id="edge11_Node000007_Node000011" class="edge">
<title>Node7&#45;&gt;Node11</title>
<g id="a_edge11_Node000007_Node000011"><a xlink:title=" ">
<path fill="none" stroke="#63b8ff" d="M503.03,-220.83C507.22,-213.86 513.23,-203.87 518.48,-195.12"/>
<polygon fill="#63b8ff" stroke="#63b8ff" points="521.42,-197.03 523.57,-186.66 515.42,-193.43 521.42,-197.03"/>
</a>
</g>
</g>
<!-- Node7&#45;&gt;Node13 -->
<g id="edge16_Node000007_Node000013" class="edge">
<title>Node7&#45;&gt;Node13</title>
<g id="a_edge16_Node000007_Node000013"><a xlink:title=" ">
<path fill="none" stroke="#63b8ff" d="M484.09,-220.51C471.28,-211.8 451.77,-198.09 435.75,-185 417.29,-169.91 397.44,-151.26 383.79,-138.01"/>
<polygon fill="#63b8ff" stroke="#63b8ff" points="386.47,-135.73 376.88,-131.24 381.57,-140.73 386.47,-135.73"/>
</a>
</g>
</g>
<!-- Node11&#45;&gt;Node9 -->
<g id="edge12_Node000011_Node000009" class="edge">
<title>Node11&#45;&gt;Node9</title>
<g id="a_edge12_Node000011_Node000009"><a xlink:title=" ">
<path fill="none" stroke="#63b8ff" d="M581.45,-165.52C645.68,-154.52 753.4,-136.08 807.55,-126.81"/>
<polygon fill="#63b8ff" stroke="#63b8ff" points="808.11,-130.26 817.38,-125.13 806.93,-123.36 808.11,-130.26"/>
</a>
</g>
</g>
<!-- Node12 -->
<g id="Node000012" class="node">
<title>Node12</title>
<g id="a_Node000012"><a xlink:href="_l_s_c_utils_8h.html" target="_top" xlink:title=" ">
<polygon fill="white" stroke="#666666" points="551.75,-129.75 487.75,-129.75 487.75,-110.5 551.75,-110.5 551.75,-129.75"/>
<text xml:space="preserve" text-anchor="middle" x="519.75" y="-116.25" font-family="Helvetica,sans-Serif" font-size="10.00">LSCUtils.h</text>
</a>
</g>
</g>
<!-- Node11&#45;&gt;Node12 -->
<g id="edge13_Node000011_Node000012" class="edge">
<title>Node11&#45;&gt;Node12</title>
<g id="a_edge13_Node000011_Node000012"><a xlink:title=" ">
<path fill="none" stroke="#63b8ff" d="M528.1,-165.58C526.86,-158.99 525.12,-149.71 523.54,-141.32"/>
<polygon fill="#63b8ff" stroke="#63b8ff" points="527,-140.78 521.71,-131.6 520.12,-142.07 527,-140.78"/>
</a>
</g>
</g>
<!-- Node11&#45;&gt;Node13 -->
<g id="edge15_Node000011_Node000013" class="edge">
<title>Node11&#45;&gt;Node13</title>
<g id="a_edge15_Node000011_Node000013"><a xlink:title=" ">
<path fill="none" stroke="#63b8ff" d="M502.1,-165.34C475.52,-156.66 435.11,-143.46 405.36,-133.74"/>
<polygon fill="#63b8ff" stroke="#63b8ff" points="406.57,-130.45 395.97,-130.67 404.39,-137.1 406.57,-130.45"/>
</a>
</g>
</g>
<!-- Node12&#45;&gt;Node3 -->
<g id="edge14_Node000012_Node000003" class="edge">
<title>Node12&#45;&gt;Node3</title>
<g id="a_edge14_Node000012_Node000003"><a xlink:title=" ">
<path fill="none" stroke="#63b8ff" d="M514.79,-110.33C510.87,-103.36 505.24,-93.37 500.31,-84.62"/>
<polygon fill="#63b8ff" stroke="#63b8ff" points="503.51,-83.17 495.55,-76.18 497.41,-86.61 503.51,-83.17"/>
</a>
</g>
</g>
<!-- Node14&#45;&gt;Node3 -->
<g id="edge18_Node000014_Node000003" class="edge">
<title>Node14&#45;&gt;Node3</title>
<g id="a_edge18_Node000014_Node000003"><a xlink:title=" ">
<path fill="none" stroke="#63b8ff" d="M149.09,-112.61C153.69,-111.88 158.32,-111.16 162.75,-110.5 264.96,-95.21 385.48,-79.31 447.76,-71.25"/>
<polygon fill="#63b8ff" stroke="#63b8ff" points="448.08,-74.74 457.55,-69.99 447.19,-67.8 448.08,-74.74"/>
</a>
</g>
</g>
<!-- Node15&#45;&gt;Node3 -->
<g id="edge20_Node000015_Node000003" class="edge">
<title>Node15&#45;&gt;Node3</title>
<g id="a_edge20_Node000015_Node000003"><a xlink:title=" ">
<path fill="none" stroke="#63b8ff" d="M898.67,-165.66C896.43,-151.54 889.85,-123.89 871.75,-110.5 818.7,-71.25 619.83,-66.01 531.95,-65.66"/>
<polygon fill="#63b8ff" stroke="#63b8ff" points="532.08,-62.16 522.08,-65.64 532.07,-69.16 532.08,-62.16"/>
</a>
</g>
</g>
<!-- Node15&#45;&gt;Node9 -->
<g id="edge21_Node000015_Node000009" class="edge">
<title>Node15&#45;&gt;Node9</title>
<g id="a_edge21_Node000015_Node000009"><a xlink:title=" ">
<path fill="none" stroke="#63b8ff" d="M889.74,-165.34C881.38,-157.8 869.25,-146.85 859.15,-137.73"/>
<polygon fill="#63b8ff" stroke="#63b8ff" points="861.5,-135.14 851.73,-131.04 856.81,-140.34 861.5,-135.14"/>
</a>
</g>
</g>
<!-- Node16&#45;&gt;Node3 -->
<g id="edge23_Node000016_Node000003" class="edge">
<title>Node16&#45;&gt;Node3</title>
<g id="a_edge23_Node000016_Node000003"><a xlink:title=" ">
<path fill="none" stroke="#63b8ff" d="M48.24,-220.61C42.66,-198.39 31.97,-140.64 61.75,-110.5 88.55,-83.38 344.83,-71.13 447.51,-67.29"/>
<polygon fill="#63b8ff" stroke="#63b8ff" points="447.58,-70.79 457.45,-66.92 447.33,-63.79 447.58,-70.79"/>
</a>
</g>
</g>
<!-- Node17&#45;&gt;Node3 -->
<g id="edge27_Node000017_Node000003" class="edge">
<title>Node17&#45;&gt;Node3</title>
<g id="a_edge27_Node000017_Node000003"><a xlink:title=" ">
<path fill="none" stroke="#63b8ff" d="M765.06,-332.68C766.64,-332.25 768.21,-331.85 769.75,-331.5 880.02,-306.2 918.17,-341.02 1021.75,-295.5 1062.77,-277.47 1099.75,-276.43 1099.75,-231.62 1099.75,-231.62 1099.75,-231.62 1099.75,-174.38 1099.75,-92.41 1006.59,-129 926.75,-110.5 784.53,-77.54 610.66,-68.92 531.99,-66.67"/>
<polygon fill="#63b8ff" stroke="#63b8ff" points="532.25,-63.18 522.16,-66.41 532.06,-70.17 532.25,-63.18"/>
</a>
</g>
</g>
<!-- Node17&#45;&gt;Node13 -->
<g id="edge52_Node000017_Node000013" class="edge">
<title>Node17&#45;&gt;Node13</title>
<g id="a_edge52_Node000017_Node000013"><a xlink:title=" ">
<path fill="none" stroke="#63b8ff" d="M720.37,-339.49C649.47,-337.18 430.76,-327.55 368.75,-295.5 333.32,-277.19 309.89,-259.88 318.75,-221 325.6,-190.91 342.71,-159.32 354.54,-139.92"/>
<polygon fill="#63b8ff" stroke="#63b8ff" points="357.45,-141.85 359.81,-131.52 351.52,-138.13 357.45,-141.85"/>
</a>
</g>
</g>
<!-- Node17&#45;&gt;Node15 -->
<g id="edge36_Node000017_Node000015" class="edge">
<title>Node17&#45;&gt;Node15</title>
<g id="a_edge36_Node000017_Node000015"><a xlink:title=" ">
<path fill="none" stroke="#63b8ff" d="M764.72,-331.74C790.65,-321.64 831.98,-304.88 845.75,-295.5 874.38,-275.99 887.52,-272.28 900.75,-240.25 906.46,-226.42 905.87,-209.43 904.04,-196.45"/>
<polygon fill="#63b8ff" stroke="#63b8ff" points="907.55,-196.18 902.34,-186.96 900.66,-197.42 907.55,-196.18"/>
</a>
</g>
</g>
<!-- Node18 -->
<g id="Node000018" class="node">
<title>Node18</title>
<g id="a_Node000018"><a xlink:href="_sys_status_8h.html" target="_top" xlink:title=" ">
<polygon fill="white" stroke="#666666" points="447.75,-295.5 377.75,-295.5 377.75,-276.25 447.75,-276.25 447.75,-295.5"/>
<text xml:space="preserve" text-anchor="middle" x="412.75" y="-282" font-family="Helvetica,sans-Serif" font-size="10.00">SysStatus.h</text>
</a>
</g>
</g>
<!-- Node17&#45;&gt;Node18 -->
<g id="edge28_Node000017_Node000018" class="edge">
<title>Node17&#45;&gt;Node18</title>
<g id="a_edge28_Node000017_Node000018"><a xlink:title=" ">
<path fill="none" stroke="#63b8ff" d="M720.58,-336.55C667.29,-327.95 531.07,-305.97 459.03,-294.34"/>
<polygon fill="#63b8ff" stroke="#63b8ff" points="459.96,-290.95 449.53,-292.81 458.85,-297.86 459.96,-290.95"/>
</a>
</g>
</g>
<!-- Node22 -->
<g id="Node000022" class="node">
<title>Node22</title>
<g id="a_Node000022"><a xlink:href="_module_interface_8h.html" target="_top" xlink:title="Full Interface for a module and an abstract basic module implementation.">
<polygon fill="white" stroke="#666666" points="836.75,-295.5 742.75,-295.5 742.75,-276.25 836.75,-276.25 836.75,-295.5"/>
<text xml:space="preserve" text-anchor="middle" x="789.75" y="-282" font-family="Helvetica,sans-Serif" font-size="10.00">ModuleInterface.h</text>
</a>
</g>
</g>
<!-- Node17&#45;&gt;Node22 -->
<g id="edge37_Node000017_Node000022" class="edge">
<title>Node17&#45;&gt;Node22</title>
<g id="a_edge37_Node000017_Node000022"><a xlink:title=" ">
<path fill="none" stroke="#63b8ff" d="M750.51,-331.33C756.93,-324.05 766.26,-313.48 774.21,-304.48"/>
<polygon fill="#63b8ff" stroke="#63b8ff" points="776.82,-306.81 780.82,-296.99 771.58,-302.18 776.82,-306.81"/>
</a>
</g>
</g>
<!-- Node25 -->
<g id="Node000025" class="node">
<title>Node25</title>
<g id="a_Node000025"><a xlink:href="_logging_8h.html" target="_top" xlink:title=" ">
<polygon fill="white" stroke="#666666" points="724.75,-295.5 666.75,-295.5 666.75,-276.25 724.75,-276.25 724.75,-295.5"/>
<text xml:space="preserve" text-anchor="middle" x="695.75" y="-282" font-family="Helvetica,sans-Serif" font-size="10.00">Logging.h</text>
</a>
</g>
</g>
<!-- Node17&#45;&gt;Node25 -->
<g id="edge45_Node000017_Node000025" class="edge">
<title>Node17&#45;&gt;Node25</title>
<g id="a_edge45_Node000017_Node000025"><a xlink:title=" ">
<path fill="none" stroke="#63b8ff" d="M734.99,-331.33C728.56,-324.05 719.23,-313.48 711.28,-304.48"/>
<polygon fill="#63b8ff" stroke="#63b8ff" points="713.92,-302.18 704.68,-296.99 708.67,-306.81 713.92,-302.18"/>
</a>
</g>
</g>
<!-- Node27 -->
<g id="Node000027" class="node">
<title>Node27</title>
<g id="a_Node000027"><a xlink:href="_vars_8h.html" target="_top" xlink:title=" ">
<polygon fill="white" stroke="#666666" points="1012.62,-295.5 968.87,-295.5 968.87,-276.25 1012.62,-276.25 1012.62,-295.5"/>
<text xml:space="preserve" text-anchor="middle" x="990.75" y="-282" font-family="Helvetica,sans-Serif" font-size="10.00">Vars.h</text>
</a>
</g>
</g>
<!-- Node17&#45;&gt;Node27 -->
<g id="edge49_Node000017_Node000027" class="edge">
<title>Node17&#45;&gt;Node27</title>
<g id="a_edge49_Node000017_Node000027"><a xlink:title=" ">
<path fill="none" stroke="#63b8ff" d="M764.76,-335.4C808.31,-326.05 905.72,-305.13 957.27,-294.06"/>
<polygon fill="#63b8ff" stroke="#63b8ff" points="957.91,-297.51 966.95,-291.98 956.44,-290.66 957.91,-297.51"/>
</a>
</g>
</g>
<!-- Node18&#45;&gt;Node3 -->
<g id="edge29_Node000018_Node000003" class="edge">
<title>Node18&#45;&gt;Node3</title>
<g id="a_edge29_Node000018_Node000003"><a xlink:title=" ">
<path fill="none" stroke="#63b8ff" d="M377.45,-276.97C357.08,-270.53 332.8,-259.29 318.75,-240.25 284.25,-193.5 266.75,-156.11 302.75,-110.5 320.46,-88.07 398.17,-75.68 447.67,-69.93"/>
<polygon fill="#63b8ff" stroke="#63b8ff" points="447.93,-73.42 457.48,-68.84 447.16,-66.47 447.93,-73.42"/>
</a>
</g>
</g>
<!-- Node19 -->
<g id="Node000019" class="node">
<title>Node19</title>
<g id="a_Node000019"><a xlink:href="_status_handler_8h.html" target="_top" xlink:title=" ">
<polygon fill="white" stroke="#666666" points="891.62,-240.25 805.87,-240.25 805.87,-221 891.62,-221 891.62,-240.25"/>
<text xml:space="preserve" text-anchor="middle" x="848.75" y="-226.75" font-family="Helvetica,sans-Serif" font-size="10.00">StatusHandler.h</text>
</a>
</g>
</g>
<!-- Node18&#45;&gt;Node19 -->
<g id="edge30_Node000018_Node000019" class="edge">
<title>Node18&#45;&gt;Node19</title>
<g id="a_edge30_Node000018_Node000019"><a xlink:title=" ">
<path fill="none" stroke="#63b8ff" d="M448.03,-281.36C513.91,-274.66 660.35,-259.18 794.37,-240.52"/>
<polygon fill="#63b8ff" stroke="#63b8ff" points="794.73,-244.01 804.14,-239.15 793.75,-237.07 794.73,-244.01"/>
</a>
</g>
</g>
<!-- Node20 -->
<g id="Node000020" class="node">
<title>Node20</title>
<g id="a_Node000020"><a xlink:title=" ">
<polygon fill="#e0e0e0" stroke="#999999" points="369.5,-240.25 328,-240.25 328,-221 369.5,-221 369.5,-240.25"/>
<text xml:space="preserve" text-anchor="middle" x="348.75" y="-226.75" font-family="Helvetica,sans-Serif" font-size="10.00">Esp.h</text>
</a>
</g>
</g>
<!-- Node18&#45;&gt;Node20 -->
<g id="edge34_Node000018_Node000020" class="edge">
<title>Node18&#45;&gt;Node20</title>
<g id="a_edge34_Node000018_Node000020"><a xlink:title=" ">
<path fill="none" stroke="#63b8ff" d="M401.89,-275.84C392.64,-268.15 379.12,-256.9 368.04,-247.68"/>
<polygon fill="#63b8ff" stroke="#63b8ff" points="370.53,-245.2 360.61,-241.49 366.06,-250.58 370.53,-245.2"/>
</a>
</g>
</g>
<!-- Node21 -->
<g id="Node000021" class="node">
<title>Node21</title>
<g id="a_Node000021"><a xlink:title=" ">
<polygon fill="#e0e0e0" stroke="#999999" points="438.37,-240.25 387.12,-240.25 387.12,-221 438.37,-221 438.37,-240.25"/>
<text xml:space="preserve" text-anchor="middle" x="412.75" y="-226.75" font-family="Helvetica,sans-Serif" font-size="10.00">memory</text>
</a>
</g>
</g>
<!-- Node18&#45;&gt;Node21 -->
<g id="edge35_Node000018_Node000021" class="edge">
<title>Node18&#45;&gt;Node21</title>
<g id="a_edge35_Node000018_Node000021"><a xlink:title=" ">
<path fill="none" stroke="#63b8ff" d="M412.75,-276.08C412.75,-269.57 412.75,-260.42 412.75,-252.12"/>
<polygon fill="#63b8ff" stroke="#63b8ff" points="416.25,-252.12 412.75,-242.12 409.25,-252.12 416.25,-252.12"/>
</a>
</g>
</g>
<!-- Node19&#45;&gt;Node3 -->
<g id="edge31_Node000019_Node000003" class="edge">
<title>Node19&#45;&gt;Node3</title>
<g id="a_edge31_Node000019_Node000003"><a xlink:title=" ">
<path fill="none" stroke="#63b8ff" d="M828.94,-220.59C769.23,-193.36 590.81,-111.97 519.59,-79.49"/>
<polygon fill="#63b8ff" stroke="#63b8ff" points="521.43,-76.48 510.88,-75.51 518.52,-82.85 521.43,-76.48"/>
</a>
</g>
</g>
<!-- Node19&#45;&gt;Node9 -->
<g id="edge33_Node000019_Node000009" class="edge">
<title>Node19&#45;&gt;Node9</title>
<g id="a_edge33_Node000019_Node000009"><a xlink:title=" ">
<path fill="none" stroke="#63b8ff" d="M848.09,-220.75C846.82,-203.5 843.99,-165.08 842.24,-141.31"/>
<polygon fill="#63b8ff" stroke="#63b8ff" points="845.75,-141.35 841.52,-131.64 838.77,-141.87 845.75,-141.35"/>
</a>
</g>
</g>
<!-- Node19&#45;&gt;Node15 -->
<g id="edge32_Node000019_Node000015" class="edge">
<title>Node19&#45;&gt;Node15</title>
<g id="a_edge32_Node000019_Node000015"><a xlink:title=" ">
<path fill="none" stroke="#63b8ff" d="M857.17,-220.83C864.29,-213.4 874.69,-202.54 883.43,-193.41"/>
<polygon fill="#63b8ff" stroke="#63b8ff" points="885.71,-196.1 890.1,-186.45 880.65,-191.25 885.71,-196.1"/>
</a>
</g>
</g>
<!-- Node22&#45;&gt;Node7 -->
<g id="edge43_Node000022_Node000007" class="edge">
<title>Node22&#45;&gt;Node7</title>
<g id="a_edge43_Node000022_Node000007"><a xlink:title=" ">
<path fill="none" stroke="#63b8ff" d="M742.51,-276.26C689.92,-266.67 605.14,-251.21 550.44,-241.23"/>
<polygon fill="#63b8ff" stroke="#63b8ff" points="551.2,-237.82 540.73,-239.46 549.94,-244.7 551.2,-237.82"/>
</a>
</g>
</g>
<!-- Node22&#45;&gt;Node19 -->
<g id="edge42_Node000022_Node000019" class="edge">
<title>Node22&#45;&gt;Node19</title>
<g id="a_edge42_Node000022_Node000019"><a xlink:title=" ">
<path fill="none" stroke="#63b8ff" d="M799.76,-275.84C808.11,-268.3 820.25,-257.35 830.35,-248.23"/>
<polygon fill="#63b8ff" stroke="#63b8ff" points="832.69,-250.84 837.76,-241.54 828,-245.64 832.69,-250.84"/>
</a>
</g>
</g>
<!-- Node23 -->
<g id="Node000023" class="node">
<title>Node23</title>
<g id="a_Node000023"><a xlink:href="_config_handler_8h.html" target="_top" xlink:title=" ">
<polygon fill="white" stroke="#666666" points="1033.62,-240.25 947.87,-240.25 947.87,-221 1033.62,-221 1033.62,-240.25"/>
<text xml:space="preserve" text-anchor="middle" x="990.75" y="-226.75" font-family="Helvetica,sans-Serif" font-size="10.00">ConfigHandler.h</text>
</a>
</g>
</g>
<!-- Node22&#45;&gt;Node23 -->
<g id="edge38_Node000022_Node000023" class="edge">
<title>Node22&#45;&gt;Node23</title>
<g id="a_edge38_Node000022_Node000023"><a xlink:title=" ">
<path fill="none" stroke="#63b8ff" d="M823.84,-275.84C857.34,-266.97 908.65,-253.37 945.54,-243.6"/>
<polygon fill="#63b8ff" stroke="#63b8ff" points="946.25,-247.03 955.02,-241.09 944.46,-240.27 946.25,-247.03"/>
</a>
</g>
</g>
<!-- Node24 -->
<g id="Node000024" class="node">
<title>Node24</title>
<g id="a_Node000024"><a xlink:href="_msgs_8h.html" target="_top" xlink:title=" ">
<polygon fill="white" stroke="#666666" points="787.87,-240.25 739.62,-240.25 739.62,-221 787.87,-221 787.87,-240.25"/>
<text xml:space="preserve" text-anchor="middle" x="763.75" y="-226.75" font-family="Helvetica,sans-Serif" font-size="10.00">Msgs.h</text>
</a>
</g>
</g>
<!-- Node22&#45;&gt;Node24 -->
<g id="edge44_Node000022_Node000024" class="edge">
<title>Node22&#45;&gt;Node24</title>
<g id="a_edge44_Node000022_Node000024"><a xlink:title=" ">
<path fill="none" stroke="#63b8ff" d="M785.45,-276.08C782.13,-269.26 777.39,-259.56 773.18,-250.95"/>
<polygon fill="#63b8ff" stroke="#63b8ff" points="776.33,-249.42 768.8,-241.97 770.04,-252.49 776.33,-249.42"/>
</a>
</g>
</g>
<!-- Node23&#45;&gt;Node3 -->
<g id="edge39_Node000023_Node000003" class="edge">
<title>Node23&#45;&gt;Node3</title>
<g id="a_edge39_Node000023_Node000003"><a xlink:title=" ">
<path fill="none" stroke="#63b8ff" d="M988.85,-220.61C985.76,-207.5 978.63,-182.88 965.75,-165.75 941.51,-133.51 931.17,-125.55 893.75,-110.5 828.82,-84.4 621.98,-71.95 532.11,-67.67"/>
<polygon fill="#63b8ff" stroke="#63b8ff" points="532.4,-64.18 522.25,-67.22 532.08,-71.18 532.4,-64.18"/>
</a>
</g>
</g>
<!-- Node23&#45;&gt;Node9 -->
<g id="edge41_Node000023_Node000009" class="edge">
<title>Node23&#45;&gt;Node9</title>
<g id="a_edge41_Node000023_Node000009"><a xlink:title=" ">
<path fill="none" stroke="#63b8ff" d="M986,-220.63C978.45,-207.09 962.55,-181.42 942.75,-165.75 922.06,-149.38 894.44,-137.78 873.16,-130.52"/>
<polygon fill="#63b8ff" stroke="#63b8ff" points="874.41,-127.25 863.82,-127.49 872.25,-133.9 874.41,-127.25"/>
</a>
</g>
</g>
<!-- Node23&#45;&gt;Node15 -->
<g id="edge40_Node000023_Node000015" class="edge">
<title>Node23&#45;&gt;Node15</title>
<g id="a_edge40_Node000023_Node000015"><a xlink:title=" ">
<path fill="none" stroke="#63b8ff" d="M975.31,-220.59C961.58,-212.56 941.25,-200.66 925.13,-191.23"/>
<polygon fill="#63b8ff" stroke="#63b8ff" points="926.97,-188.25 916.57,-186.22 923.43,-194.29 926.97,-188.25"/>
</a>
</g>
</g>
<!-- Node25&#45;&gt;Node7 -->
<g id="edge47_Node000025_Node000007" class="edge">
<title>Node25&#45;&gt;Node7</title>
<g id="a_edge47_Node000025_Node000007"><a xlink:title=" ">
<path fill="none" stroke="#63b8ff" d="M666.53,-277.02C633.73,-268.2 580.14,-253.78 542.15,-243.57"/>
<polygon fill="#63b8ff" stroke="#63b8ff" points="543.42,-240.28 532.86,-241.07 541.6,-247.04 543.42,-240.28"/>
</a>
</g>
</g>
<!-- Node25&#45;&gt;Node24 -->
<g id="edge48_Node000025_Node000024" class="edge">
<title>Node25&#45;&gt;Node24</title>
<g id="a_edge48_Node000025_Node000024"><a xlink:title=" ">
<path fill="none" stroke="#63b8ff" d="M707.28,-275.84C717.21,-268.07 731.76,-256.67 743.6,-247.4"/>
<polygon fill="#63b8ff" stroke="#63b8ff" points="745.48,-250.38 751.19,-241.46 741.16,-244.87 745.48,-250.38"/>
</a>
</g>
</g>
<!-- Node26 -->
<g id="Node000026" class="node">
<title>Node26</title>
<g id="a_Node000026"><a xlink:title=" ">
<polygon fill="#e0e0e0" stroke="#999999" points="721.37,-240.25 670.12,-240.25 670.12,-221 721.37,-221 721.37,-240.25"/>
<text xml:space="preserve" text-anchor="middle" x="695.75" y="-226.75" font-family="Helvetica,sans-Serif" font-size="10.00">stdarg.h</text>
</a>
</g>
</g>
<!-- Node25&#45;&gt;Node26 -->
<g id="edge46_Node000025_Node000026" class="edge">
<title>Node25&#45;&gt;Node26</title>
<g id="a_edge46_Node000025_Node000026"><a xlink:title=" ">
<path fill="none" stroke="#63b8ff" d="M695.75,-276.08C695.75,-269.57 695.75,-260.42 695.75,-252.12"/>
<polygon fill="#63b8ff" stroke="#63b8ff" points="699.25,-252.12 695.75,-242.12 692.25,-252.12 699.25,-252.12"/>
</a>
</g>
</g>
<!-- Node27&#45;&gt;Node9 -->
<g id="edge51_Node000027_Node000009" class="edge">
<title>Node27&#45;&gt;Node9</title>
<g id="a_edge51_Node000027_Node000009"><a xlink:title=" ">
<path fill="none" stroke="#63b8ff" d="M1007.5,-275.82C1026.64,-264.19 1053.98,-242.88 1042.75,-221 1010.32,-157.82 922.31,-134.02 873.85,-125.52"/>
<polygon fill="#63b8ff" stroke="#63b8ff" points="874.65,-122.11 864.22,-123.96 873.53,-129.02 874.65,-122.11"/>
</a>
</g>
</g>
<!-- Node27&#45;&gt;Node23 -->
<g id="edge50_Node000027_Node000023" class="edge">
<title>Node27&#45;&gt;Node23</title>
<g id="a_edge50_Node000027_Node000023"><a xlink:title=" ">
<path fill="none" stroke="#63b8ff" d="M990.75,-276.08C990.75,-269.57 990.75,-260.42 990.75,-252.12"/>
<polygon fill="#63b8ff" stroke="#63b8ff" points="994.25,-252.12 990.75,-242.12 987.25,-252.12 994.25,-252.12"/>
</a>
</g>
</g>
<!-- Node28&#45;&gt;Node3 -->
<g id="edge54_Node000028_Node000003" class="edge">
<title>Node28&#45;&gt;Node3</title>
<g id="a_edge54_Node000028_Node000003"><a xlink:title=" ">
<path fill="none" stroke="#63b8ff" d="M38.72,-275.76C29.1,-267.64 16.32,-254.83 10.75,-240.25 -6.18,-196 -6.94,-153.29 45.75,-110.5 76.55,-85.49 342.37,-71.93 447.35,-67.51"/>
<polygon fill="#63b8ff" stroke="#63b8ff" points="447.39,-71.01 457.24,-67.1 447.1,-64.02 447.39,-71.01"/>
</a>
</g>
</g>
<!-- Node28&#45;&gt;Node16 -->
<g id="edge55_Node000028_Node000016" class="edge">
<title>Node28&#45;&gt;Node16</title>
<g id="a_edge55_Node000028_Node000016"><a xlink:title=" ">
<path fill="none" stroke="#63b8ff" d="M50.75,-276.08C50.75,-269.57 50.75,-260.42 50.75,-252.12"/>
<polygon fill="#63b8ff" stroke="#63b8ff" points="54.25,-252.12 50.75,-242.12 47.25,-252.12 54.25,-252.12"/>
</a>
</g>
</g>
<!-- Node30 -->
<g id="Node000030" class="node">
<title>Node30</title>
<g id="a_Node000030"><a xlink:href="_a_e_s_cryptor_8h.html" target="_top" xlink:title=" ">
<polygon fill="white" stroke="#666666" points="278.75,-295.5 202.75,-295.5 202.75,-276.25 278.75,-276.25 278.75,-295.5"/>
<text xml:space="preserve" text-anchor="middle" x="240.75" y="-282" font-family="Helvetica,sans-Serif" font-size="10.00">AESCryptor.h</text>
</a>
</g>
</g>
<!-- Node29&#45;&gt;Node30 -->
<g id="edge57_Node000029_Node000030" class="edge">
<title>Node29&#45;&gt;Node30</title>
<g id="a_edge57_Node000029_Node000030"><a xlink:title=" ">
<path fill="none" stroke="#63b8ff" d="M240.75,-331.33C240.75,-324.82 240.75,-315.67 240.75,-307.37"/>
<polygon fill="#63b8ff" stroke="#63b8ff" points="244.25,-307.37 240.75,-297.37 237.25,-307.37 244.25,-307.37"/>
</a>
</g>
</g>
<!-- Node30&#45;&gt;Node16 -->
<g id="edge59_Node000030_Node000016" class="edge">
<title>Node30&#45;&gt;Node16</title>
<g id="a_edge59_Node000030_Node000016"><a xlink:title=" ">
<path fill="none" stroke="#63b8ff" d="M208.52,-275.84C176.51,-266.87 127.31,-253.08 92.36,-243.29"/>
<polygon fill="#63b8ff" stroke="#63b8ff" points="93.59,-240 83.02,-240.67 91.7,-246.74 93.59,-240"/>
</a>
</g>
</g>
<!-- Node31 -->
<g id="Node000031" class="node">
<title>Node31</title>
<g id="a_Node000031"><a xlink:title=" ">
<polygon fill="#e0e0e0" stroke="#999999" points="652.37,-240.25 595.12,-240.25 595.12,-221 652.37,-221 652.37,-240.25"/>
<text xml:space="preserve" text-anchor="middle" x="623.75" y="-226.75" font-family="Helvetica,sans-Serif" font-size="10.00">Arduino.h</text>
</a>
</g>
</g>
<!-- Node30&#45;&gt;Node31 -->
<g id="edge58_Node000030_Node000031" class="edge">
<title>Node30&#45;&gt;Node31</title>
<g id="a_edge58_Node000030_Node000031"><a xlink:title=" ">
<path fill="none" stroke="#63b8ff" d="M279.11,-280.69C342.22,-273.63 471.8,-258.31 580.75,-240.25 581.73,-240.09 582.73,-239.92 583.74,-239.74"/>
<polygon fill="#63b8ff" stroke="#63b8ff" points="583.96,-243.26 593.16,-238.01 582.7,-236.38 583.96,-243.26"/>
</a>
</g>
</g>
<!-- Node32&#45;&gt;Node3 -->
<g id="edge62_Node000032_Node000003" class="edge">
<title>Node32&#45;&gt;Node3</title>
<g id="a_edge62_Node000032_Node000003"><a xlink:title=" ">
<path fill="none" stroke="#63b8ff" d="M1163.48,-275.92C1158.68,-243.36 1140.51,-132.09 1113.75,-110.5 1068.62,-74.09 664.55,-67.37 531.8,-66.15"/>
<polygon fill="#63b8ff" stroke="#63b8ff" points="532.08,-62.65 522.05,-66.06 532.02,-69.65 532.08,-62.65"/>
</a>
</g>
</g>
<!-- Node32&#45;&gt;Node19 -->
<g id="edge63_Node000032_Node000019" class="edge">
<title>Node32&#45;&gt;Node19</title>
<g id="a_edge63_Node000032_Node000019"><a xlink:title=" ">
<path fill="none" stroke="#63b8ff" d="M1127.57,-278.61C1072.09,-269.26 967.3,-251.6 903.18,-240.8"/>
<polygon fill="#63b8ff" stroke="#63b8ff" points="904.02,-237.39 893.58,-239.18 902.86,-244.29 904.02,-237.39"/>
</a>
</g>
</g>
<!-- Node33 -->
<g id="Node000033" class="node">
<title>Node33</title>
<g id="a_Node000033"><a xlink:title=" ">
<polygon fill="#e0e0e0" stroke="#999999" points="1203.25,-240.25 1166.25,-240.25 1166.25,-221 1203.25,-221 1203.25,-240.25"/>
<text xml:space="preserve" text-anchor="middle" x="1184.75" y="-226.75" font-family="Helvetica,sans-Serif" font-size="10.00">FS.h</text>
</a>
</g>
</g>
<!-- Node32&#45;&gt;Node33 -->
<g id="edge61_Node000032_Node000033" class="edge">
<title>Node32&#45;&gt;Node33</title>
<g id="a_edge61_Node000032_Node000033"><a xlink:title=" ">
<path fill="none" stroke="#63b8ff" d="M1168.05,-276.08C1170.58,-269.34 1174.18,-259.77 1177.38,-251.24"/>
<polygon fill="#63b8ff" stroke="#63b8ff" points="1180.6,-252.62 1180.84,-242.03 1174.05,-250.16 1180.6,-252.62"/>
</a>
</g>
</g>
</g>
</svg>
