<?xml version="1.0" encoding="UTF-8" standalone="no"?>
<!DOCTYPE svg PUBLIC "-//W3C//DTD SVG 1.1//EN"
 "http://www.w3.org/Graphics/SVG/1.1/DTD/svg11.dtd">
<!-- Generated by graphviz version 15.1.0 (20260618.0150)
 -->
<!-- Title: include/ConfigHandler.h Pages: 1 -->
<svg width="816pt" height="193pt"
 viewBox="0.00 0.00 816.00 193.00" xmlns="http://www.w3.org/2000/svg" xmlns:xlink="http://www.w3.org/1999/xlink">
<g id="graph0" class="graph" transform="scale(1 1) rotate(0) translate(4 189)">
<title>include/ConfigHandler.h</title>
<!-- Node1 -->
<g id="Node000001" class="node">
<title>Node1</title>
<g id="a_Node000001"><a xlink:title=" ">
<polygon fill="#999999" stroke="#666666" points="637.38,-185 517.88,-185 517.88,-165.75 637.38,-165.75 637.38,-185"/>
<text xml:space="preserve" text-anchor="middle" x="577.62" y="-171.5" font-family="Helvetica,sans-Serif" font-size="10.00">include/ConfigHandler.h</text>
</a>
</g>
</g>
<!-- Node2 -->
<g id="Node000002" class="node">
<title>Node2</title>
<g id="a_Node000002"><a xlink:href="_battery_measure_8h.html" target="_top" xlink:title=" ">
<polygon fill="white" stroke="#666666" points="808.12,-19.25 681.12,-19.25 681.12,0 808.12,0 808.12,-19.25"/>
<text xml:space="preserve" text-anchor="middle" x="744.62" y="-5.75" font-family="Helvetica,sans-Serif" font-size="10.00">include/BatteryMeasure.h</text>
</a>
</g>
</g>
<!-- Node1&#45;&gt;Node2 -->
<g id="edge1_Node000001_Node000002" class="edge">
<title>Node1&#45;&gt;Node2</title>
<g id="a_edge1_Node000001_Node000002"><a xlink:title=" ">
<path fill="none" stroke="#63b8ff" d="M606,-160.13C620.22,-152.25 637.21,-141.65 650.62,-129.75 690.43,-94.43 725.94,-40.68 739.16,-19.58"/>
<polygon fill="#63b8ff" stroke="#63b8ff" points="604.73,-156.84 597.57,-164.65 608.04,-163.01 604.73,-156.84"/>
</a>
</g>
</g>
<!-- Node3 -->
<g id="Node000003" class="node">
<title>Node3</title>
<g id="a_Node000003"><a xlink:href="_module_interface_8h.html" target="_top" xlink:title="Full Interface for a module and an abstract basic module implementation.">
<polygon fill="white" stroke="#666666" points="641.5,-129.75 513.75,-129.75 513.75,-110.5 641.5,-110.5 641.5,-129.75"/>
<text xml:space="preserve" text-anchor="middle" x="577.62" y="-116.25" font-family="Helvetica,sans-Serif" font-size="10.00">include/ModuleInterface.h</text>
</a>
</g>
</g>
<!-- Node1&#45;&gt;Node3 -->
<g id="edge2_Node000001_Node000003" class="edge">
<title>Node1&#45;&gt;Node3</title>
<g id="a_edge2_Node000001_Node000003"><a xlink:title=" ">
<path fill="none" stroke="#63b8ff" d="M577.62,-154.13C577.62,-145.84 577.62,-136.67 577.62,-130.11"/>
<polygon fill="#63b8ff" stroke="#63b8ff" points="574.13,-154.07 577.63,-164.07 581.13,-154.07 574.13,-154.07"/>
</a>
</g>
</g>
<!-- Node11 -->
<g id="Node000011" class="node">
<title>Node11</title>
<g id="a_Node000011"><a xlink:href="_vars_8h.html" target="_top" xlink:title=" ">
<polygon fill="white" stroke="#666666" points="425.38,-129.75 347.88,-129.75 347.88,-110.5 425.38,-110.5 425.38,-129.75"/>
<text xml:space="preserve" text-anchor="middle" x="386.62" y="-116.25" font-family="Helvetica,sans-Serif" font-size="10.00">include/Vars.h</text>
</a>
</g>
</g>
<!-- Node1&#45;&gt;Node11 -->
<g id="edge11_Node000001_Node000011" class="edge">
<title>Node1&#45;&gt;Node11</title>
<g id="a_edge11_Node000001_Node000011"><a xlink:title=" ">
<path fill="none" stroke="#63b8ff" d="M534.38,-162.32C499.41,-152.57 450.93,-139.05 419.18,-130.2"/>
<polygon fill="#63b8ff" stroke="#63b8ff" points="533.19,-165.62 543.77,-164.94 535.07,-158.88 533.19,-165.62"/>
</a>
</g>
</g>
<!-- Node4 -->
<g id="Node000004" class="node">
<title>Node4</title>
<g id="a_Node000004"><a xlink:href="_appl_8h.html" target="_top" xlink:title="Application Main Class.">
<polygon fill="white" stroke="#666666" points="385.38,-74.5 307.88,-74.5 307.88,-55.25 385.38,-55.25 385.38,-74.5"/>
<text xml:space="preserve" text-anchor="middle" x="346.62" y="-61" font-family="Helvetica,sans-Serif" font-size="10.00">include/Appl.h</text>
</a>
</g>
</g>
<!-- Node3&#45;&gt;Node4 -->
<g id="edge3_Node000003_Node000004" class="edge">
<title>Node3&#45;&gt;Node4</title>
<g id="a_edge3_Node000003_Node000004"><a xlink:title=" ">
<path fill="none" stroke="#63b8ff" d="M527.21,-107.5C484.61,-97.68 424.48,-83.82 385.52,-74.84"/>
<polygon fill="#63b8ff" stroke="#63b8ff" points="526.17,-110.86 536.7,-109.69 527.74,-104.03 526.17,-110.86"/>
</a>
</g>
</g>
<!-- Node9 -->
<g id="Node000009" class="node">
<title>Node9</title>
<g id="a_Node000009"><a xlink:href="_appl_module_8h.html" target="_top" xlink:title=" ">
<polygon fill="white" stroke="#666666" points="654.12,-74.5 545.12,-74.5 545.12,-55.25 654.12,-55.25 654.12,-74.5"/>
<text xml:space="preserve" text-anchor="middle" x="599.62" y="-61" font-family="Helvetica,sans-Serif" font-size="10.00">include/ApplModule.h</text>
</a>
</g>
</g>
<!-- Node3&#45;&gt;Node9 -->
<g id="edge8_Node000003_Node000009" class="edge">
<title>Node3&#45;&gt;Node9</title>
<g id="a_edge8_Node000003_Node000009"><a xlink:title=" ">
<path fill="none" stroke="#63b8ff" d="M585.63,-99.75C589.15,-91.24 593.11,-81.65 595.91,-74.86"/>
<polygon fill="#63b8ff" stroke="#63b8ff" points="582.42,-98.35 581.84,-108.93 588.89,-101.03 582.42,-98.35"/>
</a>
</g>
</g>
<!-- Node5 -->
<g id="Node000005" class="node">
<title>Node5</title>
<g id="a_Node000005"><a xlink:href="_m_d_n_s_controller_8h.html" target="_top" xlink:title="MDNS Controller class definition ESP MDNS controller to handle mDNS responder start/stop on WiFi even...">
<polygon fill="white" stroke="#666666" points="129.25,-19.25 0,-19.25 0,0 129.25,0 129.25,-19.25"/>
<text xml:space="preserve" text-anchor="middle" x="64.62" y="-5.75" font-family="Helvetica,sans-Serif" font-size="10.00">include/MDNSController.h</text>
</a>
</g>
</g>
<!-- Node4&#45;&gt;Node5 -->
<g id="edge4_Node000004_Node000005" class="edge">
<title>Node4&#45;&gt;Node5</title>
<g id="a_edge4_Node000004_Node000005"><a xlink:title=" ">
<path fill="none" stroke="#63b8ff" d="M296.15,-54.34C244.26,-44.55 164.03,-29.4 112.94,-19.75"/>
<polygon fill="#63b8ff" stroke="#63b8ff" points="295.45,-57.77 305.93,-56.19 296.75,-50.9 295.45,-57.77"/>
</a>
</g>
</g>
<!-- Node6 -->
<g id="Node000006" class="node">
<title>Node6</title>
<g id="a_Node000006"><a xlink:href="_n_t_p_handler_8h.html" target="_top" xlink:title=" ">
<polygon fill="white" stroke="#666666" points="258.25,-19.25 147,-19.25 147,0 258.25,0 258.25,-19.25"/>
<text xml:space="preserve" text-anchor="middle" x="202.62" y="-5.75" font-family="Helvetica,sans-Serif" font-size="10.00">include/NTPHandler.h</text>
</a>
</g>
</g>
<!-- Node4&#45;&gt;Node6 -->
<g id="edge5_Node000004_Node000006" class="edge">
<title>Node4&#45;&gt;Node6</title>
<g id="a_edge5_Node000004_Node000006"><a xlink:title=" ">
<path fill="none" stroke="#63b8ff" d="M311.6,-50.92C285.45,-41.25 250.38,-28.29 227.17,-19.7"/>
<polygon fill="#63b8ff" stroke="#63b8ff" points="310.18,-54.13 320.78,-54.32 312.61,-47.57 310.18,-54.13"/>
</a>
</g>
</g>
<!-- Node7 -->
<g id="Node000007" class="node">
<title>Node7</title>
<g id="a_Node000007"><a xlink:href="_web_server_8h.html" target="_top" xlink:title=" ">
<polygon fill="white" stroke="#666666" points="381.25,-19.25 276,-19.25 276,0 381.25,0 381.25,-19.25"/>
<text xml:space="preserve" text-anchor="middle" x="328.62" y="-5.75" font-family="Helvetica,sans-Serif" font-size="10.00">include/WebServer.h</text>
</a>
</g>
</g>
<!-- Node4&#45;&gt;Node7 -->
<g id="edge6_Node000004_Node000007" class="edge">
<title>Node4&#45;&gt;Node7</title>
<g id="a_edge6_Node000004_Node000007"><a xlink:title=" ">
<path fill="none" stroke="#63b8ff" d="M339.98,-44.21C337.12,-35.77 333.93,-26.33 331.66,-19.61"/>
<polygon fill="#63b8ff" stroke="#63b8ff" points="336.65,-45.3 343.17,-53.65 343.28,-43.05 336.65,-45.3"/>
</a>
</g>
</g>
<!-- Node8 -->
<g id="Node000008" class="node">
<title>Node8</title>
<g id="a_Node000008"><a xlink:href="_wi_fi_controller_8h.html" target="_top" xlink:title="WiFi Controller to handle Access Point and Station Mode.">
<polygon fill="white" stroke="#666666" points="518.38,-19.25 398.88,-19.25 398.88,0 518.38,0 518.38,-19.25"/>
<text xml:space="preserve" text-anchor="middle" x="458.62" y="-5.75" font-family="Helvetica,sans-Serif" font-size="10.00">include/WiFiController.h</text>
</a>
</g>
</g>
<!-- Node4&#45;&gt;Node8 -->
<g id="edge7_Node000004_Node000008" class="edge">
<title>Node4&#45;&gt;Node8</title>
<g id="a_edge7_Node000004_Node000008"><a xlink:title=" ">
<path fill="none" stroke="#63b8ff" d="M375.79,-50.01C395.9,-40.45 422.04,-28.02 439.53,-19.7"/>
<polygon fill="#63b8ff" stroke="#63b8ff" points="374.52,-46.74 366.99,-54.19 377.53,-53.06 374.52,-46.74"/>
</a>
</g>
</g>
<!-- Node9&#45;&gt;Node2 -->
<g id="edge9_Node000009_Node000002" class="edge">
<title>Node9&#45;&gt;Node2</title>
<g id="a_edge9_Node000009_Node000002"><a xlink:title=" ">
<path fill="none" stroke="#63b8ff" d="M634.89,-50.92C661.22,-41.25 696.54,-28.29 719.91,-19.7"/>
<polygon fill="#63b8ff" stroke="#63b8ff" points="633.82,-47.59 625.64,-54.32 636.24,-54.16 633.82,-47.59"/>
</a>
</g>
</g>
<!-- Node10 -->
<g id="Node000010" class="node">
<title>Node10</title>
<g id="a_Node000010"><a xlink:href="_m_q_t_t_controller_8h.html" target="_top" xlink:title=" ">
<polygon fill="white" stroke="#666666" points="663.12,-19.25 536.12,-19.25 536.12,0 663.12,0 663.12,-19.25"/>
<text xml:space="preserve" text-anchor="middle" x="599.62" y="-5.75" font-family="Helvetica,sans-Serif" font-size="10.00">include/MQTTController.h</text>
</a>
</g>
</g>
<!-- Node9&#45;&gt;Node10 -->
<g id="edge10_Node000009_Node000010" class="edge">
<title>Node9&#45;&gt;Node10</title>
<g id="a_edge10_Node000009_Node000010"><a xlink:title=" ">
<path fill="none" stroke="#63b8ff" d="M599.62,-43.63C599.62,-35.34 599.62,-26.17 599.62,-19.61"/>
<polygon fill="#63b8ff" stroke="#63b8ff" points="596.13,-43.57 599.63,-53.57 603.13,-43.57 596.13,-43.57"/>
</a>
</g>
</g>
<!-- Node11&#45;&gt;Node4 -->
<g id="edge12_Node000011_Node000004" class="edge">
<title>Node11&#45;&gt;Node4</title>
<g id="a_edge12_Node000011_Node000004"><a xlink:title=" ">
<path fill="none" stroke="#63b8ff" d="M373.15,-101.19C366.5,-92.34 358.77,-82.04 353.37,-74.86"/>
<polygon fill="#63b8ff" stroke="#63b8ff" points="370.31,-103.23 379.11,-109.12 375.9,-99.02 370.31,-103.23"/>
</a>
</g>
</g>
</g>
</svg>
