<?xml version="1.0" encoding="UTF-8" standalone="no"?>
<!DOCTYPE svg PUBLIC "-//W3C//DTD SVG 1.1//EN"
 "http://www.w3.org/Graphics/SVG/1.1/DTD/svg11.dtd">
<!-- Generated by graphviz version 15.1.0 (20260618.0150)
 -->
<!-- Title: include/DevelopmentHelper.h Pages: 1 -->
<svg width="816pt" height="304pt"
 viewBox="0.00 0.00 816.00 304.00" xmlns="http://www.w3.org/2000/svg" xmlns:xlink="http://www.w3.org/1999/xlink">
<g id="graph0" class="graph" transform="scale(1 1) rotate(0) translate(4 299.5)">
<title>include/DevelopmentHelper.h</title>
<!-- Node1 -->
<g id="Node000001" class="node">
<title>Node1</title>
<g id="a_Node000001"><a xlink:title=" ">
<polygon fill="#999999" stroke="#666666" points="550.38,-295.5 406.88,-295.5 406.88,-276.25 550.38,-276.25 550.38,-295.5"/>
<text xml:space="preserve" text-anchor="middle" x="478.62" y="-282" font-family="Helvetica,sans-Serif" font-size="10.00">include/DevelopmentHelper.h</text>
</a>
</g>
</g>
<!-- Node2 -->
<g id="Node000002" class="node">
<title>Node2</title>
<g id="a_Node000002"><a xlink:href="_appl_8h.html" target="_top" xlink:title="Application Main Class.">
<polygon fill="white" stroke="#666666" points="258.38,-74.5 180.88,-74.5 180.88,-55.25 258.38,-55.25 258.38,-74.5"/>
<text xml:space="preserve" text-anchor="middle" x="219.62" y="-61" font-family="Helvetica,sans-Serif" font-size="10.00">include/Appl.h</text>
</a>
</g>
</g>
<!-- Node1&#45;&gt;Node2 -->
<g id="edge1_Node000001_Node000002" class="edge">
<title>Node1&#45;&gt;Node2</title>
<g id="a_edge1_Node000001_Node000002"><a xlink:title=" ">
<path fill="none" stroke="#63b8ff" d="M412.41,-273.35C337.42,-256.38 218.65,-216.7 164.62,-129.75 151.26,-108.25 181.08,-86.64 201.82,-74.88"/>
<polygon fill="#63b8ff" stroke="#63b8ff" points="411.61,-276.76 422.12,-275.47 413.1,-269.92 411.61,-276.76"/>
</a>
</g>
</g>
<!-- Node7 -->
<g id="Node000007" class="node">
<title>Node7</title>
<g id="a_Node000007"><a xlink:href="_event_handler_8h.html" target="_top" xlink:title=" ">
<polygon fill="white" stroke="#666666" points="472.88,-185 356.38,-185 356.38,-165.75 472.88,-165.75 472.88,-185"/>
<text xml:space="preserve" text-anchor="middle" x="414.62" y="-171.5" font-family="Helvetica,sans-Serif" font-size="10.00">include/EventHandler.h</text>
</a>
</g>
</g>
<!-- Node1&#45;&gt;Node7 -->
<g id="edge6_Node000001_Node000007" class="edge">
<title>Node1&#45;&gt;Node7</title>
<g id="a_edge6_Node000001_Node000007"><a xlink:title=" ">
<path fill="none" stroke="#63b8ff" d="M467.58,-266.15C453.68,-242.58 430.36,-203.04 419.93,-185.38"/>
<polygon fill="#63b8ff" stroke="#63b8ff" points="464.52,-267.86 472.62,-274.69 470.55,-264.3 464.52,-267.86"/>
</a>
</g>
</g>
<!-- Node14 -->
<g id="Node000014" class="node">
<title>Node14</title>
<g id="a_Node000014"><a xlink:href="_web_socket_8h.html" target="_top" xlink:title=" ">
<polygon fill="white" stroke="#666666" points="675.75,-129.75 567.5,-129.75 567.5,-110.5 675.75,-110.5 675.75,-129.75"/>
<text xml:space="preserve" text-anchor="middle" x="621.62" y="-116.25" font-family="Helvetica,sans-Serif" font-size="10.00">include/WebSocket.h</text>
</a>
</g>
</g>
<!-- Node1&#45;&gt;Node14 -->
<g id="edge21_Node000001_Node000014" class="edge">
<title>Node1&#45;&gt;Node14</title>
<g id="a_edge21_Node000001_Node000014"><a xlink:title=" ">
<path fill="none" stroke="#63b8ff" d="M489.23,-265.96C496.96,-252.83 508.06,-235.21 519.62,-221 549.51,-184.29 591.58,-146.76 611.02,-130.07"/>
<polygon fill="#63b8ff" stroke="#63b8ff" points="486.3,-264.04 484.35,-274.45 492.37,-267.53 486.3,-264.04"/>
</a>
</g>
</g>
<!-- Node15 -->
<g id="Node000015" class="node">
<title>Node15</title>
<g id="a_Node000015"><a xlink:href="_named_value_table_8h.html" target="_top" xlink:title=" ">
<polygon fill="white" stroke="#666666" points="665,-240.25 528.25,-240.25 528.25,-221 665,-221 665,-240.25"/>
<text xml:space="preserve" text-anchor="middle" x="596.62" y="-226.75" font-family="Helvetica,sans-Serif" font-size="10.00">include/NamedValueTable.h</text>
</a>
</g>
</g>
<!-- Node1&#45;&gt;Node15 -->
<g id="edge18_Node000001_Node000015" class="edge">
<title>Node1&#45;&gt;Node15</title>
<g id="a_edge18_Node000001_Node000015"><a xlink:title=" ">
<path fill="none" stroke="#63b8ff" d="M509.06,-271.14C530.28,-261.56 558,-249.06 576.51,-240.7"/>
<polygon fill="#63b8ff" stroke="#63b8ff" points="507.7,-267.92 500.02,-275.22 510.58,-274.3 507.7,-267.92"/>
</a>
</g>
</g>
<!-- Node3 -->
<g id="Node000003" class="node">
<title>Node3</title>
<g id="a_Node000003"><a xlink:href="_m_d_n_s_controller_8h.html" target="_top" xlink:title="MDNS Controller class definition ESP MDNS controller to handle mDNS responder start/stop on WiFi even...">
<polygon fill="white" stroke="#666666" points="129.25,-19.25 0,-19.25 0,0 129.25,0 129.25,-19.25"/>
<text xml:space="preserve" text-anchor="middle" x="64.62" y="-5.75" font-family="Helvetica,sans-Serif" font-size="10.00">include/MDNSController.h</text>
</a>
</g>
</g>
<!-- Node2&#45;&gt;Node3 -->
<g id="edge2_Node000002_Node000003" class="edge">
<title>Node2&#45;&gt;Node3</title>
<g id="a_edge2_Node000002_Node000003"><a xlink:title=" ">
<path fill="none" stroke="#63b8ff" d="M182.68,-51.18C154.46,-41.49 116.25,-28.36 91.05,-19.7"/>
<polygon fill="#63b8ff" stroke="#63b8ff" points="181.31,-54.41 191.9,-54.35 183.58,-47.79 181.31,-54.41"/>
</a>
</g>
</g>
<!-- Node4 -->
<g id="Node000004" class="node">
<title>Node4</title>
<g id="a_Node000004"><a xlink:href="_n_t_p_handler_8h.html" target="_top" xlink:title=" ">
<polygon fill="white" stroke="#666666" points="395.25,-19.25 284,-19.25 284,0 395.25,0 395.25,-19.25"/>
<text xml:space="preserve" text-anchor="middle" x="339.62" y="-5.75" font-family="Helvetica,sans-Serif" font-size="10.00">include/NTPHandler.h</text>
</a>
</g>
</g>
<!-- Node2&#45;&gt;Node4 -->
<g id="edge3_Node000002_Node000004" class="edge">
<title>Node2&#45;&gt;Node4</title>
<g id="a_edge3_Node000002_Node000004"><a xlink:title=" ">
<path fill="none" stroke="#63b8ff" d="M250.28,-50.27C271.9,-40.68 300.26,-28.09 319.17,-19.7"/>
<polygon fill="#63b8ff" stroke="#63b8ff" points="249.09,-46.97 241.36,-54.23 251.92,-53.37 249.09,-46.97"/>
</a>
</g>
</g>
<!-- Node5 -->
<g id="Node000005" class="node">
<title>Node5</title>
<g id="a_Node000005"><a xlink:href="_web_server_8h.html" target="_top" xlink:title=" ">
<polygon fill="white" stroke="#666666" points="518.25,-19.25 413,-19.25 413,0 518.25,0 518.25,-19.25"/>
<text xml:space="preserve" text-anchor="middle" x="465.62" y="-5.75" font-family="Helvetica,sans-Serif" font-size="10.00">include/WebServer.h</text>
</a>
</g>
</g>
<!-- Node2&#45;&gt;Node5 -->
<g id="edge4_Node000002_Node000005" class="edge">
<title>Node2&#45;&gt;Node5</title>
<g id="a_edge4_Node000002_Node000005"><a xlink:title=" ">
<path fill="none" stroke="#63b8ff" d="M269.65,-53.05C314.93,-43.24 380.89,-28.97 423.53,-19.74"/>
<polygon fill="#63b8ff" stroke="#63b8ff" points="269.12,-49.58 260.08,-55.12 270.6,-56.42 269.12,-49.58"/>
</a>
</g>
</g>
<!-- Node6 -->
<g id="Node000006" class="node">
<title>Node6</title>
<g id="a_Node000006"><a xlink:href="_wi_fi_controller_8h.html" target="_top" xlink:title="WiFi Controller to handle Access Point and Station Mode.">
<polygon fill="white" stroke="#666666" points="266.38,-19.25 146.88,-19.25 146.88,0 266.38,0 266.38,-19.25"/>
<text xml:space="preserve" text-anchor="middle" x="206.62" y="-5.75" font-family="Helvetica,sans-Serif" font-size="10.00">include/WiFiController.h</text>
</a>
</g>
</g>
<!-- Node2&#45;&gt;Node6 -->
<g id="edge5_Node000002_Node000006" class="edge">
<title>Node2&#45;&gt;Node6</title>
<g id="a_edge5_Node000002_Node000006"><a xlink:title=" ">
<path fill="none" stroke="#63b8ff" d="M214.75,-43.92C212.71,-35.55 210.44,-26.25 208.82,-19.61"/>
<polygon fill="#63b8ff" stroke="#63b8ff" points="211.35,-44.73 217.12,-53.61 218.15,-43.07 211.35,-44.73"/>
</a>
</g>
</g>
<!-- Node7&#45;&gt;Node3 -->
<g id="edge9_Node000007_Node000003" class="edge">
<title>Node7&#45;&gt;Node3</title>
<g id="a_edge9_Node000007_Node000003"><a xlink:title=" ">
<path fill="none" stroke="#63b8ff" d="M344.9,-167.3C281.9,-159.95 194.59,-147.09 164.62,-129.75 116.71,-102.03 81.41,-42.32 69.25,-19.62"/>
<polygon fill="#63b8ff" stroke="#63b8ff" points="344.13,-170.74 354.47,-168.39 344.93,-163.78 344.13,-170.74"/>
</a>
</g>
</g>
<!-- Node8 -->
<g id="Node000008" class="node">
<title>Node8</title>
<g id="a_Node000008"><a xlink:href="_logging_8h.html" target="_top" xlink:title=" ">
<polygon fill="white" stroke="#666666" points="265.5,-129.75 173.75,-129.75 173.75,-110.5 265.5,-110.5 265.5,-129.75"/>
<text xml:space="preserve" text-anchor="middle" x="219.62" y="-116.25" font-family="Helvetica,sans-Serif" font-size="10.00">include/Logging.h</text>
</a>
</g>
</g>
<!-- Node7&#45;&gt;Node8 -->
<g id="edge7_Node000007_Node000008" class="edge">
<title>Node7&#45;&gt;Node8</title>
<g id="a_edge7_Node000007_Node000008"><a xlink:title=" ">
<path fill="none" stroke="#63b8ff" d="M370.48,-162.32C334.77,-152.57 285.28,-139.05 252.87,-130.2"/>
<polygon fill="#63b8ff" stroke="#63b8ff" points="369.52,-165.69 380.09,-164.94 371.36,-158.93 369.52,-165.69"/>
</a>
</g>
</g>
<!-- Node9 -->
<g id="Node000009" class="node">
<title>Node9</title>
<g id="a_Node000009"><a xlink:href="_module_interface_8h.html" target="_top" xlink:title="Full Interface for a module and an abstract basic module implementation.">
<polygon fill="white" stroke="#666666" points="549.5,-129.75 421.75,-129.75 421.75,-110.5 549.5,-110.5 549.5,-129.75"/>
<text xml:space="preserve" text-anchor="middle" x="485.62" y="-116.25" font-family="Helvetica,sans-Serif" font-size="10.00">include/ModuleInterface.h</text>
</a>
</g>
</g>
<!-- Node7&#45;&gt;Node9 -->
<g id="edge10_Node000007_Node000009" class="edge">
<title>Node7&#45;&gt;Node9</title>
<g id="a_edge10_Node000007_Node000009"><a xlink:title=" ">
<path fill="none" stroke="#63b8ff" d="M435.87,-158.44C448.27,-149.14 463.45,-137.76 473.76,-130.02"/>
<polygon fill="#63b8ff" stroke="#63b8ff" points="433.78,-155.63 427.88,-164.43 437.98,-161.23 433.78,-155.63"/>
</a>
</g>
</g>
<!-- Node13 -->
<g id="Node000013" class="node">
<title>Node13</title>
<g id="a_Node000013"><a xlink:href="_sys_status_led_8h.html" target="_top" xlink:title=" ">
<polygon fill="white" stroke="#666666" points="403.38,-129.75 283.88,-129.75 283.88,-110.5 403.38,-110.5 403.38,-129.75"/>
<text xml:space="preserve" text-anchor="middle" x="343.62" y="-116.25" font-family="Helvetica,sans-Serif" font-size="10.00">include/SysStatusLed.h</text>
</a>
</g>
</g>
<!-- Node7&#45;&gt;Node13 -->
<g id="edge15_Node000007_Node000013" class="edge">
<title>Node7&#45;&gt;Node13</title>
<g id="a_edge15_Node000007_Node000013"><a xlink:title=" ">
<path fill="none" stroke="#63b8ff" d="M393.38,-158.44C380.98,-149.14 365.8,-137.76 355.49,-130.02"/>
<polygon fill="#63b8ff" stroke="#63b8ff" points="391.27,-161.23 401.37,-164.43 395.47,-155.63 391.27,-161.23"/>
</a>
</g>
</g>
<!-- Node7&#45;&gt;Node14 -->
<g id="edge16_Node000007_Node000014" class="edge">
<title>Node7&#45;&gt;Node14</title>
<g id="a_edge16_Node000007_Node000014"><a xlink:title=" ">
<path fill="none" stroke="#63b8ff" d="M460.51,-162.57C498.48,-152.8 551.63,-139.13 586.34,-130.2"/>
<polygon fill="#63b8ff" stroke="#63b8ff" points="460.02,-159.08 451.21,-164.96 461.76,-165.86 460.02,-159.08"/>
</a>
</g>
</g>
<!-- Node8&#45;&gt;Node2 -->
<g id="edge8_Node000008_Node000002" class="edge">
<title>Node8&#45;&gt;Node2</title>
<g id="a_edge8_Node000008_Node000002"><a xlink:title=" ">
<path fill="none" stroke="#63b8ff" d="M219.62,-98.88C219.62,-90.59 219.62,-81.42 219.62,-74.86"/>
<polygon fill="#63b8ff" stroke="#63b8ff" points="216.13,-98.82 219.63,-108.82 223.13,-98.82 216.13,-98.82"/>
</a>
</g>
</g>
<!-- Node9&#45;&gt;Node2 -->
<g id="edge11_Node000009_Node000002" class="edge">
<title>Node9&#45;&gt;Node2</title>
<g id="a_edge11_Node000009_Node000002"><a xlink:title=" ">
<path fill="none" stroke="#63b8ff" d="M429,-107.79C377.79,-97.54 303.73,-82.71 258.8,-73.72"/>
<polygon fill="#63b8ff" stroke="#63b8ff" points="428.22,-111.2 438.72,-109.73 429.6,-104.34 428.22,-111.2"/>
</a>
</g>
</g>
<!-- Node10 -->
<g id="Node000010" class="node">
<title>Node10</title>
<g id="a_Node000010"><a xlink:href="_appl_module_8h.html" target="_top" xlink:title=" ">
<polygon fill="white" stroke="#666666" points="654.12,-74.5 545.12,-74.5 545.12,-55.25 654.12,-55.25 654.12,-74.5"/>
<text xml:space="preserve" text-anchor="middle" x="599.62" y="-61" font-family="Helvetica,sans-Serif" font-size="10.00">include/ApplModule.h</text>
</a>
</g>
</g>
<!-- Node9&#45;&gt;Node10 -->
<g id="edge12_Node000009_Node000010" class="edge">
<title>Node9&#45;&gt;Node10</title>
<g id="a_edge12_Node000009_Node000010"><a xlink:title=" ">
<path fill="none" stroke="#63b8ff" d="M515.31,-105.26C535.78,-95.7 562.39,-83.27 580.19,-74.95"/>
<polygon fill="#63b8ff" stroke="#63b8ff" points="513.91,-102.05 506.33,-109.45 516.88,-108.39 513.91,-102.05"/>
</a>
</g>
</g>
<!-- Node11 -->
<g id="Node000011" class="node">
<title>Node11</title>
<g id="a_Node000011"><a xlink:href="_battery_measure_8h.html" target="_top" xlink:title=" ">
<polygon fill="white" stroke="#666666" points="663.12,-19.25 536.12,-19.25 536.12,0 663.12,0 663.12,-19.25"/>
<text xml:space="preserve" text-anchor="middle" x="599.62" y="-5.75" font-family="Helvetica,sans-Serif" font-size="10.00">include/BatteryMeasure.h</text>
</a>
</g>
</g>
<!-- Node10&#45;&gt;Node11 -->
<g id="edge13_Node000010_Node000011" class="edge">
<title>Node10&#45;&gt;Node11</title>
<g id="a_edge13_Node000010_Node000011"><a xlink:title=" ">
<path fill="none" stroke="#63b8ff" d="M599.62,-43.63C599.62,-35.34 599.62,-26.17 599.62,-19.61"/>
<polygon fill="#63b8ff" stroke="#63b8ff" points="596.13,-43.57 599.63,-53.57 603.13,-43.57 596.13,-43.57"/>
</a>
</g>
</g>
<!-- Node12 -->
<g id="Node000012" class="node">
<title>Node12</title>
<g id="a_Node000012"><a xlink:href="_m_q_t_t_controller_8h.html" target="_top" xlink:title=" ">
<polygon fill="white" stroke="#666666" points="808.12,-19.25 681.12,-19.25 681.12,0 808.12,0 808.12,-19.25"/>
<text xml:space="preserve" text-anchor="middle" x="744.62" y="-5.75" font-family="Helvetica,sans-Serif" font-size="10.00">include/MQTTController.h</text>
</a>
</g>
</g>
<!-- Node10&#45;&gt;Node12 -->
<g id="edge14_Node000010_Node000012" class="edge">
<title>Node10&#45;&gt;Node12</title>
<g id="a_edge14_Node000010_Node000012"><a xlink:title=" ">
<path fill="none" stroke="#63b8ff" d="M634.89,-50.92C661.22,-41.25 696.54,-28.29 719.91,-19.7"/>
<polygon fill="#63b8ff" stroke="#63b8ff" points="633.82,-47.59 625.64,-54.32 636.24,-54.16 633.82,-47.59"/>
</a>
</g>
</g>
<!-- Node14&#45;&gt;Node5 -->
<g id="edge17_Node000014_Node000005" class="edge">
<title>Node14&#45;&gt;Node5</title>
<g id="a_edge17_Node000014_Node000005"><a xlink:title=" ">
<path fill="none" stroke="#63b8ff" d="M590.61,-105.16C574.02,-97.12 553.57,-86.29 536.62,-74.5 512.13,-57.45 486.98,-32.8 474.21,-19.66"/>
<polygon fill="#63b8ff" stroke="#63b8ff" points="588.98,-108.26 599.51,-109.37 591.97,-101.93 588.98,-108.26"/>
</a>
</g>
</g>
<!-- Node15&#45;&gt;Node7 -->
<g id="edge19_Node000015_Node000007" class="edge">
<title>Node15&#45;&gt;Node7</title>
<g id="a_edge19_Node000015_Node000007"><a xlink:title=" ">
<path fill="none" stroke="#63b8ff" d="M554.99,-217.44C521.7,-207.7 475.77,-194.27 445.65,-185.45"/>
<polygon fill="#63b8ff" stroke="#63b8ff" points="553.72,-220.72 564.3,-220.17 555.68,-214 553.72,-220.72"/>
</a>
</g>
</g>
<!-- Node15&#45;&gt;Node12 -->
<g id="edge20_Node000015_Node000012" class="edge">
<title>Node15&#45;&gt;Node12</title>
<g id="a_edge20_Node000015_Node000012"><a xlink:title=" ">
<path fill="none" stroke="#63b8ff" d="M614.02,-212.67C632.93,-193.65 663.28,-161.32 684.62,-129.75 710.56,-91.38 732.59,-40.26 740.99,-19.72"/>
<polygon fill="#63b8ff" stroke="#63b8ff" points="611.69,-210.06 607.06,-219.58 616.62,-215.03 611.69,-210.06"/>
</a>
</g>
</g>
</g>
</svg>
