<?xml version="1.0" encoding="UTF-8" standalone="no"?>
<!DOCTYPE svg PUBLIC "-//W3C//DTD SVG 1.1//EN"
 "http://www.w3.org/Graphics/SVG/1.1/DTD/svg11.dtd">
<!-- Generated by graphviz version 15.1.0 (20260618.0150)
 -->
<!-- Title: include/EventHandler.h Pages: 1 -->
<svg width="816pt" height="193pt"
 viewBox="0.00 0.00 816.00 193.00" xmlns="http://www.w3.org/2000/svg" xmlns:xlink="http://www.w3.org/1999/xlink">
<g id="graph0" class="graph" transform="scale(1 1) rotate(0) translate(4 189)">
<title>include/EventHandler.h</title>
<!-- Node1 -->
<g id="Node000001" class="node">
<title>Node1</title>
<g id="a_Node000001"><a xlink:title=" ">
<polygon fill="#999999" stroke="#666666" points="467.88,-185 351.38,-185 351.38,-165.75 467.88,-165.75 467.88,-185"/>
<text xml:space="preserve" text-anchor="middle" x="409.62" y="-171.5" font-family="Helvetica,sans-Serif" font-size="10.00">include/EventHandler.h</text>
</a>
</g>
</g>
<!-- Node2 -->
<g id="Node000002" class="node">
<title>Node2</title>
<g id="a_Node000002"><a xlink:href="_logging_8h.html" target="_top" xlink:title=" ">
<polygon fill="white" stroke="#666666" points="381.5,-129.75 289.75,-129.75 289.75,-110.5 381.5,-110.5 381.5,-129.75"/>
<text xml:space="preserve" text-anchor="middle" x="335.62" y="-116.25" font-family="Helvetica,sans-Serif" font-size="10.00">include/Logging.h</text>
</a>
</g>
</g>
<!-- Node1&#45;&gt;Node2 -->
<g id="edge1_Node000001_Node000002" class="edge">
<title>Node1&#45;&gt;Node2</title>
<g id="a_edge1_Node000001_Node000002"><a xlink:title=" ">
<path fill="none" stroke="#63b8ff" d="M387.87,-158.72C374.87,-149.37 358.84,-137.83 347.99,-130.02"/>
<polygon fill="#63b8ff" stroke="#63b8ff" points="385.68,-161.46 395.84,-164.46 389.77,-155.78 385.68,-161.46"/>
</a>
</g>
</g>
<!-- Node4 -->
<g id="Node000004" class="node">
<title>Node4</title>
<g id="a_Node000004"><a xlink:href="_m_d_n_s_controller_8h.html" target="_top" xlink:title="MDNS Controller class definition ESP MDNS controller to handle mDNS responder start/stop on WiFi even...">
<polygon fill="white" stroke="#666666" points="129.25,-19.25 0,-19.25 0,0 129.25,0 129.25,-19.25"/>
<text xml:space="preserve" text-anchor="middle" x="64.62" y="-5.75" font-family="Helvetica,sans-Serif" font-size="10.00">include/MDNSController.h</text>
</a>
</g>
</g>
<!-- Node1&#45;&gt;Node4 -->
<g id="edge7_Node000001_Node000004" class="edge">
<title>Node1&#45;&gt;Node4</title>
<g id="a_edge7_Node000001_Node000004"><a xlink:title=" ">
<path fill="none" stroke="#63b8ff" d="M367.74,-161.89C342.15,-153.77 309.01,-142.38 280.62,-129.75 201.58,-94.59 112.79,-40.75 78.85,-19.6"/>
<polygon fill="#63b8ff" stroke="#63b8ff" points="366.53,-165.18 377.12,-164.82 368.61,-158.5 366.53,-165.18"/>
</a>
</g>
</g>
<!-- Node8 -->
<g id="Node000008" class="node">
<title>Node8</title>
<g id="a_Node000008"><a xlink:href="_module_interface_8h.html" target="_top" xlink:title="Full Interface for a module and an abstract basic module implementation.">
<polygon fill="white" stroke="#666666" points="565.5,-129.75 437.75,-129.75 437.75,-110.5 565.5,-110.5 565.5,-129.75"/>
<text xml:space="preserve" text-anchor="middle" x="501.62" y="-116.25" font-family="Helvetica,sans-Serif" font-size="10.00">include/ModuleInterface.h</text>
</a>
</g>
</g>
<!-- Node1&#45;&gt;Node8 -->
<g id="edge8_Node000001_Node000008" class="edge">
<title>Node1&#45;&gt;Node8</title>
<g id="a_edge8_Node000001_Node000008"><a xlink:title=" ">
<path fill="none" stroke="#63b8ff" d="M434.73,-159.84C451.08,-150.38 471.91,-138.33 485.94,-130.2"/>
<polygon fill="#63b8ff" stroke="#63b8ff" points="433.44,-156.54 426.54,-164.58 436.95,-162.6 433.44,-156.54"/>
</a>
</g>
</g>
<!-- Node12 -->
<g id="Node000012" class="node">
<title>Node12</title>
<g id="a_Node000012"><a xlink:href="_sys_status_led_8h.html" target="_top" xlink:title=" ">
<polygon fill="white" stroke="#666666" points="703.38,-129.75 583.88,-129.75 583.88,-110.5 703.38,-110.5 703.38,-129.75"/>
<text xml:space="preserve" text-anchor="middle" x="643.62" y="-116.25" font-family="Helvetica,sans-Serif" font-size="10.00">include/SysStatusLed.h</text>
</a>
</g>
</g>
<!-- Node1&#45;&gt;Node12 -->
<g id="edge13_Node000001_Node000012" class="edge">
<title>Node1&#45;&gt;Node12</title>
<g id="a_edge13_Node000001_Node000012"><a xlink:title=" ">
<path fill="none" stroke="#63b8ff" d="M460.66,-162.76C503.67,-152.97 564.35,-139.17 603.83,-130.18"/>
<polygon fill="#63b8ff" stroke="#63b8ff" points="460.04,-159.31 451.06,-164.95 461.59,-166.14 460.04,-159.31"/>
</a>
</g>
</g>
<!-- Node13 -->
<g id="Node000013" class="node">
<title>Node13</title>
<g id="a_Node000013"><a xlink:href="_web_socket_8h.html" target="_top" xlink:title=" ">
<polygon fill="white" stroke="#666666" points="510.75,-74.5 402.5,-74.5 402.5,-55.25 510.75,-55.25 510.75,-74.5"/>
<text xml:space="preserve" text-anchor="middle" x="456.62" y="-61" font-family="Helvetica,sans-Serif" font-size="10.00">include/WebSocket.h</text>
</a>
</g>
</g>
<!-- Node1&#45;&gt;Node13 -->
<g id="edge14_Node000001_Node000013" class="edge">
<title>Node1&#45;&gt;Node13</title>
<g id="a_edge14_Node000001_Node000013"><a xlink:title=" ">
<path fill="none" stroke="#63b8ff" d="M414.04,-154.56C417.26,-141.69 422.19,-124.72 428.62,-110.5 434.58,-97.33 443.85,-83.42 450.07,-74.7"/>
<polygon fill="#63b8ff" stroke="#63b8ff" points="410.71,-153.42 411.83,-163.95 417.53,-155.02 410.71,-153.42"/>
</a>
</g>
</g>
<!-- Node3 -->
<g id="Node000003" class="node">
<title>Node3</title>
<g id="a_Node000003"><a xlink:href="_appl_8h.html" target="_top" xlink:title="Application Main Class.">
<polygon fill="white" stroke="#666666" points="374.38,-74.5 296.88,-74.5 296.88,-55.25 374.38,-55.25 374.38,-74.5"/>
<text xml:space="preserve" text-anchor="middle" x="335.62" y="-61" font-family="Helvetica,sans-Serif" font-size="10.00">include/Appl.h</text>
</a>
</g>
</g>
<!-- Node2&#45;&gt;Node3 -->
<g id="edge2_Node000002_Node000003" class="edge">
<title>Node2&#45;&gt;Node3</title>
<g id="a_edge2_Node000002_Node000003"><a xlink:title=" ">
<path fill="none" stroke="#63b8ff" d="M335.62,-98.88C335.62,-90.59 335.62,-81.42 335.62,-74.86"/>
<polygon fill="#63b8ff" stroke="#63b8ff" points="332.13,-98.82 335.63,-108.82 339.13,-98.82 332.13,-98.82"/>
</a>
</g>
</g>
<!-- Node3&#45;&gt;Node4 -->
<g id="edge3_Node000003_Node000004" class="edge">
<title>Node3&#45;&gt;Node4</title>
<g id="a_edge3_Node000003_Node000004"><a xlink:title=" ">
<path fill="none" stroke="#63b8ff" d="M285.34,-53.99C235.41,-44.18 159.51,-29.27 111,-19.74"/>
<polygon fill="#63b8ff" stroke="#63b8ff" points="284.54,-57.4 295.02,-55.9 285.89,-50.53 284.54,-57.4"/>
</a>
</g>
</g>
<!-- Node5 -->
<g id="Node000005" class="node">
<title>Node5</title>
<g id="a_Node000005"><a xlink:href="_n_t_p_handler_8h.html" target="_top" xlink:title=" ">
<polygon fill="white" stroke="#666666" points="258.25,-19.25 147,-19.25 147,0 258.25,0 258.25,-19.25"/>
<text xml:space="preserve" text-anchor="middle" x="202.62" y="-5.75" font-family="Helvetica,sans-Serif" font-size="10.00">include/NTPHandler.h</text>
</a>
</g>
</g>
<!-- Node3&#45;&gt;Node5 -->
<g id="edge4_Node000003_Node000005" class="edge">
<title>Node3&#45;&gt;Node5</title>
<g id="a_edge4_Node000003_Node000005"><a xlink:title=" ">
<path fill="none" stroke="#63b8ff" d="M302.63,-50.66C278.55,-41.02 246.54,-28.21 225.3,-19.7"/>
<polygon fill="#63b8ff" stroke="#63b8ff" points="301.07,-53.81 311.66,-54.28 303.68,-47.31 301.07,-53.81"/>
</a>
</g>
</g>
<!-- Node6 -->
<g id="Node000006" class="node">
<title>Node6</title>
<g id="a_Node000006"><a xlink:href="_web_server_8h.html" target="_top" xlink:title=" ">
<polygon fill="white" stroke="#666666" points="518.25,-19.25 413,-19.25 413,0 518.25,0 518.25,-19.25"/>
<text xml:space="preserve" text-anchor="middle" x="465.62" y="-5.75" font-family="Helvetica,sans-Serif" font-size="10.00">include/WebServer.h</text>
</a>
</g>
</g>
<!-- Node3&#45;&gt;Node6 -->
<g id="edge5_Node000003_Node000006" class="edge">
<title>Node3&#45;&gt;Node6</title>
<g id="a_edge5_Node000003_Node000006"><a xlink:title=" ">
<path fill="none" stroke="#63b8ff" d="M368.2,-50.53C391.69,-40.91 422.79,-28.17 443.46,-19.7"/>
<polygon fill="#63b8ff" stroke="#63b8ff" points="367.01,-47.24 359.08,-54.27 369.66,-53.72 367.01,-47.24"/>
</a>
</g>
</g>
<!-- Node7 -->
<g id="Node000007" class="node">
<title>Node7</title>
<g id="a_Node000007"><a xlink:href="_wi_fi_controller_8h.html" target="_top" xlink:title="WiFi Controller to handle Access Point and Station Mode.">
<polygon fill="white" stroke="#666666" points="395.38,-19.25 275.88,-19.25 275.88,0 395.38,0 395.38,-19.25"/>
<text xml:space="preserve" text-anchor="middle" x="335.62" y="-5.75" font-family="Helvetica,sans-Serif" font-size="10.00">include/WiFiController.h</text>
</a>
</g>
</g>
<!-- Node3&#45;&gt;Node7 -->
<g id="edge6_Node000003_Node000007" class="edge">
<title>Node3&#45;&gt;Node7</title>
<g id="a_edge6_Node000003_Node000007"><a xlink:title=" ">
<path fill="none" stroke="#63b8ff" d="M335.62,-43.63C335.62,-35.34 335.62,-26.17 335.62,-19.61"/>
<polygon fill="#63b8ff" stroke="#63b8ff" points="332.13,-43.57 335.63,-53.57 339.13,-43.57 332.13,-43.57"/>
</a>
</g>
</g>
<!-- Node8&#45;&gt;Node3 -->
<g id="edge9_Node000008_Node000003" class="edge">
<title>Node8&#45;&gt;Node3</title>
<g id="a_edge9_Node000008_Node000003"><a xlink:title=" ">
<path fill="none" stroke="#63b8ff" d="M462.85,-106.69C432.56,-96.97 391.16,-83.69 363.92,-74.95"/>
<polygon fill="#63b8ff" stroke="#63b8ff" points="461.43,-109.91 472.02,-109.63 463.57,-103.24 461.43,-109.91"/>
</a>
</g>
</g>
<!-- Node9 -->
<g id="Node000009" class="node">
<title>Node9</title>
<g id="a_Node000009"><a xlink:href="_appl_module_8h.html" target="_top" xlink:title=" ">
<polygon fill="white" stroke="#666666" points="654.12,-74.5 545.12,-74.5 545.12,-55.25 654.12,-55.25 654.12,-74.5"/>
<text xml:space="preserve" text-anchor="middle" x="599.62" y="-61" font-family="Helvetica,sans-Serif" font-size="10.00">include/ApplModule.h</text>
</a>
</g>
</g>
<!-- Node8&#45;&gt;Node9 -->
<g id="edge10_Node000008_Node000009" class="edge">
<title>Node8&#45;&gt;Node9</title>
<g id="a_edge10_Node000008_Node000009"><a xlink:title=" ">
<path fill="none" stroke="#63b8ff" d="M527.88,-104.86C545.37,-95.36 567.83,-83.15 582.92,-74.95"/>
<polygon fill="#63b8ff" stroke="#63b8ff" points="526.69,-101.52 519.58,-109.37 530.04,-107.67 526.69,-101.52"/>
</a>
</g>
</g>
<!-- Node10 -->
<g id="Node000010" class="node">
<title>Node10</title>
<g id="a_Node000010"><a xlink:href="_battery_measure_8h.html" target="_top" xlink:title=" ">
<polygon fill="white" stroke="#666666" points="663.12,-19.25 536.12,-19.25 536.12,0 663.12,0 663.12,-19.25"/>
<text xml:space="preserve" text-anchor="middle" x="599.62" y="-5.75" font-family="Helvetica,sans-Serif" font-size="10.00">include/BatteryMeasure.h</text>
</a>
</g>
</g>
<!-- Node9&#45;&gt;Node10 -->
<g id="edge11_Node000009_Node000010" class="edge">
<title>Node9&#45;&gt;Node10</title>
<g id="a_edge11_Node000009_Node000010"><a xlink:title=" ">
<path fill="none" stroke="#63b8ff" d="M599.62,-43.63C599.62,-35.34 599.62,-26.17 599.62,-19.61"/>
<polygon fill="#63b8ff" stroke="#63b8ff" points="596.13,-43.57 599.63,-53.57 603.13,-43.57 596.13,-43.57"/>
</a>
</g>
</g>
<!-- Node11 -->
<g id="Node000011" class="node">
<title>Node11</title>
<g id="a_Node000011"><a xlink:href="_m_q_t_t_controller_8h.html" target="_top" xlink:title=" ">
<polygon fill="white" stroke="#666666" points="808.12,-19.25 681.12,-19.25 681.12,0 808.12,0 808.12,-19.25"/>
<text xml:space="preserve" text-anchor="middle" x="744.62" y="-5.75" font-family="Helvetica,sans-Serif" font-size="10.00">include/MQTTController.h</text>
</a>
</g>
</g>
<!-- Node9&#45;&gt;Node11 -->
<g id="edge12_Node000009_Node000011" class="edge">
<title>Node9&#45;&gt;Node11</title>
<g id="a_edge12_Node000009_Node000011"><a xlink:title=" ">
<path fill="none" stroke="#63b8ff" d="M634.89,-50.92C661.22,-41.25 696.54,-28.29 719.91,-19.7"/>
<polygon fill="#63b8ff" stroke="#63b8ff" points="633.82,-47.59 625.64,-54.32 636.24,-54.16 633.82,-47.59"/>
</a>
</g>
</g>
<!-- Node13&#45;&gt;Node6 -->
<g id="edge15_Node000013_Node000006" class="edge">
<title>Node13&#45;&gt;Node6</title>
<g id="a_edge15_Node000013_Node000006"><a xlink:title=" ">
<path fill="none" stroke="#63b8ff" d="M460,-43.92C461.41,-35.55 462.98,-26.25 464.11,-19.61"/>
<polygon fill="#63b8ff" stroke="#63b8ff" points="456.58,-43.15 458.36,-53.59 463.48,-44.31 456.58,-43.15"/>
</a>
</g>
</g>
</g>
</svg>
