<?xml version="1.0" encoding="UTF-8" standalone="no"?>
<!DOCTYPE svg PUBLIC "-//W3C//DTD SVG 1.1//EN"
 "http://www.w3.org/Graphics/SVG/1.1/DTD/svg11.dtd">
<!-- Generated by graphviz version 15.1.0 (20260618.0150)
 -->
<!-- Title: include/FileSystem.h Pages: 1 -->
<svg width="230pt" height="248pt"
 viewBox="0.00 0.00 230.00 248.00" xmlns="http://www.w3.org/2000/svg" xmlns:xlink="http://www.w3.org/1999/xlink">
<g id="graph0" class="graph" transform="scale(1 1) rotate(0) translate(4 244.25)">
<title>include/FileSystem.h</title>
<!-- Node1 -->
<g id="Node000001" class="node">
<title>Node1</title>
<g id="a_Node000001"><a xlink:title=" ">
<polygon fill="#999999" stroke="#666666" points="119.25,-240.25 11.75,-240.25 11.75,-221 119.25,-221 119.25,-240.25"/>
<text xml:space="preserve" text-anchor="middle" x="65.5" y="-226.75" font-family="Helvetica,sans-Serif" font-size="10.00">include/FileSystem.h</text>
</a>
</g>
</g>
<!-- Node2 -->
<g id="Node000002" class="node">
<title>Node2</title>
<g id="a_Node000002"><a xlink:title=" ">
<polygon fill="#e0e0e0" stroke="#999999" points="37,-185 0,-185 0,-165.75 37,-165.75 37,-185"/>
<text xml:space="preserve" text-anchor="middle" x="18.5" y="-171.5" font-family="Helvetica,sans-Serif" font-size="10.00">FS.h</text>
</a>
</g>
</g>
<!-- Node1&#45;&gt;Node2 -->
<g id="edge1_Node000001_Node000002" class="edge">
<title>Node1&#45;&gt;Node2</title>
<g id="a_edge1_Node000001_Node000002"><a xlink:title=" ">
<path fill="none" stroke="#63b8ff" d="M57.74,-220.83C51.31,-213.55 41.99,-202.98 34.04,-193.98"/>
<polygon fill="#63b8ff" stroke="#63b8ff" points="36.67,-191.68 27.43,-186.49 31.42,-196.31 36.67,-191.68"/>
</a>
</g>
</g>
<!-- Node3 -->
<g id="Node000003" class="node">
<title>Node3</title>
<g id="a_Node000003"><a xlink:href="_runtime_8h.html" target="_top" xlink:title=" ">
<polygon fill="white" stroke="#666666" points="134,-74.5 73,-74.5 73,-55.25 134,-55.25 134,-74.5"/>
<text xml:space="preserve" text-anchor="middle" x="103.5" y="-61" font-family="Helvetica,sans-Serif" font-size="10.00">Runtime.h</text>
</a>
</g>
</g>
<!-- Node1&#45;&gt;Node3 -->
<g id="edge2_Node000001_Node000003" class="edge">
<title>Node1&#45;&gt;Node3</title>
<g id="a_edge2_Node000001_Node000003"><a xlink:title=" ">
<path fill="none" stroke="#63b8ff" d="M67.54,-220.82C73.45,-195.39 90.63,-121.35 98.92,-85.62"/>
<polygon fill="#63b8ff" stroke="#63b8ff" points="102.25,-86.73 101.1,-76.2 95.43,-85.15 102.25,-86.73"/>
</a>
</g>
</g>
<!-- Node7 -->
<g id="Node000007" class="node">
<title>Node7</title>
<g id="a_Node000007"><a xlink:href="_status_handler_8h.html" target="_top" xlink:title=" ">
<polygon fill="white" stroke="#666666" points="194.38,-185 108.62,-185 108.62,-165.75 194.38,-165.75 194.38,-185"/>
<text xml:space="preserve" text-anchor="middle" x="151.5" y="-171.5" font-family="Helvetica,sans-Serif" font-size="10.00">StatusHandler.h</text>
</a>
</g>
</g>
<!-- Node1&#45;&gt;Node7 -->
<g id="edge6_Node000001_Node000007" class="edge">
<title>Node1&#45;&gt;Node7</title>
<g id="a_edge6_Node000001_Node000007"><a xlink:title=" ">
<path fill="none" stroke="#63b8ff" d="M80.09,-220.59C92.94,-212.64 111.91,-200.89 127.07,-191.5"/>
<polygon fill="#63b8ff" stroke="#63b8ff" points="128.89,-194.49 135.55,-186.25 125.21,-188.54 128.89,-194.49"/>
</a>
</g>
</g>
<!-- Node4 -->
<g id="Node000004" class="node">
<title>Node4</title>
<g id="a_Node000004"><a xlink:title=" ">
<polygon fill="#e0e0e0" stroke="#999999" points="62.62,-19.25 14.38,-19.25 14.38,0 62.62,0 62.62,-19.25"/>
<text xml:space="preserve" text-anchor="middle" x="38.5" y="-5.75" font-family="Helvetica,sans-Serif" font-size="10.00">string.h</text>
</a>
</g>
</g>
<!-- Node3&#45;&gt;Node4 -->
<g id="edge3_Node000003_Node000004" class="edge">
<title>Node3&#45;&gt;Node4</title>
<g id="a_edge3_Node000003_Node000004"><a xlink:title=" ">
<path fill="none" stroke="#63b8ff" d="M92.47,-54.84C83.08,-47.15 69.35,-35.9 58.09,-26.68"/>
<polygon fill="#63b8ff" stroke="#63b8ff" points="60.49,-24.11 50.53,-20.48 56.05,-29.53 60.49,-24.11"/>
</a>
</g>
</g>
<!-- Node5 -->
<g id="Node000005" class="node">
<title>Node5</title>
<g id="a_Node000005"><a xlink:title=" ">
<polygon fill="#e0e0e0" stroke="#999999" points="126.12,-19.25 80.88,-19.25 80.88,0 126.12,0 126.12,-19.25"/>
<text xml:space="preserve" text-anchor="middle" x="103.5" y="-5.75" font-family="Helvetica,sans-Serif" font-size="10.00">chrono</text>
</a>
</g>
</g>
<!-- Node3&#45;&gt;Node5 -->
<g id="edge4_Node000003_Node000005" class="edge">
<title>Node3&#45;&gt;Node5</title>
<g id="a_edge4_Node000003_Node000005"><a xlink:title=" ">
<path fill="none" stroke="#63b8ff" d="M103.5,-55.08C103.5,-48.57 103.5,-39.42 103.5,-31.12"/>
<polygon fill="#63b8ff" stroke="#63b8ff" points="107,-31.12 103.5,-21.12 100,-31.12 107,-31.12"/>
</a>
</g>
</g>
<!-- Node6 -->
<g id="Node000006" class="node">
<title>Node6</title>
<g id="a_Node000006"><a xlink:title=" ">
<polygon fill="#e0e0e0" stroke="#999999" points="197.25,-19.25 143.75,-19.25 143.75,0 197.25,0 197.25,-19.25"/>
<text xml:space="preserve" text-anchor="middle" x="170.5" y="-5.75" font-family="Helvetica,sans-Serif" font-size="10.00">iostream</text>
</a>
</g>
</g>
<!-- Node3&#45;&gt;Node6 -->
<g id="edge5_Node000003_Node000006" class="edge">
<title>Node3&#45;&gt;Node6</title>
<g id="a_edge5_Node000003_Node000006"><a xlink:title=" ">
<path fill="none" stroke="#63b8ff" d="M114.87,-54.84C124.55,-47.15 138.7,-35.9 150.31,-26.68"/>
<polygon fill="#63b8ff" stroke="#63b8ff" points="152.47,-29.43 158.12,-20.47 148.11,-23.95 152.47,-29.43"/>
</a>
</g>
</g>
<!-- Node7&#45;&gt;Node3 -->
<g id="edge7_Node000007_Node000003" class="edge">
<title>Node7&#45;&gt;Node3</title>
<g id="a_edge7_Node000007_Node000003"><a xlink:title=" ">
<path fill="none" stroke="#63b8ff" d="M144.45,-165.26C137.99,-156.54 128.54,-142.84 122.5,-129.75 115.96,-115.58 111.03,-98.61 107.84,-85.72"/>
<polygon fill="#63b8ff" stroke="#63b8ff" points="111.33,-85.27 105.65,-76.32 104.51,-86.85 111.33,-85.27"/>
</a>
</g>
</g>
<!-- Node8 -->
<g id="Node000008" class="node">
<title>Node8</title>
<g id="a_Node000008"><a xlink:href="_json_node_8h.html" target="_top" xlink:title=" ">
<polygon fill="white" stroke="#666666" points="199.75,-129.75 131.25,-129.75 131.25,-110.5 199.75,-110.5 199.75,-129.75"/>
<text xml:space="preserve" text-anchor="middle" x="165.5" y="-116.25" font-family="Helvetica,sans-Serif" font-size="10.00">JsonNode.h</text>
</a>
</g>
</g>
<!-- Node7&#45;&gt;Node8 -->
<g id="edge8_Node000007_Node000008" class="edge">
<title>Node7&#45;&gt;Node8</title>
<g id="a_edge8_Node000007_Node000008"><a xlink:title=" ">
<path fill="none" stroke="#63b8ff" d="M153.81,-165.58C155.56,-158.92 158.04,-149.49 160.27,-141.03"/>
<polygon fill="#63b8ff" stroke="#63b8ff" points="163.6,-142.13 162.75,-131.57 156.83,-140.35 163.6,-142.13"/>
</a>
</g>
</g>
<!-- Node9 -->
<g id="Node000009" class="node">
<title>Node9</title>
<g id="a_Node000009"><a xlink:title=" ">
<polygon fill="#e0e0e0" stroke="#999999" points="222,-74.5 179,-74.5 179,-55.25 222,-55.25 222,-74.5"/>
<text xml:space="preserve" text-anchor="middle" x="200.5" y="-61" font-family="Helvetica,sans-Serif" font-size="10.00">vector</text>
</a>
</g>
</g>
<!-- Node7&#45;&gt;Node9 -->
<g id="edge11_Node000007_Node000009" class="edge">
<title>Node7&#45;&gt;Node9</title>
<g id="a_edge11_Node000007_Node000009"><a xlink:title=" ">
<path fill="none" stroke="#63b8ff" d="M170.69,-165.25C184,-157.77 200.68,-145.79 208.5,-129.75 215.24,-115.9 212.41,-98.45 208.35,-85.29"/>
<polygon fill="#63b8ff" stroke="#63b8ff" points="211.71,-84.29 205.04,-76.06 205.13,-86.66 211.71,-84.29"/>
</a>
</g>
</g>
<!-- Node8&#45;&gt;Node3 -->
<g id="edge9_Node000008_Node000003" class="edge">
<title>Node8&#45;&gt;Node3</title>
<g id="a_edge9_Node000008_Node000003"><a xlink:title=" ">
<path fill="none" stroke="#63b8ff" d="M154.98,-110.09C146.11,-102.47 133.19,-91.37 122.51,-82.2"/>
<polygon fill="#63b8ff" stroke="#63b8ff" points="124.88,-79.62 115.01,-75.76 120.32,-84.93 124.88,-79.62"/>
</a>
</g>
</g>
<!-- Node8&#45;&gt;Node9 -->
<g id="edge10_Node000008_Node000009" class="edge">
<title>Node8&#45;&gt;Node9</title>
<g id="a_edge10_Node000008_Node000009"><a xlink:title=" ">
<path fill="none" stroke="#63b8ff" d="M171.28,-110.33C175.91,-103.28 182.57,-93.15 188.37,-84.33"/>
<polygon fill="#63b8ff" stroke="#63b8ff" points="191.2,-86.4 193.76,-76.12 185.35,-82.56 191.2,-86.4"/>
</a>
</g>
</g>
</g>
</svg>
