<?xml version="1.0" encoding="UTF-8" standalone="no"?>
<!DOCTYPE svg PUBLIC "-//W3C//DTD SVG 1.1//EN"
 "http://www.w3.org/Graphics/SVG/1.1/DTD/svg11.dtd">
<!-- Generated by graphviz version 15.1.0 (20260618.0150)
 -->
<!-- Title: include/FileSystem.h Pages: 1 -->
<svg width="586pt" height="83pt"
 viewBox="0.00 0.00 586.00 83.00" xmlns="http://www.w3.org/2000/svg" xmlns:xlink="http://www.w3.org/1999/xlink">
<g id="graph0" class="graph" transform="scale(1 1) rotate(0) translate(4 78.5)">
<title>include/FileSystem.h</title>
<!-- Node1 -->
<g id="Node000001" class="node">
<title>Node1</title>
<g id="a_Node000001"><a xlink:title=" ">
<polygon fill="#999999" stroke="#666666" points="327.88,-74.5 220.38,-74.5 220.38,-55.25 327.88,-55.25 327.88,-74.5"/>
<text xml:space="preserve" text-anchor="middle" x="274.12" y="-61" font-family="Helvetica,sans-Serif" font-size="10.00">include/FileSystem.h</text>
</a>
</g>
</g>
<!-- Node2 -->
<g id="Node000002" class="node">
<title>Node2</title>
<g id="a_Node000002"><a xlink:href="_c_appl_8cpp.html" target="_top" xlink:title="Application Framework Implementation.">
<polygon fill="white" stroke="#666666" points="78.25,-19.25 0,-19.25 0,0 78.25,0 78.25,-19.25"/>
<text xml:space="preserve" text-anchor="middle" x="39.12" y="-5.75" font-family="Helvetica,sans-Serif" font-size="10.00">src/CAppl.cpp</text>
</a>
</g>
</g>
<!-- Node1&#45;&gt;Node2 -->
<g id="edge1_Node000001_Node000002" class="edge">
<title>Node1&#45;&gt;Node2</title>
<g id="a_edge1_Node000001_Node000002"><a xlink:title=" ">
<path fill="none" stroke="#63b8ff" d="M222.83,-52.25C179.5,-42.43 118.33,-28.57 78.7,-19.59"/>
<polygon fill="#63b8ff" stroke="#63b8ff" points="221.99,-55.65 232.52,-54.45 223.54,-48.82 221.99,-55.65"/>
</a>
</g>
</g>
<!-- Node3 -->
<g id="Node000003" class="node">
<title>Node3</title>
<g id="a_Node000003"><a xlink:href="_c_file_system_8cpp.html" target="_top" xlink:title=" ">
<polygon fill="white" stroke="#666666" points="204.25,-19.25 96,-19.25 96,0 204.25,0 204.25,-19.25"/>
<text xml:space="preserve" text-anchor="middle" x="150.12" y="-5.75" font-family="Helvetica,sans-Serif" font-size="10.00">src/CFileSystem.cpp</text>
</a>
</g>
</g>
<!-- Node1&#45;&gt;Node3 -->
<g id="edge2_Node000001_Node000003" class="edge">
<title>Node1&#45;&gt;Node3</title>
<g id="a_edge2_Node000001_Node000003"><a xlink:title=" ">
<path fill="none" stroke="#63b8ff" d="M242.75,-50.4C220.38,-40.79 190.89,-28.13 171.26,-19.7"/>
<polygon fill="#63b8ff" stroke="#63b8ff" points="241.13,-53.51 251.7,-54.24 243.89,-47.08 241.13,-53.51"/>
</a>
</g>
</g>
<!-- Node4 -->
<g id="Node000004" class="node">
<title>Node4</title>
<g id="a_Node000004"><a xlink:href="_c_sys_status_8cpp.html" target="_top" xlink:title=" ">
<polygon fill="white" stroke="#666666" points="326.38,-19.25 221.88,-19.25 221.88,0 326.38,0 326.38,-19.25"/>
<text xml:space="preserve" text-anchor="middle" x="274.12" y="-5.75" font-family="Helvetica,sans-Serif" font-size="10.00">src/CSysStatus.cpp</text>
</a>
</g>
</g>
<!-- Node1&#45;&gt;Node4 -->
<g id="edge3_Node000001_Node000004" class="edge">
<title>Node1&#45;&gt;Node4</title>
<g id="a_edge3_Node000001_Node000004"><a xlink:title=" ">
<path fill="none" stroke="#63b8ff" d="M274.12,-43.63C274.12,-35.34 274.12,-26.17 274.12,-19.61"/>
<polygon fill="#63b8ff" stroke="#63b8ff" points="270.63,-43.57 274.13,-53.57 277.63,-43.57 270.63,-43.57"/>
</a>
</g>
</g>
<!-- Node5 -->
<g id="Node000005" class="node">
<title>Node5</title>
<g id="a_Node000005"><a xlink:href="_c_web_server_8cpp.html" target="_top" xlink:title=" ">
<polygon fill="white" stroke="#666666" points="450.12,-19.25 344.12,-19.25 344.12,0 450.12,0 450.12,-19.25"/>
<text xml:space="preserve" text-anchor="middle" x="397.12" y="-5.75" font-family="Helvetica,sans-Serif" font-size="10.00">src/CWebServer.cpp</text>
</a>
</g>
</g>
<!-- Node1&#45;&gt;Node5 -->
<g id="edge4_Node000001_Node000005" class="edge">
<title>Node1&#45;&gt;Node5</title>
<g id="a_edge4_Node000001_Node000005"><a xlink:title=" ">
<path fill="none" stroke="#63b8ff" d="M305.55,-50.27C327.71,-40.68 356.77,-28.09 376.16,-19.7"/>
<polygon fill="#63b8ff" stroke="#63b8ff" points="304.17,-47.06 296.38,-54.24 306.95,-53.48 304.17,-47.06"/>
</a>
</g>
</g>
<!-- Node6 -->
<g id="Node000006" class="node">
<title>Node6</title>
<g id="a_Node000006"><a xlink:href="_c_web_socket_8cpp.html" target="_top" xlink:title="Implementation of the CWebSocket class.">
<polygon fill="white" stroke="#666666" points="577.62,-19.25 468.62,-19.25 468.62,0 577.62,0 577.62,-19.25"/>
<text xml:space="preserve" text-anchor="middle" x="523.12" y="-5.75" font-family="Helvetica,sans-Serif" font-size="10.00">src/CWebSocket.cpp</text>
</a>
</g>
</g>
<!-- Node1&#45;&gt;Node6 -->
<g id="edge5_Node000001_Node000006" class="edge">
<title>Node1&#45;&gt;Node6</title>
<g id="a_edge5_Node000001_Node000006"><a xlink:title=" ">
<path fill="none" stroke="#63b8ff" d="M327.85,-52.38C373.65,-42.59 438.59,-28.7 480.78,-19.68"/>
<polygon fill="#63b8ff" stroke="#63b8ff" points="327.17,-48.95 318.13,-54.46 328.64,-55.8 327.17,-48.95"/>
</a>
</g>
</g>
</g>
</svg>
