<?xml version="1.0" encoding="UTF-8" standalone="no"?>
<!DOCTYPE svg PUBLIC "-//W3C//DTD SVG 1.1//EN"
 "http://www.w3.org/Graphics/SVG/1.1/DTD/svg11.dtd">
<!-- Generated by graphviz version 15.1.0 (20260618.0150)
 -->
<!-- Title: src/JsonHelper.cpp Pages: 1 -->
<svg width="1087pt" height="414pt"
 viewBox="0.00 0.00 1087.00 414.00" xmlns="http://www.w3.org/2000/svg" xmlns:xlink="http://www.w3.org/1999/xlink">
<g id="graph0" class="graph" transform="scale(1 1) rotate(0) translate(4 410)">
<title>src/JsonHelper.cpp</title>
<!-- Node1 -->
<g id="Node000001" class="node">
<title>Node1</title>
<g id="a_Node000001"><a xlink:title=" ">
<polygon fill="#999999" stroke="#666666" points="287,-406 187,-406 187,-386.75 287,-386.75 287,-406"/>
<text xml:space="preserve" text-anchor="middle" x="237" y="-392.5" font-family="Helvetica,sans-Serif" font-size="10.00">src/JsonHelper.cpp</text>
</a>
</g>
</g>
<!-- Node2 -->
<g id="Node000002" class="node">
<title>Node2</title>
<g id="a_Node000002"><a xlink:href="_appl_8h.html" target="_top" xlink:title="Application Main Class.">
<polygon fill="white" stroke="#666666" points="475.88,-350.75 432.12,-350.75 432.12,-331.5 475.88,-331.5 475.88,-350.75"/>
<text xml:space="preserve" text-anchor="middle" x="454" y="-337.25" font-family="Helvetica,sans-Serif" font-size="10.00">Appl.h</text>
</a>
</g>
</g>
<!-- Node1&#45;&gt;Node2 -->
<g id="edge1_Node000001_Node000002" class="edge">
<title>Node1&#45;&gt;Node2</title>
<g id="a_edge1_Node000001_Node000002"><a xlink:title=" ">
<path fill="none" stroke="#63b8ff" d="M273.81,-386.34C314.88,-376.26 380.76,-360.1 420.46,-350.36"/>
<polygon fill="#63b8ff" stroke="#63b8ff" points="421.29,-353.75 430.17,-347.97 419.63,-346.96 421.29,-353.75"/>
</a>
</g>
</g>
<!-- Node19 -->
<g id="Node000019" class="node">
<title>Node19</title>
<g id="a_Node000019"><a xlink:href="_l_s_c_utils_8h.html" target="_top" xlink:title=" ">
<polygon fill="white" stroke="#666666" points="362,-129.75 298,-129.75 298,-110.5 362,-110.5 362,-129.75"/>
<text xml:space="preserve" text-anchor="middle" x="330" y="-116.25" font-family="Helvetica,sans-Serif" font-size="10.00">LSCUtils.h</text>
</a>
</g>
</g>
<!-- Node1&#45;&gt;Node19 -->
<g id="edge47_Node000001_Node000019" class="edge">
<title>Node1&#45;&gt;Node19</title>
<g id="a_edge47_Node000001_Node000019"><a xlink:title=" ">
<path fill="none" stroke="#63b8ff" d="M211.81,-386.29C175.83,-371.49 114,-338.56 114,-286.88 114,-286.88 114,-286.88 114,-229.62 114,-200.01 111.37,-185.99 133,-165.75 154.85,-145.3 235.16,-132.28 286.24,-125.87"/>
<polygon fill="#63b8ff" stroke="#63b8ff" points="286.6,-129.36 296.1,-124.68 285.76,-122.41 286.6,-129.36"/>
</a>
</g>
</g>
<!-- Node20 -->
<g id="Node000020" class="node">
<title>Node20</title>
<g id="a_Node000020"><a xlink:href="_development_helper_8h.html" target="_top" xlink:title=" ">
<polygon fill="white" stroke="#666666" points="111.88,-129.75 2.12,-129.75 2.12,-110.5 111.88,-110.5 111.88,-129.75"/>
<text xml:space="preserve" text-anchor="middle" x="57" y="-116.25" font-family="Helvetica,sans-Serif" font-size="10.00">DevelopmentHelper.h</text>
</a>
</g>
</g>
<!-- Node1&#45;&gt;Node20 -->
<g id="edge46_Node000001_Node000020" class="edge">
<title>Node1&#45;&gt;Node20</title>
<g id="a_edge46_Node000001_Node000020"><a xlink:title=" ">
<path fill="none" stroke="#63b8ff" d="M186.74,-393.9C117.17,-388.88 0,-368.33 0,-286.88 0,-286.88 0,-286.88 0,-229.62 0,-194.17 24.14,-158.91 41.01,-138.6"/>
<polygon fill="#63b8ff" stroke="#63b8ff" points="43.44,-141.13 47.35,-131.29 38.16,-136.55 43.44,-141.13"/>
</a>
</g>
</g>
<!-- Node25 -->
<g id="Node000025" class="node">
<title>Node25</title>
<g id="a_Node000025"><a xlink:href="_json_helper_8h.html" target="_top" xlink:title=" ">
<polygon fill="white" stroke="#666666" points="985.5,-350.75 912.5,-350.75 912.5,-331.5 985.5,-331.5 985.5,-350.75"/>
<text xml:space="preserve" text-anchor="middle" x="949" y="-337.25" font-family="Helvetica,sans-Serif" font-size="10.00">JsonHelper.h</text>
</a>
</g>
</g>
<!-- Node1&#45;&gt;Node25 -->
<g id="edge43_Node000001_Node000025" class="edge">
<title>Node1&#45;&gt;Node25</title>
<g id="a_edge43_Node000001_Node000025"><a xlink:title=" ">
<path fill="none" stroke="#63b8ff" d="M287.35,-391.61C418.97,-381.77 771.98,-355.36 900.96,-345.72"/>
<polygon fill="#63b8ff" stroke="#63b8ff" points="901.16,-349.21 910.87,-344.98 900.63,-342.23 901.16,-349.21"/>
</a>
</g>
</g>
<!-- Node3 -->
<g id="Node000003" class="node">
<title>Node3</title>
<g id="a_Node000003"><a xlink:href="_runtime_8h.html" target="_top" xlink:title=" ">
<polygon fill="white" stroke="#666666" points="654.5,-74.5 593.5,-74.5 593.5,-55.25 654.5,-55.25 654.5,-74.5"/>
<text xml:space="preserve" text-anchor="middle" x="624" y="-61" font-family="Helvetica,sans-Serif" font-size="10.00">Runtime.h</text>
</a>
</g>
</g>
<!-- Node2&#45;&gt;Node3 -->
<g id="edge2_Node000002_Node000003" class="edge">
<title>Node2&#45;&gt;Node3</title>
<g id="a_edge2_Node000002_Node000003"><a xlink:title=" ">
<path fill="none" stroke="#63b8ff" d="M476.37,-339.39C565.03,-335.86 887,-317.16 887,-231.62 887,-231.62 887,-231.62 887,-174.38 887,-80.02 740.55,-66.07 666.22,-65.06"/>
<polygon fill="#63b8ff" stroke="#63b8ff" points="666.48,-61.56 656.46,-65.01 666.44,-68.56 666.48,-61.56"/>
</a>
</g>
</g>
<!-- Node7 -->
<g id="Node000007" class="node">
<title>Node7</title>
<g id="a_Node000007"><a xlink:href="_sys_status_8h.html" target="_top" xlink:title=" ">
<polygon fill="white" stroke="#666666" points="771,-295.5 701,-295.5 701,-276.25 771,-276.25 771,-295.5"/>
<text xml:space="preserve" text-anchor="middle" x="736" y="-282" font-family="Helvetica,sans-Serif" font-size="10.00">SysStatus.h</text>
</a>
</g>
</g>
<!-- Node2&#45;&gt;Node7 -->
<g id="edge6_Node000002_Node000007" class="edge">
<title>Node2&#45;&gt;Node7</title>
<g id="a_edge6_Node000002_Node000007"><a xlink:title=" ">
<path fill="none" stroke="#63b8ff" d="M476.13,-335.95C521.97,-327.29 628.14,-307.24 689.66,-295.63"/>
<polygon fill="#63b8ff" stroke="#63b8ff" points="689.93,-299.14 699.11,-293.84 688.63,-292.26 689.93,-299.14"/>
</a>
</g>
</g>
<!-- Node9 -->
<g id="Node000009" class="node">
<title>Node9</title>
<g id="a_Node000009"><a xlink:href="_json_node_8h.html" target="_top" xlink:title=" ">
<polygon fill="white" stroke="#666666" points="658.25,-185 589.75,-185 589.75,-165.75 658.25,-165.75 658.25,-185"/>
<text xml:space="preserve" text-anchor="middle" x="624" y="-171.5" font-family="Helvetica,sans-Serif" font-size="10.00">JsonNode.h</text>
</a>
</g>
</g>
<!-- Node2&#45;&gt;Node9 -->
<g id="edge16_Node000002_Node000009" class="edge">
<title>Node2&#45;&gt;Node9</title>
<g id="a_edge16_Node000002_Node000009"><a xlink:title=" ">
<path fill="none" stroke="#63b8ff" d="M473.44,-331.03C489.37,-323.02 511.99,-310.34 529,-295.5 564.24,-264.77 596.1,-219.69 612.46,-194.72"/>
<polygon fill="#63b8ff" stroke="#63b8ff" points="615.2,-196.93 617.66,-186.63 609.31,-193.14 615.2,-196.93"/>
</a>
</g>
</g>
<!-- Node13 -->
<g id="Node000013" class="node">
<title>Node13</title>
<g id="a_Node000013"><a xlink:href="_module_interface_8h.html" target="_top" xlink:title="Full Interface for a module and an abstract basic module implementation.">
<polygon fill="white" stroke="#666666" points="458,-295.5 364,-295.5 364,-276.25 458,-276.25 458,-295.5"/>
<text xml:space="preserve" text-anchor="middle" x="411" y="-282" font-family="Helvetica,sans-Serif" font-size="10.00">ModuleInterface.h</text>
</a>
</g>
</g>
<!-- Node2&#45;&gt;Node13 -->
<g id="edge17_Node000002_Node000013" class="edge">
<title>Node2&#45;&gt;Node13</title>
<g id="a_edge17_Node000002_Node000013"><a xlink:title=" ">
<path fill="none" stroke="#63b8ff" d="M446.9,-331.33C441.08,-324.13 432.67,-313.71 425.44,-304.76"/>
<polygon fill="#63b8ff" stroke="#63b8ff" points="428.21,-302.62 419.21,-297.04 422.77,-307.02 428.21,-302.62"/>
</a>
</g>
</g>
<!-- Node2&#45;&gt;Node20 -->
<g id="edge42_Node000002_Node000020" class="edge">
<title>Node2&#45;&gt;Node20</title>
<g id="a_edge42_Node000002_Node000020"><a xlink:title=" ">
<path fill="none" stroke="#63b8ff" d="M431.88,-338.47C392.93,-334.88 310.25,-324.26 247,-295.5 172.28,-261.52 155.29,-244.75 99,-185 86.2,-171.41 74.79,-153.48 67.11,-140.07"/>
<polygon fill="#63b8ff" stroke="#63b8ff" points="70.21,-138.46 62.31,-131.4 64.08,-141.84 70.21,-138.46"/>
</a>
</g>
</g>
<!-- Node22 -->
<g id="Node000022" class="node">
<title>Node22</title>
<g id="a_Node000022"><a xlink:href="_logging_8h.html" target="_top" xlink:title=" ">
<polygon fill="white" stroke="#666666" points="314,-295.5 256,-295.5 256,-276.25 314,-276.25 314,-295.5"/>
<text xml:space="preserve" text-anchor="middle" x="285" y="-282" font-family="Helvetica,sans-Serif" font-size="10.00">Logging.h</text>
</a>
</g>
</g>
<!-- Node2&#45;&gt;Node22 -->
<g id="edge35_Node000002_Node000022" class="edge">
<title>Node2&#45;&gt;Node22</title>
<g id="a_edge35_Node000002_Node000022"><a xlink:title=" ">
<path fill="none" stroke="#63b8ff" d="M431.91,-333.16C404.74,-324.6 358.12,-309.91 324.68,-299.38"/>
<polygon fill="#63b8ff" stroke="#63b8ff" points="325.92,-296.1 315.33,-296.43 323.82,-302.78 325.92,-296.1"/>
</a>
</g>
</g>
<!-- Node24 -->
<g id="Node000024" class="node">
<title>Node24</title>
<g id="a_Node000024"><a xlink:href="_vars_8h.html" target="_top" xlink:title=" ">
<polygon fill="white" stroke="#666666" points="519.88,-295.5 476.12,-295.5 476.12,-276.25 519.88,-276.25 519.88,-295.5"/>
<text xml:space="preserve" text-anchor="middle" x="498" y="-282" font-family="Helvetica,sans-Serif" font-size="10.00">Vars.h</text>
</a>
</g>
</g>
<!-- Node2&#45;&gt;Node24 -->
<g id="edge39_Node000002_Node000024" class="edge">
<title>Node2&#45;&gt;Node24</title>
<g id="a_edge39_Node000002_Node000024"><a xlink:title=" ">
<path fill="none" stroke="#63b8ff" d="M461.27,-331.33C467.28,-324.05 476.01,-313.48 483.46,-304.48"/>
<polygon fill="#63b8ff" stroke="#63b8ff" points="485.94,-306.96 489.61,-297.03 480.54,-302.51 485.94,-306.96"/>
</a>
</g>
</g>
<!-- Node4 -->
<g id="Node000004" class="node">
<title>Node4</title>
<g id="a_Node000004"><a xlink:title=" ">
<polygon fill="#e0e0e0" stroke="#999999" points="583.12,-19.25 534.88,-19.25 534.88,0 583.12,0 583.12,-19.25"/>
<text xml:space="preserve" text-anchor="middle" x="559" y="-5.75" font-family="Helvetica,sans-Serif" font-size="10.00">string.h</text>
</a>
</g>
</g>
<!-- Node3&#45;&gt;Node4 -->
<g id="edge3_Node000003_Node000004" class="edge">
<title>Node3&#45;&gt;Node4</title>
<g id="a_edge3_Node000003_Node000004"><a xlink:title=" ">
<path fill="none" stroke="#63b8ff" d="M612.97,-54.84C603.58,-47.15 589.85,-35.9 578.59,-26.68"/>
<polygon fill="#63b8ff" stroke="#63b8ff" points="580.99,-24.11 571.03,-20.48 576.55,-29.53 580.99,-24.11"/>
</a>
</g>
</g>
<!-- Node5 -->
<g id="Node000005" class="node">
<title>Node5</title>
<g id="a_Node000005"><a xlink:title=" ">
<polygon fill="#e0e0e0" stroke="#999999" points="646.62,-19.25 601.38,-19.25 601.38,0 646.62,0 646.62,-19.25"/>
<text xml:space="preserve" text-anchor="middle" x="624" y="-5.75" font-family="Helvetica,sans-Serif" font-size="10.00">chrono</text>
</a>
</g>
</g>
<!-- Node3&#45;&gt;Node5 -->
<g id="edge4_Node000003_Node000005" class="edge">
<title>Node3&#45;&gt;Node5</title>
<g id="a_edge4_Node000003_Node000005"><a xlink:title=" ">
<path fill="none" stroke="#63b8ff" d="M624,-55.08C624,-48.57 624,-39.42 624,-31.12"/>
<polygon fill="#63b8ff" stroke="#63b8ff" points="627.5,-31.12 624,-21.12 620.5,-31.12 627.5,-31.12"/>
</a>
</g>
</g>
<!-- Node6 -->
<g id="Node000006" class="node">
<title>Node6</title>
<g id="a_Node000006"><a xlink:title=" ">
<polygon fill="#e0e0e0" stroke="#999999" points="717.75,-19.25 664.25,-19.25 664.25,0 717.75,0 717.75,-19.25"/>
<text xml:space="preserve" text-anchor="middle" x="691" y="-5.75" font-family="Helvetica,sans-Serif" font-size="10.00">iostream</text>
</a>
</g>
</g>
<!-- Node3&#45;&gt;Node6 -->
<g id="edge5_Node000003_Node000006" class="edge">
<title>Node3&#45;&gt;Node6</title>
<g id="a_edge5_Node000003_Node000006"><a xlink:title=" ">
<path fill="none" stroke="#63b8ff" d="M635.37,-54.84C645.05,-47.15 659.2,-35.9 670.81,-26.68"/>
<polygon fill="#63b8ff" stroke="#63b8ff" points="672.97,-29.43 678.62,-20.47 668.61,-23.95 672.97,-29.43"/>
</a>
</g>
</g>
<!-- Node7&#45;&gt;Node3 -->
<g id="edge7_Node000007_Node000003" class="edge">
<title>Node7&#45;&gt;Node3</title>
<g id="a_edge7_Node000007_Node000003"><a xlink:title=" ">
<path fill="none" stroke="#63b8ff" d="M771.39,-276.67C803.6,-267.25 844.13,-249.34 830,-221 793.87,-148.56 706,-101.06 657.51,-79.41"/>
<polygon fill="#63b8ff" stroke="#63b8ff" points="659.18,-76.32 648.61,-75.54 656.39,-82.74 659.18,-76.32"/>
</a>
</g>
</g>
<!-- Node8 -->
<g id="Node000008" class="node">
<title>Node8</title>
<g id="a_Node000008"><a xlink:href="_status_handler_8h.html" target="_top" xlink:title=" ">
<polygon fill="white" stroke="#666666" points="691.88,-240.25 606.12,-240.25 606.12,-221 691.88,-221 691.88,-240.25"/>
<text xml:space="preserve" text-anchor="middle" x="649" y="-226.75" font-family="Helvetica,sans-Serif" font-size="10.00">StatusHandler.h</text>
</a>
</g>
</g>
<!-- Node7&#45;&gt;Node8 -->
<g id="edge8_Node000007_Node000008" class="edge">
<title>Node7&#45;&gt;Node8</title>
<g id="a_edge8_Node000007_Node000008"><a xlink:title=" ">
<path fill="none" stroke="#63b8ff" d="M721.24,-275.84C708.12,-267.81 688.68,-255.91 673.27,-246.48"/>
<polygon fill="#63b8ff" stroke="#63b8ff" points="675.48,-243.73 665.12,-241.49 671.82,-249.7 675.48,-243.73"/>
</a>
</g>
</g>
<!-- Node11 -->
<g id="Node000011" class="node">
<title>Node11</title>
<g id="a_Node000011"><a xlink:title=" ">
<polygon fill="#e0e0e0" stroke="#999999" points="820.75,-240.25 779.25,-240.25 779.25,-221 820.75,-221 820.75,-240.25"/>
<text xml:space="preserve" text-anchor="middle" x="800" y="-226.75" font-family="Helvetica,sans-Serif" font-size="10.00">Esp.h</text>
</a>
</g>
</g>
<!-- Node7&#45;&gt;Node11 -->
<g id="edge14_Node000007_Node000011" class="edge">
<title>Node7&#45;&gt;Node11</title>
<g id="a_edge14_Node000007_Node000011"><a xlink:title=" ">
<path fill="none" stroke="#63b8ff" d="M746.86,-275.84C756.11,-268.15 769.62,-256.9 780.71,-247.68"/>
<polygon fill="#63b8ff" stroke="#63b8ff" points="782.69,-250.58 788.14,-241.49 778.21,-245.2 782.69,-250.58"/>
</a>
</g>
</g>
<!-- Node12 -->
<g id="Node000012" class="node">
<title>Node12</title>
<g id="a_Node000012"><a xlink:title=" ">
<polygon fill="#e0e0e0" stroke="#999999" points="761.62,-240.25 710.38,-240.25 710.38,-221 761.62,-221 761.62,-240.25"/>
<text xml:space="preserve" text-anchor="middle" x="736" y="-226.75" font-family="Helvetica,sans-Serif" font-size="10.00">memory</text>
</a>
</g>
</g>
<!-- Node7&#45;&gt;Node12 -->
<g id="edge15_Node000007_Node000012" class="edge">
<title>Node7&#45;&gt;Node12</title>
<g id="a_edge15_Node000007_Node000012"><a xlink:title=" ">
<path fill="none" stroke="#63b8ff" d="M736,-276.08C736,-269.57 736,-260.42 736,-252.12"/>
<polygon fill="#63b8ff" stroke="#63b8ff" points="739.5,-252.12 736,-242.12 732.5,-252.12 739.5,-252.12"/>
</a>
</g>
</g>
<!-- Node8&#45;&gt;Node3 -->
<g id="edge9_Node000008_Node000003" class="edge">
<title>Node8&#45;&gt;Node3</title>
<g id="a_edge9_Node000008_Node000003"><a xlink:title=" ">
<path fill="none" stroke="#63b8ff" d="M658.61,-220.79C666.87,-212.47 678.2,-199.21 683,-185 685.74,-176.89 685.26,-174 683,-165.75 674.4,-134.3 653.08,-102.68 638.57,-83.69"/>
<polygon fill="#63b8ff" stroke="#63b8ff" points="641.4,-81.62 632.46,-75.93 635.9,-85.95 641.4,-81.62"/>
</a>
</g>
</g>
<!-- Node8&#45;&gt;Node9 -->
<g id="edge10_Node000008_Node000009" class="edge">
<title>Node8&#45;&gt;Node9</title>
<g id="a_edge10_Node000008_Node000009"><a xlink:title=" ">
<path fill="none" stroke="#63b8ff" d="M644.87,-220.83C641.67,-214.01 637.11,-204.31 633.07,-195.7"/>
<polygon fill="#63b8ff" stroke="#63b8ff" points="636.28,-194.29 628.86,-186.73 629.94,-197.27 636.28,-194.29"/>
</a>
</g>
</g>
<!-- Node10 -->
<g id="Node000010" class="node">
<title>Node10</title>
<g id="a_Node000010"><a xlink:title=" ">
<polygon fill="#e0e0e0" stroke="#999999" points="564.5,-129.75 521.5,-129.75 521.5,-110.5 564.5,-110.5 564.5,-129.75"/>
<text xml:space="preserve" text-anchor="middle" x="543" y="-116.25" font-family="Helvetica,sans-Serif" font-size="10.00">vector</text>
</a>
</g>
</g>
<!-- Node8&#45;&gt;Node10 -->
<g id="edge13_Node000008_Node000010" class="edge">
<title>Node8&#45;&gt;Node10</title>
<g id="a_edge13_Node000008_Node000010"><a xlink:title=" ">
<path fill="none" stroke="#63b8ff" d="M655.97,-220.56C665.18,-207.4 678.93,-182.72 667,-165.75 646.65,-136.8 605.62,-126.54 576.33,-122.96"/>
<polygon fill="#63b8ff" stroke="#63b8ff" points="576.78,-119.48 566.48,-121.97 576.08,-126.45 576.78,-119.48"/>
</a>
</g>
</g>
<!-- Node9&#45;&gt;Node3 -->
<g id="edge11_Node000009_Node000003" class="edge">
<title>Node9&#45;&gt;Node3</title>
<g id="a_edge11_Node000009_Node000003"><a xlink:title=" ">
<path fill="none" stroke="#63b8ff" d="M624,-165.5C624,-148.25 624,-109.83 624,-86.06"/>
<polygon fill="#63b8ff" stroke="#63b8ff" points="627.5,-86.39 624,-76.39 620.5,-86.39 627.5,-86.39"/>
</a>
</g>
</g>
<!-- Node9&#45;&gt;Node10 -->
<g id="edge12_Node000009_Node000010" class="edge">
<title>Node9&#45;&gt;Node10</title>
<g id="a_edge12_Node000009_Node000010"><a xlink:title=" ">
<path fill="none" stroke="#63b8ff" d="M610.26,-165.34C598.27,-157.46 580.63,-145.86 566.42,-136.52"/>
<polygon fill="#63b8ff" stroke="#63b8ff" points="568.35,-133.6 558.07,-131.03 564.51,-139.45 568.35,-133.6"/>
</a>
</g>
</g>
<!-- Node13&#45;&gt;Node8 -->
<g id="edge22_Node000013_Node000008" class="edge">
<title>Node13&#45;&gt;Node8</title>
<g id="a_edge22_Node000013_Node000008"><a xlink:title=" ">
<path fill="none" stroke="#63b8ff" d="M451.64,-275.78C491.95,-266.76 553.84,-252.92 597.55,-243.14"/>
<polygon fill="#63b8ff" stroke="#63b8ff" points="598.05,-246.61 607.05,-241.01 596.52,-239.78 598.05,-246.61"/>
</a>
</g>
</g>
<!-- Node14 -->
<g id="Node000014" class="node">
<title>Node14</title>
<g id="a_Node000014"><a xlink:href="_config_handler_8h.html" target="_top" xlink:title=" ">
<polygon fill="white" stroke="#666666" points="511.88,-240.25 426.12,-240.25 426.12,-221 511.88,-221 511.88,-240.25"/>
<text xml:space="preserve" text-anchor="middle" x="469" y="-226.75" font-family="Helvetica,sans-Serif" font-size="10.00">ConfigHandler.h</text>
</a>
</g>
</g>
<!-- Node13&#45;&gt;Node14 -->
<g id="edge18_Node000013_Node000014" class="edge">
<title>Node13&#45;&gt;Node14</title>
<g id="a_edge18_Node000013_Node000014"><a xlink:title=" ">
<path fill="none" stroke="#63b8ff" d="M420.84,-275.84C429.05,-268.3 440.98,-257.35 450.91,-248.23"/>
<polygon fill="#63b8ff" stroke="#63b8ff" points="453.19,-250.89 458.19,-241.55 448.46,-245.73 453.19,-250.89"/>
</a>
</g>
</g>
<!-- Node15 -->
<g id="Node000015" class="node">
<title>Node15</title>
<g id="a_Node000015"><a xlink:href="_event_handler_8h.html" target="_top" xlink:title=" ">
<polygon fill="white" stroke="#666666" points="408.38,-240.25 325.62,-240.25 325.62,-221 408.38,-221 408.38,-240.25"/>
<text xml:space="preserve" text-anchor="middle" x="367" y="-226.75" font-family="Helvetica,sans-Serif" font-size="10.00">EventHandler.h</text>
</a>
</g>
</g>
<!-- Node13&#45;&gt;Node15 -->
<g id="edge23_Node000013_Node000015" class="edge">
<title>Node13&#45;&gt;Node15</title>
<g id="a_edge23_Node000013_Node000015"><a xlink:title=" ">
<path fill="none" stroke="#63b8ff" d="M403.73,-276.08C397.72,-268.8 388.99,-258.23 381.54,-249.23"/>
<polygon fill="#63b8ff" stroke="#63b8ff" points="384.46,-247.26 375.39,-241.78 379.06,-251.71 384.46,-247.26"/>
</a>
</g>
</g>
<!-- Node21 -->
<g id="Node000021" class="node">
<title>Node21</title>
<g id="a_Node000021"><a xlink:href="_msgs_8h.html" target="_top" xlink:title=" ">
<polygon fill="white" stroke="#666666" points="307.12,-240.25 258.88,-240.25 258.88,-221 307.12,-221 307.12,-240.25"/>
<text xml:space="preserve" text-anchor="middle" x="283" y="-226.75" font-family="Helvetica,sans-Serif" font-size="10.00">Msgs.h</text>
</a>
</g>
</g>
<!-- Node13&#45;&gt;Node21 -->
<g id="edge34_Node000013_Node000021" class="edge">
<title>Node13&#45;&gt;Node21</title>
<g id="a_edge34_Node000013_Node000021"><a xlink:title=" ">
<path fill="none" stroke="#63b8ff" d="M389.29,-275.84C368.97,-267.39 338.35,-254.65 315.19,-245.02"/>
<polygon fill="#63b8ff" stroke="#63b8ff" points="316.79,-241.89 306.22,-241.28 314.11,-248.36 316.79,-241.89"/>
</a>
</g>
</g>
<!-- Node14&#45;&gt;Node3 -->
<g id="edge19_Node000014_Node000003" class="edge">
<title>Node14&#45;&gt;Node3</title>
<g id="a_edge19_Node000014_Node000003"><a xlink:title=" ">
<path fill="none" stroke="#63b8ff" d="M469.77,-220.55C472.11,-198.69 480.96,-142.57 512,-110.5 530.64,-91.24 558.65,-80.08 582,-73.74"/>
<polygon fill="#63b8ff" stroke="#63b8ff" points="582.7,-77.17 591.56,-71.37 581.01,-70.38 582.7,-77.17"/>
</a>
</g>
</g>
<!-- Node14&#45;&gt;Node9 -->
<g id="edge20_Node000014_Node000009" class="edge">
<title>Node14&#45;&gt;Node9</title>
<g id="a_edge20_Node000014_Node000009"><a xlink:title=" ">
<path fill="none" stroke="#63b8ff" d="M495.29,-220.59C520.46,-211.95 558.65,-198.82 586.91,-189.12"/>
<polygon fill="#63b8ff" stroke="#63b8ff" points="587.83,-192.5 596.15,-185.94 585.55,-185.88 587.83,-192.5"/>
</a>
</g>
</g>
<!-- Node14&#45;&gt;Node10 -->
<g id="edge21_Node000014_Node000010" class="edge">
<title>Node14&#45;&gt;Node10</title>
<g id="a_edge21_Node000014_Node000010"><a xlink:title=" ">
<path fill="none" stroke="#63b8ff" d="M475.21,-220.76C481.5,-211.78 491.48,-197.46 500,-185 510.49,-169.66 522.28,-152.13 530.85,-139.33"/>
<polygon fill="#63b8ff" stroke="#63b8ff" points="533.71,-141.35 536.36,-131.09 527.89,-137.46 533.71,-141.35"/>
</a>
</g>
</g>
<!-- Node15&#45;&gt;Node3 -->
<g id="edge24_Node000015_Node000003" class="edge">
<title>Node15&#45;&gt;Node3</title>
<g id="a_edge24_Node000015_Node000003"><a xlink:title=" ">
<path fill="none" stroke="#63b8ff" d="M374.4,-220.5C392.64,-198.55 442.18,-142.25 495,-110.5 522.07,-94.23 555.92,-82.8 582.15,-75.59"/>
<polygon fill="#63b8ff" stroke="#63b8ff" points="583.01,-78.98 591.78,-73.05 581.22,-72.21 583.01,-78.98"/>
</a>
</g>
</g>
<!-- Node15&#45;&gt;Node10 -->
<g id="edge26_Node000015_Node000010" class="edge">
<title>Node15&#45;&gt;Node10</title>
<g id="a_edge26_Node000015_Node000010"><a xlink:title=" ">
<path fill="none" stroke="#63b8ff" d="M381.7,-220.56C412.06,-201.85 481.92,-158.78 518.95,-135.95"/>
<polygon fill="#63b8ff" stroke="#63b8ff" points="520.5,-139.11 527.17,-130.88 516.83,-133.15 520.5,-139.11"/>
</a>
</g>
</g>
<!-- Node16 -->
<g id="Node000016" class="node">
<title>Node16</title>
<g id="a_Node000016"><a xlink:title=" ">
<polygon fill="#e0e0e0" stroke="#999999" points="200,-185 142,-185 142,-165.75 200,-165.75 200,-185"/>
<text xml:space="preserve" text-anchor="middle" x="171" y="-171.5" font-family="Helvetica,sans-Serif" font-size="10.00">functional</text>
</a>
</g>
</g>
<!-- Node15&#45;&gt;Node16 -->
<g id="edge25_Node000015_Node000016" class="edge">
<title>Node15&#45;&gt;Node16</title>
<g id="a_edge25_Node000015_Node000016"><a xlink:title=" ">
<path fill="none" stroke="#63b8ff" d="M333.75,-220.59C299.8,-211.37 247.09,-197.05 210.9,-187.22"/>
<polygon fill="#63b8ff" stroke="#63b8ff" points="212.27,-183.96 201.71,-184.72 210.44,-190.72 212.27,-183.96"/>
</a>
</g>
</g>
<!-- Node17 -->
<g id="Node000017" class="node">
<title>Node17</title>
<g id="a_Node000017"><a xlink:title=" ">
<polygon fill="#e0e0e0" stroke="#999999" points="260.12,-185 217.88,-185 217.88,-165.75 260.12,-165.75 260.12,-185"/>
<text xml:space="preserve" text-anchor="middle" x="239" y="-171.5" font-family="Helvetica,sans-Serif" font-size="10.00">queue</text>
</a>
</g>
</g>
<!-- Node15&#45;&gt;Node17 -->
<g id="edge27_Node000015_Node000017" class="edge">
<title>Node15&#45;&gt;Node17</title>
<g id="a_edge27_Node000015_Node000017"><a xlink:title=" ">
<path fill="none" stroke="#63b8ff" d="M345.29,-220.59C324.84,-212.09 293.98,-199.25 270.77,-189.59"/>
<polygon fill="#63b8ff" stroke="#63b8ff" points="272.37,-186.47 261.79,-185.86 269.68,-192.93 272.37,-186.47"/>
</a>
</g>
</g>
<!-- Node18 -->
<g id="Node000018" class="node">
<title>Node18</title>
<g id="a_Node000018"><a xlink:href="_named_value_table_8h.html" target="_top" xlink:title=" ">
<polygon fill="white" stroke="#666666" points="381.5,-185 278.5,-185 278.5,-165.75 381.5,-165.75 381.5,-185"/>
<text xml:space="preserve" text-anchor="middle" x="330" y="-171.5" font-family="Helvetica,sans-Serif" font-size="10.00">NamedValueTable.h</text>
</a>
</g>
</g>
<!-- Node15&#45;&gt;Node18 -->
<g id="edge28_Node000015_Node000018" class="edge">
<title>Node15&#45;&gt;Node18</title>
<g id="a_edge28_Node000015_Node000018"><a xlink:title=" ">
<path fill="none" stroke="#63b8ff" d="M360.89,-220.83C355.94,-213.71 348.8,-203.43 342.63,-194.55"/>
<polygon fill="#63b8ff" stroke="#63b8ff" points="345.69,-192.82 337.11,-186.6 339.94,-196.81 345.69,-192.82"/>
</a>
</g>
</g>
<!-- Node15&#45;&gt;Node20 -->
<g id="edge33_Node000015_Node000020" class="edge">
<title>Node15&#45;&gt;Node20</title>
<g id="a_edge33_Node000015_Node000020"><a xlink:title=" ">
<path fill="none" stroke="#63b8ff" d="M325.24,-222.23C260.31,-210.64 141.65,-189.11 133,-185 109.28,-173.73 86.87,-153.24 72.62,-138.51"/>
<polygon fill="#63b8ff" stroke="#63b8ff" points="75.28,-136.23 65.89,-131.32 70.16,-141.01 75.28,-136.23"/>
</a>
</g>
</g>
<!-- Node18&#45;&gt;Node10 -->
<g id="edge29_Node000018_Node000010" class="edge">
<title>Node18&#45;&gt;Node10</title>
<g id="a_edge29_Node000018_Node000010"><a xlink:title=" ">
<path fill="none" stroke="#63b8ff" d="M366.13,-165.34C406.53,-155.24 471.39,-139.03 510.33,-129.29"/>
<polygon fill="#63b8ff" stroke="#63b8ff" points="510.73,-132.8 519.59,-126.98 509.04,-126.01 510.73,-132.8"/>
</a>
</g>
</g>
<!-- Node18&#45;&gt;Node19 -->
<g id="edge30_Node000018_Node000019" class="edge">
<title>Node18&#45;&gt;Node19</title>
<g id="a_edge30_Node000018_Node000019"><a xlink:title=" ">
<path fill="none" stroke="#63b8ff" d="M330,-165.58C330,-159.07 330,-149.92 330,-141.62"/>
<polygon fill="#63b8ff" stroke="#63b8ff" points="333.5,-141.62 330,-131.62 326.5,-141.62 333.5,-141.62"/>
</a>
</g>
</g>
<!-- Node18&#45;&gt;Node20 -->
<g id="edge32_Node000018_Node000020" class="edge">
<title>Node18&#45;&gt;Node20</title>
<g id="a_edge32_Node000018_Node000020"><a xlink:title=" ">
<path fill="none" stroke="#63b8ff" d="M283.38,-165.28C236.66,-156.17 164.65,-142.12 114.43,-132.33"/>
<polygon fill="#63b8ff" stroke="#63b8ff" points="115.4,-128.95 104.91,-130.47 114.06,-135.82 115.4,-128.95"/>
</a>
</g>
</g>
<!-- Node19&#45;&gt;Node3 -->
<g id="edge31_Node000019_Node000003" class="edge">
<title>Node19&#45;&gt;Node3</title>
<g id="a_edge31_Node000019_Node000003"><a xlink:title=" ">
<path fill="none" stroke="#63b8ff" d="M362.3,-113.27C415.86,-103.57 523.01,-84.17 582.24,-73.44"/>
<polygon fill="#63b8ff" stroke="#63b8ff" points="582.71,-76.91 591.92,-71.68 581.46,-70.02 582.71,-76.91"/>
</a>
</g>
</g>
<!-- Node22&#45;&gt;Node15 -->
<g id="edge37_Node000022_Node000015" class="edge">
<title>Node22&#45;&gt;Node15</title>
<g id="a_edge37_Node000022_Node000015"><a xlink:title=" ">
<path fill="none" stroke="#63b8ff" d="M298.91,-275.84C311.16,-267.89 329.25,-256.14 343.71,-246.75"/>
<polygon fill="#63b8ff" stroke="#63b8ff" points="345.27,-249.91 351.75,-241.53 341.46,-244.04 345.27,-249.91"/>
</a>
</g>
</g>
<!-- Node22&#45;&gt;Node21 -->
<g id="edge38_Node000022_Node000021" class="edge">
<title>Node22&#45;&gt;Node21</title>
<g id="a_edge38_Node000022_Node000021"><a xlink:title=" ">
<path fill="none" stroke="#63b8ff" d="M284.67,-276.08C284.42,-269.49 284.07,-260.21 283.76,-251.82"/>
<polygon fill="#63b8ff" stroke="#63b8ff" points="287.27,-251.98 283.39,-242.12 280.27,-252.25 287.27,-251.98"/>
</a>
</g>
</g>
<!-- Node23 -->
<g id="Node000023" class="node">
<title>Node23</title>
<g id="a_Node000023"><a xlink:title=" ">
<polygon fill="#e0e0e0" stroke="#999999" points="240.62,-240.25 189.38,-240.25 189.38,-221 240.62,-221 240.62,-240.25"/>
<text xml:space="preserve" text-anchor="middle" x="215" y="-226.75" font-family="Helvetica,sans-Serif" font-size="10.00">stdarg.h</text>
</a>
</g>
</g>
<!-- Node22&#45;&gt;Node23 -->
<g id="edge36_Node000022_Node000023" class="edge">
<title>Node22&#45;&gt;Node23</title>
<g id="a_edge36_Node000022_Node000023"><a xlink:title=" ">
<path fill="none" stroke="#63b8ff" d="M273.13,-275.84C262.91,-268.07 247.93,-256.67 235.74,-247.4"/>
<polygon fill="#63b8ff" stroke="#63b8ff" points="237.98,-244.71 227.9,-241.44 233.74,-250.28 237.98,-244.71"/>
</a>
</g>
</g>
<!-- Node24&#45;&gt;Node10 -->
<g id="edge41_Node000024_Node000010" class="edge">
<title>Node24&#45;&gt;Node10</title>
<g id="a_edge41_Node000024_Node000010"><a xlink:title=" ">
<path fill="none" stroke="#63b8ff" d="M503.57,-275.99C508.83,-267.23 516.55,-253.28 521,-240.25 532.53,-206.51 538.44,-165.22 541.11,-141.17"/>
<polygon fill="#63b8ff" stroke="#63b8ff" points="544.56,-141.83 542.1,-131.52 537.6,-141.11 544.56,-141.83"/>
</a>
</g>
</g>
<!-- Node24&#45;&gt;Node14 -->
<g id="edge40_Node000024_Node000014" class="edge">
<title>Node24&#45;&gt;Node14</title>
<g id="a_edge40_Node000024_Node000014"><a xlink:title=" ">
<path fill="none" stroke="#63b8ff" d="M493.21,-276.08C489.46,-269.19 484.09,-259.34 479.37,-250.66"/>
<polygon fill="#63b8ff" stroke="#63b8ff" points="482.47,-249.05 474.62,-241.94 476.33,-252.39 482.47,-249.05"/>
</a>
</g>
</g>
<!-- Node26 -->
<g id="Node000026" class="node">
<title>Node26</title>
<g id="a_Node000026"><a xlink:title=" ">
<polygon fill="#e0e0e0" stroke="#999999" points="1079.12,-295.5 1000.88,-295.5 1000.88,-276.25 1079.12,-276.25 1079.12,-295.5"/>
<text xml:space="preserve" text-anchor="middle" x="1040" y="-282" font-family="Helvetica,sans-Serif" font-size="10.00">ArduinoJson.h</text>
</a>
</g>
</g>
<!-- Node25&#45;&gt;Node26 -->
<g id="edge44_Node000025_Node000026" class="edge">
<title>Node25&#45;&gt;Node26</title>
<g id="a_edge44_Node000025_Node000026"><a xlink:title=" ">
<path fill="none" stroke="#63b8ff" d="M964.44,-331.09C978.16,-323.06 998.5,-311.16 1014.62,-301.73"/>
<polygon fill="#63b8ff" stroke="#63b8ff" points="1016.32,-304.79 1023.18,-296.72 1012.78,-298.75 1016.32,-304.79"/>
</a>
</g>
</g>
<!-- Node27 -->
<g id="Node000027" class="node">
<title>Node27</title>
<g id="a_Node000027"><a xlink:title=" ">
<polygon fill="#e0e0e0" stroke="#999999" points="983.25,-295.5 914.75,-295.5 914.75,-276.25 983.25,-276.25 983.25,-295.5"/>
<text xml:space="preserve" text-anchor="middle" x="949" y="-282" font-family="Helvetica,sans-Serif" font-size="10.00">IPAddress.h</text>
</a>
</g>
</g>
<!-- Node25&#45;&gt;Node27 -->
<g id="edge45_Node000025_Node000027" class="edge">
<title>Node25&#45;&gt;Node27</title>
<g id="a_edge45_Node000025_Node000027"><a xlink:title=" ">
<path fill="none" stroke="#63b8ff" d="M949,-331.33C949,-324.82 949,-315.67 949,-307.37"/>
<polygon fill="#63b8ff" stroke="#63b8ff" points="952.5,-307.37 949,-297.37 945.5,-307.37 952.5,-307.37"/>
</a>
</g>
</g>
</g>
</svg>
