<?xml version="1.0" encoding="UTF-8" standalone="no"?>
<!DOCTYPE svg PUBLIC "-//W3C//DTD SVG 1.1//EN"
 "http://www.w3.org/Graphics/SVG/1.1/DTD/svg11.dtd">
<!-- Generated by graphviz version 15.1.0 (20260618.0150)
 -->
<!-- Title: include/JsonHelper.h Pages: 1 -->
<svg width="246pt" height="83pt"
 viewBox="0.00 0.00 246.00 83.00" xmlns="http://www.w3.org/2000/svg" xmlns:xlink="http://www.w3.org/1999/xlink">
<g id="graph0" class="graph" transform="scale(1 1) rotate(0) translate(4 78.5)">
<title>include/JsonHelper.h</title>
<!-- Node1 -->
<g id="Node000001" class="node">
<title>Node1</title>
<g id="a_Node000001"><a xlink:title=" ">
<polygon fill="#999999" stroke="#666666" points="177.5,-74.5 70.75,-74.5 70.75,-55.25 177.5,-55.25 177.5,-74.5"/>
<text xml:space="preserve" text-anchor="middle" x="124.12" y="-61" font-family="Helvetica,sans-Serif" font-size="10.00">include/JsonHelper.h</text>
</a>
</g>
</g>
<!-- Node2 -->
<g id="Node000002" class="node">
<title>Node2</title>
<g id="a_Node000002"><a xlink:href="_c_wi_fi_controller_8cpp.html" target="_top" xlink:title=" ">
<polygon fill="white" stroke="#666666" points="120.25,-19.25 0,-19.25 0,0 120.25,0 120.25,-19.25"/>
<text xml:space="preserve" text-anchor="middle" x="60.12" y="-5.75" font-family="Helvetica,sans-Serif" font-size="10.00">src/CWiFiController.cpp</text>
</a>
</g>
</g>
<!-- Node1&#45;&gt;Node2 -->
<g id="edge1_Node000001_Node000002" class="edge">
<title>Node1&#45;&gt;Node2</title>
<g id="a_edge1_Node000001_Node000002"><a xlink:title=" ">
<path fill="none" stroke="#63b8ff" d="M104.64,-47.66C93.53,-38.42 80.02,-27.18 70.82,-19.52"/>
<polygon fill="#63b8ff" stroke="#63b8ff" points="102.18,-50.17 112.1,-53.87 106.66,-44.79 102.18,-50.17"/>
</a>
</g>
</g>
<!-- Node3 -->
<g id="Node000003" class="node">
<title>Node3</title>
<g id="a_Node000003"><a xlink:href="_json_helper_8cpp.html" target="_top" xlink:title=" ">
<polygon fill="white" stroke="#666666" points="238.12,-19.25 138.12,-19.25 138.12,0 238.12,0 238.12,-19.25"/>
<text xml:space="preserve" text-anchor="middle" x="188.12" y="-5.75" font-family="Helvetica,sans-Serif" font-size="10.00">src/JsonHelper.cpp</text>
</a>
</g>
</g>
<!-- Node1&#45;&gt;Node3 -->
<g id="edge2_Node000001_Node000003" class="edge">
<title>Node1&#45;&gt;Node3</title>
<g id="a_edge2_Node000001_Node000003"><a xlink:title=" ">
<path fill="none" stroke="#63b8ff" d="M143.61,-47.66C154.72,-38.42 168.23,-27.18 177.43,-19.52"/>
<polygon fill="#63b8ff" stroke="#63b8ff" points="141.59,-44.79 136.15,-53.87 146.07,-50.17 141.59,-44.79"/>
</a>
</g>
</g>
</g>
</svg>
