<?xml version="1.0" encoding="UTF-8" standalone="no"?>
<!DOCTYPE svg PUBLIC "-//W3C//DTD SVG 1.1//EN"
 "http://www.w3.org/Graphics/SVG/1.1/DTD/svg11.dtd">
<!-- Generated by graphviz version 15.1.0 (20260618.0150)
 -->
<!-- Title: include/JsonNode.h Pages: 1 -->
<svg width="927pt" height="248pt"
 viewBox="0.00 0.00 927.00 248.00" xmlns="http://www.w3.org/2000/svg" xmlns:xlink="http://www.w3.org/1999/xlink">
<g id="graph0" class="graph" transform="scale(1 1) rotate(0) translate(4 244.25)">
<title>include/JsonNode.h</title>
<!-- Node1 -->
<g id="Node000001" class="node">
<title>Node1</title>
<g id="a_Node000001"><a xlink:title=" ">
<polygon fill="#999999" stroke="#666666" points="287.88,-240.25 185.62,-240.25 185.62,-221 287.88,-221 287.88,-240.25"/>
<text xml:space="preserve" text-anchor="middle" x="236.75" y="-226.75" font-family="Helvetica,sans-Serif" font-size="10.00">include/JsonNode.h</text>
</a>
</g>
</g>
<!-- Node2 -->
<g id="Node000002" class="node">
<title>Node2</title>
<g id="a_Node000002"><a xlink:href="_appl_8h.html" target="_top" xlink:title="Application Main Class.">
<polygon fill="white" stroke="#666666" points="370.5,-74.5 293,-74.5 293,-55.25 370.5,-55.25 370.5,-74.5"/>
<text xml:space="preserve" text-anchor="middle" x="331.75" y="-61" font-family="Helvetica,sans-Serif" font-size="10.00">include/Appl.h</text>
</a>
</g>
</g>
<!-- Node1&#45;&gt;Node2 -->
<g id="edge1_Node000001_Node000002" class="edge">
<title>Node1&#45;&gt;Node2</title>
<g id="a_edge1_Node000001_Node000002"><a xlink:title=" ">
<path fill="none" stroke="#63b8ff" d="M212.66,-214.63C178.83,-191.71 124.39,-146.8 152.75,-110.5 169.81,-88.67 245.56,-75.96 292.88,-70.02"/>
<polygon fill="#63b8ff" stroke="#63b8ff" points="210.43,-217.35 220.71,-219.91 214.27,-211.5 210.43,-217.35"/>
</a>
</g>
</g>
<!-- Node6 -->
<g id="Node000006" class="node">
<title>Node6</title>
<g id="a_Node000006"><a xlink:href="_wi_fi_controller_8h.html" target="_top" xlink:title="WiFi Controller to handle Access Point and Station Mode.">
<polygon fill="white" stroke="#666666" points="119.5,-19.25 0,-19.25 0,0 119.5,0 119.5,-19.25"/>
<text xml:space="preserve" text-anchor="middle" x="59.75" y="-5.75" font-family="Helvetica,sans-Serif" font-size="10.00">include/WiFiController.h</text>
</a>
</g>
</g>
<!-- Node1&#45;&gt;Node6 -->
<g id="edge24_Node000001_Node000006" class="edge">
<title>Node1&#45;&gt;Node6</title>
<g id="a_edge24_Node000001_Node000006"><a xlink:title=" ">
<path fill="none" stroke="#63b8ff" d="M174.32,-221.3C149.92,-215.06 123.58,-204.13 105.75,-185 60.28,-136.21 58.63,-47.9 59.36,-19.6"/>
<polygon fill="#63b8ff" stroke="#63b8ff" points="173.35,-224.67 183.88,-223.51 174.93,-217.85 173.35,-224.67"/>
</a>
</g>
</g>
<!-- Node7 -->
<g id="Node000007" class="node">
<title>Node7</title>
<g id="a_Node000007"><a xlink:href="_config_handler_8h.html" target="_top" xlink:title=" ">
<polygon fill="white" stroke="#666666" points="602.5,-185 483,-185 483,-165.75 602.5,-165.75 602.5,-185"/>
<text xml:space="preserve" text-anchor="middle" x="542.75" y="-171.5" font-family="Helvetica,sans-Serif" font-size="10.00">include/ConfigHandler.h</text>
</a>
</g>
</g>
<!-- Node1&#45;&gt;Node7 -->
<g id="edge6_Node000001_Node000007" class="edge">
<title>Node1&#45;&gt;Node7</title>
<g id="a_edge6_Node000001_Node000007"><a xlink:title=" ">
<path fill="none" stroke="#63b8ff" d="M299.58,-218.69C355.91,-208.89 437.61,-194.67 490.46,-185.47"/>
<polygon fill="#63b8ff" stroke="#63b8ff" points="299.06,-215.23 289.8,-220.39 300.26,-222.13 299.06,-215.23"/>
</a>
</g>
</g>
<!-- Node11 -->
<g id="Node000011" class="node">
<title>Node11</title>
<g id="a_Node000011"><a xlink:href="_m_q_t_t_controller_8h.html" target="_top" xlink:title=" ">
<polygon fill="white" stroke="#666666" points="919.25,-19.25 792.25,-19.25 792.25,0 919.25,0 919.25,-19.25"/>
<text xml:space="preserve" text-anchor="middle" x="855.75" y="-5.75" font-family="Helvetica,sans-Serif" font-size="10.00">include/MQTTController.h</text>
</a>
</g>
</g>
<!-- Node1&#45;&gt;Node11 -->
<g id="edge15_Node000001_Node000011" class="edge">
<title>Node1&#45;&gt;Node11</title>
<g id="a_edge15_Node000001_Node000011"><a xlink:title=" ">
<path fill="none" stroke="#63b8ff" d="M299.29,-228.28C374.72,-225.28 504.74,-215.65 611.75,-185 722.7,-153.22 778.23,-167.37 846.75,-74.5 858.85,-58.1 858.29,-32.73 856.96,-19.44"/>
<polygon fill="#63b8ff" stroke="#63b8ff" points="299.49,-224.77 289.63,-228.64 299.75,-231.77 299.49,-224.77"/>
</a>
</g>
</g>
<!-- Node13 -->
<g id="Node000013" class="node">
<title>Node13</title>
<g id="a_Node000013"><a xlink:href="_status_handler_8h.html" target="_top" xlink:title=" ">
<polygon fill="white" stroke="#666666" points="399.5,-185 280,-185 280,-165.75 399.5,-165.75 399.5,-185"/>
<text xml:space="preserve" text-anchor="middle" x="339.75" y="-171.5" font-family="Helvetica,sans-Serif" font-size="10.00">include/StatusHandler.h</text>
</a>
</g>
</g>
<!-- Node1&#45;&gt;Node13 -->
<g id="edge16_Node000001_Node000013" class="edge">
<title>Node1&#45;&gt;Node13</title>
<g id="a_edge16_Node000001_Node000013"><a xlink:title=" ">
<path fill="none" stroke="#63b8ff" d="M264.34,-215.36C282.73,-205.86 306.33,-193.65 322.19,-185.45"/>
<polygon fill="#63b8ff" stroke="#63b8ff" points="262.84,-212.2 255.57,-219.9 266.06,-218.41 262.84,-212.2"/>
</a>
</g>
</g>
<!-- Node16 -->
<g id="Node000016" class="node">
<title>Node16</title>
<g id="a_Node000016"><a xlink:href="_web_socket_8h.html" target="_top" xlink:title=" ">
<polygon fill="white" stroke="#666666" points="220.88,-74.5 112.62,-74.5 112.62,-55.25 220.88,-55.25 220.88,-74.5"/>
<text xml:space="preserve" text-anchor="middle" x="166.75" y="-61" font-family="Helvetica,sans-Serif" font-size="10.00">include/WebSocket.h</text>
</a>
</g>
</g>
<!-- Node1&#45;&gt;Node16 -->
<g id="edge22_Node000001_Node000016" class="edge">
<title>Node1&#45;&gt;Node16</title>
<g id="a_edge22_Node000001_Node000016"><a xlink:title=" ">
<path fill="none" stroke="#63b8ff" d="M174.44,-220.47C153.54,-214.09 132.35,-203.29 119.75,-185 100.97,-157.73 106.68,-140.92 119.75,-110.5 126.32,-95.2 141,-82.67 152.22,-74.83"/>
<polygon fill="#63b8ff" stroke="#63b8ff" points="173.27,-223.78 183.84,-223.02 175.11,-217.02 173.27,-223.78"/>
</a>
</g>
</g>
<!-- Node3 -->
<g id="Node000003" class="node">
<title>Node3</title>
<g id="a_Node000003"><a xlink:href="_m_d_n_s_controller_8h.html" target="_top" xlink:title="MDNS Controller class definition ESP MDNS controller to handle mDNS responder start/stop on WiFi even...">
<polygon fill="white" stroke="#666666" points="395.38,-19.25 266.12,-19.25 266.12,0 395.38,0 395.38,-19.25"/>
<text xml:space="preserve" text-anchor="middle" x="330.75" y="-5.75" font-family="Helvetica,sans-Serif" font-size="10.00">include/MDNSController.h</text>
</a>
</g>
</g>
<!-- Node2&#45;&gt;Node3 -->
<g id="edge2_Node000002_Node000003" class="edge">
<title>Node2&#45;&gt;Node3</title>
<g id="a_edge2_Node000002_Node000003"><a xlink:title=" ">
<path fill="none" stroke="#63b8ff" d="M331.37,-43.63C331.21,-35.34 331.04,-26.17 330.92,-19.61"/>
<polygon fill="#63b8ff" stroke="#63b8ff" points="327.87,-43.64 331.56,-53.57 334.87,-43.5 327.87,-43.64"/>
</a>
</g>
</g>
<!-- Node4 -->
<g id="Node000004" class="node">
<title>Node4</title>
<g id="a_Node000004"><a xlink:href="_n_t_p_handler_8h.html" target="_top" xlink:title=" ">
<polygon fill="white" stroke="#666666" points="524.38,-19.25 413.12,-19.25 413.12,0 524.38,0 524.38,-19.25"/>
<text xml:space="preserve" text-anchor="middle" x="468.75" y="-5.75" font-family="Helvetica,sans-Serif" font-size="10.00">include/NTPHandler.h</text>
</a>
</g>
</g>
<!-- Node2&#45;&gt;Node4 -->
<g id="edge3_Node000002_Node000004" class="edge">
<title>Node2&#45;&gt;Node4</title>
<g id="a_edge3_Node000002_Node000004"><a xlink:title=" ">
<path fill="none" stroke="#63b8ff" d="M365.41,-50.79C390.24,-41.14 423.41,-28.25 445.4,-19.7"/>
<polygon fill="#63b8ff" stroke="#63b8ff" points="364.45,-47.41 356.4,-54.29 366.99,-53.93 364.45,-47.41"/>
</a>
</g>
</g>
<!-- Node5 -->
<g id="Node000005" class="node">
<title>Node5</title>
<g id="a_Node000005"><a xlink:href="_web_server_8h.html" target="_top" xlink:title=" ">
<polygon fill="white" stroke="#666666" points="246.38,-19.25 141.12,-19.25 141.12,0 246.38,0 246.38,-19.25"/>
<text xml:space="preserve" text-anchor="middle" x="193.75" y="-5.75" font-family="Helvetica,sans-Serif" font-size="10.00">include/WebServer.h</text>
</a>
</g>
</g>
<!-- Node2&#45;&gt;Node5 -->
<g id="edge4_Node000002_Node000005" class="edge">
<title>Node2&#45;&gt;Node5</title>
<g id="a_edge4_Node000002_Node000005"><a xlink:title=" ">
<path fill="none" stroke="#63b8ff" d="M297.85,-50.79C272.83,-41.14 239.42,-28.25 217.27,-19.7"/>
<polygon fill="#63b8ff" stroke="#63b8ff" points="296.34,-53.96 306.93,-54.3 298.86,-47.43 296.34,-53.96"/>
</a>
</g>
</g>
<!-- Node2&#45;&gt;Node6 -->
<g id="edge5_Node000002_Node000006" class="edge">
<title>Node2&#45;&gt;Node6</title>
<g id="a_edge5_Node000002_Node000006"><a xlink:title=" ">
<path fill="none" stroke="#63b8ff" d="M281.55,-54.05C231.32,-44.21 154.69,-29.21 105.93,-19.67"/>
<polygon fill="#63b8ff" stroke="#63b8ff" points="280.81,-57.47 291.29,-55.95 282.15,-50.6 280.81,-57.47"/>
</a>
</g>
</g>
<!-- Node8 -->
<g id="Node000008" class="node">
<title>Node8</title>
<g id="a_Node000008"><a xlink:href="_battery_measure_8h.html" target="_top" xlink:title=" ">
<polygon fill="white" stroke="#666666" points="763.25,-19.25 636.25,-19.25 636.25,0 763.25,0 763.25,-19.25"/>
<text xml:space="preserve" text-anchor="middle" x="699.75" y="-5.75" font-family="Helvetica,sans-Serif" font-size="10.00">include/BatteryMeasure.h</text>
</a>
</g>
</g>
<!-- Node7&#45;&gt;Node8 -->
<g id="edge7_Node000007_Node000008" class="edge">
<title>Node7&#45;&gt;Node8</title>
<g id="a_edge7_Node000007_Node000008"><a xlink:title=" ">
<path fill="none" stroke="#63b8ff" d="M614.11,-166.6C638.58,-160.38 663.99,-149.32 680.75,-129.75 708.4,-97.46 704.15,-41.47 701.2,-19.68"/>
<polygon fill="#63b8ff" stroke="#63b8ff" points="613.43,-163.16 604.45,-168.79 614.98,-169.99 613.43,-163.16"/>
</a>
</g>
</g>
<!-- Node9 -->
<g id="Node000009" class="node">
<title>Node9</title>
<g id="a_Node000009"><a xlink:href="_module_interface_8h.html" target="_top" xlink:title="Full Interface for a module and an abstract basic module implementation.">
<polygon fill="white" stroke="#666666" points="671.62,-129.75 543.88,-129.75 543.88,-110.5 671.62,-110.5 671.62,-129.75"/>
<text xml:space="preserve" text-anchor="middle" x="607.75" y="-116.25" font-family="Helvetica,sans-Serif" font-size="10.00">include/ModuleInterface.h</text>
</a>
</g>
</g>
<!-- Node7&#45;&gt;Node9 -->
<g id="edge8_Node000007_Node000009" class="edge">
<title>Node7&#45;&gt;Node9</title>
<g id="a_edge8_Node000007_Node000009"><a xlink:title=" ">
<path fill="none" stroke="#63b8ff" d="M562.54,-158.16C573.83,-148.92 587.54,-137.68 596.89,-130.02"/>
<polygon fill="#63b8ff" stroke="#63b8ff" points="560.46,-155.34 554.95,-164.38 564.9,-160.75 560.46,-155.34"/>
</a>
</g>
</g>
<!-- Node12 -->
<g id="Node000012" class="node">
<title>Node12</title>
<g id="a_Node000012"><a xlink:href="_vars_8h.html" target="_top" xlink:title=" ">
<polygon fill="white" stroke="#666666" points="487.5,-129.75 410,-129.75 410,-110.5 487.5,-110.5 487.5,-129.75"/>
<text xml:space="preserve" text-anchor="middle" x="448.75" y="-116.25" font-family="Helvetica,sans-Serif" font-size="10.00">include/Vars.h</text>
</a>
</g>
</g>
<!-- Node7&#45;&gt;Node12 -->
<g id="edge13_Node000007_Node000012" class="edge">
<title>Node7&#45;&gt;Node12</title>
<g id="a_edge13_Node000007_Node000012"><a xlink:title=" ">
<path fill="none" stroke="#63b8ff" d="M517.1,-159.84C500.39,-150.38 479.11,-138.33 464.77,-130.2"/>
<polygon fill="#63b8ff" stroke="#63b8ff" points="515.06,-162.71 525.49,-164.6 518.51,-156.62 515.06,-162.71"/>
</a>
</g>
</g>
<!-- Node9&#45;&gt;Node2 -->
<g id="edge9_Node000009_Node000002" class="edge">
<title>Node9&#45;&gt;Node2</title>
<g id="a_edge9_Node000009_Node000002"><a xlink:title=" ">
<path fill="none" stroke="#63b8ff" d="M549.53,-107.89C495.71,-97.51 417.25,-82.37 370.66,-73.38"/>
<polygon fill="#63b8ff" stroke="#63b8ff" points="548.65,-111.29 559.13,-109.74 549.98,-104.41 548.65,-111.29"/>
</a>
</g>
</g>
<!-- Node10 -->
<g id="Node000010" class="node">
<title>Node10</title>
<g id="a_Node000010"><a xlink:href="_appl_module_8h.html" target="_top" xlink:title=" ">
<polygon fill="white" stroke="#666666" points="837.25,-74.5 728.25,-74.5 728.25,-55.25 837.25,-55.25 837.25,-74.5"/>
<text xml:space="preserve" text-anchor="middle" x="782.75" y="-61" font-family="Helvetica,sans-Serif" font-size="10.00">include/ApplModule.h</text>
</a>
</g>
</g>
<!-- Node9&#45;&gt;Node10 -->
<g id="edge10_Node000009_Node000010" class="edge">
<title>Node9&#45;&gt;Node10</title>
<g id="a_edge10_Node000009_Node000010"><a xlink:title=" ">
<path fill="none" stroke="#63b8ff" d="M648.2,-106.82C680.18,-97.09 724.08,-83.73 752.92,-74.95"/>
<polygon fill="#63b8ff" stroke="#63b8ff" points="647.43,-103.39 638.88,-109.65 649.47,-110.09 647.43,-103.39"/>
</a>
</g>
</g>
<!-- Node10&#45;&gt;Node8 -->
<g id="edge11_Node000010_Node000008" class="edge">
<title>Node10&#45;&gt;Node8</title>
<g id="a_edge11_Node000010_Node000008"><a xlink:title=" ">
<path fill="none" stroke="#63b8ff" d="M759.26,-48.8C744.64,-39.42 726.32,-27.67 713.9,-19.7"/>
<polygon fill="#63b8ff" stroke="#63b8ff" points="757.09,-51.57 767.4,-54.02 760.87,-45.68 757.09,-51.57"/>
</a>
</g>
</g>
<!-- Node10&#45;&gt;Node11 -->
<g id="edge12_Node000010_Node000011" class="edge">
<title>Node10&#45;&gt;Node11</title>
<g id="a_edge12_Node000010_Node000011"><a xlink:title=" ">
<path fill="none" stroke="#63b8ff" d="M804.22,-48.22C817.03,-38.87 832.85,-27.33 843.55,-19.52"/>
<polygon fill="#63b8ff" stroke="#63b8ff" points="802.37,-45.23 796.36,-53.95 806.5,-50.88 802.37,-45.23"/>
</a>
</g>
</g>
<!-- Node12&#45;&gt;Node2 -->
<g id="edge14_Node000012_Node000002" class="edge">
<title>Node12&#45;&gt;Node2</title>
<g id="a_edge14_Node000012_Node000002"><a xlink:title=" ">
<path fill="none" stroke="#63b8ff" d="M418.57,-105.39C397.53,-95.81 370.05,-83.31 351.69,-74.95"/>
<polygon fill="#63b8ff" stroke="#63b8ff" points="416.97,-108.51 427.52,-109.46 419.87,-102.14 416.97,-108.51"/>
</a>
</g>
</g>
<!-- Node13&#45;&gt;Node8 -->
<g id="edge17_Node000013_Node000008" class="edge">
<title>Node13&#45;&gt;Node8</title>
<g id="a_edge17_Node000013_Node000008"><a xlink:title=" ">
<path fill="none" stroke="#63b8ff" d="M393.7,-162.64C424.54,-155.05 463.56,-143.93 496.75,-129.75 535.92,-113.01 645.94,-44.52 685.42,-19.68"/>
<polygon fill="#63b8ff" stroke="#63b8ff" points="393.11,-159.18 384.21,-164.92 394.75,-165.98 393.11,-159.18"/>
</a>
</g>
</g>
<!-- Node13&#45;&gt;Node9 -->
<g id="edge19_Node000013_Node000009" class="edge">
<title>Node13&#45;&gt;Node9</title>
<g id="a_edge19_Node000013_Node000009"><a xlink:title=" ">
<path fill="none" stroke="#63b8ff" d="M396.64,-163.07C445.98,-153.27 516.47,-139.26 562.17,-130.18"/>
<polygon fill="#63b8ff" stroke="#63b8ff" points="396.13,-159.6 387,-164.99 397.49,-166.47 396.13,-159.6"/>
</a>
</g>
</g>
<!-- Node14 -->
<g id="Node000014" class="node">
<title>Node14</title>
<g id="a_Node000014"><a xlink:href="_file_system_8h.html" target="_top" xlink:title=" ">
<polygon fill="white" stroke="#666666" points="269.5,-129.75 162,-129.75 162,-110.5 269.5,-110.5 269.5,-129.75"/>
<text xml:space="preserve" text-anchor="middle" x="215.75" y="-116.25" font-family="Helvetica,sans-Serif" font-size="10.00">include/FileSystem.h</text>
</a>
</g>
</g>
<!-- Node13&#45;&gt;Node14 -->
<g id="edge18_Node000013_Node000014" class="edge">
<title>Node13&#45;&gt;Node14</title>
<g id="a_edge18_Node000013_Node000014"><a xlink:title=" ">
<path fill="none" stroke="#63b8ff" d="M308.38,-160.9C286,-151.29 256.52,-138.63 236.89,-130.2"/>
<polygon fill="#63b8ff" stroke="#63b8ff" points="306.75,-164.01 317.32,-164.74 309.52,-157.58 306.75,-164.01"/>
</a>
</g>
</g>
<!-- Node15 -->
<g id="Node000015" class="node">
<title>Node15</title>
<g id="a_Node000015"><a xlink:href="_sys_status_8h.html" target="_top" xlink:title=" ">
<polygon fill="white" stroke="#666666" points="391.62,-129.75 287.88,-129.75 287.88,-110.5 391.62,-110.5 391.62,-129.75"/>
<text xml:space="preserve" text-anchor="middle" x="339.75" y="-116.25" font-family="Helvetica,sans-Serif" font-size="10.00">include/SysStatus.h</text>
</a>
</g>
</g>
<!-- Node13&#45;&gt;Node15 -->
<g id="edge20_Node000013_Node000015" class="edge">
<title>Node13&#45;&gt;Node15</title>
<g id="a_edge20_Node000013_Node000015"><a xlink:title=" ">
<path fill="none" stroke="#63b8ff" d="M339.75,-154.13C339.75,-145.84 339.75,-136.67 339.75,-130.11"/>
<polygon fill="#63b8ff" stroke="#63b8ff" points="336.25,-154.07 339.75,-164.07 343.25,-154.07 336.25,-154.07"/>
</a>
</g>
</g>
<!-- Node15&#45;&gt;Node2 -->
<g id="edge21_Node000015_Node000002" class="edge">
<title>Node15&#45;&gt;Node2</title>
<g id="a_edge21_Node000015_Node000002"><a xlink:title=" ">
<path fill="none" stroke="#63b8ff" d="M336.75,-99.17C335.5,-90.8 334.1,-81.5 333.1,-74.86"/>
<polygon fill="#63b8ff" stroke="#63b8ff" points="333.26,-99.47 338.2,-108.84 340.18,-98.43 333.26,-99.47"/>
</a>
</g>
</g>
<!-- Node16&#45;&gt;Node5 -->
<g id="edge23_Node000016_Node000005" class="edge">
<title>Node16&#45;&gt;Node5</title>
<g id="a_edge23_Node000016_Node000005"><a xlink:title=" ">
<path fill="none" stroke="#63b8ff" d="M176.28,-45.08C180.67,-36.42 185.67,-26.56 189.19,-19.61"/>
<polygon fill="#63b8ff" stroke="#63b8ff" points="173.29,-43.23 171.89,-53.73 179.54,-46.4 173.29,-43.23"/>
</a>
</g>
</g>
</g>
</svg>
