<?xml version="1.0" encoding="UTF-8" standalone="no"?>
<!DOCTYPE svg PUBLIC "-//W3C//DTD SVG 1.1//EN"
 "http://www.w3.org/Graphics/SVG/1.1/DTD/svg11.dtd">
<!-- Generated by graphviz version 15.1.0 (20260618.0150)
 -->
<!-- Title: include/LSCUtils.h Pages: 1 -->
<svg width="816pt" height="304pt"
 viewBox="0.00 0.00 816.00 304.00" xmlns="http://www.w3.org/2000/svg" xmlns:xlink="http://www.w3.org/1999/xlink">
<g id="graph0" class="graph" transform="scale(1 1) rotate(0) translate(4 299.5)">
<title>include/LSCUtils.h</title>
<!-- Node1 -->
<g id="Node000001" class="node">
<title>Node1</title>
<g id="a_Node000001"><a xlink:title=" ">
<polygon fill="#999999" stroke="#666666" points="599.5,-295.5 501.75,-295.5 501.75,-276.25 599.5,-276.25 599.5,-295.5"/>
<text xml:space="preserve" text-anchor="middle" x="550.62" y="-282" font-family="Helvetica,sans-Serif" font-size="10.00">include/LSCUtils.h</text>
</a>
</g>
</g>
<!-- Node2 -->
<g id="Node000002" class="node">
<title>Node2</title>
<g id="a_Node000002"><a xlink:href="_named_value_table_8h.html" target="_top" xlink:title=" ">
<polygon fill="white" stroke="#666666" points="619,-240.25 482.25,-240.25 482.25,-221 619,-221 619,-240.25"/>
<text xml:space="preserve" text-anchor="middle" x="550.62" y="-226.75" font-family="Helvetica,sans-Serif" font-size="10.00">include/NamedValueTable.h</text>
</a>
</g>
</g>
<!-- Node1&#45;&gt;Node2 -->
<g id="edge1_Node000001_Node000002" class="edge">
<title>Node1&#45;&gt;Node2</title>
<g id="a_edge1_Node000001_Node000002"><a xlink:title=" ">
<path fill="none" stroke="#63b8ff" d="M550.62,-264.63C550.62,-256.34 550.62,-247.17 550.62,-240.61"/>
<polygon fill="#63b8ff" stroke="#63b8ff" points="547.13,-264.57 550.63,-274.57 554.13,-264.57 547.13,-264.57"/>
</a>
</g>
</g>
<!-- Node3 -->
<g id="Node000003" class="node">
<title>Node3</title>
<g id="a_Node000003"><a xlink:href="_event_handler_8h.html" target="_top" xlink:title=" ">
<polygon fill="white" stroke="#666666" points="500.88,-185 384.38,-185 384.38,-165.75 500.88,-165.75 500.88,-185"/>
<text xml:space="preserve" text-anchor="middle" x="442.62" y="-171.5" font-family="Helvetica,sans-Serif" font-size="10.00">include/EventHandler.h</text>
</a>
</g>
</g>
<!-- Node2&#45;&gt;Node3 -->
<g id="edge2_Node000002_Node000003" class="edge">
<title>Node2&#45;&gt;Node3</title>
<g id="a_edge2_Node000002_Node000003"><a xlink:title=" ">
<path fill="none" stroke="#63b8ff" d="M522.23,-215.62C502.88,-206.08 477.82,-193.73 461.04,-185.45"/>
<polygon fill="#63b8ff" stroke="#63b8ff" points="520.43,-218.64 530.95,-219.92 523.53,-212.36 520.43,-218.64"/>
</a>
</g>
</g>
<!-- Node13 -->
<g id="Node000013" class="node">
<title>Node13</title>
<g id="a_Node000013"><a xlink:href="_m_q_t_t_controller_8h.html" target="_top" xlink:title=" ">
<polygon fill="white" stroke="#666666" points="808.12,-19.25 681.12,-19.25 681.12,0 808.12,0 808.12,-19.25"/>
<text xml:space="preserve" text-anchor="middle" x="744.62" y="-5.75" font-family="Helvetica,sans-Serif" font-size="10.00">include/MQTTController.h</text>
</a>
</g>
</g>
<!-- Node2&#45;&gt;Node13 -->
<g id="edge18_Node000002_Node000013" class="edge">
<title>Node2&#45;&gt;Node13</title>
<g id="a_edge18_Node000002_Node000013"><a xlink:title=" ">
<path fill="none" stroke="#63b8ff" d="M567.33,-212.76C586.59,-193.16 619.01,-159.68 645.62,-129.75 681.37,-89.56 721.69,-39.46 737.62,-19.46"/>
<polygon fill="#63b8ff" stroke="#63b8ff" points="565.07,-210.07 560.54,-219.65 570.05,-214.99 565.07,-210.07"/>
</a>
</g>
</g>
<!-- Node4 -->
<g id="Node000004" class="node">
<title>Node4</title>
<g id="a_Node000004"><a xlink:href="_logging_8h.html" target="_top" xlink:title=" ">
<polygon fill="white" stroke="#666666" points="314.5,-129.75 222.75,-129.75 222.75,-110.5 314.5,-110.5 314.5,-129.75"/>
<text xml:space="preserve" text-anchor="middle" x="268.62" y="-116.25" font-family="Helvetica,sans-Serif" font-size="10.00">include/Logging.h</text>
</a>
</g>
</g>
<!-- Node3&#45;&gt;Node4 -->
<g id="edge3_Node000003_Node000004" class="edge">
<title>Node3&#45;&gt;Node4</title>
<g id="a_edge3_Node000003_Node000004"><a xlink:title=" ">
<path fill="none" stroke="#63b8ff" d="M402.4,-162.07C370.61,-152.34 326.96,-138.98 298.29,-130.2"/>
<polygon fill="#63b8ff" stroke="#63b8ff" points="401.07,-165.32 411.66,-164.9 403.12,-158.63 401.07,-165.32"/>
</a>
</g>
</g>
<!-- Node6 -->
<g id="Node000006" class="node">
<title>Node6</title>
<g id="a_Node000006"><a xlink:href="_m_d_n_s_controller_8h.html" target="_top" xlink:title="MDNS Controller class definition ESP MDNS controller to handle mDNS responder start/stop on WiFi even...">
<polygon fill="white" stroke="#666666" points="129.25,-19.25 0,-19.25 0,0 129.25,0 129.25,-19.25"/>
<text xml:space="preserve" text-anchor="middle" x="64.62" y="-5.75" font-family="Helvetica,sans-Serif" font-size="10.00">include/MDNSController.h</text>
</a>
</g>
</g>
<!-- Node3&#45;&gt;Node6 -->
<g id="edge9_Node000003_Node000006" class="edge">
<title>Node3&#45;&gt;Node6</title>
<g id="a_edge9_Node000003_Node000006"><a xlink:title=" ">
<path fill="none" stroke="#63b8ff" d="M373.02,-169.54C326.2,-164.23 264.05,-153.09 213.62,-129.75 152.01,-101.23 93.53,-42 72.67,-19.53"/>
<polygon fill="#63b8ff" stroke="#63b8ff" points="372.45,-173 382.77,-170.58 373.2,-166.04 372.45,-173"/>
</a>
</g>
</g>
<!-- Node10 -->
<g id="Node000010" class="node">
<title>Node10</title>
<g id="a_Node000010"><a xlink:href="_module_interface_8h.html" target="_top" xlink:title="Full Interface for a module and an abstract basic module implementation.">
<polygon fill="white" stroke="#666666" points="460.5,-129.75 332.75,-129.75 332.75,-110.5 460.5,-110.5 460.5,-129.75"/>
<text xml:space="preserve" text-anchor="middle" x="396.62" y="-116.25" font-family="Helvetica,sans-Serif" font-size="10.00">include/ModuleInterface.h</text>
</a>
</g>
</g>
<!-- Node3&#45;&gt;Node10 -->
<g id="edge10_Node000003_Node000010" class="edge">
<title>Node3&#45;&gt;Node10</title>
<g id="a_edge10_Node000003_Node000010"><a xlink:title=" ">
<path fill="none" stroke="#63b8ff" d="M427.62,-157.01C419.87,-148.03 410.72,-137.45 404.39,-130.11"/>
<polygon fill="#63b8ff" stroke="#63b8ff" points="424.85,-159.16 434.04,-164.44 430.15,-154.58 424.85,-159.16"/>
</a>
</g>
</g>
<!-- Node14 -->
<g id="Node000014" class="node">
<title>Node14</title>
<g id="a_Node000014"><a xlink:href="_sys_status_led_8h.html" target="_top" xlink:title=" ">
<polygon fill="white" stroke="#666666" points="636.38,-129.75 516.88,-129.75 516.88,-110.5 636.38,-110.5 636.38,-129.75"/>
<text xml:space="preserve" text-anchor="middle" x="576.62" y="-116.25" font-family="Helvetica,sans-Serif" font-size="10.00">include/SysStatusLed.h</text>
</a>
</g>
</g>
<!-- Node3&#45;&gt;Node14 -->
<g id="edge15_Node000003_Node000014" class="edge">
<title>Node3&#45;&gt;Node14</title>
<g id="a_edge15_Node000003_Node000014"><a xlink:title=" ">
<path fill="none" stroke="#63b8ff" d="M475.87,-161.16C500.13,-151.52 532.38,-138.71 553.78,-130.2"/>
<polygon fill="#63b8ff" stroke="#63b8ff" points="474.76,-157.84 466.76,-164.78 477.35,-164.34 474.76,-157.84"/>
</a>
</g>
</g>
<!-- Node15 -->
<g id="Node000015" class="node">
<title>Node15</title>
<g id="a_Node000015"><a xlink:href="_web_socket_8h.html" target="_top" xlink:title=" ">
<polygon fill="white" stroke="#666666" points="522.75,-74.5 414.5,-74.5 414.5,-55.25 522.75,-55.25 522.75,-74.5"/>
<text xml:space="preserve" text-anchor="middle" x="468.62" y="-61" font-family="Helvetica,sans-Serif" font-size="10.00">include/WebSocket.h</text>
</a>
</g>
</g>
<!-- Node3&#45;&gt;Node15 -->
<g id="edge16_Node000003_Node000015" class="edge">
<title>Node3&#45;&gt;Node15</title>
<g id="a_edge16_Node000003_Node000015"><a xlink:title=" ">
<path fill="none" stroke="#63b8ff" d="M456.74,-156.16C461.85,-148.45 467.02,-139.1 469.62,-129.75 474.93,-110.73 472.37,-87.28 470.32,-74.76"/>
<polygon fill="#63b8ff" stroke="#63b8ff" points="453.9,-154.1 450.91,-164.27 459.59,-158.19 453.9,-154.1"/>
</a>
</g>
</g>
<!-- Node5 -->
<g id="Node000005" class="node">
<title>Node5</title>
<g id="a_Node000005"><a xlink:href="_appl_8h.html" target="_top" xlink:title="Application Main Class.">
<polygon fill="white" stroke="#666666" points="352.38,-74.5 274.88,-74.5 274.88,-55.25 352.38,-55.25 352.38,-74.5"/>
<text xml:space="preserve" text-anchor="middle" x="313.62" y="-61" font-family="Helvetica,sans-Serif" font-size="10.00">include/Appl.h</text>
</a>
</g>
</g>
<!-- Node4&#45;&gt;Node5 -->
<g id="edge4_Node000004_Node000005" class="edge">
<title>Node4&#45;&gt;Node5</title>
<g id="a_edge4_Node000004_Node000005"><a xlink:title=" ">
<path fill="none" stroke="#63b8ff" d="M283.3,-101.76C290.89,-92.78 299.83,-82.2 306.03,-74.86"/>
<polygon fill="#63b8ff" stroke="#63b8ff" points="280.81,-99.28 277.03,-109.18 286.16,-103.8 280.81,-99.28"/>
</a>
</g>
</g>
<!-- Node5&#45;&gt;Node6 -->
<g id="edge5_Node000005_Node000006" class="edge">
<title>Node5&#45;&gt;Node6</title>
<g id="a_edge5_Node000005_Node000006"><a xlink:title=" ">
<path fill="none" stroke="#63b8ff" d="M263.24,-53.1C217.29,-43.27 150.14,-28.91 106.91,-19.67"/>
<polygon fill="#63b8ff" stroke="#63b8ff" points="262.45,-56.51 272.96,-55.18 263.92,-49.67 262.45,-56.51"/>
</a>
</g>
</g>
<!-- Node7 -->
<g id="Node000007" class="node">
<title>Node7</title>
<g id="a_Node000007"><a xlink:href="_n_t_p_handler_8h.html" target="_top" xlink:title=" ">
<polygon fill="white" stroke="#666666" points="258.25,-19.25 147,-19.25 147,0 258.25,0 258.25,-19.25"/>
<text xml:space="preserve" text-anchor="middle" x="202.62" y="-5.75" font-family="Helvetica,sans-Serif" font-size="10.00">include/NTPHandler.h</text>
</a>
</g>
</g>
<!-- Node5&#45;&gt;Node7 -->
<g id="edge6_Node000005_Node000007" class="edge">
<title>Node5&#45;&gt;Node7</title>
<g id="a_edge6_Node000005_Node000007"><a xlink:title=" ">
<path fill="none" stroke="#63b8ff" d="M284.44,-49.87C264.55,-40.33 238.8,-27.98 221.55,-19.7"/>
<polygon fill="#63b8ff" stroke="#63b8ff" points="282.9,-53.02 293.43,-54.19 285.93,-46.71 282.9,-53.02"/>
</a>
</g>
</g>
<!-- Node8 -->
<g id="Node000008" class="node">
<title>Node8</title>
<g id="a_Node000008"><a xlink:href="_web_server_8h.html" target="_top" xlink:title=" ">
<polygon fill="white" stroke="#666666" points="518.25,-19.25 413,-19.25 413,0 518.25,0 518.25,-19.25"/>
<text xml:space="preserve" text-anchor="middle" x="465.62" y="-5.75" font-family="Helvetica,sans-Serif" font-size="10.00">include/WebServer.h</text>
</a>
</g>
</g>
<!-- Node5&#45;&gt;Node8 -->
<g id="edge7_Node000005_Node000008" class="edge">
<title>Node5&#45;&gt;Node8</title>
<g id="a_edge7_Node000005_Node000008"><a xlink:title=" ">
<path fill="none" stroke="#63b8ff" d="M350.23,-51.05C377.86,-41.37 415.1,-28.32 439.71,-19.7"/>
<polygon fill="#63b8ff" stroke="#63b8ff" points="349.12,-47.73 340.84,-54.34 351.43,-54.34 349.12,-47.73"/>
</a>
</g>
</g>
<!-- Node9 -->
<g id="Node000009" class="node">
<title>Node9</title>
<g id="a_Node000009"><a xlink:href="_wi_fi_controller_8h.html" target="_top" xlink:title="WiFi Controller to handle Access Point and Station Mode.">
<polygon fill="white" stroke="#666666" points="395.38,-19.25 275.88,-19.25 275.88,0 395.38,0 395.38,-19.25"/>
<text xml:space="preserve" text-anchor="middle" x="335.62" y="-5.75" font-family="Helvetica,sans-Serif" font-size="10.00">include/WiFiController.h</text>
</a>
</g>
</g>
<!-- Node5&#45;&gt;Node9 -->
<g id="edge8_Node000005_Node000009" class="edge">
<title>Node5&#45;&gt;Node9</title>
<g id="a_edge8_Node000005_Node000009"><a xlink:title=" ">
<path fill="none" stroke="#63b8ff" d="M321.63,-44.5C325.15,-35.99 329.11,-26.4 331.91,-19.61"/>
<polygon fill="#63b8ff" stroke="#63b8ff" points="318.42,-43.1 317.84,-53.68 324.89,-45.78 318.42,-43.1"/>
</a>
</g>
</g>
<!-- Node10&#45;&gt;Node5 -->
<g id="edge11_Node000010_Node000005" class="edge">
<title>Node10&#45;&gt;Node5</title>
<g id="a_edge11_Node000010_Node000005"><a xlink:title=" ">
<path fill="none" stroke="#63b8ff" d="M373.13,-104.05C358.51,-94.67 340.2,-82.92 327.77,-74.95"/>
<polygon fill="#63b8ff" stroke="#63b8ff" points="370.96,-106.82 381.27,-109.27 374.74,-100.93 370.96,-106.82"/>
</a>
</g>
</g>
<!-- Node11 -->
<g id="Node000011" class="node">
<title>Node11</title>
<g id="a_Node000011"><a xlink:href="_appl_module_8h.html" target="_top" xlink:title=" ">
<polygon fill="white" stroke="#666666" points="654.12,-74.5 545.12,-74.5 545.12,-55.25 654.12,-55.25 654.12,-74.5"/>
<text xml:space="preserve" text-anchor="middle" x="599.62" y="-61" font-family="Helvetica,sans-Serif" font-size="10.00">include/ApplModule.h</text>
</a>
</g>
</g>
<!-- Node10&#45;&gt;Node11 -->
<g id="edge12_Node000010_Node000011" class="edge">
<title>Node10&#45;&gt;Node11</title>
<g id="a_edge12_Node000010_Node000011"><a xlink:title=" ">
<path fill="none" stroke="#63b8ff" d="M442.1,-107.2C479.3,-97.44 531.13,-83.84 565.02,-74.95"/>
<polygon fill="#63b8ff" stroke="#63b8ff" points="441.31,-103.78 432.53,-109.71 443.09,-110.56 441.31,-103.78"/>
</a>
</g>
</g>
<!-- Node12 -->
<g id="Node000012" class="node">
<title>Node12</title>
<g id="a_Node000012"><a xlink:href="_battery_measure_8h.html" target="_top" xlink:title=" ">
<polygon fill="white" stroke="#666666" points="663.12,-19.25 536.12,-19.25 536.12,0 663.12,0 663.12,-19.25"/>
<text xml:space="preserve" text-anchor="middle" x="599.62" y="-5.75" font-family="Helvetica,sans-Serif" font-size="10.00">include/BatteryMeasure.h</text>
</a>
</g>
</g>
<!-- Node11&#45;&gt;Node12 -->
<g id="edge13_Node000011_Node000012" class="edge">
<title>Node11&#45;&gt;Node12</title>
<g id="a_edge13_Node000011_Node000012"><a xlink:title=" ">
<path fill="none" stroke="#63b8ff" d="M599.62,-43.63C599.62,-35.34 599.62,-26.17 599.62,-19.61"/>
<polygon fill="#63b8ff" stroke="#63b8ff" points="596.13,-43.57 599.63,-53.57 603.13,-43.57 596.13,-43.57"/>
</a>
</g>
</g>
<!-- Node11&#45;&gt;Node13 -->
<g id="edge14_Node000011_Node000013" class="edge">
<title>Node11&#45;&gt;Node13</title>
<g id="a_edge14_Node000011_Node000013"><a xlink:title=" ">
<path fill="none" stroke="#63b8ff" d="M634.89,-50.92C661.22,-41.25 696.54,-28.29 719.91,-19.7"/>
<polygon fill="#63b8ff" stroke="#63b8ff" points="633.82,-47.59 625.64,-54.32 636.24,-54.16 633.82,-47.59"/>
</a>
</g>
</g>
<!-- Node15&#45;&gt;Node8 -->
<g id="edge17_Node000015_Node000008" class="edge">
<title>Node15&#45;&gt;Node8</title>
<g id="a_edge17_Node000015_Node000008"><a xlink:title=" ">
<path fill="none" stroke="#63b8ff" d="M467.48,-43.63C467.02,-35.34 466.5,-26.17 466.13,-19.61"/>
<polygon fill="#63b8ff" stroke="#63b8ff" points="463.99,-43.78 468.04,-53.57 470.98,-43.39 463.99,-43.78"/>
</a>
</g>
</g>
</g>
</svg>
