<?xml version="1.0" encoding="UTF-8" standalone="no"?>
<!DOCTYPE svg PUBLIC "-//W3C//DTD SVG 1.1//EN"
 "http://www.w3.org/Graphics/SVG/1.1/DTD/svg11.dtd">
<!-- Generated by graphviz version 15.1.0 (20260618.0150)
 -->
<!-- Title: include/LightSwitch.h Pages: 1 -->
<svg width="235pt" height="193pt"
 viewBox="0.00 0.00 235.00 193.00" xmlns="http://www.w3.org/2000/svg" xmlns:xlink="http://www.w3.org/1999/xlink">
<g id="graph0" class="graph" transform="scale(1 1) rotate(0) translate(4 189)">
<title>include/LightSwitch.h</title>
<!-- Node1 -->
<g id="Node000001" class="node">
<title>Node1</title>
<g id="a_Node000001"><a xlink:title=" ">
<polygon fill="#999999" stroke="#666666" points="184.62,-185 75.62,-185 75.62,-165.75 184.62,-165.75 184.62,-185"/>
<text xml:space="preserve" text-anchor="middle" x="130.12" y="-171.5" font-family="Helvetica,sans-Serif" font-size="10.00">include/LightSwitch.h</text>
</a>
</g>
</g>
<!-- Node2 -->
<g id="Node000002" class="node">
<title>Node2</title>
<g id="a_Node000002"><a xlink:href="_runtime_8h.html" target="_top" xlink:title=" ">
<polygon fill="white" stroke="#666666" points="119.62,-74.5 58.62,-74.5 58.62,-55.25 119.62,-55.25 119.62,-74.5"/>
<text xml:space="preserve" text-anchor="middle" x="89.12" y="-61" font-family="Helvetica,sans-Serif" font-size="10.00">Runtime.h</text>
</a>
</g>
</g>
<!-- Node1&#45;&gt;Node2 -->
<g id="edge1_Node000001_Node000002" class="edge">
<title>Node1&#45;&gt;Node2</title>
<g id="a_edge1_Node000001_Node000002"><a xlink:title=" ">
<path fill="none" stroke="#63b8ff" d="M125.41,-165.3C120.89,-156.4 114.04,-142.35 109.12,-129.75 103.43,-115.15 98.19,-98.2 94.5,-85.43"/>
<polygon fill="#63b8ff" stroke="#63b8ff" points="97.96,-84.82 91.88,-76.14 91.22,-86.71 97.96,-84.82"/>
</a>
</g>
</g>
<!-- Node6 -->
<g id="Node000006" class="node">
<title>Node6</title>
<g id="a_Node000006"><a xlink:href="_output_pin_controller_8h.html" target="_top" xlink:title=" ">
<polygon fill="white" stroke="#666666" points="226.62,-129.75 117.62,-129.75 117.62,-110.5 226.62,-110.5 226.62,-129.75"/>
<text xml:space="preserve" text-anchor="middle" x="172.12" y="-116.25" font-family="Helvetica,sans-Serif" font-size="10.00">OutputPinController.h</text>
</a>
</g>
</g>
<!-- Node1&#45;&gt;Node6 -->
<g id="edge5_Node000001_Node000006" class="edge">
<title>Node1&#45;&gt;Node6</title>
<g id="a_edge5_Node000001_Node000006"><a xlink:title=" ">
<path fill="none" stroke="#63b8ff" d="M137.06,-165.58C142.74,-158.38 150.96,-147.96 158.02,-139.01"/>
<polygon fill="#63b8ff" stroke="#63b8ff" points="160.66,-141.32 164.1,-131.3 155.16,-136.98 160.66,-141.32"/>
</a>
</g>
</g>
<!-- Node3 -->
<g id="Node000003" class="node">
<title>Node3</title>
<g id="a_Node000003"><a xlink:title=" ">
<polygon fill="#e0e0e0" stroke="#999999" points="48.25,-19.25 0,-19.25 0,0 48.25,0 48.25,-19.25"/>
<text xml:space="preserve" text-anchor="middle" x="24.12" y="-5.75" font-family="Helvetica,sans-Serif" font-size="10.00">string.h</text>
</a>
</g>
</g>
<!-- Node2&#45;&gt;Node3 -->
<g id="edge2_Node000002_Node000003" class="edge">
<title>Node2&#45;&gt;Node3</title>
<g id="a_edge2_Node000002_Node000003"><a xlink:title=" ">
<path fill="none" stroke="#63b8ff" d="M78.1,-54.84C68.7,-47.15 54.98,-35.9 43.72,-26.68"/>
<polygon fill="#63b8ff" stroke="#63b8ff" points="46.11,-24.11 36.16,-20.48 41.68,-29.53 46.11,-24.11"/>
</a>
</g>
</g>
<!-- Node4 -->
<g id="Node000004" class="node">
<title>Node4</title>
<g id="a_Node000004"><a xlink:title=" ">
<polygon fill="#e0e0e0" stroke="#999999" points="111.75,-19.25 66.5,-19.25 66.5,0 111.75,0 111.75,-19.25"/>
<text xml:space="preserve" text-anchor="middle" x="89.12" y="-5.75" font-family="Helvetica,sans-Serif" font-size="10.00">chrono</text>
</a>
</g>
</g>
<!-- Node2&#45;&gt;Node4 -->
<g id="edge3_Node000002_Node000004" class="edge">
<title>Node2&#45;&gt;Node4</title>
<g id="a_edge3_Node000002_Node000004"><a xlink:title=" ">
<path fill="none" stroke="#63b8ff" d="M89.12,-55.08C89.12,-48.57 89.12,-39.42 89.12,-31.12"/>
<polygon fill="#63b8ff" stroke="#63b8ff" points="92.63,-31.12 89.13,-21.12 85.63,-31.12 92.63,-31.12"/>
</a>
</g>
</g>
<!-- Node5 -->
<g id="Node000005" class="node">
<title>Node5</title>
<g id="a_Node000005"><a xlink:title=" ">
<polygon fill="#e0e0e0" stroke="#999999" points="182.88,-19.25 129.38,-19.25 129.38,0 182.88,0 182.88,-19.25"/>
<text xml:space="preserve" text-anchor="middle" x="156.12" y="-5.75" font-family="Helvetica,sans-Serif" font-size="10.00">iostream</text>
</a>
</g>
</g>
<!-- Node2&#45;&gt;Node5 -->
<g id="edge4_Node000002_Node000005" class="edge">
<title>Node2&#45;&gt;Node5</title>
<g id="a_edge4_Node000002_Node000005"><a xlink:title=" ">
<path fill="none" stroke="#63b8ff" d="M100.49,-54.84C110.17,-47.15 124.32,-35.9 135.93,-26.68"/>
<polygon fill="#63b8ff" stroke="#63b8ff" points="138.09,-29.43 143.74,-20.47 133.74,-23.95 138.09,-29.43"/>
</a>
</g>
</g>
<!-- Node6&#45;&gt;Node2 -->
<g id="edge6_Node000006_Node000002" class="edge">
<title>Node6&#45;&gt;Node2</title>
<g id="a_edge6_Node000006_Node000002"><a xlink:title=" ">
<path fill="none" stroke="#63b8ff" d="M158.05,-110.09C145.64,-102.14 127.33,-90.39 112.7,-81"/>
<polygon fill="#63b8ff" stroke="#63b8ff" points="114.85,-78.22 104.55,-75.77 111.07,-84.12 114.85,-78.22"/>
</a>
</g>
</g>
<!-- Node7 -->
<g id="Node000007" class="node">
<title>Node7</title>
<g id="a_Node000007"><a xlink:href="_pin_controller_8h.html" target="_top" xlink:title=" ">
<polygon fill="white" stroke="#666666" points="217,-74.5 137.25,-74.5 137.25,-55.25 217,-55.25 217,-74.5"/>
<text xml:space="preserve" text-anchor="middle" x="177.12" y="-61" font-family="Helvetica,sans-Serif" font-size="10.00">PinController.h</text>
</a>
</g>
</g>
<!-- Node6&#45;&gt;Node7 -->
<g id="edge7_Node000006_Node000007" class="edge">
<title>Node6&#45;&gt;Node7</title>
<g id="a_edge7_Node000006_Node000007"><a xlink:title=" ">
<path fill="none" stroke="#63b8ff" d="M172.95,-110.33C173.57,-103.74 174.44,-94.46 175.23,-86.07"/>
<polygon fill="#63b8ff" stroke="#63b8ff" points="178.69,-86.65 176.14,-76.37 171.72,-86 178.69,-86.65"/>
</a>
</g>
</g>
</g>
</svg>
