<?xml version="1.0" encoding="UTF-8" standalone="no"?>
<!DOCTYPE svg PUBLIC "-//W3C//DTD SVG 1.1//EN"
 "http://www.w3.org/Graphics/SVG/1.1/DTD/svg11.dtd">
<!-- Generated by graphviz version 15.1.0 (20260618.0150)
 -->
<!-- Title: include/Logging.h Pages: 1 -->
<svg width="387pt" height="304pt"
 viewBox="0.00 0.00 387.00 304.00" xmlns="http://www.w3.org/2000/svg" xmlns:xlink="http://www.w3.org/1999/xlink">
<g id="graph0" class="graph" transform="scale(1 1) rotate(0) translate(4 299.5)">
<title>include/Logging.h</title>
<!-- Node1 -->
<g id="Node000001" class="node">
<title>Node1</title>
<g id="a_Node000001"><a xlink:title=" ">
<polygon fill="#999999" stroke="#666666" points="180,-295.5 88.25,-295.5 88.25,-276.25 180,-276.25 180,-295.5"/>
<text xml:space="preserve" text-anchor="middle" x="134.12" y="-282" font-family="Helvetica,sans-Serif" font-size="10.00">include/Logging.h</text>
</a>
</g>
</g>
<!-- Node2 -->
<g id="Node000002" class="node">
<title>Node2</title>
<g id="a_Node000002"><a xlink:title=" ">
<polygon fill="#e0e0e0" stroke="#999999" points="74.75,-240.25 23.5,-240.25 23.5,-221 74.75,-221 74.75,-240.25"/>
<text xml:space="preserve" text-anchor="middle" x="49.12" y="-226.75" font-family="Helvetica,sans-Serif" font-size="10.00">stdarg.h</text>
</a>
</g>
</g>
<!-- Node1&#45;&gt;Node2 -->
<g id="edge1_Node000001_Node000002" class="edge">
<title>Node1&#45;&gt;Node2</title>
<g id="a_edge1_Node000001_Node000002"><a xlink:title=" ">
<path fill="none" stroke="#63b8ff" d="M119.71,-275.84C107.01,-267.89 88.25,-256.14 73.27,-246.75"/>
<polygon fill="#63b8ff" stroke="#63b8ff" points="75.23,-243.85 64.9,-241.51 71.51,-249.78 75.23,-243.85"/>
</a>
</g>
</g>
<!-- Node3 -->
<g id="Node000003" class="node">
<title>Node3</title>
<g id="a_Node000003"><a xlink:href="_event_handler_8h.html" target="_top" xlink:title=" ">
<polygon fill="white" stroke="#666666" points="175.5,-240.25 92.75,-240.25 92.75,-221 175.5,-221 175.5,-240.25"/>
<text xml:space="preserve" text-anchor="middle" x="134.12" y="-226.75" font-family="Helvetica,sans-Serif" font-size="10.00">EventHandler.h</text>
</a>
</g>
</g>
<!-- Node1&#45;&gt;Node3 -->
<g id="edge2_Node000001_Node000003" class="edge">
<title>Node1&#45;&gt;Node3</title>
<g id="a_edge2_Node000001_Node000003"><a xlink:title=" ">
<path fill="none" stroke="#63b8ff" d="M134.12,-276.08C134.12,-269.57 134.12,-260.42 134.12,-252.12"/>
<polygon fill="#63b8ff" stroke="#63b8ff" points="137.63,-252.12 134.13,-242.12 130.63,-252.12 137.63,-252.12"/>
</a>
</g>
</g>
<!-- Node14 -->
<g id="Node000014" class="node">
<title>Node14</title>
<g id="a_Node000014"><a xlink:href="_msgs_8h.html" target="_top" xlink:title=" ">
<polygon fill="white" stroke="#666666" points="242.25,-240.25 194,-240.25 194,-221 242.25,-221 242.25,-240.25"/>
<text xml:space="preserve" text-anchor="middle" x="218.12" y="-226.75" font-family="Helvetica,sans-Serif" font-size="10.00">Msgs.h</text>
</a>
</g>
</g>
<!-- Node1&#45;&gt;Node14 -->
<g id="edge16_Node000001_Node000014" class="edge">
<title>Node1&#45;&gt;Node14</title>
<g id="a_edge16_Node000001_Node000014"><a xlink:title=" ">
<path fill="none" stroke="#63b8ff" d="M148.37,-275.84C160.92,-267.89 179.46,-256.14 194.27,-246.75"/>
<polygon fill="#63b8ff" stroke="#63b8ff" points="195.96,-249.82 202.53,-241.51 192.21,-243.91 195.96,-249.82"/>
</a>
</g>
</g>
<!-- Node4 -->
<g id="Node000004" class="node">
<title>Node4</title>
<g id="a_Node000004"><a xlink:href="_runtime_8h.html" target="_top" xlink:title=" ">
<polygon fill="white" stroke="#666666" points="119.62,-74.5 58.62,-74.5 58.62,-55.25 119.62,-55.25 119.62,-74.5"/>
<text xml:space="preserve" text-anchor="middle" x="89.12" y="-61" font-family="Helvetica,sans-Serif" font-size="10.00">Runtime.h</text>
</a>
</g>
</g>
<!-- Node3&#45;&gt;Node4 -->
<g id="edge3_Node000003_Node000004" class="edge">
<title>Node3&#45;&gt;Node4</title>
<g id="a_edge3_Node000003_Node000004"><a xlink:title=" ">
<path fill="none" stroke="#63b8ff" d="M96.5,-220.5C65.37,-212.1 24.74,-198.87 15.12,-185 -9.9,-148.89 37.13,-104.49 67.06,-81.43"/>
<polygon fill="#63b8ff" stroke="#63b8ff" points="68.92,-84.42 74.86,-75.64 64.74,-78.8 68.92,-84.42"/>
</a>
</g>
</g>
<!-- Node8 -->
<g id="Node000008" class="node">
<title>Node8</title>
<g id="a_Node000008"><a xlink:title=" ">
<polygon fill="#e0e0e0" stroke="#999999" points="82.12,-185 24.12,-185 24.12,-165.75 82.12,-165.75 82.12,-185"/>
<text xml:space="preserve" text-anchor="middle" x="53.12" y="-171.5" font-family="Helvetica,sans-Serif" font-size="10.00">functional</text>
</a>
</g>
</g>
<!-- Node3&#45;&gt;Node8 -->
<g id="edge7_Node000003_Node000008" class="edge">
<title>Node3&#45;&gt;Node8</title>
<g id="a_edge7_Node000003_Node000008"><a xlink:title=" ">
<path fill="none" stroke="#63b8ff" d="M120.38,-220.59C108.4,-212.71 90.75,-201.11 76.54,-191.77"/>
<polygon fill="#63b8ff" stroke="#63b8ff" points="78.48,-188.85 68.2,-186.28 74.63,-194.7 78.48,-188.85"/>
</a>
</g>
</g>
<!-- Node9 -->
<g id="Node000009" class="node">
<title>Node9</title>
<g id="a_Node000009"><a xlink:title=" ">
<polygon fill="#e0e0e0" stroke="#999999" points="136.62,-129.75 93.62,-129.75 93.62,-110.5 136.62,-110.5 136.62,-129.75"/>
<text xml:space="preserve" text-anchor="middle" x="115.12" y="-116.25" font-family="Helvetica,sans-Serif" font-size="10.00">vector</text>
</a>
</g>
</g>
<!-- Node3&#45;&gt;Node9 -->
<g id="edge8_Node000003_Node000009" class="edge">
<title>Node3&#45;&gt;Node9</title>
<g id="a_edge8_Node000003_Node000009"><a xlink:title=" ">
<path fill="none" stroke="#63b8ff" d="M132.57,-220.75C129.55,-203.5 122.82,-165.08 118.66,-141.31"/>
<polygon fill="#63b8ff" stroke="#63b8ff" points="122.13,-140.86 116.96,-131.62 115.24,-142.07 122.13,-140.86"/>
</a>
</g>
</g>
<!-- Node10 -->
<g id="Node000010" class="node">
<title>Node10</title>
<g id="a_Node000010"><a xlink:title=" ">
<polygon fill="#e0e0e0" stroke="#999999" points="180.25,-185 138,-185 138,-165.75 180.25,-165.75 180.25,-185"/>
<text xml:space="preserve" text-anchor="middle" x="159.12" y="-171.5" font-family="Helvetica,sans-Serif" font-size="10.00">queue</text>
</a>
</g>
</g>
<!-- Node3&#45;&gt;Node10 -->
<g id="edge9_Node000003_Node000010" class="edge">
<title>Node3&#45;&gt;Node10</title>
<g id="a_edge9_Node000003_Node000010"><a xlink:title=" ">
<path fill="none" stroke="#63b8ff" d="M138.25,-220.83C141.45,-214.01 146.01,-204.31 150.05,-195.7"/>
<polygon fill="#63b8ff" stroke="#63b8ff" points="153.18,-197.27 154.26,-186.73 146.85,-194.29 153.18,-197.27"/>
</a>
</g>
</g>
<!-- Node11 -->
<g id="Node000011" class="node">
<title>Node11</title>
<g id="a_Node000011"><a xlink:href="_named_value_table_8h.html" target="_top" xlink:title=" ">
<polygon fill="white" stroke="#666666" points="301.62,-185 198.62,-185 198.62,-165.75 301.62,-165.75 301.62,-185"/>
<text xml:space="preserve" text-anchor="middle" x="250.12" y="-171.5" font-family="Helvetica,sans-Serif" font-size="10.00">NamedValueTable.h</text>
</a>
</g>
</g>
<!-- Node3&#45;&gt;Node11 -->
<g id="edge10_Node000003_Node000011" class="edge">
<title>Node3&#45;&gt;Node11</title>
<g id="a_edge10_Node000003_Node000011"><a xlink:title=" ">
<path fill="none" stroke="#63b8ff" d="M153.8,-220.59C171.97,-212.25 199.21,-199.75 220.09,-190.16"/>
<polygon fill="#63b8ff" stroke="#63b8ff" points="221.35,-193.44 228.98,-186.08 218.43,-187.08 221.35,-193.44"/>
</a>
</g>
</g>
<!-- Node13 -->
<g id="Node000013" class="node">
<title>Node13</title>
<g id="a_Node000013"><a xlink:href="_development_helper_8h.html" target="_top" xlink:title=" ">
<polygon fill="white" stroke="#666666" points="379,-129.75 269.25,-129.75 269.25,-110.5 379,-110.5 379,-129.75"/>
<text xml:space="preserve" text-anchor="middle" x="324.12" y="-116.25" font-family="Helvetica,sans-Serif" font-size="10.00">DevelopmentHelper.h</text>
</a>
</g>
</g>
<!-- Node3&#45;&gt;Node13 -->
<g id="edge15_Node000003_Node000013" class="edge">
<title>Node3&#45;&gt;Node13</title>
<g id="a_edge15_Node000003_Node000013"><a xlink:title=" ">
<path fill="none" stroke="#63b8ff" d="M175.75,-221.55C225.05,-211.61 301.71,-194.86 311.12,-185 322.13,-173.47 324.96,-155.29 325.28,-141.26"/>
<polygon fill="#63b8ff" stroke="#63b8ff" points="328.78,-141.3 325.06,-131.38 321.79,-141.45 328.78,-141.3"/>
</a>
</g>
</g>
<!-- Node5 -->
<g id="Node000005" class="node">
<title>Node5</title>
<g id="a_Node000005"><a xlink:title=" ">
<polygon fill="#e0e0e0" stroke="#999999" points="48.25,-19.25 0,-19.25 0,0 48.25,0 48.25,-19.25"/>
<text xml:space="preserve" text-anchor="middle" x="24.12" y="-5.75" font-family="Helvetica,sans-Serif" font-size="10.00">string.h</text>
</a>
</g>
</g>
<!-- Node4&#45;&gt;Node5 -->
<g id="edge4_Node000004_Node000005" class="edge">
<title>Node4&#45;&gt;Node5</title>
<g id="a_edge4_Node000004_Node000005"><a xlink:title=" ">
<path fill="none" stroke="#63b8ff" d="M78.1,-54.84C68.7,-47.15 54.98,-35.9 43.72,-26.68"/>
<polygon fill="#63b8ff" stroke="#63b8ff" points="46.11,-24.11 36.16,-20.48 41.68,-29.53 46.11,-24.11"/>
</a>
</g>
</g>
<!-- Node6 -->
<g id="Node000006" class="node">
<title>Node6</title>
<g id="a_Node000006"><a xlink:title=" ">
<polygon fill="#e0e0e0" stroke="#999999" points="111.75,-19.25 66.5,-19.25 66.5,0 111.75,0 111.75,-19.25"/>
<text xml:space="preserve" text-anchor="middle" x="89.12" y="-5.75" font-family="Helvetica,sans-Serif" font-size="10.00">chrono</text>
</a>
</g>
</g>
<!-- Node4&#45;&gt;Node6 -->
<g id="edge5_Node000004_Node000006" class="edge">
<title>Node4&#45;&gt;Node6</title>
<g id="a_edge5_Node000004_Node000006"><a xlink:title=" ">
<path fill="none" stroke="#63b8ff" d="M89.12,-55.08C89.12,-48.57 89.12,-39.42 89.12,-31.12"/>
<polygon fill="#63b8ff" stroke="#63b8ff" points="92.63,-31.12 89.13,-21.12 85.63,-31.12 92.63,-31.12"/>
</a>
</g>
</g>
<!-- Node7 -->
<g id="Node000007" class="node">
<title>Node7</title>
<g id="a_Node000007"><a xlink:title=" ">
<polygon fill="#e0e0e0" stroke="#999999" points="182.88,-19.25 129.38,-19.25 129.38,0 182.88,0 182.88,-19.25"/>
<text xml:space="preserve" text-anchor="middle" x="156.12" y="-5.75" font-family="Helvetica,sans-Serif" font-size="10.00">iostream</text>
</a>
</g>
</g>
<!-- Node4&#45;&gt;Node7 -->
<g id="edge6_Node000004_Node000007" class="edge">
<title>Node4&#45;&gt;Node7</title>
<g id="a_edge6_Node000004_Node000007"><a xlink:title=" ">
<path fill="none" stroke="#63b8ff" d="M100.49,-54.84C110.17,-47.15 124.32,-35.9 135.93,-26.68"/>
<polygon fill="#63b8ff" stroke="#63b8ff" points="138.09,-29.43 143.74,-20.47 133.74,-23.95 138.09,-29.43"/>
</a>
</g>
</g>
<!-- Node11&#45;&gt;Node9 -->
<g id="edge11_Node000011_Node000009" class="edge">
<title>Node11&#45;&gt;Node9</title>
<g id="a_edge11_Node000011_Node000009"><a xlink:title=" ">
<path fill="none" stroke="#63b8ff" d="M227.22,-165.34C205.3,-156.7 172.03,-143.57 147.42,-133.86"/>
<polygon fill="#63b8ff" stroke="#63b8ff" points="148.79,-130.64 138.2,-130.23 146.22,-137.15 148.79,-130.64"/>
</a>
</g>
</g>
<!-- Node12 -->
<g id="Node000012" class="node">
<title>Node12</title>
<g id="a_Node000012"><a xlink:href="_l_s_c_utils_8h.html" target="_top" xlink:title=" ">
<polygon fill="white" stroke="#666666" points="240.12,-129.75 176.12,-129.75 176.12,-110.5 240.12,-110.5 240.12,-129.75"/>
<text xml:space="preserve" text-anchor="middle" x="208.12" y="-116.25" font-family="Helvetica,sans-Serif" font-size="10.00">LSCUtils.h</text>
</a>
</g>
</g>
<!-- Node11&#45;&gt;Node12 -->
<g id="edge12_Node000011_Node000012" class="edge">
<title>Node11&#45;&gt;Node12</title>
<g id="a_edge12_Node000011_Node000012"><a xlink:title=" ">
<path fill="none" stroke="#63b8ff" d="M243.19,-165.58C237.51,-158.38 229.29,-147.96 222.23,-139.01"/>
<polygon fill="#63b8ff" stroke="#63b8ff" points="225.09,-136.98 216.15,-131.3 219.59,-141.32 225.09,-136.98"/>
</a>
</g>
</g>
<!-- Node11&#45;&gt;Node13 -->
<g id="edge14_Node000011_Node000013" class="edge">
<title>Node11&#45;&gt;Node13</title>
<g id="a_edge14_Node000011_Node000013"><a xlink:title=" ">
<path fill="none" stroke="#63b8ff" d="M262.68,-165.34C273.59,-157.49 289.63,-145.95 302.59,-136.62"/>
<polygon fill="#63b8ff" stroke="#63b8ff" points="304.46,-139.59 310.53,-130.91 300.37,-133.91 304.46,-139.59"/>
</a>
</g>
</g>
<!-- Node12&#45;&gt;Node4 -->
<g id="edge13_Node000012_Node000004" class="edge">
<title>Node12&#45;&gt;Node4</title>
<g id="a_edge13_Node000012_Node000004"><a xlink:title=" ">
<path fill="none" stroke="#63b8ff" d="M187.94,-110.09C169.22,-101.72 141.1,-89.13 119.64,-79.53"/>
<polygon fill="#63b8ff" stroke="#63b8ff" points="121.35,-76.46 110.79,-75.57 118.49,-82.85 121.35,-76.46"/>
</a>
</g>
</g>
</g>
</svg>
