<?xml version="1.0" encoding="UTF-8" standalone="no"?>
<!DOCTYPE svg PUBLIC "-//W3C//DTD SVG 1.1//EN"
 "http://www.w3.org/Graphics/SVG/1.1/DTD/svg11.dtd">
<!-- Generated by graphviz version 15.1.0 (20260618.0150)
 -->
<!-- Title: include/MDNSController.h Pages: 1 -->
<svg width="908pt" height="414pt"
 viewBox="0.00 0.00 908.00 414.00" xmlns="http://www.w3.org/2000/svg" xmlns:xlink="http://www.w3.org/1999/xlink">
<g id="graph0" class="graph" transform="scale(1 1) rotate(0) translate(4 410)">
<title>include/MDNSController.h</title>
<!-- Node1 -->
<g id="Node000001" class="node">
<title>Node1</title>
<g id="a_Node000001"><a xlink:title="MDNS Controller class definition ESP MDNS controller to handle mDNS responder start/stop on WiFi even...">
<polygon fill="#999999" stroke="#666666" points="541.25,-406 412,-406 412,-386.75 541.25,-386.75 541.25,-406"/>
<text xml:space="preserve" text-anchor="middle" x="476.62" y="-392.5" font-family="Helvetica,sans-Serif" font-size="10.00">include/MDNSController.h</text>
</a>
</g>
</g>
<!-- Node2 -->
<g id="Node000002" class="node">
<title>Node2</title>
<g id="a_Node000002"><a xlink:title=" ">
<polygon fill="#e0e0e0" stroke="#999999" points="436.38,-350.75 340.88,-350.75 340.88,-331.5 436.38,-331.5 436.38,-350.75"/>
<text xml:space="preserve" text-anchor="middle" x="388.62" y="-337.25" font-family="Helvetica,sans-Serif" font-size="10.00">ESP8266mDNS.h</text>
</a>
</g>
</g>
<!-- Node1&#45;&gt;Node2 -->
<g id="edge1_Node000001_Node000002" class="edge">
<title>Node1&#45;&gt;Node2</title>
<g id="a_edge1_Node000001_Node000002"><a xlink:title=" ">
<path fill="none" stroke="#63b8ff" d="M461.7,-386.34C448.42,-378.31 428.76,-366.41 413.17,-356.98"/>
<polygon fill="#63b8ff" stroke="#63b8ff" points="415.29,-354.17 404.92,-351.99 411.66,-360.16 415.29,-354.17"/>
</a>
</g>
</g>
<!-- Node3 -->
<g id="Node000003" class="node">
<title>Node3</title>
<g id="a_Node000003"><a xlink:href="_event_handler_8h.html" target="_top" xlink:title=" ">
<polygon fill="white" stroke="#666666" points="709,-240.25 626.25,-240.25 626.25,-221 709,-221 709,-240.25"/>
<text xml:space="preserve" text-anchor="middle" x="667.62" y="-226.75" font-family="Helvetica,sans-Serif" font-size="10.00">EventHandler.h</text>
</a>
</g>
</g>
<!-- Node1&#45;&gt;Node3 -->
<g id="edge2_Node000001_Node000003" class="edge">
<title>Node1&#45;&gt;Node3</title>
<g id="a_edge2_Node000001_Node000003"><a xlink:title=" ">
<path fill="none" stroke="#63b8ff" d="M493.19,-386.49C521.61,-370.72 580.57,-335.71 621.62,-295.5 635.49,-281.92 648.13,-263.75 656.64,-250.26"/>
<polygon fill="#63b8ff" stroke="#63b8ff" points="659.51,-252.27 661.73,-241.91 653.53,-248.63 659.51,-252.27"/>
</a>
</g>
</g>
<!-- Node14 -->
<g id="Node000014" class="node">
<title>Node14</title>
<g id="a_Node000014"><a xlink:href="_appl_8h.html" target="_top" xlink:title="Application Main Class.">
<polygon fill="white" stroke="#666666" points="498.5,-350.75 454.75,-350.75 454.75,-331.5 498.5,-331.5 498.5,-350.75"/>
<text xml:space="preserve" text-anchor="middle" x="476.62" y="-337.25" font-family="Helvetica,sans-Serif" font-size="10.00">Appl.h</text>
</a>
</g>
</g>
<!-- Node1&#45;&gt;Node14 -->
<g id="edge16_Node000001_Node000014" class="edge">
<title>Node1&#45;&gt;Node14</title>
<g id="a_edge16_Node000001_Node000014"><a xlink:title=" ">
<path fill="none" stroke="#63b8ff" d="M476.62,-386.58C476.62,-380.07 476.62,-370.92 476.62,-362.62"/>
<polygon fill="#63b8ff" stroke="#63b8ff" points="480.13,-362.62 476.63,-352.62 473.13,-362.62 480.13,-362.62"/>
</a>
</g>
</g>
<!-- Node4 -->
<g id="Node000004" class="node">
<title>Node4</title>
<g id="a_Node000004"><a xlink:href="_runtime_8h.html" target="_top" xlink:title=" ">
<polygon fill="white" stroke="#666666" points="441.12,-74.5 380.12,-74.5 380.12,-55.25 441.12,-55.25 441.12,-74.5"/>
<text xml:space="preserve" text-anchor="middle" x="410.62" y="-61" font-family="Helvetica,sans-Serif" font-size="10.00">Runtime.h</text>
</a>
</g>
</g>
<!-- Node3&#45;&gt;Node4 -->
<g id="edge3_Node000003_Node000004" class="edge">
<title>Node3&#45;&gt;Node4</title>
<g id="a_edge3_Node000003_Node000004"><a xlink:title=" ">
<path fill="none" stroke="#63b8ff" d="M667.21,-220.56C665.64,-197.72 658.05,-137.67 621.62,-110.5 595.34,-90.89 506.26,-77.23 452.61,-70.55"/>
<polygon fill="#63b8ff" stroke="#63b8ff" points="453.26,-67.1 442.91,-69.38 452.42,-74.05 453.26,-67.1"/>
</a>
</g>
</g>
<!-- Node8 -->
<g id="Node000008" class="node">
<title>Node8</title>
<g id="a_Node000008"><a xlink:title=" ">
<polygon fill="#e0e0e0" stroke="#999999" points="756.62,-185 698.62,-185 698.62,-165.75 756.62,-165.75 756.62,-185"/>
<text xml:space="preserve" text-anchor="middle" x="727.62" y="-171.5" font-family="Helvetica,sans-Serif" font-size="10.00">functional</text>
</a>
</g>
</g>
<!-- Node3&#45;&gt;Node8 -->
<g id="edge7_Node000003_Node000008" class="edge">
<title>Node3&#45;&gt;Node8</title>
<g id="a_edge7_Node000003_Node000008"><a xlink:title=" ">
<path fill="none" stroke="#63b8ff" d="M677.8,-220.59C686.39,-212.97 698.89,-201.87 709.23,-192.7"/>
<polygon fill="#63b8ff" stroke="#63b8ff" points="711.31,-195.54 716.47,-186.28 706.66,-190.3 711.31,-195.54"/>
</a>
</g>
</g>
<!-- Node9 -->
<g id="Node000009" class="node">
<title>Node9</title>
<g id="a_Node000009"><a xlink:title=" ">
<polygon fill="#e0e0e0" stroke="#999999" points="376.12,-129.75 333.12,-129.75 333.12,-110.5 376.12,-110.5 376.12,-129.75"/>
<text xml:space="preserve" text-anchor="middle" x="354.62" y="-116.25" font-family="Helvetica,sans-Serif" font-size="10.00">vector</text>
</a>
</g>
</g>
<!-- Node3&#45;&gt;Node9 -->
<g id="edge8_Node000003_Node000009" class="edge">
<title>Node3&#45;&gt;Node9</title>
<g id="a_edge8_Node000003_Node000009"><a xlink:title=" ">
<path fill="none" stroke="#63b8ff" d="M638.67,-220.5C610.87,-211.67 567.76,-197.78 530.62,-185 480.29,-167.67 422.32,-146.37 387.09,-133.28"/>
<polygon fill="#63b8ff" stroke="#63b8ff" points="388.5,-130.07 377.91,-129.85 386.06,-136.63 388.5,-130.07"/>
</a>
</g>
</g>
<!-- Node10 -->
<g id="Node000010" class="node">
<title>Node10</title>
<g id="a_Node000010"><a xlink:title=" ">
<polygon fill="#e0e0e0" stroke="#999999" points="816.75,-185 774.5,-185 774.5,-165.75 816.75,-165.75 816.75,-185"/>
<text xml:space="preserve" text-anchor="middle" x="795.62" y="-171.5" font-family="Helvetica,sans-Serif" font-size="10.00">queue</text>
</a>
</g>
</g>
<!-- Node3&#45;&gt;Node10 -->
<g id="edge9_Node000003_Node000010" class="edge">
<title>Node3&#45;&gt;Node10</title>
<g id="a_edge9_Node000003_Node000010"><a xlink:title=" ">
<path fill="none" stroke="#63b8ff" d="M689.34,-220.59C709.78,-212.09 740.64,-199.25 763.85,-189.59"/>
<polygon fill="#63b8ff" stroke="#63b8ff" points="764.95,-192.93 772.83,-185.86 762.26,-186.47 764.95,-192.93"/>
</a>
</g>
</g>
<!-- Node11 -->
<g id="Node000011" class="node">
<title>Node11</title>
<g id="a_Node000011"><a xlink:href="_named_value_table_8h.html" target="_top" xlink:title=" ">
<polygon fill="white" stroke="#666666" points="642.12,-185 539.12,-185 539.12,-165.75 642.12,-165.75 642.12,-185"/>
<text xml:space="preserve" text-anchor="middle" x="590.62" y="-171.5" font-family="Helvetica,sans-Serif" font-size="10.00">NamedValueTable.h</text>
</a>
</g>
</g>
<!-- Node3&#45;&gt;Node11 -->
<g id="edge10_Node000003_Node000011" class="edge">
<title>Node3&#45;&gt;Node11</title>
<g id="a_edge10_Node000003_Node000011"><a xlink:title=" ">
<path fill="none" stroke="#63b8ff" d="M654.56,-220.59C643.17,-212.71 626.4,-201.11 612.89,-191.77"/>
<polygon fill="#63b8ff" stroke="#63b8ff" points="615.21,-189.12 605,-186.31 611.23,-194.88 615.21,-189.12"/>
</a>
</g>
</g>
<!-- Node13 -->
<g id="Node000013" class="node">
<title>Node13</title>
<g id="a_Node000013"><a xlink:href="_development_helper_8h.html" target="_top" xlink:title=" ">
<polygon fill="white" stroke="#666666" points="899.5,-129.75 789.75,-129.75 789.75,-110.5 899.5,-110.5 899.5,-129.75"/>
<text xml:space="preserve" text-anchor="middle" x="844.62" y="-116.25" font-family="Helvetica,sans-Serif" font-size="10.00">DevelopmentHelper.h</text>
</a>
</g>
</g>
<!-- Node3&#45;&gt;Node13 -->
<g id="edge15_Node000003_Node000013" class="edge">
<title>Node3&#45;&gt;Node13</title>
<g id="a_edge15_Node000003_Node000013"><a xlink:title=" ">
<path fill="none" stroke="#63b8ff" d="M709.39,-228.58C744.86,-225.45 794.78,-215.42 825.62,-185 837.23,-173.56 841.82,-155.36 843.59,-141.32"/>
<polygon fill="#63b8ff" stroke="#63b8ff" points="847.08,-141.66 844.43,-131.4 840.1,-141.07 847.08,-141.66"/>
</a>
</g>
</g>
<!-- Node5 -->
<g id="Node000005" class="node">
<title>Node5</title>
<g id="a_Node000005"><a xlink:title=" ">
<polygon fill="#e0e0e0" stroke="#999999" points="369.75,-19.25 321.5,-19.25 321.5,0 369.75,0 369.75,-19.25"/>
<text xml:space="preserve" text-anchor="middle" x="345.62" y="-5.75" font-family="Helvetica,sans-Serif" font-size="10.00">string.h</text>
</a>
</g>
</g>
<!-- Node4&#45;&gt;Node5 -->
<g id="edge4_Node000004_Node000005" class="edge">
<title>Node4&#45;&gt;Node5</title>
<g id="a_edge4_Node000004_Node000005"><a xlink:title=" ">
<path fill="none" stroke="#63b8ff" d="M399.6,-54.84C390.2,-47.15 376.48,-35.9 365.22,-26.68"/>
<polygon fill="#63b8ff" stroke="#63b8ff" points="367.61,-24.11 357.66,-20.48 363.18,-29.53 367.61,-24.11"/>
</a>
</g>
</g>
<!-- Node6 -->
<g id="Node000006" class="node">
<title>Node6</title>
<g id="a_Node000006"><a xlink:title=" ">
<polygon fill="#e0e0e0" stroke="#999999" points="433.25,-19.25 388,-19.25 388,0 433.25,0 433.25,-19.25"/>
<text xml:space="preserve" text-anchor="middle" x="410.62" y="-5.75" font-family="Helvetica,sans-Serif" font-size="10.00">chrono</text>
</a>
</g>
</g>
<!-- Node4&#45;&gt;Node6 -->
<g id="edge5_Node000004_Node000006" class="edge">
<title>Node4&#45;&gt;Node6</title>
<g id="a_edge5_Node000004_Node000006"><a xlink:title=" ">
<path fill="none" stroke="#63b8ff" d="M410.62,-55.08C410.62,-48.57 410.62,-39.42 410.62,-31.12"/>
<polygon fill="#63b8ff" stroke="#63b8ff" points="414.13,-31.12 410.63,-21.12 407.13,-31.12 414.13,-31.12"/>
</a>
</g>
</g>
<!-- Node7 -->
<g id="Node000007" class="node">
<title>Node7</title>
<g id="a_Node000007"><a xlink:title=" ">
<polygon fill="#e0e0e0" stroke="#999999" points="504.38,-19.25 450.88,-19.25 450.88,0 504.38,0 504.38,-19.25"/>
<text xml:space="preserve" text-anchor="middle" x="477.62" y="-5.75" font-family="Helvetica,sans-Serif" font-size="10.00">iostream</text>
</a>
</g>
</g>
<!-- Node4&#45;&gt;Node7 -->
<g id="edge6_Node000004_Node000007" class="edge">
<title>Node4&#45;&gt;Node7</title>
<g id="a_edge6_Node000004_Node000007"><a xlink:title=" ">
<path fill="none" stroke="#63b8ff" d="M421.99,-54.84C431.67,-47.15 445.82,-35.9 457.43,-26.68"/>
<polygon fill="#63b8ff" stroke="#63b8ff" points="459.59,-29.43 465.24,-20.47 455.24,-23.95 459.59,-29.43"/>
</a>
</g>
</g>
<!-- Node11&#45;&gt;Node9 -->
<g id="edge11_Node000011_Node000009" class="edge">
<title>Node11&#45;&gt;Node9</title>
<g id="a_edge11_Node000011_Node000009"><a xlink:title=" ">
<path fill="none" stroke="#63b8ff" d="M550.32,-165.28C504.36,-154.91 430.07,-138.15 387.47,-128.54"/>
<polygon fill="#63b8ff" stroke="#63b8ff" points="388.34,-125.14 377.82,-126.36 386.8,-131.97 388.34,-125.14"/>
</a>
</g>
</g>
<!-- Node12 -->
<g id="Node000012" class="node">
<title>Node12</title>
<g id="a_Node000012"><a xlink:href="_l_s_c_utils_8h.html" target="_top" xlink:title=" ">
<polygon fill="white" stroke="#666666" points="612.62,-129.75 548.62,-129.75 548.62,-110.5 612.62,-110.5 612.62,-129.75"/>
<text xml:space="preserve" text-anchor="middle" x="580.62" y="-116.25" font-family="Helvetica,sans-Serif" font-size="10.00">LSCUtils.h</text>
</a>
</g>
</g>
<!-- Node11&#45;&gt;Node12 -->
<g id="edge12_Node000011_Node000012" class="edge">
<title>Node11&#45;&gt;Node12</title>
<g id="a_edge12_Node000011_Node000012"><a xlink:title=" ">
<path fill="none" stroke="#63b8ff" d="M588.97,-165.58C587.74,-158.99 585.99,-149.71 584.42,-141.32"/>
<polygon fill="#63b8ff" stroke="#63b8ff" points="587.88,-140.78 582.59,-131.6 581,-142.07 587.88,-140.78"/>
</a>
</g>
</g>
<!-- Node11&#45;&gt;Node13 -->
<g id="edge14_Node000011_Node000013" class="edge">
<title>Node11&#45;&gt;Node13</title>
<g id="a_edge14_Node000011_Node000013"><a xlink:title=" ">
<path fill="none" stroke="#63b8ff" d="M634,-165.28C677.2,-156.23 743.63,-142.3 790.31,-132.51"/>
<polygon fill="#63b8ff" stroke="#63b8ff" points="790.88,-135.97 799.95,-130.49 789.44,-129.12 790.88,-135.97"/>
</a>
</g>
</g>
<!-- Node12&#45;&gt;Node4 -->
<g id="edge13_Node000012_Node000004" class="edge">
<title>Node12&#45;&gt;Node4</title>
<g id="a_edge13_Node000012_Node000004"><a xlink:title=" ">
<path fill="none" stroke="#63b8ff" d="M551.79,-110.09C523.95,-101.37 481.55,-88.09 450.49,-78.36"/>
<polygon fill="#63b8ff" stroke="#63b8ff" points="451.64,-75.05 441.05,-75.4 449.55,-81.73 451.64,-75.05"/>
</a>
</g>
</g>
<!-- Node14&#45;&gt;Node4 -->
<g id="edge17_Node000014_Node000004" class="edge">
<title>Node14&#45;&gt;Node4</title>
<g id="a_edge17_Node000014_Node000004"><a xlink:title=" ">
<path fill="none" stroke="#63b8ff" d="M482.3,-331.12C494.12,-311.19 519.35,-261.88 507.62,-221 491.64,-165.29 449.16,-110.18 426.07,-83.12"/>
<polygon fill="#63b8ff" stroke="#63b8ff" points="429,-81.15 419.79,-75.91 423.72,-85.75 429,-81.15"/>
</a>
</g>
</g>
<!-- Node14&#45;&gt;Node13 -->
<g id="edge44_Node000014_Node000013" class="edge">
<title>Node14&#45;&gt;Node13</title>
<g id="a_edge44_Node000014_Node000013"><a xlink:title=" ">
<path fill="none" stroke="#63b8ff" d="M498.69,-339.04C565.83,-334.39 767.84,-310.11 845.62,-185 853.7,-172.02 852.79,-154.5 850.23,-141.1"/>
<polygon fill="#63b8ff" stroke="#63b8ff" points="853.7,-140.57 847.98,-131.66 846.89,-142.2 853.7,-140.57"/>
</a>
</g>
</g>
<!-- Node15 -->
<g id="Node000015" class="node">
<title>Node15</title>
<g id="a_Node000015"><a xlink:href="_sys_status_8h.html" target="_top" xlink:title=" ">
<polygon fill="white" stroke="#666666" points="173.62,-295.5 103.62,-295.5 103.62,-276.25 173.62,-276.25 173.62,-295.5"/>
<text xml:space="preserve" text-anchor="middle" x="138.62" y="-282" font-family="Helvetica,sans-Serif" font-size="10.00">SysStatus.h</text>
</a>
</g>
</g>
<!-- Node14&#45;&gt;Node15 -->
<g id="edge18_Node000014_Node000015" class="edge">
<title>Node14&#45;&gt;Node15</title>
<g id="a_edge18_Node000014_Node000015"><a xlink:title=" ">
<path fill="none" stroke="#63b8ff" d="M454.36,-333.57C451.43,-332.81 448.47,-332.1 445.62,-331.5 354.22,-312.22 245.76,-298.58 185.3,-291.79"/>
<polygon fill="#63b8ff" stroke="#63b8ff" points="185.7,-288.31 175.38,-290.69 184.93,-295.27 185.7,-288.31"/>
</a>
</g>
</g>
<!-- Node17 -->
<g id="Node000017" class="node">
<title>Node17</title>
<g id="a_Node000017"><a xlink:href="_json_node_8h.html" target="_top" xlink:title=" ">
<polygon fill="white" stroke="#666666" points="444.88,-185 376.38,-185 376.38,-165.75 444.88,-165.75 444.88,-185"/>
<text xml:space="preserve" text-anchor="middle" x="410.62" y="-171.5" font-family="Helvetica,sans-Serif" font-size="10.00">JsonNode.h</text>
</a>
</g>
</g>
<!-- Node14&#45;&gt;Node17 -->
<g id="edge28_Node000014_Node000017" class="edge">
<title>Node14&#45;&gt;Node17</title>
<g id="a_edge28_Node000014_Node000017"><a xlink:title=" ">
<path fill="none" stroke="#63b8ff" d="M473.08,-331.32C462.78,-305.78 432.72,-231.2 418.4,-195.65"/>
<polygon fill="#63b8ff" stroke="#63b8ff" points="421.74,-194.59 414.76,-186.63 415.25,-197.21 421.74,-194.59"/>
</a>
</g>
</g>
<!-- Node20 -->
<g id="Node000020" class="node">
<title>Node20</title>
<g id="a_Node000020"><a xlink:href="_module_interface_8h.html" target="_top" xlink:title="Full Interface for a module and an abstract basic module implementation.">
<polygon fill="white" stroke="#666666" points="398.62,-295.5 304.62,-295.5 304.62,-276.25 398.62,-276.25 398.62,-295.5"/>
<text xml:space="preserve" text-anchor="middle" x="351.62" y="-282" font-family="Helvetica,sans-Serif" font-size="10.00">ModuleInterface.h</text>
</a>
</g>
</g>
<!-- Node14&#45;&gt;Node20 -->
<g id="edge29_Node000014_Node000020" class="edge">
<title>Node14&#45;&gt;Node20</title>
<g id="a_edge29_Node000014_Node000020"><a xlink:title=" ">
<path fill="none" stroke="#63b8ff" d="M455.42,-331.09C435.67,-322.68 405.95,-310.02 383.37,-300.4"/>
<polygon fill="#63b8ff" stroke="#63b8ff" points="384.9,-297.24 374.33,-296.55 382.15,-303.68 384.9,-297.24"/>
</a>
</g>
</g>
<!-- Node23 -->
<g id="Node000023" class="node">
<title>Node23</title>
<g id="a_Node000023"><a xlink:href="_logging_8h.html" target="_top" xlink:title=" ">
<polygon fill="white" stroke="#666666" points="612.62,-295.5 554.62,-295.5 554.62,-276.25 612.62,-276.25 612.62,-295.5"/>
<text xml:space="preserve" text-anchor="middle" x="583.62" y="-282" font-family="Helvetica,sans-Serif" font-size="10.00">Logging.h</text>
</a>
</g>
</g>
<!-- Node14&#45;&gt;Node23 -->
<g id="edge37_Node000014_Node000023" class="edge">
<title>Node14&#45;&gt;Node23</title>
<g id="a_edge37_Node000014_Node000023"><a xlink:title=" ">
<path fill="none" stroke="#63b8ff" d="M494.78,-331.09C511.3,-322.87 535.97,-310.59 555.12,-301.06"/>
<polygon fill="#63b8ff" stroke="#63b8ff" points="556.64,-304.22 564.03,-296.63 553.52,-297.95 556.64,-304.22"/>
</a>
</g>
</g>
<!-- Node25 -->
<g id="Node000025" class="node">
<title>Node25</title>
<g id="a_Node000025"><a xlink:href="_vars_8h.html" target="_top" xlink:title=" ">
<polygon fill="white" stroke="#666666" points="286.5,-295.5 242.75,-295.5 242.75,-276.25 286.5,-276.25 286.5,-295.5"/>
<text xml:space="preserve" text-anchor="middle" x="264.62" y="-282" font-family="Helvetica,sans-Serif" font-size="10.00">Vars.h</text>
</a>
</g>
</g>
<!-- Node14&#45;&gt;Node25 -->
<g id="edge41_Node000014_Node000025" class="edge">
<title>Node14&#45;&gt;Node25</title>
<g id="a_edge41_Node000014_Node000025"><a xlink:title=" ">
<path fill="none" stroke="#63b8ff" d="M454.3,-333.81C451.39,-333.02 448.44,-332.23 445.62,-331.5 382.63,-315.18 363.87,-312.9 297.95,-296.03"/>
<polygon fill="#63b8ff" stroke="#63b8ff" points="298.97,-292.68 288.42,-293.57 297.22,-299.45 298.97,-292.68"/>
</a>
</g>
</g>
<!-- Node15&#45;&gt;Node4 -->
<g id="edge19_Node000015_Node000004" class="edge">
<title>Node15&#45;&gt;Node4</title>
<g id="a_edge19_Node000015_Node000004"><a xlink:title=" ">
<path fill="none" stroke="#63b8ff" d="M143.52,-275.79C155.09,-254.86 185.75,-202.23 220.62,-165.75 248.74,-136.34 258.04,-130.23 293.62,-110.5 317.48,-97.28 346.06,-86.3 369,-78.54"/>
<polygon fill="#63b8ff" stroke="#63b8ff" points="369.92,-81.92 378.32,-75.46 367.73,-75.27 369.92,-81.92"/>
</a>
</g>
</g>
<!-- Node16 -->
<g id="Node000016" class="node">
<title>Node16</title>
<g id="a_Node000016"><a xlink:href="_status_handler_8h.html" target="_top" xlink:title=" ">
<polygon fill="white" stroke="#666666" points="290.5,-240.25 204.75,-240.25 204.75,-221 290.5,-221 290.5,-240.25"/>
<text xml:space="preserve" text-anchor="middle" x="247.62" y="-226.75" font-family="Helvetica,sans-Serif" font-size="10.00">StatusHandler.h</text>
</a>
</g>
</g>
<!-- Node15&#45;&gt;Node16 -->
<g id="edge20_Node000015_Node000016" class="edge">
<title>Node15&#45;&gt;Node16</title>
<g id="a_edge20_Node000015_Node000016"><a xlink:title=" ">
<path fill="none" stroke="#63b8ff" d="M157.12,-275.84C174.03,-267.58 199.31,-255.23 218.86,-245.68"/>
<polygon fill="#63b8ff" stroke="#63b8ff" points="220.24,-248.9 227.68,-241.37 217.16,-242.61 220.24,-248.9"/>
</a>
</g>
</g>
<!-- Node18 -->
<g id="Node000018" class="node">
<title>Node18</title>
<g id="a_Node000018"><a xlink:title=" ">
<polygon fill="#e0e0e0" stroke="#999999" points="110.38,-240.25 68.88,-240.25 68.88,-221 110.38,-221 110.38,-240.25"/>
<text xml:space="preserve" text-anchor="middle" x="89.62" y="-226.75" font-family="Helvetica,sans-Serif" font-size="10.00">Esp.h</text>
</a>
</g>
</g>
<!-- Node15&#45;&gt;Node18 -->
<g id="edge26_Node000015_Node000018" class="edge">
<title>Node15&#45;&gt;Node18</title>
<g id="a_edge26_Node000015_Node000018"><a xlink:title=" ">
<path fill="none" stroke="#63b8ff" d="M130.53,-276.08C123.77,-268.73 113.9,-258.01 105.56,-248.94"/>
<polygon fill="#63b8ff" stroke="#63b8ff" points="108.26,-246.71 98.92,-241.72 103.11,-251.45 108.26,-246.71"/>
</a>
</g>
</g>
<!-- Node19 -->
<g id="Node000019" class="node">
<title>Node19</title>
<g id="a_Node000019"><a xlink:title=" ">
<polygon fill="#e0e0e0" stroke="#999999" points="51.25,-240.25 0,-240.25 0,-221 51.25,-221 51.25,-240.25"/>
<text xml:space="preserve" text-anchor="middle" x="25.62" y="-226.75" font-family="Helvetica,sans-Serif" font-size="10.00">memory</text>
</a>
</g>
</g>
<!-- Node15&#45;&gt;Node19 -->
<g id="edge27_Node000015_Node000019" class="edge">
<title>Node15&#45;&gt;Node19</title>
<g id="a_edge27_Node000015_Node000019"><a xlink:title=" ">
<path fill="none" stroke="#63b8ff" d="M119.46,-275.84C101.84,-267.54 75.47,-255.11 55.16,-245.54"/>
<polygon fill="#63b8ff" stroke="#63b8ff" points="56.8,-242.44 46.26,-241.35 53.81,-248.78 56.8,-242.44"/>
</a>
</g>
</g>
<!-- Node16&#45;&gt;Node4 -->
<g id="edge21_Node000016_Node000004" class="edge">
<title>Node16&#45;&gt;Node4</title>
<g id="a_edge21_Node000016_Node000004"><a xlink:title=" ">
<path fill="none" stroke="#63b8ff" d="M250.42,-220.62C257.56,-198.92 278.44,-143.15 313.62,-110.5 329.3,-95.95 350.55,-85.46 369.16,-78.31"/>
<polygon fill="#63b8ff" stroke="#63b8ff" points="370.11,-81.69 378.33,-75 367.73,-75.11 370.11,-81.69"/>
</a>
</g>
</g>
<!-- Node16&#45;&gt;Node9 -->
<g id="edge25_Node000016_Node000009" class="edge">
<title>Node16&#45;&gt;Node9</title>
<g id="a_edge25_Node000016_Node000009"><a xlink:title=" ">
<path fill="none" stroke="#63b8ff" d="M256.38,-220.75C274.17,-202.71 314.81,-161.5 337.86,-138.13"/>
<polygon fill="#63b8ff" stroke="#63b8ff" points="340.16,-140.78 344.68,-131.2 335.17,-135.87 340.16,-140.78"/>
</a>
</g>
</g>
<!-- Node16&#45;&gt;Node17 -->
<g id="edge22_Node000016_Node000017" class="edge">
<title>Node16&#45;&gt;Node17</title>
<g id="a_edge22_Node000016_Node000017"><a xlink:title=" ">
<path fill="none" stroke="#63b8ff" d="M275.28,-220.59C301.85,-211.91 342.26,-198.71 372.01,-188.99"/>
<polygon fill="#63b8ff" stroke="#63b8ff" points="372.98,-192.35 381.4,-185.92 370.81,-185.7 372.98,-192.35"/>
</a>
</g>
</g>
<!-- Node17&#45;&gt;Node4 -->
<g id="edge23_Node000017_Node000004" class="edge">
<title>Node17&#45;&gt;Node4</title>
<g id="a_edge23_Node000017_Node000004"><a xlink:title=" ">
<path fill="none" stroke="#63b8ff" d="M410.62,-165.5C410.62,-148.25 410.62,-109.83 410.62,-86.06"/>
<polygon fill="#63b8ff" stroke="#63b8ff" points="414.13,-86.39 410.63,-76.39 407.13,-86.39 414.13,-86.39"/>
</a>
</g>
</g>
<!-- Node17&#45;&gt;Node9 -->
<g id="edge24_Node000017_Node000009" class="edge">
<title>Node17&#45;&gt;Node9</title>
<g id="a_edge24_Node000017_Node000009"><a xlink:title=" ">
<path fill="none" stroke="#63b8ff" d="M401.13,-165.34C393.19,-157.8 381.68,-146.85 372.09,-137.73"/>
<polygon fill="#63b8ff" stroke="#63b8ff" points="374.74,-135.42 365.08,-131.07 369.92,-140.49 374.74,-135.42"/>
</a>
</g>
</g>
<!-- Node20&#45;&gt;Node3 -->
<g id="edge35_Node000020_Node000003" class="edge">
<title>Node20&#45;&gt;Node3</title>
<g id="a_edge35_Node000020_Node000003"><a xlink:title=" ">
<path fill="none" stroke="#63b8ff" d="M398.72,-277.04C449.61,-268.56 533.4,-254.56 614.92,-240.7"/>
<polygon fill="#63b8ff" stroke="#63b8ff" points="615.12,-244.22 624.39,-239.09 613.95,-237.32 615.12,-244.22"/>
</a>
</g>
</g>
<!-- Node20&#45;&gt;Node16 -->
<g id="edge34_Node000020_Node000016" class="edge">
<title>Node20&#45;&gt;Node16</title>
<g id="a_edge34_Node000020_Node000016"><a xlink:title=" ">
<path fill="none" stroke="#63b8ff" d="M333.98,-275.84C318,-267.66 294.17,-255.46 275.59,-245.94"/>
<polygon fill="#63b8ff" stroke="#63b8ff" points="277.2,-242.83 266.7,-241.39 274.01,-249.07 277.2,-242.83"/>
</a>
</g>
</g>
<!-- Node21 -->
<g id="Node000021" class="node">
<title>Node21</title>
<g id="a_Node000021"><a xlink:href="_config_handler_8h.html" target="_top" xlink:title=" ">
<polygon fill="white" stroke="#666666" points="394.5,-240.25 308.75,-240.25 308.75,-221 394.5,-221 394.5,-240.25"/>
<text xml:space="preserve" text-anchor="middle" x="351.62" y="-226.75" font-family="Helvetica,sans-Serif" font-size="10.00">ConfigHandler.h</text>
</a>
</g>
</g>
<!-- Node20&#45;&gt;Node21 -->
<g id="edge30_Node000020_Node000021" class="edge">
<title>Node20&#45;&gt;Node21</title>
<g id="a_edge30_Node000020_Node000021"><a xlink:title=" ">
<path fill="none" stroke="#63b8ff" d="M351.62,-276.08C351.62,-269.57 351.62,-260.42 351.62,-252.12"/>
<polygon fill="#63b8ff" stroke="#63b8ff" points="355.13,-252.12 351.63,-242.12 348.13,-252.12 355.13,-252.12"/>
</a>
</g>
</g>
<!-- Node22 -->
<g id="Node000022" class="node">
<title>Node22</title>
<g id="a_Node000022"><a xlink:href="_msgs_8h.html" target="_top" xlink:title=" ">
<polygon fill="white" stroke="#666666" points="498.75,-240.25 450.5,-240.25 450.5,-221 498.75,-221 498.75,-240.25"/>
<text xml:space="preserve" text-anchor="middle" x="474.62" y="-226.75" font-family="Helvetica,sans-Serif" font-size="10.00">Msgs.h</text>
</a>
</g>
</g>
<!-- Node20&#45;&gt;Node22 -->
<g id="edge36_Node000020_Node000022" class="edge">
<title>Node20&#45;&gt;Node22</title>
<g id="a_edge36_Node000020_Node000022"><a xlink:title=" ">
<path fill="none" stroke="#63b8ff" d="M372.49,-275.84C391.93,-267.43 421.17,-254.77 443.39,-245.15"/>
<polygon fill="#63b8ff" stroke="#63b8ff" points="444.48,-248.49 452.27,-241.3 441.7,-242.06 444.48,-248.49"/>
</a>
</g>
</g>
<!-- Node21&#45;&gt;Node4 -->
<g id="edge31_Node000021_Node000004" class="edge">
<title>Node21&#45;&gt;Node4</title>
<g id="a_edge31_Node000021_Node000004"><a xlink:title=" ">
<path fill="none" stroke="#63b8ff" d="M345.36,-220.54C331.76,-199.59 302.49,-146.93 324.62,-110.5 334.54,-94.19 352.55,-83.57 369.55,-76.81"/>
<polygon fill="#63b8ff" stroke="#63b8ff" points="370.26,-80.27 378.49,-73.58 367.89,-73.68 370.26,-80.27"/>
</a>
</g>
</g>
<!-- Node21&#45;&gt;Node9 -->
<g id="edge33_Node000021_Node000009" class="edge">
<title>Node21&#45;&gt;Node9</title>
<g id="a_edge33_Node000021_Node000009"><a xlink:title=" ">
<path fill="none" stroke="#63b8ff" d="M351.87,-220.75C352.35,-203.5 353.41,-165.08 354.07,-141.31"/>
<polygon fill="#63b8ff" stroke="#63b8ff" points="357.56,-141.73 354.33,-131.64 350.56,-141.54 357.56,-141.73"/>
</a>
</g>
</g>
<!-- Node21&#45;&gt;Node17 -->
<g id="edge32_Node000021_Node000017" class="edge">
<title>Node21&#45;&gt;Node17</title>
<g id="a_edge32_Node000021_Node000017"><a xlink:title=" ">
<path fill="none" stroke="#63b8ff" d="M361.63,-220.59C369.99,-213.05 382.12,-202.1 392.23,-192.98"/>
<polygon fill="#63b8ff" stroke="#63b8ff" points="394.56,-195.59 399.64,-186.29 389.87,-190.39 394.56,-195.59"/>
</a>
</g>
</g>
<!-- Node23&#45;&gt;Node3 -->
<g id="edge39_Node000023_Node000003" class="edge">
<title>Node23&#45;&gt;Node3</title>
<g id="a_edge39_Node000023_Node000003"><a xlink:title=" ">
<path fill="none" stroke="#63b8ff" d="M597.87,-275.84C610.42,-267.89 628.96,-256.14 643.77,-246.75"/>
<polygon fill="#63b8ff" stroke="#63b8ff" points="645.46,-249.82 652.03,-241.51 641.71,-243.91 645.46,-249.82"/>
</a>
</g>
</g>
<!-- Node23&#45;&gt;Node22 -->
<g id="edge40_Node000023_Node000022" class="edge">
<title>Node23&#45;&gt;Node22</title>
<g id="a_edge40_Node000023_Node000022"><a xlink:title=" ">
<path fill="none" stroke="#63b8ff" d="M565.13,-275.84C548.22,-267.58 522.94,-255.23 503.39,-245.68"/>
<polygon fill="#63b8ff" stroke="#63b8ff" points="505.09,-242.61 494.57,-241.37 502.01,-248.9 505.09,-242.61"/>
</a>
</g>
</g>
<!-- Node24 -->
<g id="Node000024" class="node">
<title>Node24</title>
<g id="a_Node000024"><a xlink:title=" ">
<polygon fill="#e0e0e0" stroke="#999999" points="608.25,-240.25 557,-240.25 557,-221 608.25,-221 608.25,-240.25"/>
<text xml:space="preserve" text-anchor="middle" x="582.62" y="-226.75" font-family="Helvetica,sans-Serif" font-size="10.00">stdarg.h</text>
</a>
</g>
</g>
<!-- Node23&#45;&gt;Node24 -->
<g id="edge38_Node000023_Node000024" class="edge">
<title>Node23&#45;&gt;Node24</title>
<g id="a_edge38_Node000023_Node000024"><a xlink:title=" ">
<path fill="none" stroke="#63b8ff" d="M583.46,-276.08C583.34,-269.57 583.17,-260.42 583.01,-252.12"/>
<polygon fill="#63b8ff" stroke="#63b8ff" points="586.51,-252.05 582.82,-242.12 579.51,-252.19 586.51,-252.05"/>
</a>
</g>
</g>
<!-- Node25&#45;&gt;Node9 -->
<g id="edge43_Node000025_Node000009" class="edge">
<title>Node25&#45;&gt;Node9</title>
<g id="a_edge43_Node000025_Node000009"><a xlink:title=" ">
<path fill="none" stroke="#63b8ff" d="M242.39,-276.51C217.44,-265.72 182.12,-245.43 195.62,-221 222.47,-172.44 283.9,-144.31 322.06,-130.9"/>
<polygon fill="#63b8ff" stroke="#63b8ff" points="322.82,-134.33 331.19,-127.83 320.6,-127.7 322.82,-134.33"/>
</a>
</g>
</g>
<!-- Node25&#45;&gt;Node21 -->
<g id="edge42_Node000025_Node000021" class="edge">
<title>Node25&#45;&gt;Node21</title>
<g id="a_edge42_Node000025_Node000021"><a xlink:title=" ">
<path fill="none" stroke="#63b8ff" d="M279.38,-275.84C292.51,-267.81 311.95,-255.91 327.36,-246.48"/>
<polygon fill="#63b8ff" stroke="#63b8ff" points="328.8,-249.7 335.5,-241.49 325.15,-243.73 328.8,-249.7"/>
</a>
</g>
</g>
</g>
</svg>
