<?xml version="1.0" encoding="UTF-8" standalone="no"?>
<!DOCTYPE svg PUBLIC "-//W3C//DTD SVG 1.1//EN"
 "http://www.w3.org/Graphics/SVG/1.1/DTD/svg11.dtd">
<!-- Generated by graphviz version 15.1.0 (20260618.0150)
 -->
<!-- Title: include/MQTTController.h Pages: 1 -->
<svg width="641pt" height="414pt"
 viewBox="0.00 0.00 641.00 414.00" xmlns="http://www.w3.org/2000/svg" xmlns:xlink="http://www.w3.org/1999/xlink">
<g id="graph0" class="graph" transform="scale(1 1) rotate(0) translate(4 410)">
<title>include/MQTTController.h</title>
<!-- Node1 -->
<g id="Node000001" class="node">
<title>Node1</title>
<g id="a_Node000001"><a xlink:title=" ">
<polygon fill="#999999" stroke="#666666" points="526.14,-406 399.14,-406 399.14,-386.75 526.14,-386.75 526.14,-406"/>
<text xml:space="preserve" text-anchor="middle" x="462.64" y="-392.5" font-family="Helvetica,sans-Serif" font-size="10.00">include/MQTTController.h</text>
</a>
</g>
</g>
<!-- Node2 -->
<g id="Node000002" class="node">
<title>Node2</title>
<g id="a_Node000002"><a xlink:href="_runtime_8h.html" target="_top" xlink:title=" ">
<polygon fill="white" stroke="#666666" points="467.14,-74.5 406.14,-74.5 406.14,-55.25 467.14,-55.25 467.14,-74.5"/>
<text xml:space="preserve" text-anchor="middle" x="436.64" y="-61" font-family="Helvetica,sans-Serif" font-size="10.00">Runtime.h</text>
</a>
</g>
</g>
<!-- Node1&#45;&gt;Node2 -->
<g id="edge1_Node000001_Node000002" class="edge">
<title>Node1&#45;&gt;Node2</title>
<g id="a_edge1_Node000001_Node000002"><a xlink:title=" ">
<path fill="none" stroke="#63b8ff" d="M509.99,-386.35C560.29,-373.7 632.64,-345.35 632.64,-286.88 632.64,-286.88 632.64,-286.88 632.64,-174.38 632.64,-104.51 536.14,-79.27 478.56,-70.43"/>
<polygon fill="#63b8ff" stroke="#63b8ff" points="479.15,-66.98 468.76,-69.04 478.17,-73.91 479.15,-66.98"/>
</a>
</g>
</g>
<!-- Node6 -->
<g id="Node000006" class="node">
<title>Node6</title>
<g id="a_Node000006"><a xlink:href="_json_node_8h.html" target="_top" xlink:title=" ">
<polygon fill="white" stroke="#666666" points="80.89,-185 12.39,-185 12.39,-165.75 80.89,-165.75 80.89,-185"/>
<text xml:space="preserve" text-anchor="middle" x="46.64" y="-171.5" font-family="Helvetica,sans-Serif" font-size="10.00">JsonNode.h</text>
</a>
</g>
</g>
<!-- Node1&#45;&gt;Node6 -->
<g id="edge5_Node000001_Node000006" class="edge">
<title>Node1&#45;&gt;Node6</title>
<g id="a_edge5_Node000001_Node000006"><a xlink:title=" ">
<path fill="none" stroke="#63b8ff" d="M398.93,-386.69C353.98,-379.58 292.74,-367.86 240.64,-350.75 130.22,-314.49 66.08,-338.27 3.64,-240.25 -6.93,-223.66 8.85,-205.04 24.19,-192.21"/>
<polygon fill="#63b8ff" stroke="#63b8ff" points="26.02,-195.21 31.77,-186.31 21.73,-189.69 26.02,-195.21"/>
</a>
</g>
</g>
<!-- Node8 -->
<g id="Node000008" class="node">
<title>Node8</title>
<g id="a_Node000008"><a xlink:href="_appl_module_8h.html" target="_top" xlink:title=" ">
<polygon fill="white" stroke="#666666" points="325.26,-350.75 250.01,-350.75 250.01,-331.5 325.26,-331.5 325.26,-350.75"/>
<text xml:space="preserve" text-anchor="middle" x="287.64" y="-337.25" font-family="Helvetica,sans-Serif" font-size="10.00">ApplModule.h</text>
</a>
</g>
</g>
<!-- Node1&#45;&gt;Node8 -->
<g id="edge8_Node000001_Node000008" class="edge">
<title>Node1&#45;&gt;Node8</title>
<g id="a_edge8_Node000001_Node000008"><a xlink:title=" ">
<path fill="none" stroke="#63b8ff" d="M432.95,-386.34C404.16,-377.58 360.27,-364.23 328.25,-354.48"/>
<polygon fill="#63b8ff" stroke="#63b8ff" points="329.5,-351.21 318.92,-351.64 327.47,-357.9 329.5,-351.21"/>
</a>
</g>
</g>
<!-- Node14 -->
<g id="Node000014" class="node">
<title>Node14</title>
<g id="a_Node000014"><a xlink:title=" ">
<polygon fill="#e0e0e0" stroke="#999999" points="566.76,-185 524.51,-185 524.51,-165.75 566.76,-165.75 566.76,-185"/>
<text xml:space="preserve" text-anchor="middle" x="545.64" y="-171.5" font-family="Helvetica,sans-Serif" font-size="10.00">queue</text>
</a>
</g>
</g>
<!-- Node1&#45;&gt;Node14 -->
<g id="edge33_Node000001_Node000014" class="edge">
<title>Node1&#45;&gt;Node14</title>
<g id="a_edge33_Node000001_Node000014"><a xlink:title=" ">
<path fill="none" stroke="#63b8ff" d="M466.02,-386.41C473.5,-366.55 492.04,-317.39 507.64,-276.25 518.2,-248.39 530.46,-216.19 538.14,-196.05"/>
<polygon fill="#63b8ff" stroke="#63b8ff" points="541.34,-197.47 541.63,-186.88 534.8,-194.97 541.34,-197.47"/>
</a>
</g>
</g>
<!-- Node15 -->
<g id="Node000015" class="node">
<title>Node15</title>
<g id="a_Node000015"><a xlink:href="_named_value_table_8h.html" target="_top" xlink:title=" ">
<polygon fill="white" stroke="#666666" points="468.14,-185 365.14,-185 365.14,-165.75 468.14,-165.75 468.14,-185"/>
<text xml:space="preserve" text-anchor="middle" x="416.64" y="-171.5" font-family="Helvetica,sans-Serif" font-size="10.00">NamedValueTable.h</text>
</a>
</g>
</g>
<!-- Node1&#45;&gt;Node15 -->
<g id="edge30_Node000001_Node000015" class="edge">
<title>Node1&#45;&gt;Node15</title>
<g id="a_edge30_Node000001_Node000015"><a xlink:title=" ">
<path fill="none" stroke="#63b8ff" d="M460.78,-386.52C453.99,-354.19 430.43,-242.03 420.79,-196.16"/>
<polygon fill="#63b8ff" stroke="#63b8ff" points="424.26,-195.65 418.78,-186.58 417.41,-197.09 424.26,-195.65"/>
</a>
</g>
</g>
<!-- Node19 -->
<g id="Node000019" class="node">
<title>Node19</title>
<g id="a_Node000019"><a xlink:href="_simple_delay_8h.html" target="_top" xlink:title=" ">
<polygon fill="white" stroke="#666666" points="594.76,-295.5 516.51,-295.5 516.51,-276.25 594.76,-276.25 594.76,-295.5"/>
<text xml:space="preserve" text-anchor="middle" x="555.64" y="-282" font-family="Helvetica,sans-Serif" font-size="10.00">SimpleDelay.h</text>
</a>
</g>
</g>
<!-- Node1&#45;&gt;Node19 -->
<g id="edge31_Node000001_Node000019" class="edge">
<title>Node1&#45;&gt;Node19</title>
<g id="a_edge31_Node000001_Node000019"><a xlink:title=" ">
<path fill="none" stroke="#63b8ff" d="M470.25,-386.5C485.58,-368.61 520.41,-327.97 540.53,-304.5"/>
<polygon fill="#63b8ff" stroke="#63b8ff" points="543.09,-306.9 546.94,-297.03 537.77,-302.34 543.09,-306.9"/>
</a>
</g>
</g>
<!-- Node3 -->
<g id="Node000003" class="node">
<title>Node3</title>
<g id="a_Node000003"><a xlink:title=" ">
<polygon fill="#e0e0e0" stroke="#999999" points="395.76,-19.25 347.51,-19.25 347.51,0 395.76,0 395.76,-19.25"/>
<text xml:space="preserve" text-anchor="middle" x="371.64" y="-5.75" font-family="Helvetica,sans-Serif" font-size="10.00">string.h</text>
</a>
</g>
</g>
<!-- Node2&#45;&gt;Node3 -->
<g id="edge2_Node000002_Node000003" class="edge">
<title>Node2&#45;&gt;Node3</title>
<g id="a_edge2_Node000002_Node000003"><a xlink:title=" ">
<path fill="none" stroke="#63b8ff" d="M425.61,-54.84C416.22,-47.15 402.49,-35.9 391.23,-26.68"/>
<polygon fill="#63b8ff" stroke="#63b8ff" points="393.63,-24.11 383.67,-20.48 389.19,-29.53 393.63,-24.11"/>
</a>
</g>
</g>
<!-- Node4 -->
<g id="Node000004" class="node">
<title>Node4</title>
<g id="a_Node000004"><a xlink:title=" ">
<polygon fill="#e0e0e0" stroke="#999999" points="459.26,-19.25 414.01,-19.25 414.01,0 459.26,0 459.26,-19.25"/>
<text xml:space="preserve" text-anchor="middle" x="436.64" y="-5.75" font-family="Helvetica,sans-Serif" font-size="10.00">chrono</text>
</a>
</g>
</g>
<!-- Node2&#45;&gt;Node4 -->
<g id="edge3_Node000002_Node000004" class="edge">
<title>Node2&#45;&gt;Node4</title>
<g id="a_edge3_Node000002_Node000004"><a xlink:title=" ">
<path fill="none" stroke="#63b8ff" d="M436.64,-55.08C436.64,-48.57 436.64,-39.42 436.64,-31.12"/>
<polygon fill="#63b8ff" stroke="#63b8ff" points="440.14,-31.12 436.64,-21.12 433.14,-31.12 440.14,-31.12"/>
</a>
</g>
</g>
<!-- Node5 -->
<g id="Node000005" class="node">
<title>Node5</title>
<g id="a_Node000005"><a xlink:title=" ">
<polygon fill="#e0e0e0" stroke="#999999" points="530.39,-19.25 476.89,-19.25 476.89,0 530.39,0 530.39,-19.25"/>
<text xml:space="preserve" text-anchor="middle" x="503.64" y="-5.75" font-family="Helvetica,sans-Serif" font-size="10.00">iostream</text>
</a>
</g>
</g>
<!-- Node2&#45;&gt;Node5 -->
<g id="edge4_Node000002_Node000005" class="edge">
<title>Node2&#45;&gt;Node5</title>
<g id="a_edge4_Node000002_Node000005"><a xlink:title=" ">
<path fill="none" stroke="#63b8ff" d="M448,-54.84C457.69,-47.15 471.84,-35.9 483.44,-26.68"/>
<polygon fill="#63b8ff" stroke="#63b8ff" points="485.6,-29.43 491.25,-20.47 481.25,-23.95 485.6,-29.43"/>
</a>
</g>
</g>
<!-- Node6&#45;&gt;Node2 -->
<g id="edge6_Node000006_Node000002" class="edge">
<title>Node6&#45;&gt;Node2</title>
<g id="a_edge6_Node000006_Node000002"><a xlink:title=" ">
<path fill="none" stroke="#63b8ff" d="M55.24,-165.63C69.76,-151.45 100.67,-123.73 132.64,-110.5 220.9,-73.98 334.42,-66.72 394.68,-65.65"/>
<polygon fill="#63b8ff" stroke="#63b8ff" points="394.53,-69.15 404.49,-65.53 394.45,-62.15 394.53,-69.15"/>
</a>
</g>
</g>
<!-- Node7 -->
<g id="Node000007" class="node">
<title>Node7</title>
<g id="a_Node000007"><a xlink:title=" ">
<polygon fill="#e0e0e0" stroke="#999999" points="218.14,-129.75 175.14,-129.75 175.14,-110.5 218.14,-110.5 218.14,-129.75"/>
<text xml:space="preserve" text-anchor="middle" x="196.64" y="-116.25" font-family="Helvetica,sans-Serif" font-size="10.00">vector</text>
</a>
</g>
</g>
<!-- Node6&#45;&gt;Node7 -->
<g id="edge7_Node000006_Node000007" class="edge">
<title>Node6&#45;&gt;Node7</title>
<g id="a_edge7_Node000006_Node000007"><a xlink:title=" ">
<path fill="none" stroke="#63b8ff" d="M72.08,-165.34C97.5,-156.32 136.66,-142.42 164.28,-132.61"/>
<polygon fill="#63b8ff" stroke="#63b8ff" points="165.29,-135.97 173.54,-129.32 162.95,-129.37 165.29,-135.97"/>
</a>
</g>
</g>
<!-- Node9 -->
<g id="Node000009" class="node">
<title>Node9</title>
<g id="a_Node000009"><a xlink:href="_module_interface_8h.html" target="_top" xlink:title="Full Interface for a module and an abstract basic module implementation.">
<polygon fill="white" stroke="#666666" points="272.64,-295.5 178.64,-295.5 178.64,-276.25 272.64,-276.25 272.64,-295.5"/>
<text xml:space="preserve" text-anchor="middle" x="225.64" y="-282" font-family="Helvetica,sans-Serif" font-size="10.00">ModuleInterface.h</text>
</a>
</g>
</g>
<!-- Node8&#45;&gt;Node9 -->
<g id="edge9_Node000008_Node000009" class="edge">
<title>Node8&#45;&gt;Node9</title>
<g id="a_edge9_Node000008_Node000009"><a xlink:title=" ">
<path fill="none" stroke="#63b8ff" d="M277.12,-331.09C268.25,-323.47 255.33,-312.37 244.65,-303.2"/>
<polygon fill="#63b8ff" stroke="#63b8ff" points="247.01,-300.62 237.15,-296.76 242.45,-305.93 247.01,-300.62"/>
</a>
</g>
</g>
<!-- Node10 -->
<g id="Node000010" class="node">
<title>Node10</title>
<g id="a_Node000010"><a xlink:href="_config_handler_8h.html" target="_top" xlink:title=" ">
<polygon fill="white" stroke="#666666" points="268.51,-240.25 182.76,-240.25 182.76,-221 268.51,-221 268.51,-240.25"/>
<text xml:space="preserve" text-anchor="middle" x="225.64" y="-226.75" font-family="Helvetica,sans-Serif" font-size="10.00">ConfigHandler.h</text>
</a>
</g>
</g>
<!-- Node9&#45;&gt;Node10 -->
<g id="edge10_Node000009_Node000010" class="edge">
<title>Node9&#45;&gt;Node10</title>
<g id="a_edge10_Node000009_Node000010"><a xlink:title=" ">
<path fill="none" stroke="#63b8ff" d="M225.64,-276.08C225.64,-269.57 225.64,-260.42 225.64,-252.12"/>
<polygon fill="#63b8ff" stroke="#63b8ff" points="229.14,-252.12 225.64,-242.12 222.14,-252.12 229.14,-252.12"/>
</a>
</g>
</g>
<!-- Node11 -->
<g id="Node000011" class="node">
<title>Node11</title>
<g id="a_Node000011"><a xlink:href="_status_handler_8h.html" target="_top" xlink:title=" ">
<polygon fill="white" stroke="#666666" points="98.51,-240.25 12.76,-240.25 12.76,-221 98.51,-221 98.51,-240.25"/>
<text xml:space="preserve" text-anchor="middle" x="55.64" y="-226.75" font-family="Helvetica,sans-Serif" font-size="10.00">StatusHandler.h</text>
</a>
</g>
</g>
<!-- Node9&#45;&gt;Node11 -->
<g id="edge14_Node000009_Node000011" class="edge">
<title>Node9&#45;&gt;Node11</title>
<g id="a_edge14_Node000009_Node000011"><a xlink:title=" ">
<path fill="none" stroke="#63b8ff" d="M196.8,-275.84C168.96,-267.12 126.56,-253.84 95.5,-244.11"/>
<polygon fill="#63b8ff" stroke="#63b8ff" points="96.65,-240.8 86.06,-241.15 94.56,-247.48 96.65,-240.8"/>
</a>
</g>
</g>
<!-- Node12 -->
<g id="Node000012" class="node">
<title>Node12</title>
<g id="a_Node000012"><a xlink:href="_event_handler_8h.html" target="_top" xlink:title=" ">
<polygon fill="white" stroke="#666666" points="378.01,-240.25 295.26,-240.25 295.26,-221 378.01,-221 378.01,-240.25"/>
<text xml:space="preserve" text-anchor="middle" x="336.64" y="-226.75" font-family="Helvetica,sans-Serif" font-size="10.00">EventHandler.h</text>
</a>
</g>
</g>
<!-- Node9&#45;&gt;Node12 -->
<g id="edge18_Node000009_Node000012" class="edge">
<title>Node9&#45;&gt;Node12</title>
<g id="a_edge18_Node000009_Node000012"><a xlink:title=" ">
<path fill="none" stroke="#63b8ff" d="M244.47,-275.84C261.69,-267.58 287.44,-255.23 307.35,-245.68"/>
<polygon fill="#63b8ff" stroke="#63b8ff" points="308.85,-248.84 316.35,-241.36 305.82,-242.53 308.85,-248.84"/>
</a>
</g>
</g>
<!-- Node18 -->
<g id="Node000018" class="node">
<title>Node18</title>
<g id="a_Node000018"><a xlink:href="_msgs_8h.html" target="_top" xlink:title=" ">
<polygon fill="white" stroke="#666666" points="164.76,-240.25 116.51,-240.25 116.51,-221 164.76,-221 164.76,-240.25"/>
<text xml:space="preserve" text-anchor="middle" x="140.64" y="-226.75" font-family="Helvetica,sans-Serif" font-size="10.00">Msgs.h</text>
</a>
</g>
</g>
<!-- Node9&#45;&gt;Node18 -->
<g id="edge29_Node000009_Node000018" class="edge">
<title>Node9&#45;&gt;Node18</title>
<g id="a_edge29_Node000009_Node000018"><a xlink:title=" ">
<path fill="none" stroke="#63b8ff" d="M211.22,-275.84C198.52,-267.89 179.76,-256.14 164.78,-246.75"/>
<polygon fill="#63b8ff" stroke="#63b8ff" points="166.74,-243.85 156.41,-241.51 163.03,-249.78 166.74,-243.85"/>
</a>
</g>
</g>
<!-- Node10&#45;&gt;Node2 -->
<g id="edge11_Node000010_Node000002" class="edge">
<title>Node10&#45;&gt;Node2</title>
<g id="a_edge11_Node000010_Node000002"><a xlink:title=" ">
<path fill="none" stroke="#63b8ff" d="M214.71,-220.72C190.22,-199.71 135.37,-146.16 165.64,-110.5 194.51,-76.48 326.03,-68.35 394.66,-66.44"/>
<polygon fill="#63b8ff" stroke="#63b8ff" points="394.49,-69.95 404.4,-66.2 394.32,-62.95 394.49,-69.95"/>
</a>
</g>
</g>
<!-- Node10&#45;&gt;Node6 -->
<g id="edge12_Node000010_Node000006" class="edge">
<title>Node10&#45;&gt;Node6</title>
<g id="a_edge12_Node000010_Node000006"><a xlink:title=" ">
<path fill="none" stroke="#63b8ff" d="M195.27,-220.59C165.83,-211.83 120.93,-198.48 88.18,-188.73"/>
<polygon fill="#63b8ff" stroke="#63b8ff" points="89.18,-185.38 78.6,-185.88 87.19,-192.09 89.18,-185.38"/>
</a>
</g>
</g>
<!-- Node10&#45;&gt;Node7 -->
<g id="edge13_Node000010_Node000007" class="edge">
<title>Node10&#45;&gt;Node7</title>
<g id="a_edge13_Node000010_Node000007"><a xlink:title=" ">
<path fill="none" stroke="#63b8ff" d="M221.63,-220.56C217.83,-211.65 212.19,-197.61 208.64,-185 204.55,-170.5 201.46,-153.75 199.44,-141.05"/>
<polygon fill="#63b8ff" stroke="#63b8ff" points="202.94,-140.79 198.01,-131.41 196.02,-141.82 202.94,-140.79"/>
</a>
</g>
</g>
<!-- Node11&#45;&gt;Node2 -->
<g id="edge15_Node000011_Node000002" class="edge">
<title>Node11&#45;&gt;Node2</title>
<g id="a_edge15_Node000011_Node000002"><a xlink:title=" ">
<path fill="none" stroke="#63b8ff" d="M38.94,-220.63C19.48,-208.88 -8.55,-187.28 3.64,-165.75 27.13,-124.24 50.6,-126.2 95.64,-110.5 198.87,-74.51 328.88,-67.17 394.55,-65.91"/>
<polygon fill="#63b8ff" stroke="#63b8ff" points="394.58,-69.41 404.52,-65.77 394.47,-62.42 394.58,-69.41"/>
</a>
</g>
</g>
<!-- Node11&#45;&gt;Node6 -->
<g id="edge16_Node000011_Node000006" class="edge">
<title>Node11&#45;&gt;Node6</title>
<g id="a_edge16_Node000011_Node000006"><a xlink:title=" ">
<path fill="none" stroke="#63b8ff" d="M54.15,-220.83C53.04,-214.24 51.47,-204.96 50.05,-196.57"/>
<polygon fill="#63b8ff" stroke="#63b8ff" points="53.53,-196.13 48.41,-186.85 46.62,-197.3 53.53,-196.13"/>
</a>
</g>
</g>
<!-- Node11&#45;&gt;Node7 -->
<g id="edge17_Node000011_Node000007" class="edge">
<title>Node11&#45;&gt;Node7</title>
<g id="a_edge17_Node000011_Node000007"><a xlink:title=" ">
<path fill="none" stroke="#63b8ff" d="M67.18,-220.75C91.03,-202.39 146.07,-160.04 176.13,-136.91"/>
<polygon fill="#63b8ff" stroke="#63b8ff" points="177.95,-139.92 183.74,-131.05 173.68,-134.37 177.95,-139.92"/>
</a>
</g>
</g>
<!-- Node12&#45;&gt;Node2 -->
<g id="edge19_Node000012_Node000002" class="edge">
<title>Node12&#45;&gt;Node2</title>
<g id="a_edge19_Node000012_Node000002"><a xlink:title=" ">
<path fill="none" stroke="#63b8ff" d="M378.43,-228.9C411.27,-225.85 455.11,-215.76 477.64,-185 497.2,-158.29 489.66,-141.35 477.64,-110.5 473.47,-99.82 465.43,-90.14 457.55,-82.55"/>
<polygon fill="#63b8ff" stroke="#63b8ff" points="459.89,-79.95 450.09,-75.93 455.25,-85.19 459.89,-79.95"/>
</a>
</g>
</g>
<!-- Node12&#45;&gt;Node7 -->
<g id="edge21_Node000012_Node000007" class="edge">
<title>Node12&#45;&gt;Node7</title>
<g id="a_edge21_Node000012_Node000007"><a xlink:title=" ">
<path fill="none" stroke="#63b8ff" d="M307.84,-220.54C287.76,-213.21 261.18,-201.4 241.64,-185 226.71,-172.48 214.37,-153.9 206.41,-140.01"/>
<polygon fill="#63b8ff" stroke="#63b8ff" points="209.58,-138.51 201.73,-131.4 203.43,-141.86 209.58,-138.51"/>
</a>
</g>
</g>
<!-- Node13 -->
<g id="Node000013" class="node">
<title>Node13</title>
<g id="a_Node000013"><a xlink:title=" ">
<polygon fill="#e0e0e0" stroke="#999999" points="308.64,-185 250.64,-185 250.64,-165.75 308.64,-165.75 308.64,-185"/>
<text xml:space="preserve" text-anchor="middle" x="279.64" y="-171.5" font-family="Helvetica,sans-Serif" font-size="10.00">functional</text>
</a>
</g>
</g>
<!-- Node12&#45;&gt;Node13 -->
<g id="edge20_Node000012_Node000013" class="edge">
<title>Node12&#45;&gt;Node13</title>
<g id="a_edge20_Node000012_Node000013"><a xlink:title=" ">
<path fill="none" stroke="#63b8ff" d="M326.97,-220.59C318.89,-213.05 307.17,-202.1 297.41,-192.98"/>
<polygon fill="#63b8ff" stroke="#63b8ff" points="299.97,-190.58 290.27,-186.31 295.19,-195.69 299.97,-190.58"/>
</a>
</g>
</g>
<!-- Node12&#45;&gt;Node14 -->
<g id="edge22_Node000012_Node000014" class="edge">
<title>Node12&#45;&gt;Node14</title>
<g id="a_edge22_Node000012_Node000014"><a xlink:title=" ">
<path fill="none" stroke="#63b8ff" d="M372.09,-220.59C411.56,-210.53 474.83,-194.42 513.09,-184.67"/>
<polygon fill="#63b8ff" stroke="#63b8ff" points="513.81,-188.1 522.64,-182.24 512.08,-181.31 513.81,-188.1"/>
</a>
</g>
</g>
<!-- Node12&#45;&gt;Node15 -->
<g id="edge23_Node000012_Node000015" class="edge">
<title>Node12&#45;&gt;Node15</title>
<g id="a_edge23_Node000012_Node000015"><a xlink:title=" ">
<path fill="none" stroke="#63b8ff" d="M350.21,-220.59C362.05,-212.71 379.47,-201.11 393.51,-191.77"/>
<polygon fill="#63b8ff" stroke="#63b8ff" points="395.35,-194.75 401.74,-186.29 391.48,-188.92 395.35,-194.75"/>
</a>
</g>
</g>
<!-- Node17 -->
<g id="Node000017" class="node">
<title>Node17</title>
<g id="a_Node000017"><a xlink:href="_development_helper_8h.html" target="_top" xlink:title=" ">
<polygon fill="white" stroke="#666666" points="386.51,-129.75 276.76,-129.75 276.76,-110.5 386.51,-110.5 386.51,-129.75"/>
<text xml:space="preserve" text-anchor="middle" x="331.64" y="-116.25" font-family="Helvetica,sans-Serif" font-size="10.00">DevelopmentHelper.h</text>
</a>
</g>
</g>
<!-- Node12&#45;&gt;Node17 -->
<g id="edge28_Node000012_Node000017" class="edge">
<title>Node12&#45;&gt;Node17</title>
<g id="a_edge28_Node000012_Node000017"><a xlink:title=" ">
<path fill="none" stroke="#63b8ff" d="M336.23,-220.75C335.43,-203.5 333.66,-165.08 332.57,-141.31"/>
<polygon fill="#63b8ff" stroke="#63b8ff" points="336.08,-141.47 332.12,-131.64 329.09,-141.79 336.08,-141.47"/>
</a>
</g>
</g>
<!-- Node15&#45;&gt;Node7 -->
<g id="edge24_Node000015_Node000007" class="edge">
<title>Node15&#45;&gt;Node7</title>
<g id="a_edge24_Node000015_Node000007"><a xlink:title=" ">
<path fill="none" stroke="#63b8ff" d="M379.32,-165.34C337.25,-155.16 269.52,-138.77 229.42,-129.06"/>
<polygon fill="#63b8ff" stroke="#63b8ff" points="230.42,-125.7 219.87,-126.75 228.77,-132.5 230.42,-125.7"/>
</a>
</g>
</g>
<!-- Node16 -->
<g id="Node000016" class="node">
<title>Node16</title>
<g id="a_Node000016"><a xlink:href="_l_s_c_utils_8h.html" target="_top" xlink:title=" ">
<polygon fill="white" stroke="#666666" points="468.64,-129.75 404.64,-129.75 404.64,-110.5 468.64,-110.5 468.64,-129.75"/>
<text xml:space="preserve" text-anchor="middle" x="436.64" y="-116.25" font-family="Helvetica,sans-Serif" font-size="10.00">LSCUtils.h</text>
</a>
</g>
</g>
<!-- Node15&#45;&gt;Node16 -->
<g id="edge25_Node000015_Node000016" class="edge">
<title>Node15&#45;&gt;Node16</title>
<g id="a_edge25_Node000015_Node000016"><a xlink:title=" ">
<path fill="none" stroke="#63b8ff" d="M419.94,-165.58C422.47,-158.84 426.07,-149.27 429.27,-140.74"/>
<polygon fill="#63b8ff" stroke="#63b8ff" points="432.49,-142.12 432.73,-131.53 425.94,-139.66 432.49,-142.12"/>
</a>
</g>
</g>
<!-- Node15&#45;&gt;Node17 -->
<g id="edge27_Node000015_Node000017" class="edge">
<title>Node15&#45;&gt;Node17</title>
<g id="a_edge27_Node000015_Node000017"><a xlink:title=" ">
<path fill="none" stroke="#63b8ff" d="M402.22,-165.34C389.52,-157.39 370.76,-145.64 355.78,-136.25"/>
<polygon fill="#63b8ff" stroke="#63b8ff" points="357.74,-133.35 347.41,-131.01 354.03,-139.28 357.74,-133.35"/>
</a>
</g>
</g>
<!-- Node16&#45;&gt;Node2 -->
<g id="edge26_Node000016_Node000002" class="edge">
<title>Node16&#45;&gt;Node2</title>
<g id="a_edge26_Node000016_Node000002"><a xlink:title=" ">
<path fill="none" stroke="#63b8ff" d="M436.64,-110.33C436.64,-103.82 436.64,-94.67 436.64,-86.37"/>
<polygon fill="#63b8ff" stroke="#63b8ff" points="440.14,-86.37 436.64,-76.37 433.14,-86.37 440.14,-86.37"/>
</a>
</g>
</g>
<!-- Node19&#45;&gt;Node2 -->
<g id="edge32_Node000019_Node000002" class="edge">
<title>Node19&#45;&gt;Node2</title>
<g id="a_edge32_Node000019_Node000002"><a xlink:title=" ">
<path fill="none" stroke="#63b8ff" d="M560.67,-275.94C571.57,-255.3 594.87,-203.26 575.64,-165.75 553.86,-123.28 504.69,-94.79 471.08,-79.45"/>
<polygon fill="#63b8ff" stroke="#63b8ff" points="472.71,-76.35 462.15,-75.54 469.9,-82.76 472.71,-76.35"/>
</a>
</g>
</g>
</g>
</svg>
