<?xml version="1.0" encoding="UTF-8" standalone="no"?>
<!DOCTYPE svg PUBLIC "-//W3C//DTD SVG 1.1//EN"
 "http://www.w3.org/Graphics/SVG/1.1/DTD/svg11.dtd">
<!-- Generated by graphviz version 15.1.0 (20260618.0150)
 -->
<!-- Title: include/ModuleInterface.h Pages: 1 -->
<svg width="816pt" height="138pt"
 viewBox="0.00 0.00 816.00 138.00" xmlns="http://www.w3.org/2000/svg" xmlns:xlink="http://www.w3.org/1999/xlink">
<g id="graph0" class="graph" transform="scale(1 1) rotate(0) translate(4 133.75)">
<title>include/ModuleInterface.h</title>
<!-- Node1 -->
<g id="Node000001" class="node">
<title>Node1</title>
<g id="a_Node000001"><a xlink:title="Full Interface for a module and an abstract basic module implementation.">
<polygon fill="#999999" stroke="#666666" points="527.5,-129.75 399.75,-129.75 399.75,-110.5 527.5,-110.5 527.5,-129.75"/>
<text xml:space="preserve" text-anchor="middle" x="463.62" y="-116.25" font-family="Helvetica,sans-Serif" font-size="10.00">include/ModuleInterface.h</text>
</a>
</g>
</g>
<!-- Node2 -->
<g id="Node000002" class="node">
<title>Node2</title>
<g id="a_Node000002"><a xlink:href="_appl_8h.html" target="_top" xlink:title="Application Main Class.">
<polygon fill="white" stroke="#666666" points="367.38,-74.5 289.88,-74.5 289.88,-55.25 367.38,-55.25 367.38,-74.5"/>
<text xml:space="preserve" text-anchor="middle" x="328.62" y="-61" font-family="Helvetica,sans-Serif" font-size="10.00">include/Appl.h</text>
</a>
</g>
</g>
<!-- Node1&#45;&gt;Node2 -->
<g id="edge1_Node000001_Node000002" class="edge">
<title>Node1&#45;&gt;Node2</title>
<g id="a_edge1_Node000001_Node000002"><a xlink:title=" ">
<path fill="none" stroke="#63b8ff" d="M430.13,-105.91C405.69,-96.27 373.2,-83.46 351.64,-74.95"/>
<polygon fill="#63b8ff" stroke="#63b8ff" points="428.73,-109.12 439.32,-109.54 431.3,-102.61 428.73,-109.12"/>
</a>
</g>
</g>
<!-- Node7 -->
<g id="Node000007" class="node">
<title>Node7</title>
<g id="a_Node000007"><a xlink:href="_appl_module_8h.html" target="_top" xlink:title=" ">
<polygon fill="white" stroke="#666666" points="654.12,-74.5 545.12,-74.5 545.12,-55.25 654.12,-55.25 654.12,-74.5"/>
<text xml:space="preserve" text-anchor="middle" x="599.62" y="-61" font-family="Helvetica,sans-Serif" font-size="10.00">include/ApplModule.h</text>
</a>
</g>
</g>
<!-- Node1&#45;&gt;Node7 -->
<g id="edge6_Node000001_Node000007" class="edge">
<title>Node1&#45;&gt;Node7</title>
<g id="a_edge6_Node000001_Node000007"><a xlink:title=" ">
<path fill="none" stroke="#63b8ff" d="M497.37,-105.91C521.99,-96.27 554.72,-83.46 576.44,-74.95"/>
<polygon fill="#63b8ff" stroke="#63b8ff" points="496.14,-102.63 488.1,-109.54 498.69,-109.15 496.14,-102.63"/>
</a>
</g>
</g>
<!-- Node3 -->
<g id="Node000003" class="node">
<title>Node3</title>
<g id="a_Node000003"><a xlink:href="_m_d_n_s_controller_8h.html" target="_top" xlink:title="MDNS Controller class definition ESP MDNS controller to handle mDNS responder start/stop on WiFi even...">
<polygon fill="white" stroke="#666666" points="129.25,-19.25 0,-19.25 0,0 129.25,0 129.25,-19.25"/>
<text xml:space="preserve" text-anchor="middle" x="64.62" y="-5.75" font-family="Helvetica,sans-Serif" font-size="10.00">include/MDNSController.h</text>
</a>
</g>
</g>
<!-- Node2&#45;&gt;Node3 -->
<g id="edge2_Node000002_Node000003" class="edge">
<title>Node2&#45;&gt;Node3</title>
<g id="a_edge2_Node000002_Node000003"><a xlink:title=" ">
<path fill="none" stroke="#63b8ff" d="M278.18,-53.7C229.55,-43.89 156.63,-29.18 109.84,-19.74"/>
<polygon fill="#63b8ff" stroke="#63b8ff" points="277.41,-57.11 287.9,-55.66 278.79,-50.25 277.41,-57.11"/>
</a>
</g>
</g>
<!-- Node4 -->
<g id="Node000004" class="node">
<title>Node4</title>
<g id="a_Node000004"><a xlink:href="_n_t_p_handler_8h.html" target="_top" xlink:title=" ">
<polygon fill="white" stroke="#666666" points="258.25,-19.25 147,-19.25 147,0 258.25,0 258.25,-19.25"/>
<text xml:space="preserve" text-anchor="middle" x="202.62" y="-5.75" font-family="Helvetica,sans-Serif" font-size="10.00">include/NTPHandler.h</text>
</a>
</g>
</g>
<!-- Node2&#45;&gt;Node4 -->
<g id="edge3_Node000002_Node000004" class="edge">
<title>Node2&#45;&gt;Node4</title>
<g id="a_edge3_Node000002_Node000004"><a xlink:title=" ">
<path fill="none" stroke="#63b8ff" d="M296.74,-50.4C274.01,-40.79 244.05,-28.13 224.1,-19.7"/>
<polygon fill="#63b8ff" stroke="#63b8ff" points="295.28,-53.58 305.86,-54.25 298.01,-47.14 295.28,-53.58"/>
</a>
</g>
</g>
<!-- Node5 -->
<g id="Node000005" class="node">
<title>Node5</title>
<g id="a_Node000005"><a xlink:href="_web_server_8h.html" target="_top" xlink:title=" ">
<polygon fill="white" stroke="#666666" points="381.25,-19.25 276,-19.25 276,0 381.25,0 381.25,-19.25"/>
<text xml:space="preserve" text-anchor="middle" x="328.62" y="-5.75" font-family="Helvetica,sans-Serif" font-size="10.00">include/WebServer.h</text>
</a>
</g>
</g>
<!-- Node2&#45;&gt;Node5 -->
<g id="edge4_Node000002_Node000005" class="edge">
<title>Node2&#45;&gt;Node5</title>
<g id="a_edge4_Node000002_Node000005"><a xlink:title=" ">
<path fill="none" stroke="#63b8ff" d="M328.62,-43.63C328.62,-35.34 328.62,-26.17 328.62,-19.61"/>
<polygon fill="#63b8ff" stroke="#63b8ff" points="325.13,-43.57 328.63,-53.57 332.13,-43.57 325.13,-43.57"/>
</a>
</g>
</g>
<!-- Node6 -->
<g id="Node000006" class="node">
<title>Node6</title>
<g id="a_Node000006"><a xlink:href="_wi_fi_controller_8h.html" target="_top" xlink:title="WiFi Controller to handle Access Point and Station Mode.">
<polygon fill="white" stroke="#666666" points="518.38,-19.25 398.88,-19.25 398.88,0 518.38,0 518.38,-19.25"/>
<text xml:space="preserve" text-anchor="middle" x="458.62" y="-5.75" font-family="Helvetica,sans-Serif" font-size="10.00">include/WiFiController.h</text>
</a>
</g>
</g>
<!-- Node2&#45;&gt;Node6 -->
<g id="edge5_Node000002_Node000006" class="edge">
<title>Node2&#45;&gt;Node6</title>
<g id="a_edge5_Node000002_Node000006"><a xlink:title=" ">
<path fill="none" stroke="#63b8ff" d="M361.2,-50.53C384.69,-40.91 415.79,-28.17 436.46,-19.7"/>
<polygon fill="#63b8ff" stroke="#63b8ff" points="360.01,-47.24 352.08,-54.27 362.66,-53.72 360.01,-47.24"/>
</a>
</g>
</g>
<!-- Node8 -->
<g id="Node000008" class="node">
<title>Node8</title>
<g id="a_Node000008"><a xlink:href="_battery_measure_8h.html" target="_top" xlink:title=" ">
<polygon fill="white" stroke="#666666" points="663.12,-19.25 536.12,-19.25 536.12,0 663.12,0 663.12,-19.25"/>
<text xml:space="preserve" text-anchor="middle" x="599.62" y="-5.75" font-family="Helvetica,sans-Serif" font-size="10.00">include/BatteryMeasure.h</text>
</a>
</g>
</g>
<!-- Node7&#45;&gt;Node8 -->
<g id="edge7_Node000007_Node000008" class="edge">
<title>Node7&#45;&gt;Node8</title>
<g id="a_edge7_Node000007_Node000008"><a xlink:title=" ">
<path fill="none" stroke="#63b8ff" d="M599.62,-43.63C599.62,-35.34 599.62,-26.17 599.62,-19.61"/>
<polygon fill="#63b8ff" stroke="#63b8ff" points="596.13,-43.57 599.63,-53.57 603.13,-43.57 596.13,-43.57"/>
</a>
</g>
</g>
<!-- Node9 -->
<g id="Node000009" class="node">
<title>Node9</title>
<g id="a_Node000009"><a xlink:href="_m_q_t_t_controller_8h.html" target="_top" xlink:title=" ">
<polygon fill="white" stroke="#666666" points="808.12,-19.25 681.12,-19.25 681.12,0 808.12,0 808.12,-19.25"/>
<text xml:space="preserve" text-anchor="middle" x="744.62" y="-5.75" font-family="Helvetica,sans-Serif" font-size="10.00">include/MQTTController.h</text>
</a>
</g>
</g>
<!-- Node7&#45;&gt;Node9 -->
<g id="edge8_Node000007_Node000009" class="edge">
<title>Node7&#45;&gt;Node9</title>
<g id="a_edge8_Node000007_Node000009"><a xlink:title=" ">
<path fill="none" stroke="#63b8ff" d="M634.89,-50.92C661.22,-41.25 696.54,-28.29 719.91,-19.7"/>
<polygon fill="#63b8ff" stroke="#63b8ff" points="633.82,-47.59 625.64,-54.32 636.24,-54.16 633.82,-47.59"/>
</a>
</g>
</g>
</g>
</svg>
