<?xml version="1.0" encoding="UTF-8" standalone="no"?>
<!DOCTYPE svg PUBLIC "-//W3C//DTD SVG 1.1//EN"
 "http://www.w3.org/Graphics/SVG/1.1/DTD/svg11.dtd">
<!-- Generated by graphviz version 15.1.0 (20260618.0150)
 -->
<!-- Title: include/NTPHandler.h Pages: 1 -->
<svg width="982pt" height="414pt"
 viewBox="0.00 0.00 982.00 414.00" xmlns="http://www.w3.org/2000/svg" xmlns:xlink="http://www.w3.org/1999/xlink">
<g id="graph0" class="graph" transform="scale(1 1) rotate(0) translate(4 410)">
<title>include/NTPHandler.h</title>
<!-- Node1 -->
<g id="Node000001" class="node">
<title>Node1</title>
<g id="a_Node000001"><a xlink:title=" ">
<polygon fill="#999999" stroke="#666666" points="958.5,-406 847.25,-406 847.25,-386.75 958.5,-386.75 958.5,-406"/>
<text xml:space="preserve" text-anchor="middle" x="902.88" y="-392.5" font-family="Helvetica,sans-Serif" font-size="10.00">include/NTPHandler.h</text>
</a>
</g>
</g>
<!-- Node2 -->
<g id="Node000002" class="node">
<title>Node2</title>
<g id="a_Node000002"><a xlink:href="_runtime_8h.html" target="_top" xlink:title=" ">
<polygon fill="white" stroke="#666666" points="632.38,-74.5 571.38,-74.5 571.38,-55.25 632.38,-55.25 632.38,-74.5"/>
<text xml:space="preserve" text-anchor="middle" x="601.88" y="-61" font-family="Helvetica,sans-Serif" font-size="10.00">Runtime.h</text>
</a>
</g>
</g>
<!-- Node1&#45;&gt;Node2 -->
<g id="edge1_Node000001_Node000002" class="edge">
<title>Node1&#45;&gt;Node2</title>
<g id="a_edge1_Node000001_Node000002"><a xlink:title=" ">
<path fill="none" stroke="#63b8ff" d="M902.88,-386.37C902.88,-367.78 902.88,-323.8 902.88,-286.88 902.88,-286.88 902.88,-286.88 902.88,-174.38 902.88,-139.65 887.21,-129.09 857.88,-110.5 822.99,-88.39 707.04,-75.08 643.84,-69.29"/>
<polygon fill="#63b8ff" stroke="#63b8ff" points="644.46,-65.83 634.19,-68.43 643.84,-72.81 644.46,-65.83"/>
</a>
</g>
</g>
<!-- Node6 -->
<g id="Node000006" class="node">
<title>Node6</title>
<g id="a_Node000006"><a xlink:title=" ">
<polygon fill="#e0e0e0" stroke="#999999" points="974.38,-350.75 931.38,-350.75 931.38,-331.5 974.38,-331.5 974.38,-350.75"/>
<text xml:space="preserve" text-anchor="middle" x="952.88" y="-337.25" font-family="Helvetica,sans-Serif" font-size="10.00">time.h</text>
</a>
</g>
</g>
<!-- Node1&#45;&gt;Node6 -->
<g id="edge5_Node000001_Node000006" class="edge">
<title>Node1&#45;&gt;Node6</title>
<g id="a_edge5_Node000001_Node000006"><a xlink:title=" ">
<path fill="none" stroke="#63b8ff" d="M911.13,-386.58C918.04,-379.23 928.1,-368.51 936.61,-359.44"/>
<polygon fill="#63b8ff" stroke="#63b8ff" points="939.11,-361.9 943.4,-352.21 934.01,-357.11 939.11,-361.9"/>
</a>
</g>
</g>
<!-- Node7 -->
<g id="Node000007" class="node">
<title>Node7</title>
<g id="a_Node000007"><a xlink:href="_appl_8h.html" target="_top" xlink:title="Application Main Class.">
<polygon fill="white" stroke="#666666" points="514.75,-350.75 471,-350.75 471,-331.5 514.75,-331.5 514.75,-350.75"/>
<text xml:space="preserve" text-anchor="middle" x="492.88" y="-337.25" font-family="Helvetica,sans-Serif" font-size="10.00">Appl.h</text>
</a>
</g>
</g>
<!-- Node1&#45;&gt;Node7 -->
<g id="edge6_Node000001_Node000007" class="edge">
<title>Node1&#45;&gt;Node7</title>
<g id="a_edge6_Node000001_Node000007"><a xlink:title=" ">
<path fill="none" stroke="#63b8ff" d="M847.15,-388.14C760.64,-376.9 596.65,-355.6 526.3,-346.47"/>
<polygon fill="#63b8ff" stroke="#63b8ff" points="526.93,-343.02 516.56,-345.2 526.03,-349.96 526.93,-343.02"/>
</a>
</g>
</g>
<!-- Node3 -->
<g id="Node000003" class="node">
<title>Node3</title>
<g id="a_Node000003"><a xlink:title=" ">
<polygon fill="#e0e0e0" stroke="#999999" points="561,-19.25 512.75,-19.25 512.75,0 561,0 561,-19.25"/>
<text xml:space="preserve" text-anchor="middle" x="536.88" y="-5.75" font-family="Helvetica,sans-Serif" font-size="10.00">string.h</text>
</a>
</g>
</g>
<!-- Node2&#45;&gt;Node3 -->
<g id="edge2_Node000002_Node000003" class="edge">
<title>Node2&#45;&gt;Node3</title>
<g id="a_edge2_Node000002_Node000003"><a xlink:title=" ">
<path fill="none" stroke="#63b8ff" d="M590.85,-54.84C581.45,-47.15 567.73,-35.9 556.47,-26.68"/>
<polygon fill="#63b8ff" stroke="#63b8ff" points="558.86,-24.11 548.91,-20.48 554.43,-29.53 558.86,-24.11"/>
</a>
</g>
</g>
<!-- Node4 -->
<g id="Node000004" class="node">
<title>Node4</title>
<g id="a_Node000004"><a xlink:title=" ">
<polygon fill="#e0e0e0" stroke="#999999" points="624.5,-19.25 579.25,-19.25 579.25,0 624.5,0 624.5,-19.25"/>
<text xml:space="preserve" text-anchor="middle" x="601.88" y="-5.75" font-family="Helvetica,sans-Serif" font-size="10.00">chrono</text>
</a>
</g>
</g>
<!-- Node2&#45;&gt;Node4 -->
<g id="edge3_Node000002_Node000004" class="edge">
<title>Node2&#45;&gt;Node4</title>
<g id="a_edge3_Node000002_Node000004"><a xlink:title=" ">
<path fill="none" stroke="#63b8ff" d="M601.88,-55.08C601.88,-48.57 601.88,-39.42 601.88,-31.12"/>
<polygon fill="#63b8ff" stroke="#63b8ff" points="605.38,-31.12 601.88,-21.12 598.38,-31.12 605.38,-31.12"/>
</a>
</g>
</g>
<!-- Node5 -->
<g id="Node000005" class="node">
<title>Node5</title>
<g id="a_Node000005"><a xlink:title=" ">
<polygon fill="#e0e0e0" stroke="#999999" points="695.62,-19.25 642.12,-19.25 642.12,0 695.62,0 695.62,-19.25"/>
<text xml:space="preserve" text-anchor="middle" x="668.88" y="-5.75" font-family="Helvetica,sans-Serif" font-size="10.00">iostream</text>
</a>
</g>
</g>
<!-- Node2&#45;&gt;Node5 -->
<g id="edge4_Node000002_Node000005" class="edge">
<title>Node2&#45;&gt;Node5</title>
<g id="a_edge4_Node000002_Node000005"><a xlink:title=" ">
<path fill="none" stroke="#63b8ff" d="M613.24,-54.84C622.92,-47.15 637.07,-35.9 648.68,-26.68"/>
<polygon fill="#63b8ff" stroke="#63b8ff" points="650.84,-29.43 656.49,-20.47 646.49,-23.95 650.84,-29.43"/>
</a>
</g>
</g>
<!-- Node7&#45;&gt;Node2 -->
<g id="edge7_Node000007_Node000002" class="edge">
<title>Node7&#45;&gt;Node2</title>
<g id="a_edge7_Node000007_Node000002"><a xlink:title=" ">
<path fill="none" stroke="#63b8ff" d="M515.03,-338.51C595.12,-332.07 864.88,-304.95 864.88,-231.62 864.88,-231.62 864.88,-231.62 864.88,-174.38 864.88,-80.02 718.43,-66.07 644.1,-65.06"/>
<polygon fill="#63b8ff" stroke="#63b8ff" points="644.35,-61.56 634.33,-65.01 644.31,-68.56 644.35,-61.56"/>
</a>
</g>
</g>
<!-- Node8 -->
<g id="Node000008" class="node">
<title>Node8</title>
<g id="a_Node000008"><a xlink:href="_sys_status_8h.html" target="_top" xlink:title=" ">
<polygon fill="white" stroke="#666666" points="743.88,-295.5 673.88,-295.5 673.88,-276.25 743.88,-276.25 743.88,-295.5"/>
<text xml:space="preserve" text-anchor="middle" x="708.88" y="-282" font-family="Helvetica,sans-Serif" font-size="10.00">SysStatus.h</text>
</a>
</g>
</g>
<!-- Node7&#45;&gt;Node8 -->
<g id="edge8_Node000007_Node000008" class="edge">
<title>Node7&#45;&gt;Node8</title>
<g id="a_edge8_Node000007_Node000008"><a xlink:title=" ">
<path fill="none" stroke="#63b8ff" d="M515.18,-334.63C549.76,-326.1 617.05,-309.51 662.48,-298.31"/>
<polygon fill="#63b8ff" stroke="#63b8ff" points="663.19,-301.74 672.06,-295.95 661.52,-294.95 663.19,-301.74"/>
</a>
</g>
</g>
<!-- Node10 -->
<g id="Node000010" class="node">
<title>Node10</title>
<g id="a_Node000010"><a xlink:href="_json_node_8h.html" target="_top" xlink:title=" ">
<polygon fill="white" stroke="#666666" points="561.12,-185 492.62,-185 492.62,-165.75 561.12,-165.75 561.12,-185"/>
<text xml:space="preserve" text-anchor="middle" x="526.88" y="-171.5" font-family="Helvetica,sans-Serif" font-size="10.00">JsonNode.h</text>
</a>
</g>
</g>
<!-- Node7&#45;&gt;Node10 -->
<g id="edge18_Node000007_Node000010" class="edge">
<title>Node7&#45;&gt;Node10</title>
<g id="a_edge18_Node000007_Node000010"><a xlink:title=" ">
<path fill="none" stroke="#63b8ff" d="M494.7,-331.32C499.98,-305.89 515.36,-231.85 522.78,-196.12"/>
<polygon fill="#63b8ff" stroke="#63b8ff" points="526.12,-197.21 524.73,-186.7 519.27,-195.78 526.12,-197.21"/>
</a>
</g>
</g>
<!-- Node14 -->
<g id="Node000014" class="node">
<title>Node14</title>
<g id="a_Node000014"><a xlink:href="_module_interface_8h.html" target="_top" xlink:title="Full Interface for a module and an abstract basic module implementation.">
<polygon fill="white" stroke="#666666" points="427.88,-295.5 333.88,-295.5 333.88,-276.25 427.88,-276.25 427.88,-295.5"/>
<text xml:space="preserve" text-anchor="middle" x="380.88" y="-282" font-family="Helvetica,sans-Serif" font-size="10.00">ModuleInterface.h</text>
</a>
</g>
</g>
<!-- Node7&#45;&gt;Node14 -->
<g id="edge19_Node000007_Node000014" class="edge">
<title>Node7&#45;&gt;Node14</title>
<g id="a_edge19_Node000007_Node000014"><a xlink:title=" ">
<path fill="none" stroke="#63b8ff" d="M473.88,-331.09C456.42,-322.79 430.28,-310.36 410.15,-300.79"/>
<polygon fill="#63b8ff" stroke="#63b8ff" points="411.87,-297.74 401.33,-296.6 408.86,-304.06 411.87,-297.74"/>
</a>
</g>
</g>
<!-- Node21 -->
<g id="Node000021" class="node">
<title>Node21</title>
<g id="a_Node000021"><a xlink:href="_development_helper_8h.html" target="_top" xlink:title=" ">
<polygon fill="white" stroke="#666666" points="109.75,-129.75 0,-129.75 0,-110.5 109.75,-110.5 109.75,-129.75"/>
<text xml:space="preserve" text-anchor="middle" x="54.88" y="-116.25" font-family="Helvetica,sans-Serif" font-size="10.00">DevelopmentHelper.h</text>
</a>
</g>
</g>
<!-- Node7&#45;&gt;Node21 -->
<g id="edge44_Node000007_Node000021" class="edge">
<title>Node7&#45;&gt;Node21</title>
<g id="a_edge44_Node000007_Node000021"><a xlink:title=" ">
<path fill="none" stroke="#63b8ff" d="M470.62,-338.77C426.35,-335.5 324.63,-325.15 244.88,-295.5 154.39,-261.87 107.67,-267.7 57.88,-185 50.06,-172.03 49.72,-154.74 51.11,-141.43"/>
<polygon fill="#63b8ff" stroke="#63b8ff" points="54.56,-142.05 52.56,-131.64 47.63,-141.02 54.56,-142.05"/>
</a>
</g>
</g>
<!-- Node23 -->
<g id="Node000023" class="node">
<title>Node23</title>
<g id="a_Node000023"><a xlink:href="_logging_8h.html" target="_top" xlink:title=" ">
<polygon fill="white" stroke="#666666" points="311.88,-295.5 253.88,-295.5 253.88,-276.25 311.88,-276.25 311.88,-295.5"/>
<text xml:space="preserve" text-anchor="middle" x="282.88" y="-282" font-family="Helvetica,sans-Serif" font-size="10.00">Logging.h</text>
</a>
</g>
</g>
<!-- Node7&#45;&gt;Node23 -->
<g id="edge37_Node000007_Node000023" class="edge">
<title>Node7&#45;&gt;Node23</title>
<g id="a_edge37_Node000007_Node000023"><a xlink:title=" ">
<path fill="none" stroke="#63b8ff" d="M470.8,-334.53C435.9,-325.68 367.45,-308.32 323.5,-297.18"/>
<polygon fill="#63b8ff" stroke="#63b8ff" points="324.37,-293.79 313.82,-294.72 322.65,-300.57 324.37,-293.79"/>
</a>
</g>
</g>
<!-- Node25 -->
<g id="Node000025" class="node">
<title>Node25</title>
<g id="a_Node000025"><a xlink:href="_vars_8h.html" target="_top" xlink:title=" ">
<polygon fill="white" stroke="#666666" points="489.75,-295.5 446,-295.5 446,-276.25 489.75,-276.25 489.75,-295.5"/>
<text xml:space="preserve" text-anchor="middle" x="467.88" y="-282" font-family="Helvetica,sans-Serif" font-size="10.00">Vars.h</text>
</a>
</g>
</g>
<!-- Node7&#45;&gt;Node25 -->
<g id="edge41_Node000007_Node000025" class="edge">
<title>Node7&#45;&gt;Node25</title>
<g id="a_edge41_Node000007_Node000025"><a xlink:title=" ">
<path fill="none" stroke="#63b8ff" d="M488.75,-331.33C485.55,-324.51 480.99,-314.81 476.95,-306.2"/>
<polygon fill="#63b8ff" stroke="#63b8ff" points="480.15,-304.79 472.74,-297.23 473.82,-307.77 480.15,-304.79"/>
</a>
</g>
</g>
<!-- Node8&#45;&gt;Node2 -->
<g id="edge9_Node000008_Node000002" class="edge">
<title>Node8&#45;&gt;Node2</title>
<g id="a_edge9_Node000008_Node000002"><a xlink:title=" ">
<path fill="none" stroke="#63b8ff" d="M744.16,-277.6C778.28,-268.68 822.8,-250.93 807.88,-221 771.74,-148.56 683.88,-101.06 635.39,-79.41"/>
<polygon fill="#63b8ff" stroke="#63b8ff" points="637.05,-76.32 626.49,-75.54 634.27,-82.74 637.05,-76.32"/>
</a>
</g>
</g>
<!-- Node9 -->
<g id="Node000009" class="node">
<title>Node9</title>
<g id="a_Node000009"><a xlink:href="_status_handler_8h.html" target="_top" xlink:title=" ">
<polygon fill="white" stroke="#666666" points="631.75,-240.25 546,-240.25 546,-221 631.75,-221 631.75,-240.25"/>
<text xml:space="preserve" text-anchor="middle" x="588.88" y="-226.75" font-family="Helvetica,sans-Serif" font-size="10.00">StatusHandler.h</text>
</a>
</g>
</g>
<!-- Node8&#45;&gt;Node9 -->
<g id="edge10_Node000008_Node000009" class="edge">
<title>Node8&#45;&gt;Node9</title>
<g id="a_edge10_Node000008_Node000009"><a xlink:title=" ">
<path fill="none" stroke="#63b8ff" d="M688.52,-275.84C669.64,-267.47 641.29,-254.88 619.65,-245.28"/>
<polygon fill="#63b8ff" stroke="#63b8ff" points="621.27,-242.17 610.71,-241.32 618.44,-248.57 621.27,-242.17"/>
</a>
</g>
</g>
<!-- Node12 -->
<g id="Node000012" class="node">
<title>Node12</title>
<g id="a_Node000012"><a xlink:title=" ">
<polygon fill="#e0e0e0" stroke="#999999" points="729.62,-240.25 688.12,-240.25 688.12,-221 729.62,-221 729.62,-240.25"/>
<text xml:space="preserve" text-anchor="middle" x="708.88" y="-226.75" font-family="Helvetica,sans-Serif" font-size="10.00">Esp.h</text>
</a>
</g>
</g>
<!-- Node8&#45;&gt;Node12 -->
<g id="edge16_Node000008_Node000012" class="edge">
<title>Node8&#45;&gt;Node12</title>
<g id="a_edge16_Node000008_Node000012"><a xlink:title=" ">
<path fill="none" stroke="#63b8ff" d="M708.88,-276.08C708.88,-269.57 708.88,-260.42 708.88,-252.12"/>
<polygon fill="#63b8ff" stroke="#63b8ff" points="712.38,-252.12 708.88,-242.12 705.38,-252.12 712.38,-252.12"/>
</a>
</g>
</g>
<!-- Node13 -->
<g id="Node000013" class="node">
<title>Node13</title>
<g id="a_Node000013"><a xlink:title=" ">
<polygon fill="#e0e0e0" stroke="#999999" points="798.5,-240.25 747.25,-240.25 747.25,-221 798.5,-221 798.5,-240.25"/>
<text xml:space="preserve" text-anchor="middle" x="772.88" y="-226.75" font-family="Helvetica,sans-Serif" font-size="10.00">memory</text>
</a>
</g>
</g>
<!-- Node8&#45;&gt;Node13 -->
<g id="edge17_Node000008_Node000013" class="edge">
<title>Node8&#45;&gt;Node13</title>
<g id="a_edge17_Node000008_Node000013"><a xlink:title=" ">
<path fill="none" stroke="#63b8ff" d="M719.73,-275.84C728.98,-268.15 742.5,-256.9 753.58,-247.68"/>
<polygon fill="#63b8ff" stroke="#63b8ff" points="755.57,-250.58 761.02,-241.49 751.09,-245.2 755.57,-250.58"/>
</a>
</g>
</g>
<!-- Node9&#45;&gt;Node2 -->
<g id="edge11_Node000009_Node000002" class="edge">
<title>Node9&#45;&gt;Node2</title>
<g id="a_edge11_Node000009_Node000002"><a xlink:title=" ">
<path fill="none" stroke="#63b8ff" d="M589.57,-220.82C591.58,-195.5 597.42,-122 600.27,-86.09"/>
<polygon fill="#63b8ff" stroke="#63b8ff" points="603.75,-86.48 601.05,-76.23 596.77,-85.92 603.75,-86.48"/>
</a>
</g>
</g>
<!-- Node9&#45;&gt;Node10 -->
<g id="edge12_Node000009_Node000010" class="edge">
<title>Node9&#45;&gt;Node10</title>
<g id="a_edge12_Node000009_Node000010"><a xlink:title=" ">
<path fill="none" stroke="#63b8ff" d="M578.36,-220.59C569.49,-212.97 556.56,-201.87 545.89,-192.7"/>
<polygon fill="#63b8ff" stroke="#63b8ff" points="548.25,-190.12 538.39,-186.26 543.69,-195.43 548.25,-190.12"/>
</a>
</g>
</g>
<!-- Node11 -->
<g id="Node000011" class="node">
<title>Node11</title>
<g id="a_Node000011"><a xlink:title=" ">
<polygon fill="#e0e0e0" stroke="#999999" points="492.38,-129.75 449.38,-129.75 449.38,-110.5 492.38,-110.5 492.38,-129.75"/>
<text xml:space="preserve" text-anchor="middle" x="470.88" y="-116.25" font-family="Helvetica,sans-Serif" font-size="10.00">vector</text>
</a>
</g>
</g>
<!-- Node9&#45;&gt;Node11 -->
<g id="edge15_Node000009_Node000011" class="edge">
<title>Node9&#45;&gt;Node11</title>
<g id="a_edge15_Node000009_Node000011"><a xlink:title=" ">
<path fill="none" stroke="#63b8ff" d="M588.5,-220.67C587.49,-207.2 583.73,-181.61 569.88,-165.75 552.73,-146.14 525.26,-134.69 503.59,-128.32"/>
<polygon fill="#63b8ff" stroke="#63b8ff" points="504.6,-124.96 494.03,-125.75 502.78,-131.72 504.6,-124.96"/>
</a>
</g>
</g>
<!-- Node10&#45;&gt;Node2 -->
<g id="edge13_Node000010_Node000002" class="edge">
<title>Node10&#45;&gt;Node2</title>
<g id="a_edge13_Node000010_Node000002"><a xlink:title=" ">
<path fill="none" stroke="#63b8ff" d="M533.01,-165.5C545.26,-147.77 572.97,-107.69 589.26,-84.13"/>
<polygon fill="#63b8ff" stroke="#63b8ff" points="591.98,-86.34 594.79,-76.12 586.23,-82.36 591.98,-86.34"/>
</a>
</g>
</g>
<!-- Node10&#45;&gt;Node11 -->
<g id="edge14_Node000010_Node000011" class="edge">
<title>Node10&#45;&gt;Node11</title>
<g id="a_edge14_Node000010_Node000011"><a xlink:title=" ">
<path fill="none" stroke="#63b8ff" d="M517.38,-165.34C509.44,-157.8 497.93,-146.85 488.34,-137.73"/>
<polygon fill="#63b8ff" stroke="#63b8ff" points="490.99,-135.42 481.33,-131.07 486.17,-140.49 490.99,-135.42"/>
</a>
</g>
</g>
<!-- Node14&#45;&gt;Node9 -->
<g id="edge24_Node000014_Node000009" class="edge">
<title>Node14&#45;&gt;Node9</title>
<g id="a_edge24_Node000014_Node000009"><a xlink:title=" ">
<path fill="none" stroke="#63b8ff" d="M416.16,-275.84C450.97,-266.93 504.38,-253.26 542.58,-243.48"/>
<polygon fill="#63b8ff" stroke="#63b8ff" points="543.13,-246.95 551.95,-241.08 541.4,-240.17 543.13,-246.95"/>
</a>
</g>
</g>
<!-- Node15 -->
<g id="Node000015" class="node">
<title>Node15</title>
<g id="a_Node000015"><a xlink:href="_config_handler_8h.html" target="_top" xlink:title=" ">
<polygon fill="white" stroke="#666666" points="489.75,-240.25 404,-240.25 404,-221 489.75,-221 489.75,-240.25"/>
<text xml:space="preserve" text-anchor="middle" x="446.88" y="-226.75" font-family="Helvetica,sans-Serif" font-size="10.00">ConfigHandler.h</text>
</a>
</g>
</g>
<!-- Node14&#45;&gt;Node15 -->
<g id="edge20_Node000014_Node000015" class="edge">
<title>Node14&#45;&gt;Node15</title>
<g id="a_edge20_Node000014_Node000015"><a xlink:title=" ">
<path fill="none" stroke="#63b8ff" d="M392.07,-275.84C401.61,-268.15 415.55,-256.9 426.98,-247.68"/>
<polygon fill="#63b8ff" stroke="#63b8ff" points="429.08,-250.48 434.67,-241.48 424.69,-245.03 429.08,-250.48"/>
</a>
</g>
</g>
<!-- Node16 -->
<g id="Node000016" class="node">
<title>Node16</title>
<g id="a_Node000016"><a xlink:href="_event_handler_8h.html" target="_top" xlink:title=" ">
<polygon fill="white" stroke="#666666" points="319.25,-240.25 236.5,-240.25 236.5,-221 319.25,-221 319.25,-240.25"/>
<text xml:space="preserve" text-anchor="middle" x="277.88" y="-226.75" font-family="Helvetica,sans-Serif" font-size="10.00">EventHandler.h</text>
</a>
</g>
</g>
<!-- Node14&#45;&gt;Node16 -->
<g id="edge25_Node000014_Node000016" class="edge">
<title>Node14&#45;&gt;Node16</title>
<g id="a_edge25_Node000014_Node000016"><a xlink:title=" ">
<path fill="none" stroke="#63b8ff" d="M363.4,-275.84C347.57,-267.66 323.97,-255.46 305.57,-245.94"/>
<polygon fill="#63b8ff" stroke="#63b8ff" points="307.27,-242.88 296.78,-241.4 304.05,-249.1 307.27,-242.88"/>
</a>
</g>
</g>
<!-- Node22 -->
<g id="Node000022" class="node">
<title>Node22</title>
<g id="a_Node000022"><a xlink:href="_msgs_8h.html" target="_top" xlink:title=" ">
<polygon fill="white" stroke="#666666" points="386,-240.25 337.75,-240.25 337.75,-221 386,-221 386,-240.25"/>
<text xml:space="preserve" text-anchor="middle" x="361.88" y="-226.75" font-family="Helvetica,sans-Serif" font-size="10.00">Msgs.h</text>
</a>
</g>
</g>
<!-- Node14&#45;&gt;Node22 -->
<g id="edge36_Node000014_Node000022" class="edge">
<title>Node14&#45;&gt;Node22</title>
<g id="a_edge36_Node000014_Node000022"><a xlink:title=" ">
<path fill="none" stroke="#63b8ff" d="M377.74,-276.08C375.33,-269.34 371.92,-259.77 368.87,-251.24"/>
<polygon fill="#63b8ff" stroke="#63b8ff" points="372.25,-250.28 365.59,-242.03 365.65,-252.63 372.25,-250.28"/>
</a>
</g>
</g>
<!-- Node15&#45;&gt;Node2 -->
<g id="edge21_Node000015_Node000002" class="edge">
<title>Node15&#45;&gt;Node2</title>
<g id="a_edge21_Node000015_Node000002"><a xlink:title=" ">
<path fill="none" stroke="#63b8ff" d="M442.94,-220.72C434.11,-199.26 415.43,-143.96 440.88,-110.5 455.27,-91.57 517.27,-78.58 559.99,-71.69"/>
<polygon fill="#63b8ff" stroke="#63b8ff" points="560.37,-75.18 569.71,-70.18 559.29,-68.26 560.37,-75.18"/>
</a>
</g>
</g>
<!-- Node15&#45;&gt;Node10 -->
<g id="edge22_Node000015_Node000010" class="edge">
<title>Node15&#45;&gt;Node10</title>
<g id="a_edge22_Node000015_Node000010"><a xlink:title=" ">
<path fill="none" stroke="#63b8ff" d="M460.45,-220.59C472.28,-212.71 489.71,-201.11 503.75,-191.77"/>
<polygon fill="#63b8ff" stroke="#63b8ff" points="505.59,-194.75 511.98,-186.29 501.71,-188.92 505.59,-194.75"/>
</a>
</g>
</g>
<!-- Node15&#45;&gt;Node11 -->
<g id="edge23_Node000015_Node000011" class="edge">
<title>Node15&#45;&gt;Node11</title>
<g id="a_edge23_Node000015_Node000011"><a xlink:title=" ">
<path fill="none" stroke="#63b8ff" d="M448.84,-220.75C452.65,-203.5 461.15,-165.08 466.41,-141.31"/>
<polygon fill="#63b8ff" stroke="#63b8ff" points="469.81,-142.12 468.56,-131.6 462.98,-140.61 469.81,-142.12"/>
</a>
</g>
</g>
<!-- Node16&#45;&gt;Node2 -->
<g id="edge26_Node000016_Node000002" class="edge">
<title>Node16&#45;&gt;Node2</title>
<g id="a_edge26_Node000016_Node000002"><a xlink:title=" ">
<path fill="none" stroke="#63b8ff" d="M288.95,-220.62C322.29,-193.54 419.98,-114.42 427.88,-110.5 470.21,-89.46 523.42,-77.69 559.78,-71.59"/>
<polygon fill="#63b8ff" stroke="#63b8ff" points="560.14,-75.08 569.47,-70.04 559.04,-68.17 560.14,-75.08"/>
</a>
</g>
</g>
<!-- Node16&#45;&gt;Node11 -->
<g id="edge28_Node000016_Node000011" class="edge">
<title>Node16&#45;&gt;Node11</title>
<g id="a_edge28_Node000016_Node000011"><a xlink:title=" ">
<path fill="none" stroke="#63b8ff" d="M296.4,-220.58C314.14,-211.81 341.59,-197.97 364.88,-185 393.59,-169.01 425.83,-149.32 447.14,-136.07"/>
<polygon fill="#63b8ff" stroke="#63b8ff" points="448.75,-139.19 455.37,-130.92 445.04,-133.25 448.75,-139.19"/>
</a>
</g>
</g>
<!-- Node17 -->
<g id="Node000017" class="node">
<title>Node17</title>
<g id="a_Node000017"><a xlink:title=" ">
<polygon fill="#e0e0e0" stroke="#999999" points="140.88,-185 82.88,-185 82.88,-165.75 140.88,-165.75 140.88,-185"/>
<text xml:space="preserve" text-anchor="middle" x="111.88" y="-171.5" font-family="Helvetica,sans-Serif" font-size="10.00">functional</text>
</a>
</g>
</g>
<!-- Node16&#45;&gt;Node17 -->
<g id="edge27_Node000016_Node000017" class="edge">
<title>Node16&#45;&gt;Node17</title>
<g id="a_edge27_Node000016_Node000017"><a xlink:title=" ">
<path fill="none" stroke="#63b8ff" d="M249.72,-220.59C222.53,-211.87 181.13,-198.59 150.8,-188.86"/>
<polygon fill="#63b8ff" stroke="#63b8ff" points="152.21,-185.64 141.61,-185.91 150.07,-192.3 152.21,-185.64"/>
</a>
</g>
</g>
<!-- Node18 -->
<g id="Node000018" class="node">
<title>Node18</title>
<g id="a_Node000018"><a xlink:title=" ">
<polygon fill="#e0e0e0" stroke="#999999" points="201,-185 158.75,-185 158.75,-165.75 201,-165.75 201,-185"/>
<text xml:space="preserve" text-anchor="middle" x="179.88" y="-171.5" font-family="Helvetica,sans-Serif" font-size="10.00">queue</text>
</a>
</g>
</g>
<!-- Node16&#45;&gt;Node18 -->
<g id="edge29_Node000016_Node000018" class="edge">
<title>Node16&#45;&gt;Node18</title>
<g id="a_edge29_Node000016_Node000018"><a xlink:title=" ">
<path fill="none" stroke="#63b8ff" d="M261.25,-220.59C246.19,-212.41 223.73,-200.21 206.22,-190.69"/>
<polygon fill="#63b8ff" stroke="#63b8ff" points="208.37,-187.87 197.91,-186.18 205.03,-194.02 208.37,-187.87"/>
</a>
</g>
</g>
<!-- Node19 -->
<g id="Node000019" class="node">
<title>Node19</title>
<g id="a_Node000019"><a xlink:href="_named_value_table_8h.html" target="_top" xlink:title=" ">
<polygon fill="white" stroke="#666666" points="322.38,-185 219.38,-185 219.38,-165.75 322.38,-165.75 322.38,-185"/>
<text xml:space="preserve" text-anchor="middle" x="270.88" y="-171.5" font-family="Helvetica,sans-Serif" font-size="10.00">NamedValueTable.h</text>
</a>
</g>
</g>
<!-- Node16&#45;&gt;Node19 -->
<g id="edge30_Node000016_Node000019" class="edge">
<title>Node16&#45;&gt;Node19</title>
<g id="a_edge30_Node000016_Node000019"><a xlink:title=" ">
<path fill="none" stroke="#63b8ff" d="M276.72,-220.83C275.85,-214.24 274.63,-204.96 273.53,-196.57"/>
<polygon fill="#63b8ff" stroke="#63b8ff" points="277.03,-196.32 272.25,-186.86 270.09,-197.23 277.03,-196.32"/>
</a>
</g>
</g>
<!-- Node16&#45;&gt;Node21 -->
<g id="edge35_Node000016_Node000021" class="edge">
<title>Node16&#45;&gt;Node21</title>
<g id="a_edge35_Node000016_Node000021"><a xlink:title=" ">
<path fill="none" stroke="#63b8ff" d="M236.19,-221.63C178.28,-210.36 79.85,-190.55 73.88,-185 61.81,-173.79 57.29,-155.31 55.65,-141.1"/>
<polygon fill="#63b8ff" stroke="#63b8ff" points="59.17,-141.23 54.95,-131.51 52.19,-141.74 59.17,-141.23"/>
</a>
</g>
</g>
<!-- Node19&#45;&gt;Node11 -->
<g id="edge31_Node000019_Node000011" class="edge">
<title>Node19&#45;&gt;Node11</title>
<g id="a_edge31_Node000019_Node000011"><a xlink:title=" ">
<path fill="none" stroke="#63b8ff" d="M304.8,-165.34C342.01,-155.44 401.31,-139.65 438.07,-129.86"/>
<polygon fill="#63b8ff" stroke="#63b8ff" points="438.93,-133.25 447.69,-127.3 437.13,-126.49 438.93,-133.25"/>
</a>
</g>
</g>
<!-- Node20 -->
<g id="Node000020" class="node">
<title>Node20</title>
<g id="a_Node000020"><a xlink:href="_l_s_c_utils_8h.html" target="_top" xlink:title=" ">
<polygon fill="white" stroke="#666666" points="312.88,-129.75 248.88,-129.75 248.88,-110.5 312.88,-110.5 312.88,-129.75"/>
<text xml:space="preserve" text-anchor="middle" x="280.88" y="-116.25" font-family="Helvetica,sans-Serif" font-size="10.00">LSCUtils.h</text>
</a>
</g>
</g>
<!-- Node19&#45;&gt;Node20 -->
<g id="edge32_Node000019_Node000020" class="edge">
<title>Node19&#45;&gt;Node20</title>
<g id="a_edge32_Node000019_Node000020"><a xlink:title=" ">
<path fill="none" stroke="#63b8ff" d="M272.53,-165.58C273.76,-158.99 275.51,-149.71 277.08,-141.32"/>
<polygon fill="#63b8ff" stroke="#63b8ff" points="280.5,-142.07 278.91,-131.6 273.62,-140.78 280.5,-142.07"/>
</a>
</g>
</g>
<!-- Node19&#45;&gt;Node21 -->
<g id="edge34_Node000019_Node000021" class="edge">
<title>Node19&#45;&gt;Node21</title>
<g id="a_edge34_Node000019_Node000021"><a xlink:title=" ">
<path fill="none" stroke="#63b8ff" d="M234.23,-165.34C198,-156.41 142.39,-142.7 102.69,-132.91"/>
<polygon fill="#63b8ff" stroke="#63b8ff" points="103.71,-129.56 93.17,-130.56 102.04,-136.36 103.71,-129.56"/>
</a>
</g>
</g>
<!-- Node20&#45;&gt;Node2 -->
<g id="edge33_Node000020_Node000002" class="edge">
<title>Node20&#45;&gt;Node2</title>
<g id="a_edge33_Node000020_Node000002"><a xlink:title=" ">
<path fill="none" stroke="#63b8ff" d="M313.12,-113.78C371.62,-104.07 495.14,-83.58 560.04,-72.82"/>
<polygon fill="#63b8ff" stroke="#63b8ff" points="560.28,-76.32 569.57,-71.23 559.13,-69.42 560.28,-76.32"/>
</a>
</g>
</g>
<!-- Node23&#45;&gt;Node16 -->
<g id="edge39_Node000023_Node000016" class="edge">
<title>Node23&#45;&gt;Node16</title>
<g id="a_edge39_Node000023_Node000016"><a xlink:title=" ">
<path fill="none" stroke="#63b8ff" d="M282.05,-276.08C281.43,-269.49 280.56,-260.21 279.77,-251.82"/>
<polygon fill="#63b8ff" stroke="#63b8ff" points="283.28,-251.75 278.86,-242.12 276.31,-252.4 283.28,-251.75"/>
</a>
</g>
</g>
<!-- Node23&#45;&gt;Node22 -->
<g id="edge40_Node000023_Node000022" class="edge">
<title>Node23&#45;&gt;Node22</title>
<g id="a_edge40_Node000023_Node000022"><a xlink:title=" ">
<path fill="none" stroke="#63b8ff" d="M296.28,-275.84C307.97,-267.96 325.18,-256.36 339.04,-247.02"/>
<polygon fill="#63b8ff" stroke="#63b8ff" points="340.82,-250.04 347.15,-241.55 336.9,-244.24 340.82,-250.04"/>
</a>
</g>
</g>
<!-- Node24 -->
<g id="Node000024" class="node">
<title>Node24</title>
<g id="a_Node000024"><a xlink:title=" ">
<polygon fill="#e0e0e0" stroke="#999999" points="218.5,-240.25 167.25,-240.25 167.25,-221 218.5,-221 218.5,-240.25"/>
<text xml:space="preserve" text-anchor="middle" x="192.88" y="-226.75" font-family="Helvetica,sans-Serif" font-size="10.00">stdarg.h</text>
</a>
</g>
</g>
<!-- Node23&#45;&gt;Node24 -->
<g id="edge38_Node000023_Node000024" class="edge">
<title>Node23&#45;&gt;Node24</title>
<g id="a_edge38_Node000023_Node000024"><a xlink:title=" ">
<path fill="none" stroke="#63b8ff" d="M267.61,-275.84C254.03,-267.81 233.92,-255.91 217.98,-246.48"/>
<polygon fill="#63b8ff" stroke="#63b8ff" points="219.91,-243.55 209.52,-241.47 216.34,-249.58 219.91,-243.55"/>
</a>
</g>
</g>
<!-- Node25&#45;&gt;Node11 -->
<g id="edge43_Node000025_Node000011" class="edge">
<title>Node25&#45;&gt;Node11</title>
<g id="a_edge43_Node000025_Node000011"><a xlink:title=" ">
<path fill="none" stroke="#63b8ff" d="M490.16,-282.48C532.6,-277.4 622.45,-264.03 640.88,-240.25 683.69,-184.98 563.99,-145.07 503.5,-128.98"/>
<polygon fill="#63b8ff" stroke="#63b8ff" points="504.62,-125.65 494.06,-126.54 502.87,-132.43 504.62,-125.65"/>
</a>
</g>
</g>
<!-- Node25&#45;&gt;Node15 -->
<g id="edge42_Node000025_Node000015" class="edge">
<title>Node25&#45;&gt;Node15</title>
<g id="a_edge42_Node000025_Node000015"><a xlink:title=" ">
<path fill="none" stroke="#63b8ff" d="M464.41,-276.08C461.75,-269.34 457.98,-259.77 454.61,-251.24"/>
<polygon fill="#63b8ff" stroke="#63b8ff" points="457.9,-250.04 450.97,-242.02 451.39,-252.6 457.9,-250.04"/>
</a>
</g>
</g>
</g>
</svg>
