<?xml version="1.0" encoding="UTF-8" standalone="no"?>
<!DOCTYPE svg PUBLIC "-//W3C//DTD SVG 1.1//EN"
 "http://www.w3.org/Graphics/SVG/1.1/DTD/svg11.dtd">
<!-- Generated by graphviz version 15.1.0 (20260618.0150)
 -->
<!-- Title: include/NamedValueTable.h Pages: 1 -->
<svg width="261pt" height="193pt"
 viewBox="0.00 0.00 261.00 193.00" xmlns="http://www.w3.org/2000/svg" xmlns:xlink="http://www.w3.org/1999/xlink">
<g id="graph0" class="graph" transform="scale(1 1) rotate(0) translate(4 189)">
<title>include/NamedValueTable.h</title>
<!-- Node1 -->
<g id="Node000001" class="node">
<title>Node1</title>
<g id="a_Node000001"><a xlink:title=" ">
<polygon fill="#999999" stroke="#666666" points="161.88,-185 25.12,-185 25.12,-165.75 161.88,-165.75 161.88,-185"/>
<text xml:space="preserve" text-anchor="middle" x="93.5" y="-171.5" font-family="Helvetica,sans-Serif" font-size="10.00">include/NamedValueTable.h</text>
</a>
</g>
</g>
<!-- Node2 -->
<g id="Node000002" class="node">
<title>Node2</title>
<g id="a_Node000002"><a xlink:title=" ">
<polygon fill="#e0e0e0" stroke="#999999" points="43,-129.75 0,-129.75 0,-110.5 43,-110.5 43,-129.75"/>
<text xml:space="preserve" text-anchor="middle" x="21.5" y="-116.25" font-family="Helvetica,sans-Serif" font-size="10.00">vector</text>
</a>
</g>
</g>
<!-- Node1&#45;&gt;Node2 -->
<g id="edge1_Node000001_Node000002" class="edge">
<title>Node1&#45;&gt;Node2</title>
<g id="a_edge1_Node000001_Node000002"><a xlink:title=" ">
<path fill="none" stroke="#63b8ff" d="M81.29,-165.34C70.67,-157.49 55.06,-145.95 42.46,-136.62"/>
<polygon fill="#63b8ff" stroke="#63b8ff" points="44.87,-134.06 34.75,-130.92 40.71,-139.69 44.87,-134.06"/>
</a>
</g>
</g>
<!-- Node3 -->
<g id="Node000003" class="node">
<title>Node3</title>
<g id="a_Node000003"><a xlink:href="_l_s_c_utils_8h.html" target="_top" xlink:title=" ">
<polygon fill="white" stroke="#666666" points="125.5,-129.75 61.5,-129.75 61.5,-110.5 125.5,-110.5 125.5,-129.75"/>
<text xml:space="preserve" text-anchor="middle" x="93.5" y="-116.25" font-family="Helvetica,sans-Serif" font-size="10.00">LSCUtils.h</text>
</a>
</g>
</g>
<!-- Node1&#45;&gt;Node3 -->
<g id="edge2_Node000001_Node000003" class="edge">
<title>Node1&#45;&gt;Node3</title>
<g id="a_edge2_Node000001_Node000003"><a xlink:title=" ">
<path fill="none" stroke="#63b8ff" d="M93.5,-165.58C93.5,-159.07 93.5,-149.92 93.5,-141.62"/>
<polygon fill="#63b8ff" stroke="#63b8ff" points="97,-141.62 93.5,-131.62 90,-141.62 97,-141.62"/>
</a>
</g>
</g>
<!-- Node8 -->
<g id="Node000008" class="node">
<title>Node8</title>
<g id="a_Node000008"><a xlink:href="_development_helper_8h.html" target="_top" xlink:title=" ">
<polygon fill="white" stroke="#666666" points="253.38,-129.75 143.62,-129.75 143.62,-110.5 253.38,-110.5 253.38,-129.75"/>
<text xml:space="preserve" text-anchor="middle" x="198.5" y="-116.25" font-family="Helvetica,sans-Serif" font-size="10.00">DevelopmentHelper.h</text>
</a>
</g>
</g>
<!-- Node1&#45;&gt;Node8 -->
<g id="edge7_Node000001_Node000008" class="edge">
<title>Node1&#45;&gt;Node8</title>
<g id="a_edge7_Node000001_Node000008"><a xlink:title=" ">
<path fill="none" stroke="#63b8ff" d="M111.31,-165.34C127.53,-157.12 151.74,-144.84 170.53,-135.31"/>
<polygon fill="#63b8ff" stroke="#63b8ff" points="171.92,-138.53 179.25,-130.89 168.75,-132.29 171.92,-138.53"/>
</a>
</g>
</g>
<!-- Node4 -->
<g id="Node000004" class="node">
<title>Node4</title>
<g id="a_Node000004"><a xlink:href="_runtime_8h.html" target="_top" xlink:title=" ">
<polygon fill="white" stroke="#666666" points="124,-74.5 63,-74.5 63,-55.25 124,-55.25 124,-74.5"/>
<text xml:space="preserve" text-anchor="middle" x="93.5" y="-61" font-family="Helvetica,sans-Serif" font-size="10.00">Runtime.h</text>
</a>
</g>
</g>
<!-- Node3&#45;&gt;Node4 -->
<g id="edge3_Node000003_Node000004" class="edge">
<title>Node3&#45;&gt;Node4</title>
<g id="a_edge3_Node000003_Node000004"><a xlink:title=" ">
<path fill="none" stroke="#63b8ff" d="M93.5,-110.33C93.5,-103.82 93.5,-94.67 93.5,-86.37"/>
<polygon fill="#63b8ff" stroke="#63b8ff" points="97,-86.37 93.5,-76.37 90,-86.37 97,-86.37"/>
</a>
</g>
</g>
<!-- Node5 -->
<g id="Node000005" class="node">
<title>Node5</title>
<g id="a_Node000005"><a xlink:title=" ">
<polygon fill="#e0e0e0" stroke="#999999" points="52.62,-19.25 4.38,-19.25 4.38,0 52.62,0 52.62,-19.25"/>
<text xml:space="preserve" text-anchor="middle" x="28.5" y="-5.75" font-family="Helvetica,sans-Serif" font-size="10.00">string.h</text>
</a>
</g>
</g>
<!-- Node4&#45;&gt;Node5 -->
<g id="edge4_Node000004_Node000005" class="edge">
<title>Node4&#45;&gt;Node5</title>
<g id="a_edge4_Node000004_Node000005"><a xlink:title=" ">
<path fill="none" stroke="#63b8ff" d="M82.47,-54.84C73.08,-47.15 59.35,-35.9 48.09,-26.68"/>
<polygon fill="#63b8ff" stroke="#63b8ff" points="50.49,-24.11 40.53,-20.48 46.05,-29.53 50.49,-24.11"/>
</a>
</g>
</g>
<!-- Node6 -->
<g id="Node000006" class="node">
<title>Node6</title>
<g id="a_Node000006"><a xlink:title=" ">
<polygon fill="#e0e0e0" stroke="#999999" points="116.12,-19.25 70.88,-19.25 70.88,0 116.12,0 116.12,-19.25"/>
<text xml:space="preserve" text-anchor="middle" x="93.5" y="-5.75" font-family="Helvetica,sans-Serif" font-size="10.00">chrono</text>
</a>
</g>
</g>
<!-- Node4&#45;&gt;Node6 -->
<g id="edge5_Node000004_Node000006" class="edge">
<title>Node4&#45;&gt;Node6</title>
<g id="a_edge5_Node000004_Node000006"><a xlink:title=" ">
<path fill="none" stroke="#63b8ff" d="M93.5,-55.08C93.5,-48.57 93.5,-39.42 93.5,-31.12"/>
<polygon fill="#63b8ff" stroke="#63b8ff" points="97,-31.12 93.5,-21.12 90,-31.12 97,-31.12"/>
</a>
</g>
</g>
<!-- Node7 -->
<g id="Node000007" class="node">
<title>Node7</title>
<g id="a_Node000007"><a xlink:title=" ">
<polygon fill="#e0e0e0" stroke="#999999" points="187.25,-19.25 133.75,-19.25 133.75,0 187.25,0 187.25,-19.25"/>
<text xml:space="preserve" text-anchor="middle" x="160.5" y="-5.75" font-family="Helvetica,sans-Serif" font-size="10.00">iostream</text>
</a>
</g>
</g>
<!-- Node4&#45;&gt;Node7 -->
<g id="edge6_Node000004_Node000007" class="edge">
<title>Node4&#45;&gt;Node7</title>
<g id="a_edge6_Node000004_Node000007"><a xlink:title=" ">
<path fill="none" stroke="#63b8ff" d="M104.87,-54.84C114.55,-47.15 128.7,-35.9 140.31,-26.68"/>
<polygon fill="#63b8ff" stroke="#63b8ff" points="142.47,-29.43 148.12,-20.47 138.11,-23.95 142.47,-29.43"/>
</a>
</g>
</g>
</g>
</svg>
