<?xml version="1.0" encoding="UTF-8" standalone="no"?>
<!DOCTYPE svg PUBLIC "-//W3C//DTD SVG 1.1//EN"
 "http://www.w3.org/Graphics/SVG/1.1/DTD/svg11.dtd">
<!-- Generated by graphviz version 15.1.0 (20260618.0150)
 -->
<!-- Title: include/Network.h Pages: 1 -->
<svg width="533pt" height="138pt"
 viewBox="0.00 0.00 533.00 138.00" xmlns="http://www.w3.org/2000/svg" xmlns:xlink="http://www.w3.org/1999/xlink">
<g id="graph0" class="graph" transform="scale(1 1) rotate(0) translate(4 133.75)">
<title>include/Network.h</title>
<!-- Node1 -->
<g id="Node000001" class="node">
<title>Node1</title>
<g id="a_Node000001"><a xlink:title=" ">
<polygon fill="#999999" stroke="#666666" points="299,-129.75 204.25,-129.75 204.25,-110.5 299,-110.5 299,-129.75"/>
<text xml:space="preserve" text-anchor="middle" x="251.62" y="-116.25" font-family="Helvetica,sans-Serif" font-size="10.00">include/Network.h</text>
</a>
</g>
</g>
<!-- Node2 -->
<g id="Node000002" class="node">
<title>Node2</title>
<g id="a_Node000002"><a xlink:href="_a_e_s_cryptor_8h.html" target="_top" xlink:title=" ">
<polygon fill="white" stroke="#666666" points="113.5,-74.5 3.75,-74.5 3.75,-55.25 113.5,-55.25 113.5,-74.5"/>
<text xml:space="preserve" text-anchor="middle" x="58.62" y="-61" font-family="Helvetica,sans-Serif" font-size="10.00">include/AESCryptor.h</text>
</a>
</g>
</g>
<!-- Node1&#45;&gt;Node2 -->
<g id="edge1_Node000001_Node000002" class="edge">
<title>Node1&#45;&gt;Node2</title>
<g id="a_edge1_Node000001_Node000002"><a xlink:title=" ">
<path fill="none" stroke="#63b8ff" d="M207.93,-107.07C172.59,-97.32 123.61,-83.8 91.53,-74.95"/>
<polygon fill="#63b8ff" stroke="#63b8ff" points="206.86,-110.4 217.43,-109.69 208.72,-103.66 206.86,-110.4"/>
</a>
</g>
</g>
<!-- Node4 -->
<g id="Node000004" class="node">
<title>Node4</title>
<g id="a_Node000004"><a xlink:href="_security_8h.html" target="_top" xlink:title=" ">
<polygon fill="white" stroke="#666666" points="223.88,-74.5 131.38,-74.5 131.38,-55.25 223.88,-55.25 223.88,-74.5"/>
<text xml:space="preserve" text-anchor="middle" x="177.62" y="-61" font-family="Helvetica,sans-Serif" font-size="10.00">include/Security.h</text>
</a>
</g>
</g>
<!-- Node1&#45;&gt;Node4 -->
<g id="edge3_Node000001_Node000004" class="edge">
<title>Node1&#45;&gt;Node4</title>
<g id="a_edge3_Node000001_Node000004"><a xlink:title=" ">
<path fill="none" stroke="#63b8ff" d="M229.87,-103.47C216.87,-94.12 200.84,-82.58 189.99,-74.77"/>
<polygon fill="#63b8ff" stroke="#63b8ff" points="227.68,-106.21 237.84,-109.21 231.77,-100.53 227.68,-106.21"/>
</a>
</g>
</g>
<!-- Node5 -->
<g id="Node000005" class="node">
<title>Node5</title>
<g id="a_Node000005"><a xlink:href="_web_server_8h.html" target="_top" xlink:title=" ">
<polygon fill="white" stroke="#666666" points="345.25,-19.25 240,-19.25 240,0 345.25,0 345.25,-19.25"/>
<text xml:space="preserve" text-anchor="middle" x="292.62" y="-5.75" font-family="Helvetica,sans-Serif" font-size="10.00">include/WebServer.h</text>
</a>
</g>
</g>
<!-- Node1&#45;&gt;Node5 -->
<g id="edge4_Node000001_Node000005" class="edge">
<title>Node1&#45;&gt;Node5</title>
<g id="a_edge4_Node000001_Node000005"><a xlink:title=" ">
<path fill="none" stroke="#63b8ff" d="M256.53,-99.52C259.96,-86.73 264.93,-69.78 270.62,-55.25 275.61,-42.54 282.82,-28.52 287.61,-19.65"/>
<polygon fill="#63b8ff" stroke="#63b8ff" points="253.24,-98.27 254.13,-108.82 260.02,-100.02 253.24,-98.27"/>
</a>
</g>
</g>
<!-- Node6 -->
<g id="Node000006" class="node">
<title>Node6</title>
<g id="a_Node000006"><a xlink:href="_web_socket_8h.html" target="_top" xlink:title=" ">
<polygon fill="white" stroke="#666666" points="387.75,-74.5 279.5,-74.5 279.5,-55.25 387.75,-55.25 387.75,-74.5"/>
<text xml:space="preserve" text-anchor="middle" x="333.62" y="-61" font-family="Helvetica,sans-Serif" font-size="10.00">include/WebSocket.h</text>
</a>
</g>
</g>
<!-- Node1&#45;&gt;Node6 -->
<g id="edge5_Node000001_Node000006" class="edge">
<title>Node1&#45;&gt;Node6</title>
<g id="a_edge5_Node000001_Node000006"><a xlink:title=" ">
<path fill="none" stroke="#63b8ff" d="M274.83,-104.05C289.28,-94.67 307.37,-82.92 319.65,-74.95"/>
<polygon fill="#63b8ff" stroke="#63b8ff" points="273.29,-100.89 266.8,-109.27 277.1,-106.76 273.29,-100.89"/>
</a>
</g>
</g>
<!-- Node7 -->
<g id="Node000007" class="node">
<title>Node7</title>
<g id="a_Node000007"><a xlink:href="_wi_fi_controller_8h.html" target="_top" xlink:title="WiFi Controller to handle Access Point and Station Mode.">
<polygon fill="white" stroke="#666666" points="525.38,-74.5 405.88,-74.5 405.88,-55.25 525.38,-55.25 525.38,-74.5"/>
<text xml:space="preserve" text-anchor="middle" x="465.62" y="-61" font-family="Helvetica,sans-Serif" font-size="10.00">include/WiFiController.h</text>
</a>
</g>
</g>
<!-- Node1&#45;&gt;Node7 -->
<g id="edge7_Node000001_Node000007" class="edge">
<title>Node1&#45;&gt;Node7</title>
<g id="a_edge7_Node000001_Node000007"><a xlink:title=" ">
<path fill="none" stroke="#63b8ff" d="M299.06,-107.32C338.31,-97.55 393.27,-83.88 429.14,-74.95"/>
<polygon fill="#63b8ff" stroke="#63b8ff" points="298.25,-103.92 289.4,-109.73 299.95,-110.71 298.25,-103.92"/>
</a>
</g>
</g>
<!-- Node3 -->
<g id="Node000003" class="node">
<title>Node3</title>
<g id="a_Node000003"><a xlink:href="_access_token_8h.html" target="_top" xlink:title=" ">
<polygon fill="white" stroke="#666666" points="117.25,-19.25 0,-19.25 0,0 117.25,0 117.25,-19.25"/>
<text xml:space="preserve" text-anchor="middle" x="58.62" y="-5.75" font-family="Helvetica,sans-Serif" font-size="10.00">include/AccessToken.h</text>
</a>
</g>
</g>
<!-- Node2&#45;&gt;Node3 -->
<g id="edge2_Node000002_Node000003" class="edge">
<title>Node2&#45;&gt;Node3</title>
<g id="a_edge2_Node000002_Node000003"><a xlink:title=" ">
<path fill="none" stroke="#63b8ff" d="M58.62,-43.63C58.62,-35.34 58.62,-26.17 58.62,-19.61"/>
<polygon fill="#63b8ff" stroke="#63b8ff" points="55.13,-43.57 58.63,-53.57 62.13,-43.57 55.13,-43.57"/>
</a>
</g>
</g>
<!-- Node6&#45;&gt;Node5 -->
<g id="edge6_Node000006_Node000005" class="edge">
<title>Node6&#45;&gt;Node5</title>
<g id="a_edge6_Node000006_Node000005"><a xlink:title=" ">
<path fill="none" stroke="#63b8ff" d="M320.04,-46.22C313.17,-37.31 305.13,-26.87 299.54,-19.61"/>
<polygon fill="#63b8ff" stroke="#63b8ff" points="317.06,-48.09 325.93,-53.88 322.6,-43.82 317.06,-48.09"/>
</a>
</g>
</g>
</g>
</svg>
