<?xml version="1.0" encoding="UTF-8" standalone="no"?>
<!DOCTYPE svg PUBLIC "-//W3C//DTD SVG 1.1//EN"
 "http://www.w3.org/Graphics/SVG/1.1/DTD/svg11.dtd">
<!-- Generated by graphviz version 15.1.0 (20260618.0150)
 -->
<!-- Title: include/OutputPinController.h Pages: 1 -->
<svg width="151pt" height="193pt"
 viewBox="0.00 0.00 151.00 193.00" xmlns="http://www.w3.org/2000/svg" xmlns:xlink="http://www.w3.org/1999/xlink">
<g id="graph0" class="graph" transform="scale(1 1) rotate(0) translate(4 189)">
<title>include/OutputPinController.h</title>
<!-- Node1 -->
<g id="Node000001" class="node">
<title>Node1</title>
<g id="a_Node000001"><a xlink:title=" ">
<polygon fill="#999999" stroke="#666666" points="142.75,-185 0,-185 0,-165.75 142.75,-165.75 142.75,-185"/>
<text xml:space="preserve" text-anchor="middle" x="71.38" y="-171.5" font-family="Helvetica,sans-Serif" font-size="10.00">include/OutputPinController.h</text>
</a>
</g>
</g>
<!-- Node2 -->
<g id="Node000002" class="node">
<title>Node2</title>
<g id="a_Node000002"><a xlink:href="_light_switch_8h.html" target="_top" xlink:title=" ">
<polygon fill="white" stroke="#666666" points="125.88,-129.75 16.88,-129.75 16.88,-110.5 125.88,-110.5 125.88,-129.75"/>
<text xml:space="preserve" text-anchor="middle" x="71.38" y="-116.25" font-family="Helvetica,sans-Serif" font-size="10.00">include/LightSwitch.h</text>
</a>
</g>
</g>
<!-- Node1&#45;&gt;Node2 -->
<g id="edge1_Node000001_Node000002" class="edge">
<title>Node1&#45;&gt;Node2</title>
<g id="a_edge1_Node000001_Node000002"><a xlink:title=" ">
<path fill="none" stroke="#63b8ff" d="M71.38,-154.13C71.38,-145.84 71.38,-136.67 71.38,-130.11"/>
<polygon fill="#63b8ff" stroke="#63b8ff" points="67.88,-154.07 71.38,-164.07 74.88,-154.07 67.88,-154.07"/>
</a>
</g>
</g>
<!-- Node3 -->
<g id="Node000003" class="node">
<title>Node3</title>
<g id="a_Node000003"><a xlink:href="_r_g_b_led_8h.html" target="_top" xlink:title=" ">
<polygon fill="white" stroke="#666666" points="119.12,-74.5 23.62,-74.5 23.62,-55.25 119.12,-55.25 119.12,-74.5"/>
<text xml:space="preserve" text-anchor="middle" x="71.38" y="-61" font-family="Helvetica,sans-Serif" font-size="10.00">include/RGBLed.h</text>
</a>
</g>
</g>
<!-- Node2&#45;&gt;Node3 -->
<g id="edge2_Node000002_Node000003" class="edge">
<title>Node2&#45;&gt;Node3</title>
<g id="a_edge2_Node000002_Node000003"><a xlink:title=" ">
<path fill="none" stroke="#63b8ff" d="M71.38,-98.88C71.38,-90.59 71.38,-81.42 71.38,-74.86"/>
<polygon fill="#63b8ff" stroke="#63b8ff" points="67.88,-98.82 71.38,-108.82 74.88,-98.82 67.88,-98.82"/>
</a>
</g>
</g>
<!-- Node4 -->
<g id="Node000004" class="node">
<title>Node4</title>
<g id="a_Node000004"><a xlink:href="_sys_status_led_8h.html" target="_top" xlink:title=" ">
<polygon fill="white" stroke="#666666" points="131.12,-19.25 11.63,-19.25 11.63,0 131.12,0 131.12,-19.25"/>
<text xml:space="preserve" text-anchor="middle" x="71.38" y="-5.75" font-family="Helvetica,sans-Serif" font-size="10.00">include/SysStatusLed.h</text>
</a>
</g>
</g>
<!-- Node3&#45;&gt;Node4 -->
<g id="edge3_Node000003_Node000004" class="edge">
<title>Node3&#45;&gt;Node4</title>
<g id="a_edge3_Node000003_Node000004"><a xlink:title=" ">
<path fill="none" stroke="#63b8ff" d="M71.38,-43.63C71.38,-35.34 71.38,-26.17 71.38,-19.61"/>
<polygon fill="#63b8ff" stroke="#63b8ff" points="67.88,-43.57 71.38,-53.57 74.88,-43.57 67.88,-43.57"/>
</a>
</g>
</g>
</g>
</svg>
