<?xml version="1.0" encoding="UTF-8" standalone="no"?>
<!DOCTYPE svg PUBLIC "-//W3C//DTD SVG 1.1//EN"
 "http://www.w3.org/Graphics/SVG/1.1/DTD/svg11.dtd">
<!-- Generated by graphviz version 15.1.0 (20260618.0150)
 -->
<!-- Title: include/PinController.h Pages: 1 -->
<svg width="304pt" height="248pt"
 viewBox="0.00 0.00 304.00 248.00" xmlns="http://www.w3.org/2000/svg" xmlns:xlink="http://www.w3.org/1999/xlink">
<g id="graph0" class="graph" transform="scale(1 1) rotate(0) translate(4 244.25)">
<title>include/PinController.h</title>
<!-- Node1 -->
<g id="Node000001" class="node">
<title>Node1</title>
<g id="a_Node000001"><a xlink:title=" ">
<polygon fill="#999999" stroke="#666666" points="202.38,-240.25 88.88,-240.25 88.88,-221 202.38,-221 202.38,-240.25"/>
<text xml:space="preserve" text-anchor="middle" x="145.62" y="-226.75" font-family="Helvetica,sans-Serif" font-size="10.00">include/PinController.h</text>
</a>
</g>
</g>
<!-- Node2 -->
<g id="Node000002" class="node">
<title>Node2</title>
<g id="a_Node000002"><a xlink:href="_input_pin_controller_8h.html" target="_top" xlink:title=" ">
<polygon fill="white" stroke="#666666" points="135.25,-185 0,-185 0,-165.75 135.25,-165.75 135.25,-185"/>
<text xml:space="preserve" text-anchor="middle" x="67.62" y="-171.5" font-family="Helvetica,sans-Serif" font-size="10.00">include/InputPinController.h</text>
</a>
</g>
</g>
<!-- Node1&#45;&gt;Node2 -->
<g id="edge1_Node000001_Node000002" class="edge">
<title>Node1&#45;&gt;Node2</title>
<g id="a_edge1_Node000001_Node000002"><a xlink:title=" ">
<path fill="none" stroke="#63b8ff" d="M123.15,-214.28C109.48,-204.95 92.48,-193.35 80.92,-185.45"/>
<polygon fill="#63b8ff" stroke="#63b8ff" points="120.91,-216.99 131.14,-219.74 124.86,-211.21 120.91,-216.99"/>
</a>
</g>
</g>
<!-- Node4 -->
<g id="Node000004" class="node">
<title>Node4</title>
<g id="a_Node000004"><a xlink:href="_output_pin_controller_8h.html" target="_top" xlink:title=" ">
<polygon fill="white" stroke="#666666" points="296,-185 153.25,-185 153.25,-165.75 296,-165.75 296,-185"/>
<text xml:space="preserve" text-anchor="middle" x="224.62" y="-171.5" font-family="Helvetica,sans-Serif" font-size="10.00">include/OutputPinController.h</text>
</a>
</g>
</g>
<!-- Node1&#45;&gt;Node4 -->
<g id="edge3_Node000001_Node000004" class="edge">
<title>Node1&#45;&gt;Node4</title>
<g id="a_edge3_Node000001_Node000004"><a xlink:title=" ">
<path fill="none" stroke="#63b8ff" d="M168.39,-214.28C182.23,-204.95 199.45,-193.35 211.16,-185.45"/>
<polygon fill="#63b8ff" stroke="#63b8ff" points="166.62,-211.25 160.28,-219.75 170.53,-217.06 166.62,-211.25"/>
</a>
</g>
</g>
<!-- Node3 -->
<g id="Node000003" class="node">
<title>Node3</title>
<g id="a_Node000003"><a xlink:href="_button_8h.html" target="_top" xlink:title=" ">
<polygon fill="white" stroke="#666666" points="110.88,-129.75 24.38,-129.75 24.38,-110.5 110.88,-110.5 110.88,-129.75"/>
<text xml:space="preserve" text-anchor="middle" x="67.62" y="-116.25" font-family="Helvetica,sans-Serif" font-size="10.00">include/Button.h</text>
</a>
</g>
</g>
<!-- Node2&#45;&gt;Node3 -->
<g id="edge2_Node000002_Node000003" class="edge">
<title>Node2&#45;&gt;Node3</title>
<g id="a_edge2_Node000002_Node000003"><a xlink:title=" ">
<path fill="none" stroke="#63b8ff" d="M67.62,-154.13C67.62,-145.84 67.62,-136.67 67.62,-130.11"/>
<polygon fill="#63b8ff" stroke="#63b8ff" points="64.13,-154.07 67.63,-164.07 71.13,-154.07 64.13,-154.07"/>
</a>
</g>
</g>
<!-- Node5 -->
<g id="Node000005" class="node">
<title>Node5</title>
<g id="a_Node000005"><a xlink:href="_light_switch_8h.html" target="_top" xlink:title=" ">
<polygon fill="white" stroke="#666666" points="279.12,-129.75 170.12,-129.75 170.12,-110.5 279.12,-110.5 279.12,-129.75"/>
<text xml:space="preserve" text-anchor="middle" x="224.62" y="-116.25" font-family="Helvetica,sans-Serif" font-size="10.00">include/LightSwitch.h</text>
</a>
</g>
</g>
<!-- Node4&#45;&gt;Node5 -->
<g id="edge4_Node000004_Node000005" class="edge">
<title>Node4&#45;&gt;Node5</title>
<g id="a_edge4_Node000004_Node000005"><a xlink:title=" ">
<path fill="none" stroke="#63b8ff" d="M224.62,-154.13C224.62,-145.84 224.62,-136.67 224.62,-130.11"/>
<polygon fill="#63b8ff" stroke="#63b8ff" points="221.13,-154.07 224.63,-164.07 228.13,-154.07 221.13,-154.07"/>
</a>
</g>
</g>
<!-- Node6 -->
<g id="Node000006" class="node">
<title>Node6</title>
<g id="a_Node000006"><a xlink:href="_r_g_b_led_8h.html" target="_top" xlink:title=" ">
<polygon fill="white" stroke="#666666" points="272.38,-74.5 176.88,-74.5 176.88,-55.25 272.38,-55.25 272.38,-74.5"/>
<text xml:space="preserve" text-anchor="middle" x="224.62" y="-61" font-family="Helvetica,sans-Serif" font-size="10.00">include/RGBLed.h</text>
</a>
</g>
</g>
<!-- Node5&#45;&gt;Node6 -->
<g id="edge5_Node000005_Node000006" class="edge">
<title>Node5&#45;&gt;Node6</title>
<g id="a_edge5_Node000005_Node000006"><a xlink:title=" ">
<path fill="none" stroke="#63b8ff" d="M224.62,-98.88C224.62,-90.59 224.62,-81.42 224.62,-74.86"/>
<polygon fill="#63b8ff" stroke="#63b8ff" points="221.13,-98.82 224.63,-108.82 228.13,-98.82 221.13,-98.82"/>
</a>
</g>
</g>
<!-- Node7 -->
<g id="Node000007" class="node">
<title>Node7</title>
<g id="a_Node000007"><a xlink:href="_sys_status_led_8h.html" target="_top" xlink:title=" ">
<polygon fill="white" stroke="#666666" points="284.38,-19.25 164.88,-19.25 164.88,0 284.38,0 284.38,-19.25"/>
<text xml:space="preserve" text-anchor="middle" x="224.62" y="-5.75" font-family="Helvetica,sans-Serif" font-size="10.00">include/SysStatusLed.h</text>
</a>
</g>
</g>
<!-- Node6&#45;&gt;Node7 -->
<g id="edge6_Node000006_Node000007" class="edge">
<title>Node6&#45;&gt;Node7</title>
<g id="a_edge6_Node000006_Node000007"><a xlink:title=" ">
<path fill="none" stroke="#63b8ff" d="M224.62,-43.63C224.62,-35.34 224.62,-26.17 224.62,-19.61"/>
<polygon fill="#63b8ff" stroke="#63b8ff" points="221.13,-43.57 224.63,-53.57 228.13,-43.57 221.13,-43.57"/>
</a>
</g>
</g>
</g>
</svg>
