<?xml version="1.0" encoding="UTF-8" standalone="no"?>
<!DOCTYPE svg PUBLIC "-//W3C//DTD SVG 1.1//EN"
 "http://www.w3.org/Graphics/SVG/1.1/DTD/svg11.dtd">
<!-- Generated by graphviz version 15.1.0 (20260618.0150)
 -->
<!-- Title: include/Runtime.h Pages: 1 -->
<svg width="1576pt" height="359pt"
 viewBox="0.00 0.00 1576.00 359.00" xmlns="http://www.w3.org/2000/svg" xmlns:xlink="http://www.w3.org/1999/xlink">
<g id="graph0" class="graph" transform="scale(1 1) rotate(0) translate(4 354.75)">
<title>include/Runtime.h</title>
<!-- Node1 -->
<g id="Node000001" class="node">
<title>Node1</title>
<g id="a_Node000001"><a xlink:title=" ">
<polygon fill="#999999" stroke="#666666" points="945.38,-350.75 850.62,-350.75 850.62,-331.5 945.38,-331.5 945.38,-350.75"/>
<text xml:space="preserve" text-anchor="middle" x="898" y="-337.25" font-family="Helvetica,sans-Serif" font-size="10.00">include/Runtime.h</text>
</a>
</g>
</g>
<!-- Node2 -->
<g id="Node000002" class="node">
<title>Node2</title>
<g id="a_Node000002"><a xlink:href="_appl_8h.html" target="_top" xlink:title="Application Main Class.">
<polygon fill="white" stroke="#666666" points="661.75,-74.5 584.25,-74.5 584.25,-55.25 661.75,-55.25 661.75,-74.5"/>
<text xml:space="preserve" text-anchor="middle" x="623" y="-61" font-family="Helvetica,sans-Serif" font-size="10.00">include/Appl.h</text>
</a>
</g>
</g>
<!-- Node1&#45;&gt;Node2 -->
<g id="edge1_Node000001_Node000002" class="edge">
<title>Node1&#45;&gt;Node2</title>
<g id="a_edge1_Node000001_Node000002"><a xlink:title=" ">
<path fill="none" stroke="#63b8ff" d="M839.19,-336.65C767.49,-331.42 651.47,-319.49 616,-295.5 542.99,-246.12 601.25,-110.87 618.55,-74.81"/>
<polygon fill="#63b8ff" stroke="#63b8ff" points="838.57,-340.11 848.79,-337.32 839.06,-333.13 838.57,-340.11"/>
</a>
</g>
</g>
<!-- Node4 -->
<g id="Node000004" class="node">
<title>Node4</title>
<g id="a_Node000004"><a xlink:href="_n_t_p_handler_8h.html" target="_top" xlink:title=" ">
<polygon fill="white" stroke="#666666" points="474.62,-19.25 363.38,-19.25 363.38,0 474.62,0 474.62,-19.25"/>
<text xml:space="preserve" text-anchor="middle" x="419" y="-5.75" font-family="Helvetica,sans-Serif" font-size="10.00">include/NTPHandler.h</text>
</a>
</g>
</g>
<!-- Node1&#45;&gt;Node4 -->
<g id="edge46_Node000001_Node000004" class="edge">
<title>Node1&#45;&gt;Node4</title>
<g id="a_edge46_Node000001_Node000004"><a xlink:title=" ">
<path fill="none" stroke="#63b8ff" d="M838.94,-339.21C638.99,-335.36 0,-316.4 0,-231.62 0,-231.62 0,-231.62 0,-119.12 0,-45.02 248.75,-20.7 362.93,-13.44"/>
<polygon fill="#63b8ff" stroke="#63b8ff" points="838.78,-342.71 848.84,-339.4 838.91,-335.71 838.78,-342.71"/>
</a>
</g>
</g>
<!-- Node7 -->
<g id="Node000007" class="node">
<title>Node7</title>
<g id="a_Node000007"><a xlink:href="_config_handler_8h.html" target="_top" xlink:title=" ">
<polygon fill="white" stroke="#666666" points="321.75,-185 202.25,-185 202.25,-165.75 321.75,-165.75 321.75,-185"/>
<text xml:space="preserve" text-anchor="middle" x="262" y="-171.5" font-family="Helvetica,sans-Serif" font-size="10.00">include/ConfigHandler.h</text>
</a>
</g>
</g>
<!-- Node1&#45;&gt;Node7 -->
<g id="edge6_Node000001_Node000007" class="edge">
<title>Node1&#45;&gt;Node7</title>
<g id="a_edge6_Node000001_Node000007"><a xlink:title=" ">
<path fill="none" stroke="#63b8ff" d="M839.01,-337.73C733.73,-332.88 517.9,-320.21 447,-295.5 372.69,-269.6 298.18,-208.25 271.91,-185.27"/>
<polygon fill="#63b8ff" stroke="#63b8ff" points="838.71,-341.22 848.85,-338.17 839.02,-334.22 838.71,-341.22"/>
</a>
</g>
</g>
<!-- Node11 -->
<g id="Node000011" class="node">
<title>Node11</title>
<g id="a_Node000011"><a xlink:href="_m_q_t_t_controller_8h.html" target="_top" xlink:title=" ">
<polygon fill="white" stroke="#666666" points="1102.5,-19.25 975.5,-19.25 975.5,0 1102.5,0 1102.5,-19.25"/>
<text xml:space="preserve" text-anchor="middle" x="1039" y="-5.75" font-family="Helvetica,sans-Serif" font-size="10.00">include/MQTTController.h</text>
</a>
</g>
</g>
<!-- Node1&#45;&gt;Node11 -->
<g id="edge45_Node000001_Node000011" class="edge">
<title>Node1&#45;&gt;Node11</title>
<g id="a_edge45_Node000001_Node000011"><a xlink:title=" ">
<path fill="none" stroke="#63b8ff" d="M956.85,-338.29C1036.1,-334.74 1171.76,-324.49 1211,-295.5 1232.83,-279.37 1231.08,-266.74 1237,-240.25 1245.8,-200.88 1258.89,-160.78 1225,-110.5 1190.48,-59.29 1120.82,-32.22 1077.24,-19.7"/>
<polygon fill="#63b8ff" stroke="#63b8ff" points="956.93,-334.78 947.09,-338.7 957.23,-341.78 956.93,-334.78"/>
</a>
</g>
</g>
<!-- Node13 -->
<g id="Node000013" class="node">
<title>Node13</title>
<g id="a_Node000013"><a xlink:href="_event_handler_8h.html" target="_top" xlink:title=" ">
<polygon fill="white" stroke="#666666" points="879.25,-185 762.75,-185 762.75,-165.75 879.25,-165.75 879.25,-185"/>
<text xml:space="preserve" text-anchor="middle" x="821" y="-171.5" font-family="Helvetica,sans-Serif" font-size="10.00">include/EventHandler.h</text>
</a>
</g>
</g>
<!-- Node1&#45;&gt;Node13 -->
<g id="edge15_Node000001_Node000013" class="edge">
<title>Node1&#45;&gt;Node13</title>
<g id="a_edge15_Node000001_Node000013"><a xlink:title=" ">
<path fill="none" stroke="#63b8ff" d="M855.66,-326.66C841.09,-319.76 826.36,-309.74 818,-295.5 796.84,-259.46 810.94,-206.13 817.83,-185.23"/>
<polygon fill="#63b8ff" stroke="#63b8ff" points="854.18,-329.83 864.75,-330.54 856.93,-323.39 854.18,-329.83"/>
</a>
</g>
</g>
<!-- Node16 -->
<g id="Node000016" class="node">
<title>Node16</title>
<g id="a_Node000016"><a xlink:href="_web_socket_8h.html" target="_top" xlink:title=" ">
<polygon fill="white" stroke="#666666" points="1216.12,-129.75 1107.88,-129.75 1107.88,-110.5 1216.12,-110.5 1216.12,-129.75"/>
<text xml:space="preserve" text-anchor="middle" x="1162" y="-116.25" font-family="Helvetica,sans-Serif" font-size="10.00">include/WebSocket.h</text>
</a>
</g>
</g>
<!-- Node1&#45;&gt;Node16 -->
<g id="edge63_Node000001_Node000016" class="edge">
<title>Node1&#45;&gt;Node16</title>
<g id="a_edge63_Node000001_Node000016"><a xlink:title=" ">
<path fill="none" stroke="#63b8ff" d="M957.05,-338.97C1032.46,-336.21 1157.05,-326.88 1189,-295.5 1230.58,-254.66 1230.71,-219.42 1208,-165.75 1201.58,-150.58 1187.21,-138.04 1176.23,-130.15"/>
<polygon fill="#63b8ff" stroke="#63b8ff" points="957.24,-335.46 947.36,-339.3 957.47,-342.46 957.24,-335.46"/>
</a>
</g>
</g>
<!-- Node17 -->
<g id="Node000017" class="node">
<title>Node17</title>
<g id="a_Node000017"><a xlink:href="_file_system_8h.html" target="_top" xlink:title=" ">
<polygon fill="white" stroke="#666666" points="453.75,-129.75 346.25,-129.75 346.25,-110.5 453.75,-110.5 453.75,-129.75"/>
<text xml:space="preserve" text-anchor="middle" x="400" y="-116.25" font-family="Helvetica,sans-Serif" font-size="10.00">include/FileSystem.h</text>
</a>
</g>
</g>
<!-- Node1&#45;&gt;Node17 -->
<g id="edge23_Node000001_Node000017" class="edge">
<title>Node1&#45;&gt;Node17</title>
<g id="a_edge23_Node000001_Node000017"><a xlink:title=" ">
<path fill="none" stroke="#63b8ff" d="M838.71,-339.64C747.92,-337.8 579.91,-329.71 532,-295.5 479.83,-258.25 511.48,-213.76 469,-165.75 455.2,-150.15 434.7,-137.83 419.63,-130.12"/>
<polygon fill="#63b8ff" stroke="#63b8ff" points="838.61,-343.14 848.68,-339.82 838.74,-336.14 838.61,-343.14"/>
</a>
</g>
</g>
<!-- Node18 -->
<g id="Node000018" class="node">
<title>Node18</title>
<g id="a_Node000018"><a xlink:href="_input_pin_controller_8h.html" target="_top" xlink:title=" ">
<polygon fill="white" stroke="#666666" points="770.62,-295.5 635.38,-295.5 635.38,-276.25 770.62,-276.25 770.62,-295.5"/>
<text xml:space="preserve" text-anchor="middle" x="703" y="-282" font-family="Helvetica,sans-Serif" font-size="10.00">include/InputPinController.h</text>
</a>
</g>
</g>
<!-- Node1&#45;&gt;Node18 -->
<g id="edge24_Node000001_Node000018" class="edge">
<title>Node1&#45;&gt;Node18</title>
<g id="a_edge24_Node000001_Node000018"><a xlink:title=" ">
<path fill="none" stroke="#63b8ff" d="M853.85,-328.07C818.15,-318.32 768.65,-304.8 736.24,-295.95"/>
<polygon fill="#63b8ff" stroke="#63b8ff" points="852.89,-331.44 863.46,-330.69 854.74,-324.68 852.89,-331.44"/>
</a>
</g>
</g>
<!-- Node20 -->
<g id="Node000020" class="node">
<title>Node20</title>
<g id="a_Node000020"><a xlink:href="_json_node_8h.html" target="_top" xlink:title=" ">
<polygon fill="white" stroke="#666666" points="694.12,-240.25 591.88,-240.25 591.88,-221 694.12,-221 694.12,-240.25"/>
<text xml:space="preserve" text-anchor="middle" x="643" y="-226.75" font-family="Helvetica,sans-Serif" font-size="10.00">include/JsonNode.h</text>
</a>
</g>
</g>
<!-- Node1&#45;&gt;Node20 -->
<g id="edge26_Node000001_Node000020" class="edge">
<title>Node1&#45;&gt;Node20</title>
<g id="a_edge26_Node000001_Node000020"><a xlink:title=" ">
<path fill="none" stroke="#63b8ff" d="M839.21,-339.04C767.59,-336.34 652.79,-327.05 626,-295.5 612.48,-279.58 626.78,-254.01 636.17,-240.56"/>
<polygon fill="#63b8ff" stroke="#63b8ff" points="838.69,-342.53 848.8,-339.37 838.93,-335.53 838.69,-342.53"/>
</a>
</g>
</g>
<!-- Node21 -->
<g id="Node000021" class="node">
<title>Node21</title>
<g id="a_Node000021"><a xlink:href="_status_handler_8h.html" target="_top" xlink:title=" ">
<polygon fill="white" stroke="#666666" points="459.75,-185 340.25,-185 340.25,-165.75 459.75,-165.75 459.75,-185"/>
<text xml:space="preserve" text-anchor="middle" x="400" y="-171.5" font-family="Helvetica,sans-Serif" font-size="10.00">include/StatusHandler.h</text>
</a>
</g>
</g>
<!-- Node1&#45;&gt;Node21 -->
<g id="edge61_Node000001_Node000021" class="edge">
<title>Node1&#45;&gt;Node21</title>
<g id="a_edge61_Node000001_Node000021"><a xlink:title=" ">
<path fill="none" stroke="#63b8ff" d="M838.98,-340.2C737.09,-339.3 533.41,-332.74 474,-295.5 431.5,-268.86 409.48,-207.96 402.5,-185.18"/>
<polygon fill="#63b8ff" stroke="#63b8ff" points="838.75,-343.69 848.78,-340.26 838.8,-336.69 838.75,-343.69"/>
</a>
</g>
</g>
<!-- Node22 -->
<g id="Node000022" class="node">
<title>Node22</title>
<g id="a_Node000022"><a xlink:href="_sys_status_8h.html" target="_top" xlink:title=" ">
<polygon fill="white" stroke="#666666" points="575.88,-129.75 472.12,-129.75 472.12,-110.5 575.88,-110.5 575.88,-129.75"/>
<text xml:space="preserve" text-anchor="middle" x="524" y="-116.25" font-family="Helvetica,sans-Serif" font-size="10.00">include/SysStatus.h</text>
</a>
</g>
</g>
<!-- Node1&#45;&gt;Node22 -->
<g id="edge62_Node000001_Node000022" class="edge">
<title>Node1&#45;&gt;Node22</title>
<g id="a_edge62_Node000001_Node000022"><a xlink:title=" ">
<path fill="none" stroke="#63b8ff" d="M839,-340.82C750.59,-340.55 589.82,-334.51 550,-295.5 503.21,-249.66 516.48,-158.61 522.09,-129.96"/>
<polygon fill="#63b8ff" stroke="#63b8ff" points="838.94,-344.32 848.95,-340.83 838.95,-337.32 838.94,-344.32"/>
</a>
</g>
</g>
<!-- Node23 -->
<g id="Node000023" class="node">
<title>Node23</title>
<g id="a_Node000023"><a xlink:href="_l_s_c_utils_8h.html" target="_top" xlink:title=" ">
<polygon fill="white" stroke="#666666" points="1160.88,-295.5 1063.12,-295.5 1063.12,-276.25 1160.88,-276.25 1160.88,-295.5"/>
<text xml:space="preserve" text-anchor="middle" x="1112" y="-282" font-family="Helvetica,sans-Serif" font-size="10.00">include/LSCUtils.h</text>
</a>
</g>
</g>
<!-- Node1&#45;&gt;Node23 -->
<g id="edge38_Node000001_Node000023" class="edge">
<title>Node1&#45;&gt;Node23</title>
<g id="a_edge38_Node000001_Node000023"><a xlink:title=" ">
<path fill="none" stroke="#63b8ff" d="M945.43,-328.32C984.69,-318.55 1039.64,-304.88 1075.52,-295.95"/>
<polygon fill="#63b8ff" stroke="#63b8ff" points="944.63,-324.92 935.77,-330.73 946.32,-331.71 944.63,-324.92"/>
</a>
</g>
</g>
<!-- Node25 -->
<g id="Node000025" class="node">
<title>Node25</title>
<g id="a_Node000025"><a xlink:href="_light_switch_8h.html" target="_top" xlink:title=" ">
<polygon fill="white" stroke="#666666" points="968.5,-240.25 859.5,-240.25 859.5,-221 968.5,-221 968.5,-240.25"/>
<text xml:space="preserve" text-anchor="middle" x="914" y="-226.75" font-family="Helvetica,sans-Serif" font-size="10.00">include/LightSwitch.h</text>
</a>
</g>
</g>
<!-- Node1&#45;&gt;Node25 -->
<g id="edge42_Node000001_Node000025" class="edge">
<title>Node1&#45;&gt;Node25</title>
<g id="a_edge42_Node000001_Node000025"><a xlink:title=" ">
<path fill="none" stroke="#63b8ff" d="M940.34,-326.66C954.91,-319.76 969.64,-309.74 978,-295.5 991.51,-272.49 958.86,-251.87 935.39,-240.62"/>
<polygon fill="#63b8ff" stroke="#63b8ff" points="939.07,-323.39 931.25,-330.54 941.82,-329.83 939.07,-323.39"/>
</a>
</g>
</g>
<!-- Node26 -->
<g id="Node000026" class="node">
<title>Node26</title>
<g id="a_Node000026"><a xlink:href="_r_g_b_led_8h.html" target="_top" xlink:title=" ">
<polygon fill="white" stroke="#666666" points="1030.75,-185 935.25,-185 935.25,-165.75 1030.75,-165.75 1030.75,-185"/>
<text xml:space="preserve" text-anchor="middle" x="983" y="-171.5" font-family="Helvetica,sans-Serif" font-size="10.00">include/RGBLed.h</text>
</a>
</g>
</g>
<!-- Node1&#45;&gt;Node26 -->
<g id="edge56_Node000001_Node000026" class="edge">
<title>Node1&#45;&gt;Node26</title>
<g id="a_edge56_Node000001_Node000026"><a xlink:title=" ">
<path fill="none" stroke="#63b8ff" d="M952.1,-327.22C968.37,-320.54 984.43,-310.5 994,-295.5 1016.56,-260.13 996.67,-206.41 987.27,-185.32"/>
<polygon fill="#63b8ff" stroke="#63b8ff" points="951.04,-323.88 942.87,-330.62 953.46,-330.45 951.04,-323.88"/>
</a>
</g>
</g>
<!-- Node27 -->
<g id="Node000027" class="node">
<title>Node27</title>
<g id="a_Node000027"><a xlink:href="_network_8h.html" target="_top" xlink:title=" ">
<polygon fill="white" stroke="#666666" points="1387.38,-185 1292.62,-185 1292.62,-165.75 1387.38,-165.75 1387.38,-185"/>
<text xml:space="preserve" text-anchor="middle" x="1340" y="-171.5" font-family="Helvetica,sans-Serif" font-size="10.00">include/Network.h</text>
</a>
</g>
</g>
<!-- Node1&#45;&gt;Node27 -->
<g id="edge47_Node000001_Node000027" class="edge">
<title>Node1&#45;&gt;Node27</title>
<g id="a_edge47_Node000001_Node000027"><a xlink:title=" ">
<path fill="none" stroke="#63b8ff" d="M956.85,-339.86C1050.53,-338.36 1228.2,-330.79 1279,-295.5 1318.12,-268.33 1333.7,-208.28 1338.36,-185.44"/>
<polygon fill="#63b8ff" stroke="#63b8ff" points="957.04,-336.36 947.09,-340 957.14,-343.36 957.04,-336.36"/>
</a>
</g>
</g>
<!-- Node30 -->
<g id="Node000030" class="node">
<title>Node30</title>
<g id="a_Node000030"><a xlink:href="_security_8h.html" target="_top" xlink:title=" ">
<polygon fill="white" stroke="#666666" points="1568.25,-129.75 1475.75,-129.75 1475.75,-110.5 1568.25,-110.5 1568.25,-129.75"/>
<text xml:space="preserve" text-anchor="middle" x="1522" y="-116.25" font-family="Helvetica,sans-Serif" font-size="10.00">include/Security.h</text>
</a>
</g>
</g>
<!-- Node1&#45;&gt;Node30 -->
<g id="edge57_Node000001_Node000030" class="edge">
<title>Node1&#45;&gt;Node30</title>
<g id="a_edge57_Node000001_Node000030"><a xlink:title=" ">
<path fill="none" stroke="#63b8ff" d="M957.08,-337.61C1053.73,-332.82 1241.01,-320.58 1302,-295.5 1398.91,-255.65 1488.22,-159.74 1514.34,-130.04"/>
<polygon fill="#63b8ff" stroke="#63b8ff" points="957.09,-334.1 947.27,-338.08 957.43,-341.1 957.09,-334.1"/>
</a>
</g>
</g>
<!-- Node31 -->
<g id="Node000031" class="node">
<title>Node31</title>
<g id="a_Node000031"><a xlink:href="_output_pin_controller_8h.html" target="_top" xlink:title=" ">
<polygon fill="white" stroke="#666666" points="969.38,-295.5 826.62,-295.5 826.62,-276.25 969.38,-276.25 969.38,-295.5"/>
<text xml:space="preserve" text-anchor="middle" x="898" y="-282" font-family="Helvetica,sans-Serif" font-size="10.00">include/OutputPinController.h</text>
</a>
</g>
</g>
<!-- Node1&#45;&gt;Node31 -->
<g id="edge54_Node000001_Node000031" class="edge">
<title>Node1&#45;&gt;Node31</title>
<g id="a_edge54_Node000001_Node000031"><a xlink:title=" ">
<path fill="none" stroke="#63b8ff" d="M898,-319.88C898,-311.59 898,-302.42 898,-295.86"/>
<polygon fill="#63b8ff" stroke="#63b8ff" points="894.5,-319.82 898,-329.82 901.5,-319.82 894.5,-319.82"/>
</a>
</g>
</g>
<!-- Node32 -->
<g id="Node000032" class="node">
<title>Node32</title>
<g id="a_Node000032"><a xlink:href="_simple_delay_8h.html" target="_top" xlink:title=" ">
<polygon fill="white" stroke="#666666" points="1199,-185 1087,-185 1087,-165.75 1199,-165.75 1199,-185"/>
<text xml:space="preserve" text-anchor="middle" x="1143" y="-171.5" font-family="Helvetica,sans-Serif" font-size="10.00">include/SimpleDelay.h</text>
</a>
</g>
</g>
<!-- Node1&#45;&gt;Node32 -->
<g id="edge58_Node000001_Node000032" class="edge">
<title>Node1&#45;&gt;Node32</title>
<g id="a_edge58_Node000001_Node000032"><a xlink:title=" ">
<path fill="none" stroke="#63b8ff" d="M956.79,-339.04C1028.41,-336.34 1143.21,-327.05 1170,-295.5 1191.43,-270.26 1178.9,-252.89 1170,-221 1166.2,-207.39 1157.01,-193.8 1150.4,-185.25"/>
<polygon fill="#63b8ff" stroke="#63b8ff" points="957.07,-335.53 947.2,-339.37 957.31,-342.53 957.07,-335.53"/>
</a>
</g>
</g>
<!-- Node33 -->
<g id="Node000033" class="node">
<title>Node33</title>
<g id="a_Node000033"><a xlink:href="base64_8h.html" target="_top" xlink:title=" ">
<polygon fill="white" stroke="#666666" points="1550,-295.5 1444,-295.5 1444,-276.25 1550,-276.25 1550,-295.5"/>
<text xml:space="preserve" text-anchor="middle" x="1497" y="-282" font-family="Helvetica,sans-Serif" font-size="10.00">include/ext/base64.h</text>
</a>
</g>
</g>
<!-- Node1&#45;&gt;Node33 -->
<g id="edge64_Node000001_Node000033" class="edge">
<title>Node1&#45;&gt;Node33</title>
<g id="a_edge64_Node000001_Node000033"><a xlink:title=" ">
<path fill="none" stroke="#63b8ff" d="M957.1,-335.98C1055.23,-328.91 1257.93,-313.53 1429,-295.5 1433.73,-295 1438.65,-294.45 1443.57,-293.87"/>
<polygon fill="#63b8ff" stroke="#63b8ff" points="956.9,-332.48 947.17,-336.69 957.4,-339.47 956.9,-332.48"/>
</a>
</g>
</g>
<!-- Node3 -->
<g id="Node000003" class="node">
<title>Node3</title>
<g id="a_Node000003"><a xlink:href="_m_d_n_s_controller_8h.html" target="_top" xlink:title="MDNS Controller class definition ESP MDNS controller to handle mDNS responder start/stop on WiFi even...">
<polygon fill="white" stroke="#666666" points="699.62,-19.25 570.38,-19.25 570.38,0 699.62,0 699.62,-19.25"/>
<text xml:space="preserve" text-anchor="middle" x="635" y="-5.75" font-family="Helvetica,sans-Serif" font-size="10.00">include/MDNSController.h</text>
</a>
</g>
</g>
<!-- Node2&#45;&gt;Node3 -->
<g id="edge2_Node000002_Node000003" class="edge">
<title>Node2&#45;&gt;Node3</title>
<g id="a_edge2_Node000002_Node000003"><a xlink:title=" ">
<path fill="none" stroke="#63b8ff" d="M627.5,-43.92C629.38,-35.55 631.48,-26.25 632.98,-19.61"/>
<polygon fill="#63b8ff" stroke="#63b8ff" points="624.1,-43.08 625.31,-53.61 630.93,-44.62 624.1,-43.08"/>
</a>
</g>
</g>
<!-- Node2&#45;&gt;Node4 -->
<g id="edge3_Node000002_Node000004" class="edge">
<title>Node2&#45;&gt;Node4</title>
<g id="a_edge3_Node000002_Node000004"><a xlink:title=" ">
<path fill="none" stroke="#63b8ff" d="M577.3,-51.95C539.91,-42.19 487.83,-28.59 453.78,-19.7"/>
<polygon fill="#63b8ff" stroke="#63b8ff" points="576.37,-55.32 586.93,-54.46 578.14,-48.55 576.37,-55.32"/>
</a>
</g>
</g>
<!-- Node5 -->
<g id="Node000005" class="node">
<title>Node5</title>
<g id="a_Node000005"><a xlink:href="_web_server_8h.html" target="_top" xlink:title=" ">
<polygon fill="white" stroke="#666666" points="1225.62,-19.25 1120.38,-19.25 1120.38,0 1225.62,0 1225.62,-19.25"/>
<text xml:space="preserve" text-anchor="middle" x="1173" y="-5.75" font-family="Helvetica,sans-Serif" font-size="10.00">include/WebServer.h</text>
</a>
</g>
</g>
<!-- Node2&#45;&gt;Node5 -->
<g id="edge4_Node000002_Node000005" class="edge">
<title>Node2&#45;&gt;Node5</title>
<g id="a_edge4_Node000002_Node000005"><a xlink:title=" ">
<path fill="none" stroke="#63b8ff" d="M673.38,-60.1C762.15,-53.28 952.15,-37.83 1112,-19.25 1114.66,-18.94 1117.38,-18.61 1120.12,-18.27"/>
<polygon fill="#63b8ff" stroke="#63b8ff" points="673.26,-56.6 663.56,-60.86 673.8,-63.58 673.26,-56.6"/>
</a>
</g>
</g>
<!-- Node6 -->
<g id="Node000006" class="node">
<title>Node6</title>
<g id="a_Node000006"><a xlink:href="_wi_fi_controller_8h.html" target="_top" xlink:title="WiFi Controller to handle Access Point and Station Mode.">
<polygon fill="white" stroke="#666666" points="849.75,-19.25 730.25,-19.25 730.25,0 849.75,0 849.75,-19.25"/>
<text xml:space="preserve" text-anchor="middle" x="790" y="-5.75" font-family="Helvetica,sans-Serif" font-size="10.00">include/WiFiController.h</text>
</a>
</g>
</g>
<!-- Node2&#45;&gt;Node6 -->
<g id="edge5_Node000002_Node000006" class="edge">
<title>Node2&#45;&gt;Node6</title>
<g id="a_edge5_Node000002_Node000006"><a xlink:title=" ">
<path fill="none" stroke="#63b8ff" d="M662.01,-51.44C692.48,-41.72 734.13,-28.44 761.53,-19.7"/>
<polygon fill="#63b8ff" stroke="#63b8ff" points="661.24,-48.01 652.77,-54.38 663.36,-54.68 661.24,-48.01"/>
</a>
</g>
</g>
<!-- Node8 -->
<g id="Node000008" class="node">
<title>Node8</title>
<g id="a_Node000008"><a xlink:href="_battery_measure_8h.html" target="_top" xlink:title=" ">
<polygon fill="white" stroke="#666666" points="235.5,-19.25 108.5,-19.25 108.5,0 235.5,0 235.5,-19.25"/>
<text xml:space="preserve" text-anchor="middle" x="172" y="-5.75" font-family="Helvetica,sans-Serif" font-size="10.00">include/BatteryMeasure.h</text>
</a>
</g>
</g>
<!-- Node7&#45;&gt;Node8 -->
<g id="edge7_Node000007_Node000008" class="edge">
<title>Node7&#45;&gt;Node8</title>
<g id="a_edge7_Node000007_Node000008"><a xlink:title=" ">
<path fill="none" stroke="#63b8ff" d="M190.51,-168.24C138.25,-162.1 73.71,-150.49 57,-129.75 21.47,-85.65 108.72,-38.88 150.83,-19.66"/>
<polygon fill="#63b8ff" stroke="#63b8ff" points="189.95,-171.7 200.28,-169.34 190.73,-164.74 189.95,-171.7"/>
</a>
</g>
</g>
<!-- Node9 -->
<g id="Node000009" class="node">
<title>Node9</title>
<g id="a_Node000009"><a xlink:href="_module_interface_8h.html" target="_top" xlink:title="Full Interface for a module and an abstract basic module implementation.">
<polygon fill="white" stroke="#666666" points="327.88,-129.75 200.12,-129.75 200.12,-110.5 327.88,-110.5 327.88,-129.75"/>
<text xml:space="preserve" text-anchor="middle" x="264" y="-116.25" font-family="Helvetica,sans-Serif" font-size="10.00">include/ModuleInterface.h</text>
</a>
</g>
</g>
<!-- Node7&#45;&gt;Node9 -->
<g id="edge8_Node000007_Node000009" class="edge">
<title>Node7&#45;&gt;Node9</title>
<g id="a_edge8_Node000007_Node000009"><a xlink:title=" ">
<path fill="none" stroke="#63b8ff" d="M262.76,-154.13C263.07,-145.84 263.42,-136.67 263.66,-130.11"/>
<polygon fill="#63b8ff" stroke="#63b8ff" points="259.26,-153.95 262.39,-164.07 266.26,-154.21 259.26,-153.95"/>
</a>
</g>
</g>
<!-- Node12 -->
<g id="Node000012" class="node">
<title>Node12</title>
<g id="a_Node000012"><a xlink:href="_vars_8h.html" target="_top" xlink:title=" ">
<polygon fill="white" stroke="#666666" points="143.75,-129.75 66.25,-129.75 66.25,-110.5 143.75,-110.5 143.75,-129.75"/>
<text xml:space="preserve" text-anchor="middle" x="105" y="-116.25" font-family="Helvetica,sans-Serif" font-size="10.00">include/Vars.h</text>
</a>
</g>
</g>
<!-- Node7&#45;&gt;Node12 -->
<g id="edge13_Node000007_Node000012" class="edge">
<title>Node7&#45;&gt;Node12</title>
<g id="a_edge13_Node000007_Node000012"><a xlink:title=" ">
<path fill="none" stroke="#63b8ff" d="M224.57,-161.68C195.99,-151.99 157.3,-138.86 131.76,-130.2"/>
<polygon fill="#63b8ff" stroke="#63b8ff" points="223.34,-164.96 233.93,-164.86 225.59,-158.33 223.34,-164.96"/>
</a>
</g>
</g>
<!-- Node9&#45;&gt;Node2 -->
<g id="edge9_Node000009_Node000002" class="edge">
<title>Node9&#45;&gt;Node2</title>
<g id="a_edge9_Node000009_Node000002"><a xlink:title=" ">
<path fill="none" stroke="#63b8ff" d="M336.48,-108.37C411.1,-97.31 524.58,-80.47 583.85,-71.68"/>
<polygon fill="#63b8ff" stroke="#63b8ff" points="336.18,-104.88 326.8,-109.81 337.21,-111.8 336.18,-104.88"/>
</a>
</g>
</g>
<!-- Node10 -->
<g id="Node000010" class="node">
<title>Node10</title>
<g id="a_Node000010"><a xlink:href="_appl_module_8h.html" target="_top" xlink:title=" ">
<polygon fill="white" stroke="#666666" points="318.5,-74.5 209.5,-74.5 209.5,-55.25 318.5,-55.25 318.5,-74.5"/>
<text xml:space="preserve" text-anchor="middle" x="264" y="-61" font-family="Helvetica,sans-Serif" font-size="10.00">include/ApplModule.h</text>
</a>
</g>
</g>
<!-- Node9&#45;&gt;Node10 -->
<g id="edge10_Node000009_Node000010" class="edge">
<title>Node9&#45;&gt;Node10</title>
<g id="a_edge10_Node000009_Node000010"><a xlink:title=" ">
<path fill="none" stroke="#63b8ff" d="M264,-98.88C264,-90.59 264,-81.42 264,-74.86"/>
<polygon fill="#63b8ff" stroke="#63b8ff" points="260.5,-98.82 264,-108.82 267.5,-98.82 260.5,-98.82"/>
</a>
</g>
</g>
<!-- Node10&#45;&gt;Node8 -->
<g id="edge11_Node000010_Node000008" class="edge">
<title>Node10&#45;&gt;Node8</title>
<g id="a_edge11_Node000010_Node000008"><a xlink:title=" ">
<path fill="none" stroke="#63b8ff" d="M238.89,-49.34C222.54,-39.88 201.72,-27.83 187.68,-19.7"/>
<polygon fill="#63b8ff" stroke="#63b8ff" points="236.68,-52.1 247.08,-54.08 240.18,-46.04 236.68,-52.1"/>
</a>
</g>
</g>
<!-- Node10&#45;&gt;Node11 -->
<g id="edge12_Node000010_Node000011" class="edge">
<title>Node10&#45;&gt;Node11</title>
<g id="a_edge12_Node000010_Node000011"><a xlink:title=" ">
<path fill="none" stroke="#63b8ff" d="M329.87,-59.35C476.9,-49.25 830.28,-24.97 975.28,-15"/>
<polygon fill="#63b8ff" stroke="#63b8ff" points="330.05,-55.83 320.32,-60.01 330.53,-62.81 330.05,-55.83"/>
</a>
</g>
</g>
<!-- Node12&#45;&gt;Node2 -->
<g id="edge14_Node000012_Node000002" class="edge">
<title>Node12&#45;&gt;Node2</title>
<g id="a_edge14_Node000012_Node000002"><a xlink:title=" ">
<path fill="none" stroke="#63b8ff" d="M155.25,-113.96C258.22,-103.37 491.32,-79.41 583.97,-69.89"/>
<polygon fill="#63b8ff" stroke="#63b8ff" points="155.03,-110.46 145.44,-114.97 155.75,-117.43 155.03,-110.46"/>
</a>
</g>
</g>
<!-- Node13&#45;&gt;Node3 -->
<g id="edge18_Node000013_Node000003" class="edge">
<title>Node13&#45;&gt;Node3</title>
<g id="a_edge18_Node000013_Node000003"><a xlink:title=" ">
<path fill="none" stroke="#63b8ff" d="M808.91,-156.34C799.45,-142.92 785.5,-124.56 771,-110.5 731.25,-71.96 676.07,-35.89 649.9,-19.65"/>
<polygon fill="#63b8ff" stroke="#63b8ff" points="805.8,-157.99 814.35,-164.25 811.57,-154.03 805.8,-157.99"/>
</a>
</g>
</g>
<!-- Node13&#45;&gt;Node9 -->
<g id="edge19_Node000013_Node000009" class="edge">
<title>Node13&#45;&gt;Node9</title>
<g id="a_edge19_Node000013_Node000009"><a xlink:title=" ">
<path fill="none" stroke="#63b8ff" d="M751.11,-168.5C656.96,-160.45 484.23,-145.23 337,-129.75 334.08,-129.44 331.1,-129.12 328.08,-128.79"/>
<polygon fill="#63b8ff" stroke="#63b8ff" points="750.7,-171.98 760.96,-169.34 751.29,-165 750.7,-171.98"/>
</a>
</g>
</g>
<!-- Node14 -->
<g id="Node000014" class="node">
<title>Node14</title>
<g id="a_Node000014"><a xlink:href="_logging_8h.html" target="_top" xlink:title=" ">
<polygon fill="white" stroke="#666666" points="761.88,-129.75 670.12,-129.75 670.12,-110.5 761.88,-110.5 761.88,-129.75"/>
<text xml:space="preserve" text-anchor="middle" x="716" y="-116.25" font-family="Helvetica,sans-Serif" font-size="10.00">include/Logging.h</text>
</a>
</g>
</g>
<!-- Node13&#45;&gt;Node14 -->
<g id="edge16_Node000013_Node000014" class="edge">
<title>Node13&#45;&gt;Node14</title>
<g id="a_edge16_Node000013_Node000014"><a xlink:title=" ">
<path fill="none" stroke="#63b8ff" d="M793.13,-160.24C774.36,-150.72 750.14,-138.44 733.9,-130.2"/>
<polygon fill="#63b8ff" stroke="#63b8ff" points="791.34,-163.26 801.84,-164.66 794.5,-157.01 791.34,-163.26"/>
</a>
</g>
</g>
<!-- Node15 -->
<g id="Node000015" class="node">
<title>Node15</title>
<g id="a_Node000015"><a xlink:href="_sys_status_led_8h.html" target="_top" xlink:title=" ">
<polygon fill="white" stroke="#666666" points="1013.75,-129.75 894.25,-129.75 894.25,-110.5 1013.75,-110.5 1013.75,-129.75"/>
<text xml:space="preserve" text-anchor="middle" x="954" y="-116.25" font-family="Helvetica,sans-Serif" font-size="10.00">include/SysStatusLed.h</text>
</a>
</g>
</g>
<!-- Node13&#45;&gt;Node15 -->
<g id="edge20_Node000013_Node000015" class="edge">
<title>Node13&#45;&gt;Node15</title>
<g id="a_edge20_Node000013_Node000015"><a xlink:title=" ">
<path fill="none" stroke="#63b8ff" d="M854,-161.16C878.07,-151.52 910.08,-138.71 931.33,-130.2"/>
<polygon fill="#63b8ff" stroke="#63b8ff" points="852.95,-157.81 844.97,-164.78 855.55,-164.31 852.95,-157.81"/>
</a>
</g>
</g>
<!-- Node13&#45;&gt;Node16 -->
<g id="edge21_Node000013_Node000016" class="edge">
<title>Node13&#45;&gt;Node16</title>
<g id="a_edge21_Node000013_Node000016"><a xlink:title=" ">
<path fill="none" stroke="#63b8ff" d="M890.44,-163.53C954.55,-153.52 1048.49,-138.85 1107.39,-129.65"/>
<polygon fill="#63b8ff" stroke="#63b8ff" points="890.07,-160.05 880.73,-165.05 891.15,-166.96 890.07,-160.05"/>
</a>
</g>
</g>
<!-- Node14&#45;&gt;Node2 -->
<g id="edge17_Node000014_Node000002" class="edge">
<title>Node14&#45;&gt;Node2</title>
<g id="a_edge17_Node000014_Node000002"><a xlink:title=" ">
<path fill="none" stroke="#63b8ff" d="M690.62,-104.59C674.09,-95.13 653.04,-83.08 638.85,-74.95"/>
<polygon fill="#63b8ff" stroke="#63b8ff" points="688.49,-107.41 698.91,-109.34 691.97,-101.33 688.49,-107.41"/>
</a>
</g>
</g>
<!-- Node16&#45;&gt;Node5 -->
<g id="edge22_Node000016_Node000005" class="edge">
<title>Node16&#45;&gt;Node5</title>
<g id="a_edge22_Node000016_Node000005"><a xlink:title=" ">
<path fill="none" stroke="#63b8ff" d="M1164.03,-99.1C1166.43,-75.4 1170.33,-36.97 1172.09,-19.63"/>
<polygon fill="#63b8ff" stroke="#63b8ff" points="1160.58,-98.44 1163.05,-108.74 1167.54,-99.14 1160.58,-98.44"/>
</a>
</g>
</g>
<!-- Node19 -->
<g id="Node000019" class="node">
<title>Node19</title>
<g id="a_Node000019"><a xlink:href="_button_8h.html" target="_top" xlink:title=" ">
<polygon fill="white" stroke="#666666" points="798.25,-240.25 711.75,-240.25 711.75,-221 798.25,-221 798.25,-240.25"/>
<text xml:space="preserve" text-anchor="middle" x="755" y="-226.75" font-family="Helvetica,sans-Serif" font-size="10.00">include/Button.h</text>
</a>
</g>
</g>
<!-- Node18&#45;&gt;Node19 -->
<g id="edge25_Node000018_Node000019" class="edge">
<title>Node18&#45;&gt;Node19</title>
<g id="a_edge25_Node000018_Node000019"><a xlink:title=" ">
<path fill="none" stroke="#63b8ff" d="M719.41,-268.07C728.29,-258.98 738.91,-248.1 746.23,-240.61"/>
<polygon fill="#63b8ff" stroke="#63b8ff" points="717.13,-265.4 712.64,-275 722.13,-270.29 717.13,-265.4"/>
</a>
</g>
</g>
<!-- Node20&#45;&gt;Node2 -->
<g id="edge27_Node000020_Node000002" class="edge">
<title>Node20&#45;&gt;Node2</title>
<g id="a_edge27_Node000020_Node000002"><a xlink:title=" ">
<path fill="none" stroke="#63b8ff" d="M640.54,-209.47C636.16,-173.61 627.18,-100.1 624.08,-74.72"/>
<polygon fill="#63b8ff" stroke="#63b8ff" points="637.05,-209.82 641.74,-219.32 644,-208.97 637.05,-209.82"/>
</a>
</g>
</g>
<!-- Node20&#45;&gt;Node6 -->
<g id="edge37_Node000020_Node000006" class="edge">
<title>Node20&#45;&gt;Node6</title>
<g id="a_edge37_Node000020_Node000006"><a xlink:title=" ">
<path fill="none" stroke="#63b8ff" d="M662.15,-213.38C677.78,-200.26 700.54,-181.47 721,-165.75 742.71,-149.07 756.63,-153.06 771,-129.75 793.2,-93.74 792.2,-40.39 790.78,-19.48"/>
<polygon fill="#63b8ff" stroke="#63b8ff" points="659.98,-210.64 654.59,-219.76 664.49,-215.99 659.98,-210.64"/>
</a>
</g>
</g>
<!-- Node20&#45;&gt;Node7 -->
<g id="edge28_Node000020_Node000007" class="edge">
<title>Node20&#45;&gt;Node7</title>
<g id="a_edge28_Node000020_Node000007"><a xlink:title=" ">
<path fill="none" stroke="#63b8ff" d="M580.53,-220.89C508.95,-210.89 392.47,-194.61 321.96,-184.76"/>
<polygon fill="#63b8ff" stroke="#63b8ff" points="579.73,-224.32 590.12,-222.23 580.7,-217.38 579.73,-224.32"/>
</a>
</g>
</g>
<!-- Node20&#45;&gt;Node11 -->
<g id="edge29_Node000020_Node000011" class="edge">
<title>Node20&#45;&gt;Node11</title>
<g id="a_edge29_Node000020_Node000011"><a xlink:title=" ">
<path fill="none" stroke="#63b8ff" d="M668.61,-215.04C683.85,-206.35 703.55,-195.08 721,-185 735.7,-176.51 739.21,-174.09 754,-165.75 854.85,-108.91 977.44,-43.36 1021.88,-19.72"/>
<polygon fill="#63b8ff" stroke="#63b8ff" points="667.13,-211.86 660.17,-219.85 670.59,-217.94 667.13,-211.86"/>
</a>
</g>
</g>
<!-- Node20&#45;&gt;Node16 -->
<g id="edge36_Node000020_Node000016" class="edge">
<title>Node20&#45;&gt;Node16</title>
<g id="a_edge36_Node000020_Node000016"><a xlink:title=" ">
<path fill="none" stroke="#63b8ff" d="M705.57,-220.33C766.64,-210.88 855.02,-196.1 888,-185 905.94,-178.96 908.08,-171.85 926,-165.75 986.4,-145.2 1058.9,-133.28 1107.46,-127.01"/>
<polygon fill="#63b8ff" stroke="#63b8ff" points="705.35,-216.82 696,-221.8 706.42,-223.74 705.35,-216.82"/>
</a>
</g>
</g>
<!-- Node20&#45;&gt;Node21 -->
<g id="edge30_Node000020_Node000021" class="edge">
<title>Node20&#45;&gt;Node21</title>
<g id="a_edge30_Node000020_Node000021"><a xlink:title=" ">
<path fill="none" stroke="#63b8ff" d="M590.28,-218.07C545.6,-208.28 482.42,-194.44 441.33,-185.43"/>
<polygon fill="#63b8ff" stroke="#63b8ff" points="589.51,-221.49 600.02,-220.21 591.01,-214.65 589.51,-221.49"/>
</a>
</g>
</g>
<!-- Node21&#45;&gt;Node8 -->
<g id="edge31_Node000021_Node000008" class="edge">
<title>Node21&#45;&gt;Node8</title>
<g id="a_edge31_Node000021_Node000008"><a xlink:title=" ">
<path fill="none" stroke="#63b8ff" d="M330,-163.44C273.11,-153.9 200.74,-140.02 191,-129.75 161.59,-98.76 166.99,-41.52 170.39,-19.54"/>
<polygon fill="#63b8ff" stroke="#63b8ff" points="329.22,-166.85 339.65,-165.04 330.36,-159.95 329.22,-166.85"/>
</a>
</g>
</g>
<!-- Node21&#45;&gt;Node9 -->
<g id="edge33_Node000021_Node000009" class="edge">
<title>Node21&#45;&gt;Node9</title>
<g id="a_edge33_Node000021_Node000009"><a xlink:title=" ">
<path fill="none" stroke="#63b8ff" d="M366.26,-161.16C341.64,-151.52 308.91,-138.71 287.18,-130.2"/>
<polygon fill="#63b8ff" stroke="#63b8ff" points="364.93,-164.4 375.52,-164.79 367.48,-157.88 364.93,-164.4"/>
</a>
</g>
</g>
<!-- Node21&#45;&gt;Node17 -->
<g id="edge32_Node000021_Node000017" class="edge">
<title>Node21&#45;&gt;Node17</title>
<g id="a_edge32_Node000021_Node000017"><a xlink:title=" ">
<path fill="none" stroke="#63b8ff" d="M400,-154.13C400,-145.84 400,-136.67 400,-130.11"/>
<polygon fill="#63b8ff" stroke="#63b8ff" points="396.5,-154.07 400,-164.07 403.5,-154.07 396.5,-154.07"/>
</a>
</g>
</g>
<!-- Node21&#45;&gt;Node22 -->
<g id="edge34_Node000021_Node000022" class="edge">
<title>Node21&#45;&gt;Node22</title>
<g id="a_edge34_Node000021_Node000022"><a xlink:title=" ">
<path fill="none" stroke="#63b8ff" d="M431.37,-160.9C453.75,-151.29 483.23,-138.63 502.86,-130.2"/>
<polygon fill="#63b8ff" stroke="#63b8ff" points="430.23,-157.58 422.43,-164.74 433,-164.01 430.23,-157.58"/>
</a>
</g>
</g>
<!-- Node22&#45;&gt;Node2 -->
<g id="edge35_Node000022_Node000002" class="edge">
<title>Node22&#45;&gt;Node2</title>
<g id="a_edge35_Node000022_Node000002"><a xlink:title=" ">
<path fill="none" stroke="#63b8ff" d="M550.52,-104.86C568.19,-95.36 590.88,-83.15 606.12,-74.95"/>
<polygon fill="#63b8ff" stroke="#63b8ff" points="549.28,-101.56 542.13,-109.37 552.59,-107.72 549.28,-101.56"/>
</a>
</g>
</g>
<!-- Node24 -->
<g id="Node000024" class="node">
<title>Node24</title>
<g id="a_Node000024"><a xlink:href="_named_value_table_8h.html" target="_top" xlink:title=" ">
<polygon fill="white" stroke="#666666" points="1161.38,-240.25 1024.62,-240.25 1024.62,-221 1161.38,-221 1161.38,-240.25"/>
<text xml:space="preserve" text-anchor="middle" x="1093" y="-226.75" font-family="Helvetica,sans-Serif" font-size="10.00">include/NamedValueTable.h</text>
</a>
</g>
</g>
<!-- Node23&#45;&gt;Node24 -->
<g id="edge39_Node000023_Node000024" class="edge">
<title>Node23&#45;&gt;Node24</title>
<g id="a_edge39_Node000023_Node000024"><a xlink:title=" ">
<path fill="none" stroke="#63b8ff" d="M1105.09,-265.5C1102.05,-256.99 1098.63,-247.4 1096.21,-240.61"/>
<polygon fill="#63b8ff" stroke="#63b8ff" points="1101.7,-266.41 1108.35,-274.66 1108.29,-264.06 1101.7,-266.41"/>
</a>
</g>
</g>
<!-- Node24&#45;&gt;Node11 -->
<g id="edge41_Node000024_Node000011" class="edge">
<title>Node24&#45;&gt;Node11</title>
<g id="a_edge41_Node000024_Node000011"><a xlink:title=" ">
<path fill="none" stroke="#63b8ff" d="M1085.91,-209.99C1083.24,-202.26 1080.31,-193.27 1078,-185 1060.49,-122.25 1045.46,-45.11 1040.63,-19.41"/>
<polygon fill="#63b8ff" stroke="#63b8ff" points="1082.6,-211.13 1089.23,-219.39 1089.2,-208.8 1082.6,-211.13"/>
</a>
</g>
</g>
<!-- Node24&#45;&gt;Node13 -->
<g id="edge40_Node000024_Node000013" class="edge">
<title>Node24&#45;&gt;Node13</title>
<g id="a_edge40_Node000024_Node000013"><a xlink:title=" ">
<path fill="none" stroke="#63b8ff" d="M1035.26,-218.32C985.18,-208.52 913.64,-194.51 867.26,-185.43"/>
<polygon fill="#63b8ff" stroke="#63b8ff" points="1034.58,-221.75 1045.07,-220.24 1035.92,-214.88 1034.58,-221.75"/>
</a>
</g>
</g>
<!-- Node25&#45;&gt;Node26 -->
<g id="edge43_Node000025_Node000026" class="edge">
<title>Node25&#45;&gt;Node26</title>
<g id="a_edge43_Node000025_Node000026"><a xlink:title=" ">
<path fill="none" stroke="#63b8ff" d="M934.65,-213.69C946.7,-204.39 961.45,-193.01 971.47,-185.27"/>
<polygon fill="#63b8ff" stroke="#63b8ff" points="932.68,-210.79 926.9,-219.67 936.96,-216.33 932.68,-210.79"/>
</a>
</g>
</g>
<!-- Node26&#45;&gt;Node15 -->
<g id="edge44_Node000026_Node000015" class="edge">
<title>Node26&#45;&gt;Node15</title>
<g id="a_edge44_Node000026_Node000015"><a xlink:title=" ">
<path fill="none" stroke="#63b8ff" d="M972.76,-155.58C968.05,-146.92 962.68,-137.06 958.89,-130.11"/>
<polygon fill="#63b8ff" stroke="#63b8ff" points="969.63,-157.14 977.49,-164.25 975.78,-153.8 969.63,-157.14"/>
</a>
</g>
</g>
<!-- Node27&#45;&gt;Node5 -->
<g id="edge51_Node000027_Node000005" class="edge">
<title>Node27&#45;&gt;Node5</title>
<g id="a_edge51_Node000027_Node000005"><a xlink:title=" ">
<path fill="none" stroke="#63b8ff" d="M1388.78,-161.23C1404.37,-154.47 1419.93,-144.45 1429,-129.75 1446.39,-101.57 1450.31,-80.59 1429,-55.25 1403.6,-25.03 1293.3,-15.28 1226.04,-12.13"/>
<polygon fill="#63b8ff" stroke="#63b8ff" points="1387.52,-157.97 1379.47,-164.86 1390.06,-164.49 1387.52,-157.97"/>
</a>
</g>
</g>
<!-- Node27&#45;&gt;Node6 -->
<g id="edge53_Node000027_Node000006" class="edge">
<title>Node27&#45;&gt;Node6</title>
<g id="a_edge53_Node000027_Node000006"><a xlink:title=" ">
<path fill="none" stroke="#63b8ff" d="M1317.15,-159.14C1294.59,-144.72 1258.69,-123.42 1225,-110.5 1095.87,-60.96 935.33,-31.95 849.96,-18.92"/>
<polygon fill="#63b8ff" stroke="#63b8ff" points="1315.24,-162.07 1325.53,-164.58 1319.05,-156.2 1315.24,-162.07"/>
</a>
</g>
</g>
<!-- Node27&#45;&gt;Node16 -->
<g id="edge52_Node000027_Node000016" class="edge">
<title>Node27&#45;&gt;Node16</title>
<g id="a_edge52_Node000027_Node000016"><a xlink:title=" ">
<path fill="none" stroke="#63b8ff" d="M1298.85,-162.07C1266.33,-152.34 1221.67,-138.98 1192.34,-130.2"/>
<polygon fill="#63b8ff" stroke="#63b8ff" points="1297.77,-165.4 1308.35,-164.91 1299.78,-158.69 1297.77,-165.4"/>
</a>
</g>
</g>
<!-- Node28 -->
<g id="Node000028" class="node">
<title>Node28</title>
<g id="a_Node000028"><a xlink:href="_a_e_s_cryptor_8h.html" target="_top" xlink:title=" ">
<polygon fill="white" stroke="#666666" points="1419.88,-129.75 1310.12,-129.75 1310.12,-110.5 1419.88,-110.5 1419.88,-129.75"/>
<text xml:space="preserve" text-anchor="middle" x="1365" y="-116.25" font-family="Helvetica,sans-Serif" font-size="10.00">include/AESCryptor.h</text>
</a>
</g>
</g>
<!-- Node27&#45;&gt;Node28 -->
<g id="edge48_Node000027_Node000028" class="edge">
<title>Node27&#45;&gt;Node28</title>
<g id="a_edge48_Node000027_Node000028"><a xlink:title=" ">
<path fill="none" stroke="#63b8ff" d="M1348.96,-155.29C1352.99,-146.71 1357.56,-136.98 1360.78,-130.11"/>
<polygon fill="#63b8ff" stroke="#63b8ff" points="1345.85,-153.67 1344.77,-164.21 1352.19,-156.65 1345.85,-153.67"/>
</a>
</g>
</g>
<!-- Node27&#45;&gt;Node30 -->
<g id="edge50_Node000027_Node000030" class="edge">
<title>Node27&#45;&gt;Node30</title>
<g id="a_edge50_Node000027_Node000030"><a xlink:title=" ">
<path fill="none" stroke="#63b8ff" d="M1381.64,-162.19C1414.93,-152.45 1460.85,-139.02 1490.97,-130.2"/>
<polygon fill="#63b8ff" stroke="#63b8ff" points="1380.94,-158.75 1372.33,-164.92 1382.91,-165.47 1380.94,-158.75"/>
</a>
</g>
</g>
<!-- Node29 -->
<g id="Node000029" class="node">
<title>Node29</title>
<g id="a_Node000029"><a xlink:href="_access_token_8h.html" target="_top" xlink:title=" ">
<polygon fill="white" stroke="#666666" points="1419.62,-74.5 1302.38,-74.5 1302.38,-55.25 1419.62,-55.25 1419.62,-74.5"/>
<text xml:space="preserve" text-anchor="middle" x="1361" y="-61" font-family="Helvetica,sans-Serif" font-size="10.00">include/AccessToken.h</text>
</a>
</g>
</g>
<!-- Node28&#45;&gt;Node29 -->
<g id="edge49_Node000028_Node000029" class="edge">
<title>Node28&#45;&gt;Node29</title>
<g id="a_edge49_Node000028_Node000029"><a xlink:title=" ">
<path fill="none" stroke="#63b8ff" d="M1363.48,-98.88C1362.86,-90.59 1362.17,-81.42 1361.67,-74.86"/>
<polygon fill="#63b8ff" stroke="#63b8ff" points="1359.99,-99.11 1364.23,-108.82 1366.97,-98.59 1359.99,-99.11"/>
</a>
</g>
</g>
<!-- Node31&#45;&gt;Node25 -->
<g id="edge55_Node000031_Node000025" class="edge">
<title>Node31&#45;&gt;Node25</title>
<g id="a_edge55_Node000031_Node000025"><a xlink:title=" ">
<path fill="none" stroke="#63b8ff" d="M903.91,-265.21C906.44,-256.77 909.28,-247.33 911.3,-240.61"/>
<polygon fill="#63b8ff" stroke="#63b8ff" points="900.6,-264.05 901.08,-274.63 907.31,-266.06 900.6,-264.05"/>
</a>
</g>
</g>
<!-- Node32&#45;&gt;Node11 -->
<g id="edge59_Node000032_Node000011" class="edge">
<title>Node32&#45;&gt;Node11</title>
<g id="a_edge59_Node000032_Node000011"><a xlink:title=" ">
<path fill="none" stroke="#63b8ff" d="M1123.88,-157.53C1115.6,-149.62 1106.17,-139.75 1099,-129.75 1071.86,-91.93 1050.35,-40.06 1042.36,-19.52"/>
<polygon fill="#63b8ff" stroke="#63b8ff" points="1121.42,-160.02 1131.15,-164.22 1126.17,-154.88 1121.42,-160.02"/>
</a>
</g>
</g>
<!-- Node32&#45;&gt;Node16 -->
<g id="edge60_Node000032_Node000016" class="edge">
<title>Node32&#45;&gt;Node16</title>
<g id="a_edge60_Node000032_Node000016"><a xlink:title=" ">
<path fill="none" stroke="#63b8ff" d="M1149.91,-155C1152.95,-146.49 1156.37,-136.9 1158.79,-130.11"/>
<polygon fill="#63b8ff" stroke="#63b8ff" points="1146.71,-153.56 1146.65,-164.16 1153.3,-155.91 1146.71,-153.56"/>
</a>
</g>
</g>
<!-- Node34 -->
<g id="Node000034" class="node">
<title>Node34</title>
<g id="a_Node000034"><a xlink:href="_base64_data_8h.html" target="_top" xlink:title=" ">
<polygon fill="white" stroke="#666666" points="1555,-240.25 1443,-240.25 1443,-221 1555,-221 1555,-240.25"/>
<text xml:space="preserve" text-anchor="middle" x="1499" y="-226.75" font-family="Helvetica,sans-Serif" font-size="10.00">include/Base64Data.h</text>
</a>
</g>
</g>
<!-- Node33&#45;&gt;Node34 -->
<g id="edge65_Node000033_Node000034" class="edge">
<title>Node33&#45;&gt;Node34</title>
<g id="a_edge65_Node000033_Node000034"><a xlink:title=" ">
<path fill="none" stroke="#63b8ff" d="M1497.76,-264.63C1498.07,-256.34 1498.42,-247.17 1498.66,-240.61"/>
<polygon fill="#63b8ff" stroke="#63b8ff" points="1494.26,-264.45 1497.39,-274.57 1501.26,-264.71 1494.26,-264.45"/>
</a>
</g>
</g>
</g>
</svg>
