<?xml version="1.0" encoding="UTF-8" standalone="no"?>
<!DOCTYPE svg PUBLIC "-//W3C//DTD SVG 1.1//EN"
 "http://www.w3.org/Graphics/SVG/1.1/DTD/svg11.dtd">
<!-- Generated by graphviz version 15.1.0 (20260618.0150)
 -->
<!-- Title: include/Security.h Pages: 1 -->
<svg width="191pt" height="193pt"
 viewBox="0.00 0.00 191.00 193.00" xmlns="http://www.w3.org/2000/svg" xmlns:xlink="http://www.w3.org/1999/xlink">
<g id="graph0" class="graph" transform="scale(1 1) rotate(0) translate(4 189)">
<title>include/Security.h</title>
<!-- Node1 -->
<g id="Node000001" class="node">
<title>Node1</title>
<g id="a_Node000001"><a xlink:title=" ">
<polygon fill="#999999" stroke="#666666" points="135.38,-185 42.88,-185 42.88,-165.75 135.38,-165.75 135.38,-185"/>
<text xml:space="preserve" text-anchor="middle" x="89.12" y="-171.5" font-family="Helvetica,sans-Serif" font-size="10.00">include/Security.h</text>
</a>
</g>
</g>
<!-- Node2 -->
<g id="Node000002" class="node">
<title>Node2</title>
<g id="a_Node000002"><a xlink:href="_runtime_8h.html" target="_top" xlink:title=" ">
<polygon fill="white" stroke="#666666" points="119.62,-74.5 58.62,-74.5 58.62,-55.25 119.62,-55.25 119.62,-74.5"/>
<text xml:space="preserve" text-anchor="middle" x="89.12" y="-61" font-family="Helvetica,sans-Serif" font-size="10.00">Runtime.h</text>
</a>
</g>
</g>
<!-- Node1&#45;&gt;Node2 -->
<g id="edge1_Node000001_Node000002" class="edge">
<title>Node1&#45;&gt;Node2</title>
<g id="a_edge1_Node000001_Node000002"><a xlink:title=" ">
<path fill="none" stroke="#63b8ff" d="M86.17,-165.31C82.49,-152.96 76.95,-130.14 79.12,-110.5 80.03,-102.31 81.85,-93.43 83.68,-85.76"/>
<polygon fill="#63b8ff" stroke="#63b8ff" points="87.06,-86.69 86.17,-76.13 80.28,-84.94 87.06,-86.69"/>
</a>
</g>
</g>
<!-- Node6 -->
<g id="Node000006" class="node">
<title>Node6</title>
<g id="a_Node000006"><a xlink:href="_network_8h.html" target="_top" xlink:title=" ">
<polygon fill="white" stroke="#666666" points="149.62,-129.75 88.62,-129.75 88.62,-110.5 149.62,-110.5 149.62,-129.75"/>
<text xml:space="preserve" text-anchor="middle" x="119.12" y="-116.25" font-family="Helvetica,sans-Serif" font-size="10.00">Network.h</text>
</a>
</g>
</g>
<!-- Node1&#45;&gt;Node6 -->
<g id="edge5_Node000001_Node000006" class="edge">
<title>Node1&#45;&gt;Node6</title>
<g id="a_edge5_Node000001_Node000006"><a xlink:title=" ">
<path fill="none" stroke="#63b8ff" d="M94.08,-165.58C98.01,-158.61 103.64,-148.62 108.56,-139.87"/>
<polygon fill="#63b8ff" stroke="#63b8ff" points="111.46,-141.86 113.32,-131.43 105.36,-138.42 111.46,-141.86"/>
</a>
</g>
</g>
<!-- Node3 -->
<g id="Node000003" class="node">
<title>Node3</title>
<g id="a_Node000003"><a xlink:title=" ">
<polygon fill="#e0e0e0" stroke="#999999" points="48.25,-19.25 0,-19.25 0,0 48.25,0 48.25,-19.25"/>
<text xml:space="preserve" text-anchor="middle" x="24.12" y="-5.75" font-family="Helvetica,sans-Serif" font-size="10.00">string.h</text>
</a>
</g>
</g>
<!-- Node2&#45;&gt;Node3 -->
<g id="edge2_Node000002_Node000003" class="edge">
<title>Node2&#45;&gt;Node3</title>
<g id="a_edge2_Node000002_Node000003"><a xlink:title=" ">
<path fill="none" stroke="#63b8ff" d="M78.1,-54.84C68.7,-47.15 54.98,-35.9 43.72,-26.68"/>
<polygon fill="#63b8ff" stroke="#63b8ff" points="46.11,-24.11 36.16,-20.48 41.68,-29.53 46.11,-24.11"/>
</a>
</g>
</g>
<!-- Node4 -->
<g id="Node000004" class="node">
<title>Node4</title>
<g id="a_Node000004"><a xlink:title=" ">
<polygon fill="#e0e0e0" stroke="#999999" points="111.75,-19.25 66.5,-19.25 66.5,0 111.75,0 111.75,-19.25"/>
<text xml:space="preserve" text-anchor="middle" x="89.12" y="-5.75" font-family="Helvetica,sans-Serif" font-size="10.00">chrono</text>
</a>
</g>
</g>
<!-- Node2&#45;&gt;Node4 -->
<g id="edge3_Node000002_Node000004" class="edge">
<title>Node2&#45;&gt;Node4</title>
<g id="a_edge3_Node000002_Node000004"><a xlink:title=" ">
<path fill="none" stroke="#63b8ff" d="M89.12,-55.08C89.12,-48.57 89.12,-39.42 89.12,-31.12"/>
<polygon fill="#63b8ff" stroke="#63b8ff" points="92.63,-31.12 89.13,-21.12 85.63,-31.12 92.63,-31.12"/>
</a>
</g>
</g>
<!-- Node5 -->
<g id="Node000005" class="node">
<title>Node5</title>
<g id="a_Node000005"><a xlink:title=" ">
<polygon fill="#e0e0e0" stroke="#999999" points="182.88,-19.25 129.38,-19.25 129.38,0 182.88,0 182.88,-19.25"/>
<text xml:space="preserve" text-anchor="middle" x="156.12" y="-5.75" font-family="Helvetica,sans-Serif" font-size="10.00">iostream</text>
</a>
</g>
</g>
<!-- Node2&#45;&gt;Node5 -->
<g id="edge4_Node000002_Node000005" class="edge">
<title>Node2&#45;&gt;Node5</title>
<g id="a_edge4_Node000002_Node000005"><a xlink:title=" ">
<path fill="none" stroke="#63b8ff" d="M100.49,-54.84C110.17,-47.15 124.32,-35.9 135.93,-26.68"/>
<polygon fill="#63b8ff" stroke="#63b8ff" points="138.09,-29.43 143.74,-20.47 133.74,-23.95 138.09,-29.43"/>
</a>
</g>
</g>
<!-- Node6&#45;&gt;Node2 -->
<g id="edge6_Node000006_Node000002" class="edge">
<title>Node6&#45;&gt;Node2</title>
<g id="a_edge6_Node000006_Node000002"><a xlink:title=" ">
<path fill="none" stroke="#63b8ff" d="M114.17,-110.33C110.24,-103.36 104.61,-93.37 99.69,-84.62"/>
<polygon fill="#63b8ff" stroke="#63b8ff" points="102.89,-83.17 94.93,-76.18 96.79,-86.61 102.89,-83.17"/>
</a>
</g>
</g>
</g>
</svg>
