<?xml version="1.0" encoding="UTF-8" standalone="no"?>
<!DOCTYPE svg PUBLIC "-//W3C//DTD SVG 1.1//EN"
 "http://www.w3.org/Graphics/SVG/1.1/DTD/svg11.dtd">
<!-- Generated by graphviz version 15.1.0 (20260618.0150)
 -->
<!-- Title: include/Security.h Pages: 1 -->
<svg width="242pt" height="83pt"
 viewBox="0.00 0.00 242.00 83.00" xmlns="http://www.w3.org/2000/svg" xmlns:xlink="http://www.w3.org/1999/xlink">
<g id="graph0" class="graph" transform="scale(1 1) rotate(0) translate(4 78.5)">
<title>include/Security.h</title>
<!-- Node1 -->
<g id="Node000001" class="node">
<title>Node1</title>
<g id="a_Node000001"><a xlink:title=" ">
<polygon fill="#999999" stroke="#666666" points="162.25,-74.5 69.75,-74.5 69.75,-55.25 162.25,-55.25 162.25,-74.5"/>
<text xml:space="preserve" text-anchor="middle" x="116" y="-61" font-family="Helvetica,sans-Serif" font-size="10.00">include/Security.h</text>
</a>
</g>
</g>
<!-- Node2 -->
<g id="Node000002" class="node">
<title>Node2</title>
<g id="a_Node000002"><a xlink:href="_c_web_server_8cpp.html" target="_top" xlink:title=" ">
<polygon fill="white" stroke="#666666" points="106,-19.25 0,-19.25 0,0 106,0 106,-19.25"/>
<text xml:space="preserve" text-anchor="middle" x="53" y="-5.75" font-family="Helvetica,sans-Serif" font-size="10.00">src/CWebServer.cpp</text>
</a>
</g>
</g>
<!-- Node1&#45;&gt;Node2 -->
<g id="edge1_Node000001_Node000002" class="edge">
<title>Node1&#45;&gt;Node2</title>
<g id="a_edge1_Node000001_Node000002"><a xlink:title=" ">
<path fill="none" stroke="#63b8ff" d="M96.82,-47.66C85.88,-38.42 72.59,-27.18 63.53,-19.52"/>
<polygon fill="#63b8ff" stroke="#63b8ff" points="94.26,-50.08 104.16,-53.86 98.78,-44.74 94.26,-50.08"/>
</a>
</g>
</g>
<!-- Node3 -->
<g id="Node000003" class="node">
<title>Node3</title>
<g id="a_Node000003"><a xlink:href="_c_web_socket_8cpp.html" target="_top" xlink:title="Implementation of the CWebSocket class.">
<polygon fill="white" stroke="#666666" points="233.5,-19.25 124.5,-19.25 124.5,0 233.5,0 233.5,-19.25"/>
<text xml:space="preserve" text-anchor="middle" x="179" y="-5.75" font-family="Helvetica,sans-Serif" font-size="10.00">src/CWebSocket.cpp</text>
</a>
</g>
</g>
<!-- Node1&#45;&gt;Node3 -->
<g id="edge2_Node000001_Node000003" class="edge">
<title>Node1&#45;&gt;Node3</title>
<g id="a_edge2_Node000001_Node000003"><a xlink:title=" ">
<path fill="none" stroke="#63b8ff" d="M135.18,-47.66C146.12,-38.42 159.41,-27.18 168.47,-19.52"/>
<polygon fill="#63b8ff" stroke="#63b8ff" points="133.22,-44.74 127.84,-53.86 137.74,-50.08 133.22,-44.74"/>
</a>
</g>
</g>
</g>
</svg>
