<?xml version="1.0" encoding="UTF-8" standalone="no"?>
<!DOCTYPE svg PUBLIC "-//W3C//DTD SVG 1.1//EN"
 "http://www.w3.org/Graphics/SVG/1.1/DTD/svg11.dtd">
<!-- Generated by graphviz version 15.1.0 (20260618.0150)
 -->
<!-- Title: include/SimpleDelay.h Pages: 1 -->
<svg width="262pt" height="138pt"
 viewBox="0.00 0.00 262.00 138.00" xmlns="http://www.w3.org/2000/svg" xmlns:xlink="http://www.w3.org/1999/xlink">
<g id="graph0" class="graph" transform="scale(1 1) rotate(0) translate(4 133.75)">
<title>include/SimpleDelay.h</title>
<!-- Node1 -->
<g id="Node000001" class="node">
<title>Node1</title>
<g id="a_Node000001"><a xlink:title=" ">
<polygon fill="#999999" stroke="#666666" points="187.5,-129.75 75.5,-129.75 75.5,-110.5 187.5,-110.5 187.5,-129.75"/>
<text xml:space="preserve" text-anchor="middle" x="131.5" y="-116.25" font-family="Helvetica,sans-Serif" font-size="10.00">include/SimpleDelay.h</text>
</a>
</g>
</g>
<!-- Node2 -->
<g id="Node000002" class="node">
<title>Node2</title>
<g id="a_Node000002"><a xlink:href="_m_q_t_t_controller_8h.html" target="_top" xlink:title=" ">
<polygon fill="white" stroke="#666666" points="127,-74.5 0,-74.5 0,-55.25 127,-55.25 127,-74.5"/>
<text xml:space="preserve" text-anchor="middle" x="63.5" y="-61" font-family="Helvetica,sans-Serif" font-size="10.00">include/MQTTController.h</text>
</a>
</g>
</g>
<!-- Node1&#45;&gt;Node2 -->
<g id="edge1_Node000001_Node000002" class="edge">
<title>Node1&#45;&gt;Node2</title>
<g id="a_edge1_Node000001_Node000002"><a xlink:title=" ">
<path fill="none" stroke="#63b8ff" d="M111.15,-103.19C99.28,-93.89 84.74,-82.51 74.86,-74.77"/>
<polygon fill="#63b8ff" stroke="#63b8ff" points="108.74,-105.75 118.77,-109.16 113.06,-100.24 108.74,-105.75"/>
</a>
</g>
</g>
<!-- Node3 -->
<g id="Node000003" class="node">
<title>Node3</title>
<g id="a_Node000003"><a xlink:href="_web_socket_8h.html" target="_top" xlink:title=" ">
<polygon fill="white" stroke="#666666" points="253.62,-74.5 145.38,-74.5 145.38,-55.25 253.62,-55.25 253.62,-74.5"/>
<text xml:space="preserve" text-anchor="middle" x="199.5" y="-61" font-family="Helvetica,sans-Serif" font-size="10.00">include/WebSocket.h</text>
</a>
</g>
</g>
<!-- Node1&#45;&gt;Node3 -->
<g id="edge2_Node000001_Node000003" class="edge">
<title>Node1&#45;&gt;Node3</title>
<g id="a_edge2_Node000001_Node000003"><a xlink:title=" ">
<path fill="none" stroke="#63b8ff" d="M151.85,-103.19C163.72,-93.89 178.26,-82.51 188.14,-74.77"/>
<polygon fill="#63b8ff" stroke="#63b8ff" points="149.94,-100.24 144.23,-109.16 154.26,-105.75 149.94,-100.24"/>
</a>
</g>
</g>
<!-- Node4 -->
<g id="Node000004" class="node">
<title>Node4</title>
<g id="a_Node000004"><a xlink:href="_web_server_8h.html" target="_top" xlink:title=" ">
<polygon fill="white" stroke="#666666" points="252.12,-19.25 146.88,-19.25 146.88,0 252.12,0 252.12,-19.25"/>
<text xml:space="preserve" text-anchor="middle" x="199.5" y="-5.75" font-family="Helvetica,sans-Serif" font-size="10.00">include/WebServer.h</text>
</a>
</g>
</g>
<!-- Node3&#45;&gt;Node4 -->
<g id="edge3_Node000003_Node000004" class="edge">
<title>Node3&#45;&gt;Node4</title>
<g id="a_edge3_Node000003_Node000004"><a xlink:title=" ">
<path fill="none" stroke="#63b8ff" d="M199.5,-43.63C199.5,-35.34 199.5,-26.17 199.5,-19.61"/>
<polygon fill="#63b8ff" stroke="#63b8ff" points="196,-43.57 199.5,-53.57 203,-43.57 196,-43.57"/>
</a>
</g>
</g>
</g>
</svg>
