<?xml version="1.0" encoding="UTF-8" standalone="no"?>
<!DOCTYPE svg PUBLIC "-//W3C//DTD SVG 1.1//EN"
 "http://www.w3.org/Graphics/SVG/1.1/DTD/svg11.dtd">
<!-- Generated by graphviz version 15.1.0 (20260618.0150)
 -->
<!-- Title: include/SysStatusLed.h Pages: 1 -->
<svg width="566pt" height="304pt"
 viewBox="0.00 0.00 566.00 304.00" xmlns="http://www.w3.org/2000/svg" xmlns:xlink="http://www.w3.org/1999/xlink">
<g id="graph0" class="graph" transform="scale(1 1) rotate(0) translate(4 299.5)">
<title>include/SysStatusLed.h</title>
<!-- Node1 -->
<g id="Node000001" class="node">
<title>Node1</title>
<g id="a_Node000001"><a xlink:title=" ">
<polygon fill="#999999" stroke="#666666" points="303.25,-295.5 183.75,-295.5 183.75,-276.25 303.25,-276.25 303.25,-295.5"/>
<text xml:space="preserve" text-anchor="middle" x="243.5" y="-282" font-family="Helvetica,sans-Serif" font-size="10.00">include/SysStatusLed.h</text>
</a>
</g>
</g>
<!-- Node2 -->
<g id="Node000002" class="node">
<title>Node2</title>
<g id="a_Node000002"><a xlink:href="_r_g_b_led_8h.html" target="_top" xlink:title=" ">
<polygon fill="white" stroke="#666666" points="206.38,-240.25 144.62,-240.25 144.62,-221 206.38,-221 206.38,-240.25"/>
<text xml:space="preserve" text-anchor="middle" x="175.5" y="-226.75" font-family="Helvetica,sans-Serif" font-size="10.00">RGBLed.h</text>
</a>
</g>
</g>
<!-- Node1&#45;&gt;Node2 -->
<g id="edge1_Node000001_Node000002" class="edge">
<title>Node1&#45;&gt;Node2</title>
<g id="a_edge1_Node000001_Node000002"><a xlink:title=" ">
<path fill="none" stroke="#63b8ff" d="M231.96,-275.84C222.04,-268.07 207.49,-256.67 195.64,-247.4"/>
<polygon fill="#63b8ff" stroke="#63b8ff" points="198.09,-244.87 188.06,-241.46 193.77,-250.38 198.09,-244.87"/>
</a>
</g>
</g>
<!-- Node10 -->
<g id="Node000010" class="node">
<title>Node10</title>
<g id="a_Node000010"><a xlink:href="_event_handler_8h.html" target="_top" xlink:title=" ">
<polygon fill="white" stroke="#666666" points="352.88,-240.25 270.12,-240.25 270.12,-221 352.88,-221 352.88,-240.25"/>
<text xml:space="preserve" text-anchor="middle" x="311.5" y="-226.75" font-family="Helvetica,sans-Serif" font-size="10.00">EventHandler.h</text>
</a>
</g>
</g>
<!-- Node1&#45;&gt;Node10 -->
<g id="edge11_Node000001_Node000010" class="edge">
<title>Node1&#45;&gt;Node10</title>
<g id="a_edge11_Node000001_Node000010"><a xlink:title=" ">
<path fill="none" stroke="#63b8ff" d="M255.04,-275.84C264.96,-268.07 279.51,-256.67 291.36,-247.4"/>
<polygon fill="#63b8ff" stroke="#63b8ff" points="293.23,-250.38 298.94,-241.46 288.91,-244.87 293.23,-250.38"/>
</a>
</g>
</g>
<!-- Node3 -->
<g id="Node000003" class="node">
<title>Node3</title>
<g id="a_Node000003"><a xlink:href="_runtime_8h.html" target="_top" xlink:title=" ">
<polygon fill="white" stroke="#666666" points="206,-74.5 145,-74.5 145,-55.25 206,-55.25 206,-74.5"/>
<text xml:space="preserve" text-anchor="middle" x="175.5" y="-61" font-family="Helvetica,sans-Serif" font-size="10.00">Runtime.h</text>
</a>
</g>
</g>
<!-- Node2&#45;&gt;Node3 -->
<g id="edge2_Node000002_Node000003" class="edge">
<title>Node2&#45;&gt;Node3</title>
<g id="a_edge2_Node000002_Node000003"><a xlink:title=" ">
<path fill="none" stroke="#63b8ff" d="M175.5,-220.82C175.5,-195.5 175.5,-122 175.5,-86.09"/>
<polygon fill="#63b8ff" stroke="#63b8ff" points="179,-86.24 175.5,-76.24 172,-86.24 179,-86.24"/>
</a>
</g>
</g>
<!-- Node7 -->
<g id="Node000007" class="node">
<title>Node7</title>
<g id="a_Node000007"><a xlink:href="_light_switch_8h.html" target="_top" xlink:title=" ">
<polygon fill="white" stroke="#666666" points="147.12,-185 71.88,-185 71.88,-165.75 147.12,-165.75 147.12,-185"/>
<text xml:space="preserve" text-anchor="middle" x="109.5" y="-171.5" font-family="Helvetica,sans-Serif" font-size="10.00">LightSwitch.h</text>
</a>
</g>
</g>
<!-- Node2&#45;&gt;Node7 -->
<g id="edge6_Node000002_Node000007" class="edge">
<title>Node2&#45;&gt;Node7</title>
<g id="a_edge6_Node000002_Node000007"><a xlink:title=" ">
<path fill="none" stroke="#63b8ff" d="M164.3,-220.59C154.76,-212.9 140.83,-201.65 129.39,-192.43"/>
<polygon fill="#63b8ff" stroke="#63b8ff" points="131.69,-189.78 121.71,-186.23 127.29,-195.23 131.69,-189.78"/>
</a>
</g>
</g>
<!-- Node4 -->
<g id="Node000004" class="node">
<title>Node4</title>
<g id="a_Node000004"><a xlink:title=" ">
<polygon fill="#e0e0e0" stroke="#999999" points="134.62,-19.25 86.38,-19.25 86.38,0 134.62,0 134.62,-19.25"/>
<text xml:space="preserve" text-anchor="middle" x="110.5" y="-5.75" font-family="Helvetica,sans-Serif" font-size="10.00">string.h</text>
</a>
</g>
</g>
<!-- Node3&#45;&gt;Node4 -->
<g id="edge3_Node000003_Node000004" class="edge">
<title>Node3&#45;&gt;Node4</title>
<g id="a_edge3_Node000003_Node000004"><a xlink:title=" ">
<path fill="none" stroke="#63b8ff" d="M164.47,-54.84C155.08,-47.15 141.35,-35.9 130.09,-26.68"/>
<polygon fill="#63b8ff" stroke="#63b8ff" points="132.49,-24.11 122.53,-20.48 128.05,-29.53 132.49,-24.11"/>
</a>
</g>
</g>
<!-- Node5 -->
<g id="Node000005" class="node">
<title>Node5</title>
<g id="a_Node000005"><a xlink:title=" ">
<polygon fill="#e0e0e0" stroke="#999999" points="198.12,-19.25 152.88,-19.25 152.88,0 198.12,0 198.12,-19.25"/>
<text xml:space="preserve" text-anchor="middle" x="175.5" y="-5.75" font-family="Helvetica,sans-Serif" font-size="10.00">chrono</text>
</a>
</g>
</g>
<!-- Node3&#45;&gt;Node5 -->
<g id="edge4_Node000003_Node000005" class="edge">
<title>Node3&#45;&gt;Node5</title>
<g id="a_edge4_Node000003_Node000005"><a xlink:title=" ">
<path fill="none" stroke="#63b8ff" d="M175.5,-55.08C175.5,-48.57 175.5,-39.42 175.5,-31.12"/>
<polygon fill="#63b8ff" stroke="#63b8ff" points="179,-31.12 175.5,-21.12 172,-31.12 179,-31.12"/>
</a>
</g>
</g>
<!-- Node6 -->
<g id="Node000006" class="node">
<title>Node6</title>
<g id="a_Node000006"><a xlink:title=" ">
<polygon fill="#e0e0e0" stroke="#999999" points="269.25,-19.25 215.75,-19.25 215.75,0 269.25,0 269.25,-19.25"/>
<text xml:space="preserve" text-anchor="middle" x="242.5" y="-5.75" font-family="Helvetica,sans-Serif" font-size="10.00">iostream</text>
</a>
</g>
</g>
<!-- Node3&#45;&gt;Node6 -->
<g id="edge5_Node000003_Node000006" class="edge">
<title>Node3&#45;&gt;Node6</title>
<g id="a_edge5_Node000003_Node000006"><a xlink:title=" ">
<path fill="none" stroke="#63b8ff" d="M186.87,-54.84C196.55,-47.15 210.7,-35.9 222.31,-26.68"/>
<polygon fill="#63b8ff" stroke="#63b8ff" points="224.47,-29.43 230.12,-20.47 220.11,-23.95 224.47,-29.43"/>
</a>
</g>
</g>
<!-- Node7&#45;&gt;Node3 -->
<g id="edge7_Node000007_Node000003" class="edge">
<title>Node7&#45;&gt;Node3</title>
<g id="a_edge7_Node000007_Node000003"><a xlink:title=" ">
<path fill="none" stroke="#63b8ff" d="M114.9,-165.5C125.63,-147.85 149.84,-108.05 164.2,-84.45"/>
<polygon fill="#63b8ff" stroke="#63b8ff" points="167.03,-86.53 169.24,-76.17 161.05,-82.89 167.03,-86.53"/>
</a>
</g>
</g>
<!-- Node8 -->
<g id="Node000008" class="node">
<title>Node8</title>
<g id="a_Node000008"><a xlink:href="_output_pin_controller_8h.html" target="_top" xlink:title=" ">
<polygon fill="white" stroke="#666666" points="109,-129.75 0,-129.75 0,-110.5 109,-110.5 109,-129.75"/>
<text xml:space="preserve" text-anchor="middle" x="54.5" y="-116.25" font-family="Helvetica,sans-Serif" font-size="10.00">OutputPinController.h</text>
</a>
</g>
</g>
<!-- Node7&#45;&gt;Node8 -->
<g id="edge8_Node000007_Node000008" class="edge">
<title>Node7&#45;&gt;Node8</title>
<g id="a_edge8_Node000007_Node000008"><a xlink:title=" ">
<path fill="none" stroke="#63b8ff" d="M100.42,-165.58C92.66,-158.07 81.29,-147.06 71.8,-137.88"/>
<polygon fill="#63b8ff" stroke="#63b8ff" points="74.49,-135.6 64.87,-131.16 69.62,-140.63 74.49,-135.6"/>
</a>
</g>
</g>
<!-- Node8&#45;&gt;Node3 -->
<g id="edge9_Node000008_Node000003" class="edge">
<title>Node8&#45;&gt;Node3</title>
<g id="a_edge9_Node000008_Node000003"><a xlink:title=" ">
<path fill="none" stroke="#63b8ff" d="M75.03,-110.09C94.06,-101.72 122.65,-89.13 144.47,-79.53"/>
<polygon fill="#63b8ff" stroke="#63b8ff" points="145.74,-82.79 153.49,-75.56 142.93,-76.39 145.74,-82.79"/>
</a>
</g>
</g>
<!-- Node9 -->
<g id="Node000009" class="node">
<title>Node9</title>
<g id="a_Node000009"><a xlink:href="_pin_controller_8h.html" target="_top" xlink:title=" ">
<polygon fill="white" stroke="#666666" points="94.38,-74.5 14.62,-74.5 14.62,-55.25 94.38,-55.25 94.38,-74.5"/>
<text xml:space="preserve" text-anchor="middle" x="54.5" y="-61" font-family="Helvetica,sans-Serif" font-size="10.00">PinController.h</text>
</a>
</g>
</g>
<!-- Node8&#45;&gt;Node9 -->
<g id="edge10_Node000008_Node000009" class="edge">
<title>Node8&#45;&gt;Node9</title>
<g id="a_edge10_Node000008_Node000009"><a xlink:title=" ">
<path fill="none" stroke="#63b8ff" d="M54.5,-110.33C54.5,-103.82 54.5,-94.67 54.5,-86.37"/>
<polygon fill="#63b8ff" stroke="#63b8ff" points="58,-86.37 54.5,-76.37 51,-86.37 58,-86.37"/>
</a>
</g>
</g>
<!-- Node10&#45;&gt;Node3 -->
<g id="edge12_Node000010_Node000003" class="edge">
<title>Node10&#45;&gt;Node3</title>
<g id="a_edge12_Node000010_Node000003"><a xlink:title=" ">
<path fill="none" stroke="#63b8ff" d="M287.18,-220.53C270.09,-213.12 247.66,-201.23 232.5,-185 218.12,-169.61 195.03,-114.97 183.13,-85.34"/>
<polygon fill="#63b8ff" stroke="#63b8ff" points="186.4,-84.09 179.46,-76.08 179.9,-86.67 186.4,-84.09"/>
</a>
</g>
</g>
<!-- Node11 -->
<g id="Node000011" class="node">
<title>Node11</title>
<g id="a_Node000011"><a xlink:title=" ">
<polygon fill="#e0e0e0" stroke="#999999" points="557.5,-185 499.5,-185 499.5,-165.75 557.5,-165.75 557.5,-185"/>
<text xml:space="preserve" text-anchor="middle" x="528.5" y="-171.5" font-family="Helvetica,sans-Serif" font-size="10.00">functional</text>
</a>
</g>
</g>
<!-- Node10&#45;&gt;Node11 -->
<g id="edge13_Node000010_Node000011" class="edge">
<title>Node10&#45;&gt;Node11</title>
<g id="a_edge13_Node000010_Node000011"><a xlink:title=" ">
<path fill="none" stroke="#63b8ff" d="M348.31,-220.59C387.13,-211.07 448.12,-196.1 488.21,-186.26"/>
<polygon fill="#63b8ff" stroke="#63b8ff" points="488.83,-189.71 497.71,-183.93 487.16,-182.92 488.83,-189.71"/>
</a>
</g>
</g>
<!-- Node12 -->
<g id="Node000012" class="node">
<title>Node12</title>
<g id="a_Node000012"><a xlink:title=" ">
<polygon fill="#e0e0e0" stroke="#999999" points="325,-129.75 282,-129.75 282,-110.5 325,-110.5 325,-129.75"/>
<text xml:space="preserve" text-anchor="middle" x="303.5" y="-116.25" font-family="Helvetica,sans-Serif" font-size="10.00">vector</text>
</a>
</g>
</g>
<!-- Node10&#45;&gt;Node12 -->
<g id="edge14_Node000010_Node000012" class="edge">
<title>Node10&#45;&gt;Node12</title>
<g id="a_edge14_Node000010_Node000012"><a xlink:title=" ">
<path fill="none" stroke="#63b8ff" d="M310.85,-220.75C309.57,-203.5 306.74,-165.08 304.99,-141.31"/>
<polygon fill="#63b8ff" stroke="#63b8ff" points="308.5,-141.35 304.28,-131.64 301.52,-141.87 308.5,-141.35"/>
</a>
</g>
</g>
<!-- Node13 -->
<g id="Node000013" class="node">
<title>Node13</title>
<g id="a_Node000013"><a xlink:title=" ">
<polygon fill="#e0e0e0" stroke="#999999" points="283.62,-185 241.38,-185 241.38,-165.75 283.62,-165.75 283.62,-185"/>
<text xml:space="preserve" text-anchor="middle" x="262.5" y="-171.5" font-family="Helvetica,sans-Serif" font-size="10.00">queue</text>
</a>
</g>
</g>
<!-- Node10&#45;&gt;Node13 -->
<g id="edge15_Node000010_Node000013" class="edge">
<title>Node10&#45;&gt;Node13</title>
<g id="a_edge15_Node000010_Node000013"><a xlink:title=" ">
<path fill="none" stroke="#63b8ff" d="M303.41,-220.83C296.64,-213.48 286.78,-202.76 278.44,-193.69"/>
<polygon fill="#63b8ff" stroke="#63b8ff" points="281.14,-191.46 271.79,-186.47 275.99,-196.2 281.14,-191.46"/>
</a>
</g>
</g>
<!-- Node14 -->
<g id="Node000014" class="node">
<title>Node14</title>
<g id="a_Node000014"><a xlink:href="_named_value_table_8h.html" target="_top" xlink:title=" ">
<polygon fill="white" stroke="#666666" points="443,-185 340,-185 340,-165.75 443,-165.75 443,-185"/>
<text xml:space="preserve" text-anchor="middle" x="391.5" y="-171.5" font-family="Helvetica,sans-Serif" font-size="10.00">NamedValueTable.h</text>
</a>
</g>
</g>
<!-- Node10&#45;&gt;Node14 -->
<g id="edge16_Node000010_Node000014" class="edge">
<title>Node10&#45;&gt;Node14</title>
<g id="a_edge16_Node000010_Node000014"><a xlink:title=" ">
<path fill="none" stroke="#63b8ff" d="M325.07,-220.59C336.91,-212.71 354.34,-201.11 368.37,-191.77"/>
<polygon fill="#63b8ff" stroke="#63b8ff" points="370.22,-194.75 376.6,-186.29 366.34,-188.92 370.22,-194.75"/>
</a>
</g>
</g>
<!-- Node16 -->
<g id="Node000016" class="node">
<title>Node16</title>
<g id="a_Node000016"><a xlink:href="_development_helper_8h.html" target="_top" xlink:title=" ">
<polygon fill="white" stroke="#666666" points="535.38,-129.75 425.62,-129.75 425.62,-110.5 535.38,-110.5 535.38,-129.75"/>
<text xml:space="preserve" text-anchor="middle" x="480.5" y="-116.25" font-family="Helvetica,sans-Serif" font-size="10.00">DevelopmentHelper.h</text>
</a>
</g>
</g>
<!-- Node10&#45;&gt;Node16 -->
<g id="edge21_Node000010_Node000016" class="edge">
<title>Node10&#45;&gt;Node16</title>
<g id="a_edge21_Node000010_Node000016"><a xlink:title=" ">
<path fill="none" stroke="#63b8ff" d="M353.06,-225.67C383.82,-220.74 425,-209.71 452.5,-185 465.32,-173.48 472.54,-155.03 476.42,-140.91"/>
<polygon fill="#63b8ff" stroke="#63b8ff" points="479.78,-141.92 478.68,-131.38 472.97,-140.3 479.78,-141.92"/>
</a>
</g>
</g>
<!-- Node14&#45;&gt;Node12 -->
<g id="edge17_Node000014_Node000012" class="edge">
<title>Node14&#45;&gt;Node12</title>
<g id="a_edge17_Node000014_Node000012"><a xlink:title=" ">
<path fill="none" stroke="#63b8ff" d="M376.57,-165.34C363.3,-157.31 343.63,-145.41 328.05,-135.98"/>
<polygon fill="#63b8ff" stroke="#63b8ff" points="330.16,-133.17 319.8,-130.99 326.54,-139.16 330.16,-133.17"/>
</a>
</g>
</g>
<!-- Node15 -->
<g id="Node000015" class="node">
<title>Node15</title>
<g id="a_Node000015"><a xlink:href="_l_s_c_utils_8h.html" target="_top" xlink:title=" ">
<polygon fill="white" stroke="#666666" points="407.5,-129.75 343.5,-129.75 343.5,-110.5 407.5,-110.5 407.5,-129.75"/>
<text xml:space="preserve" text-anchor="middle" x="375.5" y="-116.25" font-family="Helvetica,sans-Serif" font-size="10.00">LSCUtils.h</text>
</a>
</g>
</g>
<!-- Node14&#45;&gt;Node15 -->
<g id="edge18_Node000014_Node000015" class="edge">
<title>Node14&#45;&gt;Node15</title>
<g id="a_edge18_Node000014_Node000015"><a xlink:title=" ">
<path fill="none" stroke="#63b8ff" d="M388.86,-165.58C386.86,-158.92 384.02,-149.49 381.48,-141.03"/>
<polygon fill="#63b8ff" stroke="#63b8ff" points="384.86,-140.13 378.64,-131.56 378.16,-142.14 384.86,-140.13"/>
</a>
</g>
</g>
<!-- Node14&#45;&gt;Node16 -->
<g id="edge20_Node000014_Node000016" class="edge">
<title>Node14&#45;&gt;Node16</title>
<g id="a_edge20_Node000014_Node000016"><a xlink:title=" ">
<path fill="none" stroke="#63b8ff" d="M406.6,-165.34C420.02,-157.31 439.91,-145.41 455.67,-135.98"/>
<polygon fill="#63b8ff" stroke="#63b8ff" points="457.25,-139.12 464.03,-130.98 453.65,-133.11 457.25,-139.12"/>
</a>
</g>
</g>
<!-- Node15&#45;&gt;Node3 -->
<g id="edge19_Node000015_Node000003" class="edge">
<title>Node15&#45;&gt;Node3</title>
<g id="a_edge19_Node000015_Node000003"><a xlink:title=" ">
<path fill="none" stroke="#63b8ff" d="M343.37,-110.57C309.14,-101.46 254.84,-87 217.31,-77.01"/>
<polygon fill="#63b8ff" stroke="#63b8ff" points="218.27,-73.64 207.7,-74.45 216.47,-80.4 218.27,-73.64"/>
</a>
</g>
</g>
</g>
</svg>
