<?xml version="1.0" encoding="UTF-8" standalone="no"?>
<!DOCTYPE svg PUBLIC "-//W3C//DTD SVG 1.1//EN"
 "http://www.w3.org/Graphics/SVG/1.1/DTD/svg11.dtd">
<!-- Generated by graphviz version 15.1.0 (20260618.0150)
 -->
<!-- Title: include/Vars.h Pages: 1 -->
<svg width="221pt" height="248pt"
 viewBox="0.00 0.00 221.00 248.00" xmlns="http://www.w3.org/2000/svg" xmlns:xlink="http://www.w3.org/1999/xlink">
<g id="graph0" class="graph" transform="scale(1 1) rotate(0) translate(4 244.25)">
<title>include/Vars.h</title>
<!-- Node1 -->
<g id="Node000001" class="node">
<title>Node1</title>
<g id="a_Node000001"><a xlink:title=" ">
<polygon fill="#999999" stroke="#666666" points="212.88,-240.25 135.38,-240.25 135.38,-221 212.88,-221 212.88,-240.25"/>
<text xml:space="preserve" text-anchor="middle" x="174.12" y="-226.75" font-family="Helvetica,sans-Serif" font-size="10.00">include/Vars.h</text>
</a>
</g>
</g>
<!-- Node2 -->
<g id="Node000002" class="node">
<title>Node2</title>
<g id="a_Node000002"><a xlink:href="_config_handler_8h.html" target="_top" xlink:title=" ">
<polygon fill="white" stroke="#666666" points="182,-185 96.25,-185 96.25,-165.75 182,-165.75 182,-185"/>
<text xml:space="preserve" text-anchor="middle" x="139.12" y="-171.5" font-family="Helvetica,sans-Serif" font-size="10.00">ConfigHandler.h</text>
</a>
</g>
</g>
<!-- Node1&#45;&gt;Node2 -->
<g id="edge1_Node000001_Node000002" class="edge">
<title>Node1&#45;&gt;Node2</title>
<g id="a_edge1_Node000001_Node000002"><a xlink:title=" ">
<path fill="none" stroke="#63b8ff" d="M168.35,-220.83C163.71,-213.78 157.05,-203.65 151.26,-194.83"/>
<polygon fill="#63b8ff" stroke="#63b8ff" points="154.28,-193.06 145.86,-186.62 148.43,-196.9 154.28,-193.06"/>
</a>
</g>
</g>
<!-- Node8 -->
<g id="Node000008" class="node">
<title>Node8</title>
<g id="a_Node000008"><a xlink:title=" ">
<polygon fill="#e0e0e0" stroke="#999999" points="207.62,-74.5 164.62,-74.5 164.62,-55.25 207.62,-55.25 207.62,-74.5"/>
<text xml:space="preserve" text-anchor="middle" x="186.12" y="-61" font-family="Helvetica,sans-Serif" font-size="10.00">vector</text>
</a>
</g>
</g>
<!-- Node1&#45;&gt;Node8 -->
<g id="edge10_Node000001_Node000008" class="edge">
<title>Node1&#45;&gt;Node8</title>
<g id="a_edge10_Node000001_Node000008"><a xlink:title=" ">
<path fill="none" stroke="#63b8ff" d="M178.65,-220.68C182.83,-211.86 188.75,-197.88 191.12,-185 197.44,-150.66 193.27,-109.85 189.68,-86.01"/>
<polygon fill="#63b8ff" stroke="#63b8ff" points="193.18,-85.73 188.11,-76.43 186.27,-86.86 193.18,-85.73"/>
</a>
</g>
</g>
<!-- Node3 -->
<g id="Node000003" class="node">
<title>Node3</title>
<g id="a_Node000003"><a xlink:href="_runtime_8h.html" target="_top" xlink:title=" ">
<polygon fill="white" stroke="#666666" points="119.62,-74.5 58.62,-74.5 58.62,-55.25 119.62,-55.25 119.62,-74.5"/>
<text xml:space="preserve" text-anchor="middle" x="89.12" y="-61" font-family="Helvetica,sans-Serif" font-size="10.00">Runtime.h</text>
</a>
</g>
</g>
<!-- Node2&#45;&gt;Node3 -->
<g id="edge2_Node000002_Node000003" class="edge">
<title>Node2&#45;&gt;Node3</title>
<g id="a_edge2_Node000002_Node000003"><a xlink:title=" ">
<path fill="none" stroke="#63b8ff" d="M119.6,-165.34C106.07,-157.9 89.09,-145.94 81.12,-129.75 74.32,-115.93 77.16,-98.48 81.23,-85.31"/>
<polygon fill="#63b8ff" stroke="#63b8ff" points="84.47,-86.67 84.57,-76.07 77.88,-84.29 84.47,-86.67"/>
</a>
</g>
</g>
<!-- Node7 -->
<g id="Node000007" class="node">
<title>Node7</title>
<g id="a_Node000007"><a xlink:href="_json_node_8h.html" target="_top" xlink:title=" ">
<polygon fill="white" stroke="#666666" points="158.38,-129.75 89.88,-129.75 89.88,-110.5 158.38,-110.5 158.38,-129.75"/>
<text xml:space="preserve" text-anchor="middle" x="124.12" y="-116.25" font-family="Helvetica,sans-Serif" font-size="10.00">JsonNode.h</text>
</a>
</g>
</g>
<!-- Node2&#45;&gt;Node7 -->
<g id="edge6_Node000002_Node000007" class="edge">
<title>Node2&#45;&gt;Node7</title>
<g id="a_edge6_Node000002_Node000007"><a xlink:title=" ">
<path fill="none" stroke="#63b8ff" d="M136.65,-165.58C134.77,-158.92 132.12,-149.49 129.73,-141.03"/>
<polygon fill="#63b8ff" stroke="#63b8ff" points="133.15,-140.24 127.07,-131.57 126.41,-142.14 133.15,-140.24"/>
</a>
</g>
</g>
<!-- Node2&#45;&gt;Node8 -->
<g id="edge9_Node000002_Node000008" class="edge">
<title>Node2&#45;&gt;Node8</title>
<g id="a_edge9_Node000002_Node000008"><a xlink:title=" ">
<path fill="none" stroke="#63b8ff" d="M145.68,-165.55C151.9,-156.83 161.17,-142.92 167.12,-129.75 173.56,-115.53 178.49,-98.56 181.71,-85.69"/>
<polygon fill="#63b8ff" stroke="#63b8ff" points="185.04,-86.83 183.92,-76.3 178.22,-85.23 185.04,-86.83"/>
</a>
</g>
</g>
<!-- Node4 -->
<g id="Node000004" class="node">
<title>Node4</title>
<g id="a_Node000004"><a xlink:title=" ">
<polygon fill="#e0e0e0" stroke="#999999" points="48.25,-19.25 0,-19.25 0,0 48.25,0 48.25,-19.25"/>
<text xml:space="preserve" text-anchor="middle" x="24.12" y="-5.75" font-family="Helvetica,sans-Serif" font-size="10.00">string.h</text>
</a>
</g>
</g>
<!-- Node3&#45;&gt;Node4 -->
<g id="edge3_Node000003_Node000004" class="edge">
<title>Node3&#45;&gt;Node4</title>
<g id="a_edge3_Node000003_Node000004"><a xlink:title=" ">
<path fill="none" stroke="#63b8ff" d="M78.1,-54.84C68.7,-47.15 54.98,-35.9 43.72,-26.68"/>
<polygon fill="#63b8ff" stroke="#63b8ff" points="46.11,-24.11 36.16,-20.48 41.68,-29.53 46.11,-24.11"/>
</a>
</g>
</g>
<!-- Node5 -->
<g id="Node000005" class="node">
<title>Node5</title>
<g id="a_Node000005"><a xlink:title=" ">
<polygon fill="#e0e0e0" stroke="#999999" points="111.75,-19.25 66.5,-19.25 66.5,0 111.75,0 111.75,-19.25"/>
<text xml:space="preserve" text-anchor="middle" x="89.12" y="-5.75" font-family="Helvetica,sans-Serif" font-size="10.00">chrono</text>
</a>
</g>
</g>
<!-- Node3&#45;&gt;Node5 -->
<g id="edge4_Node000003_Node000005" class="edge">
<title>Node3&#45;&gt;Node5</title>
<g id="a_edge4_Node000003_Node000005"><a xlink:title=" ">
<path fill="none" stroke="#63b8ff" d="M89.12,-55.08C89.12,-48.57 89.12,-39.42 89.12,-31.12"/>
<polygon fill="#63b8ff" stroke="#63b8ff" points="92.63,-31.12 89.13,-21.12 85.63,-31.12 92.63,-31.12"/>
</a>
</g>
</g>
<!-- Node6 -->
<g id="Node000006" class="node">
<title>Node6</title>
<g id="a_Node000006"><a xlink:title=" ">
<polygon fill="#e0e0e0" stroke="#999999" points="182.88,-19.25 129.38,-19.25 129.38,0 182.88,0 182.88,-19.25"/>
<text xml:space="preserve" text-anchor="middle" x="156.12" y="-5.75" font-family="Helvetica,sans-Serif" font-size="10.00">iostream</text>
</a>
</g>
</g>
<!-- Node3&#45;&gt;Node6 -->
<g id="edge5_Node000003_Node000006" class="edge">
<title>Node3&#45;&gt;Node6</title>
<g id="a_edge5_Node000003_Node000006"><a xlink:title=" ">
<path fill="none" stroke="#63b8ff" d="M100.49,-54.84C110.17,-47.15 124.32,-35.9 135.93,-26.68"/>
<polygon fill="#63b8ff" stroke="#63b8ff" points="138.09,-29.43 143.74,-20.47 133.74,-23.95 138.09,-29.43"/>
</a>
</g>
</g>
<!-- Node7&#45;&gt;Node3 -->
<g id="edge7_Node000007_Node000003" class="edge">
<title>Node7&#45;&gt;Node3</title>
<g id="a_edge7_Node000007_Node000003"><a xlink:title=" ">
<path fill="none" stroke="#63b8ff" d="M118.35,-110.33C113.71,-103.28 107.05,-93.15 101.26,-84.33"/>
<polygon fill="#63b8ff" stroke="#63b8ff" points="104.28,-82.56 95.86,-76.12 98.43,-86.4 104.28,-82.56"/>
</a>
</g>
</g>
<!-- Node7&#45;&gt;Node8 -->
<g id="edge8_Node000007_Node000008" class="edge">
<title>Node7&#45;&gt;Node8</title>
<g id="a_edge8_Node000007_Node000008"><a xlink:title=" ">
<path fill="none" stroke="#63b8ff" d="M134.64,-110.09C143.51,-102.47 156.44,-91.37 167.11,-82.2"/>
<polygon fill="#63b8ff" stroke="#63b8ff" points="169.31,-84.93 174.61,-75.76 164.75,-79.62 169.31,-84.93"/>
</a>
</g>
</g>
</g>
</svg>
