<?xml version="1.0" encoding="UTF-8" standalone="no"?>
<!DOCTYPE svg PUBLIC "-//W3C//DTD SVG 1.1//EN"
 "http://www.w3.org/Graphics/SVG/1.1/DTD/svg11.dtd">
<!-- Generated by graphviz version 15.1.0 (20260618.0150)
 -->
<!-- Title: include/WebSocket.h Pages: 1 -->
<svg width="632pt" height="304pt"
 viewBox="0.00 0.00 632.00 304.00" xmlns="http://www.w3.org/2000/svg" xmlns:xlink="http://www.w3.org/1999/xlink">
<g id="graph0" class="graph" transform="scale(1 1) rotate(0) translate(4 299.5)">
<title>include/WebSocket.h</title>
<!-- Node1 -->
<g id="Node000001" class="node">
<title>Node1</title>
<g id="a_Node000001"><a xlink:title=" ">
<polygon fill="#999999" stroke="#666666" points="484.58,-295.5 376.33,-295.5 376.33,-276.25 484.58,-276.25 484.58,-295.5"/>
<text xml:space="preserve" text-anchor="middle" x="430.45" y="-282" font-family="Helvetica,sans-Serif" font-size="10.00">include/WebSocket.h</text>
</a>
</g>
</g>
<!-- Node2 -->
<g id="Node000002" class="node">
<title>Node2</title>
<g id="a_Node000002"><a xlink:href="_runtime_8h.html" target="_top" xlink:title=" ">
<polygon fill="white" stroke="#666666" points="317.95,-74.5 256.95,-74.5 256.95,-55.25 317.95,-55.25 317.95,-74.5"/>
<text xml:space="preserve" text-anchor="middle" x="287.45" y="-61" font-family="Helvetica,sans-Serif" font-size="10.00">Runtime.h</text>
</a>
</g>
</g>
<!-- Node1&#45;&gt;Node2 -->
<g id="edge1_Node000001_Node000002" class="edge">
<title>Node1&#45;&gt;Node2</title>
<g id="a_edge1_Node000001_Node000002"><a xlink:title=" ">
<path fill="none" stroke="#63b8ff" d="M444.54,-275.78C455.44,-267.86 469.76,-255.3 476.45,-240.25 489.91,-209.98 495.22,-194.31 478.45,-165.75 446.84,-111.91 375.3,-85.82 329.3,-74.19"/>
<polygon fill="#63b8ff" stroke="#63b8ff" points="330.21,-70.8 319.67,-71.88 328.58,-77.61 330.21,-70.8"/>
</a>
</g>
</g>
<!-- Node6 -->
<g id="Node000006" class="node">
<title>Node6</title>
<g id="a_Node000006"><a xlink:href="_event_handler_8h.html" target="_top" xlink:title=" ">
<polygon fill="white" stroke="#666666" points="384.83,-240.25 302.08,-240.25 302.08,-221 384.83,-221 384.83,-240.25"/>
<text xml:space="preserve" text-anchor="middle" x="343.45" y="-226.75" font-family="Helvetica,sans-Serif" font-size="10.00">EventHandler.h</text>
</a>
</g>
</g>
<!-- Node1&#45;&gt;Node6 -->
<g id="edge5_Node000001_Node000006" class="edge">
<title>Node1&#45;&gt;Node6</title>
<g id="a_edge5_Node000001_Node000006"><a xlink:title=" ">
<path fill="none" stroke="#63b8ff" d="M415.7,-275.84C402.57,-267.81 383.13,-255.91 367.72,-246.48"/>
<polygon fill="#63b8ff" stroke="#63b8ff" points="369.93,-243.73 359.58,-241.49 366.28,-249.7 369.93,-243.73"/>
</a>
</g>
</g>
<!-- Node9 -->
<g id="Node000009" class="node">
<title>Node9</title>
<g id="a_Node000009"><a xlink:title=" ">
<polygon fill="#e0e0e0" stroke="#999999" points="451.58,-185 409.33,-185 409.33,-165.75 451.58,-165.75 451.58,-185"/>
<text xml:space="preserve" text-anchor="middle" x="430.45" y="-171.5" font-family="Helvetica,sans-Serif" font-size="10.00">queue</text>
</a>
</g>
</g>
<!-- Node1&#45;&gt;Node9 -->
<g id="edge24_Node000001_Node000009" class="edge">
<title>Node1&#45;&gt;Node9</title>
<g id="a_edge24_Node000001_Node000009"><a xlink:title=" ">
<path fill="none" stroke="#63b8ff" d="M430.45,-276C430.45,-258.75 430.45,-220.33 430.45,-196.56"/>
<polygon fill="#63b8ff" stroke="#63b8ff" points="433.95,-196.89 430.45,-186.89 426.95,-196.89 433.95,-196.89"/>
</a>
</g>
</g>
<!-- Node12 -->
<g id="Node000012" class="node">
<title>Node12</title>
<g id="a_Node000012"><a xlink:href="_development_helper_8h.html" target="_top" xlink:title=" ">
<polygon fill="white" stroke="#666666" points="353.33,-129.75 243.58,-129.75 243.58,-110.5 353.33,-110.5 353.33,-129.75"/>
<text xml:space="preserve" text-anchor="middle" x="298.45" y="-116.25" font-family="Helvetica,sans-Serif" font-size="10.00">DevelopmentHelper.h</text>
</a>
</g>
</g>
<!-- Node1&#45;&gt;Node12 -->
<g id="edge23_Node000001_Node000012" class="edge">
<title>Node1&#45;&gt;Node12</title>
<g id="a_edge23_Node000001_Node000012"><a xlink:title=" ">
<path fill="none" stroke="#63b8ff" d="M437.38,-275.78C452.79,-254.38 486.56,-200.02 460.45,-165.75 448.52,-150.09 404.13,-138.53 364.83,-131.11"/>
<polygon fill="#63b8ff" stroke="#63b8ff" points="365.59,-127.69 355.13,-129.35 364.34,-134.58 365.59,-127.69"/>
</a>
</g>
</g>
<!-- Node13 -->
<g id="Node000013" class="node">
<title>Node13</title>
<g id="a_Node000013"><a xlink:href="_simple_delay_8h.html" target="_top" xlink:title=" ">
<polygon fill="white" stroke="#666666" points="623.58,-240.25 545.33,-240.25 545.33,-221 623.58,-221 623.58,-240.25"/>
<text xml:space="preserve" text-anchor="middle" x="584.45" y="-226.75" font-family="Helvetica,sans-Serif" font-size="10.00">SimpleDelay.h</text>
</a>
</g>
</g>
<!-- Node1&#45;&gt;Node13 -->
<g id="edge16_Node000001_Node000013" class="edge">
<title>Node1&#45;&gt;Node13</title>
<g id="a_edge16_Node000001_Node000013"><a xlink:title=" ">
<path fill="none" stroke="#63b8ff" d="M456.58,-275.84C481.58,-267.2 519.53,-254.07 547.6,-244.37"/>
<polygon fill="#63b8ff" stroke="#63b8ff" points="548.47,-247.77 556.77,-241.2 546.18,-241.16 548.47,-247.77"/>
</a>
</g>
</g>
<!-- Node14 -->
<g id="Node000014" class="node">
<title>Node14</title>
<g id="a_Node000014"><a xlink:href="_json_node_8h.html" target="_top" xlink:title=" ">
<polygon fill="white" stroke="#666666" points="79.7,-185 11.2,-185 11.2,-165.75 79.7,-165.75 79.7,-185"/>
<text xml:space="preserve" text-anchor="middle" x="45.45" y="-171.5" font-family="Helvetica,sans-Serif" font-size="10.00">JsonNode.h</text>
</a>
</g>
</g>
<!-- Node1&#45;&gt;Node14 -->
<g id="edge18_Node000001_Node000014" class="edge">
<title>Node1&#45;&gt;Node14</title>
<g id="a_edge18_Node000001_Node000014"><a xlink:title=" ">
<path fill="none" stroke="#63b8ff" d="M398.29,-275.81C329.22,-256.34 166.65,-210.53 88.67,-188.55"/>
<polygon fill="#63b8ff" stroke="#63b8ff" points="89.83,-185.24 79.25,-185.9 87.93,-191.98 89.83,-185.24"/>
</a>
</g>
</g>
<!-- Node15 -->
<g id="Node000015" class="node">
<title>Node15</title>
<g id="a_Node000015"><a xlink:href="_network_8h.html" target="_top" xlink:title=" ">
<polygon fill="white" stroke="#666666" points="71.95,-240.25 10.95,-240.25 10.95,-221 71.95,-221 71.95,-240.25"/>
<text xml:space="preserve" text-anchor="middle" x="41.45" y="-226.75" font-family="Helvetica,sans-Serif" font-size="10.00">Network.h</text>
</a>
</g>
</g>
<!-- Node1&#45;&gt;Node15 -->
<g id="edge21_Node000001_Node000015" class="edge">
<title>Node1&#45;&gt;Node15</title>
<g id="a_edge21_Node000001_Node000015"><a xlink:title=" ">
<path fill="none" stroke="#63b8ff" d="M375.96,-277.41C297.52,-266.68 154.46,-247.09 83.58,-237.39"/>
<polygon fill="#63b8ff" stroke="#63b8ff" points="84.32,-233.96 73.93,-236.07 83.37,-240.9 84.32,-233.96"/>
</a>
</g>
</g>
<!-- Node3 -->
<g id="Node000003" class="node">
<title>Node3</title>
<g id="a_Node000003"><a xlink:title=" ">
<polygon fill="#e0e0e0" stroke="#999999" points="246.58,-19.25 198.33,-19.25 198.33,0 246.58,0 246.58,-19.25"/>
<text xml:space="preserve" text-anchor="middle" x="222.45" y="-5.75" font-family="Helvetica,sans-Serif" font-size="10.00">string.h</text>
</a>
</g>
</g>
<!-- Node2&#45;&gt;Node3 -->
<g id="edge2_Node000002_Node000003" class="edge">
<title>Node2&#45;&gt;Node3</title>
<g id="a_edge2_Node000002_Node000003"><a xlink:title=" ">
<path fill="none" stroke="#63b8ff" d="M276.43,-54.84C267.03,-47.15 253.31,-35.9 242.05,-26.68"/>
<polygon fill="#63b8ff" stroke="#63b8ff" points="244.44,-24.11 234.49,-20.48 240.01,-29.53 244.44,-24.11"/>
</a>
</g>
</g>
<!-- Node4 -->
<g id="Node000004" class="node">
<title>Node4</title>
<g id="a_Node000004"><a xlink:title=" ">
<polygon fill="#e0e0e0" stroke="#999999" points="310.08,-19.25 264.83,-19.25 264.83,0 310.08,0 310.08,-19.25"/>
<text xml:space="preserve" text-anchor="middle" x="287.45" y="-5.75" font-family="Helvetica,sans-Serif" font-size="10.00">chrono</text>
</a>
</g>
</g>
<!-- Node2&#45;&gt;Node4 -->
<g id="edge3_Node000002_Node000004" class="edge">
<title>Node2&#45;&gt;Node4</title>
<g id="a_edge3_Node000002_Node000004"><a xlink:title=" ">
<path fill="none" stroke="#63b8ff" d="M287.45,-55.08C287.45,-48.57 287.45,-39.42 287.45,-31.12"/>
<polygon fill="#63b8ff" stroke="#63b8ff" points="290.95,-31.12 287.45,-21.12 283.95,-31.12 290.95,-31.12"/>
</a>
</g>
</g>
<!-- Node5 -->
<g id="Node000005" class="node">
<title>Node5</title>
<g id="a_Node000005"><a xlink:title=" ">
<polygon fill="#e0e0e0" stroke="#999999" points="381.2,-19.25 327.7,-19.25 327.7,0 381.2,0 381.2,-19.25"/>
<text xml:space="preserve" text-anchor="middle" x="354.45" y="-5.75" font-family="Helvetica,sans-Serif" font-size="10.00">iostream</text>
</a>
</g>
</g>
<!-- Node2&#45;&gt;Node5 -->
<g id="edge4_Node000002_Node000005" class="edge">
<title>Node2&#45;&gt;Node5</title>
<g id="a_edge4_Node000002_Node000005"><a xlink:title=" ">
<path fill="none" stroke="#63b8ff" d="M298.82,-54.84C308.5,-47.15 322.65,-35.9 334.26,-26.68"/>
<polygon fill="#63b8ff" stroke="#63b8ff" points="336.42,-29.43 342.07,-20.47 332.07,-23.95 336.42,-29.43"/>
</a>
</g>
</g>
<!-- Node6&#45;&gt;Node2 -->
<g id="edge6_Node000006_Node000002" class="edge">
<title>Node6&#45;&gt;Node2</title>
<g id="a_edge6_Node000006_Node000002"><a xlink:title=" ">
<path fill="none" stroke="#63b8ff" d="M348.59,-220.56C359.68,-199.66 383.26,-147.09 362.45,-110.5 354.58,-96.65 340.51,-86.64 326.67,-79.66"/>
<polygon fill="#63b8ff" stroke="#63b8ff" points="328.17,-76.5 317.62,-75.53 325.26,-82.87 328.17,-76.5"/>
</a>
</g>
</g>
<!-- Node7 -->
<g id="Node000007" class="node">
<title>Node7</title>
<g id="a_Node000007"><a xlink:title=" ">
<polygon fill="#e0e0e0" stroke="#999999" points="315.45,-185 257.45,-185 257.45,-165.75 315.45,-165.75 315.45,-185"/>
<text xml:space="preserve" text-anchor="middle" x="286.45" y="-171.5" font-family="Helvetica,sans-Serif" font-size="10.00">functional</text>
</a>
</g>
</g>
<!-- Node6&#45;&gt;Node7 -->
<g id="edge7_Node000006_Node000007" class="edge">
<title>Node6&#45;&gt;Node7</title>
<g id="a_edge7_Node000006_Node000007"><a xlink:title=" ">
<path fill="none" stroke="#63b8ff" d="M333.79,-220.59C325.71,-213.05 313.99,-202.1 304.23,-192.98"/>
<polygon fill="#63b8ff" stroke="#63b8ff" points="306.78,-190.58 297.09,-186.31 302.01,-195.69 306.78,-190.58"/>
</a>
</g>
</g>
<!-- Node8 -->
<g id="Node000008" class="node">
<title>Node8</title>
<g id="a_Node000008"><a xlink:title=" ">
<polygon fill="#e0e0e0" stroke="#999999" points="128.95,-129.75 85.95,-129.75 85.95,-110.5 128.95,-110.5 128.95,-129.75"/>
<text xml:space="preserve" text-anchor="middle" x="107.45" y="-116.25" font-family="Helvetica,sans-Serif" font-size="10.00">vector</text>
</a>
</g>
</g>
<!-- Node6&#45;&gt;Node8 -->
<g id="edge8_Node000006_Node000008" class="edge">
<title>Node6&#45;&gt;Node8</title>
<g id="a_edge8_Node000006_Node000008"><a xlink:title=" ">
<path fill="none" stroke="#63b8ff" d="M301.62,-226C246.22,-220.37 152.58,-207.74 127.45,-185 115.19,-173.9 110.38,-155.4 108.53,-141.16"/>
<polygon fill="#63b8ff" stroke="#63b8ff" points="112.05,-141.2 107.68,-131.54 105.07,-141.81 112.05,-141.2"/>
</a>
</g>
</g>
<!-- Node6&#45;&gt;Node9 -->
<g id="edge9_Node000006_Node000009" class="edge">
<title>Node6&#45;&gt;Node9</title>
<g id="a_edge9_Node000006_Node000009"><a xlink:title=" ">
<path fill="none" stroke="#63b8ff" d="M358.21,-220.59C371.34,-212.56 390.78,-200.66 406.19,-191.23"/>
<polygon fill="#63b8ff" stroke="#63b8ff" points="407.63,-194.45 414.33,-186.24 403.98,-188.48 407.63,-194.45"/>
</a>
</g>
</g>
<!-- Node10 -->
<g id="Node000010" class="node">
<title>Node10</title>
<g id="a_Node000010"><a xlink:href="_named_value_table_8h.html" target="_top" xlink:title=" ">
<polygon fill="white" stroke="#666666" points="238.95,-185 135.95,-185 135.95,-165.75 238.95,-165.75 238.95,-185"/>
<text xml:space="preserve" text-anchor="middle" x="187.45" y="-171.5" font-family="Helvetica,sans-Serif" font-size="10.00">NamedValueTable.h</text>
</a>
</g>
</g>
<!-- Node6&#45;&gt;Node10 -->
<g id="edge10_Node000006_Node000010" class="edge">
<title>Node6&#45;&gt;Node10</title>
<g id="a_edge10_Node000006_Node000010"><a xlink:title=" ">
<path fill="none" stroke="#63b8ff" d="M316.99,-220.59C291.67,-211.95 253.22,-198.82 224.79,-189.12"/>
<polygon fill="#63b8ff" stroke="#63b8ff" points="226.07,-185.86 215.48,-185.94 223.81,-192.48 226.07,-185.86"/>
</a>
</g>
</g>
<!-- Node6&#45;&gt;Node12 -->
<g id="edge15_Node000006_Node000012" class="edge">
<title>Node6&#45;&gt;Node12</title>
<g id="a_edge15_Node000006_Node000012"><a xlink:title=" ">
<path fill="none" stroke="#63b8ff" d="M341.52,-220.71C338.62,-208.15 332.63,-184.65 324.45,-165.75 320.59,-156.81 315.32,-147.42 310.54,-139.58"/>
<polygon fill="#63b8ff" stroke="#63b8ff" points="313.61,-137.88 305.3,-131.3 307.69,-141.62 313.61,-137.88"/>
</a>
</g>
</g>
<!-- Node10&#45;&gt;Node8 -->
<g id="edge11_Node000010_Node000008" class="edge">
<title>Node10&#45;&gt;Node8</title>
<g id="a_edge11_Node000010_Node000008"><a xlink:title=" ">
<path fill="none" stroke="#63b8ff" d="M173.88,-165.34C162.05,-157.46 144.62,-145.86 130.58,-136.52"/>
<polygon fill="#63b8ff" stroke="#63b8ff" points="132.62,-133.67 122.35,-131.04 128.74,-139.5 132.62,-133.67"/>
</a>
</g>
</g>
<!-- Node11 -->
<g id="Node000011" class="node">
<title>Node11</title>
<g id="a_Node000011"><a xlink:href="_l_s_c_utils_8h.html" target="_top" xlink:title=" ">
<polygon fill="white" stroke="#666666" points="222.45,-129.75 158.45,-129.75 158.45,-110.5 222.45,-110.5 222.45,-129.75"/>
<text xml:space="preserve" text-anchor="middle" x="190.45" y="-116.25" font-family="Helvetica,sans-Serif" font-size="10.00">LSCUtils.h</text>
</a>
</g>
</g>
<!-- Node10&#45;&gt;Node11 -->
<g id="edge12_Node000010_Node000011" class="edge">
<title>Node10&#45;&gt;Node11</title>
<g id="a_edge12_Node000010_Node000011"><a xlink:title=" ">
<path fill="none" stroke="#63b8ff" d="M187.95,-165.58C188.32,-158.99 188.84,-149.71 189.32,-141.32"/>
<polygon fill="#63b8ff" stroke="#63b8ff" points="192.8,-141.8 189.86,-131.62 185.81,-141.41 192.8,-141.8"/>
</a>
</g>
</g>
<!-- Node10&#45;&gt;Node12 -->
<g id="edge14_Node000010_Node000012" class="edge">
<title>Node10&#45;&gt;Node12</title>
<g id="a_edge14_Node000010_Node000012"><a xlink:title=" ">
<path fill="none" stroke="#63b8ff" d="M206.28,-165.34C223.51,-157.08 249.26,-144.73 269.16,-135.18"/>
<polygon fill="#63b8ff" stroke="#63b8ff" points="270.67,-138.34 278.17,-130.86 267.64,-132.03 270.67,-138.34"/>
</a>
</g>
</g>
<!-- Node11&#45;&gt;Node2 -->
<g id="edge13_Node000011_Node000002" class="edge">
<title>Node11&#45;&gt;Node2</title>
<g id="a_edge13_Node000011_Node000002"><a xlink:title=" ">
<path fill="none" stroke="#63b8ff" d="M206.91,-110.09C221.68,-101.98 243.63,-89.93 260.89,-80.46"/>
<polygon fill="#63b8ff" stroke="#63b8ff" points="262.51,-83.56 269.59,-75.68 259.14,-77.43 262.51,-83.56"/>
</a>
</g>
</g>
<!-- Node13&#45;&gt;Node2 -->
<g id="edge17_Node000013_Node000002" class="edge">
<title>Node13&#45;&gt;Node2</title>
<g id="a_edge17_Node000013_Node000002"><a xlink:title=" ">
<path fill="none" stroke="#63b8ff" d="M583.33,-220.74C579.97,-198.32 567.93,-139.19 531.45,-110.5 500.69,-86.3 390.58,-73.97 329.33,-68.85"/>
<polygon fill="#63b8ff" stroke="#63b8ff" points="329.89,-65.38 319.64,-68.07 329.32,-72.36 329.89,-65.38"/>
</a>
</g>
</g>
<!-- Node14&#45;&gt;Node2 -->
<g id="edge19_Node000014_Node000002" class="edge">
<title>Node14&#45;&gt;Node2</title>
<g id="a_edge19_Node000014_Node000002"><a xlink:title=" ">
<path fill="none" stroke="#63b8ff" d="M47.34,-165.37C50.77,-151.35 59.4,-124.45 77.45,-110.5 103.28,-90.54 192.07,-77 245.57,-70.44"/>
<polygon fill="#63b8ff" stroke="#63b8ff" points="245.73,-73.95 255.24,-69.29 244.9,-67 245.73,-73.95"/>
</a>
</g>
</g>
<!-- Node14&#45;&gt;Node8 -->
<g id="edge20_Node000014_Node000008" class="edge">
<title>Node14&#45;&gt;Node8</title>
<g id="a_edge20_Node000014_Node000008"><a xlink:title=" ">
<path fill="none" stroke="#63b8ff" d="M55.97,-165.34C64.84,-157.72 77.77,-146.62 88.44,-137.45"/>
<polygon fill="#63b8ff" stroke="#63b8ff" points="90.64,-140.18 95.94,-131.01 86.08,-134.87 90.64,-140.18"/>
</a>
</g>
</g>
<!-- Node15&#45;&gt;Node2 -->
<g id="edge22_Node000015_Node000002" class="edge">
<title>Node15&#45;&gt;Node2</title>
<g id="a_edge22_Node000015_Node000002"><a xlink:title=" ">
<path fill="none" stroke="#63b8ff" d="M29.36,-220.59C14.94,-208.65 -6.17,-186.65 2.45,-165.75 15.68,-133.72 26.88,-126.8 57.45,-110.5 117.48,-78.51 197.22,-69.27 245.31,-66.71"/>
<polygon fill="#63b8ff" stroke="#63b8ff" points="245.18,-70.22 255.02,-66.27 244.87,-63.23 245.18,-70.22"/>
</a>
</g>
</g>
</g>
</svg>
