<?xml version="1.0" encoding="UTF-8" standalone="no"?>
<!DOCTYPE svg PUBLIC "-//W3C//DTD SVG 1.1//EN"
 "http://www.w3.org/Graphics/SVG/1.1/DTD/svg11.dtd">
<!-- Generated by graphviz version 15.1.0 (20260618.0150)
 -->
<!-- Title: include/WebServer.h Pages: 1 -->
<svg width="1045pt" height="414pt"
 viewBox="0.00 0.00 1045.00 414.00" xmlns="http://www.w3.org/2000/svg" xmlns:xlink="http://www.w3.org/1999/xlink">
<g id="graph0" class="graph" transform="scale(1 1) rotate(0) translate(4 410)">
<title>include/WebServer.h</title>
<!-- Node1 -->
<g id="Node000001" class="node">
<title>Node1</title>
<g id="a_Node000001"><a xlink:title=" ">
<polygon fill="#999999" stroke="#666666" points="637.26,-406 532.01,-406 532.01,-386.75 637.26,-386.75 637.26,-406"/>
<text xml:space="preserve" text-anchor="middle" x="584.64" y="-392.5" font-family="Helvetica,sans-Serif" font-size="10.00">include/WebServer.h</text>
</a>
</g>
</g>
<!-- Node2 -->
<g id="Node000002" class="node">
<title>Node2</title>
<g id="a_Node000002"><a xlink:title=" ">
<polygon fill="#e0e0e0" stroke="#999999" points="437.26,-350.75 380.01,-350.75 380.01,-331.5 437.26,-331.5 437.26,-350.75"/>
<text xml:space="preserve" text-anchor="middle" x="408.64" y="-337.25" font-family="Helvetica,sans-Serif" font-size="10.00">Arduino.h</text>
</a>
</g>
</g>
<!-- Node1&#45;&gt;Node2 -->
<g id="edge1_Node000001_Node000002" class="edge">
<title>Node1&#45;&gt;Node2</title>
<g id="a_edge1_Node000001_Node000002"><a xlink:title=" ">
<path fill="none" stroke="#63b8ff" d="M554.78,-386.34C525.57,-377.5 480.88,-363.98 448.61,-354.22"/>
<polygon fill="#63b8ff" stroke="#63b8ff" points="449.79,-350.92 439.21,-351.37 447.77,-357.62 449.79,-350.92"/>
</a>
</g>
</g>
<!-- Node3 -->
<g id="Node000003" class="node">
<title>Node3</title>
<g id="a_Node000003"><a xlink:href="_appl_8h.html" target="_top" xlink:title="Application Main Class.">
<polygon fill="white" stroke="#666666" points="499.51,-350.75 455.76,-350.75 455.76,-331.5 499.51,-331.5 499.51,-350.75"/>
<text xml:space="preserve" text-anchor="middle" x="477.64" y="-337.25" font-family="Helvetica,sans-Serif" font-size="10.00">Appl.h</text>
</a>
</g>
</g>
<!-- Node1&#45;&gt;Node3 -->
<g id="edge2_Node000001_Node000003" class="edge">
<title>Node1&#45;&gt;Node3</title>
<g id="a_edge2_Node000001_Node000003"><a xlink:title=" ">
<path fill="none" stroke="#63b8ff" d="M566.49,-386.34C549.96,-378.12 525.29,-365.84 506.14,-356.31"/>
<polygon fill="#63b8ff" stroke="#63b8ff" points="507.74,-353.2 497.23,-351.88 504.63,-359.47 507.74,-353.2"/>
</a>
</g>
</g>
<!-- Node26 -->
<g id="Node000026" class="node">
<title>Node26</title>
<g id="a_Node000026"><a xlink:href="_network_8h.html" target="_top" xlink:title=" ">
<polygon fill="white" stroke="#666666" points="1037.14,-240.25 976.14,-240.25 976.14,-221 1037.14,-221 1037.14,-240.25"/>
<text xml:space="preserve" text-anchor="middle" x="1006.64" y="-226.75" font-family="Helvetica,sans-Serif" font-size="10.00">Network.h</text>
</a>
</g>
</g>
<!-- Node1&#45;&gt;Node26 -->
<g id="edge44_Node000001_Node000026" class="edge">
<title>Node1&#45;&gt;Node26</title>
<g id="a_edge44_Node000001_Node000026"><a xlink:title=" ">
<path fill="none" stroke="#63b8ff" d="M624.23,-386.25C685.26,-371.44 805.23,-339.36 900.64,-295.5 931,-281.54 963.6,-260.96 984.51,-246.96"/>
<polygon fill="#63b8ff" stroke="#63b8ff" points="986.21,-250.04 992.52,-241.53 982.28,-244.25 986.21,-250.04"/>
</a>
</g>
</g>
<!-- Node27 -->
<g id="Node000027" class="node">
<title>Node27</title>
<g id="a_Node000027"><a xlink:href="_web_socket_8h.html" target="_top" xlink:title=" ">
<polygon fill="white" stroke="#666666" points="891.89,-295.5 817.39,-295.5 817.39,-276.25 891.89,-276.25 891.89,-295.5"/>
<text xml:space="preserve" text-anchor="middle" x="854.64" y="-282" font-family="Helvetica,sans-Serif" font-size="10.00">WebSocket.h</text>
</a>
</g>
</g>
<!-- Node1&#45;&gt;Node27 -->
<g id="edge46_Node000001_Node000027" class="edge">
<title>Node1&#45;&gt;Node27</title>
<g id="a_edge46_Node000001_Node000027"><a xlink:title=" ">
<path fill="none" stroke="#63b8ff" d="M607.19,-386.31C654.84,-367.16 765.92,-322.53 821.6,-300.15"/>
<polygon fill="#63b8ff" stroke="#63b8ff" points="822.58,-303.53 830.55,-296.55 819.97,-297.04 822.58,-303.53"/>
</a>
</g>
</g>
<!-- Node4 -->
<g id="Node000004" class="node">
<title>Node4</title>
<g id="a_Node000004"><a xlink:href="_runtime_8h.html" target="_top" xlink:title=" ">
<polygon fill="white" stroke="#666666" points="511.14,-74.5 450.14,-74.5 450.14,-55.25 511.14,-55.25 511.14,-74.5"/>
<text xml:space="preserve" text-anchor="middle" x="480.64" y="-61" font-family="Helvetica,sans-Serif" font-size="10.00">Runtime.h</text>
</a>
</g>
</g>
<!-- Node3&#45;&gt;Node4 -->
<g id="edge3_Node000003_Node000004" class="edge">
<title>Node3&#45;&gt;Node4</title>
<g id="a_edge3_Node000003_Node000004"><a xlink:title=" ">
<path fill="none" stroke="#63b8ff" d="M455.37,-333.64C386.39,-313.45 180.33,-252.33 171.64,-240.25 132.3,-185.59 95.81,-210.84 261.64,-110.5 316.61,-77.24 392.09,-68.33 438.55,-66.2"/>
<polygon fill="#63b8ff" stroke="#63b8ff" points="438.61,-69.7 448.48,-65.83 438.36,-62.7 438.61,-69.7"/>
</a>
</g>
</g>
<!-- Node8 -->
<g id="Node000008" class="node">
<title>Node8</title>
<g id="a_Node000008"><a xlink:href="_sys_status_8h.html" target="_top" xlink:title=" ">
<polygon fill="white" stroke="#666666" points="122.64,-295.5 52.64,-295.5 52.64,-276.25 122.64,-276.25 122.64,-295.5"/>
<text xml:space="preserve" text-anchor="middle" x="87.64" y="-282" font-family="Helvetica,sans-Serif" font-size="10.00">SysStatus.h</text>
</a>
</g>
</g>
<!-- Node3&#45;&gt;Node8 -->
<g id="edge7_Node000003_Node000008" class="edge">
<title>Node3&#45;&gt;Node8</title>
<g id="a_edge7_Node000003_Node000008"><a xlink:title=" ">
<path fill="none" stroke="#63b8ff" d="M455.39,-333.49C452.46,-332.75 449.49,-332.06 446.64,-331.5 310.52,-304.83 273.89,-315.53 136.64,-295.5 135.8,-295.38 134.96,-295.25 134.12,-295.13"/>
<polygon fill="#63b8ff" stroke="#63b8ff" points="134.85,-291.7 124.42,-293.58 133.75,-298.61 134.85,-291.7"/>
</a>
</g>
</g>
<!-- Node10 -->
<g id="Node000010" class="node">
<title>Node10</title>
<g id="a_Node000010"><a xlink:href="_json_node_8h.html" target="_top" xlink:title=" ">
<polygon fill="white" stroke="#666666" points="319.89,-185 251.39,-185 251.39,-165.75 319.89,-165.75 319.89,-185"/>
<text xml:space="preserve" text-anchor="middle" x="285.64" y="-171.5" font-family="Helvetica,sans-Serif" font-size="10.00">JsonNode.h</text>
</a>
</g>
</g>
<!-- Node3&#45;&gt;Node10 -->
<g id="edge17_Node000003_Node000010" class="edge">
<title>Node3&#45;&gt;Node10</title>
<g id="a_edge17_Node000003_Node000010"><a xlink:title=" ">
<path fill="none" stroke="#63b8ff" d="M455.39,-333.59C425.57,-324.53 374.65,-307.85 359.64,-295.5 326.37,-268.14 303.74,-221.71 292.94,-195.63"/>
<polygon fill="#63b8ff" stroke="#63b8ff" points="296.31,-194.63 289.37,-186.63 289.8,-197.21 296.31,-194.63"/>
</a>
</g>
</g>
<!-- Node14 -->
<g id="Node000014" class="node">
<title>Node14</title>
<g id="a_Node000014"><a xlink:href="_module_interface_8h.html" target="_top" xlink:title="Full Interface for a module and an abstract basic module implementation.">
<polygon fill="white" stroke="#666666" points="524.64,-295.5 430.64,-295.5 430.64,-276.25 524.64,-276.25 524.64,-295.5"/>
<text xml:space="preserve" text-anchor="middle" x="477.64" y="-282" font-family="Helvetica,sans-Serif" font-size="10.00">ModuleInterface.h</text>
</a>
</g>
</g>
<!-- Node3&#45;&gt;Node14 -->
<g id="edge18_Node000003_Node000014" class="edge">
<title>Node3&#45;&gt;Node14</title>
<g id="a_edge18_Node000003_Node000014"><a xlink:title=" ">
<path fill="none" stroke="#63b8ff" d="M477.64,-331.33C477.64,-324.82 477.64,-315.67 477.64,-307.37"/>
<polygon fill="#63b8ff" stroke="#63b8ff" points="481.14,-307.37 477.64,-297.37 474.14,-307.37 481.14,-307.37"/>
</a>
</g>
</g>
<!-- Node21 -->
<g id="Node000021" class="node">
<title>Node21</title>
<g id="a_Node000021"><a xlink:href="_development_helper_8h.html" target="_top" xlink:title=" ">
<polygon fill="white" stroke="#666666" points="753.51,-129.75 643.76,-129.75 643.76,-110.5 753.51,-110.5 753.51,-129.75"/>
<text xml:space="preserve" text-anchor="middle" x="698.64" y="-116.25" font-family="Helvetica,sans-Serif" font-size="10.00">DevelopmentHelper.h</text>
</a>
</g>
</g>
<!-- Node3&#45;&gt;Node21 -->
<g id="edge43_Node000003_Node000021" class="edge">
<title>Node3&#45;&gt;Node21</title>
<g id="a_edge43_Node000003_Node000021"><a xlink:title=" ">
<path fill="none" stroke="#63b8ff" d="M499.87,-339.04C551.86,-335.21 681.72,-317.94 744.64,-240.25 765.66,-214.29 769.14,-195.85 754.64,-165.75 748.73,-153.49 737.63,-143.55 726.87,-136.2"/>
<polygon fill="#63b8ff" stroke="#63b8ff" points="728.85,-133.31 718.51,-130.97 725.14,-139.24 728.85,-133.31"/>
</a>
</g>
</g>
<!-- Node23 -->
<g id="Node000023" class="node">
<title>Node23</title>
<g id="a_Node000023"><a xlink:href="_logging_8h.html" target="_top" xlink:title=" ">
<polygon fill="white" stroke="#666666" points="600.64,-295.5 542.64,-295.5 542.64,-276.25 600.64,-276.25 600.64,-295.5"/>
<text xml:space="preserve" text-anchor="middle" x="571.64" y="-282" font-family="Helvetica,sans-Serif" font-size="10.00">Logging.h</text>
</a>
</g>
</g>
<!-- Node3&#45;&gt;Node23 -->
<g id="edge36_Node000003_Node000023" class="edge">
<title>Node3&#45;&gt;Node23</title>
<g id="a_edge36_Node000003_Node000023"><a xlink:title=" ">
<path fill="none" stroke="#63b8ff" d="M493.58,-331.09C507.9,-322.98 529.17,-310.93 545.89,-301.46"/>
<polygon fill="#63b8ff" stroke="#63b8ff" points="547.32,-304.67 554.3,-296.7 543.87,-298.58 547.32,-304.67"/>
</a>
</g>
</g>
<!-- Node25 -->
<g id="Node000025" class="node">
<title>Node25</title>
<g id="a_Node000025"><a xlink:href="_vars_8h.html" target="_top" xlink:title=" ">
<polygon fill="white" stroke="#666666" points="412.51,-295.5 368.76,-295.5 368.76,-276.25 412.51,-276.25 412.51,-295.5"/>
<text xml:space="preserve" text-anchor="middle" x="390.64" y="-282" font-family="Helvetica,sans-Serif" font-size="10.00">Vars.h</text>
</a>
</g>
</g>
<!-- Node3&#45;&gt;Node25 -->
<g id="edge40_Node000003_Node000025" class="edge">
<title>Node3&#45;&gt;Node25</title>
<g id="a_edge40_Node000003_Node000025"><a xlink:title=" ">
<path fill="none" stroke="#63b8ff" d="M462.88,-331.09C449.76,-323.06 430.31,-311.16 414.91,-301.73"/>
<polygon fill="#63b8ff" stroke="#63b8ff" points="417.12,-298.98 406.76,-296.74 413.46,-304.95 417.12,-298.98"/>
</a>
</g>
</g>
<!-- Node5 -->
<g id="Node000005" class="node">
<title>Node5</title>
<g id="a_Node000005"><a xlink:title=" ">
<polygon fill="#e0e0e0" stroke="#999999" points="439.76,-19.25 391.51,-19.25 391.51,0 439.76,0 439.76,-19.25"/>
<text xml:space="preserve" text-anchor="middle" x="415.64" y="-5.75" font-family="Helvetica,sans-Serif" font-size="10.00">string.h</text>
</a>
</g>
</g>
<!-- Node4&#45;&gt;Node5 -->
<g id="edge4_Node000004_Node000005" class="edge">
<title>Node4&#45;&gt;Node5</title>
<g id="a_edge4_Node000004_Node000005"><a xlink:title=" ">
<path fill="none" stroke="#63b8ff" d="M469.61,-54.84C460.22,-47.15 446.49,-35.9 435.23,-26.68"/>
<polygon fill="#63b8ff" stroke="#63b8ff" points="437.63,-24.11 427.67,-20.48 433.19,-29.53 437.63,-24.11"/>
</a>
</g>
</g>
<!-- Node6 -->
<g id="Node000006" class="node">
<title>Node6</title>
<g id="a_Node000006"><a xlink:title=" ">
<polygon fill="#e0e0e0" stroke="#999999" points="503.26,-19.25 458.01,-19.25 458.01,0 503.26,0 503.26,-19.25"/>
<text xml:space="preserve" text-anchor="middle" x="480.64" y="-5.75" font-family="Helvetica,sans-Serif" font-size="10.00">chrono</text>
</a>
</g>
</g>
<!-- Node4&#45;&gt;Node6 -->
<g id="edge5_Node000004_Node000006" class="edge">
<title>Node4&#45;&gt;Node6</title>
<g id="a_edge5_Node000004_Node000006"><a xlink:title=" ">
<path fill="none" stroke="#63b8ff" d="M480.64,-55.08C480.64,-48.57 480.64,-39.42 480.64,-31.12"/>
<polygon fill="#63b8ff" stroke="#63b8ff" points="484.14,-31.12 480.64,-21.12 477.14,-31.12 484.14,-31.12"/>
</a>
</g>
</g>
<!-- Node7 -->
<g id="Node000007" class="node">
<title>Node7</title>
<g id="a_Node000007"><a xlink:title=" ">
<polygon fill="#e0e0e0" stroke="#999999" points="574.39,-19.25 520.89,-19.25 520.89,0 574.39,0 574.39,-19.25"/>
<text xml:space="preserve" text-anchor="middle" x="547.64" y="-5.75" font-family="Helvetica,sans-Serif" font-size="10.00">iostream</text>
</a>
</g>
</g>
<!-- Node4&#45;&gt;Node7 -->
<g id="edge6_Node000004_Node000007" class="edge">
<title>Node4&#45;&gt;Node7</title>
<g id="a_edge6_Node000004_Node000007"><a xlink:title=" ">
<path fill="none" stroke="#63b8ff" d="M492,-54.84C501.69,-47.15 515.84,-35.9 527.44,-26.68"/>
<polygon fill="#63b8ff" stroke="#63b8ff" points="529.6,-29.43 535.26,-20.47 525.25,-23.95 529.6,-29.43"/>
</a>
</g>
</g>
<!-- Node8&#45;&gt;Node4 -->
<g id="edge8_Node000008_Node000004" class="edge">
<title>Node8&#45;&gt;Node4</title>
<g id="a_edge8_Node000008_Node000004"><a xlink:title=" ">
<path fill="none" stroke="#63b8ff" d="M54.95,-275.78C26.05,-265.81 -9.73,-247.62 2.64,-221 34.74,-151.93 63.91,-141.16 133.64,-110.5 187.49,-86.82 358.55,-73.42 438.58,-68.31"/>
<polygon fill="#63b8ff" stroke="#63b8ff" points="438.43,-71.82 448.2,-67.71 438,-64.84 438.43,-71.82"/>
</a>
</g>
</g>
<!-- Node9 -->
<g id="Node000009" class="node">
<title>Node9</title>
<g id="a_Node000009"><a xlink:href="_status_handler_8h.html" target="_top" xlink:title=" ">
<polygon fill="white" stroke="#666666" points="266.51,-240.25 180.76,-240.25 180.76,-221 266.51,-221 266.51,-240.25"/>
<text xml:space="preserve" text-anchor="middle" x="223.64" y="-226.75" font-family="Helvetica,sans-Serif" font-size="10.00">StatusHandler.h</text>
</a>
</g>
</g>
<!-- Node8&#45;&gt;Node9 -->
<g id="edge9_Node000008_Node000009" class="edge">
<title>Node8&#45;&gt;Node9</title>
<g id="a_edge9_Node000008_Node000009"><a xlink:title=" ">
<path fill="none" stroke="#63b8ff" d="M110.71,-275.84C132.4,-267.35 165.12,-254.54 189.77,-244.89"/>
<polygon fill="#63b8ff" stroke="#63b8ff" points="191.01,-248.16 199.04,-241.25 188.46,-241.64 191.01,-248.16"/>
</a>
</g>
</g>
<!-- Node12 -->
<g id="Node000012" class="node">
<title>Node12</title>
<g id="a_Node000012"><a xlink:title=" ">
<polygon fill="#e0e0e0" stroke="#999999" points="53.39,-240.25 11.89,-240.25 11.89,-221 53.39,-221 53.39,-240.25"/>
<text xml:space="preserve" text-anchor="middle" x="32.64" y="-226.75" font-family="Helvetica,sans-Serif" font-size="10.00">Esp.h</text>
</a>
</g>
</g>
<!-- Node8&#45;&gt;Node12 -->
<g id="edge15_Node000008_Node000012" class="edge">
<title>Node8&#45;&gt;Node12</title>
<g id="a_edge15_Node000008_Node000012"><a xlink:title=" ">
<path fill="none" stroke="#63b8ff" d="M78.56,-276.08C70.8,-268.57 59.43,-257.56 49.94,-248.38"/>
<polygon fill="#63b8ff" stroke="#63b8ff" points="52.62,-246.1 43,-241.66 47.75,-251.13 52.62,-246.1"/>
</a>
</g>
</g>
<!-- Node13 -->
<g id="Node000013" class="node">
<title>Node13</title>
<g id="a_Node000013"><a xlink:title=" ">
<polygon fill="#e0e0e0" stroke="#999999" points="122.26,-240.25 71.01,-240.25 71.01,-221 122.26,-221 122.26,-240.25"/>
<text xml:space="preserve" text-anchor="middle" x="96.64" y="-226.75" font-family="Helvetica,sans-Serif" font-size="10.00">memory</text>
</a>
</g>
</g>
<!-- Node8&#45;&gt;Node13 -->
<g id="edge16_Node000008_Node000013" class="edge">
<title>Node8&#45;&gt;Node13</title>
<g id="a_edge16_Node000008_Node000013"><a xlink:title=" ">
<path fill="none" stroke="#63b8ff" d="M89.12,-276.08C90.24,-269.49 91.81,-260.21 93.22,-251.82"/>
<polygon fill="#63b8ff" stroke="#63b8ff" points="96.65,-252.55 94.87,-242.1 89.75,-251.38 96.65,-252.55"/>
</a>
</g>
</g>
<!-- Node9&#45;&gt;Node4 -->
<g id="edge10_Node000009_Node000004" class="edge">
<title>Node9&#45;&gt;Node4</title>
<g id="a_edge10_Node000009_Node000004"><a xlink:title=" ">
<path fill="none" stroke="#63b8ff" d="M221.82,-220.65C219.67,-207.58 217.55,-183.02 227.64,-165.75 250.36,-126.84 271.46,-128.79 312.64,-110.5 353.77,-92.23 404,-80.1 438.76,-73.16"/>
<polygon fill="#63b8ff" stroke="#63b8ff" points="439.28,-76.62 448.43,-71.29 437.95,-69.75 439.28,-76.62"/>
</a>
</g>
</g>
<!-- Node9&#45;&gt;Node10 -->
<g id="edge11_Node000009_Node000010" class="edge">
<title>Node9&#45;&gt;Node10</title>
<g id="a_edge11_Node000009_Node000010"><a xlink:title=" ">
<path fill="none" stroke="#63b8ff" d="M234.16,-220.59C243.03,-212.97 255.95,-201.87 266.63,-192.7"/>
<polygon fill="#63b8ff" stroke="#63b8ff" points="268.82,-195.43 274.13,-186.26 264.26,-190.12 268.82,-195.43"/>
</a>
</g>
</g>
<!-- Node11 -->
<g id="Node000011" class="node">
<title>Node11</title>
<g id="a_Node000011"><a xlink:title=" ">
<polygon fill="#e0e0e0" stroke="#999999" points="388.14,-129.75 345.14,-129.75 345.14,-110.5 388.14,-110.5 388.14,-129.75"/>
<text xml:space="preserve" text-anchor="middle" x="366.64" y="-116.25" font-family="Helvetica,sans-Serif" font-size="10.00">vector</text>
</a>
</g>
</g>
<!-- Node9&#45;&gt;Node11 -->
<g id="edge14_Node000009_Node000011" class="edge">
<title>Node9&#45;&gt;Node11</title>
<g id="a_edge14_Node000009_Node000011"><a xlink:title=" ">
<path fill="none" stroke="#63b8ff" d="M223.86,-220.53C224.67,-206.88 228.17,-181.05 242.64,-165.75 266.57,-140.43 305.89,-129.45 333.84,-124.7"/>
<polygon fill="#63b8ff" stroke="#63b8ff" points="334.17,-128.19 343.54,-123.25 333.13,-121.27 334.17,-128.19"/>
</a>
</g>
</g>
<!-- Node10&#45;&gt;Node4 -->
<g id="edge12_Node000010_Node000004" class="edge">
<title>Node10&#45;&gt;Node4</title>
<g id="a_edge12_Node000010_Node000004"><a xlink:title=" ">
<path fill="none" stroke="#63b8ff" d="M290.35,-165.55C298.16,-151.78 315.07,-125.22 336.64,-110.5 367.31,-89.57 408.21,-78.13 438.59,-72.1"/>
<polygon fill="#63b8ff" stroke="#63b8ff" points="438.99,-75.58 448.18,-70.31 437.71,-68.7 438.99,-75.58"/>
</a>
</g>
</g>
<!-- Node10&#45;&gt;Node11 -->
<g id="edge13_Node000010_Node000011" class="edge">
<title>Node10&#45;&gt;Node11</title>
<g id="a_edge13_Node000010_Node000011"><a xlink:title=" ">
<path fill="none" stroke="#63b8ff" d="M299.38,-165.34C311.36,-157.46 329.01,-145.86 343.22,-136.52"/>
<polygon fill="#63b8ff" stroke="#63b8ff" points="345.13,-139.45 351.57,-131.03 341.29,-133.6 345.13,-139.45"/>
</a>
</g>
</g>
<!-- Node14&#45;&gt;Node9 -->
<g id="edge23_Node000014_Node000009" class="edge">
<title>Node14&#45;&gt;Node9</title>
<g id="a_edge23_Node000014_Node000009"><a xlink:title=" ">
<path fill="none" stroke="#63b8ff" d="M434.26,-275.78C391.07,-266.73 324.64,-252.8 277.95,-243.01"/>
<polygon fill="#63b8ff" stroke="#63b8ff" points="278.82,-239.62 268.32,-240.99 277.38,-246.47 278.82,-239.62"/>
</a>
</g>
</g>
<!-- Node15 -->
<g id="Node000015" class="node">
<title>Node15</title>
<g id="a_Node000015"><a xlink:href="_config_handler_8h.html" target="_top" xlink:title=" ">
<polygon fill="white" stroke="#666666" points="461.51,-240.25 375.76,-240.25 375.76,-221 461.51,-221 461.51,-240.25"/>
<text xml:space="preserve" text-anchor="middle" x="418.64" y="-226.75" font-family="Helvetica,sans-Serif" font-size="10.00">ConfigHandler.h</text>
</a>
</g>
</g>
<!-- Node14&#45;&gt;Node15 -->
<g id="edge19_Node000014_Node000015" class="edge">
<title>Node14&#45;&gt;Node15</title>
<g id="a_edge19_Node000014_Node000015"><a xlink:title=" ">
<path fill="none" stroke="#63b8ff" d="M467.63,-275.84C459.27,-268.3 447.14,-257.35 437.04,-248.23"/>
<polygon fill="#63b8ff" stroke="#63b8ff" points="439.39,-245.64 429.62,-241.54 434.7,-250.84 439.39,-245.64"/>
</a>
</g>
</g>
<!-- Node16 -->
<g id="Node000016" class="node">
<title>Node16</title>
<g id="a_Node000016"><a xlink:href="_event_handler_8h.html" target="_top" xlink:title=" ">
<polygon fill="white" stroke="#666666" points="736.01,-240.25 653.26,-240.25 653.26,-221 736.01,-221 736.01,-240.25"/>
<text xml:space="preserve" text-anchor="middle" x="694.64" y="-226.75" font-family="Helvetica,sans-Serif" font-size="10.00">EventHandler.h</text>
</a>
</g>
</g>
<!-- Node14&#45;&gt;Node16 -->
<g id="edge24_Node000014_Node000016" class="edge">
<title>Node14&#45;&gt;Node16</title>
<g id="a_edge24_Node000014_Node000016"><a xlink:title=" ">
<path fill="none" stroke="#63b8ff" d="M514.45,-275.84C550.85,-266.91 606.72,-253.2 646.6,-243.41"/>
<polygon fill="#63b8ff" stroke="#63b8ff" points="647.3,-246.85 656.18,-241.06 645.63,-240.05 647.3,-246.85"/>
</a>
</g>
</g>
<!-- Node22 -->
<g id="Node000022" class="node">
<title>Node22</title>
<g id="a_Node000022"><a xlink:href="_msgs_8h.html" target="_top" xlink:title=" ">
<polygon fill="white" stroke="#666666" points="527.76,-240.25 479.51,-240.25 479.51,-221 527.76,-221 527.76,-240.25"/>
<text xml:space="preserve" text-anchor="middle" x="503.64" y="-226.75" font-family="Helvetica,sans-Serif" font-size="10.00">Msgs.h</text>
</a>
</g>
</g>
<!-- Node14&#45;&gt;Node22 -->
<g id="edge35_Node000014_Node000022" class="edge">
<title>Node14&#45;&gt;Node22</title>
<g id="a_edge35_Node000014_Node000022"><a xlink:title=" ">
<path fill="none" stroke="#63b8ff" d="M481.93,-276.08C485.26,-269.26 490,-259.56 494.2,-250.95"/>
<polygon fill="#63b8ff" stroke="#63b8ff" points="497.34,-252.49 498.59,-241.97 491.05,-249.42 497.34,-252.49"/>
</a>
</g>
</g>
<!-- Node15&#45;&gt;Node4 -->
<g id="edge20_Node000015_Node000004" class="edge">
<title>Node15&#45;&gt;Node4</title>
<g id="a_edge20_Node000015_Node000004"><a xlink:title=" ">
<path fill="none" stroke="#63b8ff" d="M421.97,-220.82C431.64,-195.28 459.88,-120.7 473.34,-85.15"/>
<polygon fill="#63b8ff" stroke="#63b8ff" points="476.48,-86.73 476.75,-76.14 469.94,-84.25 476.48,-86.73"/>
</a>
</g>
</g>
<!-- Node15&#45;&gt;Node10 -->
<g id="edge21_Node000015_Node000010" class="edge">
<title>Node15&#45;&gt;Node10</title>
<g id="a_edge21_Node000015_Node000010"><a xlink:title=" ">
<path fill="none" stroke="#63b8ff" d="M396.08,-220.59C374.87,-212.1 342.87,-199.29 318.76,-189.64"/>
<polygon fill="#63b8ff" stroke="#63b8ff" points="320.3,-186.48 309.72,-186.02 317.7,-192.98 320.3,-186.48"/>
</a>
</g>
</g>
<!-- Node15&#45;&gt;Node11 -->
<g id="edge22_Node000015_Node000011" class="edge">
<title>Node15&#45;&gt;Node11</title>
<g id="a_edge22_Node000015_Node000011"><a xlink:title=" ">
<path fill="none" stroke="#63b8ff" d="M414.38,-220.75C406,-203.26 387.19,-164.02 375.85,-140.34"/>
<polygon fill="#63b8ff" stroke="#63b8ff" points="379.08,-139 371.61,-131.49 372.77,-142.02 379.08,-139"/>
</a>
</g>
</g>
<!-- Node16&#45;&gt;Node4 -->
<g id="edge25_Node000016_Node000004" class="edge">
<title>Node16&#45;&gt;Node4</title>
<g id="a_edge25_Node000016_Node000004"><a xlink:title=" ">
<path fill="none" stroke="#63b8ff" d="M652.81,-221.16C604.22,-210.99 529.43,-194.16 519.64,-185 491.78,-158.94 483.78,-112.71 481.52,-86.15"/>
<polygon fill="#63b8ff" stroke="#63b8ff" points="485.02,-86.14 480.89,-76.38 478.04,-86.58 485.02,-86.14"/>
</a>
</g>
</g>
<!-- Node16&#45;&gt;Node11 -->
<g id="edge27_Node000016_Node000011" class="edge">
<title>Node16&#45;&gt;Node11</title>
<g id="a_edge27_Node000016_Node000011"><a xlink:title=" ">
<path fill="none" stroke="#63b8ff" d="M652.93,-222.16C601.11,-212.64 515.86,-196.08 485.64,-185 450.7,-172.19 413.35,-150.71 390,-136.24"/>
<polygon fill="#63b8ff" stroke="#63b8ff" points="391.93,-133.32 381.6,-130.95 388.2,-139.24 391.93,-133.32"/>
</a>
</g>
</g>
<!-- Node17 -->
<g id="Node000017" class="node">
<title>Node17</title>
<g id="a_Node000017"><a xlink:title=" ">
<polygon fill="#e0e0e0" stroke="#999999" points="745.64,-185 687.64,-185 687.64,-165.75 745.64,-165.75 745.64,-185"/>
<text xml:space="preserve" text-anchor="middle" x="716.64" y="-171.5" font-family="Helvetica,sans-Serif" font-size="10.00">functional</text>
</a>
</g>
</g>
<!-- Node16&#45;&gt;Node17 -->
<g id="edge26_Node000016_Node000017" class="edge">
<title>Node16&#45;&gt;Node17</title>
<g id="a_edge26_Node000016_Node000017"><a xlink:title=" ">
<path fill="none" stroke="#63b8ff" d="M698.27,-220.83C701.06,-214.09 705.01,-204.52 708.53,-195.99"/>
<polygon fill="#63b8ff" stroke="#63b8ff" points="711.76,-197.34 712.35,-186.76 705.29,-194.66 711.76,-197.34"/>
</a>
</g>
</g>
<!-- Node18 -->
<g id="Node000018" class="node">
<title>Node18</title>
<g id="a_Node000018"><a xlink:title=" ">
<polygon fill="#e0e0e0" stroke="#999999" points="843.76,-185 801.51,-185 801.51,-165.75 843.76,-165.75 843.76,-185"/>
<text xml:space="preserve" text-anchor="middle" x="822.64" y="-171.5" font-family="Helvetica,sans-Serif" font-size="10.00">queue</text>
</a>
</g>
</g>
<!-- Node16&#45;&gt;Node18 -->
<g id="edge28_Node000016_Node000018" class="edge">
<title>Node16&#45;&gt;Node18</title>
<g id="a_edge28_Node000016_Node000018"><a xlink:title=" ">
<path fill="none" stroke="#63b8ff" d="M716.35,-220.59C736.79,-212.09 767.66,-199.25 790.87,-189.59"/>
<polygon fill="#63b8ff" stroke="#63b8ff" points="791.96,-192.93 799.85,-185.86 789.27,-186.47 791.96,-192.93"/>
</a>
</g>
</g>
<!-- Node19 -->
<g id="Node000019" class="node">
<title>Node19</title>
<g id="a_Node000019"><a xlink:href="_named_value_table_8h.html" target="_top" xlink:title=" ">
<polygon fill="white" stroke="#666666" points="631.14,-185 528.14,-185 528.14,-165.75 631.14,-165.75 631.14,-185"/>
<text xml:space="preserve" text-anchor="middle" x="579.64" y="-171.5" font-family="Helvetica,sans-Serif" font-size="10.00">NamedValueTable.h</text>
</a>
</g>
</g>
<!-- Node16&#45;&gt;Node19 -->
<g id="edge29_Node000016_Node000019" class="edge">
<title>Node16&#45;&gt;Node19</title>
<g id="a_edge29_Node000016_Node000019"><a xlink:title=" ">
<path fill="none" stroke="#63b8ff" d="M675.13,-220.59C657.12,-212.25 630.11,-199.75 609.41,-190.16"/>
<polygon fill="#63b8ff" stroke="#63b8ff" points="611.16,-187.11 600.62,-186.09 608.22,-193.47 611.16,-187.11"/>
</a>
</g>
</g>
<!-- Node16&#45;&gt;Node21 -->
<g id="edge34_Node000016_Node000021" class="edge">
<title>Node16&#45;&gt;Node21</title>
<g id="a_edge34_Node000016_Node000021"><a xlink:title=" ">
<path fill="none" stroke="#63b8ff" d="M689.69,-220.57C683.57,-208.24 674.43,-185.43 678.64,-165.75 680.52,-156.94 684.28,-147.76 688.04,-140.04"/>
<polygon fill="#63b8ff" stroke="#63b8ff" points="691.07,-141.79 692.62,-131.31 684.87,-138.54 691.07,-141.79"/>
</a>
</g>
</g>
<!-- Node19&#45;&gt;Node11 -->
<g id="edge30_Node000019_Node000011" class="edge">
<title>Node19&#45;&gt;Node11</title>
<g id="a_edge30_Node000019_Node000011"><a xlink:title=" ">
<path fill="none" stroke="#63b8ff" d="M543.51,-165.34C503.1,-155.24 438.25,-139.03 399.31,-129.29"/>
<polygon fill="#63b8ff" stroke="#63b8ff" points="400.6,-126.01 390.05,-126.98 398.9,-132.8 400.6,-126.01"/>
</a>
</g>
</g>
<!-- Node20 -->
<g id="Node000020" class="node">
<title>Node20</title>
<g id="a_Node000020"><a xlink:href="_l_s_c_utils_8h.html" target="_top" xlink:title=" ">
<polygon fill="white" stroke="#666666" points="601.64,-129.75 537.64,-129.75 537.64,-110.5 601.64,-110.5 601.64,-129.75"/>
<text xml:space="preserve" text-anchor="middle" x="569.64" y="-116.25" font-family="Helvetica,sans-Serif" font-size="10.00">LSCUtils.h</text>
</a>
</g>
</g>
<!-- Node19&#45;&gt;Node20 -->
<g id="edge31_Node000019_Node000020" class="edge">
<title>Node19&#45;&gt;Node20</title>
<g id="a_edge31_Node000019_Node000020"><a xlink:title=" ">
<path fill="none" stroke="#63b8ff" d="M577.99,-165.58C576.75,-158.99 575.01,-149.71 573.43,-141.32"/>
<polygon fill="#63b8ff" stroke="#63b8ff" points="576.89,-140.78 571.6,-131.6 570.01,-142.07 576.89,-140.78"/>
</a>
</g>
</g>
<!-- Node19&#45;&gt;Node21 -->
<g id="edge33_Node000019_Node000021" class="edge">
<title>Node19&#45;&gt;Node21</title>
<g id="a_edge33_Node000019_Node000021"><a xlink:title=" ">
<path fill="none" stroke="#63b8ff" d="M599.82,-165.34C618.54,-156.97 646.66,-144.38 668.12,-134.78"/>
<polygon fill="#63b8ff" stroke="#63b8ff" points="669.27,-138.1 676.97,-130.82 666.41,-131.71 669.27,-138.1"/>
</a>
</g>
</g>
<!-- Node20&#45;&gt;Node4 -->
<g id="edge32_Node000020_Node000004" class="edge">
<title>Node20&#45;&gt;Node4</title>
<g id="a_edge32_Node000020_Node000004"><a xlink:title=" ">
<path fill="none" stroke="#63b8ff" d="M554.54,-110.09C541.11,-102.06 521.23,-90.16 505.46,-80.73"/>
<polygon fill="#63b8ff" stroke="#63b8ff" points="507.49,-77.86 497.11,-75.73 503.89,-83.87 507.49,-77.86"/>
</a>
</g>
</g>
<!-- Node23&#45;&gt;Node16 -->
<g id="edge38_Node000023_Node000016" class="edge">
<title>Node23&#45;&gt;Node16</title>
<g id="a_edge38_Node000023_Node000016"><a xlink:title=" ">
<path fill="none" stroke="#63b8ff" d="M592.5,-275.84C611.94,-267.43 641.18,-254.77 663.4,-245.15"/>
<polygon fill="#63b8ff" stroke="#63b8ff" points="664.49,-248.49 672.28,-241.3 661.71,-242.06 664.49,-248.49"/>
</a>
</g>
</g>
<!-- Node23&#45;&gt;Node22 -->
<g id="edge39_Node000023_Node000022" class="edge">
<title>Node23&#45;&gt;Node22</title>
<g id="a_edge39_Node000023_Node000022"><a xlink:title=" ">
<path fill="none" stroke="#63b8ff" d="M560.1,-275.84C550.18,-268.07 535.63,-256.67 523.78,-247.4"/>
<polygon fill="#63b8ff" stroke="#63b8ff" points="526.23,-244.87 516.19,-241.46 521.91,-250.38 526.23,-244.87"/>
</a>
</g>
</g>
<!-- Node24 -->
<g id="Node000024" class="node">
<title>Node24</title>
<g id="a_Node000024"><a xlink:title=" ">
<polygon fill="#e0e0e0" stroke="#999999" points="597.26,-240.25 546.01,-240.25 546.01,-221 597.26,-221 597.26,-240.25"/>
<text xml:space="preserve" text-anchor="middle" x="571.64" y="-226.75" font-family="Helvetica,sans-Serif" font-size="10.00">stdarg.h</text>
</a>
</g>
</g>
<!-- Node23&#45;&gt;Node24 -->
<g id="edge37_Node000023_Node000024" class="edge">
<title>Node23&#45;&gt;Node24</title>
<g id="a_edge37_Node000023_Node000024"><a xlink:title=" ">
<path fill="none" stroke="#63b8ff" d="M571.64,-276.08C571.64,-269.57 571.64,-260.42 571.64,-252.12"/>
<polygon fill="#63b8ff" stroke="#63b8ff" points="575.14,-252.12 571.64,-242.12 568.14,-252.12 575.14,-252.12"/>
</a>
</g>
</g>
<!-- Node25&#45;&gt;Node11 -->
<g id="edge42_Node000025_Node000011" class="edge">
<title>Node25&#45;&gt;Node11</title>
<g id="a_edge42_Node000025_Node000011"><a xlink:title=" ">
<path fill="none" stroke="#63b8ff" d="M384.05,-275.86C378.17,-267.22 369.99,-253.56 366.64,-240.25 358.07,-206.25 360.85,-165.04 363.71,-141.08"/>
<polygon fill="#63b8ff" stroke="#63b8ff" points="367.14,-141.85 364.99,-131.47 360.2,-140.92 367.14,-141.85"/>
</a>
</g>
</g>
<!-- Node25&#45;&gt;Node15 -->
<g id="edge41_Node000025_Node000015" class="edge">
<title>Node25&#45;&gt;Node15</title>
<g id="a_edge41_Node000025_Node000015"><a xlink:title=" ">
<path fill="none" stroke="#63b8ff" d="M395.26,-276.08C398.89,-269.19 404.07,-259.34 408.63,-250.66"/>
<polygon fill="#63b8ff" stroke="#63b8ff" points="411.65,-252.43 413.21,-241.95 405.46,-249.17 411.65,-252.43"/>
</a>
</g>
</g>
<!-- Node26&#45;&gt;Node4 -->
<g id="edge45_Node000026_Node000004" class="edge">
<title>Node26&#45;&gt;Node4</title>
<g id="a_edge45_Node000026_Node000004"><a xlink:title=" ">
<path fill="none" stroke="#63b8ff" d="M1006.28,-220.6C1004.86,-197.83 997.69,-137.97 961.64,-110.5 927.08,-84.17 633.37,-71.23 522.64,-67.25"/>
<polygon fill="#63b8ff" stroke="#63b8ff" points="522.92,-63.76 512.8,-66.91 522.67,-70.75 522.92,-63.76"/>
</a>
</g>
</g>
<!-- Node27&#45;&gt;Node4 -->
<g id="edge47_Node000027_Node000004" class="edge">
<title>Node27&#45;&gt;Node4</title>
<g id="a_edge47_Node000027_Node000004"><a xlink:title=" ">
<path fill="none" stroke="#63b8ff" d="M869.36,-275.94C880.74,-268.11 895.7,-255.6 902.64,-240.25 926.39,-187.69 944.24,-153.36 905.64,-110.5 880.3,-82.36 625.06,-70.72 522.74,-67.16"/>
<polygon fill="#63b8ff" stroke="#63b8ff" points="522.95,-63.67 512.84,-66.83 522.71,-70.66 522.95,-63.67"/>
</a>
</g>
</g>
<!-- Node27&#45;&gt;Node10 -->
<g id="edge51_Node000027_Node000010" class="edge">
<title>Node27&#45;&gt;Node10</title>
<g id="a_edge51_Node000027_Node000010"><a xlink:title=" ">
<path fill="none" stroke="#63b8ff" d="M817.04,-279.9C774.39,-273.56 703.16,-260.9 644.64,-240.25 626.78,-233.95 624.7,-226.66 606.64,-221 511.61,-191.24 394.55,-181.3 331.34,-178"/>
<polygon fill="#63b8ff" stroke="#63b8ff" points="331.85,-174.52 321.7,-177.53 331.52,-181.51 331.85,-174.52"/>
</a>
</g>
</g>
<!-- Node27&#45;&gt;Node16 -->
<g id="edge48_Node000027_Node000016" class="edge">
<title>Node27&#45;&gt;Node16</title>
<g id="a_edge48_Node000027_Node000016"><a xlink:title=" ">
<path fill="none" stroke="#63b8ff" d="M827.5,-275.84C801.41,-267.16 761.74,-253.96 732.54,-244.24"/>
<polygon fill="#63b8ff" stroke="#63b8ff" points="733.94,-241.02 723.35,-241.18 731.73,-247.66 733.94,-241.02"/>
</a>
</g>
</g>
<!-- Node27&#45;&gt;Node18 -->
<g id="edge54_Node000027_Node000018" class="edge">
<title>Node27&#45;&gt;Node18</title>
<g id="a_edge54_Node000027_Node000018"><a xlink:title=" ">
<path fill="none" stroke="#63b8ff" d="M852.02,-276C846.91,-258.67 835.5,-219.98 828.5,-196.24"/>
<polygon fill="#63b8ff" stroke="#63b8ff" points="831.91,-195.43 825.72,-186.83 825.19,-197.41 831.91,-195.43"/>
</a>
</g>
</g>
<!-- Node27&#45;&gt;Node21 -->
<g id="edge53_Node000027_Node000021" class="edge">
<title>Node27&#45;&gt;Node21</title>
<g id="a_edge53_Node000027_Node000021"><a xlink:title=" ">
<path fill="none" stroke="#63b8ff" d="M857.7,-275.96C864.46,-254.47 878.14,-199.11 852.64,-165.75 841.57,-151.27 801.53,-139.93 765.05,-132.3"/>
<polygon fill="#63b8ff" stroke="#63b8ff" points="765.86,-128.89 755.36,-130.35 764.48,-135.76 765.86,-128.89"/>
</a>
</g>
</g>
<!-- Node27&#45;&gt;Node26 -->
<g id="edge52_Node000027_Node000026" class="edge">
<title>Node27&#45;&gt;Node26</title>
<g id="a_edge52_Node000027_Node000026"><a xlink:title=" ">
<path fill="none" stroke="#63b8ff" d="M880.42,-275.84C904.99,-267.24 942.23,-254.19 969.89,-244.5"/>
<polygon fill="#63b8ff" stroke="#63b8ff" points="971.02,-247.81 979.3,-241.2 968.7,-241.21 971.02,-247.81"/>
</a>
</g>
</g>
<!-- Node28 -->
<g id="Node000028" class="node">
<title>Node28</title>
<g id="a_Node000028"><a xlink:href="_simple_delay_8h.html" target="_top" xlink:title=" ">
<polygon fill="white" stroke="#666666" points="896.76,-129.75 818.51,-129.75 818.51,-110.5 896.76,-110.5 896.76,-129.75"/>
<text xml:space="preserve" text-anchor="middle" x="857.64" y="-116.25" font-family="Helvetica,sans-Serif" font-size="10.00">SimpleDelay.h</text>
</a>
</g>
</g>
<!-- Node27&#45;&gt;Node28 -->
<g id="edge49_Node000027_Node000028" class="edge">
<title>Node27&#45;&gt;Node28</title>
<g id="a_edge49_Node000027_Node000028"><a xlink:title=" ">
<path fill="none" stroke="#63b8ff" d="M863.41,-275.87C870.96,-267.45 881.3,-254.11 885.64,-240.25 895.54,-208.65 894.79,-197.57 885.64,-165.75 882.89,-156.22 877.45,-146.75 872.08,-139.01"/>
<polygon fill="#63b8ff" stroke="#63b8ff" points="875.01,-137.08 866.22,-131.17 869.41,-141.27 875.01,-137.08"/>
</a>
</g>
</g>
<!-- Node28&#45;&gt;Node4 -->
<g id="edge50_Node000028_Node000004" class="edge">
<title>Node28&#45;&gt;Node4</title>
<g id="a_edge50_Node000028_Node000004"><a xlink:title=" ">
<path fill="none" stroke="#63b8ff" d="M818.36,-113.58C746.84,-103.48 596,-82.17 522.57,-71.8"/>
<polygon fill="#63b8ff" stroke="#63b8ff" points="523.37,-68.38 512.97,-70.44 522.39,-75.31 523.37,-68.38"/>
</a>
</g>
</g>
</g>
</svg>
