<?xml version="1.0" encoding="UTF-8" standalone="no"?>
<!DOCTYPE svg PUBLIC "-//W3C//DTD SVG 1.1//EN"
 "http://www.w3.org/Graphics/SVG/1.1/DTD/svg11.dtd">
<!-- Generated by graphviz version 15.1.0 (20260618.0150)
 -->
<!-- Title: include/WiFiController.h Pages: 1 -->
<svg width="822pt" height="414pt"
 viewBox="0.00 0.00 822.00 414.00" xmlns="http://www.w3.org/2000/svg" xmlns:xlink="http://www.w3.org/1999/xlink">
<g id="graph0" class="graph" transform="scale(1 1) rotate(0) translate(4 410)">
<title>include/WiFiController.h</title>
<!-- Node1 -->
<g id="Node000001" class="node">
<title>Node1</title>
<g id="a_Node000001"><a xlink:title="WiFi Controller to handle Access Point and Station Mode.">
<polygon fill="#999999" stroke="#666666" points="490.55,-406 371.05,-406 371.05,-386.75 490.55,-386.75 490.55,-406"/>
<text xml:space="preserve" text-anchor="middle" x="430.8" y="-392.5" font-family="Helvetica,sans-Serif" font-size="10.00">include/WiFiController.h</text>
</a>
</g>
</g>
<!-- Node2 -->
<g id="Node000002" class="node">
<title>Node2</title>
<g id="a_Node000002"><a xlink:href="_appl_8h.html" target="_top" xlink:title="Application Main Class.">
<polygon fill="white" stroke="#666666" points="452.68,-350.75 408.93,-350.75 408.93,-331.5 452.68,-331.5 452.68,-350.75"/>
<text xml:space="preserve" text-anchor="middle" x="430.8" y="-337.25" font-family="Helvetica,sans-Serif" font-size="10.00">Appl.h</text>
</a>
</g>
</g>
<!-- Node1&#45;&gt;Node2 -->
<g id="edge1_Node000001_Node000002" class="edge">
<title>Node1&#45;&gt;Node2</title>
<g id="a_edge1_Node000001_Node000002"><a xlink:title=" ">
<path fill="none" stroke="#63b8ff" d="M430.8,-386.58C430.8,-380.07 430.8,-370.92 430.8,-362.62"/>
<polygon fill="#63b8ff" stroke="#63b8ff" points="434.3,-362.62 430.8,-352.62 427.3,-362.62 434.3,-362.62"/>
</a>
</g>
</g>
<!-- Node9 -->
<g id="Node000009" class="node">
<title>Node9</title>
<g id="a_Node000009"><a xlink:href="_json_node_8h.html" target="_top" xlink:title=" ">
<polygon fill="white" stroke="#666666" points="148.05,-185 79.55,-185 79.55,-165.75 148.05,-165.75 148.05,-185"/>
<text xml:space="preserve" text-anchor="middle" x="113.8" y="-171.5" font-family="Helvetica,sans-Serif" font-size="10.00">JsonNode.h</text>
</a>
</g>
</g>
<!-- Node1&#45;&gt;Node9 -->
<g id="edge45_Node000001_Node000009" class="edge">
<title>Node1&#45;&gt;Node9</title>
<g id="a_edge45_Node000001_Node000009"><a xlink:title=" ">
<path fill="none" stroke="#63b8ff" d="M370.83,-396.09C285.89,-393.95 130.05,-377.98 32.8,-295.5 6.27,-273 -10.39,-250.01 8.8,-221 22.02,-201.02 46.17,-189.96 67.99,-183.85"/>
<polygon fill="#63b8ff" stroke="#63b8ff" points="68.78,-187.26 77.64,-181.45 67.09,-180.47 68.78,-187.26"/>
</a>
</g>
</g>
<!-- Node25 -->
<g id="Node000025" class="node">
<title>Node25</title>
<g id="a_Node000025"><a xlink:href="_network_8h.html" target="_top" xlink:title=" ">
<polygon fill="white" stroke="#666666" points="681.3,-350.75 620.3,-350.75 620.3,-331.5 681.3,-331.5 681.3,-350.75"/>
<text xml:space="preserve" text-anchor="middle" x="650.8" y="-337.25" font-family="Helvetica,sans-Serif" font-size="10.00">Network.h</text>
</a>
</g>
</g>
<!-- Node1&#45;&gt;Node25 -->
<g id="edge43_Node000001_Node000025" class="edge">
<title>Node1&#45;&gt;Node25</title>
<g id="a_edge43_Node000001_Node000025"><a xlink:title=" ">
<path fill="none" stroke="#63b8ff" d="M468.12,-386.34C507.14,-376.9 568.26,-362.1 608.91,-352.26"/>
<polygon fill="#63b8ff" stroke="#63b8ff" points="609.69,-355.68 618.58,-349.92 608.04,-348.87 609.69,-355.68"/>
</a>
</g>
</g>
<!-- Node3 -->
<g id="Node000003" class="node">
<title>Node3</title>
<g id="a_Node000003"><a xlink:href="_runtime_8h.html" target="_top" xlink:title=" ">
<polygon fill="white" stroke="#666666" points="396.3,-74.5 335.3,-74.5 335.3,-55.25 396.3,-55.25 396.3,-74.5"/>
<text xml:space="preserve" text-anchor="middle" x="365.8" y="-61" font-family="Helvetica,sans-Serif" font-size="10.00">Runtime.h</text>
</a>
</g>
</g>
<!-- Node2&#45;&gt;Node3 -->
<g id="edge2_Node000002_Node000003" class="edge">
<title>Node2&#45;&gt;Node3</title>
<g id="a_edge2_Node000002_Node000003"><a xlink:title=" ">
<path fill="none" stroke="#63b8ff" d="M453.17,-338C529.62,-330.13 775.8,-299.51 775.8,-231.62 775.8,-231.62 775.8,-231.62 775.8,-174.38 775.8,-98.87 512.64,-74.71 407.99,-68.08"/>
<polygon fill="#63b8ff" stroke="#63b8ff" points="408.32,-64.6 398.13,-67.48 407.9,-71.58 408.32,-64.6"/>
</a>
</g>
</g>
<!-- Node7 -->
<g id="Node000007" class="node">
<title>Node7</title>
<g id="a_Node000007"><a xlink:href="_sys_status_8h.html" target="_top" xlink:title=" ">
<polygon fill="white" stroke="#666666" points="147.8,-295.5 77.8,-295.5 77.8,-276.25 147.8,-276.25 147.8,-295.5"/>
<text xml:space="preserve" text-anchor="middle" x="112.8" y="-282" font-family="Helvetica,sans-Serif" font-size="10.00">SysStatus.h</text>
</a>
</g>
</g>
<!-- Node2&#45;&gt;Node7 -->
<g id="edge6_Node000002_Node000007" class="edge">
<title>Node2&#45;&gt;Node7</title>
<g id="a_edge6_Node000002_Node000007"><a xlink:title=" ">
<path fill="none" stroke="#63b8ff" d="M408.44,-336.38C356.88,-327.75 228.77,-306.3 159.33,-294.67"/>
<polygon fill="#63b8ff" stroke="#63b8ff" points="160.23,-291.27 149.79,-293.07 159.08,-298.17 160.23,-291.27"/>
</a>
</g>
</g>
<!-- Node2&#45;&gt;Node9 -->
<g id="edge16_Node000002_Node000009" class="edge">
<title>Node2&#45;&gt;Node9</title>
<g id="a_edge16_Node000002_Node000009"><a xlink:title=" ">
<path fill="none" stroke="#63b8ff" d="M408.66,-339.4C339.51,-336.83 128.65,-326.58 68.8,-295.5 33.41,-277.12 -2.58,-254.66 18.8,-221 29.91,-203.51 49.88,-192.76 68.66,-186.2"/>
<polygon fill="#63b8ff" stroke="#63b8ff" points="69.56,-189.59 78.06,-183.26 67.47,-182.91 69.56,-189.59"/>
</a>
</g>
</g>
<!-- Node13 -->
<g id="Node000013" class="node">
<title>Node13</title>
<g id="a_Node000013"><a xlink:href="_module_interface_8h.html" target="_top" xlink:title="Full Interface for a module and an abstract basic module implementation.">
<polygon fill="white" stroke="#666666" points="477.8,-295.5 383.8,-295.5 383.8,-276.25 477.8,-276.25 477.8,-295.5"/>
<text xml:space="preserve" text-anchor="middle" x="430.8" y="-282" font-family="Helvetica,sans-Serif" font-size="10.00">ModuleInterface.h</text>
</a>
</g>
</g>
<!-- Node2&#45;&gt;Node13 -->
<g id="edge17_Node000002_Node000013" class="edge">
<title>Node2&#45;&gt;Node13</title>
<g id="a_edge17_Node000002_Node000013"><a xlink:title=" ">
<path fill="none" stroke="#63b8ff" d="M430.8,-331.33C430.8,-324.82 430.8,-315.67 430.8,-307.37"/>
<polygon fill="#63b8ff" stroke="#63b8ff" points="434.3,-307.37 430.8,-297.37 427.3,-307.37 434.3,-307.37"/>
</a>
</g>
</g>
<!-- Node20 -->
<g id="Node000020" class="node">
<title>Node20</title>
<g id="a_Node000020"><a xlink:href="_development_helper_8h.html" target="_top" xlink:title=" ">
<polygon fill="white" stroke="#666666" points="623.68,-129.75 513.93,-129.75 513.93,-110.5 623.68,-110.5 623.68,-129.75"/>
<text xml:space="preserve" text-anchor="middle" x="568.8" y="-116.25" font-family="Helvetica,sans-Serif" font-size="10.00">DevelopmentHelper.h</text>
</a>
</g>
</g>
<!-- Node2&#45;&gt;Node20 -->
<g id="edge42_Node000002_Node000020" class="edge">
<title>Node2&#45;&gt;Node20</title>
<g id="a_edge42_Node000002_Node000020"><a xlink:title=" ">
<path fill="none" stroke="#63b8ff" d="M452.91,-336.66C510.64,-326.25 665.09,-289.25 718.8,-185 738.16,-147.42 683.87,-131.95 635.28,-125.58"/>
<polygon fill="#63b8ff" stroke="#63b8ff" points="635.91,-122.13 625.56,-124.43 635.08,-129.08 635.91,-122.13"/>
</a>
</g>
</g>
<!-- Node22 -->
<g id="Node000022" class="node">
<title>Node22</title>
<g id="a_Node000022"><a xlink:href="_logging_8h.html" target="_top" xlink:title=" ">
<polygon fill="white" stroke="#666666" points="554.8,-295.5 496.8,-295.5 496.8,-276.25 554.8,-276.25 554.8,-295.5"/>
<text xml:space="preserve" text-anchor="middle" x="525.8" y="-282" font-family="Helvetica,sans-Serif" font-size="10.00">Logging.h</text>
</a>
</g>
</g>
<!-- Node2&#45;&gt;Node22 -->
<g id="edge35_Node000002_Node000022" class="edge">
<title>Node2&#45;&gt;Node22</title>
<g id="a_edge35_Node000002_Node000022"><a xlink:title=" ">
<path fill="none" stroke="#63b8ff" d="M446.92,-331.09C461.38,-322.98 482.88,-310.93 499.78,-301.46"/>
<polygon fill="#63b8ff" stroke="#63b8ff" points="501.27,-304.64 508.29,-296.69 497.85,-298.53 501.27,-304.64"/>
</a>
</g>
</g>
<!-- Node24 -->
<g id="Node000024" class="node">
<title>Node24</title>
<g id="a_Node000024"><a xlink:href="_vars_8h.html" target="_top" xlink:title=" ">
<polygon fill="white" stroke="#666666" points="363.68,-295.5 319.93,-295.5 319.93,-276.25 363.68,-276.25 363.68,-295.5"/>
<text xml:space="preserve" text-anchor="middle" x="341.8" y="-282" font-family="Helvetica,sans-Serif" font-size="10.00">Vars.h</text>
</a>
</g>
</g>
<!-- Node2&#45;&gt;Node24 -->
<g id="edge39_Node000002_Node000024" class="edge">
<title>Node2&#45;&gt;Node24</title>
<g id="a_edge39_Node000002_Node000024"><a xlink:title=" ">
<path fill="none" stroke="#63b8ff" d="M415.7,-331.09C402.28,-323.06 382.39,-311.16 366.63,-301.73"/>
<polygon fill="#63b8ff" stroke="#63b8ff" points="368.65,-298.86 358.27,-296.73 365.06,-304.87 368.65,-298.86"/>
</a>
</g>
</g>
<!-- Node4 -->
<g id="Node000004" class="node">
<title>Node4</title>
<g id="a_Node000004"><a xlink:title=" ">
<polygon fill="#e0e0e0" stroke="#999999" points="324.93,-19.25 276.68,-19.25 276.68,0 324.93,0 324.93,-19.25"/>
<text xml:space="preserve" text-anchor="middle" x="300.8" y="-5.75" font-family="Helvetica,sans-Serif" font-size="10.00">string.h</text>
</a>
</g>
</g>
<!-- Node3&#45;&gt;Node4 -->
<g id="edge3_Node000003_Node000004" class="edge">
<title>Node3&#45;&gt;Node4</title>
<g id="a_edge3_Node000003_Node000004"><a xlink:title=" ">
<path fill="none" stroke="#63b8ff" d="M354.77,-54.84C345.38,-47.15 331.65,-35.9 320.39,-26.68"/>
<polygon fill="#63b8ff" stroke="#63b8ff" points="322.79,-24.11 312.83,-20.48 318.35,-29.53 322.79,-24.11"/>
</a>
</g>
</g>
<!-- Node5 -->
<g id="Node000005" class="node">
<title>Node5</title>
<g id="a_Node000005"><a xlink:title=" ">
<polygon fill="#e0e0e0" stroke="#999999" points="388.43,-19.25 343.18,-19.25 343.18,0 388.43,0 388.43,-19.25"/>
<text xml:space="preserve" text-anchor="middle" x="365.8" y="-5.75" font-family="Helvetica,sans-Serif" font-size="10.00">chrono</text>
</a>
</g>
</g>
<!-- Node3&#45;&gt;Node5 -->
<g id="edge4_Node000003_Node000005" class="edge">
<title>Node3&#45;&gt;Node5</title>
<g id="a_edge4_Node000003_Node000005"><a xlink:title=" ">
<path fill="none" stroke="#63b8ff" d="M365.8,-55.08C365.8,-48.57 365.8,-39.42 365.8,-31.12"/>
<polygon fill="#63b8ff" stroke="#63b8ff" points="369.3,-31.12 365.8,-21.12 362.3,-31.12 369.3,-31.12"/>
</a>
</g>
</g>
<!-- Node6 -->
<g id="Node000006" class="node">
<title>Node6</title>
<g id="a_Node000006"><a xlink:title=" ">
<polygon fill="#e0e0e0" stroke="#999999" points="459.55,-19.25 406.05,-19.25 406.05,0 459.55,0 459.55,-19.25"/>
<text xml:space="preserve" text-anchor="middle" x="432.8" y="-5.75" font-family="Helvetica,sans-Serif" font-size="10.00">iostream</text>
</a>
</g>
</g>
<!-- Node3&#45;&gt;Node6 -->
<g id="edge5_Node000003_Node000006" class="edge">
<title>Node3&#45;&gt;Node6</title>
<g id="a_edge5_Node000003_Node000006"><a xlink:title=" ">
<path fill="none" stroke="#63b8ff" d="M377.17,-54.84C386.85,-47.15 401,-35.9 412.61,-26.68"/>
<polygon fill="#63b8ff" stroke="#63b8ff" points="414.77,-29.43 420.42,-20.47 410.41,-23.95 414.77,-29.43"/>
</a>
</g>
</g>
<!-- Node7&#45;&gt;Node3 -->
<g id="edge7_Node000007_Node000003" class="edge">
<title>Node7&#45;&gt;Node3</title>
<g id="a_edge7_Node000007_Node000003"><a xlink:title=" ">
<path fill="none" stroke="#63b8ff" d="M77.56,-276.87C46.3,-267.74 7.24,-250.16 18.8,-221 45.29,-154.21 71.94,-141.41 136.8,-110.5 197.64,-81.5 276.14,-71.35 323.64,-67.79"/>
<polygon fill="#63b8ff" stroke="#63b8ff" points="323.77,-71.29 333.51,-67.12 323.29,-64.31 323.77,-71.29"/>
</a>
</g>
</g>
<!-- Node8 -->
<g id="Node000008" class="node">
<title>Node8</title>
<g id="a_Node000008"><a xlink:href="_status_handler_8h.html" target="_top" xlink:title=" ">
<polygon fill="white" stroke="#666666" points="242.68,-240.25 156.93,-240.25 156.93,-221 242.68,-221 242.68,-240.25"/>
<text xml:space="preserve" text-anchor="middle" x="199.8" y="-226.75" font-family="Helvetica,sans-Serif" font-size="10.00">StatusHandler.h</text>
</a>
</g>
</g>
<!-- Node7&#45;&gt;Node8 -->
<g id="edge8_Node000007_Node000008" class="edge">
<title>Node7&#45;&gt;Node8</title>
<g id="a_edge8_Node000007_Node000008"><a xlink:title=" ">
<path fill="none" stroke="#63b8ff" d="M127.56,-275.84C140.68,-267.81 160.12,-255.91 175.53,-246.48"/>
<polygon fill="#63b8ff" stroke="#63b8ff" points="176.98,-249.7 183.68,-241.49 173.32,-243.73 176.98,-249.7"/>
</a>
</g>
</g>
<!-- Node11 -->
<g id="Node000011" class="node">
<title>Node11</title>
<g id="a_Node000011"><a xlink:title=" ">
<polygon fill="#e0e0e0" stroke="#999999" points="69.55,-240.25 28.05,-240.25 28.05,-221 69.55,-221 69.55,-240.25"/>
<text xml:space="preserve" text-anchor="middle" x="48.8" y="-226.75" font-family="Helvetica,sans-Serif" font-size="10.00">Esp.h</text>
</a>
</g>
</g>
<!-- Node7&#45;&gt;Node11 -->
<g id="edge14_Node000007_Node000011" class="edge">
<title>Node7&#45;&gt;Node11</title>
<g id="a_edge14_Node000007_Node000011"><a xlink:title=" ">
<path fill="none" stroke="#63b8ff" d="M101.94,-275.84C92.69,-268.15 79.18,-256.9 68.09,-247.68"/>
<polygon fill="#63b8ff" stroke="#63b8ff" points="70.59,-245.2 60.66,-241.49 66.11,-250.58 70.59,-245.2"/>
</a>
</g>
</g>
<!-- Node12 -->
<g id="Node000012" class="node">
<title>Node12</title>
<g id="a_Node000012"><a xlink:title=" ">
<polygon fill="#e0e0e0" stroke="#999999" points="138.43,-240.25 87.18,-240.25 87.18,-221 138.43,-221 138.43,-240.25"/>
<text xml:space="preserve" text-anchor="middle" x="112.8" y="-226.75" font-family="Helvetica,sans-Serif" font-size="10.00">memory</text>
</a>
</g>
</g>
<!-- Node7&#45;&gt;Node12 -->
<g id="edge15_Node000007_Node000012" class="edge">
<title>Node7&#45;&gt;Node12</title>
<g id="a_edge15_Node000007_Node000012"><a xlink:title=" ">
<path fill="none" stroke="#63b8ff" d="M112.8,-276.08C112.8,-269.57 112.8,-260.42 112.8,-252.12"/>
<polygon fill="#63b8ff" stroke="#63b8ff" points="116.3,-252.12 112.8,-242.12 109.3,-252.12 116.3,-252.12"/>
</a>
</g>
</g>
<!-- Node8&#45;&gt;Node3 -->
<g id="edge9_Node000008_Node000003" class="edge">
<title>Node8&#45;&gt;Node3</title>
<g id="a_edge9_Node000008_Node000003"><a xlink:title=" ">
<path fill="none" stroke="#63b8ff" d="M199.69,-220.81C199.91,-199.05 203.53,-142.26 233.8,-110.5 257.3,-85.84 294.88,-74.81 323.95,-69.87"/>
<polygon fill="#63b8ff" stroke="#63b8ff" points="324.15,-73.38 333.52,-68.44 323.11,-66.46 324.15,-73.38"/>
</a>
</g>
</g>
<!-- Node8&#45;&gt;Node9 -->
<g id="edge10_Node000008_Node000009" class="edge">
<title>Node8&#45;&gt;Node9</title>
<g id="a_edge10_Node000008_Node000009"><a xlink:title=" ">
<path fill="none" stroke="#63b8ff" d="M185.21,-220.59C172.36,-212.64 153.39,-200.89 138.23,-191.5"/>
<polygon fill="#63b8ff" stroke="#63b8ff" points="140.09,-188.54 129.75,-186.25 136.41,-194.49 140.09,-188.54"/>
</a>
</g>
</g>
<!-- Node10 -->
<g id="Node000010" class="node">
<title>Node10</title>
<g id="a_Node000010"><a xlink:title=" ">
<polygon fill="#e0e0e0" stroke="#999999" points="286.3,-129.75 243.3,-129.75 243.3,-110.5 286.3,-110.5 286.3,-129.75"/>
<text xml:space="preserve" text-anchor="middle" x="264.8" y="-116.25" font-family="Helvetica,sans-Serif" font-size="10.00">vector</text>
</a>
</g>
</g>
<!-- Node8&#45;&gt;Node10 -->
<g id="edge13_Node000008_Node000010" class="edge">
<title>Node8&#45;&gt;Node10</title>
<g id="a_edge13_Node000008_Node000010"><a xlink:title=" ">
<path fill="none" stroke="#63b8ff" d="M205.19,-220.52C212.54,-208.11 226.12,-185.22 237.8,-165.75 242.92,-157.21 248.63,-147.77 253.47,-139.78"/>
<polygon fill="#63b8ff" stroke="#63b8ff" points="256.42,-141.66 258.62,-131.3 250.44,-138.03 256.42,-141.66"/>
</a>
</g>
</g>
<!-- Node9&#45;&gt;Node3 -->
<g id="edge11_Node000009_Node000003" class="edge">
<title>Node9&#45;&gt;Node3</title>
<g id="a_edge11_Node000009_Node000003"><a xlink:title=" ">
<path fill="none" stroke="#63b8ff" d="M117.96,-165.33C124.92,-151.26 140.32,-124.29 161.8,-110.5 211.26,-78.74 279.9,-69.31 323.58,-66.66"/>
<polygon fill="#63b8ff" stroke="#63b8ff" points="323.61,-70.17 333.42,-66.17 323.26,-63.18 323.61,-70.17"/>
</a>
</g>
</g>
<!-- Node9&#45;&gt;Node10 -->
<g id="edge12_Node000009_Node000010" class="edge">
<title>Node9&#45;&gt;Node10</title>
<g id="a_edge12_Node000009_Node000010"><a xlink:title=" ">
<path fill="none" stroke="#63b8ff" d="M139.42,-165.34C165,-156.32 204.43,-142.42 232.23,-132.61"/>
<polygon fill="#63b8ff" stroke="#63b8ff" points="233.29,-135.95 241.56,-129.32 230.97,-129.35 233.29,-135.95"/>
</a>
</g>
</g>
<!-- Node13&#45;&gt;Node8 -->
<g id="edge22_Node000013_Node000008" class="edge">
<title>Node13&#45;&gt;Node8</title>
<g id="a_edge22_Node000013_Node000008"><a xlink:title=" ">
<path fill="none" stroke="#63b8ff" d="M391.35,-275.78C352.4,-266.8 292.67,-253.03 250.28,-243.26"/>
<polygon fill="#63b8ff" stroke="#63b8ff" points="251.09,-239.86 240.56,-241.02 249.52,-246.68 251.09,-239.86"/>
</a>
</g>
</g>
<!-- Node14 -->
<g id="Node000014" class="node">
<title>Node14</title>
<g id="a_Node000014"><a xlink:href="_config_handler_8h.html" target="_top" xlink:title=" ">
<polygon fill="white" stroke="#666666" points="384.68,-240.25 298.93,-240.25 298.93,-221 384.68,-221 384.68,-240.25"/>
<text xml:space="preserve" text-anchor="middle" x="341.8" y="-226.75" font-family="Helvetica,sans-Serif" font-size="10.00">ConfigHandler.h</text>
</a>
</g>
</g>
<!-- Node13&#45;&gt;Node14 -->
<g id="edge18_Node000013_Node000014" class="edge">
<title>Node13&#45;&gt;Node14</title>
<g id="a_edge18_Node000013_Node000014"><a xlink:title=" ">
<path fill="none" stroke="#63b8ff" d="M415.7,-275.84C402.28,-267.81 382.39,-255.91 366.63,-246.48"/>
<polygon fill="#63b8ff" stroke="#63b8ff" points="368.65,-243.61 358.27,-241.48 365.06,-249.62 368.65,-243.61"/>
</a>
</g>
</g>
<!-- Node15 -->
<g id="Node000015" class="node">
<title>Node15</title>
<g id="a_Node000015"><a xlink:href="_event_handler_8h.html" target="_top" xlink:title=" ">
<polygon fill="white" stroke="#666666" points="485.18,-240.25 402.43,-240.25 402.43,-221 485.18,-221 485.18,-240.25"/>
<text xml:space="preserve" text-anchor="middle" x="443.8" y="-226.75" font-family="Helvetica,sans-Serif" font-size="10.00">EventHandler.h</text>
</a>
</g>
</g>
<!-- Node13&#45;&gt;Node15 -->
<g id="edge23_Node000013_Node000015" class="edge">
<title>Node13&#45;&gt;Node15</title>
<g id="a_edge23_Node000013_Node000015"><a xlink:title=" ">
<path fill="none" stroke="#63b8ff" d="M432.95,-276.08C434.57,-269.42 436.88,-259.99 438.94,-251.53"/>
<polygon fill="#63b8ff" stroke="#63b8ff" points="442.28,-252.62 441.25,-242.08 435.48,-250.96 442.28,-252.62"/>
</a>
</g>
</g>
<!-- Node21 -->
<g id="Node000021" class="node">
<title>Node21</title>
<g id="a_Node000021"><a xlink:href="_msgs_8h.html" target="_top" xlink:title=" ">
<polygon fill="white" stroke="#666666" points="551.93,-240.25 503.68,-240.25 503.68,-221 551.93,-221 551.93,-240.25"/>
<text xml:space="preserve" text-anchor="middle" x="527.8" y="-226.75" font-family="Helvetica,sans-Serif" font-size="10.00">Msgs.h</text>
</a>
</g>
</g>
<!-- Node13&#45;&gt;Node21 -->
<g id="edge34_Node000013_Node000021" class="edge">
<title>Node13&#45;&gt;Node21</title>
<g id="a_edge34_Node000013_Node000021"><a xlink:title=" ">
<path fill="none" stroke="#63b8ff" d="M447.26,-275.84C462.03,-267.73 483.98,-255.68 501.23,-246.21"/>
<polygon fill="#63b8ff" stroke="#63b8ff" points="502.86,-249.31 509.94,-241.43 499.49,-243.18 502.86,-249.31"/>
</a>
</g>
</g>
<!-- Node14&#45;&gt;Node3 -->
<g id="edge19_Node000014_Node000003" class="edge">
<title>Node14&#45;&gt;Node3</title>
<g id="a_edge19_Node000014_Node000003"><a xlink:title=" ">
<path fill="none" stroke="#63b8ff" d="M343.09,-220.82C346.8,-195.5 357.57,-122 362.84,-86.09"/>
<polygon fill="#63b8ff" stroke="#63b8ff" points="366.3,-86.62 364.28,-76.22 359.37,-85.61 366.3,-86.62"/>
</a>
</g>
</g>
<!-- Node14&#45;&gt;Node9 -->
<g id="edge20_Node000014_Node000009" class="edge">
<title>Node14&#45;&gt;Node9</title>
<g id="a_edge20_Node000014_Node000009"><a xlink:title=" ">
<path fill="none" stroke="#63b8ff" d="M302.86,-220.53C263.14,-211.25 201.51,-196.86 159.5,-187.05"/>
<polygon fill="#63b8ff" stroke="#63b8ff" points="160.48,-183.68 149.94,-184.82 158.88,-190.5 160.48,-183.68"/>
</a>
</g>
</g>
<!-- Node14&#45;&gt;Node10 -->
<g id="edge21_Node000014_Node000010" class="edge">
<title>Node14&#45;&gt;Node10</title>
<g id="a_edge21_Node000014_Node000010"><a xlink:title=" ">
<path fill="none" stroke="#63b8ff" d="M335.5,-220.75C322.92,-203.02 294.48,-162.94 277.75,-139.38"/>
<polygon fill="#63b8ff" stroke="#63b8ff" points="280.71,-137.49 272.06,-131.36 275,-141.54 280.71,-137.49"/>
</a>
</g>
</g>
<!-- Node15&#45;&gt;Node3 -->
<g id="edge24_Node000015_Node000003" class="edge">
<title>Node15&#45;&gt;Node3</title>
<g id="a_edge24_Node000015_Node000003"><a xlink:title=" ">
<path fill="none" stroke="#63b8ff" d="M439.61,-220.82C427.39,-195.17 391.61,-120.05 374.76,-84.69"/>
<polygon fill="#63b8ff" stroke="#63b8ff" points="378.13,-83.61 370.67,-76.09 371.81,-86.62 378.13,-83.61"/>
</a>
</g>
</g>
<!-- Node15&#45;&gt;Node10 -->
<g id="edge26_Node000015_Node000010" class="edge">
<title>Node15&#45;&gt;Node10</title>
<g id="a_edge26_Node000015_Node000010"><a xlink:title=" ">
<path fill="none" stroke="#63b8ff" d="M428.85,-220.56C397.97,-201.85 326.92,-158.78 289.26,-135.95"/>
<polygon fill="#63b8ff" stroke="#63b8ff" points="291.25,-133.06 280.88,-130.87 287.62,-139.05 291.25,-133.06"/>
</a>
</g>
</g>
<!-- Node16 -->
<g id="Node000016" class="node">
<title>Node16</title>
<g id="a_Node000016"><a xlink:title=" ">
<polygon fill="#e0e0e0" stroke="#999999" points="709.8,-185 651.8,-185 651.8,-165.75 709.8,-165.75 709.8,-185"/>
<text xml:space="preserve" text-anchor="middle" x="680.8" y="-171.5" font-family="Helvetica,sans-Serif" font-size="10.00">functional</text>
</a>
</g>
</g>
<!-- Node15&#45;&gt;Node16 -->
<g id="edge25_Node000015_Node000016" class="edge">
<title>Node15&#45;&gt;Node16</title>
<g id="a_edge25_Node000015_Node000016"><a xlink:title=" ">
<path fill="none" stroke="#63b8ff" d="M484.59,-220.51C522.46,-212.04 580.72,-198.99 640.22,-185.58"/>
<polygon fill="#63b8ff" stroke="#63b8ff" points="640.88,-189.02 649.87,-183.4 639.34,-182.19 640.88,-189.02"/>
</a>
</g>
</g>
<!-- Node17 -->
<g id="Node000017" class="node">
<title>Node17</title>
<g id="a_Node000017"><a xlink:title=" ">
<polygon fill="#e0e0e0" stroke="#999999" points="633.93,-185 591.68,-185 591.68,-165.75 633.93,-165.75 633.93,-185"/>
<text xml:space="preserve" text-anchor="middle" x="612.8" y="-171.5" font-family="Helvetica,sans-Serif" font-size="10.00">queue</text>
</a>
</g>
</g>
<!-- Node15&#45;&gt;Node17 -->
<g id="edge27_Node000015_Node000017" class="edge">
<title>Node15&#45;&gt;Node17</title>
<g id="a_edge27_Node000015_Node000017"><a xlink:title=" ">
<path fill="none" stroke="#63b8ff" d="M472.47,-220.59C502.41,-211.16 549.28,-196.39 580.51,-186.55"/>
<polygon fill="#63b8ff" stroke="#63b8ff" points="581.32,-189.96 589.8,-183.62 579.21,-183.29 581.32,-189.96"/>
</a>
</g>
</g>
<!-- Node18 -->
<g id="Node000018" class="node">
<title>Node18</title>
<g id="a_Node000018"><a xlink:href="_named_value_table_8h.html" target="_top" xlink:title=" ">
<polygon fill="white" stroke="#666666" points="535.3,-185 432.3,-185 432.3,-165.75 535.3,-165.75 535.3,-185"/>
<text xml:space="preserve" text-anchor="middle" x="483.8" y="-171.5" font-family="Helvetica,sans-Serif" font-size="10.00">NamedValueTable.h</text>
</a>
</g>
</g>
<!-- Node15&#45;&gt;Node18 -->
<g id="edge28_Node000015_Node000018" class="edge">
<title>Node15&#45;&gt;Node18</title>
<g id="a_edge28_Node000015_Node000018"><a xlink:title=" ">
<path fill="none" stroke="#63b8ff" d="M450.41,-220.83C455.76,-213.71 463.48,-203.43 470.15,-194.55"/>
<polygon fill="#63b8ff" stroke="#63b8ff" points="472.93,-196.67 476.14,-186.57 467.34,-192.46 472.93,-196.67"/>
</a>
</g>
</g>
<!-- Node15&#45;&gt;Node20 -->
<g id="edge33_Node000015_Node000020" class="edge">
<title>Node15&#45;&gt;Node20</title>
<g id="a_edge33_Node000015_Node000020"><a xlink:title=" ">
<path fill="none" stroke="#63b8ff" d="M482.15,-220.53C503.09,-213.82 528.08,-202.7 544.8,-185 556.14,-173 562.24,-155.14 565.45,-141.35"/>
<polygon fill="#63b8ff" stroke="#63b8ff" points="568.88,-142.09 567.36,-131.61 562.01,-140.75 568.88,-142.09"/>
</a>
</g>
</g>
<!-- Node18&#45;&gt;Node10 -->
<g id="edge29_Node000018_Node000010" class="edge">
<title>Node18&#45;&gt;Node10</title>
<g id="a_edge29_Node000018_Node000010"><a xlink:title=" ">
<path fill="none" stroke="#63b8ff" d="M446.65,-165.34C404.89,-155.19 337.71,-138.85 297.75,-129.14"/>
<polygon fill="#63b8ff" stroke="#63b8ff" points="298.78,-125.78 288.23,-126.82 297.12,-132.59 298.78,-125.78"/>
</a>
</g>
</g>
<!-- Node19 -->
<g id="Node000019" class="node">
<title>Node19</title>
<g id="a_Node000019"><a xlink:href="_l_s_c_utils_8h.html" target="_top" xlink:title=" ">
<polygon fill="white" stroke="#666666" points="495.8,-129.75 431.8,-129.75 431.8,-110.5 495.8,-110.5 495.8,-129.75"/>
<text xml:space="preserve" text-anchor="middle" x="463.8" y="-116.25" font-family="Helvetica,sans-Serif" font-size="10.00">LSCUtils.h</text>
</a>
</g>
</g>
<!-- Node18&#45;&gt;Node19 -->
<g id="edge30_Node000018_Node000019" class="edge">
<title>Node18&#45;&gt;Node19</title>
<g id="a_edge30_Node000018_Node000019"><a xlink:title=" ">
<path fill="none" stroke="#63b8ff" d="M480.5,-165.58C477.97,-158.84 474.37,-149.27 471.17,-140.74"/>
<polygon fill="#63b8ff" stroke="#63b8ff" points="474.5,-139.66 467.71,-131.53 467.95,-142.12 474.5,-139.66"/>
</a>
</g>
</g>
<!-- Node18&#45;&gt;Node20 -->
<g id="edge32_Node000018_Node000020" class="edge">
<title>Node18&#45;&gt;Node20</title>
<g id="a_edge32_Node000018_Node000020"><a xlink:title=" ">
<path fill="none" stroke="#63b8ff" d="M498.22,-165.34C510.92,-157.39 529.67,-145.64 544.66,-136.25"/>
<polygon fill="#63b8ff" stroke="#63b8ff" points="546.41,-139.28 553.03,-131.01 542.7,-133.35 546.41,-139.28"/>
</a>
</g>
</g>
<!-- Node19&#45;&gt;Node3 -->
<g id="edge31_Node000019_Node000003" class="edge">
<title>Node19&#45;&gt;Node3</title>
<g id="a_edge31_Node000019_Node000003"><a xlink:title=" ">
<path fill="none" stroke="#63b8ff" d="M447.18,-110.09C432.11,-101.91 409.66,-89.71 392.15,-80.19"/>
<polygon fill="#63b8ff" stroke="#63b8ff" points="394.29,-77.37 383.84,-75.68 390.95,-83.52 394.29,-77.37"/>
</a>
</g>
</g>
<!-- Node22&#45;&gt;Node15 -->
<g id="edge37_Node000022_Node000015" class="edge">
<title>Node22&#45;&gt;Node15</title>
<g id="a_edge37_Node000022_Node000015"><a xlink:title=" ">
<path fill="none" stroke="#63b8ff" d="M511.89,-275.84C499.64,-267.89 481.55,-256.14 467.09,-246.75"/>
<polygon fill="#63b8ff" stroke="#63b8ff" points="469.34,-244.04 459.05,-241.53 465.53,-249.91 469.34,-244.04"/>
</a>
</g>
</g>
<!-- Node22&#45;&gt;Node21 -->
<g id="edge38_Node000022_Node000021" class="edge">
<title>Node22&#45;&gt;Node21</title>
<g id="a_edge38_Node000022_Node000021"><a xlink:title=" ">
<path fill="none" stroke="#63b8ff" d="M526.13,-276.08C526.38,-269.49 526.73,-260.21 527.04,-251.82"/>
<polygon fill="#63b8ff" stroke="#63b8ff" points="530.53,-252.25 527.41,-242.12 523.53,-251.98 530.53,-252.25"/>
</a>
</g>
</g>
<!-- Node23 -->
<g id="Node000023" class="node">
<title>Node23</title>
<g id="a_Node000023"><a xlink:title=" ">
<polygon fill="#e0e0e0" stroke="#999999" points="621.43,-240.25 570.18,-240.25 570.18,-221 621.43,-221 621.43,-240.25"/>
<text xml:space="preserve" text-anchor="middle" x="595.8" y="-226.75" font-family="Helvetica,sans-Serif" font-size="10.00">stdarg.h</text>
</a>
</g>
</g>
<!-- Node22&#45;&gt;Node23 -->
<g id="edge36_Node000022_Node000023" class="edge">
<title>Node22&#45;&gt;Node23</title>
<g id="a_edge36_Node000022_Node000023"><a xlink:title=" ">
<path fill="none" stroke="#63b8ff" d="M537.67,-275.84C547.89,-268.07 562.87,-256.67 575.06,-247.4"/>
<polygon fill="#63b8ff" stroke="#63b8ff" points="577.06,-250.28 582.9,-241.44 572.82,-244.71 577.06,-250.28"/>
</a>
</g>
</g>
<!-- Node24&#45;&gt;Node10 -->
<g id="edge41_Node000024_Node000010" class="edge">
<title>Node24&#45;&gt;Node10</title>
<g id="a_edge41_Node000024_Node000010"><a xlink:title=" ">
<path fill="none" stroke="#63b8ff" d="M326.63,-275.84C314.74,-267.95 298.77,-255.4 289.8,-240.25 271.38,-209.12 266.42,-166.36 265.15,-141.44"/>
<polygon fill="#63b8ff" stroke="#63b8ff" points="268.66,-141.59 264.82,-131.71 261.66,-141.82 268.66,-141.59"/>
</a>
</g>
</g>
<!-- Node24&#45;&gt;Node14 -->
<g id="edge40_Node000024_Node000014" class="edge">
<title>Node24&#45;&gt;Node14</title>
<g id="a_edge40_Node000024_Node000014"><a xlink:title=" ">
<path fill="none" stroke="#63b8ff" d="M341.8,-276.08C341.8,-269.57 341.8,-260.42 341.8,-252.12"/>
<polygon fill="#63b8ff" stroke="#63b8ff" points="345.3,-252.12 341.8,-242.12 338.3,-252.12 345.3,-252.12"/>
</a>
</g>
</g>
<!-- Node25&#45;&gt;Node3 -->
<g id="edge44_Node000025_Node000003" class="edge">
<title>Node25&#45;&gt;Node3</title>
<g id="a_edge44_Node000025_Node000003"><a xlink:title=" ">
<path fill="none" stroke="#63b8ff" d="M681.46,-334.23C728.68,-323.17 813.8,-294.52 813.8,-231.62 813.8,-231.62 813.8,-231.62 813.8,-174.38 813.8,-91.37 519.64,-71.64 408.04,-67.15"/>
<polygon fill="#63b8ff" stroke="#63b8ff" points="408.23,-63.65 398.11,-66.77 407.97,-70.65 408.23,-63.65"/>
</a>
</g>
</g>
</g>
</svg>
