<?xml version="1.0" encoding="UTF-8" standalone="no"?>
<!DOCTYPE svg PUBLIC "-//W3C//DTD SVG 1.1//EN"
 "http://www.w3.org/Graphics/SVG/1.1/DTD/svg11.dtd">
<!-- Generated by graphviz version 15.1.0 (20260618.0150)
 -->
<!-- Title: include/WiFiController.h Pages: 1 -->
<svg width="266pt" height="83pt"
 viewBox="0.00 0.00 266.00 83.00" xmlns="http://www.w3.org/2000/svg" xmlns:xlink="http://www.w3.org/1999/xlink">
<g id="graph0" class="graph" transform="scale(1 1) rotate(0) translate(4 78.5)">
<title>include/WiFiController.h</title>
<!-- Node1 -->
<g id="Node000001" class="node">
<title>Node1</title>
<g id="a_Node000001"><a xlink:title="WiFi Controller to handle Access Point and Station Mode.">
<polygon fill="#999999" stroke="#666666" points="188.88,-74.5 69.38,-74.5 69.38,-55.25 188.88,-55.25 188.88,-74.5"/>
<text xml:space="preserve" text-anchor="middle" x="129.12" y="-61" font-family="Helvetica,sans-Serif" font-size="10.00">include/WiFiController.h</text>
</a>
</g>
</g>
<!-- Node2 -->
<g id="Node000002" class="node">
<title>Node2</title>
<g id="a_Node000002"><a xlink:href="_c_sys_status_led_8cpp.html" target="_top" xlink:title=" ">
<polygon fill="white" stroke="#666666" points="120.25,-19.25 0,-19.25 0,0 120.25,0 120.25,-19.25"/>
<text xml:space="preserve" text-anchor="middle" x="60.12" y="-5.75" font-family="Helvetica,sans-Serif" font-size="10.00">src/CSysStatusLed.cpp</text>
</a>
</g>
</g>
<!-- Node1&#45;&gt;Node2 -->
<g id="edge1_Node000001_Node000002" class="edge">
<title>Node1&#45;&gt;Node2</title>
<g id="a_edge1_Node000001_Node000002"><a xlink:title=" ">
<path fill="none" stroke="#63b8ff" d="M108.48,-47.94C96.43,-38.64 81.68,-27.26 71.66,-19.52"/>
<polygon fill="#63b8ff" stroke="#63b8ff" points="106.17,-50.58 116.22,-53.92 110.44,-45.04 106.17,-50.58"/>
</a>
</g>
</g>
<!-- Node3 -->
<g id="Node000003" class="node">
<title>Node3</title>
<g id="a_Node000003"><a xlink:href="_c_wi_fi_controller_8cpp.html" target="_top" xlink:title=" ">
<polygon fill="white" stroke="#666666" points="258.25,-19.25 138,-19.25 138,0 258.25,0 258.25,-19.25"/>
<text xml:space="preserve" text-anchor="middle" x="198.12" y="-5.75" font-family="Helvetica,sans-Serif" font-size="10.00">src/CWiFiController.cpp</text>
</a>
</g>
</g>
<!-- Node1&#45;&gt;Node3 -->
<g id="edge2_Node000001_Node000003" class="edge">
<title>Node1&#45;&gt;Node3</title>
<g id="a_edge2_Node000001_Node000003"><a xlink:title=" ">
<path fill="none" stroke="#63b8ff" d="M149.77,-47.94C161.82,-38.64 176.57,-27.26 186.59,-19.52"/>
<polygon fill="#63b8ff" stroke="#63b8ff" points="147.81,-45.04 142.03,-53.92 152.08,-50.58 147.81,-45.04"/>
</a>
</g>
</g>
</g>
</svg>
