<?xml version="1.0" encoding="UTF-8" standalone="no"?>
<!DOCTYPE svg PUBLIC "-//W3C//DTD SVG 1.1//EN"
 "http://www.w3.org/Graphics/SVG/1.1/DTD/svg11.dtd">
<!-- Generated by graphviz version 15.1.0 (20260618.0150)
 -->
<!-- Title: CPinController Pages: 1 -->
<svg width="236pt" height="138pt"
 viewBox="0.00 0.00 236.00 138.00" xmlns="http://www.w3.org/2000/svg" xmlns:xlink="http://www.w3.org/1999/xlink">
<g id="graph0" class="graph" transform="scale(1 1) rotate(0) translate(4 133.75)">
<title>CPinController</title>
<!-- Node1 -->
<g id="Node000001" class="node">
<title>Node1</title>
<g id="a_Node000001"><a xlink:title="PinController.h.">
<polygon fill="#999999" stroke="#666666" points="151.62,-129.75 71.88,-129.75 71.88,-110.5 151.62,-110.5 151.62,-129.75"/>
<text xml:space="preserve" text-anchor="middle" x="111.75" y="-116.25" font-family="Helvetica,sans-Serif" font-size="10.00">CPinController</text>
</a>
</g>
</g>
<!-- Node2 -->
<g id="Node000002" class="node">
<title>Node2</title>
<g id="a_Node000002"><a xlink:href="class_c_input_pin_controller.html" target="_top" xlink:title="InputPinController.h.">
<polygon fill="white" stroke="#666666" points="101.5,-74.5 0,-74.5 0,-55.25 101.5,-55.25 101.5,-74.5"/>
<text xml:space="preserve" text-anchor="middle" x="50.75" y="-61" font-family="Helvetica,sans-Serif" font-size="10.00">CInputPinController</text>
</a>
</g>
</g>
<!-- Node1&#45;&gt;Node2 -->
<g id="edge1_Node000001_Node000002" class="edge">
<title>Node1&#45;&gt;Node2</title>
<g id="a_edge1_Node000001_Node000002"><a xlink:title=" ">
<path fill="none" stroke="#63b8ff" d="M92.86,-102.64C82.33,-93.44 69.63,-82.35 60.94,-74.77"/>
<polygon fill="#63b8ff" stroke="#63b8ff" points="90.43,-105.16 100.26,-109.1 95.03,-99.88 90.43,-105.16"/>
</a>
</g>
</g>
<!-- Node4 -->
<g id="Node000004" class="node">
<title>Node4</title>
<g id="a_Node000004"><a xlink:href="class_c_output_pin_controller.html" target="_top" xlink:title="Base class to controll a pin as in or output with helper functions.">
<polygon fill="white" stroke="#666666" points="228.25,-74.5 119.25,-74.5 119.25,-55.25 228.25,-55.25 228.25,-74.5"/>
<text xml:space="preserve" text-anchor="middle" x="173.75" y="-61" font-family="Helvetica,sans-Serif" font-size="10.00">COutputPinController</text>
</a>
</g>
</g>
<!-- Node1&#45;&gt;Node4 -->
<g id="edge3_Node000001_Node000004" class="edge">
<title>Node1&#45;&gt;Node4</title>
<g id="a_edge3_Node000001_Node000004"><a xlink:title=" ">
<path fill="none" stroke="#63b8ff" d="M130.95,-102.64C141.65,-93.44 154.56,-82.35 163.39,-74.77"/>
<polygon fill="#63b8ff" stroke="#63b8ff" points="128.72,-99.94 123.42,-109.11 133.28,-105.25 128.72,-99.94"/>
</a>
</g>
</g>
<!-- Node3 -->
<g id="Node000003" class="node">
<title>Node3</title>
<g id="a_Node000003"><a xlink:href="class_c_button.html" target="_top" xlink:title=" ">
<polygon fill="white" stroke="#666666" points="76.75,-19.25 24.75,-19.25 24.75,0 76.75,0 76.75,-19.25"/>
<text xml:space="preserve" text-anchor="middle" x="50.75" y="-5.75" font-family="Helvetica,sans-Serif" font-size="10.00">CButton</text>
</a>
</g>
</g>
<!-- Node2&#45;&gt;Node3 -->
<g id="edge2_Node000002_Node000003" class="edge">
<title>Node2&#45;&gt;Node3</title>
<g id="a_edge2_Node000002_Node000003"><a xlink:title=" ">
<path fill="none" stroke="#8b1a1a" d="M50.75,-43.63C50.75,-35.34 50.75,-26.17 50.75,-19.61"/>
<polygon fill="#8b1a1a" stroke="#8b1a1a" points="47.25,-43.57 50.75,-53.57 54.25,-43.57 47.25,-43.57"/>
</a>
</g>
</g>
<!-- Node5 -->
<g id="Node000005" class="node">
<title>Node5</title>
<g id="a_Node000005"><a xlink:href="class_c_light_switch.html" target="_top" xlink:title=" ">
<polygon fill="white" stroke="#666666" points="211,-19.25 136.5,-19.25 136.5,0 211,0 211,-19.25"/>
<text xml:space="preserve" text-anchor="middle" x="173.75" y="-5.75" font-family="Helvetica,sans-Serif" font-size="10.00">CLightSwitch</text>
</a>
</g>
</g>
<!-- Node4&#45;&gt;Node5 -->
<g id="edge4_Node000004_Node000005" class="edge">
<title>Node4&#45;&gt;Node5</title>
<g id="a_edge4_Node000004_Node000005"><a xlink:title=" ">
<path fill="none" stroke="#63b8ff" d="M173.75,-43.63C173.75,-35.34 173.75,-26.17 173.75,-19.61"/>
<polygon fill="#63b8ff" stroke="#63b8ff" points="170.25,-43.57 173.75,-53.57 177.25,-43.57 170.25,-43.57"/>
</a>
</g>
</g>
</g>
</svg>
