<?xml version="1.0" encoding="UTF-8" standalone="no"?>
<!DOCTYPE svg PUBLIC "-//W3C//DTD SVG 1.1//EN"
 "http://www.w3.org/Graphics/SVG/1.1/DTD/svg11.dtd">
<!-- Generated by graphviz version 15.1.0 (20260618.0150)
 -->
<!-- Title: CFS Pages: 1 -->
<svg width="160pt" height="100pt"
 viewBox="0.00 0.00 160.00 100.00" xmlns="http://www.w3.org/2000/svg" xmlns:xlink="http://www.w3.org/1999/xlink">
<g id="graph0" class="graph" transform="scale(1 1) rotate(0) translate(4 95.75)">
<title>CFS</title>
<!-- Node1 -->
<g id="Node000001" class="node">
<title>Node1</title>
<g id="a_Node000001"><a xlink:title="Filesystem facade used by modules to avoid direct LittleFS/SPIFFS use.">
<polygon fill="#999999" stroke="#666666" points="100.75,-19.25 64.5,-19.25 64.5,0 100.75,0 100.75,-19.25"/>
<text xml:space="preserve" text-anchor="middle" x="82.62" y="-5.75" font-family="Helvetica,sans-Serif" font-size="10.00">CFS</text>
</a>
</g>
</g>
<!-- Node2 -->
<g id="Node000002" class="node">
<title>Node2</title>
<g id="a_Node000002"><a xlink:href="class_i_status_handler.html" target="_top" xlink:title="Interface for a status handler module.">
<polygon fill="white" stroke="#666666" points="81.25,-91.75 0,-91.75 0,-72.5 81.25,-72.5 81.25,-91.75"/>
<text xml:space="preserve" text-anchor="middle" x="40.62" y="-78.25" font-family="Helvetica,sans-Serif" font-size="10.00">IStatusHandler</text>
</a>
</g>
</g>
<!-- Node2&#45;&gt;Node1 -->
<g id="edge1_Node000001_Node000002" class="edge">
<title>Node2&#45;&gt;Node1</title>
<g id="a_edge1_Node000001_Node000002"><a xlink:title=" ">
<path fill="none" stroke="#63b8ff" d="M51.6,-62.7C59.84,-48.87 70.77,-30.52 77.22,-19.7"/>
<polygon fill="#63b8ff" stroke="#63b8ff" points="48.83,-60.51 46.72,-70.9 54.84,-64.1 48.83,-60.51"/>
</a>
</g>
</g>
<!-- Node3 -->
<g id="Node000003" class="node">
<title>Node3</title>
<g id="a_Node000003"><a xlink:href="struct_l_s_c___f_s.html" target="_top" xlink:title="FileSystem helper functions.">
<polygon fill="white" stroke="#666666" points="152.38,-91.75 98.88,-91.75 98.88,-72.5 152.38,-72.5 152.38,-91.75"/>
<text xml:space="preserve" text-anchor="middle" x="125.62" y="-78.25" font-family="Helvetica,sans-Serif" font-size="10.00">LSC_FS</text>
</a>
</g>
</g>
<!-- Node3&#45;&gt;Node1 -->
<g id="edge2_Node000001_Node000003" class="edge">
<title>Node3&#45;&gt;Node1</title>
<g id="a_edge2_Node000001_Node000003"><a xlink:title=" ">
<path fill="none" stroke="#9a32cd" stroke-dasharray="5,2" d="M114.39,-62.7C105.95,-48.87 94.76,-30.52 88.16,-19.7"/>
<polygon fill="#9a32cd" stroke="#9a32cd" points="111.2,-64.19 119.39,-70.9 117.17,-60.54 111.2,-64.19"/>
</a>
</g>
<text xml:space="preserve" text-anchor="start" x="112.24" y="-43.25" font-family="Helvetica,sans-Serif" font-size="10.00" fill="grey">m_oFS</text>
</g>
</g>
</svg>
