<?xml version="1.0" encoding="UTF-8" standalone="no"?>
<!DOCTYPE svg PUBLIC "-//W3C//DTD SVG 1.1//EN"
 "http://www.w3.org/Graphics/SVG/1.1/DTD/svg11.dtd">
<!-- Generated by graphviz version 15.1.0 (20260618.0150)
 -->
<!-- Title: CSysStatusLed Pages: 1 -->
<svg width="190pt" height="83pt"
 viewBox="0.00 0.00 190.00 83.00" xmlns="http://www.w3.org/2000/svg" xmlns:xlink="http://www.w3.org/1999/xlink">
<g id="graph0" class="graph" transform="scale(1 1) rotate(0) translate(4 78.5)">
<title>CSysStatusLed</title>
<!-- Node1 -->
<g id="Node000001" class="node">
<title>Node1</title>
<g id="a_Node000001"><a xlink:title=" ">
<polygon fill="#999999" stroke="#666666" points="123,-19.25 38,-19.25 38,0 123,0 123,-19.25"/>
<text xml:space="preserve" text-anchor="middle" x="80.5" y="-5.75" font-family="Helvetica,sans-Serif" font-size="10.00">CSysStatusLed</text>
</a>
</g>
</g>
<!-- Node2 -->
<g id="Node000002" class="node">
<title>Node2</title>
<g id="a_Node000002"><a xlink:href="class_c_r_g_b_led.html" target="_top" xlink:title="Class to handle the RGB LED Initialize the RGB LED with the pins for the colors and with the Informat...">
<polygon fill="white" stroke="#666666" points="61,-74.5 0,-74.5 0,-55.25 61,-55.25 61,-74.5"/>
<text xml:space="preserve" text-anchor="middle" x="30.5" y="-61" font-family="Helvetica,sans-Serif" font-size="10.00">CRGBLed</text>
</a>
</g>
</g>
<!-- Node2&#45;&gt;Node1 -->
<g id="edge1_Node000001_Node000002" class="edge">
<title>Node2&#45;&gt;Node1</title>
<g id="a_edge1_Node000001_Node000002"><a xlink:title=" ">
<path fill="none" stroke="#63b8ff" d="M46.54,-46.79C55.03,-37.75 65.1,-27.02 72.06,-19.61"/>
<polygon fill="#63b8ff" stroke="#63b8ff" points="44.09,-44.29 39.79,-53.98 49.19,-49.08 44.09,-44.29"/>
</a>
</g>
</g>
<!-- Node3 -->
<g id="Node000003" class="node">
<title>Node3</title>
<g id="a_Node000003"><a xlink:href="class_i_msg_event_receiver.html" target="_top" xlink:title="Interface for Message Event Receivers.">
<polygon fill="white" stroke="#666666" points="181.62,-74.5 79.38,-74.5 79.38,-55.25 181.62,-55.25 181.62,-74.5"/>
<text xml:space="preserve" text-anchor="middle" x="130.5" y="-61" font-family="Helvetica,sans-Serif" font-size="10.00">IMsgEventReceiver</text>
</a>
</g>
</g>
<!-- Node3&#45;&gt;Node1 -->
<g id="edge2_Node000001_Node000003" class="edge">
<title>Node3&#45;&gt;Node1</title>
<g id="a_edge2_Node000001_Node000003"><a xlink:title=" ">
<path fill="none" stroke="#63b8ff" d="M114.46,-46.79C105.97,-37.75 95.9,-27.02 88.94,-19.61"/>
<polygon fill="#63b8ff" stroke="#63b8ff" points="111.81,-49.08 121.21,-53.98 116.91,-44.29 111.81,-49.08"/>
</a>
</g>
</g>
</g>
</svg>
