<?xml version="1.0" encoding="UTF-8" standalone="no"?>
<!DOCTYPE svg PUBLIC "-//W3C//DTD SVG 1.1//EN"
 "http://www.w3.org/Graphics/SVG/1.1/DTD/svg11.dtd">
<!-- Generated by graphviz version 15.1.0 (20260618.0150)
 -->
<!-- Title: CWebServer Pages: 1 -->
<svg width="395pt" height="156pt"
 viewBox="0.00 0.00 395.00 156.00" xmlns="http://www.w3.org/2000/svg" xmlns:xlink="http://www.w3.org/1999/xlink">
<g id="graph0" class="graph" transform="scale(1 1) rotate(0) translate(4 152)">
<title>CWebServer</title>
<!-- Node1 -->
<g id="Node000001" class="node">
<title>Node1</title>
<g id="a_Node000001"><a xlink:title="Async web server module that registers default routes and file access.">
<polygon fill="#999999" stroke="#666666" points="242.38,-19.25 170.88,-19.25 170.88,0 242.38,0 242.38,-19.25"/>
<text xml:space="preserve" text-anchor="middle" x="206.62" y="-5.75" font-family="Helvetica,sans-Serif" font-size="10.00">CWebServer</text>
</a>
</g>
</g>
<!-- Node2 -->
<g id="Node000002" class="node">
<title>Node2</title>
<g id="a_Node000002"><a xlink:title=" ">
<polygon fill="white" stroke="#666666" points="96.5,-91.75 4.75,-91.75 4.75,-72.5 96.5,-72.5 96.5,-91.75"/>
<text xml:space="preserve" text-anchor="middle" x="50.62" y="-78.25" font-family="Helvetica,sans-Serif" font-size="10.00">AsyncWebServer</text>
</a>
</g>
</g>
<!-- Node2&#45;&gt;Node1 -->
<g id="edge1_Node000001_Node000002" class="edge">
<title>Node2&#45;&gt;Node1</title>
<g id="a_edge1_Node000001_Node000002"><a xlink:title=" ">
<path fill="none" stroke="#63b8ff" d="M80.99,-67.4C112.19,-53.3 159.87,-31.75 186.63,-19.66"/>
<polygon fill="#63b8ff" stroke="#63b8ff" points="79.75,-64.12 72.08,-71.43 82.63,-70.5 79.75,-64.12"/>
</a>
</g>
</g>
<!-- Node3 -->
<g id="Node000003" class="node">
<title>Node3</title>
<g id="a_Node000003"><a xlink:href="class_i_module.html" target="_top" xlink:title="Full Interface for modules.">
<polygon fill="white" stroke="#666666" points="164.88,-91.75 114.38,-91.75 114.38,-72.5 164.88,-72.5 164.88,-91.75"/>
<text xml:space="preserve" text-anchor="middle" x="139.62" y="-78.25" font-family="Helvetica,sans-Serif" font-size="10.00">IModule</text>
</a>
</g>
</g>
<!-- Node3&#45;&gt;Node1 -->
<g id="edge2_Node000001_Node000003" class="edge">
<title>Node3&#45;&gt;Node1</title>
<g id="a_edge2_Node000001_Node000003"><a xlink:title=" ">
<path fill="none" stroke="#63b8ff" d="M155.99,-63.91C169.25,-49.95 187.41,-30.84 198,-19.7"/>
<polygon fill="#63b8ff" stroke="#63b8ff" points="153.51,-61.44 149.15,-71.1 158.58,-66.26 153.51,-61.44"/>
</a>
</g>
</g>
<!-- Node4 -->
<g id="Node000004" class="node">
<title>Node4</title>
<g id="a_Node000004"><a xlink:href="class_i_config_handler.html" target="_top" xlink:title="Interface for configuration handlers.">
<polygon fill="white" stroke="#666666" points="81.25,-148 0,-148 0,-128.75 81.25,-128.75 81.25,-148"/>
<text xml:space="preserve" text-anchor="middle" x="40.62" y="-134.5" font-family="Helvetica,sans-Serif" font-size="10.00">IConfigHandler</text>
</a>
</g>
</g>
<!-- Node4&#45;&gt;Node3 -->
<g id="edge3_Node000003_Node000004" class="edge">
<title>Node4&#45;&gt;Node3</title>
<g id="a_edge3_Node000003_Node000004"><a xlink:title=" ">
<path fill="none" stroke="#63b8ff" d="M67.06,-122.89C84.94,-113.09 107.98,-100.46 123.25,-92.1"/>
<polygon fill="#63b8ff" stroke="#63b8ff" points="65.39,-119.81 58.3,-127.69 68.75,-125.95 65.39,-119.81"/>
</a>
</g>
</g>
<!-- Node5 -->
<g id="Node000005" class="node">
<title>Node5</title>
<g id="a_Node000005"><a xlink:href="class_i_status_handler.html" target="_top" xlink:title="Interface for a status handler module.">
<polygon fill="white" stroke="#666666" points="180.25,-148 99,-148 99,-128.75 180.25,-128.75 180.25,-148"/>
<text xml:space="preserve" text-anchor="middle" x="139.62" y="-134.5" font-family="Helvetica,sans-Serif" font-size="10.00">IStatusHandler</text>
</a>
</g>
</g>
<!-- Node5&#45;&gt;Node3 -->
<g id="edge4_Node000003_Node000005" class="edge">
<title>Node5&#45;&gt;Node3</title>
<g id="a_edge4_Node000003_Node000005"><a xlink:title=" ">
<path fill="none" stroke="#63b8ff" d="M139.62,-117.19C139.62,-108.48 139.62,-98.74 139.62,-91.92"/>
<polygon fill="#63b8ff" stroke="#63b8ff" points="136.13,-116.9 139.63,-126.9 143.13,-116.9 136.13,-116.9"/>
</a>
</g>
</g>
<!-- Node6 -->
<g id="Node000006" class="node">
<title>Node6</title>
<g id="a_Node000006"><a xlink:href="class_i_msg_event_receiver.html" target="_top" xlink:title="Interface for Message Event Receivers.">
<polygon fill="white" stroke="#666666" points="300.75,-148 198.5,-148 198.5,-128.75 300.75,-128.75 300.75,-148"/>
<text xml:space="preserve" text-anchor="middle" x="249.62" y="-134.5" font-family="Helvetica,sans-Serif" font-size="10.00">IMsgEventReceiver</text>
</a>
</g>
</g>
<!-- Node6&#45;&gt;Node3 -->
<g id="edge5_Node000003_Node000006" class="edge">
<title>Node6&#45;&gt;Node3</title>
<g id="a_edge5_Node000003_Node000006"><a xlink:title=" ">
<path fill="none" stroke="#63b8ff" d="M221.36,-123.44C201.35,-113.57 175.1,-100.62 157.82,-92.1"/>
<polygon fill="#63b8ff" stroke="#63b8ff" points="219.59,-126.46 230.1,-127.75 222.68,-120.19 219.59,-126.46"/>
</a>
</g>
</g>
<!-- Node7 -->
<g id="Node000007" class="node">
<title>Node7</title>
<g id="a_Node000007"><a xlink:href="struct_web_server_config.html" target="_top" xlink:title="Runtime configuration of the web server module.">
<polygon fill="white" stroke="#666666" points="275.88,-91.75 183.38,-91.75 183.38,-72.5 275.88,-72.5 275.88,-91.75"/>
<text xml:space="preserve" text-anchor="middle" x="229.62" y="-78.25" font-family="Helvetica,sans-Serif" font-size="10.00">WebServerConfig</text>
</a>
</g>
</g>
<!-- Node7&#45;&gt;Node1 -->
<g id="edge6_Node000001_Node000007" class="edge">
<title>Node7&#45;&gt;Node1</title>
<g id="a_edge6_Node000001_Node000007"><a xlink:title=" ">
<path fill="none" stroke="#9a32cd" stroke-dasharray="5,2" d="M223.21,-61.47C218.75,-47.79 213.01,-30.2 209.59,-19.7"/>
<polygon fill="#9a32cd" stroke="#9a32cd" points="219.81,-62.34 226.24,-70.76 226.47,-60.16 219.81,-62.34"/>
</a>
</g>
<text xml:space="preserve" text-anchor="start" x="223.86" y="-43.25" font-family="Helvetica,sans-Serif" font-size="10.00" fill="grey">Config</text>
</g>
<!-- Node8 -->
<g id="Node000008" class="node">
<title>Node8</title>
<g id="a_Node000008"><a xlink:href="struct_web_server_status.html" target="_top" xlink:title="Status of the web server module.">
<polygon fill="white" stroke="#666666" points="386.88,-91.75 294.38,-91.75 294.38,-72.5 386.88,-72.5 386.88,-91.75"/>
<text xml:space="preserve" text-anchor="middle" x="340.62" y="-78.25" font-family="Helvetica,sans-Serif" font-size="10.00">WebServerStatus</text>
</a>
</g>
</g>
<!-- Node8&#45;&gt;Node1 -->
<g id="edge7_Node000001_Node000008" class="edge">
<title>Node8&#45;&gt;Node1</title>
<g id="a_edge7_Node000001_Node000008"><a xlink:title=" ">
<path fill="none" stroke="#9a32cd" stroke-dasharray="5,2" d="M314.17,-66.53C298.4,-57.89 277.94,-46.81 259.62,-37.25 248.12,-31.25 235.1,-24.7 224.85,-19.61"/>
<polygon fill="#9a32cd" stroke="#9a32cd" points="312.48,-69.59 322.93,-71.34 315.85,-63.46 312.48,-69.59"/>
</a>
</g>
<text xml:space="preserve" text-anchor="start" x="293.93" y="-43.25" font-family="Helvetica,sans-Serif" font-size="10.00" fill="grey">Status</text>
</g>
</g>
</svg>
