<?xml version="1.0" encoding="UTF-8" standalone="no"?>
<!DOCTYPE svg PUBLIC "-//W3C//DTD SVG 1.1//EN"
 "http://www.w3.org/Graphics/SVG/1.1/DTD/svg11.dtd">
<!-- Generated by graphviz version 15.1.0 (20260618.0150)
 -->
<!-- Title: CWebSocketMessage Pages: 1 -->
<svg width="240pt" height="100pt"
 viewBox="0.00 0.00 240.00 100.00" xmlns="http://www.w3.org/2000/svg" xmlns:xlink="http://www.w3.org/1999/xlink">
<g id="graph0" class="graph" transform="scale(1 1) rotate(0) translate(4 95.75)">
<title>CWebSocketMessage</title>
<!-- Node1 -->
<g id="Node000001" class="node">
<title>Node1</title>
<g id="a_Node000001"><a xlink:title="Owns a complete WebSocket message assembled from one or more frames.">
<polygon fill="#999999" stroke="#666666" points="165.75,-19.25 52.25,-19.25 52.25,0 165.75,0 165.75,-19.25"/>
<text xml:space="preserve" text-anchor="middle" x="109" y="-5.75" font-family="Helvetica,sans-Serif" font-size="10.00">CWebSocketMessage</text>
</a>
</g>
</g>
<!-- Node2 -->
<g id="Node000002" class="node">
<title>Node2</title>
<g id="a_Node000002"><a xlink:href="class_async_web_socket.html" target="_top" xlink:title=" ">
<polygon fill="white" stroke="#666666" points="94,-91.75 0,-91.75 0,-72.5 94,-72.5 94,-91.75"/>
<text xml:space="preserve" text-anchor="middle" x="47" y="-78.25" font-family="Helvetica,sans-Serif" font-size="10.00">AsyncWebSocket</text>
</a>
</g>
</g>
<!-- Node2&#45;&gt;Node1 -->
<g id="edge1_Node000001_Node000002" class="edge">
<title>Node2&#45;&gt;Node1</title>
<g id="a_edge1_Node000001_Node000002"><a xlink:title=" ">
<path fill="none" stroke="#9a32cd" stroke-dasharray="5,2" d="M62.14,-63.91C74.41,-49.95 91.22,-30.84 101.02,-19.7"/>
<polygon fill="#9a32cd" stroke="#9a32cd" points="59.83,-61.24 55.85,-71.06 65.08,-65.86 59.83,-61.24"/>
</a>
</g>
<text xml:space="preserve" text-anchor="start" x="88.38" y="-43.25" font-family="Helvetica,sans-Serif" font-size="10.00" fill="grey">pSocket</text>
</g>
<!-- Node3 -->
<g id="Node000003" class="node">
<title>Node3</title>
<g id="a_Node000003"><a xlink:href="class_async_web_socket_client.html" target="_top" xlink:title=" ">
<polygon fill="white" stroke="#666666" points="231.75,-91.75 112.25,-91.75 112.25,-72.5 231.75,-72.5 231.75,-91.75"/>
<text xml:space="preserve" text-anchor="middle" x="172" y="-78.25" font-family="Helvetica,sans-Serif" font-size="10.00">AsyncWebSocketClient</text>
</a>
</g>
</g>
<!-- Node3&#45;&gt;Node1 -->
<g id="edge2_Node000001_Node000003" class="edge">
<title>Node3&#45;&gt;Node1</title>
<g id="a_edge2_Node000001_Node000003"><a xlink:title=" ">
<path fill="none" stroke="#9a32cd" stroke-dasharray="5,2" d="M156.61,-63.91C144.14,-49.95 127.06,-30.84 117.11,-19.7"/>
<polygon fill="#9a32cd" stroke="#9a32cd" points="153.74,-65.94 163.01,-71.07 158.96,-61.28 153.74,-65.94"/>
</a>
</g>
<text xml:space="preserve" text-anchor="start" x="151" y="-43.25" font-family="Helvetica,sans-Serif" font-size="10.00" fill="grey">pClient</text>
</g>
</g>
</svg>
