<?xml version="1.0" encoding="UTF-8" standalone="no"?>
<!DOCTYPE svg PUBLIC "-//W3C//DTD SVG 1.1//EN"
 "http://www.w3.org/Graphics/SVG/1.1/DTD/svg11.dtd">
<!-- Generated by graphviz version 15.1.0 (20260618.0150)
 -->
<!-- Title: IModule Pages: 1 -->
<svg width="432pt" height="193pt"
 viewBox="0.00 0.00 432.00 193.00" xmlns="http://www.w3.org/2000/svg" xmlns:xlink="http://www.w3.org/1999/xlink">
<g id="graph0" class="graph" transform="scale(1 1) rotate(0) translate(4 189)">
<title>IModule</title>
<!-- Node1 -->
<g id="Node000001" class="node">
<title>Node1</title>
<g id="a_Node000001"><a xlink:title="Full Interface for modules.">
<polygon fill="#999999" stroke="#666666" points="262.5,-129.75 212,-129.75 212,-110.5 262.5,-110.5 262.5,-129.75"/>
<text xml:space="preserve" text-anchor="middle" x="237.25" y="-116.25" font-family="Helvetica,sans-Serif" font-size="10.00">IModule</text>
</a>
</g>
</g>
<!-- Node5 -->
<g id="Node000005" class="node">
<title>Node5</title>
<g id="a_Node000005"><a xlink:href="class_appl_module.html" target="_top" xlink:title="Abstract Basic Module Implementation You have to implement the dispatch method to reflect your module...">
<polygon fill="white" stroke="#666666" points="134.75,-74.5 67.75,-74.5 67.75,-55.25 134.75,-55.25 134.75,-74.5"/>
<text xml:space="preserve" text-anchor="middle" x="101.25" y="-61" font-family="Helvetica,sans-Serif" font-size="10.00">ApplModule</text>
</a>
</g>
</g>
<!-- Node1&#45;&gt;Node5 -->
<g id="edge4_Node000001_Node000005" class="edge">
<title>Node1&#45;&gt;Node5</title>
<g id="a_edge4_Node000001_Node000005"><a xlink:title=" ">
<path fill="none" stroke="#63b8ff" d="M203.51,-105.91C178.89,-96.27 146.16,-83.46 124.43,-74.95"/>
<polygon fill="#63b8ff" stroke="#63b8ff" points="202.18,-109.15 212.77,-109.54 204.73,-102.63 202.18,-109.15"/>
</a>
</g>
</g>
<!-- Node8 -->
<g id="Node000008" class="node">
<title>Node8</title>
<g id="a_Node000008"><a xlink:href="class_c_n_t_p_handler.html" target="_top" xlink:title="The NTP Handler class as a module.">
<polygon fill="white" stroke="#666666" points="230,-74.5 152.5,-74.5 152.5,-55.25 230,-55.25 230,-74.5"/>
<text xml:space="preserve" text-anchor="middle" x="191.25" y="-61" font-family="Helvetica,sans-Serif" font-size="10.00">CNTPHandler</text>
</a>
</g>
</g>
<!-- Node1&#45;&gt;Node8 -->
<g id="edge7_Node000001_Node000008" class="edge">
<title>Node1&#45;&gt;Node8</title>
<g id="a_edge7_Node000001_Node000008"><a xlink:title=" ">
<path fill="none" stroke="#63b8ff" d="M222.25,-101.76C214.49,-92.78 205.35,-82.2 199.01,-74.86"/>
<polygon fill="#63b8ff" stroke="#63b8ff" points="219.48,-103.91 228.66,-109.19 224.78,-99.33 219.48,-103.91"/>
</a>
</g>
</g>
<!-- Node9 -->
<g id="Node000009" class="node">
<title>Node9</title>
<g id="a_Node000009"><a xlink:href="class_c_web_server.html" target="_top" xlink:title="Async web server module that registers default routes and file access.">
<polygon fill="white" stroke="#666666" points="320,-74.5 248.5,-74.5 248.5,-55.25 320,-55.25 320,-74.5"/>
<text xml:space="preserve" text-anchor="middle" x="284.25" y="-61" font-family="Helvetica,sans-Serif" font-size="10.00">CWebServer</text>
</a>
</g>
</g>
<!-- Node1&#45;&gt;Node9 -->
<g id="edge8_Node000001_Node000009" class="edge">
<title>Node1&#45;&gt;Node9</title>
<g id="a_edge8_Node000001_Node000009"><a xlink:title=" ">
<path fill="none" stroke="#63b8ff" d="M252.58,-101.76C260.5,-92.78 269.85,-82.2 276.32,-74.86"/>
<polygon fill="#63b8ff" stroke="#63b8ff" points="250.01,-99.38 246.01,-109.2 255.25,-104.02 250.01,-99.38"/>
</a>
</g>
</g>
<!-- Node10 -->
<g id="Node000010" class="node">
<title>Node10</title>
<g id="a_Node000010"><a xlink:href="class_c_wi_fi_controller.html" target="_top" xlink:title="Application module that controls WiFi AP/station mode.">
<polygon fill="white" stroke="#666666" points="424.12,-74.5 338.38,-74.5 338.38,-55.25 424.12,-55.25 424.12,-74.5"/>
<text xml:space="preserve" text-anchor="middle" x="381.25" y="-61" font-family="Helvetica,sans-Serif" font-size="10.00">CWiFiController</text>
</a>
</g>
</g>
<!-- Node1&#45;&gt;Node10 -->
<g id="edge9_Node000001_Node000010" class="edge">
<title>Node1&#45;&gt;Node10</title>
<g id="a_edge9_Node000001_Node000010"><a xlink:title=" ">
<path fill="none" stroke="#63b8ff" d="M272.28,-106.17C298.42,-96.5 333.49,-83.54 356.7,-74.95"/>
<polygon fill="#63b8ff" stroke="#63b8ff" points="271.26,-102.82 263.1,-109.57 273.69,-109.38 271.26,-102.82"/>
</a>
</g>
</g>
<!-- Node2 -->
<g id="Node000002" class="node">
<title>Node2</title>
<g id="a_Node000002"><a xlink:href="class_i_config_handler.html" target="_top" xlink:title="Interface for configuration handlers.">
<polygon fill="white" stroke="#666666" points="178.88,-185 97.62,-185 97.62,-165.75 178.88,-165.75 178.88,-185"/>
<text xml:space="preserve" text-anchor="middle" x="138.25" y="-171.5" font-family="Helvetica,sans-Serif" font-size="10.00">IConfigHandler</text>
</a>
</g>
</g>
<!-- Node2&#45;&gt;Node1 -->
<g id="edge1_Node000001_Node000002" class="edge">
<title>Node2&#45;&gt;Node1</title>
<g id="a_edge1_Node000001_Node000002"><a xlink:title=" ">
<path fill="none" stroke="#63b8ff" d="M164.77,-160.11C182.44,-150.61 205.13,-138.4 220.37,-130.2"/>
<polygon fill="#63b8ff" stroke="#63b8ff" points="163.53,-156.81 156.38,-164.62 166.84,-162.97 163.53,-156.81"/>
</a>
</g>
</g>
<!-- Node3 -->
<g id="Node000003" class="node">
<title>Node3</title>
<g id="a_Node000003"><a xlink:href="class_i_status_handler.html" target="_top" xlink:title="Interface for a status handler module.">
<polygon fill="white" stroke="#666666" points="277.88,-185 196.62,-185 196.62,-165.75 277.88,-165.75 277.88,-185"/>
<text xml:space="preserve" text-anchor="middle" x="237.25" y="-171.5" font-family="Helvetica,sans-Serif" font-size="10.00">IStatusHandler</text>
</a>
</g>
</g>
<!-- Node3&#45;&gt;Node1 -->
<g id="edge2_Node000001_Node000003" class="edge">
<title>Node3&#45;&gt;Node1</title>
<g id="a_edge2_Node000001_Node000003"><a xlink:title=" ">
<path fill="none" stroke="#63b8ff" d="M237.25,-154.13C237.25,-145.84 237.25,-136.67 237.25,-130.11"/>
<polygon fill="#63b8ff" stroke="#63b8ff" points="233.75,-154.07 237.25,-164.07 240.75,-154.07 233.75,-154.07"/>
</a>
</g>
</g>
<!-- Node4 -->
<g id="Node000004" class="node">
<title>Node4</title>
<g id="a_Node000004"><a xlink:href="class_i_msg_event_receiver.html" target="_top" xlink:title="Interface for Message Event Receivers.">
<polygon fill="white" stroke="#666666" points="398.38,-185 296.12,-185 296.12,-165.75 398.38,-165.75 398.38,-185"/>
<text xml:space="preserve" text-anchor="middle" x="347.25" y="-171.5" font-family="Helvetica,sans-Serif" font-size="10.00">IMsgEventReceiver</text>
</a>
</g>
</g>
<!-- Node4&#45;&gt;Node1 -->
<g id="edge3_Node000001_Node000004" class="edge">
<title>Node4&#45;&gt;Node1</title>
<g id="a_edge3_Node000001_Node000004"><a xlink:title=" ">
<path fill="none" stroke="#63b8ff" d="M318.33,-160.37C298.62,-150.83 273.1,-138.48 256,-130.2"/>
<polygon fill="#63b8ff" stroke="#63b8ff" points="316.7,-163.48 327.23,-164.68 319.75,-157.17 316.7,-163.48"/>
</a>
</g>
</g>
<!-- Node6 -->
<g id="Node000006" class="node">
<title>Node6</title>
<g id="a_Node000006"><a xlink:href="class_c_battery_measure.html" target="_top" xlink:title=" ">
<polygon fill="white" stroke="#666666" points="92.5,-19.25 0,-19.25 0,0 92.5,0 92.5,-19.25"/>
<text xml:space="preserve" text-anchor="middle" x="46.25" y="-5.75" font-family="Helvetica,sans-Serif" font-size="10.00">CBatteryMeasure</text>
</a>
</g>
</g>
<!-- Node5&#45;&gt;Node6 -->
<g id="edge5_Node000005_Node000006" class="edge">
<title>Node5&#45;&gt;Node6</title>
<g id="a_edge5_Node000005_Node000006"><a xlink:title=" ">
<path fill="none" stroke="#63b8ff" d="M83.9,-47.07C74.5,-37.98 63.27,-27.1 55.53,-19.61"/>
<polygon fill="#63b8ff" stroke="#63b8ff" points="81.46,-49.59 91.08,-54.03 86.33,-44.56 81.46,-49.59"/>
</a>
</g>
</g>
<!-- Node7 -->
<g id="Node000007" class="node">
<title>Node7</title>
<g id="a_Node000007"><a xlink:href="class_c_m_q_t_t_controller.html" target="_top" xlink:title="MQTT message broker module with heartbeat and HA discovery support.">
<polygon fill="white" stroke="#666666" points="203.88,-19.25 110.62,-19.25 110.62,0 203.88,0 203.88,-19.25"/>
<text xml:space="preserve" text-anchor="middle" x="157.25" y="-5.75" font-family="Helvetica,sans-Serif" font-size="10.00">CMQTTController</text>
</a>
</g>
</g>
<!-- Node5&#45;&gt;Node7 -->
<g id="edge6_Node000005_Node000007" class="edge">
<title>Node5&#45;&gt;Node7</title>
<g id="a_edge6_Node000005_Node000007"><a xlink:title=" ">
<path fill="none" stroke="#63b8ff" d="M118.88,-47.11C128.49,-37.97 140,-27.03 147.89,-19.52"/>
<polygon fill="#63b8ff" stroke="#63b8ff" points="116.68,-44.37 111.85,-53.8 121.51,-49.44 116.68,-44.37"/>
</a>
</g>
</g>
</g>
</svg>
