<?xml version="1.0" encoding="UTF-8" standalone="no"?>
<!DOCTYPE svg PUBLIC "-//W3C//DTD SVG 1.1//EN"
 "http://www.w3.org/Graphics/SVG/1.1/DTD/svg11.dtd">
<!-- Generated by graphviz version 15.1.0 (20260618.0150)
 -->
<!-- Title: CWebSocket Pages: 1 -->
<svg width="222pt" height="83pt"
 viewBox="0.00 0.00 222.00 83.00" xmlns="http://www.w3.org/2000/svg" xmlns:xlink="http://www.w3.org/1999/xlink">
<g id="graph0" class="graph" transform="scale(1 1) rotate(0) translate(4 78.5)">
<title>CWebSocket</title>
<!-- Node1 -->
<g id="Node000001" class="node">
<title>Node1</title>
<g id="a_Node000001"><a xlink:title="Function pointer to register the routes.">
<polygon fill="#999999" stroke="#666666" points="141.88,-19.25 68.12,-19.25 68.12,0 141.88,0 141.88,-19.25"/>
<text xml:space="preserve" text-anchor="middle" x="105" y="-5.75" font-family="Helvetica,sans-Serif" font-size="10.00">CWebSocket</text>
</a>
</g>
</g>
<!-- Node2 -->
<g id="Node000002" class="node">
<title>Node2</title>
<g id="a_Node000002"><a xlink:href="class_async_web_socket.html" target="_top" xlink:title=" ">
<polygon fill="white" stroke="#666666" points="94,-74.5 0,-74.5 0,-55.25 94,-55.25 94,-74.5"/>
<text xml:space="preserve" text-anchor="middle" x="47" y="-61" font-family="Helvetica,sans-Serif" font-size="10.00">AsyncWebSocket</text>
</a>
</g>
</g>
<!-- Node2&#45;&gt;Node1 -->
<g id="edge1_Node000001_Node000002" class="edge">
<title>Node2&#45;&gt;Node1</title>
<g id="a_edge1_Node000001_Node000002"><a xlink:title=" ">
<path fill="none" stroke="#63b8ff" d="M65.26,-47.11C75.22,-37.97 87.14,-27.03 95.31,-19.52"/>
<polygon fill="#63b8ff" stroke="#63b8ff" points="62.95,-44.48 57.95,-53.82 67.69,-49.63 62.95,-44.48"/>
</a>
</g>
</g>
<!-- Node3 -->
<g id="Node000003" class="node">
<title>Node3</title>
<g id="a_Node000003"><a xlink:href="class_i_msg_event_receiver.html" target="_top" xlink:title="Interface for Message Event Receivers.">
<polygon fill="white" stroke="#666666" points="214.12,-74.5 111.88,-74.5 111.88,-55.25 214.12,-55.25 214.12,-74.5"/>
<text xml:space="preserve" text-anchor="middle" x="163" y="-61" font-family="Helvetica,sans-Serif" font-size="10.00">IMsgEventReceiver</text>
</a>
</g>
</g>
<!-- Node3&#45;&gt;Node1 -->
<g id="edge2_Node000001_Node000003" class="edge">
<title>Node3&#45;&gt;Node1</title>
<g id="a_edge2_Node000001_Node000003"><a xlink:title=" ">
<path fill="none" stroke="#63b8ff" d="M144.74,-47.11C134.78,-37.97 122.86,-27.03 114.69,-19.52"/>
<polygon fill="#63b8ff" stroke="#63b8ff" points="142.31,-49.63 152.05,-53.82 147.05,-44.48 142.31,-49.63"/>
</a>
</g>
</g>
</g>
</svg>
