<?xml version="1.0" encoding="UTF-8" standalone="no"?>
<!DOCTYPE svg PUBLIC "-//W3C//DTD SVG 1.1//EN"
 "http://www.w3.org/Graphics/SVG/1.1/DTD/svg11.dtd">
<!-- Generated by graphviz version 15.1.0 (20260618.0150)
 -->
<!-- Title: CWebServer Pages: 1 -->
<svg width="309pt" height="138pt"
 viewBox="0.00 0.00 309.00 138.00" xmlns="http://www.w3.org/2000/svg" xmlns:xlink="http://www.w3.org/1999/xlink">
<g id="graph0" class="graph" transform="scale(1 1) rotate(0) translate(4 133.75)">
<title>CWebServer</title>
<!-- Node1 -->
<g id="Node000001" class="node">
<title>Node1</title>
<g id="a_Node000001"><a xlink:title="Async web server module that registers default routes and file access.">
<polygon fill="#999999" stroke="#666666" points="130.38,-19.25 58.88,-19.25 58.88,0 130.38,0 130.38,-19.25"/>
<text xml:space="preserve" text-anchor="middle" x="94.62" y="-5.75" font-family="Helvetica,sans-Serif" font-size="10.00">CWebServer</text>
</a>
</g>
</g>
<!-- Node2 -->
<g id="Node000002" class="node">
<title>Node2</title>
<g id="a_Node000002"><a xlink:title=" ">
<polygon fill="white" stroke="#666666" points="96.5,-74.5 4.75,-74.5 4.75,-55.25 96.5,-55.25 96.5,-74.5"/>
<text xml:space="preserve" text-anchor="middle" x="50.62" y="-61" font-family="Helvetica,sans-Serif" font-size="10.00">AsyncWebServer</text>
</a>
</g>
</g>
<!-- Node2&#45;&gt;Node1 -->
<g id="edge1_Node000001_Node000002" class="edge">
<title>Node2&#45;&gt;Node1</title>
<g id="a_edge1_Node000001_Node000002"><a xlink:title=" ">
<path fill="none" stroke="#63b8ff" d="M65.21,-46.22C72.58,-37.31 81.2,-26.87 87.2,-19.61"/>
<polygon fill="#63b8ff" stroke="#63b8ff" points="62.53,-43.98 58.85,-53.92 67.92,-48.44 62.53,-43.98"/>
</a>
</g>
</g>
<!-- Node3 -->
<g id="Node000003" class="node">
<title>Node3</title>
<g id="a_Node000003"><a xlink:href="class_i_module.html" target="_top" xlink:title="Full Interface for modules.">
<polygon fill="white" stroke="#666666" points="164.88,-74.5 114.38,-74.5 114.38,-55.25 164.88,-55.25 164.88,-74.5"/>
<text xml:space="preserve" text-anchor="middle" x="139.62" y="-61" font-family="Helvetica,sans-Serif" font-size="10.00">IModule</text>
</a>
</g>
</g>
<!-- Node3&#45;&gt;Node1 -->
<g id="edge2_Node000001_Node000003" class="edge">
<title>Node3&#45;&gt;Node1</title>
<g id="a_edge2_Node000001_Node000003"><a xlink:title=" ">
<path fill="none" stroke="#63b8ff" d="M124.95,-46.51C117.36,-37.53 108.42,-26.95 102.22,-19.61"/>
<polygon fill="#63b8ff" stroke="#63b8ff" points="122.09,-48.55 131.22,-53.93 127.44,-44.03 122.09,-48.55"/>
</a>
</g>
</g>
<!-- Node4 -->
<g id="Node000004" class="node">
<title>Node4</title>
<g id="a_Node000004"><a xlink:href="class_i_config_handler.html" target="_top" xlink:title="Interface for configuration handlers.">
<polygon fill="white" stroke="#666666" points="81.25,-129.75 0,-129.75 0,-110.5 81.25,-110.5 81.25,-129.75"/>
<text xml:space="preserve" text-anchor="middle" x="40.62" y="-116.25" font-family="Helvetica,sans-Serif" font-size="10.00">IConfigHandler</text>
</a>
</g>
</g>
<!-- Node4&#45;&gt;Node3 -->
<g id="edge3_Node000003_Node000004" class="edge">
<title>Node4&#45;&gt;Node3</title>
<g id="a_edge3_Node000003_Node000004"><a xlink:title=" ">
<path fill="none" stroke="#63b8ff" d="M67.15,-104.86C84.82,-95.36 107.5,-83.15 122.75,-74.95"/>
<polygon fill="#63b8ff" stroke="#63b8ff" points="65.9,-101.56 58.75,-109.37 69.22,-107.72 65.9,-101.56"/>
</a>
</g>
</g>
<!-- Node5 -->
<g id="Node000005" class="node">
<title>Node5</title>
<g id="a_Node000005"><a xlink:href="class_i_status_handler.html" target="_top" xlink:title="Interface for a status handler module.">
<polygon fill="white" stroke="#666666" points="180.25,-129.75 99,-129.75 99,-110.5 180.25,-110.5 180.25,-129.75"/>
<text xml:space="preserve" text-anchor="middle" x="139.62" y="-116.25" font-family="Helvetica,sans-Serif" font-size="10.00">IStatusHandler</text>
</a>
</g>
</g>
<!-- Node5&#45;&gt;Node3 -->
<g id="edge4_Node000003_Node000005" class="edge">
<title>Node5&#45;&gt;Node3</title>
<g id="a_edge4_Node000003_Node000005"><a xlink:title=" ">
<path fill="none" stroke="#63b8ff" d="M139.62,-98.88C139.62,-90.59 139.62,-81.42 139.62,-74.86"/>
<polygon fill="#63b8ff" stroke="#63b8ff" points="136.13,-98.82 139.63,-108.82 143.13,-98.82 136.13,-98.82"/>
</a>
</g>
</g>
<!-- Node6 -->
<g id="Node000006" class="node">
<title>Node6</title>
<g id="a_Node000006"><a xlink:href="class_i_msg_event_receiver.html" target="_top" xlink:title="Interface for Message Event Receivers.">
<polygon fill="white" stroke="#666666" points="300.75,-129.75 198.5,-129.75 198.5,-110.5 300.75,-110.5 300.75,-129.75"/>
<text xml:space="preserve" text-anchor="middle" x="249.62" y="-116.25" font-family="Helvetica,sans-Serif" font-size="10.00">IMsgEventReceiver</text>
</a>
</g>
</g>
<!-- Node6&#45;&gt;Node3 -->
<g id="edge5_Node000003_Node000006" class="edge">
<title>Node6&#45;&gt;Node3</title>
<g id="a_edge5_Node000003_Node000006"><a xlink:title=" ">
<path fill="none" stroke="#63b8ff" d="M220.7,-105.12C201,-95.58 175.47,-83.23 158.38,-74.95"/>
<polygon fill="#63b8ff" stroke="#63b8ff" points="219.08,-108.23 229.6,-109.43 222.13,-101.92 219.08,-108.23"/>
</a>
</g>
</g>
</g>
</svg>
