<?xml version="1.0" encoding="UTF-8" standalone="no"?>
<!DOCTYPE svg PUBLIC "-//W3C//DTD SVG 1.1//EN"
 "http://www.w3.org/Graphics/SVG/1.1/DTD/svg11.dtd">
<!-- Generated by graphviz version 15.1.0 (20260618.0150)
 -->
<!-- Title: MQTTMessage Pages: 1 -->
<svg width="363pt" height="285pt"
 viewBox="0.00 0.00 363.00 285.00" xmlns="http://www.w3.org/2000/svg" xmlns:xlink="http://www.w3.org/1999/xlink">
<g id="graph0" class="graph" transform="scale(1 1) rotate(0) translate(4 280.75)">
<title>MQTTMessage</title>
<!-- Node1 -->
<g id="Node000001" class="node">
<title>Node1</title>
<g id="a_Node000001"><a xlink:title="Owns one received MQTT topic/payload pair until dispatch.">
<polygon fill="#999999" stroke="#666666" points="248.12,-19.25 164.62,-19.25 164.62,0 248.12,0 248.12,-19.25"/>
<text xml:space="preserve" text-anchor="middle" x="206.38" y="-5.75" font-family="Helvetica,sans-Serif" font-size="10.00">MQTTMessage</text>
</a>
</g>
</g>
<!-- Node2 -->
<g id="Node000002" class="node">
<title>Node2</title>
<g id="a_Node000002"><a xlink:href="class_c_m_q_t_t_controller.html" target="_top" xlink:title="MQTT message broker module with heartbeat and HA discovery support.">
<polygon fill="white" stroke="#666666" points="253,-91.75 159.75,-91.75 159.75,-72.5 253,-72.5 253,-91.75"/>
<text xml:space="preserve" text-anchor="middle" x="206.38" y="-78.25" font-family="Helvetica,sans-Serif" font-size="10.00">CMQTTController</text>
</a>
</g>
</g>
<!-- Node2&#45;&gt;Node1 -->
<g id="edge1_Node000001_Node000002" class="edge">
<title>Node2&#45;&gt;Node1</title>
<g id="a_edge1_Node000001_Node000002"><a xlink:title=" ">
<path fill="none" stroke="#9a32cd" stroke-dasharray="5,2" d="M206.38,-61.05C206.38,-47.44 206.38,-30.1 206.38,-19.7"/>
<polygon fill="#9a32cd" stroke="#9a32cd" points="202.88,-60.68 206.38,-70.68 209.88,-60.68 202.88,-60.68"/>
</a>
</g>
<text xml:space="preserve" text-anchor="start" x="209.38" y="-43.25" font-family="Helvetica,sans-Serif" font-size="10.00" fill="grey">pController</text>
</g>
<!-- Node3 -->
<g id="Node000003" class="node">
<title>Node3</title>
<g id="a_Node000003"><a xlink:href="class_async_mqtt_client.html" target="_top" xlink:title=" ">
<polygon fill="white" stroke="#666666" points="88.75,-164.25 0,-164.25 0,-145 88.75,-145 88.75,-164.25"/>
<text xml:space="preserve" text-anchor="middle" x="44.38" y="-150.75" font-family="Helvetica,sans-Serif" font-size="10.00">AsyncMqttClient</text>
</a>
</g>
</g>
<!-- Node3&#45;&gt;Node2 -->
<g id="edge2_Node000002_Node000003" class="edge">
<title>Node3&#45;&gt;Node2</title>
<g id="a_edge2_Node000002_Node000003"><a xlink:title=" ">
<path fill="none" stroke="#63b8ff" d="M75.48,-140.09C107.87,-125.99 157.7,-104.31 185.61,-92.16"/>
<polygon fill="#63b8ff" stroke="#63b8ff" points="74.38,-136.75 66.61,-143.95 77.18,-143.17 74.38,-136.75"/>
</a>
</g>
</g>
<!-- Node4 -->
<g id="Node000004" class="node">
<title>Node4</title>
<g id="a_Node000004"><a xlink:href="class_appl_module.html" target="_top" xlink:title="Abstract Basic Module Implementation You have to implement the dispatch method to reflect your module...">
<polygon fill="white" stroke="#666666" points="173.88,-164.25 106.88,-164.25 106.88,-145 173.88,-145 173.88,-164.25"/>
<text xml:space="preserve" text-anchor="middle" x="140.38" y="-150.75" font-family="Helvetica,sans-Serif" font-size="10.00">ApplModule</text>
</a>
</g>
</g>
<!-- Node4&#45;&gt;Node2 -->
<g id="edge3_Node000002_Node000004" class="edge">
<title>Node4&#45;&gt;Node2</title>
<g id="a_edge3_Node000002_Node000004"><a xlink:title=" ">
<path fill="none" stroke="#63b8ff" d="M156.49,-136.41C169.56,-122.45 187.45,-103.34 197.88,-92.2"/>
<polygon fill="#63b8ff" stroke="#63b8ff" points="154.05,-133.9 149.77,-143.59 159.16,-138.68 154.05,-133.9"/>
</a>
</g>
</g>
<!-- Node5 -->
<g id="Node000005" class="node">
<title>Node5</title>
<g id="a_Node000005"><a xlink:href="class_i_module.html" target="_top" xlink:title="Full Interface for modules.">
<polygon fill="white" stroke="#666666" points="165.62,-220.5 115.12,-220.5 115.12,-201.25 165.62,-201.25 165.62,-220.5"/>
<text xml:space="preserve" text-anchor="middle" x="140.38" y="-207" font-family="Helvetica,sans-Serif" font-size="10.00">IModule</text>
</a>
</g>
</g>
<!-- Node5&#45;&gt;Node4 -->
<g id="edge4_Node000004_Node000005" class="edge">
<title>Node5&#45;&gt;Node4</title>
<g id="a_edge4_Node000004_Node000005"><a xlink:title=" ">
<path fill="none" stroke="#63b8ff" d="M140.38,-189.69C140.38,-180.98 140.38,-171.24 140.38,-164.42"/>
<polygon fill="#63b8ff" stroke="#63b8ff" points="136.88,-189.4 140.38,-199.4 143.88,-189.4 136.88,-189.4"/>
</a>
</g>
</g>
<!-- Node6 -->
<g id="Node000006" class="node">
<title>Node6</title>
<g id="a_Node000006"><a xlink:href="class_i_config_handler.html" target="_top" xlink:title="Interface for configuration handlers.">
<polygon fill="white" stroke="#666666" points="82,-276.75 0.75,-276.75 0.75,-257.5 82,-257.5 82,-276.75"/>
<text xml:space="preserve" text-anchor="middle" x="41.38" y="-263.25" font-family="Helvetica,sans-Serif" font-size="10.00">IConfigHandler</text>
</a>
</g>
</g>
<!-- Node6&#45;&gt;Node5 -->
<g id="edge5_Node000005_Node000006" class="edge">
<title>Node6&#45;&gt;Node5</title>
<g id="a_edge5_Node000005_Node000006"><a xlink:title=" ">
<path fill="none" stroke="#63b8ff" d="M67.81,-251.64C85.69,-241.84 108.73,-229.21 124,-220.85"/>
<polygon fill="#63b8ff" stroke="#63b8ff" points="66.14,-248.56 59.05,-256.44 69.5,-254.7 66.14,-248.56"/>
</a>
</g>
</g>
<!-- Node7 -->
<g id="Node000007" class="node">
<title>Node7</title>
<g id="a_Node000007"><a xlink:href="class_i_status_handler.html" target="_top" xlink:title="Interface for a status handler module.">
<polygon fill="white" stroke="#666666" points="181,-276.75 99.75,-276.75 99.75,-257.5 181,-257.5 181,-276.75"/>
<text xml:space="preserve" text-anchor="middle" x="140.38" y="-263.25" font-family="Helvetica,sans-Serif" font-size="10.00">IStatusHandler</text>
</a>
</g>
</g>
<!-- Node7&#45;&gt;Node5 -->
<g id="edge6_Node000005_Node000007" class="edge">
<title>Node7&#45;&gt;Node5</title>
<g id="a_edge6_Node000005_Node000007"><a xlink:title=" ">
<path fill="none" stroke="#63b8ff" d="M140.38,-245.94C140.38,-237.23 140.38,-227.49 140.38,-220.67"/>
<polygon fill="#63b8ff" stroke="#63b8ff" points="136.88,-245.65 140.38,-255.65 143.88,-245.65 136.88,-245.65"/>
</a>
</g>
</g>
<!-- Node8 -->
<g id="Node000008" class="node">
<title>Node8</title>
<g id="a_Node000008"><a xlink:href="class_i_msg_event_receiver.html" target="_top" xlink:title="Interface for Message Event Receivers.">
<polygon fill="white" stroke="#666666" points="301.5,-276.75 199.25,-276.75 199.25,-257.5 301.5,-257.5 301.5,-276.75"/>
<text xml:space="preserve" text-anchor="middle" x="250.38" y="-263.25" font-family="Helvetica,sans-Serif" font-size="10.00">IMsgEventReceiver</text>
</a>
</g>
</g>
<!-- Node8&#45;&gt;Node5 -->
<g id="edge7_Node000005_Node000008" class="edge">
<title>Node8&#45;&gt;Node5</title>
<g id="a_edge7_Node000005_Node000008"><a xlink:title=" ">
<path fill="none" stroke="#63b8ff" d="M222.11,-252.19C202.1,-242.32 175.85,-229.37 158.57,-220.85"/>
<polygon fill="#63b8ff" stroke="#63b8ff" points="220.34,-255.21 230.85,-256.5 223.43,-248.94 220.34,-255.21"/>
</a>
</g>
</g>
<!-- Node9 -->
<g id="Node000009" class="node">
<title>Node9</title>
<g id="a_Node000009"><a xlink:href="struct_m_q_t_t_config.html" target="_top" xlink:title="Runtime configuration for the MQTT broker connection and topics.">
<polygon fill="white" stroke="#666666" points="264.5,-164.25 192.25,-164.25 192.25,-145 264.5,-145 264.5,-164.25"/>
<text xml:space="preserve" text-anchor="middle" x="228.38" y="-150.75" font-family="Helvetica,sans-Serif" font-size="10.00">MQTTConfig</text>
</a>
</g>
</g>
<!-- Node9&#45;&gt;Node2 -->
<g id="edge8_Node000002_Node000009" class="edge">
<title>Node9&#45;&gt;Node2</title>
<g id="a_edge8_Node000002_Node000009"><a xlink:title=" ">
<path fill="none" stroke="#9a32cd" stroke-dasharray="5,2" d="M222.24,-133.97C217.97,-120.29 212.48,-102.7 209.21,-92.2"/>
<polygon fill="#9a32cd" stroke="#9a32cd" points="218.82,-134.75 225.14,-143.25 225.5,-132.66 218.82,-134.75"/>
</a>
</g>
<text xml:space="preserve" text-anchor="start" x="222.99" y="-115.75" font-family="Helvetica,sans-Serif" font-size="10.00" fill="grey">Config</text>
</g>
<!-- Node10 -->
<g id="Node000010" class="node">
<title>Node10</title>
<g id="a_Node000010"><a xlink:href="struct_m_q_t_t_status.html" target="_top" xlink:title="Runtime status of the MQTT connection.">
<polygon fill="white" stroke="#666666" points="354.5,-164.25 282.25,-164.25 282.25,-145 354.5,-145 354.5,-164.25"/>
<text xml:space="preserve" text-anchor="middle" x="318.38" y="-150.75" font-family="Helvetica,sans-Serif" font-size="10.00">MQTTStatus</text>
</a>
</g>
</g>
<!-- Node10&#45;&gt;Node2 -->
<g id="edge9_Node000002_Node000010" class="edge">
<title>Node10&#45;&gt;Node2</title>
<g id="a_edge9_Node000002_Node000010"><a xlink:title=" ">
<path fill="none" stroke="#9a32cd" stroke-dasharray="5,2" d="M298.19,-137.63C286.8,-128.92 272.14,-118.23 258.38,-109.75 247.84,-103.26 235.54,-96.91 225.54,-92.04"/>
<polygon fill="#9a32cd" stroke="#9a32cd" points="296.01,-140.36 306.05,-143.73 300.3,-134.83 296.01,-140.36"/>
</a>
</g>
<text xml:space="preserve" text-anchor="start" x="286.74" y="-115.75" font-family="Helvetica,sans-Serif" font-size="10.00" fill="grey">Status</text>
</g>
</g>
</svg>
