<?xml version="1.0" encoding="UTF-8" standalone="no"?>
<!DOCTYPE svg PUBLIC "-//W3C//DTD SVG 1.1//EN"
 "http://www.w3.org/Graphics/SVG/1.1/DTD/svg11.dtd">
<!-- Generated by graphviz version 15.1.0 (20260618.0150)
 -->
<!-- Title: CStatusHandler Pages: 1 -->
<svg width="94pt" height="138pt"
 viewBox="0.00 0.00 94.00 138.00" xmlns="http://www.w3.org/2000/svg" xmlns:xlink="http://www.w3.org/1999/xlink">
<g id="graph0" class="graph" transform="scale(1 1) rotate(0) translate(4 133.75)">
<title>CStatusHandler</title>
<!-- Node1 -->
<g id="Node000001" class="node">
<title>Node1</title>
<g id="a_Node000001"><a xlink:title="Status handler class.">
<polygon fill="#999999" stroke="#666666" points="85.75,-74.5 0,-74.5 0,-55.25 85.75,-55.25 85.75,-74.5"/>
<text xml:space="preserve" text-anchor="middle" x="42.88" y="-61" font-family="Helvetica,sans-Serif" font-size="10.00">CStatusHandler</text>
</a>
</g>
</g>
<!-- Node3 -->
<g id="Node000003" class="node">
<title>Node3</title>
<g id="a_Node000003"><a xlink:href="class_c_appl.html" target="_top" xlink:title="Central application hub for modules, configuration, status and events.">
<polygon fill="white" stroke="#666666" points="64.38,-19.25 21.38,-19.25 21.38,0 64.38,0 64.38,-19.25"/>
<text xml:space="preserve" text-anchor="middle" x="42.88" y="-5.75" font-family="Helvetica,sans-Serif" font-size="10.00">CAppl</text>
</a>
</g>
</g>
<!-- Node1&#45;&gt;Node3 -->
<g id="edge2_Node000001_Node000003" class="edge">
<title>Node1&#45;&gt;Node3</title>
<g id="a_edge2_Node000001_Node000003"><a xlink:title=" ">
<path fill="none" stroke="#63b8ff" d="M42.88,-43.63C42.88,-35.34 42.88,-26.17 42.88,-19.61"/>
<polygon fill="#63b8ff" stroke="#63b8ff" points="39.38,-43.57 42.88,-53.57 46.38,-43.57 39.38,-43.57"/>
</a>
</g>
</g>
<!-- Node2 -->
<g id="Node000002" class="node">
<title>Node2</title>
<g id="a_Node000002"><a xlink:href="class_i_status_handler.html" target="_top" xlink:title="Interface for a status handler module.">
<polygon fill="white" stroke="#666666" points="83.5,-129.75 2.25,-129.75 2.25,-110.5 83.5,-110.5 83.5,-129.75"/>
<text xml:space="preserve" text-anchor="middle" x="42.88" y="-116.25" font-family="Helvetica,sans-Serif" font-size="10.00">IStatusHandler</text>
</a>
</g>
</g>
<!-- Node2&#45;&gt;Node1 -->
<g id="edge1_Node000001_Node000002" class="edge">
<title>Node2&#45;&gt;Node1</title>
<g id="a_edge1_Node000001_Node000002"><a xlink:title=" ">
<path fill="none" stroke="#63b8ff" d="M42.88,-98.88C42.88,-90.59 42.88,-81.42 42.88,-74.86"/>
<polygon fill="#63b8ff" stroke="#63b8ff" points="39.38,-98.82 42.88,-108.82 46.38,-98.82 39.38,-98.82"/>
</a>
</g>
</g>
</g>
</svg>
