<?xml version="1.0" encoding="UTF-8" standalone="no"?>
<!DOCTYPE svg PUBLIC "-//W3C//DTD SVG 1.1//EN"
 "http://www.w3.org/Graphics/SVG/1.1/DTD/svg11.dtd">
<!-- Generated by graphviz version 15.1.0 (20260618.0150)
 -->
<!-- Title: CRGBLed Pages: 1 -->
<svg width="117pt" height="243pt"
 viewBox="0.00 0.00 117.00 243.00" xmlns="http://www.w3.org/2000/svg" xmlns:xlink="http://www.w3.org/1999/xlink">
<g id="graph0" class="graph" transform="scale(1 1) rotate(0) translate(4 238.75)">
<title>CRGBLed</title>
<!-- Node1 -->
<g id="Node000001" class="node">
<title>Node1</title>
<g id="a_Node000001"><a xlink:title="Class to handle the RGB LED Initialize the RGB LED with the pins for the colors and with the Informat...">
<polygon fill="#999999" stroke="#666666" points="85,-19.25 24,-19.25 24,0 85,0 85,-19.25"/>
<text xml:space="preserve" text-anchor="middle" x="54.5" y="-5.75" font-family="Helvetica,sans-Serif" font-size="10.00">CRGBLed</text>
</a>
</g>
</g>
<!-- Node2 -->
<g id="Node000002" class="node">
<title>Node2</title>
<g id="a_Node000002"><a xlink:href="class_c_light_switch.html" target="_top" xlink:title=" ">
<polygon fill="white" stroke="#666666" points="91.75,-122.25 17.25,-122.25 17.25,-103 91.75,-103 91.75,-122.25"/>
<text xml:space="preserve" text-anchor="middle" x="54.5" y="-108.75" font-family="Helvetica,sans-Serif" font-size="10.00">CLightSwitch</text>
</a>
</g>
</g>
<!-- Node2&#45;&gt;Node1 -->
<g id="edge1_Node000001_Node000002" class="edge">
<title>Node2&#45;&gt;Node1</title>
<g id="a_edge1_Node000001_Node000002"><a xlink:title=" ">
<path fill="none" stroke="#9a32cd" stroke-dasharray="5,2" d="M54.5,-91.42C54.5,-69.59 54.5,-35.79 54.5,-19.71"/>
<polygon fill="#9a32cd" stroke="#9a32cd" points="51,-91.15 54.5,-101.15 58,-91.15 51,-91.15"/>
</a>
</g>
<text xml:space="preserve" text-anchor="start" x="57.5" y="-73.75" font-family="Helvetica,sans-Serif" font-size="10.00" fill="grey">BlueLED</text>
<text xml:space="preserve" text-anchor="start" x="57.5" y="-58.5" font-family="Helvetica,sans-Serif" font-size="10.00" fill="grey">GreenLED</text>
<text xml:space="preserve" text-anchor="start" x="57.5" y="-43.25" font-family="Helvetica,sans-Serif" font-size="10.00" fill="grey">RedLED</text>
</g>
<!-- Node3 -->
<g id="Node000003" class="node">
<title>Node3</title>
<g id="a_Node000003"><a xlink:href="class_c_output_pin_controller.html" target="_top" xlink:title="Base class to controll a pin as in or output with helper functions.">
<polygon fill="white" stroke="#666666" points="109,-178.5 0,-178.5 0,-159.25 109,-159.25 109,-178.5"/>
<text xml:space="preserve" text-anchor="middle" x="54.5" y="-165" font-family="Helvetica,sans-Serif" font-size="10.00">COutputPinController</text>
</a>
</g>
</g>
<!-- Node3&#45;&gt;Node2 -->
<g id="edge2_Node000002_Node000003" class="edge">
<title>Node3&#45;&gt;Node2</title>
<g id="a_edge2_Node000002_Node000003"><a xlink:title=" ">
<path fill="none" stroke="#63b8ff" d="M54.5,-147.69C54.5,-138.98 54.5,-129.24 54.5,-122.42"/>
<polygon fill="#63b8ff" stroke="#63b8ff" points="51,-147.4 54.5,-157.4 58,-147.4 51,-147.4"/>
</a>
</g>
</g>
<!-- Node4 -->
<g id="Node000004" class="node">
<title>Node4</title>
<g id="a_Node000004"><a xlink:href="class_c_pin_controller.html" target="_top" xlink:title="PinController.h.">
<polygon fill="white" stroke="#666666" points="94.38,-234.75 14.62,-234.75 14.62,-215.5 94.38,-215.5 94.38,-234.75"/>
<text xml:space="preserve" text-anchor="middle" x="54.5" y="-221.25" font-family="Helvetica,sans-Serif" font-size="10.00">CPinController</text>
</a>
</g>
</g>
<!-- Node4&#45;&gt;Node3 -->
<g id="edge3_Node000003_Node000004" class="edge">
<title>Node4&#45;&gt;Node3</title>
<g id="a_edge3_Node000003_Node000004"><a xlink:title=" ">
<path fill="none" stroke="#63b8ff" d="M54.5,-203.94C54.5,-195.23 54.5,-185.49 54.5,-178.67"/>
<polygon fill="#63b8ff" stroke="#63b8ff" points="51,-203.65 54.5,-213.65 58,-203.65 51,-203.65"/>
</a>
</g>
</g>
</g>
</svg>
