<?xml version="1.0" encoding="UTF-8" standalone="no"?>
<!DOCTYPE svg PUBLIC "-//W3C//DTD SVG 1.1//EN"
 "http://www.w3.org/Graphics/SVG/1.1/DTD/svg11.dtd">
<!-- Generated by graphviz version 15.1.0 (20260618.0150)
 -->
<!-- Title: IModule Pages: 1 -->
<svg width="309pt" height="83pt"
 viewBox="0.00 0.00 309.00 83.00" xmlns="http://www.w3.org/2000/svg" xmlns:xlink="http://www.w3.org/1999/xlink">
<g id="graph0" class="graph" transform="scale(1 1) rotate(0) translate(4 78.5)">
<title>IModule</title>
<!-- Node1 -->
<g id="Node000001" class="node">
<title>Node1</title>
<g id="a_Node000001"><a xlink:title="Full Interface for modules.">
<polygon fill="#999999" stroke="#666666" points="164.88,-19.25 114.38,-19.25 114.38,0 164.88,0 164.88,-19.25"/>
<text xml:space="preserve" text-anchor="middle" x="139.62" y="-5.75" font-family="Helvetica,sans-Serif" font-size="10.00">IModule</text>
</a>
</g>
</g>
<!-- Node2 -->
<g id="Node000002" class="node">
<title>Node2</title>
<g id="a_Node000002"><a xlink:href="class_i_config_handler.html" target="_top" xlink:title="Interface for configuration handlers.">
<polygon fill="white" stroke="#666666" points="81.25,-74.5 0,-74.5 0,-55.25 81.25,-55.25 81.25,-74.5"/>
<text xml:space="preserve" text-anchor="middle" x="40.62" y="-61" font-family="Helvetica,sans-Serif" font-size="10.00">IConfigHandler</text>
</a>
</g>
</g>
<!-- Node2&#45;&gt;Node1 -->
<g id="edge1_Node000001_Node000002" class="edge">
<title>Node2&#45;&gt;Node1</title>
<g id="a_edge1_Node000001_Node000002"><a xlink:title=" ">
<path fill="none" stroke="#63b8ff" d="M67.15,-49.61C84.82,-40.11 107.5,-27.9 122.75,-19.7"/>
<polygon fill="#63b8ff" stroke="#63b8ff" points="65.9,-46.31 58.75,-54.12 69.22,-52.47 65.9,-46.31"/>
</a>
</g>
</g>
<!-- Node3 -->
<g id="Node000003" class="node">
<title>Node3</title>
<g id="a_Node000003"><a xlink:href="class_i_status_handler.html" target="_top" xlink:title="Interface for a status handler module.">
<polygon fill="white" stroke="#666666" points="180.25,-74.5 99,-74.5 99,-55.25 180.25,-55.25 180.25,-74.5"/>
<text xml:space="preserve" text-anchor="middle" x="139.62" y="-61" font-family="Helvetica,sans-Serif" font-size="10.00">IStatusHandler</text>
</a>
</g>
</g>
<!-- Node3&#45;&gt;Node1 -->
<g id="edge2_Node000001_Node000003" class="edge">
<title>Node3&#45;&gt;Node1</title>
<g id="a_edge2_Node000001_Node000003"><a xlink:title=" ">
<path fill="none" stroke="#63b8ff" d="M139.62,-43.63C139.62,-35.34 139.62,-26.17 139.62,-19.61"/>
<polygon fill="#63b8ff" stroke="#63b8ff" points="136.13,-43.57 139.63,-53.57 143.13,-43.57 136.13,-43.57"/>
</a>
</g>
</g>
<!-- Node4 -->
<g id="Node000004" class="node">
<title>Node4</title>
<g id="a_Node000004"><a xlink:href="class_i_msg_event_receiver.html" target="_top" xlink:title="Interface for Message Event Receivers.">
<polygon fill="white" stroke="#666666" points="300.75,-74.5 198.5,-74.5 198.5,-55.25 300.75,-55.25 300.75,-74.5"/>
<text xml:space="preserve" text-anchor="middle" x="249.62" y="-61" font-family="Helvetica,sans-Serif" font-size="10.00">IMsgEventReceiver</text>
</a>
</g>
</g>
<!-- Node4&#45;&gt;Node1 -->
<g id="edge3_Node000001_Node000004" class="edge">
<title>Node4&#45;&gt;Node1</title>
<g id="a_edge3_Node000001_Node000004"><a xlink:title=" ">
<path fill="none" stroke="#63b8ff" d="M220.7,-49.87C201,-40.33 175.47,-27.98 158.38,-19.7"/>
<polygon fill="#63b8ff" stroke="#63b8ff" points="219.08,-52.98 229.6,-54.18 222.13,-46.67 219.08,-52.98"/>
</a>
</g>
</g>
</g>
</svg>
