<?xml version="1.0" encoding="UTF-8" standalone="no"?>
<!DOCTYPE svg PUBLIC "-//W3C//DTD SVG 1.1//EN"
 "http://www.w3.org/Graphics/SVG/1.1/DTD/svg11.dtd">
<!-- Generated by graphviz version 15.1.0 (20260618.0150)
 -->
<!-- Title: CAppl Pages: 1 -->
<svg width="594pt" height="156pt"
 viewBox="0.00 0.00 594.00 156.00" xmlns="http://www.w3.org/2000/svg" xmlns:xlink="http://www.w3.org/1999/xlink">
<g id="graph0" class="graph" transform="scale(1 1) rotate(0) translate(4 152)">
<title>CAppl</title>
<!-- Node1 -->
<g id="Node000001" class="node">
<title>Node1</title>
<g id="a_Node000001"><a xlink:title="Central application hub for modules, configuration, status and events.">
<polygon fill="#999999" stroke="#666666" points="330.38,-19.25 287.38,-19.25 287.38,0 330.38,0 330.38,-19.25"/>
<text xml:space="preserve" text-anchor="middle" x="308.88" y="-5.75" font-family="Helvetica,sans-Serif" font-size="10.00">CAppl</text>
</a>
</g>
</g>
<!-- Node2 -->
<g id="Node000002" class="node">
<title>Node2</title>
<g id="a_Node000002"><a xlink:href="class_c_config_handler.html" target="_top" xlink:title="Configuration handler manager.">
<polygon fill="white" stroke="#666666" points="85.75,-91.75 0,-91.75 0,-72.5 85.75,-72.5 85.75,-91.75"/>
<text xml:space="preserve" text-anchor="middle" x="42.88" y="-78.25" font-family="Helvetica,sans-Serif" font-size="10.00">CConfigHandler</text>
</a>
</g>
</g>
<!-- Node2&#45;&gt;Node1 -->
<g id="edge1_Node000001_Node000002" class="edge">
<title>Node2&#45;&gt;Node1</title>
<g id="a_edge1_Node000001_Node000002"><a xlink:title=" ">
<path fill="none" stroke="#63b8ff" d="M78.77,-68.35C106.01,-58.95 144.5,-46.29 178.88,-37.25 216.53,-27.35 261.12,-18.92 287.08,-14.33"/>
<polygon fill="#63b8ff" stroke="#63b8ff" points="77.92,-64.94 69.62,-71.53 80.22,-71.55 77.92,-64.94"/>
</a>
</g>
</g>
<!-- Node3 -->
<g id="Node000003" class="node">
<title>Node3</title>
<g id="a_Node000003"><a xlink:href="class_i_config_handler.html" target="_top" xlink:title="Interface for configuration handlers.">
<polygon fill="white" stroke="#666666" points="156.5,-148 75.25,-148 75.25,-128.75 156.5,-128.75 156.5,-148"/>
<text xml:space="preserve" text-anchor="middle" x="115.88" y="-134.5" font-family="Helvetica,sans-Serif" font-size="10.00">IConfigHandler</text>
</a>
</g>
</g>
<!-- Node3&#45;&gt;Node2 -->
<g id="edge2_Node000002_Node000003" class="edge">
<title>Node3&#45;&gt;Node2</title>
<g id="a_edge2_Node000002_Node000003"><a xlink:title=" ">
<path fill="none" stroke="#63b8ff" d="M94.63,-121.59C81.63,-111.92 65.47,-99.92 54.71,-91.92"/>
<polygon fill="#63b8ff" stroke="#63b8ff" points="92.49,-124.36 102.61,-127.51 96.67,-118.74 92.49,-124.36"/>
</a>
</g>
</g>
<!-- Node7 -->
<g id="Node000007" class="node">
<title>Node7</title>
<g id="a_Node000007"><a xlink:href="class_c_var_table.html" target="_top" xlink:title="Collection of named variables exposed through IConfigHandler.">
<polygon fill="white" stroke="#666666" points="164.38,-91.75 103.38,-91.75 103.38,-72.5 164.38,-72.5 164.38,-91.75"/>
<text xml:space="preserve" text-anchor="middle" x="133.88" y="-78.25" font-family="Helvetica,sans-Serif" font-size="10.00">CVarTable</text>
</a>
</g>
</g>
<!-- Node3&#45;&gt;Node7 -->
<g id="edge7_Node000007_Node000003" class="edge">
<title>Node3&#45;&gt;Node7</title>
<g id="a_edge7_Node000007_Node000003"><a xlink:title=" ">
<path fill="none" stroke="#63b8ff" d="M122.47,-117.49C125.39,-108.7 128.67,-98.82 130.96,-91.92"/>
<polygon fill="#63b8ff" stroke="#63b8ff" points="119.15,-116.39 119.32,-126.98 125.8,-118.59 119.15,-116.39"/>
</a>
</g>
</g>
<!-- Node4 -->
<g id="Node000004" class="node">
<title>Node4</title>
<g id="a_Node000004"><a xlink:href="class_c_status_handler.html" target="_top" xlink:title="Status handler class.">
<polygon fill="white" stroke="#666666" points="267.75,-91.75 182,-91.75 182,-72.5 267.75,-72.5 267.75,-91.75"/>
<text xml:space="preserve" text-anchor="middle" x="224.88" y="-78.25" font-family="Helvetica,sans-Serif" font-size="10.00">CStatusHandler</text>
</a>
</g>
</g>
<!-- Node4&#45;&gt;Node1 -->
<g id="edge3_Node000001_Node000004" class="edge">
<title>Node4&#45;&gt;Node1</title>
<g id="a_edge3_Node000001_Node000004"><a xlink:title=" ">
<path fill="none" stroke="#63b8ff" d="M243.98,-65.09C260.71,-51.05 284.41,-31.16 298.06,-19.7"/>
<polygon fill="#63b8ff" stroke="#63b8ff" points="242.08,-62.11 236.67,-71.22 246.58,-67.48 242.08,-62.11"/>
</a>
</g>
</g>
<!-- Node5 -->
<g id="Node000005" class="node">
<title>Node5</title>
<g id="a_Node000005"><a xlink:href="class_i_status_handler.html" target="_top" xlink:title="Interface for a status handler module.">
<polygon fill="white" stroke="#666666" points="265.5,-148 184.25,-148 184.25,-128.75 265.5,-128.75 265.5,-148"/>
<text xml:space="preserve" text-anchor="middle" x="224.88" y="-134.5" font-family="Helvetica,sans-Serif" font-size="10.00">IStatusHandler</text>
</a>
</g>
</g>
<!-- Node5&#45;&gt;Node4 -->
<g id="edge4_Node000004_Node000005" class="edge">
<title>Node5&#45;&gt;Node4</title>
<g id="a_edge4_Node000004_Node000005"><a xlink:title=" ">
<path fill="none" stroke="#63b8ff" d="M224.88,-117.19C224.88,-108.48 224.88,-98.74 224.88,-91.92"/>
<polygon fill="#63b8ff" stroke="#63b8ff" points="221.38,-116.9 224.88,-126.9 228.38,-116.9 221.38,-116.9"/>
</a>
</g>
</g>
<!-- Node6 -->
<g id="Node000006" class="node">
<title>Node6</title>
<g id="a_Node000006"><a xlink:href="class_i_msg_event_receiver.html" target="_top" xlink:title="Interface for Message Event Receivers.">
<polygon fill="white" stroke="#666666" points="388,-91.75 285.75,-91.75 285.75,-72.5 388,-72.5 388,-91.75"/>
<text xml:space="preserve" text-anchor="middle" x="336.88" y="-78.25" font-family="Helvetica,sans-Serif" font-size="10.00">IMsgEventReceiver</text>
</a>
</g>
</g>
<!-- Node6&#45;&gt;Node1 -->
<g id="edge5_Node000001_Node000006" class="edge">
<title>Node6&#45;&gt;Node1</title>
<g id="a_edge5_Node000001_Node000006"><a xlink:title=" ">
<path fill="none" stroke="#8b1a1a" d="M329.23,-61.88C323.78,-48.15 316.69,-30.31 312.48,-19.7"/>
<polygon fill="#8b1a1a" stroke="#8b1a1a" points="325.83,-62.79 332.77,-70.79 332.33,-60.2 325.83,-62.79"/>
</a>
</g>
</g>
<!-- Node7&#45;&gt;Node1 -->
<g id="edge6_Node000001_Node000007" class="edge">
<title>Node7&#45;&gt;Node1</title>
<g id="a_edge6_Node000001_Node000007"><a xlink:title=" ">
<path fill="none" stroke="#9a32cd" stroke-dasharray="5,2" d="M158.96,-66.47C175.46,-57.24 197.74,-45.55 218.38,-37.25 241.17,-28.08 268.32,-20.52 286.9,-15.82"/>
<polygon fill="#9a32cd" stroke="#9a32cd" points="157.31,-63.39 150.34,-71.37 160.77,-69.47 157.31,-63.39"/>
</a>
</g>
<text xml:space="preserve" text-anchor="start" x="221.38" y="-43.25" font-family="Helvetica,sans-Serif" font-size="10.00" fill="grey">Config</text>
</g>
<!-- Node8 -->
<g id="Node000008" class="node">
<title>Node8</title>
<g id="a_Node000008"><a xlink:href="class_c_event_handler.html" target="_top" xlink:title="Event Handler Manager.">
<polygon fill="white" stroke="#666666" points="489.25,-91.75 406.5,-91.75 406.5,-72.5 489.25,-72.5 489.25,-91.75"/>
<text xml:space="preserve" text-anchor="middle" x="447.88" y="-78.25" font-family="Helvetica,sans-Serif" font-size="10.00">CEventHandler</text>
</a>
</g>
</g>
<!-- Node8&#45;&gt;Node1 -->
<g id="edge8_Node000001_Node000008" class="edge">
<title>Node8&#45;&gt;Node1</title>
<g id="a_edge8_Node000001_Node000008"><a xlink:title=" ">
<path fill="none" stroke="#9a32cd" stroke-dasharray="5,2" d="M419.72,-66.85C391.91,-52.74 350.22,-31.6 326.69,-19.66"/>
<polygon fill="#9a32cd" stroke="#9a32cd" points="418.14,-69.97 428.64,-71.37 421.3,-63.72 418.14,-69.97"/>
</a>
</g>
<text xml:space="preserve" text-anchor="start" x="397.91" y="-43.25" font-family="Helvetica,sans-Serif" font-size="10.00" fill="grey">MsgBus</text>
</g>
<!-- Node9 -->
<g id="Node000009" class="node">
<title>Node9</title>
<g id="a_Node000009"><a xlink:href="class_c_event_logger.html" target="_top" xlink:title="Logger facade that sends formatted log events through CEventHandler.">
<polygon fill="white" stroke="#666666" points="586,-91.75 507.75,-91.75 507.75,-72.5 586,-72.5 586,-91.75"/>
<text xml:space="preserve" text-anchor="middle" x="546.88" y="-78.25" font-family="Helvetica,sans-Serif" font-size="10.00">CEventLogger</text>
</a>
</g>
</g>
<!-- Node9&#45;&gt;Node1 -->
<g id="edge9_Node000001_Node000009" class="edge">
<title>Node9&#45;&gt;Node1</title>
<g id="a_edge9_Node000001_Node000009"><a xlink:title=" ">
<path fill="none" stroke="#9a32cd" stroke-dasharray="5,2" d="M517.96,-67.37C496.96,-57.83 467.64,-45.41 440.88,-37.25 402.86,-25.67 357.12,-17.73 330.69,-13.7"/>
<polygon fill="#9a32cd" stroke="#9a32cd" points="516.21,-70.42 526.76,-71.43 519.14,-64.06 516.21,-70.42"/>
</a>
</g>
<text xml:space="preserve" text-anchor="start" x="491.14" y="-43.25" font-family="Helvetica,sans-Serif" font-size="10.00" fill="grey">Log</text>
</g>
</g>
</svg>
