<?xml version="1.0" encoding="UTF-8" standalone="no"?>
<!DOCTYPE svg PUBLIC "-//W3C//DTD SVG 1.1//EN"
 "http://www.w3.org/Graphics/SVG/1.1/DTD/svg11.dtd">
<!-- Generated by graphviz version 15.1.0 (20260618.0150)
 -->
<!-- Title: CNamedValueTable&lt; TValue &gt; Pages: 1 -->
<svg width="324pt" height="94pt"
 viewBox="0.00 0.00 324.00 94.00" xmlns="http://www.w3.org/2000/svg" xmlns:xlink="http://www.w3.org/1999/xlink">
<g id="graph0" class="graph" transform="scale(1 1) rotate(0) translate(4 89.75)">
<title>CNamedValueTable&lt; TValue &gt;</title>
<!-- Node1 -->
<g id="Node000001" class="node">
<title>Node1</title>
<g id="a_Node000001"><a xlink:title="Lightweight ordered table for named values.">
<polygon fill="#999999" stroke="#666666" points="232.5,-85.75 82.25,-85.75 82.25,-66.5 232.5,-66.5 232.5,-85.75"/>
<text xml:space="preserve" text-anchor="middle" x="157.38" y="-72.25" font-family="Helvetica,sans-Serif" font-size="10.00">CNamedValueTable&lt; TValue &gt;</text>
</a>
</g>
</g>
<!-- Node2 -->
<g id="Node000002" class="node">
<title>Node2</title>
<g id="a_Node000002"><a xlink:href="class_c_multi_name_unique_value_table.html" target="_top" xlink:title="Named&#45;value table that allows many names but only unique values.">
<polygon fill="white" stroke="#666666" points="148.75,-30.5 0,-30.5 0,0 148.75,0 148.75,-30.5"/>
<text xml:space="preserve" text-anchor="start" x="8" y="-17" font-family="Helvetica,sans-Serif" font-size="10.00">CMultiNameUniqueValueTable</text>
<text xml:space="preserve" text-anchor="middle" x="74.38" y="-5.75" font-family="Helvetica,sans-Serif" font-size="10.00">&lt; TValue &gt;</text>
</a>
</g>
</g>
<!-- Node1&#45;&gt;Node2 -->
<g id="edge1_Node000001_Node000002" class="edge">
<title>Node1&#45;&gt;Node2</title>
<g id="a_edge1_Node000001_Node000002"><a xlink:title=" ">
<path fill="none" stroke="#63b8ff" d="M135.47,-59.59C122.89,-50.67 107.2,-39.53 94.86,-30.78"/>
<polygon fill="#63b8ff" stroke="#63b8ff" points="133.35,-62.38 143.53,-65.31 137.4,-56.67 133.35,-62.38"/>
</a>
</g>
</g>
<!-- Node3 -->
<g id="Node000003" class="node">
<title>Node3</title>
<g id="a_Node000003"><a xlink:href="class_c_unique_name_multi_value_table.html" target="_top" xlink:title="Named&#45;value table that allows unique names and repeated values.">
<polygon fill="white" stroke="#666666" points="315.75,-30.5 167,-30.5 167,0 315.75,0 315.75,-30.5"/>
<text xml:space="preserve" text-anchor="start" x="175" y="-17" font-family="Helvetica,sans-Serif" font-size="10.00">CUniqueNameMultiValueTable</text>
<text xml:space="preserve" text-anchor="middle" x="241.38" y="-5.75" font-family="Helvetica,sans-Serif" font-size="10.00">&lt; TValue &gt;</text>
</a>
</g>
</g>
<!-- Node1&#45;&gt;Node3 -->
<g id="edge2_Node000001_Node000003" class="edge">
<title>Node1&#45;&gt;Node3</title>
<g id="a_edge2_Node000001_Node000003"><a xlink:title=" ">
<path fill="none" stroke="#63b8ff" d="M179.54,-59.59C192.27,-50.67 208.16,-39.53 220.64,-30.78"/>
<polygon fill="#63b8ff" stroke="#63b8ff" points="177.55,-56.71 171.37,-65.31 181.57,-62.44 177.55,-56.71"/>
</a>
</g>
</g>
</g>
</svg>
