<?xml version="1.0" encoding="UTF-8" standalone="no"?>
<!DOCTYPE svg PUBLIC "-//W3C//DTD SVG 1.1//EN"
 "http://www.w3.org/Graphics/SVG/1.1/DTD/svg11.dtd">
<!-- Generated by graphviz version 15.1.0 (20260618.0150)
 -->
<!-- Title: IMsgEventReceiver Pages: 1 -->
<svg width="670pt" height="193pt"
 viewBox="0.00 0.00 670.00 193.00" xmlns="http://www.w3.org/2000/svg" xmlns:xlink="http://www.w3.org/1999/xlink">
<g id="graph0" class="graph" transform="scale(1 1) rotate(0) translate(4 189)">
<title>IMsgEventReceiver</title>
<!-- Node1 -->
<g id="Node000001" class="node">
<title>Node1</title>
<g id="a_Node000001"><a xlink:title="Interface for Message Event Receivers.">
<polygon fill="#999999" stroke="#666666" points="296.62,-185 194.38,-185 194.38,-165.75 296.62,-165.75 296.62,-185"/>
<text xml:space="preserve" text-anchor="middle" x="245.5" y="-171.5" font-family="Helvetica,sans-Serif" font-size="10.00">IMsgEventReceiver</text>
</a>
</g>
</g>
<!-- Node2 -->
<g id="Node000002" class="node">
<title>Node2</title>
<g id="a_Node000002"><a xlink:href="class_c_appl.html" target="_top" xlink:title="Central application hub for modules, configuration, status and events.">
<polygon fill="white" stroke="#666666" points="43,-129.75 0,-129.75 0,-110.5 43,-110.5 43,-129.75"/>
<text xml:space="preserve" text-anchor="middle" x="21.5" y="-116.25" font-family="Helvetica,sans-Serif" font-size="10.00">CAppl</text>
</a>
</g>
</g>
<!-- Node1&#45;&gt;Node2 -->
<g id="edge1_Node000001_Node000002" class="edge">
<title>Node1&#45;&gt;Node2</title>
<g id="a_edge1_Node000001_Node000002"><a xlink:title=" ">
<path fill="none" stroke="#8b1a1a" d="M192.91,-162.87C154.02,-154.21 99.82,-141.8 52.5,-129.75 49.58,-129.01 46.51,-128.19 43.48,-127.37"/>
<polygon fill="#8b1a1a" stroke="#8b1a1a" points="191.96,-166.25 202.48,-165 193.48,-159.41 191.96,-166.25"/>
</a>
</g>
</g>
<!-- Node3 -->
<g id="Node000003" class="node">
<title>Node3</title>
<g id="a_Node000003"><a xlink:href="class_c_log_writer.html" target="_top" xlink:title="Class to handle the logging for a module This class is used to write log entries for a specific modul...">
<polygon fill="white" stroke="#666666" points="125.88,-129.75 61.12,-129.75 61.12,-110.5 125.88,-110.5 125.88,-129.75"/>
<text xml:space="preserve" text-anchor="middle" x="93.5" y="-116.25" font-family="Helvetica,sans-Serif" font-size="10.00">CLogWriter</text>
</a>
</g>
</g>
<!-- Node1&#45;&gt;Node3 -->
<g id="edge2_Node000001_Node000003" class="edge">
<title>Node1&#45;&gt;Node3</title>
<g id="a_edge2_Node000001_Node000003"><a xlink:title=" ">
<path fill="none" stroke="#63b8ff" d="M208.9,-161.55C181.26,-151.87 144.02,-138.82 119.41,-130.2"/>
<polygon fill="#63b8ff" stroke="#63b8ff" points="207.69,-164.84 218.29,-164.84 210.01,-158.23 207.69,-164.84"/>
</a>
</g>
</g>
<!-- Node6 -->
<g id="Node000006" class="node">
<title>Node6</title>
<g id="a_Node000006"><a xlink:href="class_c_m_d_n_s_controller.html" target="_top" xlink:title=" ">
<polygon fill="white" stroke="#666666" points="239.25,-129.75 143.75,-129.75 143.75,-110.5 239.25,-110.5 239.25,-129.75"/>
<text xml:space="preserve" text-anchor="middle" x="191.5" y="-116.25" font-family="Helvetica,sans-Serif" font-size="10.00">CMDNSController</text>
</a>
</g>
</g>
<!-- Node1&#45;&gt;Node6 -->
<g id="edge5_Node000001_Node000006" class="edge">
<title>Node1&#45;&gt;Node6</title>
<g id="a_edge5_Node000001_Node000006"><a xlink:title=" ">
<path fill="none" stroke="#63b8ff" d="M228.46,-157.57C219.24,-148.48 208.21,-137.6 200.61,-130.11"/>
<polygon fill="#63b8ff" stroke="#63b8ff" points="225.93,-159.99 235.51,-164.52 230.84,-155.01 225.93,-159.99"/>
</a>
</g>
</g>
<!-- Node7 -->
<g id="Node000007" class="node">
<title>Node7</title>
<g id="a_Node000007"><a xlink:href="class_c_sys_status_led.html" target="_top" xlink:title=" ">
<polygon fill="white" stroke="#666666" points="342,-129.75 257,-129.75 257,-110.5 342,-110.5 342,-129.75"/>
<text xml:space="preserve" text-anchor="middle" x="299.5" y="-116.25" font-family="Helvetica,sans-Serif" font-size="10.00">CSysStatusLed</text>
</a>
</g>
</g>
<!-- Node1&#45;&gt;Node7 -->
<g id="edge6_Node000001_Node000007" class="edge">
<title>Node1&#45;&gt;Node7</title>
<g id="a_edge6_Node000001_Node000007"><a xlink:title=" ">
<path fill="none" stroke="#63b8ff" d="M262.54,-157.57C271.76,-148.48 282.79,-137.6 290.39,-130.11"/>
<polygon fill="#63b8ff" stroke="#63b8ff" points="260.16,-155.01 255.49,-164.52 265.07,-159.99 260.16,-155.01"/>
</a>
</g>
</g>
<!-- Node8 -->
<g id="Node000008" class="node">
<title>Node8</title>
<g id="a_Node000008"><a xlink:href="class_c_web_socket.html" target="_top" xlink:title="Function pointer to register the routes.">
<polygon fill="white" stroke="#666666" points="433.38,-129.75 359.62,-129.75 359.62,-110.5 433.38,-110.5 433.38,-129.75"/>
<text xml:space="preserve" text-anchor="middle" x="396.5" y="-116.25" font-family="Helvetica,sans-Serif" font-size="10.00">CWebSocket</text>
</a>
</g>
</g>
<!-- Node1&#45;&gt;Node8 -->
<g id="edge7_Node000001_Node000008" class="edge">
<title>Node1&#45;&gt;Node8</title>
<g id="a_edge7_Node000001_Node000008"><a xlink:title=" ">
<path fill="none" stroke="#63b8ff" d="M281.86,-161.55C309.31,-151.87 346.31,-138.82 370.76,-130.2"/>
<polygon fill="#63b8ff" stroke="#63b8ff" points="280.81,-158.21 272.54,-164.84 283.14,-164.81 280.81,-158.21"/>
</a>
</g>
</g>
<!-- Node9 -->
<g id="Node000009" class="node">
<title>Node9</title>
<g id="a_Node000009"><a xlink:href="class_i_module.html" target="_top" xlink:title="Full Interface for modules.">
<polygon fill="white" stroke="#666666" points="501.75,-129.75 451.25,-129.75 451.25,-110.5 501.75,-110.5 501.75,-129.75"/>
<text xml:space="preserve" text-anchor="middle" x="476.5" y="-116.25" font-family="Helvetica,sans-Serif" font-size="10.00">IModule</text>
</a>
</g>
</g>
<!-- Node1&#45;&gt;Node9 -->
<g id="edge8_Node000001_Node000009" class="edge">
<title>Node1&#45;&gt;Node9</title>
<g id="a_edge8_Node000001_Node000009"><a xlink:title=" ">
<path fill="none" stroke="#63b8ff" d="M298.1,-162.85C337.83,-154.04 393.67,-141.47 442.5,-129.75 445.22,-129.1 448.07,-128.4 450.9,-127.69"/>
<polygon fill="#63b8ff" stroke="#63b8ff" points="297.57,-159.38 288.56,-164.95 299.08,-166.21 297.57,-159.38"/>
</a>
</g>
</g>
<!-- Node4 -->
<g id="Node000004" class="node">
<title>Node4</title>
<g id="a_Node000004"><a xlink:href="class_c_stream_log_writer.html" target="_top" xlink:title="Log writer that prints log entries to an Arduino Stream.">
<polygon fill="white" stroke="#666666" points="141.62,-74.5 45.38,-74.5 45.38,-55.25 141.62,-55.25 141.62,-74.5"/>
<text xml:space="preserve" text-anchor="middle" x="93.5" y="-61" font-family="Helvetica,sans-Serif" font-size="10.00">CStreamLogWriter</text>
</a>
</g>
</g>
<!-- Node3&#45;&gt;Node4 -->
<g id="edge3_Node000003_Node000004" class="edge">
<title>Node3&#45;&gt;Node4</title>
<g id="a_edge3_Node000003_Node000004"><a xlink:title=" ">
<path fill="none" stroke="#63b8ff" d="M93.5,-98.88C93.5,-90.59 93.5,-81.42 93.5,-74.86"/>
<polygon fill="#63b8ff" stroke="#63b8ff" points="90,-98.82 93.5,-108.82 97,-98.82 90,-98.82"/>
</a>
</g>
</g>
<!-- Node5 -->
<g id="Node000005" class="node">
<title>Node5</title>
<g id="a_Node000005"><a xlink:href="class_c_serial_log_writer.html" target="_top" xlink:title="Stream log writer preconfigured for Serial.">
<polygon fill="white" stroke="#666666" points="138.25,-19.25 48.75,-19.25 48.75,0 138.25,0 138.25,-19.25"/>
<text xml:space="preserve" text-anchor="middle" x="93.5" y="-5.75" font-family="Helvetica,sans-Serif" font-size="10.00">CSerialLogWriter</text>
</a>
</g>
</g>
<!-- Node4&#45;&gt;Node5 -->
<g id="edge4_Node000004_Node000005" class="edge">
<title>Node4&#45;&gt;Node5</title>
<g id="a_edge4_Node000004_Node000005"><a xlink:title=" ">
<path fill="none" stroke="#63b8ff" d="M93.5,-43.63C93.5,-35.34 93.5,-26.17 93.5,-19.61"/>
<polygon fill="#63b8ff" stroke="#63b8ff" points="90,-43.57 93.5,-53.57 97,-43.57 90,-43.57"/>
</a>
</g>
</g>
<!-- Node10 -->
<g id="Node000010" class="node">
<title>Node10</title>
<g id="a_Node000010"><a xlink:href="class_appl_module.html" target="_top" xlink:title="Abstract Basic Module Implementation You have to implement the dispatch method to reflect your module...">
<polygon fill="white" stroke="#666666" points="373,-74.5 306,-74.5 306,-55.25 373,-55.25 373,-74.5"/>
<text xml:space="preserve" text-anchor="middle" x="339.5" y="-61" font-family="Helvetica,sans-Serif" font-size="10.00">ApplModule</text>
</a>
</g>
</g>
<!-- Node9&#45;&gt;Node10 -->
<g id="edge9_Node000009_Node000010" class="edge">
<title>Node9&#45;&gt;Node10</title>
<g id="a_edge9_Node000009_Node000010"><a xlink:title=" ">
<path fill="none" stroke="#63b8ff" d="M442.84,-106.04C418.01,-96.39 384.84,-83.5 362.85,-74.95"/>
<polygon fill="#63b8ff" stroke="#63b8ff" points="441.26,-109.18 451.85,-109.54 443.8,-102.66 441.26,-109.18"/>
</a>
</g>
</g>
<!-- Node13 -->
<g id="Node000013" class="node">
<title>Node13</title>
<g id="a_Node000013"><a xlink:href="class_c_n_t_p_handler.html" target="_top" xlink:title="The NTP Handler class as a module.">
<polygon fill="white" stroke="#666666" points="468.25,-74.5 390.75,-74.5 390.75,-55.25 468.25,-55.25 468.25,-74.5"/>
<text xml:space="preserve" text-anchor="middle" x="429.5" y="-61" font-family="Helvetica,sans-Serif" font-size="10.00">CNTPHandler</text>
</a>
</g>
</g>
<!-- Node9&#45;&gt;Node13 -->
<g id="edge12_Node000009_Node000013" class="edge">
<title>Node9&#45;&gt;Node13</title>
<g id="a_edge12_Node000009_Node000013"><a xlink:title=" ">
<path fill="none" stroke="#63b8ff" d="M461.17,-101.76C453.25,-92.78 443.9,-82.2 437.43,-74.86"/>
<polygon fill="#63b8ff" stroke="#63b8ff" points="458.5,-104.02 467.74,-109.2 463.74,-99.38 458.5,-104.02"/>
</a>
</g>
</g>
<!-- Node14 -->
<g id="Node000014" class="node">
<title>Node14</title>
<g id="a_Node000014"><a xlink:href="class_c_web_server.html" target="_top" xlink:title="Async web server module that registers default routes and file access.">
<polygon fill="white" stroke="#666666" points="558.25,-74.5 486.75,-74.5 486.75,-55.25 558.25,-55.25 558.25,-74.5"/>
<text xml:space="preserve" text-anchor="middle" x="522.5" y="-61" font-family="Helvetica,sans-Serif" font-size="10.00">CWebServer</text>
</a>
</g>
</g>
<!-- Node9&#45;&gt;Node14 -->
<g id="edge13_Node000009_Node000014" class="edge">
<title>Node9&#45;&gt;Node14</title>
<g id="a_edge13_Node000009_Node000014"><a xlink:title=" ">
<path fill="none" stroke="#63b8ff" d="M491.5,-101.76C499.26,-92.78 508.4,-82.2 514.74,-74.86"/>
<polygon fill="#63b8ff" stroke="#63b8ff" points="488.97,-99.33 485.09,-109.19 494.27,-103.91 488.97,-99.33"/>
</a>
</g>
</g>
<!-- Node15 -->
<g id="Node000015" class="node">
<title>Node15</title>
<g id="a_Node000015"><a xlink:href="class_c_wi_fi_controller.html" target="_top" xlink:title="Application module that controls WiFi AP/station mode.">
<polygon fill="white" stroke="#666666" points="662.38,-74.5 576.62,-74.5 576.62,-55.25 662.38,-55.25 662.38,-74.5"/>
<text xml:space="preserve" text-anchor="middle" x="619.5" y="-61" font-family="Helvetica,sans-Serif" font-size="10.00">CWiFiController</text>
</a>
</g>
</g>
<!-- Node9&#45;&gt;Node15 -->
<g id="edge14_Node000009_Node000015" class="edge">
<title>Node9&#45;&gt;Node15</title>
<g id="a_edge14_Node000009_Node000015"><a xlink:title=" ">
<path fill="none" stroke="#63b8ff" d="M511.28,-106.17C537.25,-96.5 572.07,-83.54 595.12,-74.95"/>
<polygon fill="#63b8ff" stroke="#63b8ff" points="510.33,-102.79 502.18,-109.56 512.77,-109.35 510.33,-102.79"/>
</a>
</g>
</g>
<!-- Node11 -->
<g id="Node000011" class="node">
<title>Node11</title>
<g id="a_Node000011"><a xlink:href="class_c_battery_measure.html" target="_top" xlink:title=" ">
<polygon fill="white" stroke="#666666" points="340.75,-19.25 248.25,-19.25 248.25,0 340.75,0 340.75,-19.25"/>
<text xml:space="preserve" text-anchor="middle" x="294.5" y="-5.75" font-family="Helvetica,sans-Serif" font-size="10.00">CBatteryMeasure</text>
</a>
</g>
</g>
<!-- Node10&#45;&gt;Node11 -->
<g id="edge10_Node000010_Node000011" class="edge">
<title>Node10&#45;&gt;Node11</title>
<g id="a_edge10_Node000010_Node000011"><a xlink:title=" ">
<path fill="none" stroke="#63b8ff" d="M324.82,-46.51C317.24,-37.53 308.29,-26.95 302.09,-19.61"/>
<polygon fill="#63b8ff" stroke="#63b8ff" points="321.96,-48.55 331.09,-53.93 327.31,-44.03 321.96,-48.55"/>
</a>
</g>
</g>
<!-- Node12 -->
<g id="Node000012" class="node">
<title>Node12</title>
<g id="a_Node000012"><a xlink:href="class_c_m_q_t_t_controller.html" target="_top" xlink:title="MQTT message broker module with heartbeat and HA discovery support.">
<polygon fill="white" stroke="#666666" points="452.12,-19.25 358.88,-19.25 358.88,0 452.12,0 452.12,-19.25"/>
<text xml:space="preserve" text-anchor="middle" x="405.5" y="-5.75" font-family="Helvetica,sans-Serif" font-size="10.00">CMQTTController</text>
</a>
</g>
</g>
<!-- Node10&#45;&gt;Node12 -->
<g id="edge11_Node000010_Node000012" class="edge">
<title>Node10&#45;&gt;Node12</title>
<g id="a_edge11_Node000010_Node000012"><a xlink:title=" ">
<path fill="none" stroke="#63b8ff" d="M359.59,-47.66C371.05,-38.42 384.98,-27.18 394.47,-19.52"/>
<polygon fill="#63b8ff" stroke="#63b8ff" points="357.46,-44.89 351.87,-53.89 361.85,-50.34 357.46,-44.89"/>
</a>
</g>
</g>
</g>
</svg>
