<?xml version="1.0" encoding="UTF-8" standalone="no"?>
<!DOCTYPE svg PUBLIC "-//W3C//DTD SVG 1.1//EN"
 "http://www.w3.org/Graphics/SVG/1.1/DTD/svg11.dtd">
<!-- Generated by graphviz version 15.1.0 (20260618.0150)
 -->
<!-- Title: CSysStatusLed Pages: 1 -->
<svg width="214pt" height="299pt"
 viewBox="0.00 0.00 214.00 299.00" xmlns="http://www.w3.org/2000/svg" xmlns:xlink="http://www.w3.org/1999/xlink">
<g id="graph0" class="graph" transform="scale(1 1) rotate(0) translate(4 295)">
<title>CSysStatusLed</title>
<!-- Node1 -->
<g id="Node000001" class="node">
<title>Node1</title>
<g id="a_Node000001"><a xlink:title=" ">
<polygon fill="#999999" stroke="#666666" points="147,-19.25 62,-19.25 62,0 147,0 147,-19.25"/>
<text xml:space="preserve" text-anchor="middle" x="104.5" y="-5.75" font-family="Helvetica,sans-Serif" font-size="10.00">CSysStatusLed</text>
</a>
</g>
</g>
<!-- Node2 -->
<g id="Node000002" class="node">
<title>Node2</title>
<g id="a_Node000002"><a xlink:href="class_c_r_g_b_led.html" target="_top" xlink:title="Class to handle the RGB LED Initialize the RGB LED with the pins for the colors and with the Informat...">
<polygon fill="white" stroke="#666666" points="85,-75.5 24,-75.5 24,-56.25 85,-56.25 85,-75.5"/>
<text xml:space="preserve" text-anchor="middle" x="54.5" y="-62" font-family="Helvetica,sans-Serif" font-size="10.00">CRGBLed</text>
</a>
</g>
</g>
<!-- Node2&#45;&gt;Node1 -->
<g id="edge1_Node000001_Node000002" class="edge">
<title>Node2&#45;&gt;Node1</title>
<g id="a_edge1_Node000001_Node000002"><a xlink:title=" ">
<path fill="none" stroke="#63b8ff" d="M70.37,-47.65C79.03,-38.26 89.38,-27.03 96.4,-19.42"/>
<polygon fill="#63b8ff" stroke="#63b8ff" points="67.99,-45.08 63.78,-54.8 73.13,-49.82 67.99,-45.08"/>
</a>
</g>
</g>
<!-- Node3 -->
<g id="Node000003" class="node">
<title>Node3</title>
<g id="a_Node000003"><a xlink:href="class_c_light_switch.html" target="_top" xlink:title=" ">
<polygon fill="white" stroke="#666666" points="91.75,-178.5 17.25,-178.5 17.25,-159.25 91.75,-159.25 91.75,-178.5"/>
<text xml:space="preserve" text-anchor="middle" x="54.5" y="-165" font-family="Helvetica,sans-Serif" font-size="10.00">CLightSwitch</text>
</a>
</g>
</g>
<!-- Node3&#45;&gt;Node2 -->
<g id="edge2_Node000002_Node000003" class="edge">
<title>Node3&#45;&gt;Node2</title>
<g id="a_edge2_Node000002_Node000003"><a xlink:title=" ">
<path fill="none" stroke="#9a32cd" stroke-dasharray="5,2" d="M54.5,-147.67C54.5,-125.84 54.5,-92.04 54.5,-75.96"/>
<polygon fill="#9a32cd" stroke="#9a32cd" points="51,-147.4 54.5,-157.4 58,-147.4 51,-147.4"/>
</a>
</g>
<text xml:space="preserve" text-anchor="start" x="57.5" y="-130" font-family="Helvetica,sans-Serif" font-size="10.00" fill="grey">BlueLED</text>
<text xml:space="preserve" text-anchor="start" x="57.5" y="-114.75" font-family="Helvetica,sans-Serif" font-size="10.00" fill="grey">GreenLED</text>
<text xml:space="preserve" text-anchor="start" x="57.5" y="-99.5" font-family="Helvetica,sans-Serif" font-size="10.00" fill="grey">RedLED</text>
</g>
<!-- Node4 -->
<g id="Node000004" class="node">
<title>Node4</title>
<g id="a_Node000004"><a xlink:href="class_c_output_pin_controller.html" target="_top" xlink:title="Base class to controll a pin as in or output with helper functions.">
<polygon fill="white" stroke="#666666" points="109,-234.75 0,-234.75 0,-215.5 109,-215.5 109,-234.75"/>
<text xml:space="preserve" text-anchor="middle" x="54.5" y="-221.25" font-family="Helvetica,sans-Serif" font-size="10.00">COutputPinController</text>
</a>
</g>
</g>
<!-- Node4&#45;&gt;Node3 -->
<g id="edge3_Node000003_Node000004" class="edge">
<title>Node4&#45;&gt;Node3</title>
<g id="a_edge3_Node000003_Node000004"><a xlink:title=" ">
<path fill="none" stroke="#63b8ff" d="M54.5,-203.94C54.5,-195.23 54.5,-185.49 54.5,-178.67"/>
<polygon fill="#63b8ff" stroke="#63b8ff" points="51,-203.65 54.5,-213.65 58,-203.65 51,-203.65"/>
</a>
</g>
</g>
<!-- Node5 -->
<g id="Node000005" class="node">
<title>Node5</title>
<g id="a_Node000005"><a xlink:href="class_c_pin_controller.html" target="_top" xlink:title="PinController.h.">
<polygon fill="white" stroke="#666666" points="94.38,-291 14.62,-291 14.62,-271.75 94.38,-271.75 94.38,-291"/>
<text xml:space="preserve" text-anchor="middle" x="54.5" y="-277.5" font-family="Helvetica,sans-Serif" font-size="10.00">CPinController</text>
</a>
</g>
</g>
<!-- Node5&#45;&gt;Node4 -->
<g id="edge4_Node000004_Node000005" class="edge">
<title>Node5&#45;&gt;Node4</title>
<g id="a_edge4_Node000004_Node000005"><a xlink:title=" ">
<path fill="none" stroke="#63b8ff" d="M54.5,-260.19C54.5,-251.48 54.5,-241.74 54.5,-234.92"/>
<polygon fill="#63b8ff" stroke="#63b8ff" points="51,-259.9 54.5,-269.9 58,-259.9 51,-259.9"/>
</a>
</g>
</g>
<!-- Node6 -->
<g id="Node000006" class="node">
<title>Node6</title>
<g id="a_Node000006"><a xlink:href="class_i_msg_event_receiver.html" target="_top" xlink:title="Interface for Message Event Receivers.">
<polygon fill="white" stroke="#666666" points="205.62,-75.5 103.38,-75.5 103.38,-56.25 205.62,-56.25 205.62,-75.5"/>
<text xml:space="preserve" text-anchor="middle" x="154.5" y="-62" font-family="Helvetica,sans-Serif" font-size="10.00">IMsgEventReceiver</text>
</a>
</g>
</g>
<!-- Node6&#45;&gt;Node1 -->
<g id="edge5_Node000001_Node000006" class="edge">
<title>Node6&#45;&gt;Node1</title>
<g id="a_edge5_Node000001_Node000006"><a xlink:title=" ">
<path fill="none" stroke="#63b8ff" d="M138.63,-47.65C129.97,-38.26 119.62,-27.03 112.6,-19.42"/>
<polygon fill="#63b8ff" stroke="#63b8ff" points="135.87,-49.82 145.22,-54.8 141.01,-45.08 135.87,-49.82"/>
</a>
</g>
</g>
</g>
</svg>
