<?xml version="1.0" encoding="UTF-8" standalone="no"?>
<!DOCTYPE svg PUBLIC "-//W3C//DTD SVG 1.1//EN"
 "http://www.w3.org/Graphics/SVG/1.1/DTD/svg11.dtd">
<!-- Generated by graphviz version 15.1.0 (20260618.0150)
 -->
<!-- Title: CMQTTController Pages: 1 -->
<svg width="363pt" height="212pt"
 viewBox="0.00 0.00 363.00 212.00" xmlns="http://www.w3.org/2000/svg" xmlns:xlink="http://www.w3.org/1999/xlink">
<g id="graph0" class="graph" transform="scale(1 1) rotate(0) translate(4 208.25)">
<title>CMQTTController</title>
<!-- Node1 -->
<g id="Node000001" class="node">
<title>Node1</title>
<g id="a_Node000001"><a xlink:title="MQTT message broker module with heartbeat and HA discovery support.">
<polygon fill="#999999" stroke="#666666" points="253,-19.25 159.75,-19.25 159.75,0 253,0 253,-19.25"/>
<text xml:space="preserve" text-anchor="middle" x="206.38" y="-5.75" font-family="Helvetica,sans-Serif" font-size="10.00">CMQTTController</text>
</a>
</g>
</g>
<!-- Node2 -->
<g id="Node000002" class="node">
<title>Node2</title>
<g id="a_Node000002"><a xlink:href="class_async_mqtt_client.html" target="_top" xlink:title=" ">
<polygon fill="white" stroke="#666666" points="88.75,-91.75 0,-91.75 0,-72.5 88.75,-72.5 88.75,-91.75"/>
<text xml:space="preserve" text-anchor="middle" x="44.38" y="-78.25" font-family="Helvetica,sans-Serif" font-size="10.00">AsyncMqttClient</text>
</a>
</g>
</g>
<!-- Node2&#45;&gt;Node1 -->
<g id="edge1_Node000001_Node000002" class="edge">
<title>Node2&#45;&gt;Node1</title>
<g id="a_edge1_Node000001_Node000002"><a xlink:title=" ">
<path fill="none" stroke="#63b8ff" d="M75.48,-67.59C107.87,-53.49 157.7,-31.81 185.61,-19.66"/>
<polygon fill="#63b8ff" stroke="#63b8ff" points="74.38,-64.25 66.61,-71.45 77.18,-70.67 74.38,-64.25"/>
</a>
</g>
</g>
<!-- Node3 -->
<g id="Node000003" class="node">
<title>Node3</title>
<g id="a_Node000003"><a xlink:href="class_appl_module.html" target="_top" xlink:title="Abstract Basic Module Implementation You have to implement the dispatch method to reflect your module...">
<polygon fill="white" stroke="#666666" points="173.88,-91.75 106.88,-91.75 106.88,-72.5 173.88,-72.5 173.88,-91.75"/>
<text xml:space="preserve" text-anchor="middle" x="140.38" y="-78.25" font-family="Helvetica,sans-Serif" font-size="10.00">ApplModule</text>
</a>
</g>
</g>
<!-- Node3&#45;&gt;Node1 -->
<g id="edge2_Node000001_Node000003" class="edge">
<title>Node3&#45;&gt;Node1</title>
<g id="a_edge2_Node000001_Node000003"><a xlink:title=" ">
<path fill="none" stroke="#63b8ff" d="M156.49,-63.91C169.56,-49.95 187.45,-30.84 197.88,-19.7"/>
<polygon fill="#63b8ff" stroke="#63b8ff" points="154.05,-61.4 149.77,-71.09 159.16,-66.18 154.05,-61.4"/>
</a>
</g>
</g>
<!-- Node4 -->
<g id="Node000004" class="node">
<title>Node4</title>
<g id="a_Node000004"><a xlink:href="class_i_module.html" target="_top" xlink:title="Full Interface for modules.">
<polygon fill="white" stroke="#666666" points="165.62,-148 115.12,-148 115.12,-128.75 165.62,-128.75 165.62,-148"/>
<text xml:space="preserve" text-anchor="middle" x="140.38" y="-134.5" font-family="Helvetica,sans-Serif" font-size="10.00">IModule</text>
</a>
</g>
</g>
<!-- Node4&#45;&gt;Node3 -->
<g id="edge3_Node000003_Node000004" class="edge">
<title>Node4&#45;&gt;Node3</title>
<g id="a_edge3_Node000003_Node000004"><a xlink:title=" ">
<path fill="none" stroke="#63b8ff" d="M140.38,-117.19C140.38,-108.48 140.38,-98.74 140.38,-91.92"/>
<polygon fill="#63b8ff" stroke="#63b8ff" points="136.88,-116.9 140.38,-126.9 143.88,-116.9 136.88,-116.9"/>
</a>
</g>
</g>
<!-- Node5 -->
<g id="Node000005" class="node">
<title>Node5</title>
<g id="a_Node000005"><a xlink:href="class_i_config_handler.html" target="_top" xlink:title="Interface for configuration handlers.">
<polygon fill="white" stroke="#666666" points="82,-204.25 0.75,-204.25 0.75,-185 82,-185 82,-204.25"/>
<text xml:space="preserve" text-anchor="middle" x="41.38" y="-190.75" font-family="Helvetica,sans-Serif" font-size="10.00">IConfigHandler</text>
</a>
</g>
</g>
<!-- Node5&#45;&gt;Node4 -->
<g id="edge4_Node000004_Node000005" class="edge">
<title>Node5&#45;&gt;Node4</title>
<g id="a_edge4_Node000004_Node000005"><a xlink:title=" ">
<path fill="none" stroke="#63b8ff" d="M67.81,-179.14C85.69,-169.34 108.73,-156.71 124,-148.35"/>
<polygon fill="#63b8ff" stroke="#63b8ff" points="66.14,-176.06 59.05,-183.94 69.5,-182.2 66.14,-176.06"/>
</a>
</g>
</g>
<!-- Node6 -->
<g id="Node000006" class="node">
<title>Node6</title>
<g id="a_Node000006"><a xlink:href="class_i_status_handler.html" target="_top" xlink:title="Interface for a status handler module.">
<polygon fill="white" stroke="#666666" points="181,-204.25 99.75,-204.25 99.75,-185 181,-185 181,-204.25"/>
<text xml:space="preserve" text-anchor="middle" x="140.38" y="-190.75" font-family="Helvetica,sans-Serif" font-size="10.00">IStatusHandler</text>
</a>
</g>
</g>
<!-- Node6&#45;&gt;Node4 -->
<g id="edge5_Node000004_Node000006" class="edge">
<title>Node6&#45;&gt;Node4</title>
<g id="a_edge5_Node000004_Node000006"><a xlink:title=" ">
<path fill="none" stroke="#63b8ff" d="M140.38,-173.44C140.38,-164.73 140.38,-154.99 140.38,-148.17"/>
<polygon fill="#63b8ff" stroke="#63b8ff" points="136.88,-173.15 140.38,-183.15 143.88,-173.15 136.88,-173.15"/>
</a>
</g>
</g>
<!-- Node7 -->
<g id="Node000007" class="node">
<title>Node7</title>
<g id="a_Node000007"><a xlink:href="class_i_msg_event_receiver.html" target="_top" xlink:title="Interface for Message Event Receivers.">
<polygon fill="white" stroke="#666666" points="301.5,-204.25 199.25,-204.25 199.25,-185 301.5,-185 301.5,-204.25"/>
<text xml:space="preserve" text-anchor="middle" x="250.38" y="-190.75" font-family="Helvetica,sans-Serif" font-size="10.00">IMsgEventReceiver</text>
</a>
</g>
</g>
<!-- Node7&#45;&gt;Node4 -->
<g id="edge6_Node000004_Node000007" class="edge">
<title>Node7&#45;&gt;Node4</title>
<g id="a_edge6_Node000004_Node000007"><a xlink:title=" ">
<path fill="none" stroke="#63b8ff" d="M222.11,-179.69C202.1,-169.82 175.85,-156.87 158.57,-148.35"/>
<polygon fill="#63b8ff" stroke="#63b8ff" points="220.34,-182.71 230.85,-184 223.43,-176.44 220.34,-182.71"/>
</a>
</g>
</g>
<!-- Node8 -->
<g id="Node000008" class="node">
<title>Node8</title>
<g id="a_Node000008"><a xlink:href="struct_m_q_t_t_config.html" target="_top" xlink:title="Runtime configuration for the MQTT broker connection and topics.">
<polygon fill="white" stroke="#666666" points="264.5,-91.75 192.25,-91.75 192.25,-72.5 264.5,-72.5 264.5,-91.75"/>
<text xml:space="preserve" text-anchor="middle" x="228.38" y="-78.25" font-family="Helvetica,sans-Serif" font-size="10.00">MQTTConfig</text>
</a>
</g>
</g>
<!-- Node8&#45;&gt;Node1 -->
<g id="edge7_Node000001_Node000008" class="edge">
<title>Node8&#45;&gt;Node1</title>
<g id="a_edge7_Node000001_Node000008"><a xlink:title=" ">
<path fill="none" stroke="#9a32cd" stroke-dasharray="5,2" d="M222.24,-61.47C217.97,-47.79 212.48,-30.2 209.21,-19.7"/>
<polygon fill="#9a32cd" stroke="#9a32cd" points="218.82,-62.25 225.14,-70.75 225.5,-60.16 218.82,-62.25"/>
</a>
</g>
<text xml:space="preserve" text-anchor="start" x="222.99" y="-43.25" font-family="Helvetica,sans-Serif" font-size="10.00" fill="grey">Config</text>
</g>
<!-- Node9 -->
<g id="Node000009" class="node">
<title>Node9</title>
<g id="a_Node000009"><a xlink:href="struct_m_q_t_t_status.html" target="_top" xlink:title="Runtime status of the MQTT connection.">
<polygon fill="white" stroke="#666666" points="354.5,-91.75 282.25,-91.75 282.25,-72.5 354.5,-72.5 354.5,-91.75"/>
<text xml:space="preserve" text-anchor="middle" x="318.38" y="-78.25" font-family="Helvetica,sans-Serif" font-size="10.00">MQTTStatus</text>
</a>
</g>
</g>
<!-- Node9&#45;&gt;Node1 -->
<g id="edge8_Node000001_Node000009" class="edge">
<title>Node9&#45;&gt;Node1</title>
<g id="a_edge8_Node000001_Node000009"><a xlink:title=" ">
<path fill="none" stroke="#9a32cd" stroke-dasharray="5,2" d="M298.19,-65.13C286.8,-56.42 272.14,-45.73 258.38,-37.25 247.84,-30.76 235.54,-24.41 225.54,-19.54"/>
<polygon fill="#9a32cd" stroke="#9a32cd" points="296.01,-67.86 306.05,-71.23 300.3,-62.33 296.01,-67.86"/>
</a>
</g>
<text xml:space="preserve" text-anchor="start" x="286.74" y="-43.25" font-family="Helvetica,sans-Serif" font-size="10.00" fill="grey">Status</text>
</g>
</g>
</svg>
