<?xml version="1.0" encoding="UTF-8" standalone="no"?>
<!DOCTYPE svg PUBLIC "-//W3C//DTD SVG 1.1//EN"
 "http://www.w3.org/Graphics/SVG/1.1/DTD/svg11.dtd">
<!-- Generated by graphviz version 15.1.0 (20260618.0150)
 -->
<!-- Title: CWebSocket Pages: 1 -->
<svg width="335pt" height="100pt"
 viewBox="0.00 0.00 335.00 100.00" xmlns="http://www.w3.org/2000/svg" xmlns:xlink="http://www.w3.org/1999/xlink">
<g id="graph0" class="graph" transform="scale(1 1) rotate(0) translate(4 95.75)">
<title>CWebSocket</title>
<!-- Node1 -->
<g id="Node000001" class="node">
<title>Node1</title>
<g id="a_Node000001"><a xlink:title="Function pointer to register the routes.">
<polygon fill="#999999" stroke="#666666" points="199.88,-19.25 126.12,-19.25 126.12,0 199.88,0 199.88,-19.25"/>
<text xml:space="preserve" text-anchor="middle" x="163" y="-5.75" font-family="Helvetica,sans-Serif" font-size="10.00">CWebSocket</text>
</a>
</g>
</g>
<!-- Node2 -->
<g id="Node000002" class="node">
<title>Node2</title>
<g id="a_Node000002"><a xlink:href="class_async_web_socket.html" target="_top" xlink:title=" ">
<polygon fill="white" stroke="#666666" points="94,-91.75 0,-91.75 0,-72.5 94,-72.5 94,-91.75"/>
<text xml:space="preserve" text-anchor="middle" x="47" y="-78.25" font-family="Helvetica,sans-Serif" font-size="10.00">AsyncWebSocket</text>
</a>
</g>
</g>
<!-- Node2&#45;&gt;Node1 -->
<g id="edge1_Node000001_Node000002" class="edge">
<title>Node2&#45;&gt;Node1</title>
<g id="a_edge1_Node000001_Node000002"><a xlink:title=" ">
<path fill="none" stroke="#63b8ff" d="M71.48,-66.25C94.65,-52.16 128.69,-31.48 148.06,-19.7"/>
<polygon fill="#63b8ff" stroke="#63b8ff" points="69.71,-63.23 62.98,-71.41 73.35,-69.21 69.71,-63.23"/>
</a>
</g>
</g>
<!-- Node3 -->
<g id="Node000003" class="node">
<title>Node3</title>
<g id="a_Node000003"><a xlink:href="class_i_msg_event_receiver.html" target="_top" xlink:title="Interface for Message Event Receivers.">
<polygon fill="white" stroke="#666666" points="214.12,-91.75 111.88,-91.75 111.88,-72.5 214.12,-72.5 214.12,-91.75"/>
<text xml:space="preserve" text-anchor="middle" x="163" y="-78.25" font-family="Helvetica,sans-Serif" font-size="10.00">IMsgEventReceiver</text>
</a>
</g>
</g>
<!-- Node3&#45;&gt;Node1 -->
<g id="edge2_Node000001_Node000003" class="edge">
<title>Node3&#45;&gt;Node1</title>
<g id="a_edge2_Node000001_Node000003"><a xlink:title=" ">
<path fill="none" stroke="#63b8ff" d="M163,-61.05C163,-47.44 163,-30.1 163,-19.7"/>
<polygon fill="#63b8ff" stroke="#63b8ff" points="159.5,-60.68 163,-70.68 166.5,-60.68 159.5,-60.68"/>
</a>
</g>
</g>
<!-- Node4 -->
<g id="Node000004" class="node">
<title>Node4</title>
<g id="a_Node000004"><a xlink:href="struct_web_socket_status.html" target="_top" xlink:title="Runtime status of the WebSocket module.">
<polygon fill="white" stroke="#666666" points="327.38,-91.75 232.62,-91.75 232.62,-72.5 327.38,-72.5 327.38,-91.75"/>
<text xml:space="preserve" text-anchor="middle" x="280" y="-78.25" font-family="Helvetica,sans-Serif" font-size="10.00">WebSocketStatus</text>
</a>
</g>
</g>
<!-- Node4&#45;&gt;Node1 -->
<g id="edge3_Node000001_Node000004" class="edge">
<title>Node4&#45;&gt;Node1</title>
<g id="a_edge3_Node000001_Node000004"><a xlink:title=" ">
<path fill="none" stroke="#9a32cd" stroke-dasharray="5,2" d="M255.62,-66.44C232.25,-52.35 197.69,-31.53 178.07,-19.7"/>
<polygon fill="#9a32cd" stroke="#9a32cd" points="253.51,-69.25 263.89,-71.41 257.13,-63.26 253.51,-69.25"/>
</a>
</g>
<text xml:space="preserve" text-anchor="start" x="238.42" y="-43.25" font-family="Helvetica,sans-Serif" font-size="10.00" fill="grey">Status</text>
</g>
</g>
</svg>
