<?xml version="1.0" encoding="UTF-8" standalone="no"?>
<!DOCTYPE svg PUBLIC "-//W3C//DTD SVG 1.1//EN"
 "http://www.w3.org/Graphics/SVG/1.1/DTD/svg11.dtd">
<!-- Generated by graphviz version 15.1.0 (20260618.0150)
 -->
<!-- Title: CBatteryMeasure Pages: 1 -->
<svg width="309pt" height="193pt"
 viewBox="0.00 0.00 309.00 193.00" xmlns="http://www.w3.org/2000/svg" xmlns:xlink="http://www.w3.org/1999/xlink">
<g id="graph0" class="graph" transform="scale(1 1) rotate(0) translate(4 189)">
<title>CBatteryMeasure</title>
<!-- Node1 -->
<g id="Node000001" class="node">
<title>Node1</title>
<g id="a_Node000001"><a xlink:title=" ">
<polygon fill="#999999" stroke="#666666" points="185.88,-19.25 93.38,-19.25 93.38,0 185.88,0 185.88,-19.25"/>
<text xml:space="preserve" text-anchor="middle" x="139.62" y="-5.75" font-family="Helvetica,sans-Serif" font-size="10.00">CBatteryMeasure</text>
</a>
</g>
</g>
<!-- Node2 -->
<g id="Node000002" class="node">
<title>Node2</title>
<g id="a_Node000002"><a xlink:href="class_appl_module.html" target="_top" xlink:title="Abstract Basic Module Implementation You have to implement the dispatch method to reflect your module...">
<polygon fill="white" stroke="#666666" points="173.12,-74.5 106.12,-74.5 106.12,-55.25 173.12,-55.25 173.12,-74.5"/>
<text xml:space="preserve" text-anchor="middle" x="139.62" y="-61" font-family="Helvetica,sans-Serif" font-size="10.00">ApplModule</text>
</a>
</g>
</g>
<!-- Node2&#45;&gt;Node1 -->
<g id="edge1_Node000001_Node000002" class="edge">
<title>Node2&#45;&gt;Node1</title>
<g id="a_edge1_Node000001_Node000002"><a xlink:title=" ">
<path fill="none" stroke="#63b8ff" d="M139.62,-43.63C139.62,-35.34 139.62,-26.17 139.62,-19.61"/>
<polygon fill="#63b8ff" stroke="#63b8ff" points="136.13,-43.57 139.63,-53.57 143.13,-43.57 136.13,-43.57"/>
</a>
</g>
</g>
<!-- Node3 -->
<g id="Node000003" class="node">
<title>Node3</title>
<g id="a_Node000003"><a xlink:href="class_i_module.html" target="_top" xlink:title="Full Interface for modules.">
<polygon fill="white" stroke="#666666" points="164.88,-129.75 114.38,-129.75 114.38,-110.5 164.88,-110.5 164.88,-129.75"/>
<text xml:space="preserve" text-anchor="middle" x="139.62" y="-116.25" font-family="Helvetica,sans-Serif" font-size="10.00">IModule</text>
</a>
</g>
</g>
<!-- Node3&#45;&gt;Node2 -->
<g id="edge2_Node000002_Node000003" class="edge">
<title>Node3&#45;&gt;Node2</title>
<g id="a_edge2_Node000002_Node000003"><a xlink:title=" ">
<path fill="none" stroke="#63b8ff" d="M139.62,-98.88C139.62,-90.59 139.62,-81.42 139.62,-74.86"/>
<polygon fill="#63b8ff" stroke="#63b8ff" points="136.13,-98.82 139.63,-108.82 143.13,-98.82 136.13,-98.82"/>
</a>
</g>
</g>
<!-- Node4 -->
<g id="Node000004" class="node">
<title>Node4</title>
<g id="a_Node000004"><a xlink:href="class_i_config_handler.html" target="_top" xlink:title="Interface for configuration handlers.">
<polygon fill="white" stroke="#666666" points="81.25,-185 0,-185 0,-165.75 81.25,-165.75 81.25,-185"/>
<text xml:space="preserve" text-anchor="middle" x="40.62" y="-171.5" font-family="Helvetica,sans-Serif" font-size="10.00">IConfigHandler</text>
</a>
</g>
</g>
<!-- Node4&#45;&gt;Node3 -->
<g id="edge3_Node000003_Node000004" class="edge">
<title>Node4&#45;&gt;Node3</title>
<g id="a_edge3_Node000003_Node000004"><a xlink:title=" ">
<path fill="none" stroke="#63b8ff" d="M67.15,-160.11C84.82,-150.61 107.5,-138.4 122.75,-130.2"/>
<polygon fill="#63b8ff" stroke="#63b8ff" points="65.9,-156.81 58.75,-164.62 69.22,-162.97 65.9,-156.81"/>
</a>
</g>
</g>
<!-- Node5 -->
<g id="Node000005" class="node">
<title>Node5</title>
<g id="a_Node000005"><a xlink:href="class_i_status_handler.html" target="_top" xlink:title="Interface for a status handler module.">
<polygon fill="white" stroke="#666666" points="180.25,-185 99,-185 99,-165.75 180.25,-165.75 180.25,-185"/>
<text xml:space="preserve" text-anchor="middle" x="139.62" y="-171.5" font-family="Helvetica,sans-Serif" font-size="10.00">IStatusHandler</text>
</a>
</g>
</g>
<!-- Node5&#45;&gt;Node3 -->
<g id="edge4_Node000003_Node000005" class="edge">
<title>Node5&#45;&gt;Node3</title>
<g id="a_edge4_Node000003_Node000005"><a xlink:title=" ">
<path fill="none" stroke="#63b8ff" d="M139.62,-154.13C139.62,-145.84 139.62,-136.67 139.62,-130.11"/>
<polygon fill="#63b8ff" stroke="#63b8ff" points="136.13,-154.07 139.63,-164.07 143.13,-154.07 136.13,-154.07"/>
</a>
</g>
</g>
<!-- Node6 -->
<g id="Node000006" class="node">
<title>Node6</title>
<g id="a_Node000006"><a xlink:href="class_i_msg_event_receiver.html" target="_top" xlink:title="Interface for Message Event Receivers.">
<polygon fill="white" stroke="#666666" points="300.75,-185 198.5,-185 198.5,-165.75 300.75,-165.75 300.75,-185"/>
<text xml:space="preserve" text-anchor="middle" x="249.62" y="-171.5" font-family="Helvetica,sans-Serif" font-size="10.00">IMsgEventReceiver</text>
</a>
</g>
</g>
<!-- Node6&#45;&gt;Node3 -->
<g id="edge5_Node000003_Node000006" class="edge">
<title>Node6&#45;&gt;Node3</title>
<g id="a_edge5_Node000003_Node000006"><a xlink:title=" ">
<path fill="none" stroke="#63b8ff" d="M220.7,-160.37C201,-150.83 175.47,-138.48 158.38,-130.2"/>
<polygon fill="#63b8ff" stroke="#63b8ff" points="219.08,-163.48 229.6,-164.68 222.13,-157.17 219.08,-163.48"/>
</a>
</g>
</g>
</g>
</svg>
