<?xml version="1.0" encoding="UTF-8" standalone="no"?>
<!DOCTYPE svg PUBLIC "-//W3C//DTD SVG 1.1//EN"
 "http://www.w3.org/Graphics/SVG/1.1/DTD/svg11.dtd">
<!-- Generated by graphviz version 15.1.0 (20260618.0150)
 -->
<!-- Title: CWiFiController Pages: 1 -->
<svg width="309pt" height="138pt"
 viewBox="0.00 0.00 309.00 138.00" xmlns="http://www.w3.org/2000/svg" xmlns:xlink="http://www.w3.org/1999/xlink">
<g id="graph0" class="graph" transform="scale(1 1) rotate(0) translate(4 133.75)">
<title>CWiFiController</title>
<!-- Node1 -->
<g id="Node000001" class="node">
<title>Node1</title>
<g id="a_Node000001"><a xlink:title="Application module that controls WiFi AP/station mode.">
<polygon fill="#999999" stroke="#666666" points="182.5,-19.25 96.75,-19.25 96.75,0 182.5,0 182.5,-19.25"/>
<text xml:space="preserve" text-anchor="middle" x="139.62" y="-5.75" font-family="Helvetica,sans-Serif" font-size="10.00">CWiFiController</text>
</a>
</g>
</g>
<!-- Node2 -->
<g id="Node000002" class="node">
<title>Node2</title>
<g id="a_Node000002"><a xlink:href="class_i_module.html" target="_top" xlink:title="Full Interface for modules.">
<polygon fill="white" stroke="#666666" points="164.88,-74.5 114.38,-74.5 114.38,-55.25 164.88,-55.25 164.88,-74.5"/>
<text xml:space="preserve" text-anchor="middle" x="139.62" y="-61" font-family="Helvetica,sans-Serif" font-size="10.00">IModule</text>
</a>
</g>
</g>
<!-- Node2&#45;&gt;Node1 -->
<g id="edge1_Node000001_Node000002" class="edge">
<title>Node2&#45;&gt;Node1</title>
<g id="a_edge1_Node000001_Node000002"><a xlink:title=" ">
<path fill="none" stroke="#63b8ff" d="M139.62,-43.63C139.62,-35.34 139.62,-26.17 139.62,-19.61"/>
<polygon fill="#63b8ff" stroke="#63b8ff" points="136.13,-43.57 139.63,-53.57 143.13,-43.57 136.13,-43.57"/>
</a>
</g>
</g>
<!-- Node3 -->
<g id="Node000003" class="node">
<title>Node3</title>
<g id="a_Node000003"><a xlink:href="class_i_config_handler.html" target="_top" xlink:title="Interface for configuration handlers.">
<polygon fill="white" stroke="#666666" points="81.25,-129.75 0,-129.75 0,-110.5 81.25,-110.5 81.25,-129.75"/>
<text xml:space="preserve" text-anchor="middle" x="40.62" y="-116.25" font-family="Helvetica,sans-Serif" font-size="10.00">IConfigHandler</text>
</a>
</g>
</g>
<!-- Node3&#45;&gt;Node2 -->
<g id="edge2_Node000002_Node000003" class="edge">
<title>Node3&#45;&gt;Node2</title>
<g id="a_edge2_Node000002_Node000003"><a xlink:title=" ">
<path fill="none" stroke="#63b8ff" d="M67.15,-104.86C84.82,-95.36 107.5,-83.15 122.75,-74.95"/>
<polygon fill="#63b8ff" stroke="#63b8ff" points="65.9,-101.56 58.75,-109.37 69.22,-107.72 65.9,-101.56"/>
</a>
</g>
</g>
<!-- Node4 -->
<g id="Node000004" class="node">
<title>Node4</title>
<g id="a_Node000004"><a xlink:href="class_i_status_handler.html" target="_top" xlink:title="Interface for a status handler module.">
<polygon fill="white" stroke="#666666" points="180.25,-129.75 99,-129.75 99,-110.5 180.25,-110.5 180.25,-129.75"/>
<text xml:space="preserve" text-anchor="middle" x="139.62" y="-116.25" font-family="Helvetica,sans-Serif" font-size="10.00">IStatusHandler</text>
</a>
</g>
</g>
<!-- Node4&#45;&gt;Node2 -->
<g id="edge3_Node000002_Node000004" class="edge">
<title>Node4&#45;&gt;Node2</title>
<g id="a_edge3_Node000002_Node000004"><a xlink:title=" ">
<path fill="none" stroke="#63b8ff" d="M139.62,-98.88C139.62,-90.59 139.62,-81.42 139.62,-74.86"/>
<polygon fill="#63b8ff" stroke="#63b8ff" points="136.13,-98.82 139.63,-108.82 143.13,-98.82 136.13,-98.82"/>
</a>
</g>
</g>
<!-- Node5 -->
<g id="Node000005" class="node">
<title>Node5</title>
<g id="a_Node000005"><a xlink:href="class_i_msg_event_receiver.html" target="_top" xlink:title="Interface for Message Event Receivers.">
<polygon fill="white" stroke="#666666" points="300.75,-129.75 198.5,-129.75 198.5,-110.5 300.75,-110.5 300.75,-129.75"/>
<text xml:space="preserve" text-anchor="middle" x="249.62" y="-116.25" font-family="Helvetica,sans-Serif" font-size="10.00">IMsgEventReceiver</text>
</a>
</g>
</g>
<!-- Node5&#45;&gt;Node2 -->
<g id="edge4_Node000002_Node000005" class="edge">
<title>Node5&#45;&gt;Node2</title>
<g id="a_edge4_Node000002_Node000005"><a xlink:title=" ">
<path fill="none" stroke="#63b8ff" d="M220.7,-105.12C201,-95.58 175.47,-83.23 158.38,-74.95"/>
<polygon fill="#63b8ff" stroke="#63b8ff" points="219.08,-108.23 229.6,-109.43 222.13,-101.92 219.08,-108.23"/>
</a>
</g>
</g>
</g>
</svg>
