<?xml version="1.0" encoding="UTF-8" standalone="no"?>
<!DOCTYPE svg PUBLIC "-//W3C//DTD SVG 1.1//EN"
 "http://www.w3.org/Graphics/SVG/1.1/DTD/svg11.dtd">
<!-- Generated by graphviz version 15.1.0 (20260618.0150)
 -->
<!-- Title: IConfigHandler Pages: 1 -->
<svg width="448pt" height="193pt"
 viewBox="0.00 0.00 448.00 193.00" xmlns="http://www.w3.org/2000/svg" xmlns:xlink="http://www.w3.org/1999/xlink">
<g id="graph0" class="graph" transform="scale(1 1) rotate(0) translate(4 189)">
<title>IConfigHandler</title>
<!-- Node1 -->
<g id="Node000001" class="node">
<title>Node1</title>
<g id="a_Node000001"><a xlink:title="Interface for configuration handlers.">
<polygon fill="#999999" stroke="#666666" points="174.5,-185 93.25,-185 93.25,-165.75 174.5,-165.75 174.5,-185"/>
<text xml:space="preserve" text-anchor="middle" x="133.88" y="-171.5" font-family="Helvetica,sans-Serif" font-size="10.00">IConfigHandler</text>
</a>
</g>
</g>
<!-- Node2 -->
<g id="Node000002" class="node">
<title>Node2</title>
<g id="a_Node000002"><a xlink:href="class_c_config_handler.html" target="_top" xlink:title="Configuration handler manager.">
<polygon fill="white" stroke="#666666" points="85.75,-129.75 0,-129.75 0,-110.5 85.75,-110.5 85.75,-129.75"/>
<text xml:space="preserve" text-anchor="middle" x="42.88" y="-116.25" font-family="Helvetica,sans-Serif" font-size="10.00">CConfigHandler</text>
</a>
</g>
</g>
<!-- Node1&#45;&gt;Node2 -->
<g id="edge1_Node000001_Node000002" class="edge">
<title>Node1&#45;&gt;Node2</title>
<g id="a_edge1_Node000001_Node000002"><a xlink:title=" ">
<path fill="none" stroke="#63b8ff" d="M108.58,-159.57C92.48,-150.15 72.14,-138.25 58.39,-130.2"/>
<polygon fill="#63b8ff" stroke="#63b8ff" points="106.73,-162.55 117.13,-164.58 110.27,-156.51 106.73,-162.55"/>
</a>
</g>
</g>
<!-- Node4 -->
<g id="Node000004" class="node">
<title>Node4</title>
<g id="a_Node000004"><a xlink:href="class_c_var_table.html" target="_top" xlink:title="Collection of named variables exposed through IConfigHandler.">
<polygon fill="white" stroke="#666666" points="164.38,-129.75 103.38,-129.75 103.38,-110.5 164.38,-110.5 164.38,-129.75"/>
<text xml:space="preserve" text-anchor="middle" x="133.88" y="-116.25" font-family="Helvetica,sans-Serif" font-size="10.00">CVarTable</text>
</a>
</g>
</g>
<!-- Node1&#45;&gt;Node4 -->
<g id="edge3_Node000001_Node000004" class="edge">
<title>Node1&#45;&gt;Node4</title>
<g id="a_edge3_Node000001_Node000004"><a xlink:title=" ">
<path fill="none" stroke="#63b8ff" d="M133.88,-154.13C133.88,-145.84 133.88,-136.67 133.88,-130.11"/>
<polygon fill="#63b8ff" stroke="#63b8ff" points="130.38,-154.07 133.88,-164.07 137.38,-154.07 130.38,-154.07"/>
</a>
</g>
</g>
<!-- Node5 -->
<g id="Node000005" class="node">
<title>Node5</title>
<g id="a_Node000005"><a xlink:href="class_i_module.html" target="_top" xlink:title="Full Interface for modules.">
<polygon fill="white" stroke="#666666" points="233.12,-129.75 182.62,-129.75 182.62,-110.5 233.12,-110.5 233.12,-129.75"/>
<text xml:space="preserve" text-anchor="middle" x="207.88" y="-116.25" font-family="Helvetica,sans-Serif" font-size="10.00">IModule</text>
</a>
</g>
</g>
<!-- Node1&#45;&gt;Node5 -->
<g id="edge4_Node000001_Node000005" class="edge">
<title>Node1&#45;&gt;Node5</title>
<g id="a_edge4_Node000001_Node000005"><a xlink:title=" ">
<path fill="none" stroke="#63b8ff" d="M155.63,-158.72C168.63,-149.37 184.66,-137.83 195.51,-130.02"/>
<polygon fill="#63b8ff" stroke="#63b8ff" points="153.73,-155.78 147.66,-164.46 157.82,-161.46 153.73,-155.78"/>
</a>
</g>
</g>
<!-- Node3 -->
<g id="Node000003" class="node">
<title>Node3</title>
<g id="a_Node000003"><a xlink:href="class_c_appl.html" target="_top" xlink:title="Central application hub for modules, configuration, status and events.">
<polygon fill="white" stroke="#666666" points="64.38,-74.5 21.38,-74.5 21.38,-55.25 64.38,-55.25 64.38,-74.5"/>
<text xml:space="preserve" text-anchor="middle" x="42.88" y="-61" font-family="Helvetica,sans-Serif" font-size="10.00">CAppl</text>
</a>
</g>
</g>
<!-- Node2&#45;&gt;Node3 -->
<g id="edge2_Node000002_Node000003" class="edge">
<title>Node2&#45;&gt;Node3</title>
<g id="a_edge2_Node000002_Node000003"><a xlink:title=" ">
<path fill="none" stroke="#63b8ff" d="M42.88,-98.88C42.88,-90.59 42.88,-81.42 42.88,-74.86"/>
<polygon fill="#63b8ff" stroke="#63b8ff" points="39.38,-98.82 42.88,-108.82 46.38,-98.82 39.38,-98.82"/>
</a>
</g>
</g>
<!-- Node6 -->
<g id="Node000006" class="node">
<title>Node6</title>
<g id="a_Node000006"><a xlink:href="class_appl_module.html" target="_top" xlink:title="Abstract Basic Module Implementation You have to implement the dispatch method to reflect your module...">
<polygon fill="white" stroke="#666666" points="150.38,-74.5 83.38,-74.5 83.38,-55.25 150.38,-55.25 150.38,-74.5"/>
<text xml:space="preserve" text-anchor="middle" x="116.88" y="-61" font-family="Helvetica,sans-Serif" font-size="10.00">ApplModule</text>
</a>
</g>
</g>
<!-- Node5&#45;&gt;Node6 -->
<g id="edge5_Node000005_Node000006" class="edge">
<title>Node5&#45;&gt;Node6</title>
<g id="a_edge5_Node000005_Node000006"><a xlink:title=" ">
<path fill="none" stroke="#63b8ff" d="M182.58,-104.32C166.48,-94.9 146.14,-83 132.39,-74.95"/>
<polygon fill="#63b8ff" stroke="#63b8ff" points="180.73,-107.3 191.13,-109.33 184.27,-101.26 180.73,-107.3"/>
</a>
</g>
</g>
<!-- Node9 -->
<g id="Node000009" class="node">
<title>Node9</title>
<g id="a_Node000009"><a xlink:href="class_c_n_t_p_handler.html" target="_top" xlink:title="The NTP Handler class as a module.">
<polygon fill="white" stroke="#666666" points="245.62,-74.5 168.12,-74.5 168.12,-55.25 245.62,-55.25 245.62,-74.5"/>
<text xml:space="preserve" text-anchor="middle" x="206.88" y="-61" font-family="Helvetica,sans-Serif" font-size="10.00">CNTPHandler</text>
</a>
</g>
</g>
<!-- Node5&#45;&gt;Node9 -->
<g id="edge8_Node000005_Node000009" class="edge">
<title>Node5&#45;&gt;Node9</title>
<g id="a_edge8_Node000005_Node000009"><a xlink:title=" ">
<path fill="none" stroke="#63b8ff" d="M207.49,-98.88C207.34,-90.59 207.17,-81.42 207.04,-74.86"/>
<polygon fill="#63b8ff" stroke="#63b8ff" points="203.99,-98.89 207.68,-108.82 210.99,-98.75 203.99,-98.89"/>
</a>
</g>
</g>
<!-- Node10 -->
<g id="Node000010" class="node">
<title>Node10</title>
<g id="a_Node000010"><a xlink:href="class_c_web_server.html" target="_top" xlink:title="Async web server module that registers default routes and file access.">
<polygon fill="white" stroke="#666666" points="335.62,-74.5 264.12,-74.5 264.12,-55.25 335.62,-55.25 335.62,-74.5"/>
<text xml:space="preserve" text-anchor="middle" x="299.88" y="-61" font-family="Helvetica,sans-Serif" font-size="10.00">CWebServer</text>
</a>
</g>
</g>
<!-- Node5&#45;&gt;Node10 -->
<g id="edge9_Node000005_Node000010" class="edge">
<title>Node5&#45;&gt;Node10</title>
<g id="a_edge9_Node000005_Node000010"><a xlink:title=" ">
<path fill="none" stroke="#63b8ff" d="M232.98,-104.59C249.33,-95.13 270.16,-83.08 284.19,-74.95"/>
<polygon fill="#63b8ff" stroke="#63b8ff" points="231.69,-101.29 224.79,-109.33 235.2,-107.35 231.69,-101.29"/>
</a>
</g>
</g>
<!-- Node11 -->
<g id="Node000011" class="node">
<title>Node11</title>
<g id="a_Node000011"><a xlink:href="class_c_wi_fi_controller.html" target="_top" xlink:title="Application module that controls WiFi AP/station mode.">
<polygon fill="white" stroke="#666666" points="439.75,-74.5 354,-74.5 354,-55.25 439.75,-55.25 439.75,-74.5"/>
<text xml:space="preserve" text-anchor="middle" x="396.88" y="-61" font-family="Helvetica,sans-Serif" font-size="10.00">CWiFiController</text>
</a>
</g>
</g>
<!-- Node5&#45;&gt;Node11 -->
<g id="edge10_Node000005_Node000011" class="edge">
<title>Node5&#45;&gt;Node11</title>
<g id="a_edge10_Node000005_Node000011"><a xlink:title=" ">
<path fill="none" stroke="#63b8ff" d="M244.01,-108.94C278.84,-99.13 331.04,-84.42 364.53,-74.99"/>
<polygon fill="#63b8ff" stroke="#63b8ff" points="243.5,-105.45 234.82,-111.53 245.4,-112.19 243.5,-105.45"/>
</a>
</g>
</g>
<!-- Node7 -->
<g id="Node000007" class="node">
<title>Node7</title>
<g id="a_Node000007"><a xlink:href="class_c_battery_measure.html" target="_top" xlink:title=" ">
<polygon fill="white" stroke="#666666" points="107.12,-19.25 14.62,-19.25 14.62,0 107.12,0 107.12,-19.25"/>
<text xml:space="preserve" text-anchor="middle" x="60.88" y="-5.75" font-family="Helvetica,sans-Serif" font-size="10.00">CBatteryMeasure</text>
</a>
</g>
</g>
<!-- Node6&#45;&gt;Node7 -->
<g id="edge6_Node000006_Node000007" class="edge">
<title>Node6&#45;&gt;Node7</title>
<g id="a_edge6_Node000006_Node000007"><a xlink:title=" ">
<path fill="none" stroke="#63b8ff" d="M99.24,-47.11C89.63,-37.97 78.12,-27.03 70.23,-19.52"/>
<polygon fill="#63b8ff" stroke="#63b8ff" points="96.62,-49.44 106.28,-53.8 101.44,-44.37 96.62,-49.44"/>
</a>
</g>
</g>
<!-- Node8 -->
<g id="Node000008" class="node">
<title>Node8</title>
<g id="a_Node000008"><a xlink:href="class_c_m_q_t_t_controller.html" target="_top" xlink:title="MQTT message broker module with heartbeat and HA discovery support.">
<polygon fill="white" stroke="#666666" points="218.5,-19.25 125.25,-19.25 125.25,0 218.5,0 218.5,-19.25"/>
<text xml:space="preserve" text-anchor="middle" x="171.88" y="-5.75" font-family="Helvetica,sans-Serif" font-size="10.00">CMQTTController</text>
</a>
</g>
</g>
<!-- Node6&#45;&gt;Node8 -->
<g id="edge7_Node000006_Node000008" class="edge">
<title>Node6&#45;&gt;Node8</title>
<g id="a_edge7_Node000006_Node000008"><a xlink:title=" ">
<path fill="none" stroke="#63b8ff" d="M134.23,-47.07C143.62,-37.98 154.86,-27.1 162.6,-19.61"/>
<polygon fill="#63b8ff" stroke="#63b8ff" points="131.79,-44.56 127.04,-54.03 136.66,-49.59 131.79,-44.56"/>
</a>
</g>
</g>
</g>
</svg>
