<?xml version="1.0" encoding="UTF-8" standalone="no"?>
<!DOCTYPE svg PUBLIC "-//W3C//DTD SVG 1.1//EN"
 "http://www.w3.org/Graphics/SVG/1.1/DTD/svg11.dtd">
<!-- Generated by graphviz version 15.1.0 (20260618.0150)
 -->
<!-- Title: IStatusHandler Pages: 1 -->
<svg width="506pt" height="193pt"
 viewBox="0.00 0.00 506.00 193.00" xmlns="http://www.w3.org/2000/svg" xmlns:xlink="http://www.w3.org/1999/xlink">
<g id="graph0" class="graph" transform="scale(1 1) rotate(0) translate(4 189)">
<title>IStatusHandler</title>
<!-- Node1 -->
<g id="Node000001" class="node">
<title>Node1</title>
<g id="a_Node000001"><a xlink:title="Interface for a status handler module.">
<polygon fill="#999999" stroke="#666666" points="185.75,-185 104.5,-185 104.5,-165.75 185.75,-165.75 185.75,-185"/>
<text xml:space="preserve" text-anchor="middle" x="145.12" y="-171.5" font-family="Helvetica,sans-Serif" font-size="10.00">IStatusHandler</text>
</a>
</g>
</g>
<!-- Node2 -->
<g id="Node000002" class="node">
<title>Node2</title>
<g id="a_Node000002"><a xlink:href="class_c_f_s.html" target="_top" xlink:title="Filesystem facade used by modules to avoid direct LittleFS/SPIFFS use.">
<polygon fill="white" stroke="#666666" points="36.25,-129.75 0,-129.75 0,-110.5 36.25,-110.5 36.25,-129.75"/>
<text xml:space="preserve" text-anchor="middle" x="18.12" y="-116.25" font-family="Helvetica,sans-Serif" font-size="10.00">CFS</text>
</a>
</g>
</g>
<!-- Node1&#45;&gt;Node2 -->
<g id="edge1_Node000001_Node000002" class="edge">
<title>Node1&#45;&gt;Node2</title>
<g id="a_edge1_Node000001_Node000002"><a xlink:title=" ">
<path fill="none" stroke="#63b8ff" d="M113.1,-160.95C88.88,-150.79 56.48,-137.21 36.47,-128.82"/>
<polygon fill="#63b8ff" stroke="#63b8ff" points="111.61,-164.12 122.19,-164.76 114.32,-157.66 111.61,-164.12"/>
</a>
</g>
</g>
<!-- Node3 -->
<g id="Node000003" class="node">
<title>Node3</title>
<g id="a_Node000003"><a xlink:href="class_c_status_handler.html" target="_top" xlink:title="Status handler class.">
<polygon fill="white" stroke="#666666" points="140,-129.75 54.25,-129.75 54.25,-110.5 140,-110.5 140,-129.75"/>
<text xml:space="preserve" text-anchor="middle" x="97.12" y="-116.25" font-family="Helvetica,sans-Serif" font-size="10.00">CStatusHandler</text>
</a>
</g>
</g>
<!-- Node1&#45;&gt;Node3 -->
<g id="edge2_Node000001_Node000003" class="edge">
<title>Node1&#45;&gt;Node3</title>
<g id="a_edge2_Node000001_Node000003"><a xlink:title=" ">
<path fill="none" stroke="#63b8ff" d="M129.73,-157.29C121.58,-148.25 111.91,-137.52 105.22,-130.11"/>
<polygon fill="#63b8ff" stroke="#63b8ff" points="126.89,-159.37 136.19,-164.46 132.09,-154.69 126.89,-159.37"/>
</a>
</g>
</g>
<!-- Node5 -->
<g id="Node000005" class="node">
<title>Node5</title>
<g id="a_Node000005"><a xlink:href="class_c_sys_status.html" target="_top" xlink:title="SysStatus.h.">
<polygon fill="white" stroke="#666666" points="227.75,-129.75 158.5,-129.75 158.5,-110.5 227.75,-110.5 227.75,-129.75"/>
<text xml:space="preserve" text-anchor="middle" x="193.12" y="-116.25" font-family="Helvetica,sans-Serif" font-size="10.00">CSysStatus</text>
</a>
</g>
</g>
<!-- Node1&#45;&gt;Node5 -->
<g id="edge4_Node000001_Node000005" class="edge">
<title>Node1&#45;&gt;Node5</title>
<g id="a_edge4_Node000001_Node000005"><a xlink:title=" ">
<path fill="none" stroke="#63b8ff" d="M160.52,-157.29C168.67,-148.25 178.34,-137.52 185.03,-130.11"/>
<polygon fill="#63b8ff" stroke="#63b8ff" points="158.16,-154.69 154.06,-164.46 163.36,-159.37 158.16,-154.69"/>
</a>
</g>
</g>
<!-- Node6 -->
<g id="Node000006" class="node">
<title>Node6</title>
<g id="a_Node000006"><a xlink:href="class_i_module.html" target="_top" xlink:title="Full Interface for modules.">
<polygon fill="white" stroke="#666666" points="296.38,-129.75 245.88,-129.75 245.88,-110.5 296.38,-110.5 296.38,-129.75"/>
<text xml:space="preserve" text-anchor="middle" x="271.12" y="-116.25" font-family="Helvetica,sans-Serif" font-size="10.00">IModule</text>
</a>
</g>
</g>
<!-- Node1&#45;&gt;Node6 -->
<g id="edge5_Node000001_Node000006" class="edge">
<title>Node1&#45;&gt;Node6</title>
<g id="a_edge5_Node000001_Node000006"><a xlink:title=" ">
<path fill="none" stroke="#63b8ff" d="M177.01,-160.9C199.74,-151.29 229.7,-138.63 249.65,-130.2"/>
<polygon fill="#63b8ff" stroke="#63b8ff" points="175.74,-157.64 167.89,-164.75 178.47,-164.08 175.74,-157.64"/>
</a>
</g>
</g>
<!-- Node4 -->
<g id="Node000004" class="node">
<title>Node4</title>
<g id="a_Node000004"><a xlink:href="class_c_appl.html" target="_top" xlink:title="Central application hub for modules, configuration, status and events.">
<polygon fill="white" stroke="#666666" points="118.62,-74.5 75.62,-74.5 75.62,-55.25 118.62,-55.25 118.62,-74.5"/>
<text xml:space="preserve" text-anchor="middle" x="97.12" y="-61" font-family="Helvetica,sans-Serif" font-size="10.00">CAppl</text>
</a>
</g>
</g>
<!-- Node3&#45;&gt;Node4 -->
<g id="edge3_Node000003_Node000004" class="edge">
<title>Node3&#45;&gt;Node4</title>
<g id="a_edge3_Node000003_Node000004"><a xlink:title=" ">
<path fill="none" stroke="#63b8ff" d="M97.12,-98.88C97.12,-90.59 97.12,-81.42 97.12,-74.86"/>
<polygon fill="#63b8ff" stroke="#63b8ff" points="93.63,-98.82 97.13,-108.82 100.63,-98.82 93.63,-98.82"/>
</a>
</g>
</g>
<!-- Node7 -->
<g id="Node000007" class="node">
<title>Node7</title>
<g id="a_Node000007"><a xlink:href="class_appl_module.html" target="_top" xlink:title="Abstract Basic Module Implementation You have to implement the dispatch method to reflect your module...">
<polygon fill="white" stroke="#666666" points="208.62,-74.5 141.62,-74.5 141.62,-55.25 208.62,-55.25 208.62,-74.5"/>
<text xml:space="preserve" text-anchor="middle" x="175.12" y="-61" font-family="Helvetica,sans-Serif" font-size="10.00">ApplModule</text>
</a>
</g>
</g>
<!-- Node6&#45;&gt;Node7 -->
<g id="edge6_Node000006_Node000007" class="edge">
<title>Node6&#45;&gt;Node7</title>
<g id="a_edge6_Node000006_Node000007"><a xlink:title=" ">
<path fill="none" stroke="#63b8ff" d="M244.92,-104.59C227.86,-95.13 206.13,-83.08 191.49,-74.95"/>
<polygon fill="#63b8ff" stroke="#63b8ff" points="243.07,-107.57 253.52,-109.36 246.47,-101.45 243.07,-107.57"/>
</a>
</g>
</g>
<!-- Node10 -->
<g id="Node000010" class="node">
<title>Node10</title>
<g id="a_Node000010"><a xlink:href="class_c_n_t_p_handler.html" target="_top" xlink:title="The NTP Handler class as a module.">
<polygon fill="white" stroke="#666666" points="303.88,-74.5 226.38,-74.5 226.38,-55.25 303.88,-55.25 303.88,-74.5"/>
<text xml:space="preserve" text-anchor="middle" x="265.12" y="-61" font-family="Helvetica,sans-Serif" font-size="10.00">CNTPHandler</text>
</a>
</g>
</g>
<!-- Node6&#45;&gt;Node10 -->
<g id="edge9_Node000006_Node000010" class="edge">
<title>Node6&#45;&gt;Node10</title>
<g id="a_edge9_Node000006_Node000010"><a xlink:title=" ">
<path fill="none" stroke="#63b8ff" d="M268.88,-99.17C267.93,-90.8 266.89,-81.5 266.14,-74.86"/>
<polygon fill="#63b8ff" stroke="#63b8ff" points="265.37,-99.28 269.96,-108.83 272.32,-98.5 265.37,-99.28"/>
</a>
</g>
</g>
<!-- Node11 -->
<g id="Node000011" class="node">
<title>Node11</title>
<g id="a_Node000011"><a xlink:href="class_c_web_server.html" target="_top" xlink:title="Async web server module that registers default routes and file access.">
<polygon fill="white" stroke="#666666" points="393.88,-74.5 322.38,-74.5 322.38,-55.25 393.88,-55.25 393.88,-74.5"/>
<text xml:space="preserve" text-anchor="middle" x="358.12" y="-61" font-family="Helvetica,sans-Serif" font-size="10.00">CWebServer</text>
</a>
</g>
</g>
<!-- Node6&#45;&gt;Node11 -->
<g id="edge10_Node000006_Node000011" class="edge">
<title>Node6&#45;&gt;Node11</title>
<g id="a_edge10_Node000006_Node000011"><a xlink:title=" ">
<path fill="none" stroke="#63b8ff" d="M295.31,-104.32C310.7,-94.9 330.15,-83 343.29,-74.95"/>
<polygon fill="#63b8ff" stroke="#63b8ff" points="293.88,-101.1 287.17,-109.3 297.53,-107.07 293.88,-101.1"/>
</a>
</g>
</g>
<!-- Node12 -->
<g id="Node000012" class="node">
<title>Node12</title>
<g id="a_Node000012"><a xlink:href="class_c_wi_fi_controller.html" target="_top" xlink:title="Application module that controls WiFi AP/station mode.">
<polygon fill="white" stroke="#666666" points="498,-74.5 412.25,-74.5 412.25,-55.25 498,-55.25 498,-74.5"/>
<text xml:space="preserve" text-anchor="middle" x="455.12" y="-61" font-family="Helvetica,sans-Serif" font-size="10.00">CWiFiController</text>
</a>
</g>
</g>
<!-- Node6&#45;&gt;Node12 -->
<g id="edge11_Node000006_Node000012" class="edge">
<title>Node6&#45;&gt;Node12</title>
<g id="a_edge11_Node000006_Node000012"><a xlink:title=" ">
<path fill="none" stroke="#63b8ff" d="M307.53,-108.59C341.41,-98.78 391.39,-84.32 423.6,-75"/>
<polygon fill="#63b8ff" stroke="#63b8ff" points="306.8,-105.16 298.16,-111.3 308.74,-111.88 306.8,-105.16"/>
</a>
</g>
</g>
<!-- Node8 -->
<g id="Node000008" class="node">
<title>Node8</title>
<g id="a_Node000008"><a xlink:href="class_c_battery_measure.html" target="_top" xlink:title=" ">
<polygon fill="white" stroke="#666666" points="165.38,-19.25 72.88,-19.25 72.88,0 165.38,0 165.38,-19.25"/>
<text xml:space="preserve" text-anchor="middle" x="119.12" y="-5.75" font-family="Helvetica,sans-Serif" font-size="10.00">CBatteryMeasure</text>
</a>
</g>
</g>
<!-- Node7&#45;&gt;Node8 -->
<g id="edge7_Node000007_Node000008" class="edge">
<title>Node7&#45;&gt;Node8</title>
<g id="a_edge7_Node000007_Node000008"><a xlink:title=" ">
<path fill="none" stroke="#63b8ff" d="M157.49,-47.11C147.88,-37.97 136.37,-27.03 128.48,-19.52"/>
<polygon fill="#63b8ff" stroke="#63b8ff" points="154.87,-49.44 164.53,-53.8 159.69,-44.37 154.87,-49.44"/>
</a>
</g>
</g>
<!-- Node9 -->
<g id="Node000009" class="node">
<title>Node9</title>
<g id="a_Node000009"><a xlink:href="class_c_m_q_t_t_controller.html" target="_top" xlink:title="MQTT message broker module with heartbeat and HA discovery support.">
<polygon fill="white" stroke="#666666" points="276.75,-19.25 183.5,-19.25 183.5,0 276.75,0 276.75,-19.25"/>
<text xml:space="preserve" text-anchor="middle" x="230.12" y="-5.75" font-family="Helvetica,sans-Serif" font-size="10.00">CMQTTController</text>
</a>
</g>
</g>
<!-- Node7&#45;&gt;Node9 -->
<g id="edge8_Node000007_Node000009" class="edge">
<title>Node7&#45;&gt;Node9</title>
<g id="a_edge8_Node000007_Node000009"><a xlink:title=" ">
<path fill="none" stroke="#63b8ff" d="M192.48,-47.07C201.87,-37.98 213.11,-27.1 220.85,-19.61"/>
<polygon fill="#63b8ff" stroke="#63b8ff" points="190.04,-44.56 185.29,-54.03 194.91,-49.59 190.04,-44.56"/>
</a>
</g>
</g>
</g>
</svg>
