<?xml version="1.0" encoding="UTF-8" standalone="no"?>
<!DOCTYPE svg PUBLIC "-//W3C//DTD SVG 1.1//EN"
 "http://www.w3.org/Graphics/SVG/1.1/DTD/svg11.dtd">
<!-- Generated by graphviz version 15.1.0 (20260618.0150)
 -->
<!-- Title: CLightSwitch Pages: 1 -->
<svg width="117pt" height="138pt"
 viewBox="0.00 0.00 117.00 138.00" xmlns="http://www.w3.org/2000/svg" xmlns:xlink="http://www.w3.org/1999/xlink">
<g id="graph0" class="graph" transform="scale(1 1) rotate(0) translate(4 133.75)">
<title>CLightSwitch</title>
<!-- Node1 -->
<g id="Node000001" class="node">
<title>Node1</title>
<g id="a_Node000001"><a xlink:title=" ">
<polygon fill="#999999" stroke="#666666" points="91.75,-19.25 17.25,-19.25 17.25,0 91.75,0 91.75,-19.25"/>
<text xml:space="preserve" text-anchor="middle" x="54.5" y="-5.75" font-family="Helvetica,sans-Serif" font-size="10.00">CLightSwitch</text>
</a>
</g>
</g>
<!-- Node2 -->
<g id="Node000002" class="node">
<title>Node2</title>
<g id="a_Node000002"><a xlink:href="class_c_output_pin_controller.html" target="_top" xlink:title="Base class to controll a pin as in or output with helper functions.">
<polygon fill="white" stroke="#666666" points="109,-74.5 0,-74.5 0,-55.25 109,-55.25 109,-74.5"/>
<text xml:space="preserve" text-anchor="middle" x="54.5" y="-61" font-family="Helvetica,sans-Serif" font-size="10.00">COutputPinController</text>
</a>
</g>
</g>
<!-- Node2&#45;&gt;Node1 -->
<g id="edge1_Node000001_Node000002" class="edge">
<title>Node2&#45;&gt;Node1</title>
<g id="a_edge1_Node000001_Node000002"><a xlink:title=" ">
<path fill="none" stroke="#63b8ff" d="M54.5,-43.63C54.5,-35.34 54.5,-26.17 54.5,-19.61"/>
<polygon fill="#63b8ff" stroke="#63b8ff" points="51,-43.57 54.5,-53.57 58,-43.57 51,-43.57"/>
</a>
</g>
</g>
<!-- Node3 -->
<g id="Node000003" class="node">
<title>Node3</title>
<g id="a_Node000003"><a xlink:href="class_c_pin_controller.html" target="_top" xlink:title="PinController.h.">
<polygon fill="white" stroke="#666666" points="94.38,-129.75 14.62,-129.75 14.62,-110.5 94.38,-110.5 94.38,-129.75"/>
<text xml:space="preserve" text-anchor="middle" x="54.5" y="-116.25" font-family="Helvetica,sans-Serif" font-size="10.00">CPinController</text>
</a>
</g>
</g>
<!-- Node3&#45;&gt;Node2 -->
<g id="edge2_Node000002_Node000003" class="edge">
<title>Node3&#45;&gt;Node2</title>
<g id="a_edge2_Node000002_Node000003"><a xlink:title=" ">
<path fill="none" stroke="#63b8ff" d="M54.5,-98.88C54.5,-90.59 54.5,-81.42 54.5,-74.86"/>
<polygon fill="#63b8ff" stroke="#63b8ff" points="51,-98.82 54.5,-108.82 58,-98.82 51,-98.82"/>
</a>
</g>
</g>
</g>
</svg>
