<?xml version="1.0" encoding="UTF-8" standalone="no"?>
<!DOCTYPE svg PUBLIC "-//W3C//DTD SVG 1.1//EN"
 "http://www.w3.org/Graphics/SVG/1.1/DTD/svg11.dtd">
<!-- Generated by graphviz version 15.1.0 (20260618.0150)
 -->
<!-- Title: CAppl Pages: 1 -->
<svg width="318pt" height="138pt"
 viewBox="0.00 0.00 318.00 138.00" xmlns="http://www.w3.org/2000/svg" xmlns:xlink="http://www.w3.org/1999/xlink">
<g id="graph0" class="graph" transform="scale(1 1) rotate(0) translate(4 133.75)">
<title>CAppl</title>
<!-- Node1 -->
<g id="Node000001" class="node">
<title>Node1</title>
<g id="a_Node000001"><a xlink:title="Central application hub for modules, configuration, status and events.">
<polygon fill="#999999" stroke="#666666" points="168.38,-19.25 125.38,-19.25 125.38,0 168.38,0 168.38,-19.25"/>
<text xml:space="preserve" text-anchor="middle" x="146.88" y="-5.75" font-family="Helvetica,sans-Serif" font-size="10.00">CAppl</text>
</a>
</g>
</g>
<!-- Node2 -->
<g id="Node000002" class="node">
<title>Node2</title>
<g id="a_Node000002"><a xlink:href="class_c_config_handler.html" target="_top" xlink:title="Configuration handler manager.">
<polygon fill="white" stroke="#666666" points="85.75,-74.5 0,-74.5 0,-55.25 85.75,-55.25 85.75,-74.5"/>
<text xml:space="preserve" text-anchor="middle" x="42.88" y="-61" font-family="Helvetica,sans-Serif" font-size="10.00">CConfigHandler</text>
</a>
</g>
</g>
<!-- Node2&#45;&gt;Node1 -->
<g id="edge1_Node000001_Node000002" class="edge">
<title>Node2&#45;&gt;Node1</title>
<g id="a_edge1_Node000001_Node000002"><a xlink:title=" ">
<path fill="none" stroke="#63b8ff" d="M70.74,-49.61C89.3,-40.11 113.13,-27.9 129.15,-19.7"/>
<polygon fill="#63b8ff" stroke="#63b8ff" points="69.17,-46.48 61.86,-54.15 72.36,-52.71 69.17,-46.48"/>
</a>
</g>
</g>
<!-- Node3 -->
<g id="Node000003" class="node">
<title>Node3</title>
<g id="a_Node000003"><a xlink:href="class_i_config_handler.html" target="_top" xlink:title="Interface for configuration handlers.">
<polygon fill="white" stroke="#666666" points="83.5,-129.75 2.25,-129.75 2.25,-110.5 83.5,-110.5 83.5,-129.75"/>
<text xml:space="preserve" text-anchor="middle" x="42.88" y="-116.25" font-family="Helvetica,sans-Serif" font-size="10.00">IConfigHandler</text>
</a>
</g>
</g>
<!-- Node3&#45;&gt;Node2 -->
<g id="edge2_Node000002_Node000003" class="edge">
<title>Node3&#45;&gt;Node2</title>
<g id="a_edge2_Node000002_Node000003"><a xlink:title=" ">
<path fill="none" stroke="#63b8ff" d="M42.88,-98.88C42.88,-90.59 42.88,-81.42 42.88,-74.86"/>
<polygon fill="#63b8ff" stroke="#63b8ff" points="39.38,-98.82 42.88,-108.82 46.38,-98.82 39.38,-98.82"/>
</a>
</g>
</g>
<!-- Node4 -->
<g id="Node000004" class="node">
<title>Node4</title>
<g id="a_Node000004"><a xlink:href="class_c_status_handler.html" target="_top" xlink:title="Status handler class.">
<polygon fill="white" stroke="#666666" points="189.75,-74.5 104,-74.5 104,-55.25 189.75,-55.25 189.75,-74.5"/>
<text xml:space="preserve" text-anchor="middle" x="146.88" y="-61" font-family="Helvetica,sans-Serif" font-size="10.00">CStatusHandler</text>
</a>
</g>
</g>
<!-- Node4&#45;&gt;Node1 -->
<g id="edge3_Node000001_Node000004" class="edge">
<title>Node4&#45;&gt;Node1</title>
<g id="a_edge3_Node000001_Node000004"><a xlink:title=" ">
<path fill="none" stroke="#63b8ff" d="M146.88,-43.63C146.88,-35.34 146.88,-26.17 146.88,-19.61"/>
<polygon fill="#63b8ff" stroke="#63b8ff" points="143.38,-43.57 146.88,-53.57 150.38,-43.57 143.38,-43.57"/>
</a>
</g>
</g>
<!-- Node5 -->
<g id="Node000005" class="node">
<title>Node5</title>
<g id="a_Node000005"><a xlink:href="class_i_status_handler.html" target="_top" xlink:title="Interface for a status handler module.">
<polygon fill="white" stroke="#666666" points="187.5,-129.75 106.25,-129.75 106.25,-110.5 187.5,-110.5 187.5,-129.75"/>
<text xml:space="preserve" text-anchor="middle" x="146.88" y="-116.25" font-family="Helvetica,sans-Serif" font-size="10.00">IStatusHandler</text>
</a>
</g>
</g>
<!-- Node5&#45;&gt;Node4 -->
<g id="edge4_Node000004_Node000005" class="edge">
<title>Node5&#45;&gt;Node4</title>
<g id="a_edge4_Node000004_Node000005"><a xlink:title=" ">
<path fill="none" stroke="#63b8ff" d="M146.88,-98.88C146.88,-90.59 146.88,-81.42 146.88,-74.86"/>
<polygon fill="#63b8ff" stroke="#63b8ff" points="143.38,-98.82 146.88,-108.82 150.38,-98.82 143.38,-98.82"/>
</a>
</g>
</g>
<!-- Node6 -->
<g id="Node000006" class="node">
<title>Node6</title>
<g id="a_Node000006"><a xlink:href="class_i_msg_event_receiver.html" target="_top" xlink:title="Interface for Message Event Receivers.">
<polygon fill="white" stroke="#666666" points="310,-74.5 207.75,-74.5 207.75,-55.25 310,-55.25 310,-74.5"/>
<text xml:space="preserve" text-anchor="middle" x="258.88" y="-61" font-family="Helvetica,sans-Serif" font-size="10.00">IMsgEventReceiver</text>
</a>
</g>
</g>
<!-- Node6&#45;&gt;Node1 -->
<g id="edge5_Node000001_Node000006" class="edge">
<title>Node6&#45;&gt;Node1</title>
<g id="a_edge5_Node000001_Node000006"><a xlink:title=" ">
<path fill="none" stroke="#8b1a1a" d="M229.71,-50.01C209.6,-40.45 183.46,-28.02 165.97,-19.7"/>
<polygon fill="#8b1a1a" stroke="#8b1a1a" points="227.97,-53.06 238.51,-54.19 230.98,-46.74 227.97,-53.06"/>
</a>
</g>
</g>
</g>
</svg>
