<?xml version="1.0" encoding="UTF-8" standalone="no"?>
<!DOCTYPE svg PUBLIC "-//W3C//DTD SVG 1.1//EN"
 "http://www.w3.org/Graphics/SVG/1.1/DTD/svg11.dtd">
<!-- Generated by graphviz version 15.1.0 (20260618.0150)
 -->
<!-- Title: CMQTTController Pages: 1 -->
<svg width="310pt" height="193pt"
 viewBox="0.00 0.00 310.00 193.00" xmlns="http://www.w3.org/2000/svg" xmlns:xlink="http://www.w3.org/1999/xlink">
<g id="graph0" class="graph" transform="scale(1 1) rotate(0) translate(4 189)">
<title>CMQTTController</title>
<!-- Node1 -->
<g id="Node000001" class="node">
<title>Node1</title>
<g id="a_Node000001"><a xlink:title="MQTT message broker module with heartbeat and HA discovery support.">
<polygon fill="#999999" stroke="#666666" points="139,-19.25 45.75,-19.25 45.75,0 139,0 139,-19.25"/>
<text xml:space="preserve" text-anchor="middle" x="92.38" y="-5.75" font-family="Helvetica,sans-Serif" font-size="10.00">CMQTTController</text>
</a>
</g>
</g>
<!-- Node2 -->
<g id="Node000002" class="node">
<title>Node2</title>
<g id="a_Node000002"><a xlink:href="class_async_mqtt_client.html" target="_top" xlink:title=" ">
<polygon fill="white" stroke="#666666" points="88.75,-74.5 0,-74.5 0,-55.25 88.75,-55.25 88.75,-74.5"/>
<text xml:space="preserve" text-anchor="middle" x="44.38" y="-61" font-family="Helvetica,sans-Serif" font-size="10.00">AsyncMqttClient</text>
</a>
</g>
</g>
<!-- Node2&#45;&gt;Node1 -->
<g id="edge1_Node000001_Node000002" class="edge">
<title>Node2&#45;&gt;Node1</title>
<g id="a_edge1_Node000001_Node000002"><a xlink:title=" ">
<path fill="none" stroke="#63b8ff" d="M59.77,-46.79C67.92,-37.75 77.59,-27.02 84.28,-19.61"/>
<polygon fill="#63b8ff" stroke="#63b8ff" points="57.41,-44.19 53.31,-53.96 62.61,-48.87 57.41,-44.19"/>
</a>
</g>
</g>
<!-- Node3 -->
<g id="Node000003" class="node">
<title>Node3</title>
<g id="a_Node000003"><a xlink:href="class_appl_module.html" target="_top" xlink:title="Abstract Basic Module Implementation You have to implement the dispatch method to reflect your module...">
<polygon fill="white" stroke="#666666" points="173.88,-74.5 106.88,-74.5 106.88,-55.25 173.88,-55.25 173.88,-74.5"/>
<text xml:space="preserve" text-anchor="middle" x="140.38" y="-61" font-family="Helvetica,sans-Serif" font-size="10.00">ApplModule</text>
</a>
</g>
</g>
<!-- Node3&#45;&gt;Node1 -->
<g id="edge2_Node000001_Node000003" class="edge">
<title>Node3&#45;&gt;Node1</title>
<g id="a_edge2_Node000001_Node000003"><a xlink:title=" ">
<path fill="none" stroke="#63b8ff" d="M124.98,-46.79C116.83,-37.75 107.16,-27.02 100.47,-19.61"/>
<polygon fill="#63b8ff" stroke="#63b8ff" points="122.14,-48.87 131.44,-53.96 127.34,-44.19 122.14,-48.87"/>
</a>
</g>
</g>
<!-- Node4 -->
<g id="Node000004" class="node">
<title>Node4</title>
<g id="a_Node000004"><a xlink:href="class_i_module.html" target="_top" xlink:title="Full Interface for modules.">
<polygon fill="white" stroke="#666666" points="165.62,-129.75 115.12,-129.75 115.12,-110.5 165.62,-110.5 165.62,-129.75"/>
<text xml:space="preserve" text-anchor="middle" x="140.38" y="-116.25" font-family="Helvetica,sans-Serif" font-size="10.00">IModule</text>
</a>
</g>
</g>
<!-- Node4&#45;&gt;Node3 -->
<g id="edge3_Node000003_Node000004" class="edge">
<title>Node4&#45;&gt;Node3</title>
<g id="a_edge3_Node000003_Node000004"><a xlink:title=" ">
<path fill="none" stroke="#63b8ff" d="M140.38,-98.88C140.38,-90.59 140.38,-81.42 140.38,-74.86"/>
<polygon fill="#63b8ff" stroke="#63b8ff" points="136.88,-98.82 140.38,-108.82 143.88,-98.82 136.88,-98.82"/>
</a>
</g>
</g>
<!-- Node5 -->
<g id="Node000005" class="node">
<title>Node5</title>
<g id="a_Node000005"><a xlink:href="class_i_config_handler.html" target="_top" xlink:title="Interface for configuration handlers.">
<polygon fill="white" stroke="#666666" points="82,-185 0.75,-185 0.75,-165.75 82,-165.75 82,-185"/>
<text xml:space="preserve" text-anchor="middle" x="41.38" y="-171.5" font-family="Helvetica,sans-Serif" font-size="10.00">IConfigHandler</text>
</a>
</g>
</g>
<!-- Node5&#45;&gt;Node4 -->
<g id="edge4_Node000004_Node000005" class="edge">
<title>Node5&#45;&gt;Node4</title>
<g id="a_edge4_Node000004_Node000005"><a xlink:title=" ">
<path fill="none" stroke="#63b8ff" d="M67.9,-160.11C85.57,-150.61 108.25,-138.4 123.5,-130.2"/>
<polygon fill="#63b8ff" stroke="#63b8ff" points="66.65,-156.81 59.5,-164.62 69.97,-162.97 66.65,-156.81"/>
</a>
</g>
</g>
<!-- Node6 -->
<g id="Node000006" class="node">
<title>Node6</title>
<g id="a_Node000006"><a xlink:href="class_i_status_handler.html" target="_top" xlink:title="Interface for a status handler module.">
<polygon fill="white" stroke="#666666" points="181,-185 99.75,-185 99.75,-165.75 181,-165.75 181,-185"/>
<text xml:space="preserve" text-anchor="middle" x="140.38" y="-171.5" font-family="Helvetica,sans-Serif" font-size="10.00">IStatusHandler</text>
</a>
</g>
</g>
<!-- Node6&#45;&gt;Node4 -->
<g id="edge5_Node000004_Node000006" class="edge">
<title>Node6&#45;&gt;Node4</title>
<g id="a_edge5_Node000004_Node000006"><a xlink:title=" ">
<path fill="none" stroke="#63b8ff" d="M140.38,-154.13C140.38,-145.84 140.38,-136.67 140.38,-130.11"/>
<polygon fill="#63b8ff" stroke="#63b8ff" points="136.88,-154.07 140.38,-164.07 143.88,-154.07 136.88,-154.07"/>
</a>
</g>
</g>
<!-- Node7 -->
<g id="Node000007" class="node">
<title>Node7</title>
<g id="a_Node000007"><a xlink:href="class_i_msg_event_receiver.html" target="_top" xlink:title="Interface for Message Event Receivers.">
<polygon fill="white" stroke="#666666" points="301.5,-185 199.25,-185 199.25,-165.75 301.5,-165.75 301.5,-185"/>
<text xml:space="preserve" text-anchor="middle" x="250.38" y="-171.5" font-family="Helvetica,sans-Serif" font-size="10.00">IMsgEventReceiver</text>
</a>
</g>
</g>
<!-- Node7&#45;&gt;Node4 -->
<g id="edge6_Node000004_Node000007" class="edge">
<title>Node7&#45;&gt;Node4</title>
<g id="a_edge6_Node000004_Node000007"><a xlink:title=" ">
<path fill="none" stroke="#63b8ff" d="M221.45,-160.37C201.75,-150.83 176.22,-138.48 159.13,-130.2"/>
<polygon fill="#63b8ff" stroke="#63b8ff" points="219.83,-163.48 230.35,-164.68 222.88,-157.17 219.83,-163.48"/>
</a>
</g>
</g>
</g>
</svg>
