<?xml version="1.0" encoding="UTF-8" standalone="no"?>
<!DOCTYPE svg PUBLIC "-//W3C//DTD SVG 1.1//EN"
 "http://www.w3.org/Graphics/SVG/1.1/DTD/svg11.dtd">
<!-- Generated by graphviz version 15.1.0 (20260618.0150)
 -->
<!-- Title: Graphical Class Hierarchy Pages: 1 -->
<svg width="343pt" height="88pt"
 viewBox="0.00 0.00 343.00 88.00" xmlns="http://www.w3.org/2000/svg" xmlns:xlink="http://www.w3.org/1999/xlink">
<g id="graph0" class="graph" transform="scale(1 1) rotate(0) translate(4 83.5)">
<title>Graphical Class Hierarchy</title>
<!-- Node0 -->
<g id="Node000000" class="node">
<title>Node0</title>
<g id="a_Node000000"><a xlink:href="class_c_named_value_table.html" target="_top" xlink:title="Lightweight ordered table for named values.">
<polygon fill="white" stroke="#666666" points="150.25,-48.88 0,-48.88 0,-29.62 150.25,-29.62 150.25,-48.88"/>
<text xml:space="preserve" text-anchor="middle" x="75.12" y="-35.38" font-family="Helvetica,sans-Serif" font-size="10.00">CNamedValueTable&lt; TValue &gt;</text>
</a>
</g>
</g>
<!-- Node1 -->
<g id="Node000001" class="node">
<title>Node1</title>
<g id="a_Node000001"><a xlink:href="class_c_multi_name_unique_value_table.html" target="_top" xlink:title="Named&#45;value table that allows many names but only unique values.">
<polygon fill="white" stroke="#666666" points="335,-79.5 186.25,-79.5 186.25,-49 335,-49 335,-79.5"/>
<text xml:space="preserve" text-anchor="start" x="194.25" y="-66" font-family="Helvetica,sans-Serif" font-size="10.00">CMultiNameUniqueValueTable</text>
<text xml:space="preserve" text-anchor="middle" x="260.62" y="-54.75" font-family="Helvetica,sans-Serif" font-size="10.00">&lt; TValue &gt;</text>
</a>
</g>
</g>
<!-- Node0&#45;&gt;Node1 -->
<g id="edge29_Node000000_Node000001" class="edge">
<title>Node0&#45;&gt;Node1</title>
<g id="a_edge29_Node000000_Node000001"><a xlink:title=" ">
<path fill="none" stroke="#63b8ff" d="M161.61,-50.9C169.7,-52 177.86,-53.11 185.84,-54.2"/>
<polygon fill="#63b8ff" stroke="#63b8ff" points="162.11,-47.43 151.73,-49.55 161.17,-54.37 162.11,-47.43"/>
</a>
</g>
</g>
<!-- Node2 -->
<g id="Node000002" class="node">
<title>Node2</title>
<g id="a_Node000002"><a xlink:href="class_c_unique_name_multi_value_table.html" target="_top" xlink:title="Named&#45;value table that allows unique names and repeated values.">
<polygon fill="white" stroke="#666666" points="335,-30.5 186.25,-30.5 186.25,0 335,0 335,-30.5"/>
<text xml:space="preserve" text-anchor="start" x="194.25" y="-17" font-family="Helvetica,sans-Serif" font-size="10.00">CUniqueNameMultiValueTable</text>
<text xml:space="preserve" text-anchor="middle" x="260.62" y="-5.75" font-family="Helvetica,sans-Serif" font-size="10.00">&lt; TValue &gt;</text>
</a>
</g>
</g>
<!-- Node0&#45;&gt;Node2 -->
<g id="edge30_Node000000_Node000002" class="edge">
<title>Node0&#45;&gt;Node2</title>
<g id="a_edge30_Node000000_Node000002"><a xlink:title=" ">
<path fill="none" stroke="#63b8ff" d="M161.86,-28.04C169.94,-26.98 178.08,-25.91 186.04,-24.87"/>
<polygon fill="#63b8ff" stroke="#63b8ff" points="161.46,-24.56 152,-29.33 162.37,-31.5 161.46,-24.56"/>
</a>
</g>
</g>
</g>
</svg>
