<?xml version="1.0" encoding="UTF-8" standalone="no"?>
<!DOCTYPE svg PUBLIC "-//W3C//DTD SVG 1.1//EN"
 "http://www.w3.org/Graphics/SVG/1.1/DTD/svg11.dtd">
<!-- Generated by graphviz version 15.1.0 (20260618.0150)
 -->
<!-- Title: Graphical Class Hierarchy Pages: 1 -->
<svg width="503pt" height="436pt"
 viewBox="0.00 0.00 503.00 436.00" xmlns="http://www.w3.org/2000/svg" xmlns:xlink="http://www.w3.org/1999/xlink">
<g id="graph0" class="graph" transform="scale(1 1) rotate(0) translate(4 432.25)">
<title>Graphical Class Hierarchy</title>
<!-- Node0 -->
<g id="Node000000" class="node">
<title>Node0</title>
<g id="a_Node000000"><a xlink:href="class_async_mqtt_client.html" target="_top" xlink:title=" ">
<polygon fill="white" stroke="#666666" points="362.25,-222.25 273.5,-222.25 273.5,-203 362.25,-203 362.25,-222.25"/>
<text xml:space="preserve" text-anchor="middle" x="317.88" y="-208.75" font-family="Helvetica,sans-Serif" font-size="10.00">AsyncMqttClient</text>
</a>
</g>
</g>
<!-- Node1 -->
<g id="Node000001" class="node">
<title>Node1</title>
<g id="a_Node000001"><a xlink:href="class_c_m_q_t_t_controller.html" target="_top" xlink:title="MQTT message broker module with heartbeat and HA discovery support.">
<polygon fill="white" stroke="#666666" points="495.25,-167.25 402,-167.25 402,-148 495.25,-148 495.25,-167.25"/>
<text xml:space="preserve" text-anchor="middle" x="448.62" y="-153.75" font-family="Helvetica,sans-Serif" font-size="10.00">CMQTTController</text>
</a>
</g>
</g>
<!-- Node0&#45;&gt;Node1 -->
<g id="edge1_Node000000_Node000001" class="edge">
<title>Node0&#45;&gt;Node1</title>
<g id="a_edge1_Node000000_Node000001"><a xlink:title=" ">
<path fill="none" stroke="#63b8ff" d="M356.32,-198.56C359.6,-197.26 362.87,-195.93 366,-194.62 386.68,-186 409.92,-175.37 426.3,-167.72"/>
<polygon fill="#63b8ff" stroke="#63b8ff" points="355.36,-195.18 347.31,-202.07 357.9,-201.7 355.36,-195.18"/>
</a>
</g>
</g>
<!-- Node7 -->
<g id="Node000007" class="node">
<title>Node7</title>
<g id="a_Node000007"><a xlink:title=" ">
<polygon fill="#e0e0e0" stroke="#999999" points="231.88,-354.25 140.12,-354.25 140.12,-335 231.88,-335 231.88,-354.25"/>
<text xml:space="preserve" text-anchor="middle" x="186" y="-340.75" font-family="Helvetica,sans-Serif" font-size="10.00">AsyncWebServer</text>
</a>
</g>
</g>
<!-- Node6 -->
<g id="Node000006" class="node">
<title>Node6</title>
<g id="a_Node000006"><a xlink:href="class_c_web_server.html" target="_top" xlink:title="Async web server module that registers default routes and file access.">
<polygon fill="white" stroke="#666666" points="353.62,-298.25 282.12,-298.25 282.12,-279 353.62,-279 353.62,-298.25"/>
<text xml:space="preserve" text-anchor="middle" x="317.88" y="-284.75" font-family="Helvetica,sans-Serif" font-size="10.00">CWebServer</text>
</a>
</g>
</g>
<!-- Node7&#45;&gt;Node6 -->
<g id="edge2_Node000007_Node000006" class="edge">
<title>Node7&#45;&gt;Node6</title>
<g id="a_edge2_Node000007_Node000006"><a xlink:title=" ">
<path fill="none" stroke="#63b8ff" d="M220.5,-330.18C243.36,-320.32 273.06,-307.52 293.42,-298.74"/>
<polygon fill="#63b8ff" stroke="#63b8ff" points="219.41,-326.84 211.61,-334.01 222.18,-333.27 219.41,-326.84"/>
</a>
</g>
</g>
<!-- Node20 -->
<g id="Node000020" class="node">
<title>Node20</title>
<g id="a_Node000020"><a xlink:href="class_async_web_socket.html" target="_top" xlink:title=" ">
<polygon fill="white" stroke="#666666" points="98.12,-428.25 4.12,-428.25 4.12,-409 98.12,-409 98.12,-428.25"/>
<text xml:space="preserve" text-anchor="middle" x="51.12" y="-414.75" font-family="Helvetica,sans-Serif" font-size="10.00">AsyncWebSocket</text>
</a>
</g>
</g>
<!-- Node19 -->
<g id="Node000019" class="node">
<title>Node19</title>
<g id="a_Node000019"><a xlink:href="class_c_web_socket.html" target="_top" xlink:title="Function pointer to register the routes.">
<polygon fill="white" stroke="#666666" points="222.88,-428.25 149.12,-428.25 149.12,-409 222.88,-409 222.88,-428.25"/>
<text xml:space="preserve" text-anchor="middle" x="186" y="-414.75" font-family="Helvetica,sans-Serif" font-size="10.00">CWebSocket</text>
</a>
</g>
</g>
<!-- Node20&#45;&gt;Node19 -->
<g id="edge3_Node000020_Node000019" class="edge">
<title>Node20&#45;&gt;Node19</title>
<g id="a_edge3_Node000020_Node000019"><a xlink:title=" ">
<path fill="none" stroke="#63b8ff" d="M110.01,-418.62C123.2,-418.62 136.84,-418.62 148.81,-418.62"/>
<polygon fill="#63b8ff" stroke="#63b8ff" points="110.11,-415.13 100.11,-418.63 110.11,-422.13 110.11,-415.13"/>
</a>
</g>
</g>
<!-- Node18 -->
<g id="Node000018" class="node">
<title>Node18</title>
<g id="a_Node000018"><a xlink:href="class_c_r_g_b_led.html" target="_top" xlink:title="Class to handle the RGB LED Initialize the RGB LED with the pins for the colors and with the Informat...">
<polygon fill="white" stroke="#666666" points="81.62,-241.25 20.63,-241.25 20.63,-222 81.62,-222 81.62,-241.25"/>
<text xml:space="preserve" text-anchor="middle" x="51.12" y="-227.75" font-family="Helvetica,sans-Serif" font-size="10.00">CRGBLed</text>
</a>
</g>
</g>
<!-- Node17 -->
<g id="Node000017" class="node">
<title>Node17</title>
<g id="a_Node000017"><a xlink:href="class_c_sys_status_led.html" target="_top" xlink:title=" ">
<polygon fill="white" stroke="#666666" points="228.5,-241.25 143.5,-241.25 143.5,-222 228.5,-222 228.5,-241.25"/>
<text xml:space="preserve" text-anchor="middle" x="186" y="-227.75" font-family="Helvetica,sans-Serif" font-size="10.00">CSysStatusLed</text>
</a>
</g>
</g>
<!-- Node18&#45;&gt;Node17 -->
<g id="edge4_Node000018_Node000017" class="edge">
<title>Node18&#45;&gt;Node17</title>
<g id="a_edge4_Node000018_Node000017"><a xlink:title=" ">
<path fill="none" stroke="#63b8ff" d="M93.06,-231.62C108.98,-231.62 127.19,-231.62 143.19,-231.62"/>
<polygon fill="#63b8ff" stroke="#63b8ff" points="93.46,-228.13 83.46,-231.63 93.46,-235.13 93.46,-228.13"/>
</a>
</g>
</g>
<!-- Node9 -->
<g id="Node000009" class="node">
<title>Node9</title>
<g id="a_Node000009"><a xlink:href="class_i_config_handler.html" target="_top" xlink:title="Interface for configuration handlers.">
<polygon fill="white" stroke="#666666" points="91.75,-167.25 10.5,-167.25 10.5,-148 91.75,-148 91.75,-167.25"/>
<text xml:space="preserve" text-anchor="middle" x="51.12" y="-153.75" font-family="Helvetica,sans-Serif" font-size="10.00">IConfigHandler</text>
</a>
</g>
</g>
<!-- Node10 -->
<g id="Node000010" class="node">
<title>Node10</title>
<g id="a_Node000010"><a xlink:href="class_c_config_handler.html" target="_top" xlink:title="Configuration handler manager.">
<polygon fill="white" stroke="#666666" points="228.88,-167.25 143.12,-167.25 143.12,-148 228.88,-148 228.88,-167.25"/>
<text xml:space="preserve" text-anchor="middle" x="186" y="-153.75" font-family="Helvetica,sans-Serif" font-size="10.00">CConfigHandler</text>
</a>
</g>
</g>
<!-- Node9&#45;&gt;Node10 -->
<g id="edge5_Node000009_Node000010" class="edge">
<title>Node9&#45;&gt;Node10</title>
<g id="a_edge5_Node000009_Node000010"><a xlink:title=" ">
<path fill="none" stroke="#63b8ff" d="M103.23,-157.62C116.33,-157.62 130.26,-157.62 142.85,-157.62"/>
<polygon fill="#63b8ff" stroke="#63b8ff" points="103.51,-154.13 93.51,-157.63 103.51,-161.13 103.51,-154.13"/>
</a>
</g>
</g>
<!-- Node25 -->
<g id="Node000025" class="node">
<title>Node25</title>
<g id="a_Node000025"><a xlink:href="class_c_var_table.html" target="_top" xlink:title="Collection of named variables exposed through IConfigHandler.">
<polygon fill="white" stroke="#666666" points="216.5,-204.25 155.5,-204.25 155.5,-185 216.5,-185 216.5,-204.25"/>
<text xml:space="preserve" text-anchor="middle" x="186" y="-190.75" font-family="Helvetica,sans-Serif" font-size="10.00">CVarTable</text>
</a>
</g>
</g>
<!-- Node9&#45;&gt;Node25 -->
<g id="edge7_Node000009_Node000025" class="edge">
<title>Node9&#45;&gt;Node25</title>
<g id="a_edge7_Node000009_Node000025"><a xlink:title=" ">
<path fill="none" stroke="#63b8ff" d="M99.34,-170.77C117.88,-175.93 138.6,-181.7 155.01,-186.28"/>
<polygon fill="#63b8ff" stroke="#63b8ff" points="100.46,-167.45 89.89,-168.14 98.59,-174.2 100.46,-167.45"/>
</a>
</g>
</g>
<!-- Node4 -->
<g id="Node000004" class="node">
<title>Node4</title>
<g id="a_Node000004"><a xlink:href="class_i_module.html" target="_top" xlink:title="Full Interface for modules.">
<polygon fill="white" stroke="#666666" points="211.25,-130.25 160.75,-130.25 160.75,-111 211.25,-111 211.25,-130.25"/>
<text xml:space="preserve" text-anchor="middle" x="186" y="-116.75" font-family="Helvetica,sans-Serif" font-size="10.00">IModule</text>
</a>
</g>
</g>
<!-- Node9&#45;&gt;Node4 -->
<g id="edge8_Node000009_Node000004" class="edge">
<title>Node9&#45;&gt;Node4</title>
<g id="a_edge8_Node000009_Node000004"><a xlink:title=" ">
<path fill="none" stroke="#63b8ff" d="M99.27,-144.5C119.95,-138.74 143.37,-132.22 160.49,-127.45"/>
<polygon fill="#63b8ff" stroke="#63b8ff" points="98.59,-141.05 89.89,-147.11 100.46,-147.8 98.59,-141.05"/>
</a>
</g>
</g>
<!-- Node11 -->
<g id="Node000011" class="node">
<title>Node11</title>
<g id="a_Node000011"><a xlink:href="class_c_appl.html" target="_top" xlink:title="Central application hub for modules, configuration, status and events.">
<polygon fill="white" stroke="#666666" points="339.38,-185.25 296.38,-185.25 296.38,-166 339.38,-166 339.38,-185.25"/>
<text xml:space="preserve" text-anchor="middle" x="317.88" y="-171.75" font-family="Helvetica,sans-Serif" font-size="10.00">CAppl</text>
</a>
</g>
</g>
<!-- Node10&#45;&gt;Node11 -->
<g id="edge6_Node000010_Node000011" class="edge">
<title>Node10&#45;&gt;Node11</title>
<g id="a_edge6_Node000010_Node000011"><a xlink:title=" ">
<path fill="none" stroke="#63b8ff" d="M240.45,-165.03C260,-167.74 280.98,-170.65 296,-172.73"/>
<polygon fill="#63b8ff" stroke="#63b8ff" points="241.05,-161.58 230.67,-163.68 240.09,-168.52 241.05,-161.58"/>
</a>
</g>
</g>
<!-- Node4&#45;&gt;Node6 -->
<g id="edge13_Node000004_Node000006" class="edge">
<title>Node4&#45;&gt;Node6</title>
<g id="a_edge13_Node000004_Node000006"><a xlink:title=" ">
<path fill="none" stroke="#63b8ff" d="M221.91,-130.22C226.26,-132.47 230.36,-135.24 233.75,-138.62 265.12,-169.94 247.34,-193.39 269.75,-231.62 280.4,-249.79 296.74,-268.08 307.12,-278.87"/>
<polygon fill="#63b8ff" stroke="#63b8ff" points="223.52,-127.1 212.94,-126.44 220.8,-133.55 223.52,-127.1"/>
</a>
</g>
</g>
<!-- Node2 -->
<g id="Node000002" class="node">
<title>Node2</title>
<g id="a_Node000002"><a xlink:href="class_appl_module.html" target="_top" xlink:title="Abstract Basic Module Implementation You have to implement the dispatch method to reflect your module...">
<polygon fill="white" stroke="#666666" points="351.38,-74.25 284.38,-74.25 284.38,-55 351.38,-55 351.38,-74.25"/>
<text xml:space="preserve" text-anchor="middle" x="317.88" y="-60.75" font-family="Helvetica,sans-Serif" font-size="10.00">ApplModule</text>
</a>
</g>
</g>
<!-- Node4&#45;&gt;Node2 -->
<g id="edge9_Node000004_Node000002" class="edge">
<title>Node4&#45;&gt;Node2</title>
<g id="a_edge9_Node000004_Node000002"><a xlink:title=" ">
<path fill="none" stroke="#63b8ff" d="M221.99,-107.77C225.99,-106.12 229.98,-104.39 233.75,-102.62 250.33,-94.87 253.16,-90.35 269.75,-82.62 275.78,-79.81 282.39,-77.09 288.69,-74.64"/>
<polygon fill="#63b8ff" stroke="#63b8ff" points="220.95,-104.42 212.94,-111.36 223.53,-110.93 220.95,-104.42"/>
</a>
</g>
</g>
<!-- Node5 -->
<g id="Node000005" class="node">
<title>Node5</title>
<g id="a_Node000005"><a xlink:href="class_c_n_t_p_handler.html" target="_top" xlink:title="The NTP Handler class as a module.">
<polygon fill="white" stroke="#666666" points="356.62,-148.25 279.12,-148.25 279.12,-129 356.62,-129 356.62,-148.25"/>
<text xml:space="preserve" text-anchor="middle" x="317.88" y="-134.75" font-family="Helvetica,sans-Serif" font-size="10.00">CNTPHandler</text>
</a>
</g>
</g>
<!-- Node4&#45;&gt;Node5 -->
<g id="edge12_Node000004_Node000005" class="edge">
<title>Node4&#45;&gt;Node5</title>
<g id="a_edge12_Node000004_Node000005"><a xlink:title=" ">
<path fill="none" stroke="#63b8ff" d="M223.08,-125.63C240.39,-128.02 261.12,-130.9 278.69,-133.33"/>
<polygon fill="#63b8ff" stroke="#63b8ff" points="223.62,-122.17 213.23,-124.26 222.66,-129.1 223.62,-122.17"/>
</a>
</g>
</g>
<!-- Node8 -->
<g id="Node000008" class="node">
<title>Node8</title>
<g id="a_Node000008"><a xlink:href="class_c_wi_fi_controller.html" target="_top" xlink:title="Application module that controls WiFi AP/station mode.">
<polygon fill="white" stroke="#666666" points="360.75,-111.25 275,-111.25 275,-92 360.75,-92 360.75,-111.25"/>
<text xml:space="preserve" text-anchor="middle" x="317.88" y="-97.75" font-family="Helvetica,sans-Serif" font-size="10.00">CWiFiController</text>
</a>
</g>
</g>
<!-- Node4&#45;&gt;Node8 -->
<g id="edge14_Node000004_Node000008" class="edge">
<title>Node4&#45;&gt;Node8</title>
<g id="a_edge14_Node000004_Node000008"><a xlink:title=" ">
<path fill="none" stroke="#63b8ff" d="M222.81,-115.39C238.84,-113.04 257.87,-110.26 274.6,-107.81"/>
<polygon fill="#63b8ff" stroke="#63b8ff" points="222.62,-111.88 213.23,-116.79 223.63,-118.8 222.62,-111.88"/>
</a>
</g>
</g>
<!-- Node2&#45;&gt;Node1 -->
<g id="edge11_Node000002_Node000001" class="edge">
<title>Node2&#45;&gt;Node1</title>
<g id="a_edge11_Node000002_Node000001"><a xlink:title=" ">
<path fill="none" stroke="#63b8ff" d="M360.25,-79.36C362.23,-80.4 364.16,-81.48 366,-82.62 396.11,-101.25 425.11,-131.85 439.03,-147.58"/>
<polygon fill="#63b8ff" stroke="#63b8ff" points="362.01,-76.32 351.47,-75.27 359.05,-82.66 362.01,-76.32"/>
</a>
</g>
</g>
<!-- Node3 -->
<g id="Node000003" class="node">
<title>Node3</title>
<g id="a_Node000003"><a xlink:href="class_c_battery_measure.html" target="_top" xlink:title=" ">
<polygon fill="white" stroke="#666666" points="494.88,-74.25 402.38,-74.25 402.38,-55 494.88,-55 494.88,-74.25"/>
<text xml:space="preserve" text-anchor="middle" x="448.62" y="-60.75" font-family="Helvetica,sans-Serif" font-size="10.00">CBatteryMeasure</text>
</a>
</g>
</g>
<!-- Node2&#45;&gt;Node3 -->
<g id="edge10_Node000002_Node000003" class="edge">
<title>Node2&#45;&gt;Node3</title>
<g id="a_edge10_Node000002_Node000003"><a xlink:title=" ">
<path fill="none" stroke="#63b8ff" d="M362.95,-64.62C375.63,-64.62 389.48,-64.62 402.23,-64.62"/>
<polygon fill="#63b8ff" stroke="#63b8ff" points="363.21,-61.13 353.21,-64.63 363.21,-68.13 363.21,-61.13"/>
</a>
</g>
</g>
<!-- Node12 -->
<g id="Node000012" class="node">
<title>Node12</title>
<g id="a_Node000012"><a xlink:href="class_i_msg_event_receiver.html" target="_top" xlink:title="Interface for Message Event Receivers.">
<polygon fill="white" stroke="#666666" points="102.25,-297.25 0,-297.25 0,-278 102.25,-278 102.25,-297.25"/>
<text xml:space="preserve" text-anchor="middle" x="51.12" y="-283.75" font-family="Helvetica,sans-Serif" font-size="10.00">IMsgEventReceiver</text>
</a>
</g>
</g>
<!-- Node12&#45;&gt;Node19 -->
<g id="edge21_Node000012_Node000019" class="edge">
<title>Node12&#45;&gt;Node19</title>
<g id="a_edge21_Node000012_Node000019"><a xlink:title=" ">
<path fill="none" stroke="#63b8ff" d="M62.56,-307.33C76.67,-332.25 104.04,-374.97 138.25,-400.62 142.42,-403.76 147.21,-406.41 152.09,-408.63"/>
<polygon fill="#63b8ff" stroke="#63b8ff" points="65.8,-305.96 57.92,-298.88 59.67,-309.33 65.8,-305.96"/>
</a>
</g>
</g>
<!-- Node12&#45;&gt;Node17 -->
<g id="edge20_Node000012_Node000017" class="edge">
<title>Node12&#45;&gt;Node17</title>
<g id="a_edge20_Node000012_Node000017"><a xlink:title=" ">
<path fill="none" stroke="#63b8ff" d="M84.43,-272.93C100.52,-265.72 120.33,-257.02 138.25,-249.62 144.68,-246.97 151.66,-244.22 158.21,-241.69"/>
<polygon fill="#63b8ff" stroke="#63b8ff" points="83.01,-269.73 75.33,-277.03 85.88,-276.12 83.01,-269.73"/>
</a>
</g>
</g>
<!-- Node12&#45;&gt;Node11 -->
<g id="edge15_Node000012_Node000011" class="edge">
<title>Node12&#45;&gt;Node11</title>
<g id="a_edge15_Node000012_Node000011"><a xlink:title=" ">
<path fill="none" stroke="#8b1a1a" d="M95.34,-300.45C134.92,-309.43 193.32,-315.44 233.75,-287.62 270.61,-262.27 238.1,-225.24 269.75,-193.62 276.81,-186.57 286.93,-182.23 295.98,-179.58"/>
<polygon fill="#8b1a1a" stroke="#8b1a1a" points="96.22,-297.06 85.68,-298.09 94.56,-303.86 96.22,-297.06"/>
</a>
</g>
</g>
<!-- Node12&#45;&gt;Node4 -->
<g id="edge22_Node000012_Node000004" class="edge">
<title>Node12&#45;&gt;Node4</title>
<g id="a_edge22_Node000012_Node000004"><a xlink:title=" ">
<path fill="none" stroke="#63b8ff" d="M80.59,-271.29C88.51,-265.6 96.51,-258.62 102.25,-250.62 132.76,-208.16 102.34,-176.63 138.25,-138.62 144.22,-132.3 152.66,-128.17 160.73,-125.49"/>
<polygon fill="#63b8ff" stroke="#63b8ff" points="78.8,-268.28 72.39,-276.72 82.66,-274.12 78.8,-268.28"/>
</a>
</g>
</g>
<!-- Node13 -->
<g id="Node000013" class="node">
<title>Node13</title>
<g id="a_Node000013"><a xlink:href="class_c_log_writer.html" target="_top" xlink:title="Class to handle the logging for a module This class is used to write log entries for a specific modul...">
<polygon fill="white" stroke="#666666" points="218.38,-391.25 153.62,-391.25 153.62,-372 218.38,-372 218.38,-391.25"/>
<text xml:space="preserve" text-anchor="middle" x="186" y="-377.75" font-family="Helvetica,sans-Serif" font-size="10.00">CLogWriter</text>
</a>
</g>
</g>
<!-- Node12&#45;&gt;Node13 -->
<g id="edge16_Node000012_Node000013" class="edge">
<title>Node12&#45;&gt;Node13</title>
<g id="a_edge16_Node000012_Node000013"><a xlink:title=" ">
<path fill="none" stroke="#63b8ff" d="M68.63,-305.47C84.97,-322.31 111.39,-347.33 138.25,-363.62 143.16,-366.6 148.64,-369.24 154.08,-371.52"/>
<polygon fill="#63b8ff" stroke="#63b8ff" points="71.52,-303.43 62.09,-298.6 66.45,-308.26 71.52,-303.43"/>
</a>
</g>
</g>
<!-- Node16 -->
<g id="Node000016" class="node">
<title>Node16</title>
<g id="a_Node000016"><a xlink:href="class_c_m_d_n_s_controller.html" target="_top" xlink:title=" ">
<polygon fill="white" stroke="#666666" points="233.75,-278.25 138.25,-278.25 138.25,-259 233.75,-259 233.75,-278.25"/>
<text xml:space="preserve" text-anchor="middle" x="186" y="-264.75" font-family="Helvetica,sans-Serif" font-size="10.00">CMDNSController</text>
</a>
</g>
</g>
<!-- Node12&#45;&gt;Node16 -->
<g id="edge19_Node000012_Node000016" class="edge">
<title>Node12&#45;&gt;Node16</title>
<g id="a_edge19_Node000012_Node000016"><a xlink:title=" ">
<path fill="none" stroke="#63b8ff" d="M114.03,-278.77C122.1,-277.62 130.26,-276.45 138.02,-275.34"/>
<polygon fill="#63b8ff" stroke="#63b8ff" points="113.64,-275.29 104.24,-280.17 114.63,-282.22 113.64,-275.29"/>
</a>
</g>
</g>
<!-- Node14 -->
<g id="Node000014" class="node">
<title>Node14</title>
<g id="a_Node000014"><a xlink:href="class_c_stream_log_writer.html" target="_top" xlink:title="Log writer that prints log entries to an Arduino Stream.">
<polygon fill="white" stroke="#666666" points="366,-391.25 269.75,-391.25 269.75,-372 366,-372 366,-391.25"/>
<text xml:space="preserve" text-anchor="middle" x="317.88" y="-377.75" font-family="Helvetica,sans-Serif" font-size="10.00">CStreamLogWriter</text>
</a>
</g>
</g>
<!-- Node13&#45;&gt;Node14 -->
<g id="edge17_Node000013_Node000014" class="edge">
<title>Node13&#45;&gt;Node14</title>
<g id="a_edge17_Node000013_Node000014"><a xlink:title=" ">
<path fill="none" stroke="#63b8ff" d="M230.03,-381.62C242.75,-381.62 256.75,-381.62 269.71,-381.62"/>
<polygon fill="#63b8ff" stroke="#63b8ff" points="230.28,-378.13 220.28,-381.63 230.28,-385.13 230.28,-378.13"/>
</a>
</g>
</g>
<!-- Node15 -->
<g id="Node000015" class="node">
<title>Node15</title>
<g id="a_Node000015"><a xlink:href="class_c_serial_log_writer.html" target="_top" xlink:title="Stream log writer preconfigured for Serial.">
<polygon fill="white" stroke="#666666" points="493.38,-391.25 403.88,-391.25 403.88,-372 493.38,-372 493.38,-391.25"/>
<text xml:space="preserve" text-anchor="middle" x="448.62" y="-377.75" font-family="Helvetica,sans-Serif" font-size="10.00">CSerialLogWriter</text>
</a>
</g>
</g>
<!-- Node14&#45;&gt;Node15 -->
<g id="edge18_Node000014_Node000015" class="edge">
<title>Node14&#45;&gt;Node15</title>
<g id="a_edge18_Node000014_Node000015"><a xlink:title=" ">
<path fill="none" stroke="#63b8ff" d="M377.77,-381.62C386.48,-381.62 395.32,-381.62 403.66,-381.62"/>
<polygon fill="#63b8ff" stroke="#63b8ff" points="377.96,-378.13 367.96,-381.63 377.96,-385.13 377.96,-378.13"/>
</a>
</g>
</g>
<!-- Node22 -->
<g id="Node000022" class="node">
<title>Node22</title>
<g id="a_Node000022"><a xlink:href="class_i_status_handler.html" target="_top" xlink:title="Interface for a status handler module.">
<polygon fill="white" stroke="#666666" points="91.75,-75.25 10.5,-75.25 10.5,-56 91.75,-56 91.75,-75.25"/>
<text xml:space="preserve" text-anchor="middle" x="51.12" y="-61.75" font-family="Helvetica,sans-Serif" font-size="10.00">IStatusHandler</text>
</a>
</g>
</g>
<!-- Node22&#45;&gt;Node4 -->
<g id="edge27_Node000022_Node000004" class="edge">
<title>Node22&#45;&gt;Node4</title>
<g id="a_edge27_Node000022_Node000004"><a xlink:title=" ">
<path fill="none" stroke="#63b8ff" d="M85.13,-80.15C101.11,-87.1 120.62,-95.45 138.25,-102.62 145.5,-105.58 153.43,-108.68 160.67,-111.46"/>
<polygon fill="#63b8ff" stroke="#63b8ff" points="86.64,-77 76.08,-76.21 83.85,-83.41 86.64,-77"/>
</a>
</g>
</g>
<!-- Node23 -->
<g id="Node000023" class="node">
<title>Node23</title>
<g id="a_Node000023"><a xlink:href="class_c_f_s.html" target="_top" xlink:title="Filesystem facade used by modules to avoid direct LittleFS/SPIFFS use.">
<polygon fill="white" stroke="#666666" points="204.12,-56.25 167.88,-56.25 167.88,-37 204.12,-37 204.12,-56.25"/>
<text xml:space="preserve" text-anchor="middle" x="186" y="-42.75" font-family="Helvetica,sans-Serif" font-size="10.00">CFS</text>
</a>
</g>
</g>
<!-- Node22&#45;&gt;Node23 -->
<g id="edge23_Node000022_Node000023" class="edge">
<title>Node22&#45;&gt;Node23</title>
<g id="a_edge23_Node000022_Node000023"><a xlink:title=" ">
<path fill="none" stroke="#63b8ff" d="M103.26,-58.31C126.02,-55.06 151.32,-51.44 167.66,-49.1"/>
<polygon fill="#63b8ff" stroke="#63b8ff" points="102.89,-54.83 93.49,-59.71 103.88,-61.76 102.89,-54.83"/>
</a>
</g>
</g>
<!-- Node21 -->
<g id="Node000021" class="node">
<title>Node21</title>
<g id="a_Node000021"><a xlink:href="class_c_status_handler.html" target="_top" xlink:title="Status handler class.">
<polygon fill="white" stroke="#666666" points="228.88,-93.25 143.12,-93.25 143.12,-74 228.88,-74 228.88,-93.25"/>
<text xml:space="preserve" text-anchor="middle" x="186" y="-79.75" font-family="Helvetica,sans-Serif" font-size="10.00">CStatusHandler</text>
</a>
</g>
</g>
<!-- Node22&#45;&gt;Node21 -->
<g id="edge24_Node000022_Node000021" class="edge">
<title>Node22&#45;&gt;Node21</title>
<g id="a_edge24_Node000022_Node000021"><a xlink:title=" ">
<path fill="none" stroke="#63b8ff" d="M103.23,-72.55C116.33,-74.32 130.26,-76.21 142.85,-77.92"/>
<polygon fill="#63b8ff" stroke="#63b8ff" points="103.87,-69.1 93.49,-71.23 102.93,-76.04 103.87,-69.1"/>
</a>
</g>
</g>
<!-- Node24 -->
<g id="Node000024" class="node">
<title>Node24</title>
<g id="a_Node000024"><a xlink:href="class_c_sys_status.html" target="_top" xlink:title="SysStatus.h.">
<polygon fill="white" stroke="#666666" points="220.62,-19.25 151.38,-19.25 151.38,0 220.62,0 220.62,-19.25"/>
<text xml:space="preserve" text-anchor="middle" x="186" y="-5.75" font-family="Helvetica,sans-Serif" font-size="10.00">CSysStatus</text>
</a>
</g>
</g>
<!-- Node22&#45;&gt;Node24 -->
<g id="edge26_Node000022_Node000024" class="edge">
<title>Node22&#45;&gt;Node24</title>
<g id="a_edge26_Node000022_Node000024"><a xlink:title=" ">
<path fill="none" stroke="#63b8ff" d="M84.43,-50.93C100.52,-43.72 120.33,-35.02 138.25,-27.62 144.68,-24.97 151.66,-22.22 158.21,-19.69"/>
<polygon fill="#63b8ff" stroke="#63b8ff" points="83.01,-47.73 75.33,-55.03 85.88,-54.12 83.01,-47.73"/>
</a>
</g>
</g>
<!-- Node21&#45;&gt;Node11 -->
<g id="edge25_Node000021_Node000011" class="edge">
<title>Node21&#45;&gt;Node11</title>
<g id="a_edge25_Node000021_Node000011"><a xlink:title=" ">
<path fill="none" stroke="#63b8ff" d="M230.31,-99.06C231.5,-99.87 232.65,-100.73 233.75,-101.62 256.69,-120.31 246.78,-138.97 269.75,-157.62 277.36,-163.81 287.34,-168.03 296.14,-170.82"/>
<polygon fill="#63b8ff" stroke="#63b8ff" points="232.36,-96.2 221.94,-94.3 228.9,-102.28 232.36,-96.2"/>
</a>
</g>
</g>
</g>
</svg>
