<?xml version="1.0" encoding="UTF-8" standalone="no"?>
<!DOCTYPE svg PUBLIC "-//W3C//DTD SVG 1.1//EN"
 "http://www.w3.org/Graphics/SVG/1.1/DTD/svg11.dtd">
<!-- Generated by graphviz version 15.1.0 (20260618.0150)
 -->
<!-- Title: Graphical Class Hierarchy Pages: 1 -->
<svg width="343pt" height="64pt"
 viewBox="0.00 0.00 343.00 64.00" xmlns="http://www.w3.org/2000/svg" xmlns:xlink="http://www.w3.org/1999/xlink">
<g id="graph0" class="graph" transform="scale(1 1) rotate(0) translate(4 60.25)">
<title>Graphical Class Hierarchy</title>
<!-- Node0 -->
<g id="Node000000" class="node">
<title>Node0</title>
<g id="a_Node000000"><a xlink:href="class_c_pin_controller.html" target="_top" xlink:title="PinController.h.">
<polygon fill="white" stroke="#666666" points="79.75,-37.25 0,-37.25 0,-18 79.75,-18 79.75,-37.25"/>
<text xml:space="preserve" text-anchor="middle" x="39.88" y="-23.75" font-family="Helvetica,sans-Serif" font-size="10.00">CPinController</text>
</a>
</g>
</g>
<!-- Node1 -->
<g id="Node000001" class="node">
<title>Node1</title>
<g id="a_Node000001"><a xlink:href="class_c_input_pin_controller.html" target="_top" xlink:title="InputPinController.h.">
<polygon fill="white" stroke="#666666" points="221,-56.25 119.5,-56.25 119.5,-37 221,-37 221,-56.25"/>
<text xml:space="preserve" text-anchor="middle" x="170.25" y="-42.75" font-family="Helvetica,sans-Serif" font-size="10.00">CInputPinController</text>
</a>
</g>
</g>
<!-- Node0&#45;&gt;Node1 -->
<g id="edge31_Node000000_Node000001" class="edge">
<title>Node0&#45;&gt;Node1</title>
<g id="a_edge31_Node000000_Node000001"><a xlink:title=" ">
<path fill="none" stroke="#63b8ff" d="M91.45,-35.11C100.63,-36.47 110.2,-37.89 119.36,-39.24"/>
<polygon fill="#63b8ff" stroke="#63b8ff" points="91.99,-31.65 81.59,-33.65 90.97,-38.58 91.99,-31.65"/>
</a>
</g>
</g>
<!-- Node3 -->
<g id="Node000003" class="node">
<title>Node3</title>
<g id="a_Node000003"><a xlink:href="class_c_output_pin_controller.html" target="_top" xlink:title="Base class to controll a pin as in or output with helper functions.">
<polygon fill="white" stroke="#666666" points="224.75,-19.25 115.75,-19.25 115.75,0 224.75,0 224.75,-19.25"/>
<text xml:space="preserve" text-anchor="middle" x="170.25" y="-5.75" font-family="Helvetica,sans-Serif" font-size="10.00">COutputPinController</text>
</a>
</g>
</g>
<!-- Node0&#45;&gt;Node3 -->
<g id="edge33_Node000000_Node000003" class="edge">
<title>Node0&#45;&gt;Node3</title>
<g id="a_edge33_Node000000_Node000003"><a xlink:title=" ">
<path fill="none" stroke="#63b8ff" d="M91.45,-20.53C99.39,-19.42 107.62,-18.27 115.62,-17.14"/>
<polygon fill="#63b8ff" stroke="#63b8ff" points="91.01,-17.06 81.59,-21.92 91.98,-23.99 91.01,-17.06"/>
</a>
</g>
</g>
<!-- Node2 -->
<g id="Node000002" class="node">
<title>Node2</title>
<g id="a_Node000002"><a xlink:href="class_c_button.html" target="_top" xlink:title=" ">
<polygon fill="white" stroke="#666666" points="324,-56.25 272,-56.25 272,-37 324,-37 324,-56.25"/>
<text xml:space="preserve" text-anchor="middle" x="298" y="-42.75" font-family="Helvetica,sans-Serif" font-size="10.00">CButton</text>
</a>
</g>
</g>
<!-- Node1&#45;&gt;Node2 -->
<g id="edge32_Node000001_Node000002" class="edge">
<title>Node1&#45;&gt;Node2</title>
<g id="a_edge32_Node000001_Node000002"><a xlink:title=" ">
<path fill="none" stroke="#8b1a1a" d="M232.77,-46.62C246.51,-46.62 260.34,-46.62 271.62,-46.62"/>
<polygon fill="#8b1a1a" stroke="#8b1a1a" points="232.82,-43.13 222.82,-46.63 232.82,-50.13 232.82,-43.13"/>
</a>
</g>
</g>
<!-- Node4 -->
<g id="Node000004" class="node">
<title>Node4</title>
<g id="a_Node000004"><a xlink:href="class_c_light_switch.html" target="_top" xlink:title=" ">
<polygon fill="white" stroke="#666666" points="335.25,-19.25 260.75,-19.25 260.75,0 335.25,0 335.25,-19.25"/>
<text xml:space="preserve" text-anchor="middle" x="298" y="-5.75" font-family="Helvetica,sans-Serif" font-size="10.00">CLightSwitch</text>
</a>
</g>
</g>
<!-- Node3&#45;&gt;Node4 -->
<g id="edge34_Node000003_Node000004" class="edge">
<title>Node3&#45;&gt;Node4</title>
<g id="a_edge34_Node000003_Node000004"><a xlink:title=" ">
<path fill="none" stroke="#63b8ff" d="M236.29,-9.62C244.62,-9.62 252.91,-9.62 260.56,-9.62"/>
<polygon fill="#63b8ff" stroke="#63b8ff" points="236.46,-6.13 226.46,-9.63 236.46,-13.13 236.46,-6.13"/>
</a>
</g>
</g>
</g>
</svg>
